%TF.GenerationSoftware,KiCad,Pcbnew,10.0.0*%
%TF.CreationDate,2026-04-17T03:24:38+02:00*%
%TF.ProjectId,bios-programmer-ch341a,62696f73-2d70-4726-9f67-72616d6d6572,rev?*%
%TF.SameCoordinates,PX2625a00PY1c9c380*%
%TF.FileFunction,Legend,Bot*%
%TF.FilePolarity,Positive*%
%FSLAX46Y46*%
G04 Gerber Fmt 4.6, Leading zero omitted, Abs format (unit mm)*
G04 Created by KiCad (PCBNEW 10.0.0) date 2026-04-17 03:24:38*
%MOMM*%
%LPD*%
G01*
G04 APERTURE LIST*
%ADD10C,0.250000*%
%ADD11C,0.100000*%
%ADD12C,0.120000*%
G04 APERTURE END LIST*
D10*
X19200000Y-20750000D02*
X19200000Y-20700000D01*
X19200000Y-19700000D02*
X19200000Y-19650000D01*
X19200000Y-18650000D02*
X19200000Y-18600000D01*
X19200000Y-17600000D02*
X19200000Y-17550000D01*
X19200000Y-16550000D02*
X19200000Y-16500000D01*
X19200000Y-15500000D02*
X19200000Y-15450000D01*
X19200000Y-14450000D02*
X19200000Y-14400000D01*
X19200000Y-13400000D02*
X19200000Y-13350000D01*
X19200000Y-12350000D02*
X19200000Y-12300000D01*
X19200000Y-11300000D02*
X19200000Y-11250000D01*
X19200000Y-10250000D02*
X19200000Y-10200000D01*
X19200000Y-9200000D02*
X19200000Y-9150000D01*
X19200000Y-8150000D02*
X19200000Y-8100000D01*
X19200000Y-7100000D02*
X19200000Y-7050000D01*
X19200000Y-6050000D02*
X19200000Y-6000000D01*
X19200000Y-5000000D02*
X19200000Y-4950000D01*
X19200000Y-3950000D02*
X19200000Y-3900000D01*
X19200000Y-2900000D02*
X19200000Y-2850000D01*
X19200000Y-1850000D02*
X19200000Y-1800000D01*
X19200000Y-800000D02*
X19200000Y-750000D01*
X32450000Y-21500000D02*
X32400000Y-21500000D01*
X31400000Y-21500000D02*
X31350000Y-21500000D01*
X30350000Y-21500000D02*
X30300000Y-21500000D01*
X29300000Y-21500000D02*
X29250000Y-21500000D01*
X28250000Y-21500000D02*
X28200000Y-21500000D01*
X27200000Y-21500000D02*
X27150000Y-21500000D01*
X26150000Y-21500000D02*
X26100000Y-21500000D01*
X25100000Y-21500000D02*
X25050000Y-21500000D01*
X24050000Y-21500000D02*
X24000000Y-21500000D01*
X23000000Y-21500000D02*
X22950000Y-21500000D01*
X21950000Y-21500000D02*
X21900000Y-21500000D01*
X20900000Y-21500000D02*
X20850000Y-21500000D01*
X19850000Y-21500000D02*
X19800000Y-21500000D01*
X38000000Y-27250000D02*
X37964645Y-27214645D01*
X37257538Y-26507538D02*
X37222183Y-26472183D01*
X36515076Y-25765076D02*
X36479720Y-25729720D01*
X35772614Y-25022614D02*
X35737258Y-24987258D01*
X35030152Y-24280152D02*
X34994796Y-24244796D01*
X34287689Y-23537689D02*
X34252334Y-23502334D01*
X33545227Y-22795227D02*
X33509872Y-22759872D01*
X32802765Y-22052765D02*
X32767410Y-22017410D01*
X50700000Y-27260000D02*
X50650000Y-27260000D01*
X49650000Y-27260000D02*
X49600000Y-27260000D01*
X48600000Y-27260000D02*
X48550000Y-27260000D01*
X47550000Y-27260000D02*
X47500000Y-27260000D01*
X46500000Y-27260000D02*
X46450000Y-27260000D01*
X45450000Y-27260000D02*
X45400000Y-27260000D01*
X44400000Y-27260000D02*
X44350000Y-27260000D01*
X43350000Y-27260000D02*
X43300000Y-27260000D01*
X42300000Y-27260000D02*
X42250000Y-27260000D01*
X41250000Y-27260000D02*
X41200000Y-27260000D01*
X40200000Y-27260000D02*
X40150000Y-27260000D01*
X39150000Y-27260000D02*
X39100000Y-27260000D01*
D11*
X42731228Y-1773809D02*
X43207419Y-1773809D01*
X42207419Y-1440476D02*
X42731228Y-1773809D01*
X42731228Y-1773809D02*
X42207419Y-2107142D01*
X43207419Y-2964285D02*
X43207419Y-2392857D01*
X43207419Y-2678571D02*
X42207419Y-2678571D01*
X42207419Y-2678571D02*
X42350276Y-2583333D01*
X42350276Y-2583333D02*
X42445514Y-2488095D01*
X42445514Y-2488095D02*
X42493133Y-2392857D01*
X20011904Y-8807419D02*
X20011904Y-9616942D01*
X20011904Y-9616942D02*
X19964285Y-9712180D01*
X19964285Y-9712180D02*
X19916666Y-9759800D01*
X19916666Y-9759800D02*
X19821428Y-9807419D01*
X19821428Y-9807419D02*
X19630952Y-9807419D01*
X19630952Y-9807419D02*
X19535714Y-9759800D01*
X19535714Y-9759800D02*
X19488095Y-9712180D01*
X19488095Y-9712180D02*
X19440476Y-9616942D01*
X19440476Y-9616942D02*
X19440476Y-8807419D01*
X19059523Y-8807419D02*
X18440476Y-8807419D01*
X18440476Y-8807419D02*
X18773809Y-9188371D01*
X18773809Y-9188371D02*
X18630952Y-9188371D01*
X18630952Y-9188371D02*
X18535714Y-9235990D01*
X18535714Y-9235990D02*
X18488095Y-9283609D01*
X18488095Y-9283609D02*
X18440476Y-9378847D01*
X18440476Y-9378847D02*
X18440476Y-9616942D01*
X18440476Y-9616942D02*
X18488095Y-9712180D01*
X18488095Y-9712180D02*
X18535714Y-9759800D01*
X18535714Y-9759800D02*
X18630952Y-9807419D01*
X18630952Y-9807419D02*
X18916666Y-9807419D01*
X18916666Y-9807419D02*
X19011904Y-9759800D01*
X19011904Y-9759800D02*
X19059523Y-9712180D01*
X42156265Y-53557419D02*
X42156265Y-54271704D01*
X42156265Y-54271704D02*
X42203884Y-54414561D01*
X42203884Y-54414561D02*
X42299122Y-54509800D01*
X42299122Y-54509800D02*
X42441979Y-54557419D01*
X42441979Y-54557419D02*
X42537217Y-54557419D01*
X41775312Y-53557419D02*
X41108646Y-53557419D01*
X41108646Y-53557419D02*
X41537217Y-54557419D01*
X37166666Y-6462180D02*
X37214285Y-6509800D01*
X37214285Y-6509800D02*
X37357142Y-6557419D01*
X37357142Y-6557419D02*
X37452380Y-6557419D01*
X37452380Y-6557419D02*
X37595237Y-6509800D01*
X37595237Y-6509800D02*
X37690475Y-6414561D01*
X37690475Y-6414561D02*
X37738094Y-6319323D01*
X37738094Y-6319323D02*
X37785713Y-6128847D01*
X37785713Y-6128847D02*
X37785713Y-5985990D01*
X37785713Y-5985990D02*
X37738094Y-5795514D01*
X37738094Y-5795514D02*
X37690475Y-5700276D01*
X37690475Y-5700276D02*
X37595237Y-5605038D01*
X37595237Y-5605038D02*
X37452380Y-5557419D01*
X37452380Y-5557419D02*
X37357142Y-5557419D01*
X37357142Y-5557419D02*
X37214285Y-5605038D01*
X37214285Y-5605038D02*
X37166666Y-5652657D01*
X36309523Y-5557419D02*
X36499999Y-5557419D01*
X36499999Y-5557419D02*
X36595237Y-5605038D01*
X36595237Y-5605038D02*
X36642856Y-5652657D01*
X36642856Y-5652657D02*
X36738094Y-5795514D01*
X36738094Y-5795514D02*
X36785713Y-5985990D01*
X36785713Y-5985990D02*
X36785713Y-6366942D01*
X36785713Y-6366942D02*
X36738094Y-6462180D01*
X36738094Y-6462180D02*
X36690475Y-6509800D01*
X36690475Y-6509800D02*
X36595237Y-6557419D01*
X36595237Y-6557419D02*
X36404761Y-6557419D01*
X36404761Y-6557419D02*
X36309523Y-6509800D01*
X36309523Y-6509800D02*
X36261904Y-6462180D01*
X36261904Y-6462180D02*
X36214285Y-6366942D01*
X36214285Y-6366942D02*
X36214285Y-6128847D01*
X36214285Y-6128847D02*
X36261904Y-6033609D01*
X36261904Y-6033609D02*
X36309523Y-5985990D01*
X36309523Y-5985990D02*
X36404761Y-5938371D01*
X36404761Y-5938371D02*
X36595237Y-5938371D01*
X36595237Y-5938371D02*
X36690475Y-5985990D01*
X36690475Y-5985990D02*
X36738094Y-6033609D01*
X36738094Y-6033609D02*
X36785713Y-6128847D01*
X23057419Y-12238095D02*
X23866942Y-12238095D01*
X23866942Y-12238095D02*
X23962180Y-12285714D01*
X23962180Y-12285714D02*
X24009800Y-12333333D01*
X24009800Y-12333333D02*
X24057419Y-12428571D01*
X24057419Y-12428571D02*
X24057419Y-12619047D01*
X24057419Y-12619047D02*
X24009800Y-12714285D01*
X24009800Y-12714285D02*
X23962180Y-12761904D01*
X23962180Y-12761904D02*
X23866942Y-12809523D01*
X23866942Y-12809523D02*
X23057419Y-12809523D01*
X24057419Y-13809523D02*
X24057419Y-13238095D01*
X24057419Y-13523809D02*
X23057419Y-13523809D01*
X23057419Y-13523809D02*
X23200276Y-13428571D01*
X23200276Y-13428571D02*
X23295514Y-13333333D01*
X23295514Y-13333333D02*
X23343133Y-13238095D01*
X20362180Y-17988333D02*
X20409800Y-17940714D01*
X20409800Y-17940714D02*
X20457419Y-17797857D01*
X20457419Y-17797857D02*
X20457419Y-17702619D01*
X20457419Y-17702619D02*
X20409800Y-17559762D01*
X20409800Y-17559762D02*
X20314561Y-17464524D01*
X20314561Y-17464524D02*
X20219323Y-17416905D01*
X20219323Y-17416905D02*
X20028847Y-17369286D01*
X20028847Y-17369286D02*
X19885990Y-17369286D01*
X19885990Y-17369286D02*
X19695514Y-17416905D01*
X19695514Y-17416905D02*
X19600276Y-17464524D01*
X19600276Y-17464524D02*
X19505038Y-17559762D01*
X19505038Y-17559762D02*
X19457419Y-17702619D01*
X19457419Y-17702619D02*
X19457419Y-17797857D01*
X19457419Y-17797857D02*
X19505038Y-17940714D01*
X19505038Y-17940714D02*
X19552657Y-17988333D01*
X19790752Y-18845476D02*
X20457419Y-18845476D01*
X19409800Y-18607381D02*
X20124085Y-18369286D01*
X20124085Y-18369286D02*
X20124085Y-18988333D01*
X26916666Y-6459594D02*
X27249999Y-5983403D01*
X27488094Y-6459594D02*
X27488094Y-5459594D01*
X27488094Y-5459594D02*
X27107142Y-5459594D01*
X27107142Y-5459594D02*
X27011904Y-5507213D01*
X27011904Y-5507213D02*
X26964285Y-5554832D01*
X26964285Y-5554832D02*
X26916666Y-5650070D01*
X26916666Y-5650070D02*
X26916666Y-5792927D01*
X26916666Y-5792927D02*
X26964285Y-5888165D01*
X26964285Y-5888165D02*
X27011904Y-5935784D01*
X27011904Y-5935784D02*
X27107142Y-5983403D01*
X27107142Y-5983403D02*
X27488094Y-5983403D01*
X26535713Y-5554832D02*
X26488094Y-5507213D01*
X26488094Y-5507213D02*
X26392856Y-5459594D01*
X26392856Y-5459594D02*
X26154761Y-5459594D01*
X26154761Y-5459594D02*
X26059523Y-5507213D01*
X26059523Y-5507213D02*
X26011904Y-5554832D01*
X26011904Y-5554832D02*
X25964285Y-5650070D01*
X25964285Y-5650070D02*
X25964285Y-5745308D01*
X25964285Y-5745308D02*
X26011904Y-5888165D01*
X26011904Y-5888165D02*
X26583332Y-6459594D01*
X26583332Y-6459594D02*
X25964285Y-6459594D01*
X46182180Y-14970833D02*
X46229800Y-14923214D01*
X46229800Y-14923214D02*
X46277419Y-14780357D01*
X46277419Y-14780357D02*
X46277419Y-14685119D01*
X46277419Y-14685119D02*
X46229800Y-14542262D01*
X46229800Y-14542262D02*
X46134561Y-14447024D01*
X46134561Y-14447024D02*
X46039323Y-14399405D01*
X46039323Y-14399405D02*
X45848847Y-14351786D01*
X45848847Y-14351786D02*
X45705990Y-14351786D01*
X45705990Y-14351786D02*
X45515514Y-14399405D01*
X45515514Y-14399405D02*
X45420276Y-14447024D01*
X45420276Y-14447024D02*
X45325038Y-14542262D01*
X45325038Y-14542262D02*
X45277419Y-14685119D01*
X45277419Y-14685119D02*
X45277419Y-14780357D01*
X45277419Y-14780357D02*
X45325038Y-14923214D01*
X45325038Y-14923214D02*
X45372657Y-14970833D01*
X45372657Y-15351786D02*
X45325038Y-15399405D01*
X45325038Y-15399405D02*
X45277419Y-15494643D01*
X45277419Y-15494643D02*
X45277419Y-15732738D01*
X45277419Y-15732738D02*
X45325038Y-15827976D01*
X45325038Y-15827976D02*
X45372657Y-15875595D01*
X45372657Y-15875595D02*
X45467895Y-15923214D01*
X45467895Y-15923214D02*
X45563133Y-15923214D01*
X45563133Y-15923214D02*
X45705990Y-15875595D01*
X45705990Y-15875595D02*
X46277419Y-15304167D01*
X46277419Y-15304167D02*
X46277419Y-15923214D01*
X8410401Y-1757419D02*
X8410401Y-2471704D01*
X8410401Y-2471704D02*
X8458020Y-2614561D01*
X8458020Y-2614561D02*
X8553258Y-2709800D01*
X8553258Y-2709800D02*
X8696115Y-2757419D01*
X8696115Y-2757419D02*
X8791353Y-2757419D01*
X7791353Y-2185990D02*
X7886591Y-2138371D01*
X7886591Y-2138371D02*
X7934210Y-2090752D01*
X7934210Y-2090752D02*
X7981829Y-1995514D01*
X7981829Y-1995514D02*
X7981829Y-1947895D01*
X7981829Y-1947895D02*
X7934210Y-1852657D01*
X7934210Y-1852657D02*
X7886591Y-1805038D01*
X7886591Y-1805038D02*
X7791353Y-1757419D01*
X7791353Y-1757419D02*
X7600877Y-1757419D01*
X7600877Y-1757419D02*
X7505639Y-1805038D01*
X7505639Y-1805038D02*
X7458020Y-1852657D01*
X7458020Y-1852657D02*
X7410401Y-1947895D01*
X7410401Y-1947895D02*
X7410401Y-1995514D01*
X7410401Y-1995514D02*
X7458020Y-2090752D01*
X7458020Y-2090752D02*
X7505639Y-2138371D01*
X7505639Y-2138371D02*
X7600877Y-2185990D01*
X7600877Y-2185990D02*
X7791353Y-2185990D01*
X7791353Y-2185990D02*
X7886591Y-2233609D01*
X7886591Y-2233609D02*
X7934210Y-2281228D01*
X7934210Y-2281228D02*
X7981829Y-2376466D01*
X7981829Y-2376466D02*
X7981829Y-2566942D01*
X7981829Y-2566942D02*
X7934210Y-2662180D01*
X7934210Y-2662180D02*
X7886591Y-2709800D01*
X7886591Y-2709800D02*
X7791353Y-2757419D01*
X7791353Y-2757419D02*
X7600877Y-2757419D01*
X7600877Y-2757419D02*
X7505639Y-2709800D01*
X7505639Y-2709800D02*
X7458020Y-2662180D01*
X7458020Y-2662180D02*
X7410401Y-2566942D01*
X7410401Y-2566942D02*
X7410401Y-2376466D01*
X7410401Y-2376466D02*
X7458020Y-2281228D01*
X7458020Y-2281228D02*
X7505639Y-2233609D01*
X7505639Y-2233609D02*
X7600877Y-2185990D01*
X35391592Y-26548095D02*
X36201115Y-26548095D01*
X36201115Y-26548095D02*
X36296353Y-26595714D01*
X36296353Y-26595714D02*
X36343973Y-26643333D01*
X36343973Y-26643333D02*
X36391592Y-26738571D01*
X36391592Y-26738571D02*
X36391592Y-26929047D01*
X36391592Y-26929047D02*
X36343973Y-27024285D01*
X36343973Y-27024285D02*
X36296353Y-27071904D01*
X36296353Y-27071904D02*
X36201115Y-27119523D01*
X36201115Y-27119523D02*
X35391592Y-27119523D01*
X35486830Y-27548095D02*
X35439211Y-27595714D01*
X35439211Y-27595714D02*
X35391592Y-27690952D01*
X35391592Y-27690952D02*
X35391592Y-27929047D01*
X35391592Y-27929047D02*
X35439211Y-28024285D01*
X35439211Y-28024285D02*
X35486830Y-28071904D01*
X35486830Y-28071904D02*
X35582068Y-28119523D01*
X35582068Y-28119523D02*
X35677306Y-28119523D01*
X35677306Y-28119523D02*
X35820163Y-28071904D01*
X35820163Y-28071904D02*
X36391592Y-27500476D01*
X36391592Y-27500476D02*
X36391592Y-28119523D01*
X17512180Y-5357142D02*
X17559800Y-5309523D01*
X17559800Y-5309523D02*
X17607419Y-5166666D01*
X17607419Y-5166666D02*
X17607419Y-5071428D01*
X17607419Y-5071428D02*
X17559800Y-4928571D01*
X17559800Y-4928571D02*
X17464561Y-4833333D01*
X17464561Y-4833333D02*
X17369323Y-4785714D01*
X17369323Y-4785714D02*
X17178847Y-4738095D01*
X17178847Y-4738095D02*
X17035990Y-4738095D01*
X17035990Y-4738095D02*
X16845514Y-4785714D01*
X16845514Y-4785714D02*
X16750276Y-4833333D01*
X16750276Y-4833333D02*
X16655038Y-4928571D01*
X16655038Y-4928571D02*
X16607419Y-5071428D01*
X16607419Y-5071428D02*
X16607419Y-5166666D01*
X16607419Y-5166666D02*
X16655038Y-5309523D01*
X16655038Y-5309523D02*
X16702657Y-5357142D01*
X17607419Y-6309523D02*
X17607419Y-5738095D01*
X17607419Y-6023809D02*
X16607419Y-6023809D01*
X16607419Y-6023809D02*
X16750276Y-5928571D01*
X16750276Y-5928571D02*
X16845514Y-5833333D01*
X16845514Y-5833333D02*
X16893133Y-5738095D01*
X16607419Y-6928571D02*
X16607419Y-7023809D01*
X16607419Y-7023809D02*
X16655038Y-7119047D01*
X16655038Y-7119047D02*
X16702657Y-7166666D01*
X16702657Y-7166666D02*
X16797895Y-7214285D01*
X16797895Y-7214285D02*
X16988371Y-7261904D01*
X16988371Y-7261904D02*
X17226466Y-7261904D01*
X17226466Y-7261904D02*
X17416942Y-7214285D01*
X17416942Y-7214285D02*
X17512180Y-7166666D01*
X17512180Y-7166666D02*
X17559800Y-7119047D01*
X17559800Y-7119047D02*
X17607419Y-7023809D01*
X17607419Y-7023809D02*
X17607419Y-6928571D01*
X17607419Y-6928571D02*
X17559800Y-6833333D01*
X17559800Y-6833333D02*
X17512180Y-6785714D01*
X17512180Y-6785714D02*
X17416942Y-6738095D01*
X17416942Y-6738095D02*
X17226466Y-6690476D01*
X17226466Y-6690476D02*
X16988371Y-6690476D01*
X16988371Y-6690476D02*
X16797895Y-6738095D01*
X16797895Y-6738095D02*
X16702657Y-6785714D01*
X16702657Y-6785714D02*
X16655038Y-6833333D01*
X16655038Y-6833333D02*
X16607419Y-6928571D01*
X41112180Y-4333333D02*
X41159800Y-4285714D01*
X41159800Y-4285714D02*
X41207419Y-4142857D01*
X41207419Y-4142857D02*
X41207419Y-4047619D01*
X41207419Y-4047619D02*
X41159800Y-3904762D01*
X41159800Y-3904762D02*
X41064561Y-3809524D01*
X41064561Y-3809524D02*
X40969323Y-3761905D01*
X40969323Y-3761905D02*
X40778847Y-3714286D01*
X40778847Y-3714286D02*
X40635990Y-3714286D01*
X40635990Y-3714286D02*
X40445514Y-3761905D01*
X40445514Y-3761905D02*
X40350276Y-3809524D01*
X40350276Y-3809524D02*
X40255038Y-3904762D01*
X40255038Y-3904762D02*
X40207419Y-4047619D01*
X40207419Y-4047619D02*
X40207419Y-4142857D01*
X40207419Y-4142857D02*
X40255038Y-4285714D01*
X40255038Y-4285714D02*
X40302657Y-4333333D01*
X41207419Y-5285714D02*
X41207419Y-4714286D01*
X41207419Y-5000000D02*
X40207419Y-5000000D01*
X40207419Y-5000000D02*
X40350276Y-4904762D01*
X40350276Y-4904762D02*
X40445514Y-4809524D01*
X40445514Y-4809524D02*
X40493133Y-4714286D01*
X25816666Y-3682180D02*
X25864285Y-3729800D01*
X25864285Y-3729800D02*
X26007142Y-3777419D01*
X26007142Y-3777419D02*
X26102380Y-3777419D01*
X26102380Y-3777419D02*
X26245237Y-3729800D01*
X26245237Y-3729800D02*
X26340475Y-3634561D01*
X26340475Y-3634561D02*
X26388094Y-3539323D01*
X26388094Y-3539323D02*
X26435713Y-3348847D01*
X26435713Y-3348847D02*
X26435713Y-3205990D01*
X26435713Y-3205990D02*
X26388094Y-3015514D01*
X26388094Y-3015514D02*
X26340475Y-2920276D01*
X26340475Y-2920276D02*
X26245237Y-2825038D01*
X26245237Y-2825038D02*
X26102380Y-2777419D01*
X26102380Y-2777419D02*
X26007142Y-2777419D01*
X26007142Y-2777419D02*
X25864285Y-2825038D01*
X25864285Y-2825038D02*
X25816666Y-2872657D01*
X25483332Y-2777419D02*
X24864285Y-2777419D01*
X24864285Y-2777419D02*
X25197618Y-3158371D01*
X25197618Y-3158371D02*
X25054761Y-3158371D01*
X25054761Y-3158371D02*
X24959523Y-3205990D01*
X24959523Y-3205990D02*
X24911904Y-3253609D01*
X24911904Y-3253609D02*
X24864285Y-3348847D01*
X24864285Y-3348847D02*
X24864285Y-3586942D01*
X24864285Y-3586942D02*
X24911904Y-3682180D01*
X24911904Y-3682180D02*
X24959523Y-3729800D01*
X24959523Y-3729800D02*
X25054761Y-3777419D01*
X25054761Y-3777419D02*
X25340475Y-3777419D01*
X25340475Y-3777419D02*
X25435713Y-3729800D01*
X25435713Y-3729800D02*
X25483332Y-3682180D01*
X20862180Y-6833333D02*
X20909800Y-6785714D01*
X20909800Y-6785714D02*
X20957419Y-6642857D01*
X20957419Y-6642857D02*
X20957419Y-6547619D01*
X20957419Y-6547619D02*
X20909800Y-6404762D01*
X20909800Y-6404762D02*
X20814561Y-6309524D01*
X20814561Y-6309524D02*
X20719323Y-6261905D01*
X20719323Y-6261905D02*
X20528847Y-6214286D01*
X20528847Y-6214286D02*
X20385990Y-6214286D01*
X20385990Y-6214286D02*
X20195514Y-6261905D01*
X20195514Y-6261905D02*
X20100276Y-6309524D01*
X20100276Y-6309524D02*
X20005038Y-6404762D01*
X20005038Y-6404762D02*
X19957419Y-6547619D01*
X19957419Y-6547619D02*
X19957419Y-6642857D01*
X19957419Y-6642857D02*
X20005038Y-6785714D01*
X20005038Y-6785714D02*
X20052657Y-6833333D01*
X19957419Y-7166667D02*
X19957419Y-7833333D01*
X19957419Y-7833333D02*
X20957419Y-7404762D01*
X34612180Y-32695833D02*
X34659800Y-32648214D01*
X34659800Y-32648214D02*
X34707419Y-32505357D01*
X34707419Y-32505357D02*
X34707419Y-32410119D01*
X34707419Y-32410119D02*
X34659800Y-32267262D01*
X34659800Y-32267262D02*
X34564561Y-32172024D01*
X34564561Y-32172024D02*
X34469323Y-32124405D01*
X34469323Y-32124405D02*
X34278847Y-32076786D01*
X34278847Y-32076786D02*
X34135990Y-32076786D01*
X34135990Y-32076786D02*
X33945514Y-32124405D01*
X33945514Y-32124405D02*
X33850276Y-32172024D01*
X33850276Y-32172024D02*
X33755038Y-32267262D01*
X33755038Y-32267262D02*
X33707419Y-32410119D01*
X33707419Y-32410119D02*
X33707419Y-32505357D01*
X33707419Y-32505357D02*
X33755038Y-32648214D01*
X33755038Y-32648214D02*
X33802657Y-32695833D01*
X34707419Y-33172024D02*
X34707419Y-33362500D01*
X34707419Y-33362500D02*
X34659800Y-33457738D01*
X34659800Y-33457738D02*
X34612180Y-33505357D01*
X34612180Y-33505357D02*
X34469323Y-33600595D01*
X34469323Y-33600595D02*
X34278847Y-33648214D01*
X34278847Y-33648214D02*
X33897895Y-33648214D01*
X33897895Y-33648214D02*
X33802657Y-33600595D01*
X33802657Y-33600595D02*
X33755038Y-33552976D01*
X33755038Y-33552976D02*
X33707419Y-33457738D01*
X33707419Y-33457738D02*
X33707419Y-33267262D01*
X33707419Y-33267262D02*
X33755038Y-33172024D01*
X33755038Y-33172024D02*
X33802657Y-33124405D01*
X33802657Y-33124405D02*
X33897895Y-33076786D01*
X33897895Y-33076786D02*
X34135990Y-33076786D01*
X34135990Y-33076786D02*
X34231228Y-33124405D01*
X34231228Y-33124405D02*
X34278847Y-33172024D01*
X34278847Y-33172024D02*
X34326466Y-33267262D01*
X34326466Y-33267262D02*
X34326466Y-33457738D01*
X34326466Y-33457738D02*
X34278847Y-33552976D01*
X34278847Y-33552976D02*
X34231228Y-33600595D01*
X34231228Y-33600595D02*
X34135990Y-33648214D01*
X34612180Y-21633333D02*
X34659800Y-21585714D01*
X34659800Y-21585714D02*
X34707419Y-21442857D01*
X34707419Y-21442857D02*
X34707419Y-21347619D01*
X34707419Y-21347619D02*
X34659800Y-21204762D01*
X34659800Y-21204762D02*
X34564561Y-21109524D01*
X34564561Y-21109524D02*
X34469323Y-21061905D01*
X34469323Y-21061905D02*
X34278847Y-21014286D01*
X34278847Y-21014286D02*
X34135990Y-21014286D01*
X34135990Y-21014286D02*
X33945514Y-21061905D01*
X33945514Y-21061905D02*
X33850276Y-21109524D01*
X33850276Y-21109524D02*
X33755038Y-21204762D01*
X33755038Y-21204762D02*
X33707419Y-21347619D01*
X33707419Y-21347619D02*
X33707419Y-21442857D01*
X33707419Y-21442857D02*
X33755038Y-21585714D01*
X33755038Y-21585714D02*
X33802657Y-21633333D01*
X34135990Y-22204762D02*
X34088371Y-22109524D01*
X34088371Y-22109524D02*
X34040752Y-22061905D01*
X34040752Y-22061905D02*
X33945514Y-22014286D01*
X33945514Y-22014286D02*
X33897895Y-22014286D01*
X33897895Y-22014286D02*
X33802657Y-22061905D01*
X33802657Y-22061905D02*
X33755038Y-22109524D01*
X33755038Y-22109524D02*
X33707419Y-22204762D01*
X33707419Y-22204762D02*
X33707419Y-22395238D01*
X33707419Y-22395238D02*
X33755038Y-22490476D01*
X33755038Y-22490476D02*
X33802657Y-22538095D01*
X33802657Y-22538095D02*
X33897895Y-22585714D01*
X33897895Y-22585714D02*
X33945514Y-22585714D01*
X33945514Y-22585714D02*
X34040752Y-22538095D01*
X34040752Y-22538095D02*
X34088371Y-22490476D01*
X34088371Y-22490476D02*
X34135990Y-22395238D01*
X34135990Y-22395238D02*
X34135990Y-22204762D01*
X34135990Y-22204762D02*
X34183609Y-22109524D01*
X34183609Y-22109524D02*
X34231228Y-22061905D01*
X34231228Y-22061905D02*
X34326466Y-22014286D01*
X34326466Y-22014286D02*
X34516942Y-22014286D01*
X34516942Y-22014286D02*
X34612180Y-22061905D01*
X34612180Y-22061905D02*
X34659800Y-22109524D01*
X34659800Y-22109524D02*
X34707419Y-22204762D01*
X34707419Y-22204762D02*
X34707419Y-22395238D01*
X34707419Y-22395238D02*
X34659800Y-22490476D01*
X34659800Y-22490476D02*
X34612180Y-22538095D01*
X34612180Y-22538095D02*
X34516942Y-22585714D01*
X34516942Y-22585714D02*
X34326466Y-22585714D01*
X34326466Y-22585714D02*
X34231228Y-22538095D01*
X34231228Y-22538095D02*
X34183609Y-22490476D01*
X34183609Y-22490476D02*
X34135990Y-22395238D01*
X23862180Y-16193333D02*
X23909800Y-16145714D01*
X23909800Y-16145714D02*
X23957419Y-16002857D01*
X23957419Y-16002857D02*
X23957419Y-15907619D01*
X23957419Y-15907619D02*
X23909800Y-15764762D01*
X23909800Y-15764762D02*
X23814561Y-15669524D01*
X23814561Y-15669524D02*
X23719323Y-15621905D01*
X23719323Y-15621905D02*
X23528847Y-15574286D01*
X23528847Y-15574286D02*
X23385990Y-15574286D01*
X23385990Y-15574286D02*
X23195514Y-15621905D01*
X23195514Y-15621905D02*
X23100276Y-15669524D01*
X23100276Y-15669524D02*
X23005038Y-15764762D01*
X23005038Y-15764762D02*
X22957419Y-15907619D01*
X22957419Y-15907619D02*
X22957419Y-16002857D01*
X22957419Y-16002857D02*
X23005038Y-16145714D01*
X23005038Y-16145714D02*
X23052657Y-16193333D01*
X22957419Y-17098095D02*
X22957419Y-16621905D01*
X22957419Y-16621905D02*
X23433609Y-16574286D01*
X23433609Y-16574286D02*
X23385990Y-16621905D01*
X23385990Y-16621905D02*
X23338371Y-16717143D01*
X23338371Y-16717143D02*
X23338371Y-16955238D01*
X23338371Y-16955238D02*
X23385990Y-17050476D01*
X23385990Y-17050476D02*
X23433609Y-17098095D01*
X23433609Y-17098095D02*
X23528847Y-17145714D01*
X23528847Y-17145714D02*
X23766942Y-17145714D01*
X23766942Y-17145714D02*
X23862180Y-17098095D01*
X23862180Y-17098095D02*
X23909800Y-17050476D01*
X23909800Y-17050476D02*
X23957419Y-16955238D01*
X23957419Y-16955238D02*
X23957419Y-16717143D01*
X23957419Y-16717143D02*
X23909800Y-16621905D01*
X23909800Y-16621905D02*
X23862180Y-16574286D01*
%TO.C,Y1*%
D12*
X43315000Y-4110000D02*
X43315000Y-10510000D01*
X48185000Y-10510000D02*
X48185000Y-4110000D01*
X43315000Y-4110000D02*
G75*
G02*
X48185000Y-4110000I2435000J0D01*
G01*
X48185000Y-10510000D02*
G75*
G02*
X43315000Y-10510000I-2435000J0D01*
G01*
%TO.C,U3*%
X17190000Y-10190000D02*
X17190000Y-10285000D01*
X17190000Y-15215000D02*
X17190000Y-15310000D01*
X17190000Y-15310000D02*
X21310000Y-15310000D01*
X21310000Y-10190000D02*
X17190000Y-10190000D01*
X21310000Y-10285000D02*
X21310000Y-10190000D01*
X21310000Y-15310000D02*
X21310000Y-15215000D01*
X21850000Y-10280000D02*
X21610000Y-9950000D01*
X22090000Y-9950000D01*
X21850000Y-10280000D01*
G36*
X21850000Y-10280000D02*
G01*
X21610000Y-9950000D01*
X22090000Y-9950000D01*
X21850000Y-10280000D01*
G37*
%TO.C,J7*%
X34400000Y-47500000D02*
X35400000Y-48000000D01*
X34400000Y-48500000D02*
X34400000Y-47500000D01*
X35400000Y-48000000D02*
X34400000Y-48500000D01*
X41020000Y-35170000D02*
X41020000Y-53210000D01*
X41020000Y-42140000D02*
X50140000Y-42140000D01*
X41020000Y-46240000D02*
X50140000Y-46240000D01*
X41020000Y-53210000D02*
X50140000Y-53210000D01*
X50140000Y-35170000D02*
X41020000Y-35170000D01*
X50140000Y-53210000D02*
X50140000Y-35170000D01*
%TO.C,C6*%
X34396233Y-5590000D02*
X34688767Y-5590000D01*
X34396233Y-6610000D02*
X34688767Y-6610000D01*
%TO.C,U1*%
X24440000Y-9140000D02*
X24440000Y-16860000D01*
X24440000Y-16860000D02*
X24685000Y-16860000D01*
X24685000Y-9140000D02*
X24440000Y-9140000D01*
X42315000Y-16860000D02*
X42560000Y-16860000D01*
X42560000Y-9140000D02*
X42315000Y-9140000D01*
X42560000Y-16860000D02*
X42560000Y-9140000D01*
X24680000Y-8350000D02*
X24210000Y-8690000D01*
X24210000Y-8010000D01*
X24680000Y-8350000D01*
G36*
X24680000Y-8350000D02*
G01*
X24210000Y-8690000D01*
X24210000Y-8010000D01*
X24680000Y-8350000D01*
G37*
%TO.C,C4*%
X20590000Y-18866252D02*
X20590000Y-17443748D01*
X22410000Y-18866252D02*
X22410000Y-17443748D01*
%TO.C,R2*%
X24591323Y-5479675D02*
X24081875Y-5479675D01*
X24591323Y-6524675D02*
X24081875Y-6524675D01*
%TO.C,C2*%
X46490000Y-14991233D02*
X46490000Y-15283767D01*
X47510000Y-14991233D02*
X47510000Y-15283767D01*
%TO.C,J8*%
X-140000Y-3000000D02*
X-140000Y-21040000D01*
X-140000Y-21040000D02*
X8980000Y-21040000D01*
X8980000Y-3000000D02*
X-140000Y-3000000D01*
X8980000Y-9970000D02*
X-140000Y-9970000D01*
X8980000Y-14070000D02*
X-140000Y-14070000D01*
X8980000Y-21040000D02*
X8980000Y-3000000D01*
X14600000Y-8210000D02*
X15600000Y-7710000D01*
X15600000Y-7710000D02*
X15600000Y-8710000D01*
X15600000Y-8710000D02*
X14600000Y-8210000D01*
%TO.C,U2*%
X36774173Y-23450000D02*
X36774173Y-31170000D01*
X36774173Y-31170000D02*
X37029173Y-31170000D01*
X37029173Y-23450000D02*
X36774173Y-23450000D01*
X47039173Y-31170000D02*
X47294173Y-31170000D01*
X47294173Y-23450000D02*
X47039173Y-23450000D01*
X47294173Y-31170000D02*
X47294173Y-23450000D01*
X37024173Y-22660000D02*
X36554173Y-23000000D01*
X36554173Y-22320000D01*
X37024173Y-22660000D01*
G36*
X37024173Y-22660000D02*
G01*
X36554173Y-23000000D01*
X36554173Y-22320000D01*
X37024173Y-22660000D01*
G37*
%TO.C,C10*%
X15240000Y-5853733D02*
X15240000Y-6146267D01*
X16260000Y-5853733D02*
X16260000Y-6146267D01*
%TO.C,C1*%
X41490000Y-4646267D02*
X41490000Y-4353733D01*
X42510000Y-4646267D02*
X42510000Y-4353733D01*
%TO.C,C3*%
X25796267Y-3990000D02*
X25503733Y-3990000D01*
X25796267Y-5010000D02*
X25503733Y-5010000D01*
%TO.C,C7*%
X21212750Y-7146267D02*
X21212750Y-6853733D01*
X22232750Y-7146267D02*
X22232750Y-6853733D01*
%TO.C,C9*%
X34990000Y-33008767D02*
X34990000Y-32716233D01*
X36010000Y-33008767D02*
X36010000Y-32716233D01*
%TO.C,C8*%
X34990000Y-21946267D02*
X34990000Y-21653733D01*
X36010000Y-21946267D02*
X36010000Y-21653733D01*
%TO.C,C5*%
X22990000Y-19006267D02*
X22990000Y-18713733D01*
X24010000Y-19006267D02*
X24010000Y-18713733D01*
%TD*%
%LPC*%
G36*
X18312000Y-29064D02*
G01*
X18431775Y-61157D01*
X18539162Y-123157D01*
X18626843Y-210838D01*
X18688843Y-318225D01*
X18720936Y-438000D01*
X18720936Y-562000D01*
X18688843Y-681775D01*
X18626843Y-789162D01*
X18539162Y-876843D01*
X18431775Y-938843D01*
X18312000Y-970936D01*
X18250000Y-975000D01*
X18247958Y-975000D01*
X3062535Y-975000D01*
X3000000Y-975000D01*
X2735684Y-992324D01*
X2475898Y-1043998D01*
X2475884Y-1044002D01*
X2225066Y-1129144D01*
X1987500Y-1246299D01*
X1767263Y-1393455D01*
X1767253Y-1393463D01*
X1568109Y-1568109D01*
X1393463Y-1767253D01*
X1393455Y-1767263D01*
X1246299Y-1987500D01*
X1129144Y-2225066D01*
X1044002Y-2475884D01*
X1043998Y-2475898D01*
X992324Y-2735684D01*
X975000Y-3000000D01*
X975000Y-52937465D01*
X975000Y-53000000D01*
X992324Y-53264316D01*
X1044000Y-53524109D01*
X1129144Y-53774934D01*
X1246299Y-54012500D01*
X1393459Y-54232742D01*
X1568109Y-54431891D01*
X1767253Y-54606536D01*
X1767263Y-54606544D01*
X1987500Y-54753701D01*
X2225066Y-54870856D01*
X2475884Y-54955997D01*
X2475898Y-54956001D01*
X2735683Y-55007675D01*
X2735684Y-55007676D01*
X3000000Y-55025000D01*
X47000000Y-55025000D01*
X47264315Y-55007676D01*
X47264316Y-55007675D01*
X47524101Y-54956001D01*
X47524115Y-54955997D01*
X47774934Y-54870856D01*
X48012500Y-54753701D01*
X48232736Y-54606544D01*
X48232746Y-54606536D01*
X48431891Y-54431891D01*
X48606541Y-54232742D01*
X48753701Y-54012500D01*
X48870856Y-53774934D01*
X48956000Y-53524109D01*
X49007676Y-53264316D01*
X49025000Y-53000000D01*
X49025000Y-52937465D01*
X49025000Y-28252042D01*
X49025000Y-28250000D01*
X49029064Y-28188000D01*
X49061157Y-28068225D01*
X49123157Y-27960838D01*
X49210838Y-27873157D01*
X49318225Y-27811157D01*
X49438000Y-27779064D01*
X49562000Y-27779064D01*
X49681775Y-27811157D01*
X49789162Y-27873157D01*
X49876843Y-27960838D01*
X49938843Y-28068225D01*
X49970936Y-28188000D01*
X49975000Y-28250000D01*
X49975000Y-28252042D01*
X49975000Y-52937465D01*
X49975000Y-53000000D01*
X49975000Y-53155913D01*
X49942406Y-53466031D01*
X49877573Y-53771043D01*
X49781214Y-54067608D01*
X49654382Y-54352475D01*
X49498469Y-54622525D01*
X49315182Y-54874798D01*
X49106530Y-55106530D01*
X48874798Y-55315182D01*
X48622525Y-55498469D01*
X48352475Y-55654382D01*
X48067608Y-55781214D01*
X47771043Y-55877573D01*
X47466031Y-55942406D01*
X47155913Y-55975000D01*
X47000000Y-55975000D01*
X46937465Y-55975000D01*
X3000000Y-55975000D01*
X2844090Y-55975000D01*
X2844087Y-55975000D01*
X2533969Y-55942406D01*
X2228957Y-55877573D01*
X1932392Y-55781214D01*
X1647525Y-55654382D01*
X1479999Y-55557661D01*
X1377476Y-55498470D01*
X1293510Y-55437465D01*
X1125202Y-55315182D01*
X893470Y-55106530D01*
X684818Y-54874798D01*
X580246Y-54730867D01*
X501529Y-54622523D01*
X345620Y-54352478D01*
X345618Y-54352475D01*
X218786Y-54067608D01*
X200305Y-54010729D01*
X122426Y-53771041D01*
X58637Y-53470936D01*
X57594Y-53466031D01*
X25000Y-53155913D01*
X25000Y-53000000D01*
X25000Y-52937465D01*
X25000Y-2844090D01*
X25000Y-2844087D01*
X57594Y-2533969D01*
X83142Y-2413773D01*
X122426Y-2228958D01*
X218784Y-1932397D01*
X241372Y-1881665D01*
X345618Y-1647525D01*
X345620Y-1647521D01*
X501529Y-1377476D01*
X684818Y-1125202D01*
X692867Y-1116263D01*
X893470Y-893470D01*
X1125202Y-684818D01*
X1129677Y-681567D01*
X1377476Y-501529D01*
X1647521Y-345620D01*
X1647525Y-345618D01*
X1932392Y-218786D01*
X1932393Y-218785D01*
X1932397Y-218784D01*
X2228958Y-122426D01*
X2413773Y-83142D01*
X2533969Y-57594D01*
X2844087Y-25000D01*
X3000000Y-25000D01*
X3062535Y-25000D01*
X18247958Y-25000D01*
X18250000Y-25000D01*
X18312000Y-29064D01*
G37*
G36*
X6166742Y-47546601D02*
G01*
X6320687Y-47610367D01*
X6459234Y-47702941D01*
X6577059Y-47820766D01*
X6669633Y-47959313D01*
X6733399Y-48113258D01*
X6765907Y-48276685D01*
X6765907Y-48443315D01*
X6733399Y-48606742D01*
X6669633Y-48760687D01*
X6577059Y-48899234D01*
X6459234Y-49017059D01*
X6320687Y-49109633D01*
X6166742Y-49173399D01*
X6003315Y-49205907D01*
X5836685Y-49205907D01*
X5673258Y-49173399D01*
X5519313Y-49109633D01*
X5380766Y-49017059D01*
X5262941Y-48899234D01*
X5170367Y-48760687D01*
X5106601Y-48606742D01*
X5074093Y-48443315D01*
X5074093Y-48276685D01*
X5106601Y-48113258D01*
X5170367Y-47959313D01*
X5262941Y-47820766D01*
X5380766Y-47702941D01*
X5519313Y-47610367D01*
X5673258Y-47546601D01*
X5836685Y-47514093D01*
X6003315Y-47514093D01*
X6166742Y-47546601D01*
G37*
G36*
X16326742Y-47546601D02*
G01*
X16480687Y-47610367D01*
X16619234Y-47702941D01*
X16737059Y-47820766D01*
X16829633Y-47959313D01*
X16893399Y-48113258D01*
X16925907Y-48276685D01*
X16925907Y-48443315D01*
X16893399Y-48606742D01*
X16829633Y-48760687D01*
X16737059Y-48899234D01*
X16619234Y-49017059D01*
X16480687Y-49109633D01*
X16326742Y-49173399D01*
X16163315Y-49205907D01*
X15996685Y-49205907D01*
X15833258Y-49173399D01*
X15679313Y-49109633D01*
X15540766Y-49017059D01*
X15422941Y-48899234D01*
X15330367Y-48760687D01*
X15266601Y-48606742D01*
X15234093Y-48443315D01*
X15234093Y-48276685D01*
X15266601Y-48113258D01*
X15330367Y-47959313D01*
X15422941Y-47820766D01*
X15540766Y-47702941D01*
X15679313Y-47610367D01*
X15833258Y-47546601D01*
X15996685Y-47514093D01*
X16163315Y-47514093D01*
X16326742Y-47546601D01*
G37*
G36*
X22166742Y-47546601D02*
G01*
X22320687Y-47610367D01*
X22459234Y-47702941D01*
X22577059Y-47820766D01*
X22669633Y-47959313D01*
X22733399Y-48113258D01*
X22765907Y-48276685D01*
X22765907Y-48443315D01*
X22733399Y-48606742D01*
X22669633Y-48760687D01*
X22577059Y-48899234D01*
X22459234Y-49017059D01*
X22320687Y-49109633D01*
X22166742Y-49173399D01*
X22003315Y-49205907D01*
X21836685Y-49205907D01*
X21673258Y-49173399D01*
X21519313Y-49109633D01*
X21380766Y-49017059D01*
X21262941Y-48899234D01*
X21170367Y-48760687D01*
X21106601Y-48606742D01*
X21074093Y-48443315D01*
X21074093Y-48276685D01*
X21106601Y-48113258D01*
X21170367Y-47959313D01*
X21262941Y-47820766D01*
X21380766Y-47702941D01*
X21519313Y-47610367D01*
X21673258Y-47546601D01*
X21836685Y-47514093D01*
X22003315Y-47514093D01*
X22166742Y-47546601D01*
G37*
G36*
X32326742Y-47546601D02*
G01*
X32480687Y-47610367D01*
X32619234Y-47702941D01*
X32737059Y-47820766D01*
X32829633Y-47959313D01*
X32893399Y-48113258D01*
X32925907Y-48276685D01*
X32925907Y-48443315D01*
X32893399Y-48606742D01*
X32829633Y-48760687D01*
X32737059Y-48899234D01*
X32619234Y-49017059D01*
X32480687Y-49109633D01*
X32326742Y-49173399D01*
X32163315Y-49205907D01*
X31996685Y-49205907D01*
X31833258Y-49173399D01*
X31679313Y-49109633D01*
X31540766Y-49017059D01*
X31422941Y-48899234D01*
X31330367Y-48760687D01*
X31266601Y-48606742D01*
X31234093Y-48443315D01*
X31234093Y-48276685D01*
X31266601Y-48113258D01*
X31330367Y-47959313D01*
X31422941Y-47820766D01*
X31540766Y-47702941D01*
X31679313Y-47610367D01*
X31833258Y-47546601D01*
X31996685Y-47514093D01*
X32163315Y-47514093D01*
X32326742Y-47546601D01*
G37*
G36*
X37358013Y-47151594D02*
G01*
X37413186Y-47158857D01*
X37427065Y-47165329D01*
X37445671Y-47169030D01*
X37470316Y-47185497D01*
X37492841Y-47196001D01*
X37506543Y-47209703D01*
X37526777Y-47223223D01*
X37540296Y-47243456D01*
X37553998Y-47257158D01*
X37564500Y-47279680D01*
X37580970Y-47304329D01*
X37584671Y-47322936D01*
X37591142Y-47336813D01*
X37598403Y-47391974D01*
X37600000Y-47400000D01*
X37600000Y-48600000D01*
X37598403Y-48608028D01*
X37591142Y-48663186D01*
X37584671Y-48677061D01*
X37580970Y-48695671D01*
X37564498Y-48720321D01*
X37553998Y-48742841D01*
X37540298Y-48756540D01*
X37526777Y-48776777D01*
X37506540Y-48790298D01*
X37492841Y-48803998D01*
X37470321Y-48814498D01*
X37445671Y-48830970D01*
X37427061Y-48834671D01*
X37413186Y-48841142D01*
X37358026Y-48848403D01*
X37350000Y-48850000D01*
X36150000Y-48850000D01*
X36141973Y-48848403D01*
X36086813Y-48841142D01*
X36072936Y-48834671D01*
X36054329Y-48830970D01*
X36029680Y-48814500D01*
X36007158Y-48803998D01*
X35993456Y-48790296D01*
X35973223Y-48776777D01*
X35959703Y-48756543D01*
X35946001Y-48742841D01*
X35935497Y-48720316D01*
X35919030Y-48695671D01*
X35915329Y-48677065D01*
X35908857Y-48663186D01*
X35901593Y-48608012D01*
X35900000Y-48600000D01*
X35900000Y-47400000D01*
X35901593Y-47391988D01*
X35908857Y-47336813D01*
X35915329Y-47322932D01*
X35919030Y-47304329D01*
X35935496Y-47279685D01*
X35946001Y-47257158D01*
X35959705Y-47243453D01*
X35973223Y-47223223D01*
X35993453Y-47209705D01*
X36007158Y-47196001D01*
X36029685Y-47185496D01*
X36054329Y-47169030D01*
X36072932Y-47165329D01*
X36086813Y-47158857D01*
X36141989Y-47151593D01*
X36150000Y-47150000D01*
X37350000Y-47150000D01*
X37358013Y-47151594D01*
G37*
G36*
X39536742Y-47186601D02*
G01*
X39690687Y-47250367D01*
X39829234Y-47342941D01*
X39947059Y-47460766D01*
X40039633Y-47599313D01*
X40103399Y-47753258D01*
X40135907Y-47916685D01*
X40135907Y-48083315D01*
X40103399Y-48246742D01*
X40039633Y-48400687D01*
X39947059Y-48539234D01*
X39829234Y-48657059D01*
X39690687Y-48749633D01*
X39536742Y-48813399D01*
X39373315Y-48845907D01*
X39206685Y-48845907D01*
X39043258Y-48813399D01*
X38889313Y-48749633D01*
X38750766Y-48657059D01*
X38632941Y-48539234D01*
X38540367Y-48400687D01*
X38476601Y-48246742D01*
X38444093Y-48083315D01*
X38444093Y-47916685D01*
X38476601Y-47753258D01*
X38540367Y-47599313D01*
X38632941Y-47460766D01*
X38750766Y-47342941D01*
X38889313Y-47250367D01*
X39043258Y-47186601D01*
X39206685Y-47154093D01*
X39373315Y-47154093D01*
X39536742Y-47186601D01*
G37*
G36*
X36996742Y-44646601D02*
G01*
X37150687Y-44710367D01*
X37289234Y-44802941D01*
X37407059Y-44920766D01*
X37499633Y-45059313D01*
X37563399Y-45213258D01*
X37595907Y-45376685D01*
X37595907Y-45543315D01*
X37563399Y-45706742D01*
X37499633Y-45860687D01*
X37407059Y-45999234D01*
X37289234Y-46117059D01*
X37150687Y-46209633D01*
X36996742Y-46273399D01*
X36833315Y-46305907D01*
X36666685Y-46305907D01*
X36503258Y-46273399D01*
X36349313Y-46209633D01*
X36210766Y-46117059D01*
X36092941Y-45999234D01*
X36000367Y-45860687D01*
X35936601Y-45706742D01*
X35904093Y-45543315D01*
X35904093Y-45376685D01*
X35936601Y-45213258D01*
X36000367Y-45059313D01*
X36092941Y-44920766D01*
X36210766Y-44802941D01*
X36349313Y-44710367D01*
X36503258Y-44646601D01*
X36666685Y-44614093D01*
X36833315Y-44614093D01*
X36996742Y-44646601D01*
G37*
G36*
X39536742Y-44646601D02*
G01*
X39690687Y-44710367D01*
X39829234Y-44802941D01*
X39947059Y-44920766D01*
X40039633Y-45059313D01*
X40103399Y-45213258D01*
X40135907Y-45376685D01*
X40135907Y-45543315D01*
X40103399Y-45706742D01*
X40039633Y-45860687D01*
X39947059Y-45999234D01*
X39829234Y-46117059D01*
X39690687Y-46209633D01*
X39536742Y-46273399D01*
X39373315Y-46305907D01*
X39206685Y-46305907D01*
X39043258Y-46273399D01*
X38889313Y-46209633D01*
X38750766Y-46117059D01*
X38632941Y-45999234D01*
X38540367Y-45860687D01*
X38476601Y-45706742D01*
X38444093Y-45543315D01*
X38444093Y-45376685D01*
X38476601Y-45213258D01*
X38540367Y-45059313D01*
X38632941Y-44920766D01*
X38750766Y-44802941D01*
X38889313Y-44710367D01*
X39043258Y-44646601D01*
X39206685Y-44614093D01*
X39373315Y-44614093D01*
X39536742Y-44646601D01*
G37*
G36*
X36996742Y-42106601D02*
G01*
X37150687Y-42170367D01*
X37289234Y-42262941D01*
X37407059Y-42380766D01*
X37499633Y-42519313D01*
X37563399Y-42673258D01*
X37595907Y-42836685D01*
X37595907Y-43003315D01*
X37563399Y-43166742D01*
X37499633Y-43320687D01*
X37407059Y-43459234D01*
X37289234Y-43577059D01*
X37150687Y-43669633D01*
X36996742Y-43733399D01*
X36833315Y-43765907D01*
X36666685Y-43765907D01*
X36503258Y-43733399D01*
X36349313Y-43669633D01*
X36210766Y-43577059D01*
X36092941Y-43459234D01*
X36000367Y-43320687D01*
X35936601Y-43166742D01*
X35904093Y-43003315D01*
X35904093Y-42836685D01*
X35936601Y-42673258D01*
X36000367Y-42519313D01*
X36092941Y-42380766D01*
X36210766Y-42262941D01*
X36349313Y-42170367D01*
X36503258Y-42106601D01*
X36666685Y-42074093D01*
X36833315Y-42074093D01*
X36996742Y-42106601D01*
G37*
G36*
X39536742Y-42106601D02*
G01*
X39690687Y-42170367D01*
X39829234Y-42262941D01*
X39947059Y-42380766D01*
X40039633Y-42519313D01*
X40103399Y-42673258D01*
X40135907Y-42836685D01*
X40135907Y-43003315D01*
X40103399Y-43166742D01*
X40039633Y-43320687D01*
X39947059Y-43459234D01*
X39829234Y-43577059D01*
X39690687Y-43669633D01*
X39536742Y-43733399D01*
X39373315Y-43765907D01*
X39206685Y-43765907D01*
X39043258Y-43733399D01*
X38889313Y-43669633D01*
X38750766Y-43577059D01*
X38632941Y-43459234D01*
X38540367Y-43320687D01*
X38476601Y-43166742D01*
X38444093Y-43003315D01*
X38444093Y-42836685D01*
X38476601Y-42673258D01*
X38540367Y-42519313D01*
X38632941Y-42380766D01*
X38750766Y-42262941D01*
X38889313Y-42170367D01*
X39043258Y-42106601D01*
X39206685Y-42074093D01*
X39373315Y-42074093D01*
X39536742Y-42106601D01*
G37*
G36*
X11341408Y-40283626D02*
G01*
X11562519Y-40342872D01*
X11774005Y-40430473D01*
X11972248Y-40544928D01*
X12153855Y-40684280D01*
X12315720Y-40846145D01*
X12455072Y-41027752D01*
X12569527Y-41225995D01*
X12657128Y-41437481D01*
X12716374Y-41658592D01*
X12746253Y-41885545D01*
X12746253Y-42114455D01*
X12716374Y-42341408D01*
X12657128Y-42562519D01*
X12569527Y-42774005D01*
X12455072Y-42972248D01*
X12315720Y-43153855D01*
X12153855Y-43315720D01*
X11972248Y-43455072D01*
X11774005Y-43569527D01*
X11562519Y-43657128D01*
X11341408Y-43716374D01*
X11114455Y-43746253D01*
X10885545Y-43746253D01*
X10658592Y-43716374D01*
X10437481Y-43657128D01*
X10225995Y-43569527D01*
X10027752Y-43455072D01*
X9846145Y-43315720D01*
X9684280Y-43153855D01*
X9544928Y-42972248D01*
X9430473Y-42774005D01*
X9342872Y-42562519D01*
X9283626Y-42341408D01*
X9253747Y-42114455D01*
X9253747Y-41885545D01*
X9283626Y-41658592D01*
X9342872Y-41437481D01*
X9430473Y-41225995D01*
X9544928Y-41027752D01*
X9684280Y-40846145D01*
X9846145Y-40684280D01*
X10027752Y-40544928D01*
X10225995Y-40430473D01*
X10437481Y-40342872D01*
X10658592Y-40283626D01*
X10885545Y-40253747D01*
X11114455Y-40253747D01*
X11341408Y-40283626D01*
G37*
G36*
X27341408Y-40283626D02*
G01*
X27562519Y-40342872D01*
X27774005Y-40430473D01*
X27972248Y-40544928D01*
X28153855Y-40684280D01*
X28315720Y-40846145D01*
X28455072Y-41027752D01*
X28569527Y-41225995D01*
X28657128Y-41437481D01*
X28716374Y-41658592D01*
X28746253Y-41885545D01*
X28746253Y-42114455D01*
X28716374Y-42341408D01*
X28657128Y-42562519D01*
X28569527Y-42774005D01*
X28455072Y-42972248D01*
X28315720Y-43153855D01*
X28153855Y-43315720D01*
X27972248Y-43455072D01*
X27774005Y-43569527D01*
X27562519Y-43657128D01*
X27341408Y-43716374D01*
X27114455Y-43746253D01*
X26885545Y-43746253D01*
X26658592Y-43716374D01*
X26437481Y-43657128D01*
X26225995Y-43569527D01*
X26027752Y-43455072D01*
X25846145Y-43315720D01*
X25684280Y-43153855D01*
X25544928Y-42972248D01*
X25430473Y-42774005D01*
X25342872Y-42562519D01*
X25283626Y-42341408D01*
X25253747Y-42114455D01*
X25253747Y-41885545D01*
X25283626Y-41658592D01*
X25342872Y-41437481D01*
X25430473Y-41225995D01*
X25544928Y-41027752D01*
X25684280Y-40846145D01*
X25846145Y-40684280D01*
X26027752Y-40544928D01*
X26225995Y-40430473D01*
X26437481Y-40342872D01*
X26658592Y-40283626D01*
X26885545Y-40253747D01*
X27114455Y-40253747D01*
X27341408Y-40283626D01*
G37*
G36*
X36996742Y-39566601D02*
G01*
X37150687Y-39630367D01*
X37289234Y-39722941D01*
X37407059Y-39840766D01*
X37499633Y-39979313D01*
X37563399Y-40133258D01*
X37595907Y-40296685D01*
X37595907Y-40463315D01*
X37563399Y-40626742D01*
X37499633Y-40780687D01*
X37407059Y-40919234D01*
X37289234Y-41037059D01*
X37150687Y-41129633D01*
X36996742Y-41193399D01*
X36833315Y-41225907D01*
X36666685Y-41225907D01*
X36503258Y-41193399D01*
X36349313Y-41129633D01*
X36210766Y-41037059D01*
X36092941Y-40919234D01*
X36000367Y-40780687D01*
X35936601Y-40626742D01*
X35904093Y-40463315D01*
X35904093Y-40296685D01*
X35936601Y-40133258D01*
X36000367Y-39979313D01*
X36092941Y-39840766D01*
X36210766Y-39722941D01*
X36349313Y-39630367D01*
X36503258Y-39566601D01*
X36666685Y-39534093D01*
X36833315Y-39534093D01*
X36996742Y-39566601D01*
G37*
G36*
X39536742Y-39566601D02*
G01*
X39690687Y-39630367D01*
X39829234Y-39722941D01*
X39947059Y-39840766D01*
X40039633Y-39979313D01*
X40103399Y-40133258D01*
X40135907Y-40296685D01*
X40135907Y-40463315D01*
X40103399Y-40626742D01*
X40039633Y-40780687D01*
X39947059Y-40919234D01*
X39829234Y-41037059D01*
X39690687Y-41129633D01*
X39536742Y-41193399D01*
X39373315Y-41225907D01*
X39206685Y-41225907D01*
X39043258Y-41193399D01*
X38889313Y-41129633D01*
X38750766Y-41037059D01*
X38632941Y-40919234D01*
X38540367Y-40780687D01*
X38476601Y-40626742D01*
X38444093Y-40463315D01*
X38444093Y-40296685D01*
X38476601Y-40133258D01*
X38540367Y-39979313D01*
X38632941Y-39840766D01*
X38750766Y-39722941D01*
X38889313Y-39630367D01*
X39043258Y-39566601D01*
X39206685Y-39534093D01*
X39373315Y-39534093D01*
X39536742Y-39566601D01*
G37*
G36*
X6166742Y-37386601D02*
G01*
X6320687Y-37450367D01*
X6459234Y-37542941D01*
X6577059Y-37660766D01*
X6669633Y-37799313D01*
X6733399Y-37953258D01*
X6765907Y-38116685D01*
X6765907Y-38283315D01*
X6733399Y-38446742D01*
X6669633Y-38600687D01*
X6577059Y-38739234D01*
X6459234Y-38857059D01*
X6320687Y-38949633D01*
X6166742Y-39013399D01*
X6003315Y-39045907D01*
X5836685Y-39045907D01*
X5673258Y-39013399D01*
X5519313Y-38949633D01*
X5380766Y-38857059D01*
X5262941Y-38739234D01*
X5170367Y-38600687D01*
X5106601Y-38446742D01*
X5074093Y-38283315D01*
X5074093Y-38116685D01*
X5106601Y-37953258D01*
X5170367Y-37799313D01*
X5262941Y-37660766D01*
X5380766Y-37542941D01*
X5519313Y-37450367D01*
X5673258Y-37386601D01*
X5836685Y-37354093D01*
X6003315Y-37354093D01*
X6166742Y-37386601D01*
G37*
G36*
X16326742Y-37386601D02*
G01*
X16480687Y-37450367D01*
X16619234Y-37542941D01*
X16737059Y-37660766D01*
X16829633Y-37799313D01*
X16893399Y-37953258D01*
X16925907Y-38116685D01*
X16925907Y-38283315D01*
X16893399Y-38446742D01*
X16829633Y-38600687D01*
X16737059Y-38739234D01*
X16619234Y-38857059D01*
X16480687Y-38949633D01*
X16326742Y-39013399D01*
X16163315Y-39045907D01*
X15996685Y-39045907D01*
X15833258Y-39013399D01*
X15679313Y-38949633D01*
X15540766Y-38857059D01*
X15422941Y-38739234D01*
X15330367Y-38600687D01*
X15266601Y-38446742D01*
X15234093Y-38283315D01*
X15234093Y-38116685D01*
X15266601Y-37953258D01*
X15330367Y-37799313D01*
X15422941Y-37660766D01*
X15540766Y-37542941D01*
X15679313Y-37450367D01*
X15833258Y-37386601D01*
X15996685Y-37354093D01*
X16163315Y-37354093D01*
X16326742Y-37386601D01*
G37*
G36*
X22166742Y-37386601D02*
G01*
X22320687Y-37450367D01*
X22459234Y-37542941D01*
X22577059Y-37660766D01*
X22669633Y-37799313D01*
X22733399Y-37953258D01*
X22765907Y-38116685D01*
X22765907Y-38283315D01*
X22733399Y-38446742D01*
X22669633Y-38600687D01*
X22577059Y-38739234D01*
X22459234Y-38857059D01*
X22320687Y-38949633D01*
X22166742Y-39013399D01*
X22003315Y-39045907D01*
X21836685Y-39045907D01*
X21673258Y-39013399D01*
X21519313Y-38949633D01*
X21380766Y-38857059D01*
X21262941Y-38739234D01*
X21170367Y-38600687D01*
X21106601Y-38446742D01*
X21074093Y-38283315D01*
X21074093Y-38116685D01*
X21106601Y-37953258D01*
X21170367Y-37799313D01*
X21262941Y-37660766D01*
X21380766Y-37542941D01*
X21519313Y-37450367D01*
X21673258Y-37386601D01*
X21836685Y-37354093D01*
X22003315Y-37354093D01*
X22166742Y-37386601D01*
G37*
G36*
X32326742Y-37386601D02*
G01*
X32480687Y-37450367D01*
X32619234Y-37542941D01*
X32737059Y-37660766D01*
X32829633Y-37799313D01*
X32893399Y-37953258D01*
X32925907Y-38116685D01*
X32925907Y-38283315D01*
X32893399Y-38446742D01*
X32829633Y-38600687D01*
X32737059Y-38739234D01*
X32619234Y-38857059D01*
X32480687Y-38949633D01*
X32326742Y-39013399D01*
X32163315Y-39045907D01*
X31996685Y-39045907D01*
X31833258Y-39013399D01*
X31679313Y-38949633D01*
X31540766Y-38857059D01*
X31422941Y-38739234D01*
X31330367Y-38600687D01*
X31266601Y-38446742D01*
X31234093Y-38283315D01*
X31234093Y-38116685D01*
X31266601Y-37953258D01*
X31330367Y-37799313D01*
X31422941Y-37660766D01*
X31540766Y-37542941D01*
X31679313Y-37450367D01*
X31833258Y-37386601D01*
X31996685Y-37354093D01*
X32163315Y-37354093D01*
X32326742Y-37386601D01*
G37*
G36*
X35742563Y-33188507D02*
G01*
X35789589Y-33193963D01*
X35805656Y-33201057D01*
X35828387Y-33205579D01*
X35852722Y-33221839D01*
X35871110Y-33229958D01*
X35883667Y-33242515D01*
X35905438Y-33257062D01*
X35919984Y-33278832D01*
X35932541Y-33291389D01*
X35940659Y-33309775D01*
X35956921Y-33334113D01*
X35961442Y-33356845D01*
X35968536Y-33372910D01*
X35973990Y-33419925D01*
X35975000Y-33425000D01*
X35975000Y-34025000D01*
X35973990Y-34030075D01*
X35968536Y-34077089D01*
X35961443Y-34093152D01*
X35956921Y-34115887D01*
X35940658Y-34140226D01*
X35932541Y-34158610D01*
X35919986Y-34171164D01*
X35905438Y-34192938D01*
X35883664Y-34207486D01*
X35871110Y-34220041D01*
X35852726Y-34228158D01*
X35828387Y-34244421D01*
X35805652Y-34248943D01*
X35789589Y-34256036D01*
X35742575Y-34261490D01*
X35737500Y-34262500D01*
X35262500Y-34262500D01*
X35257425Y-34261490D01*
X35210410Y-34256036D01*
X35194345Y-34248942D01*
X35171613Y-34244421D01*
X35147275Y-34228159D01*
X35128889Y-34220041D01*
X35116332Y-34207484D01*
X35094562Y-34192938D01*
X35080015Y-34171167D01*
X35067458Y-34158610D01*
X35059339Y-34140222D01*
X35043079Y-34115887D01*
X35038557Y-34093156D01*
X35031463Y-34077089D01*
X35026007Y-34030063D01*
X35025000Y-34025000D01*
X35025000Y-33425000D01*
X35026006Y-33419938D01*
X35031463Y-33372910D01*
X35038557Y-33356841D01*
X35043079Y-33334113D01*
X35059337Y-33309779D01*
X35067458Y-33291389D01*
X35080017Y-33278829D01*
X35094562Y-33257062D01*
X35116329Y-33242517D01*
X35128889Y-33229958D01*
X35147279Y-33221837D01*
X35171613Y-33205579D01*
X35194341Y-33201057D01*
X35210410Y-33193963D01*
X35257438Y-33188506D01*
X35262500Y-33187500D01*
X35737500Y-33187500D01*
X35742563Y-33188507D01*
G37*
G36*
X37796576Y-30946418D02*
G01*
X37845239Y-30978934D01*
X37877755Y-31027597D01*
X37889173Y-31085000D01*
X37889173Y-32835000D01*
X37877755Y-32892403D01*
X37845239Y-32941066D01*
X37796576Y-32973582D01*
X37739173Y-32985000D01*
X37439173Y-32985000D01*
X37381770Y-32973582D01*
X37333107Y-32941066D01*
X37300591Y-32892403D01*
X37289173Y-32835000D01*
X37289173Y-31085000D01*
X37300591Y-31027597D01*
X37333107Y-30978934D01*
X37381770Y-30946418D01*
X37439173Y-30935000D01*
X37739173Y-30935000D01*
X37796576Y-30946418D01*
G37*
G36*
X39066576Y-30946418D02*
G01*
X39115239Y-30978934D01*
X39147755Y-31027597D01*
X39159173Y-31085000D01*
X39159173Y-32835000D01*
X39147755Y-32892403D01*
X39115239Y-32941066D01*
X39066576Y-32973582D01*
X39009173Y-32985000D01*
X38709173Y-32985000D01*
X38651770Y-32973582D01*
X38603107Y-32941066D01*
X38570591Y-32892403D01*
X38559173Y-32835000D01*
X38559173Y-31085000D01*
X38570591Y-31027597D01*
X38603107Y-30978934D01*
X38651770Y-30946418D01*
X38709173Y-30935000D01*
X39009173Y-30935000D01*
X39066576Y-30946418D01*
G37*
G36*
X40336576Y-30946418D02*
G01*
X40385239Y-30978934D01*
X40417755Y-31027597D01*
X40429173Y-31085000D01*
X40429173Y-32835000D01*
X40417755Y-32892403D01*
X40385239Y-32941066D01*
X40336576Y-32973582D01*
X40279173Y-32985000D01*
X39979173Y-32985000D01*
X39921770Y-32973582D01*
X39873107Y-32941066D01*
X39840591Y-32892403D01*
X39829173Y-32835000D01*
X39829173Y-31085000D01*
X39840591Y-31027597D01*
X39873107Y-30978934D01*
X39921770Y-30946418D01*
X39979173Y-30935000D01*
X40279173Y-30935000D01*
X40336576Y-30946418D01*
G37*
G36*
X41606576Y-30946418D02*
G01*
X41655239Y-30978934D01*
X41687755Y-31027597D01*
X41699173Y-31085000D01*
X41699173Y-32835000D01*
X41687755Y-32892403D01*
X41655239Y-32941066D01*
X41606576Y-32973582D01*
X41549173Y-32985000D01*
X41249173Y-32985000D01*
X41191770Y-32973582D01*
X41143107Y-32941066D01*
X41110591Y-32892403D01*
X41099173Y-32835000D01*
X41099173Y-31085000D01*
X41110591Y-31027597D01*
X41143107Y-30978934D01*
X41191770Y-30946418D01*
X41249173Y-30935000D01*
X41549173Y-30935000D01*
X41606576Y-30946418D01*
G37*
G36*
X42876576Y-30946418D02*
G01*
X42925239Y-30978934D01*
X42957755Y-31027597D01*
X42969173Y-31085000D01*
X42969173Y-32835000D01*
X42957755Y-32892403D01*
X42925239Y-32941066D01*
X42876576Y-32973582D01*
X42819173Y-32985000D01*
X42519173Y-32985000D01*
X42461770Y-32973582D01*
X42413107Y-32941066D01*
X42380591Y-32892403D01*
X42369173Y-32835000D01*
X42369173Y-31085000D01*
X42380591Y-31027597D01*
X42413107Y-30978934D01*
X42461770Y-30946418D01*
X42519173Y-30935000D01*
X42819173Y-30935000D01*
X42876576Y-30946418D01*
G37*
G36*
X44146576Y-30946418D02*
G01*
X44195239Y-30978934D01*
X44227755Y-31027597D01*
X44239173Y-31085000D01*
X44239173Y-32835000D01*
X44227755Y-32892403D01*
X44195239Y-32941066D01*
X44146576Y-32973582D01*
X44089173Y-32985000D01*
X43789173Y-32985000D01*
X43731770Y-32973582D01*
X43683107Y-32941066D01*
X43650591Y-32892403D01*
X43639173Y-32835000D01*
X43639173Y-31085000D01*
X43650591Y-31027597D01*
X43683107Y-30978934D01*
X43731770Y-30946418D01*
X43789173Y-30935000D01*
X44089173Y-30935000D01*
X44146576Y-30946418D01*
G37*
G36*
X45416576Y-30946418D02*
G01*
X45465239Y-30978934D01*
X45497755Y-31027597D01*
X45509173Y-31085000D01*
X45509173Y-32835000D01*
X45497755Y-32892403D01*
X45465239Y-32941066D01*
X45416576Y-32973582D01*
X45359173Y-32985000D01*
X45059173Y-32985000D01*
X45001770Y-32973582D01*
X44953107Y-32941066D01*
X44920591Y-32892403D01*
X44909173Y-32835000D01*
X44909173Y-31085000D01*
X44920591Y-31027597D01*
X44953107Y-30978934D01*
X45001770Y-30946418D01*
X45059173Y-30935000D01*
X45359173Y-30935000D01*
X45416576Y-30946418D01*
G37*
G36*
X46686576Y-30946418D02*
G01*
X46735239Y-30978934D01*
X46767755Y-31027597D01*
X46779173Y-31085000D01*
X46779173Y-32835000D01*
X46767755Y-32892403D01*
X46735239Y-32941066D01*
X46686576Y-32973582D01*
X46629173Y-32985000D01*
X46329173Y-32985000D01*
X46271770Y-32973582D01*
X46223107Y-32941066D01*
X46190591Y-32892403D01*
X46179173Y-32835000D01*
X46179173Y-31085000D01*
X46190591Y-31027597D01*
X46223107Y-30978934D01*
X46271770Y-30946418D01*
X46329173Y-30935000D01*
X46629173Y-30935000D01*
X46686576Y-30946418D01*
G37*
G36*
X35742563Y-31463507D02*
G01*
X35789589Y-31468963D01*
X35805656Y-31476057D01*
X35828387Y-31480579D01*
X35852722Y-31496839D01*
X35871110Y-31504958D01*
X35883667Y-31517515D01*
X35905438Y-31532062D01*
X35919984Y-31553832D01*
X35932541Y-31566389D01*
X35940659Y-31584775D01*
X35956921Y-31609113D01*
X35961442Y-31631845D01*
X35968536Y-31647910D01*
X35973990Y-31694925D01*
X35975000Y-31700000D01*
X35975000Y-32300000D01*
X35973990Y-32305075D01*
X35968536Y-32352089D01*
X35961443Y-32368152D01*
X35956921Y-32390887D01*
X35940658Y-32415226D01*
X35932541Y-32433610D01*
X35919986Y-32446164D01*
X35905438Y-32467938D01*
X35883664Y-32482486D01*
X35871110Y-32495041D01*
X35852726Y-32503158D01*
X35828387Y-32519421D01*
X35805652Y-32523943D01*
X35789589Y-32531036D01*
X35742575Y-32536490D01*
X35737500Y-32537500D01*
X35262500Y-32537500D01*
X35257425Y-32536490D01*
X35210410Y-32531036D01*
X35194345Y-32523942D01*
X35171613Y-32519421D01*
X35147275Y-32503159D01*
X35128889Y-32495041D01*
X35116332Y-32482484D01*
X35094562Y-32467938D01*
X35080015Y-32446167D01*
X35067458Y-32433610D01*
X35059339Y-32415222D01*
X35043079Y-32390887D01*
X35038557Y-32368156D01*
X35031463Y-32352089D01*
X35026007Y-32305063D01*
X35025000Y-32300000D01*
X35025000Y-31700000D01*
X35026006Y-31694938D01*
X35031463Y-31647910D01*
X35038557Y-31631841D01*
X35043079Y-31609113D01*
X35059337Y-31584779D01*
X35067458Y-31566389D01*
X35080017Y-31553829D01*
X35094562Y-31532062D01*
X35116329Y-31517517D01*
X35128889Y-31504958D01*
X35147279Y-31496837D01*
X35171613Y-31480579D01*
X35194341Y-31476057D01*
X35210410Y-31468963D01*
X35257438Y-31463506D01*
X35262500Y-31462500D01*
X35737500Y-31462500D01*
X35742563Y-31463507D01*
G37*
G36*
X14502228Y-30354448D02*
G01*
X14647117Y-30414463D01*
X14777515Y-30501592D01*
X14888408Y-30612485D01*
X14975537Y-30742883D01*
X15035552Y-30887772D01*
X15066148Y-31041586D01*
X15066148Y-31198414D01*
X15035552Y-31352228D01*
X14975537Y-31497117D01*
X14888408Y-31627515D01*
X14777515Y-31738408D01*
X14647117Y-31825537D01*
X14502228Y-31885552D01*
X14348414Y-31916148D01*
X14191586Y-31916148D01*
X14037772Y-31885552D01*
X13892883Y-31825537D01*
X13762485Y-31738408D01*
X13651592Y-31627515D01*
X13564463Y-31497117D01*
X13504448Y-31352228D01*
X13473852Y-31198414D01*
X13473852Y-31041586D01*
X13504448Y-30887772D01*
X13564463Y-30742883D01*
X13651592Y-30612485D01*
X13762485Y-30501592D01*
X13892883Y-30414463D01*
X14037772Y-30354448D01*
X14191586Y-30323852D01*
X14348414Y-30323852D01*
X14502228Y-30354448D01*
G37*
G36*
X17042228Y-30354448D02*
G01*
X17187117Y-30414463D01*
X17317515Y-30501592D01*
X17428408Y-30612485D01*
X17515537Y-30742883D01*
X17575552Y-30887772D01*
X17606148Y-31041586D01*
X17606148Y-31198414D01*
X17575552Y-31352228D01*
X17515537Y-31497117D01*
X17428408Y-31627515D01*
X17317515Y-31738408D01*
X17187117Y-31825537D01*
X17042228Y-31885552D01*
X16888414Y-31916148D01*
X16731586Y-31916148D01*
X16577772Y-31885552D01*
X16432883Y-31825537D01*
X16302485Y-31738408D01*
X16191592Y-31627515D01*
X16104463Y-31497117D01*
X16044448Y-31352228D01*
X16013852Y-31198414D01*
X16013852Y-31041586D01*
X16044448Y-30887772D01*
X16104463Y-30742883D01*
X16191592Y-30612485D01*
X16302485Y-30501592D01*
X16432883Y-30414463D01*
X16577772Y-30354448D01*
X16731586Y-30323852D01*
X16888414Y-30323852D01*
X17042228Y-30354448D01*
G37*
G36*
X19582228Y-30354448D02*
G01*
X19727117Y-30414463D01*
X19857515Y-30501592D01*
X19968408Y-30612485D01*
X20055537Y-30742883D01*
X20115552Y-30887772D01*
X20146148Y-31041586D01*
X20146148Y-31198414D01*
X20115552Y-31352228D01*
X20055537Y-31497117D01*
X19968408Y-31627515D01*
X19857515Y-31738408D01*
X19727117Y-31825537D01*
X19582228Y-31885552D01*
X19428414Y-31916148D01*
X19271586Y-31916148D01*
X19117772Y-31885552D01*
X18972883Y-31825537D01*
X18842485Y-31738408D01*
X18731592Y-31627515D01*
X18644463Y-31497117D01*
X18584448Y-31352228D01*
X18553852Y-31198414D01*
X18553852Y-31041586D01*
X18584448Y-30887772D01*
X18644463Y-30742883D01*
X18731592Y-30612485D01*
X18842485Y-30501592D01*
X18972883Y-30414463D01*
X19117772Y-30354448D01*
X19271586Y-30323852D01*
X19428414Y-30323852D01*
X19582228Y-30354448D01*
G37*
G36*
X22122228Y-30354448D02*
G01*
X22267117Y-30414463D01*
X22397515Y-30501592D01*
X22508408Y-30612485D01*
X22595537Y-30742883D01*
X22655552Y-30887772D01*
X22686148Y-31041586D01*
X22686148Y-31198414D01*
X22655552Y-31352228D01*
X22595537Y-31497117D01*
X22508408Y-31627515D01*
X22397515Y-31738408D01*
X22267117Y-31825537D01*
X22122228Y-31885552D01*
X21968414Y-31916148D01*
X21811586Y-31916148D01*
X21657772Y-31885552D01*
X21512883Y-31825537D01*
X21382485Y-31738408D01*
X21271592Y-31627515D01*
X21184463Y-31497117D01*
X21124448Y-31352228D01*
X21093852Y-31198414D01*
X21093852Y-31041586D01*
X21124448Y-30887772D01*
X21184463Y-30742883D01*
X21271592Y-30612485D01*
X21382485Y-30501592D01*
X21512883Y-30414463D01*
X21657772Y-30354448D01*
X21811586Y-30323852D01*
X21968414Y-30323852D01*
X22122228Y-30354448D01*
G37*
G36*
X24662228Y-30354448D02*
G01*
X24807117Y-30414463D01*
X24937515Y-30501592D01*
X25048408Y-30612485D01*
X25135537Y-30742883D01*
X25195552Y-30887772D01*
X25226148Y-31041586D01*
X25226148Y-31198414D01*
X25195552Y-31352228D01*
X25135537Y-31497117D01*
X25048408Y-31627515D01*
X24937515Y-31738408D01*
X24807117Y-31825537D01*
X24662228Y-31885552D01*
X24508414Y-31916148D01*
X24351586Y-31916148D01*
X24197772Y-31885552D01*
X24052883Y-31825537D01*
X23922485Y-31738408D01*
X23811592Y-31627515D01*
X23724463Y-31497117D01*
X23664448Y-31352228D01*
X23633852Y-31198414D01*
X23633852Y-31041586D01*
X23664448Y-30887772D01*
X23724463Y-30742883D01*
X23811592Y-30612485D01*
X23922485Y-30501592D01*
X24052883Y-30414463D01*
X24197772Y-30354448D01*
X24351586Y-30323852D01*
X24508414Y-30323852D01*
X24662228Y-30354448D01*
G37*
G36*
X27202228Y-30354448D02*
G01*
X27347117Y-30414463D01*
X27477515Y-30501592D01*
X27588408Y-30612485D01*
X27675537Y-30742883D01*
X27735552Y-30887772D01*
X27766148Y-31041586D01*
X27766148Y-31198414D01*
X27735552Y-31352228D01*
X27675537Y-31497117D01*
X27588408Y-31627515D01*
X27477515Y-31738408D01*
X27347117Y-31825537D01*
X27202228Y-31885552D01*
X27048414Y-31916148D01*
X26891586Y-31916148D01*
X26737772Y-31885552D01*
X26592883Y-31825537D01*
X26462485Y-31738408D01*
X26351592Y-31627515D01*
X26264463Y-31497117D01*
X26204448Y-31352228D01*
X26173852Y-31198414D01*
X26173852Y-31041586D01*
X26204448Y-30887772D01*
X26264463Y-30742883D01*
X26351592Y-30612485D01*
X26462485Y-30501592D01*
X26592883Y-30414463D01*
X26737772Y-30354448D01*
X26891586Y-30323852D01*
X27048414Y-30323852D01*
X27202228Y-30354448D01*
G37*
G36*
X29742228Y-30354448D02*
G01*
X29887117Y-30414463D01*
X30017515Y-30501592D01*
X30128408Y-30612485D01*
X30215537Y-30742883D01*
X30275552Y-30887772D01*
X30306148Y-31041586D01*
X30306148Y-31198414D01*
X30275552Y-31352228D01*
X30215537Y-31497117D01*
X30128408Y-31627515D01*
X30017515Y-31738408D01*
X29887117Y-31825537D01*
X29742228Y-31885552D01*
X29588414Y-31916148D01*
X29431586Y-31916148D01*
X29277772Y-31885552D01*
X29132883Y-31825537D01*
X29002485Y-31738408D01*
X28891592Y-31627515D01*
X28804463Y-31497117D01*
X28744448Y-31352228D01*
X28713852Y-31198414D01*
X28713852Y-31041586D01*
X28744448Y-30887772D01*
X28804463Y-30742883D01*
X28891592Y-30612485D01*
X29002485Y-30501592D01*
X29132883Y-30414463D01*
X29277772Y-30354448D01*
X29431586Y-30323852D01*
X29588414Y-30323852D01*
X29742228Y-30354448D01*
G37*
G36*
X32282228Y-30354448D02*
G01*
X32427117Y-30414463D01*
X32557515Y-30501592D01*
X32668408Y-30612485D01*
X32755537Y-30742883D01*
X32815552Y-30887772D01*
X32846148Y-31041586D01*
X32846148Y-31198414D01*
X32815552Y-31352228D01*
X32755537Y-31497117D01*
X32668408Y-31627515D01*
X32557515Y-31738408D01*
X32427117Y-31825537D01*
X32282228Y-31885552D01*
X32128414Y-31916148D01*
X31971586Y-31916148D01*
X31817772Y-31885552D01*
X31672883Y-31825537D01*
X31542485Y-31738408D01*
X31431592Y-31627515D01*
X31344463Y-31497117D01*
X31284448Y-31352228D01*
X31253852Y-31198414D01*
X31253852Y-31041586D01*
X31284448Y-30887772D01*
X31344463Y-30742883D01*
X31431592Y-30612485D01*
X31542485Y-30501592D01*
X31672883Y-30414463D01*
X31817772Y-30354448D01*
X31971586Y-30323852D01*
X32128414Y-30323852D01*
X32282228Y-30354448D01*
G37*
G36*
X47466031Y-57594D02*
G01*
X47636114Y-93746D01*
X47771041Y-122426D01*
X48044147Y-211163D01*
X48067608Y-218786D01*
X48352475Y-345618D01*
X48352480Y-345620D01*
X48352478Y-345620D01*
X48622523Y-501529D01*
X48706490Y-562535D01*
X48874798Y-684818D01*
X49106530Y-893470D01*
X49315182Y-1125202D01*
X49459111Y-1323303D01*
X49498470Y-1377476D01*
X49508417Y-1394705D01*
X49654382Y-1647525D01*
X49781214Y-1932392D01*
X49877573Y-2228957D01*
X49942406Y-2533969D01*
X49975000Y-2844087D01*
X49975000Y-2844090D01*
X49975000Y-3000000D01*
X49975000Y-26249996D01*
X49970936Y-26311996D01*
X49938843Y-26431771D01*
X49876843Y-26539158D01*
X49789162Y-26626839D01*
X49681775Y-26688839D01*
X49562000Y-26720932D01*
X49438000Y-26720932D01*
X49318225Y-26688839D01*
X49210838Y-26626839D01*
X49123157Y-26539158D01*
X49061157Y-26431771D01*
X49029064Y-26311996D01*
X49025000Y-26249996D01*
X49025000Y-3000000D01*
X49007676Y-2735684D01*
X48956001Y-2475898D01*
X48955997Y-2475884D01*
X48870856Y-2225066D01*
X48753701Y-1987500D01*
X48606544Y-1767263D01*
X48606536Y-1767253D01*
X48431891Y-1568109D01*
X48232746Y-1393463D01*
X48232736Y-1393455D01*
X48012500Y-1246299D01*
X47774934Y-1129144D01*
X47524115Y-1044002D01*
X47524101Y-1043998D01*
X47264316Y-992324D01*
X47000000Y-975000D01*
X40913375Y-975000D01*
X40876259Y-1023369D01*
X40901150Y-1116263D01*
X40905000Y-1175000D01*
X40905000Y-1825000D01*
X40901150Y-1883737D01*
X40870746Y-1997208D01*
X40812009Y-2098943D01*
X40728943Y-2182009D01*
X40627208Y-2240746D01*
X40513737Y-2271150D01*
X40396263Y-2271150D01*
X40282792Y-2240746D01*
X40181057Y-2182009D01*
X40097991Y-2098943D01*
X40039254Y-1997208D01*
X40008850Y-1883737D01*
X40005000Y-1825000D01*
X40005000Y-1175000D01*
X40008850Y-1116263D01*
X40033740Y-1023369D01*
X39996625Y-975000D01*
X33913375Y-975000D01*
X33876259Y-1023369D01*
X33901150Y-1116263D01*
X33905000Y-1175000D01*
X33905000Y-1825000D01*
X33901150Y-1883737D01*
X33870746Y-1997208D01*
X33812009Y-2098943D01*
X33728943Y-2182009D01*
X33627208Y-2240746D01*
X33513737Y-2271150D01*
X33396263Y-2271150D01*
X33282792Y-2240746D01*
X33181057Y-2182009D01*
X33097991Y-2098943D01*
X33039254Y-1997208D01*
X33008850Y-1883737D01*
X33005000Y-1825000D01*
X33005000Y-1175000D01*
X33008850Y-1116263D01*
X33033740Y-1023369D01*
X32996625Y-975000D01*
X20252042Y-975000D01*
X20250000Y-975000D01*
X20188000Y-970936D01*
X20068225Y-938843D01*
X19960838Y-876843D01*
X19873157Y-789162D01*
X19811157Y-681775D01*
X19779064Y-562000D01*
X19779064Y-438000D01*
X19811157Y-318225D01*
X19873157Y-210838D01*
X19960838Y-123157D01*
X20068225Y-61157D01*
X20188000Y-29064D01*
X20250000Y-25000D01*
X47000000Y-25000D01*
X47155910Y-25000D01*
X47155913Y-25000D01*
X47466031Y-57594D01*
G37*
G36*
X32608013Y-22701594D02*
G01*
X32663186Y-22708857D01*
X32677065Y-22715329D01*
X32695671Y-22719030D01*
X32720316Y-22735497D01*
X32742841Y-22746001D01*
X32756543Y-22759703D01*
X32776777Y-22773223D01*
X32790296Y-22793456D01*
X32803998Y-22807158D01*
X32814500Y-22829680D01*
X32830970Y-22854329D01*
X32834671Y-22872936D01*
X32841142Y-22886813D01*
X32848403Y-22941974D01*
X32850000Y-22950000D01*
X32850000Y-24050000D01*
X32848403Y-24058028D01*
X32841142Y-24113186D01*
X32834671Y-24127061D01*
X32830970Y-24145671D01*
X32814498Y-24170321D01*
X32803998Y-24192841D01*
X32790298Y-24206540D01*
X32776777Y-24226777D01*
X32756540Y-24240298D01*
X32742841Y-24253998D01*
X32720321Y-24264498D01*
X32695671Y-24280970D01*
X32677061Y-24284671D01*
X32663186Y-24291142D01*
X32608026Y-24298403D01*
X32600000Y-24300000D01*
X31500000Y-24300000D01*
X31491973Y-24298403D01*
X31436813Y-24291142D01*
X31422936Y-24284671D01*
X31404329Y-24280970D01*
X31379680Y-24264500D01*
X31357158Y-24253998D01*
X31343456Y-24240296D01*
X31323223Y-24226777D01*
X31309703Y-24206543D01*
X31296001Y-24192841D01*
X31285497Y-24170316D01*
X31269030Y-24145671D01*
X31265329Y-24127065D01*
X31258857Y-24113186D01*
X31251593Y-24058012D01*
X31250000Y-24050000D01*
X31250000Y-22950000D01*
X31251593Y-22941988D01*
X31258857Y-22886813D01*
X31265329Y-22872932D01*
X31269030Y-22854329D01*
X31285496Y-22829685D01*
X31296001Y-22807158D01*
X31309705Y-22793453D01*
X31323223Y-22773223D01*
X31343453Y-22759705D01*
X31357158Y-22746001D01*
X31379685Y-22735496D01*
X31404329Y-22719030D01*
X31422932Y-22715329D01*
X31436813Y-22708857D01*
X31491989Y-22701593D01*
X31500000Y-22700000D01*
X32600000Y-22700000D01*
X32608013Y-22701594D01*
G37*
G36*
X14502228Y-22734448D02*
G01*
X14647117Y-22794463D01*
X14777515Y-22881592D01*
X14888408Y-22992485D01*
X14975537Y-23122883D01*
X15035552Y-23267772D01*
X15066148Y-23421586D01*
X15066148Y-23578414D01*
X15035552Y-23732228D01*
X14975537Y-23877117D01*
X14888408Y-24007515D01*
X14777515Y-24118408D01*
X14647117Y-24205537D01*
X14502228Y-24265552D01*
X14348414Y-24296148D01*
X14191586Y-24296148D01*
X14037772Y-24265552D01*
X13892883Y-24205537D01*
X13762485Y-24118408D01*
X13651592Y-24007515D01*
X13564463Y-23877117D01*
X13504448Y-23732228D01*
X13473852Y-23578414D01*
X13473852Y-23421586D01*
X13504448Y-23267772D01*
X13564463Y-23122883D01*
X13651592Y-22992485D01*
X13762485Y-22881592D01*
X13892883Y-22794463D01*
X14037772Y-22734448D01*
X14191586Y-22703852D01*
X14348414Y-22703852D01*
X14502228Y-22734448D01*
G37*
G36*
X17042228Y-22734448D02*
G01*
X17187117Y-22794463D01*
X17317515Y-22881592D01*
X17428408Y-22992485D01*
X17515537Y-23122883D01*
X17575552Y-23267772D01*
X17606148Y-23421586D01*
X17606148Y-23578414D01*
X17575552Y-23732228D01*
X17515537Y-23877117D01*
X17428408Y-24007515D01*
X17317515Y-24118408D01*
X17187117Y-24205537D01*
X17042228Y-24265552D01*
X16888414Y-24296148D01*
X16731586Y-24296148D01*
X16577772Y-24265552D01*
X16432883Y-24205537D01*
X16302485Y-24118408D01*
X16191592Y-24007515D01*
X16104463Y-23877117D01*
X16044448Y-23732228D01*
X16013852Y-23578414D01*
X16013852Y-23421586D01*
X16044448Y-23267772D01*
X16104463Y-23122883D01*
X16191592Y-22992485D01*
X16302485Y-22881592D01*
X16432883Y-22794463D01*
X16577772Y-22734448D01*
X16731586Y-22703852D01*
X16888414Y-22703852D01*
X17042228Y-22734448D01*
G37*
G36*
X19582228Y-22734448D02*
G01*
X19727117Y-22794463D01*
X19857515Y-22881592D01*
X19968408Y-22992485D01*
X20055537Y-23122883D01*
X20115552Y-23267772D01*
X20146148Y-23421586D01*
X20146148Y-23578414D01*
X20115552Y-23732228D01*
X20055537Y-23877117D01*
X19968408Y-24007515D01*
X19857515Y-24118408D01*
X19727117Y-24205537D01*
X19582228Y-24265552D01*
X19428414Y-24296148D01*
X19271586Y-24296148D01*
X19117772Y-24265552D01*
X18972883Y-24205537D01*
X18842485Y-24118408D01*
X18731592Y-24007515D01*
X18644463Y-23877117D01*
X18584448Y-23732228D01*
X18553852Y-23578414D01*
X18553852Y-23421586D01*
X18584448Y-23267772D01*
X18644463Y-23122883D01*
X18731592Y-22992485D01*
X18842485Y-22881592D01*
X18972883Y-22794463D01*
X19117772Y-22734448D01*
X19271586Y-22703852D01*
X19428414Y-22703852D01*
X19582228Y-22734448D01*
G37*
G36*
X22122228Y-22734448D02*
G01*
X22267117Y-22794463D01*
X22397515Y-22881592D01*
X22508408Y-22992485D01*
X22595537Y-23122883D01*
X22655552Y-23267772D01*
X22686148Y-23421586D01*
X22686148Y-23578414D01*
X22655552Y-23732228D01*
X22595537Y-23877117D01*
X22508408Y-24007515D01*
X22397515Y-24118408D01*
X22267117Y-24205537D01*
X22122228Y-24265552D01*
X21968414Y-24296148D01*
X21811586Y-24296148D01*
X21657772Y-24265552D01*
X21512883Y-24205537D01*
X21382485Y-24118408D01*
X21271592Y-24007515D01*
X21184463Y-23877117D01*
X21124448Y-23732228D01*
X21093852Y-23578414D01*
X21093852Y-23421586D01*
X21124448Y-23267772D01*
X21184463Y-23122883D01*
X21271592Y-22992485D01*
X21382485Y-22881592D01*
X21512883Y-22794463D01*
X21657772Y-22734448D01*
X21811586Y-22703852D01*
X21968414Y-22703852D01*
X22122228Y-22734448D01*
G37*
G36*
X24662228Y-22734448D02*
G01*
X24807117Y-22794463D01*
X24937515Y-22881592D01*
X25048408Y-22992485D01*
X25135537Y-23122883D01*
X25195552Y-23267772D01*
X25226148Y-23421586D01*
X25226148Y-23578414D01*
X25195552Y-23732228D01*
X25135537Y-23877117D01*
X25048408Y-24007515D01*
X24937515Y-24118408D01*
X24807117Y-24205537D01*
X24662228Y-24265552D01*
X24508414Y-24296148D01*
X24351586Y-24296148D01*
X24197772Y-24265552D01*
X24052883Y-24205537D01*
X23922485Y-24118408D01*
X23811592Y-24007515D01*
X23724463Y-23877117D01*
X23664448Y-23732228D01*
X23633852Y-23578414D01*
X23633852Y-23421586D01*
X23664448Y-23267772D01*
X23724463Y-23122883D01*
X23811592Y-22992485D01*
X23922485Y-22881592D01*
X24052883Y-22794463D01*
X24197772Y-22734448D01*
X24351586Y-22703852D01*
X24508414Y-22703852D01*
X24662228Y-22734448D01*
G37*
G36*
X27202228Y-22734448D02*
G01*
X27347117Y-22794463D01*
X27477515Y-22881592D01*
X27588408Y-22992485D01*
X27675537Y-23122883D01*
X27735552Y-23267772D01*
X27766148Y-23421586D01*
X27766148Y-23578414D01*
X27735552Y-23732228D01*
X27675537Y-23877117D01*
X27588408Y-24007515D01*
X27477515Y-24118408D01*
X27347117Y-24205537D01*
X27202228Y-24265552D01*
X27048414Y-24296148D01*
X26891586Y-24296148D01*
X26737772Y-24265552D01*
X26592883Y-24205537D01*
X26462485Y-24118408D01*
X26351592Y-24007515D01*
X26264463Y-23877117D01*
X26204448Y-23732228D01*
X26173852Y-23578414D01*
X26173852Y-23421586D01*
X26204448Y-23267772D01*
X26264463Y-23122883D01*
X26351592Y-22992485D01*
X26462485Y-22881592D01*
X26592883Y-22794463D01*
X26737772Y-22734448D01*
X26891586Y-22703852D01*
X27048414Y-22703852D01*
X27202228Y-22734448D01*
G37*
G36*
X29742228Y-22734448D02*
G01*
X29887117Y-22794463D01*
X30017515Y-22881592D01*
X30128408Y-22992485D01*
X30215537Y-23122883D01*
X30275552Y-23267772D01*
X30306148Y-23421586D01*
X30306148Y-23578414D01*
X30275552Y-23732228D01*
X30215537Y-23877117D01*
X30128408Y-24007515D01*
X30017515Y-24118408D01*
X29887117Y-24205537D01*
X29742228Y-24265552D01*
X29588414Y-24296148D01*
X29431586Y-24296148D01*
X29277772Y-24265552D01*
X29132883Y-24205537D01*
X29002485Y-24118408D01*
X28891592Y-24007515D01*
X28804463Y-23877117D01*
X28744448Y-23732228D01*
X28713852Y-23578414D01*
X28713852Y-23421586D01*
X28744448Y-23267772D01*
X28804463Y-23122883D01*
X28891592Y-22992485D01*
X29002485Y-22881592D01*
X29132883Y-22794463D01*
X29277772Y-22734448D01*
X29431586Y-22703852D01*
X29588414Y-22703852D01*
X29742228Y-22734448D01*
G37*
G36*
X37796576Y-21646418D02*
G01*
X37845239Y-21678934D01*
X37877755Y-21727597D01*
X37889173Y-21785000D01*
X37889173Y-23535000D01*
X37877755Y-23592403D01*
X37845239Y-23641066D01*
X37796576Y-23673582D01*
X37739173Y-23685000D01*
X37439173Y-23685000D01*
X37381770Y-23673582D01*
X37333107Y-23641066D01*
X37300591Y-23592403D01*
X37289173Y-23535000D01*
X37289173Y-21785000D01*
X37300591Y-21727597D01*
X37333107Y-21678934D01*
X37381770Y-21646418D01*
X37439173Y-21635000D01*
X37739173Y-21635000D01*
X37796576Y-21646418D01*
G37*
G36*
X39066576Y-21646418D02*
G01*
X39115239Y-21678934D01*
X39147755Y-21727597D01*
X39159173Y-21785000D01*
X39159173Y-23535000D01*
X39147755Y-23592403D01*
X39115239Y-23641066D01*
X39066576Y-23673582D01*
X39009173Y-23685000D01*
X38709173Y-23685000D01*
X38651770Y-23673582D01*
X38603107Y-23641066D01*
X38570591Y-23592403D01*
X38559173Y-23535000D01*
X38559173Y-21785000D01*
X38570591Y-21727597D01*
X38603107Y-21678934D01*
X38651770Y-21646418D01*
X38709173Y-21635000D01*
X39009173Y-21635000D01*
X39066576Y-21646418D01*
G37*
G36*
X40336576Y-21646418D02*
G01*
X40385239Y-21678934D01*
X40417755Y-21727597D01*
X40429173Y-21785000D01*
X40429173Y-23535000D01*
X40417755Y-23592403D01*
X40385239Y-23641066D01*
X40336576Y-23673582D01*
X40279173Y-23685000D01*
X39979173Y-23685000D01*
X39921770Y-23673582D01*
X39873107Y-23641066D01*
X39840591Y-23592403D01*
X39829173Y-23535000D01*
X39829173Y-21785000D01*
X39840591Y-21727597D01*
X39873107Y-21678934D01*
X39921770Y-21646418D01*
X39979173Y-21635000D01*
X40279173Y-21635000D01*
X40336576Y-21646418D01*
G37*
G36*
X41606576Y-21646418D02*
G01*
X41655239Y-21678934D01*
X41687755Y-21727597D01*
X41699173Y-21785000D01*
X41699173Y-23535000D01*
X41687755Y-23592403D01*
X41655239Y-23641066D01*
X41606576Y-23673582D01*
X41549173Y-23685000D01*
X41249173Y-23685000D01*
X41191770Y-23673582D01*
X41143107Y-23641066D01*
X41110591Y-23592403D01*
X41099173Y-23535000D01*
X41099173Y-21785000D01*
X41110591Y-21727597D01*
X41143107Y-21678934D01*
X41191770Y-21646418D01*
X41249173Y-21635000D01*
X41549173Y-21635000D01*
X41606576Y-21646418D01*
G37*
G36*
X42876576Y-21646418D02*
G01*
X42925239Y-21678934D01*
X42957755Y-21727597D01*
X42969173Y-21785000D01*
X42969173Y-23535000D01*
X42957755Y-23592403D01*
X42925239Y-23641066D01*
X42876576Y-23673582D01*
X42819173Y-23685000D01*
X42519173Y-23685000D01*
X42461770Y-23673582D01*
X42413107Y-23641066D01*
X42380591Y-23592403D01*
X42369173Y-23535000D01*
X42369173Y-21785000D01*
X42380591Y-21727597D01*
X42413107Y-21678934D01*
X42461770Y-21646418D01*
X42519173Y-21635000D01*
X42819173Y-21635000D01*
X42876576Y-21646418D01*
G37*
G36*
X44146576Y-21646418D02*
G01*
X44195239Y-21678934D01*
X44227755Y-21727597D01*
X44239173Y-21785000D01*
X44239173Y-23535000D01*
X44227755Y-23592403D01*
X44195239Y-23641066D01*
X44146576Y-23673582D01*
X44089173Y-23685000D01*
X43789173Y-23685000D01*
X43731770Y-23673582D01*
X43683107Y-23641066D01*
X43650591Y-23592403D01*
X43639173Y-23535000D01*
X43639173Y-21785000D01*
X43650591Y-21727597D01*
X43683107Y-21678934D01*
X43731770Y-21646418D01*
X43789173Y-21635000D01*
X44089173Y-21635000D01*
X44146576Y-21646418D01*
G37*
G36*
X45416576Y-21646418D02*
G01*
X45465239Y-21678934D01*
X45497755Y-21727597D01*
X45509173Y-21785000D01*
X45509173Y-23535000D01*
X45497755Y-23592403D01*
X45465239Y-23641066D01*
X45416576Y-23673582D01*
X45359173Y-23685000D01*
X45059173Y-23685000D01*
X45001770Y-23673582D01*
X44953107Y-23641066D01*
X44920591Y-23592403D01*
X44909173Y-23535000D01*
X44909173Y-21785000D01*
X44920591Y-21727597D01*
X44953107Y-21678934D01*
X45001770Y-21646418D01*
X45059173Y-21635000D01*
X45359173Y-21635000D01*
X45416576Y-21646418D01*
G37*
G36*
X46686576Y-21646418D02*
G01*
X46735239Y-21678934D01*
X46767755Y-21727597D01*
X46779173Y-21785000D01*
X46779173Y-23535000D01*
X46767755Y-23592403D01*
X46735239Y-23641066D01*
X46686576Y-23673582D01*
X46629173Y-23685000D01*
X46329173Y-23685000D01*
X46271770Y-23673582D01*
X46223107Y-23641066D01*
X46190591Y-23592403D01*
X46179173Y-23535000D01*
X46179173Y-21785000D01*
X46190591Y-21727597D01*
X46223107Y-21678934D01*
X46271770Y-21646418D01*
X46329173Y-21635000D01*
X46629173Y-21635000D01*
X46686576Y-21646418D01*
G37*
G36*
X35742563Y-22126007D02*
G01*
X35789589Y-22131463D01*
X35805656Y-22138557D01*
X35828387Y-22143079D01*
X35852722Y-22159339D01*
X35871110Y-22167458D01*
X35883667Y-22180015D01*
X35905438Y-22194562D01*
X35919984Y-22216332D01*
X35932541Y-22228889D01*
X35940659Y-22247275D01*
X35956921Y-22271613D01*
X35961442Y-22294345D01*
X35968536Y-22310410D01*
X35973990Y-22357425D01*
X35975000Y-22362500D01*
X35975000Y-22962500D01*
X35973990Y-22967575D01*
X35968536Y-23014589D01*
X35961443Y-23030652D01*
X35956921Y-23053387D01*
X35940658Y-23077726D01*
X35932541Y-23096110D01*
X35919986Y-23108664D01*
X35905438Y-23130438D01*
X35883664Y-23144986D01*
X35871110Y-23157541D01*
X35852726Y-23165658D01*
X35828387Y-23181921D01*
X35805652Y-23186443D01*
X35789589Y-23193536D01*
X35742575Y-23198990D01*
X35737500Y-23200000D01*
X35262500Y-23200000D01*
X35257425Y-23198990D01*
X35210410Y-23193536D01*
X35194345Y-23186442D01*
X35171613Y-23181921D01*
X35147275Y-23165659D01*
X35128889Y-23157541D01*
X35116332Y-23144984D01*
X35094562Y-23130438D01*
X35080015Y-23108667D01*
X35067458Y-23096110D01*
X35059339Y-23077722D01*
X35043079Y-23053387D01*
X35038557Y-23030656D01*
X35031463Y-23014589D01*
X35026007Y-22967563D01*
X35025000Y-22962500D01*
X35025000Y-22362500D01*
X35026006Y-22357438D01*
X35031463Y-22310410D01*
X35038557Y-22294341D01*
X35043079Y-22271613D01*
X35059337Y-22247279D01*
X35067458Y-22228889D01*
X35080017Y-22216329D01*
X35094562Y-22194562D01*
X35116329Y-22180017D01*
X35128889Y-22167458D01*
X35147279Y-22159337D01*
X35171613Y-22143079D01*
X35194341Y-22138557D01*
X35210410Y-22131463D01*
X35257438Y-22126006D01*
X35262500Y-22125000D01*
X35737500Y-22125000D01*
X35742563Y-22126007D01*
G37*
G36*
X35742563Y-20401007D02*
G01*
X35789589Y-20406463D01*
X35805656Y-20413557D01*
X35828387Y-20418079D01*
X35852722Y-20434339D01*
X35871110Y-20442458D01*
X35883667Y-20455015D01*
X35905438Y-20469562D01*
X35919984Y-20491332D01*
X35932541Y-20503889D01*
X35940659Y-20522275D01*
X35956921Y-20546613D01*
X35961442Y-20569345D01*
X35968536Y-20585410D01*
X35973990Y-20632425D01*
X35975000Y-20637500D01*
X35975000Y-21237500D01*
X35973990Y-21242575D01*
X35968536Y-21289589D01*
X35961443Y-21305652D01*
X35956921Y-21328387D01*
X35940658Y-21352726D01*
X35932541Y-21371110D01*
X35919986Y-21383664D01*
X35905438Y-21405438D01*
X35883664Y-21419986D01*
X35871110Y-21432541D01*
X35852726Y-21440658D01*
X35828387Y-21456921D01*
X35805652Y-21461443D01*
X35789589Y-21468536D01*
X35742575Y-21473990D01*
X35737500Y-21475000D01*
X35262500Y-21475000D01*
X35257425Y-21473990D01*
X35210410Y-21468536D01*
X35194345Y-21461442D01*
X35171613Y-21456921D01*
X35147275Y-21440659D01*
X35128889Y-21432541D01*
X35116332Y-21419984D01*
X35094562Y-21405438D01*
X35080015Y-21383667D01*
X35067458Y-21371110D01*
X35059339Y-21352722D01*
X35043079Y-21328387D01*
X35038557Y-21305656D01*
X35031463Y-21289589D01*
X35026007Y-21242563D01*
X35025000Y-21237500D01*
X35025000Y-20637500D01*
X35026006Y-20632438D01*
X35031463Y-20585410D01*
X35038557Y-20569341D01*
X35043079Y-20546613D01*
X35059337Y-20522279D01*
X35067458Y-20503889D01*
X35080017Y-20491329D01*
X35094562Y-20469562D01*
X35116329Y-20455017D01*
X35128889Y-20442458D01*
X35147279Y-20434337D01*
X35171613Y-20418079D01*
X35194341Y-20413557D01*
X35210410Y-20406463D01*
X35257438Y-20401006D01*
X35262500Y-20400000D01*
X35737500Y-20400000D01*
X35742563Y-20401007D01*
G37*
G36*
X22158013Y-19056594D02*
G01*
X22213186Y-19063857D01*
X22227065Y-19070329D01*
X22245671Y-19074030D01*
X22270316Y-19090497D01*
X22292841Y-19101001D01*
X22306543Y-19114703D01*
X22326777Y-19128223D01*
X22340296Y-19148456D01*
X22353998Y-19162158D01*
X22364500Y-19184680D01*
X22380970Y-19209329D01*
X22384671Y-19227936D01*
X22391142Y-19241813D01*
X22398403Y-19296974D01*
X22400000Y-19305000D01*
X22400000Y-20130000D01*
X22398403Y-20138028D01*
X22391142Y-20193186D01*
X22384671Y-20207061D01*
X22380970Y-20225671D01*
X22364498Y-20250321D01*
X22353998Y-20272841D01*
X22340298Y-20286540D01*
X22326777Y-20306777D01*
X22306540Y-20320298D01*
X22292841Y-20333998D01*
X22270321Y-20344498D01*
X22245671Y-20360970D01*
X22227061Y-20364671D01*
X22213186Y-20371142D01*
X22158026Y-20378403D01*
X22150000Y-20380000D01*
X20850000Y-20380000D01*
X20841973Y-20378403D01*
X20786813Y-20371142D01*
X20772936Y-20364671D01*
X20754329Y-20360970D01*
X20729680Y-20344500D01*
X20707158Y-20333998D01*
X20693456Y-20320296D01*
X20673223Y-20306777D01*
X20659703Y-20286543D01*
X20646001Y-20272841D01*
X20635497Y-20250316D01*
X20619030Y-20225671D01*
X20615329Y-20207065D01*
X20608857Y-20193186D01*
X20601593Y-20138012D01*
X20600000Y-20130000D01*
X20600000Y-19305000D01*
X20601593Y-19296988D01*
X20608857Y-19241813D01*
X20615329Y-19227932D01*
X20619030Y-19209329D01*
X20635496Y-19184685D01*
X20646001Y-19162158D01*
X20659705Y-19148453D01*
X20673223Y-19128223D01*
X20693453Y-19114705D01*
X20707158Y-19101001D01*
X20729685Y-19090496D01*
X20754329Y-19074030D01*
X20772932Y-19070329D01*
X20786813Y-19063857D01*
X20841989Y-19056593D01*
X20850000Y-19055000D01*
X22150000Y-19055000D01*
X22158013Y-19056594D01*
G37*
G36*
X23742563Y-19186007D02*
G01*
X23789589Y-19191463D01*
X23805656Y-19198557D01*
X23828387Y-19203079D01*
X23852722Y-19219339D01*
X23871110Y-19227458D01*
X23883667Y-19240015D01*
X23905438Y-19254562D01*
X23919984Y-19276332D01*
X23932541Y-19288889D01*
X23940659Y-19307275D01*
X23956921Y-19331613D01*
X23961442Y-19354345D01*
X23968536Y-19370410D01*
X23973990Y-19417425D01*
X23975000Y-19422500D01*
X23975000Y-20022500D01*
X23973990Y-20027575D01*
X23968536Y-20074589D01*
X23961443Y-20090652D01*
X23956921Y-20113387D01*
X23940658Y-20137726D01*
X23932541Y-20156110D01*
X23919986Y-20168664D01*
X23905438Y-20190438D01*
X23883664Y-20204986D01*
X23871110Y-20217541D01*
X23852726Y-20225658D01*
X23828387Y-20241921D01*
X23805652Y-20246443D01*
X23789589Y-20253536D01*
X23742575Y-20258990D01*
X23737500Y-20260000D01*
X23262500Y-20260000D01*
X23257425Y-20258990D01*
X23210410Y-20253536D01*
X23194345Y-20246442D01*
X23171613Y-20241921D01*
X23147275Y-20225659D01*
X23128889Y-20217541D01*
X23116332Y-20204984D01*
X23094562Y-20190438D01*
X23080015Y-20168667D01*
X23067458Y-20156110D01*
X23059339Y-20137722D01*
X23043079Y-20113387D01*
X23038557Y-20090656D01*
X23031463Y-20074589D01*
X23026007Y-20027563D01*
X23025000Y-20022500D01*
X23025000Y-19422500D01*
X23026006Y-19417438D01*
X23031463Y-19370410D01*
X23038557Y-19354341D01*
X23043079Y-19331613D01*
X23059337Y-19307279D01*
X23067458Y-19288889D01*
X23080017Y-19276329D01*
X23094562Y-19254562D01*
X23116329Y-19240017D01*
X23128889Y-19227458D01*
X23147279Y-19219337D01*
X23171613Y-19203079D01*
X23194341Y-19198557D01*
X23210410Y-19191463D01*
X23257438Y-19186006D01*
X23262500Y-19185000D01*
X23737500Y-19185000D01*
X23742563Y-19186007D01*
G37*
G36*
X25452403Y-16636418D02*
G01*
X25501066Y-16668934D01*
X25533582Y-16717597D01*
X25545000Y-16775000D01*
X25545000Y-18525000D01*
X25533582Y-18582403D01*
X25501066Y-18631066D01*
X25452403Y-18663582D01*
X25395000Y-18675000D01*
X25095000Y-18675000D01*
X25037597Y-18663582D01*
X24988934Y-18631066D01*
X24956418Y-18582403D01*
X24945000Y-18525000D01*
X24945000Y-16775000D01*
X24956418Y-16717597D01*
X24988934Y-16668934D01*
X25037597Y-16636418D01*
X25095000Y-16625000D01*
X25395000Y-16625000D01*
X25452403Y-16636418D01*
G37*
G36*
X26722403Y-16636418D02*
G01*
X26771066Y-16668934D01*
X26803582Y-16717597D01*
X26815000Y-16775000D01*
X26815000Y-18525000D01*
X26803582Y-18582403D01*
X26771066Y-18631066D01*
X26722403Y-18663582D01*
X26665000Y-18675000D01*
X26365000Y-18675000D01*
X26307597Y-18663582D01*
X26258934Y-18631066D01*
X26226418Y-18582403D01*
X26215000Y-18525000D01*
X26215000Y-16775000D01*
X26226418Y-16717597D01*
X26258934Y-16668934D01*
X26307597Y-16636418D01*
X26365000Y-16625000D01*
X26665000Y-16625000D01*
X26722403Y-16636418D01*
G37*
G36*
X27992403Y-16636418D02*
G01*
X28041066Y-16668934D01*
X28073582Y-16717597D01*
X28085000Y-16775000D01*
X28085000Y-18525000D01*
X28073582Y-18582403D01*
X28041066Y-18631066D01*
X27992403Y-18663582D01*
X27935000Y-18675000D01*
X27635000Y-18675000D01*
X27577597Y-18663582D01*
X27528934Y-18631066D01*
X27496418Y-18582403D01*
X27485000Y-18525000D01*
X27485000Y-16775000D01*
X27496418Y-16717597D01*
X27528934Y-16668934D01*
X27577597Y-16636418D01*
X27635000Y-16625000D01*
X27935000Y-16625000D01*
X27992403Y-16636418D01*
G37*
G36*
X29262403Y-16636418D02*
G01*
X29311066Y-16668934D01*
X29343582Y-16717597D01*
X29355000Y-16775000D01*
X29355000Y-18525000D01*
X29343582Y-18582403D01*
X29311066Y-18631066D01*
X29262403Y-18663582D01*
X29205000Y-18675000D01*
X28905000Y-18675000D01*
X28847597Y-18663582D01*
X28798934Y-18631066D01*
X28766418Y-18582403D01*
X28755000Y-18525000D01*
X28755000Y-16775000D01*
X28766418Y-16717597D01*
X28798934Y-16668934D01*
X28847597Y-16636418D01*
X28905000Y-16625000D01*
X29205000Y-16625000D01*
X29262403Y-16636418D01*
G37*
G36*
X30532403Y-16636418D02*
G01*
X30581066Y-16668934D01*
X30613582Y-16717597D01*
X30625000Y-16775000D01*
X30625000Y-18525000D01*
X30613582Y-18582403D01*
X30581066Y-18631066D01*
X30532403Y-18663582D01*
X30475000Y-18675000D01*
X30175000Y-18675000D01*
X30117597Y-18663582D01*
X30068934Y-18631066D01*
X30036418Y-18582403D01*
X30025000Y-18525000D01*
X30025000Y-16775000D01*
X30036418Y-16717597D01*
X30068934Y-16668934D01*
X30117597Y-16636418D01*
X30175000Y-16625000D01*
X30475000Y-16625000D01*
X30532403Y-16636418D01*
G37*
G36*
X31802403Y-16636418D02*
G01*
X31851066Y-16668934D01*
X31883582Y-16717597D01*
X31895000Y-16775000D01*
X31895000Y-18525000D01*
X31883582Y-18582403D01*
X31851066Y-18631066D01*
X31802403Y-18663582D01*
X31745000Y-18675000D01*
X31445000Y-18675000D01*
X31387597Y-18663582D01*
X31338934Y-18631066D01*
X31306418Y-18582403D01*
X31295000Y-18525000D01*
X31295000Y-16775000D01*
X31306418Y-16717597D01*
X31338934Y-16668934D01*
X31387597Y-16636418D01*
X31445000Y-16625000D01*
X31745000Y-16625000D01*
X31802403Y-16636418D01*
G37*
G36*
X33072403Y-16636418D02*
G01*
X33121066Y-16668934D01*
X33153582Y-16717597D01*
X33165000Y-16775000D01*
X33165000Y-18525000D01*
X33153582Y-18582403D01*
X33121066Y-18631066D01*
X33072403Y-18663582D01*
X33015000Y-18675000D01*
X32715000Y-18675000D01*
X32657597Y-18663582D01*
X32608934Y-18631066D01*
X32576418Y-18582403D01*
X32565000Y-18525000D01*
X32565000Y-16775000D01*
X32576418Y-16717597D01*
X32608934Y-16668934D01*
X32657597Y-16636418D01*
X32715000Y-16625000D01*
X33015000Y-16625000D01*
X33072403Y-16636418D01*
G37*
G36*
X34342403Y-16636418D02*
G01*
X34391066Y-16668934D01*
X34423582Y-16717597D01*
X34435000Y-16775000D01*
X34435000Y-18525000D01*
X34423582Y-18582403D01*
X34391066Y-18631066D01*
X34342403Y-18663582D01*
X34285000Y-18675000D01*
X33985000Y-18675000D01*
X33927597Y-18663582D01*
X33878934Y-18631066D01*
X33846418Y-18582403D01*
X33835000Y-18525000D01*
X33835000Y-16775000D01*
X33846418Y-16717597D01*
X33878934Y-16668934D01*
X33927597Y-16636418D01*
X33985000Y-16625000D01*
X34285000Y-16625000D01*
X34342403Y-16636418D01*
G37*
G36*
X35612403Y-16636418D02*
G01*
X35661066Y-16668934D01*
X35693582Y-16717597D01*
X35705000Y-16775000D01*
X35705000Y-18525000D01*
X35693582Y-18582403D01*
X35661066Y-18631066D01*
X35612403Y-18663582D01*
X35555000Y-18675000D01*
X35255000Y-18675000D01*
X35197597Y-18663582D01*
X35148934Y-18631066D01*
X35116418Y-18582403D01*
X35105000Y-18525000D01*
X35105000Y-16775000D01*
X35116418Y-16717597D01*
X35148934Y-16668934D01*
X35197597Y-16636418D01*
X35255000Y-16625000D01*
X35555000Y-16625000D01*
X35612403Y-16636418D01*
G37*
G36*
X36882403Y-16636418D02*
G01*
X36931066Y-16668934D01*
X36963582Y-16717597D01*
X36975000Y-16775000D01*
X36975000Y-18525000D01*
X36963582Y-18582403D01*
X36931066Y-18631066D01*
X36882403Y-18663582D01*
X36825000Y-18675000D01*
X36525000Y-18675000D01*
X36467597Y-18663582D01*
X36418934Y-18631066D01*
X36386418Y-18582403D01*
X36375000Y-18525000D01*
X36375000Y-16775000D01*
X36386418Y-16717597D01*
X36418934Y-16668934D01*
X36467597Y-16636418D01*
X36525000Y-16625000D01*
X36825000Y-16625000D01*
X36882403Y-16636418D01*
G37*
G36*
X38152403Y-16636418D02*
G01*
X38201066Y-16668934D01*
X38233582Y-16717597D01*
X38245000Y-16775000D01*
X38245000Y-18525000D01*
X38233582Y-18582403D01*
X38201066Y-18631066D01*
X38152403Y-18663582D01*
X38095000Y-18675000D01*
X37795000Y-18675000D01*
X37737597Y-18663582D01*
X37688934Y-18631066D01*
X37656418Y-18582403D01*
X37645000Y-18525000D01*
X37645000Y-16775000D01*
X37656418Y-16717597D01*
X37688934Y-16668934D01*
X37737597Y-16636418D01*
X37795000Y-16625000D01*
X38095000Y-16625000D01*
X38152403Y-16636418D01*
G37*
G36*
X39422403Y-16636418D02*
G01*
X39471066Y-16668934D01*
X39503582Y-16717597D01*
X39515000Y-16775000D01*
X39515000Y-18525000D01*
X39503582Y-18582403D01*
X39471066Y-18631066D01*
X39422403Y-18663582D01*
X39365000Y-18675000D01*
X39065000Y-18675000D01*
X39007597Y-18663582D01*
X38958934Y-18631066D01*
X38926418Y-18582403D01*
X38915000Y-18525000D01*
X38915000Y-16775000D01*
X38926418Y-16717597D01*
X38958934Y-16668934D01*
X39007597Y-16636418D01*
X39065000Y-16625000D01*
X39365000Y-16625000D01*
X39422403Y-16636418D01*
G37*
G36*
X40692403Y-16636418D02*
G01*
X40741066Y-16668934D01*
X40773582Y-16717597D01*
X40785000Y-16775000D01*
X40785000Y-18525000D01*
X40773582Y-18582403D01*
X40741066Y-18631066D01*
X40692403Y-18663582D01*
X40635000Y-18675000D01*
X40335000Y-18675000D01*
X40277597Y-18663582D01*
X40228934Y-18631066D01*
X40196418Y-18582403D01*
X40185000Y-18525000D01*
X40185000Y-16775000D01*
X40196418Y-16717597D01*
X40228934Y-16668934D01*
X40277597Y-16636418D01*
X40335000Y-16625000D01*
X40635000Y-16625000D01*
X40692403Y-16636418D01*
G37*
G36*
X41962403Y-16636418D02*
G01*
X42011066Y-16668934D01*
X42043582Y-16717597D01*
X42055000Y-16775000D01*
X42055000Y-18525000D01*
X42043582Y-18582403D01*
X42011066Y-18631066D01*
X41962403Y-18663582D01*
X41905000Y-18675000D01*
X41605000Y-18675000D01*
X41547597Y-18663582D01*
X41498934Y-18631066D01*
X41466418Y-18582403D01*
X41455000Y-18525000D01*
X41455000Y-16775000D01*
X41466418Y-16717597D01*
X41498934Y-16668934D01*
X41547597Y-16636418D01*
X41605000Y-16625000D01*
X41905000Y-16625000D01*
X41962403Y-16636418D01*
G37*
G36*
X23742563Y-17461007D02*
G01*
X23789589Y-17466463D01*
X23805656Y-17473557D01*
X23828387Y-17478079D01*
X23852722Y-17494339D01*
X23871110Y-17502458D01*
X23883667Y-17515015D01*
X23905438Y-17529562D01*
X23919984Y-17551332D01*
X23932541Y-17563889D01*
X23940659Y-17582275D01*
X23956921Y-17606613D01*
X23961442Y-17629345D01*
X23968536Y-17645410D01*
X23973990Y-17692425D01*
X23975000Y-17697500D01*
X23975000Y-18297500D01*
X23973990Y-18302575D01*
X23968536Y-18349589D01*
X23961443Y-18365652D01*
X23956921Y-18388387D01*
X23940658Y-18412726D01*
X23932541Y-18431110D01*
X23919986Y-18443664D01*
X23905438Y-18465438D01*
X23883664Y-18479986D01*
X23871110Y-18492541D01*
X23852726Y-18500658D01*
X23828387Y-18516921D01*
X23805652Y-18521443D01*
X23789589Y-18528536D01*
X23742575Y-18533990D01*
X23737500Y-18535000D01*
X23262500Y-18535000D01*
X23257425Y-18533990D01*
X23210410Y-18528536D01*
X23194345Y-18521442D01*
X23171613Y-18516921D01*
X23147275Y-18500659D01*
X23128889Y-18492541D01*
X23116332Y-18479984D01*
X23094562Y-18465438D01*
X23080015Y-18443667D01*
X23067458Y-18431110D01*
X23059339Y-18412722D01*
X23043079Y-18388387D01*
X23038557Y-18365656D01*
X23031463Y-18349589D01*
X23026007Y-18302563D01*
X23025000Y-18297500D01*
X23025000Y-17697500D01*
X23026006Y-17692438D01*
X23031463Y-17645410D01*
X23038557Y-17629341D01*
X23043079Y-17606613D01*
X23059337Y-17582279D01*
X23067458Y-17563889D01*
X23080017Y-17551329D01*
X23094562Y-17529562D01*
X23116329Y-17515017D01*
X23128889Y-17502458D01*
X23147279Y-17494337D01*
X23171613Y-17478079D01*
X23194341Y-17473557D01*
X23210410Y-17466463D01*
X23257438Y-17461006D01*
X23262500Y-17460000D01*
X23737500Y-17460000D01*
X23742563Y-17461007D01*
G37*
G36*
X22158013Y-15931594D02*
G01*
X22213186Y-15938857D01*
X22227065Y-15945329D01*
X22245671Y-15949030D01*
X22270316Y-15965497D01*
X22292841Y-15976001D01*
X22306543Y-15989703D01*
X22326777Y-16003223D01*
X22340296Y-16023456D01*
X22353998Y-16037158D01*
X22364500Y-16059680D01*
X22380970Y-16084329D01*
X22384671Y-16102936D01*
X22391142Y-16116813D01*
X22398403Y-16171974D01*
X22400000Y-16180000D01*
X22400000Y-17005000D01*
X22398403Y-17013028D01*
X22391142Y-17068186D01*
X22384671Y-17082061D01*
X22380970Y-17100671D01*
X22364498Y-17125321D01*
X22353998Y-17147841D01*
X22340298Y-17161540D01*
X22326777Y-17181777D01*
X22306540Y-17195298D01*
X22292841Y-17208998D01*
X22270321Y-17219498D01*
X22245671Y-17235970D01*
X22227061Y-17239671D01*
X22213186Y-17246142D01*
X22158026Y-17253403D01*
X22150000Y-17255000D01*
X20850000Y-17255000D01*
X20841973Y-17253403D01*
X20786813Y-17246142D01*
X20772936Y-17239671D01*
X20754329Y-17235970D01*
X20729680Y-17219500D01*
X20707158Y-17208998D01*
X20693456Y-17195296D01*
X20673223Y-17181777D01*
X20659703Y-17161543D01*
X20646001Y-17147841D01*
X20635497Y-17125316D01*
X20619030Y-17100671D01*
X20615329Y-17082065D01*
X20608857Y-17068186D01*
X20601593Y-17013012D01*
X20600000Y-17005000D01*
X20600000Y-16180000D01*
X20601593Y-16171988D01*
X20608857Y-16116813D01*
X20615329Y-16102932D01*
X20619030Y-16084329D01*
X20635496Y-16059685D01*
X20646001Y-16037158D01*
X20659705Y-16023453D01*
X20673223Y-16003223D01*
X20693453Y-15989705D01*
X20707158Y-15976001D01*
X20729685Y-15965496D01*
X20754329Y-15949030D01*
X20772932Y-15945329D01*
X20786813Y-15938857D01*
X20841989Y-15931593D01*
X20850000Y-15930000D01*
X22150000Y-15930000D01*
X22158013Y-15931594D01*
G37*
G36*
X10956742Y-15016601D02*
G01*
X11110687Y-15080367D01*
X11249234Y-15172941D01*
X11367059Y-15290766D01*
X11459633Y-15429313D01*
X11523399Y-15583258D01*
X11555907Y-15746685D01*
X11555907Y-15913315D01*
X11523399Y-16076742D01*
X11459633Y-16230687D01*
X11367059Y-16369234D01*
X11249234Y-16487059D01*
X11110687Y-16579633D01*
X10956742Y-16643399D01*
X10793315Y-16675907D01*
X10626685Y-16675907D01*
X10463258Y-16643399D01*
X10309313Y-16579633D01*
X10170766Y-16487059D01*
X10052941Y-16369234D01*
X9960367Y-16230687D01*
X9896601Y-16076742D01*
X9864093Y-15913315D01*
X9864093Y-15746685D01*
X9896601Y-15583258D01*
X9960367Y-15429313D01*
X10052941Y-15290766D01*
X10170766Y-15172941D01*
X10309313Y-15080367D01*
X10463258Y-15016601D01*
X10626685Y-14984093D01*
X10793315Y-14984093D01*
X10956742Y-15016601D01*
G37*
G36*
X13496742Y-15016601D02*
G01*
X13650687Y-15080367D01*
X13789234Y-15172941D01*
X13907059Y-15290766D01*
X13999633Y-15429313D01*
X14063399Y-15583258D01*
X14095907Y-15746685D01*
X14095907Y-15913315D01*
X14063399Y-16076742D01*
X13999633Y-16230687D01*
X13907059Y-16369234D01*
X13789234Y-16487059D01*
X13650687Y-16579633D01*
X13496742Y-16643399D01*
X13333315Y-16675907D01*
X13166685Y-16675907D01*
X13003258Y-16643399D01*
X12849313Y-16579633D01*
X12710766Y-16487059D01*
X12592941Y-16369234D01*
X12500367Y-16230687D01*
X12436601Y-16076742D01*
X12404093Y-15913315D01*
X12404093Y-15746685D01*
X12436601Y-15583258D01*
X12500367Y-15429313D01*
X12592941Y-15290766D01*
X12710766Y-15172941D01*
X12849313Y-15080367D01*
X13003258Y-15016601D01*
X13166685Y-14984093D01*
X13333315Y-14984093D01*
X13496742Y-15016601D01*
G37*
G36*
X47242563Y-15463507D02*
G01*
X47289589Y-15468963D01*
X47305656Y-15476057D01*
X47328387Y-15480579D01*
X47352722Y-15496839D01*
X47371110Y-15504958D01*
X47383667Y-15517515D01*
X47405438Y-15532062D01*
X47419984Y-15553832D01*
X47432541Y-15566389D01*
X47440659Y-15584775D01*
X47456921Y-15609113D01*
X47461442Y-15631845D01*
X47468536Y-15647910D01*
X47473990Y-15694925D01*
X47475000Y-15700000D01*
X47475000Y-16300000D01*
X47473990Y-16305075D01*
X47468536Y-16352089D01*
X47461443Y-16368152D01*
X47456921Y-16390887D01*
X47440658Y-16415226D01*
X47432541Y-16433610D01*
X47419986Y-16446164D01*
X47405438Y-16467938D01*
X47383664Y-16482486D01*
X47371110Y-16495041D01*
X47352726Y-16503158D01*
X47328387Y-16519421D01*
X47305652Y-16523943D01*
X47289589Y-16531036D01*
X47242575Y-16536490D01*
X47237500Y-16537500D01*
X46762500Y-16537500D01*
X46757425Y-16536490D01*
X46710410Y-16531036D01*
X46694345Y-16523942D01*
X46671613Y-16519421D01*
X46647275Y-16503159D01*
X46628889Y-16495041D01*
X46616332Y-16482484D01*
X46594562Y-16467938D01*
X46580015Y-16446167D01*
X46567458Y-16433610D01*
X46559339Y-16415222D01*
X46543079Y-16390887D01*
X46538557Y-16368156D01*
X46531463Y-16352089D01*
X46526007Y-16305063D01*
X46525000Y-16300000D01*
X46525000Y-15700000D01*
X46526006Y-15694938D01*
X46531463Y-15647910D01*
X46538557Y-15631841D01*
X46543079Y-15609113D01*
X46559337Y-15584779D01*
X46567458Y-15566389D01*
X46580017Y-15553829D01*
X46594562Y-15532062D01*
X46616329Y-15517517D01*
X46628889Y-15504958D01*
X46647279Y-15496837D01*
X46671613Y-15480579D01*
X46694341Y-15476057D01*
X46710410Y-15468963D01*
X46757438Y-15463506D01*
X46762500Y-15462500D01*
X47237500Y-15462500D01*
X47242563Y-15463507D01*
G37*
G36*
X17657403Y-14366418D02*
G01*
X17706066Y-14398934D01*
X17738582Y-14447597D01*
X17750000Y-14505000D01*
X17750000Y-14805000D01*
X17738582Y-14862403D01*
X17706066Y-14911066D01*
X17657403Y-14943582D01*
X17600000Y-14955000D01*
X15950000Y-14955000D01*
X15892597Y-14943582D01*
X15843934Y-14911066D01*
X15811418Y-14862403D01*
X15800000Y-14805000D01*
X15800000Y-14505000D01*
X15811418Y-14447597D01*
X15843934Y-14398934D01*
X15892597Y-14366418D01*
X15950000Y-14355000D01*
X17600000Y-14355000D01*
X17657403Y-14366418D01*
G37*
G36*
X22607403Y-14366418D02*
G01*
X22656066Y-14398934D01*
X22688582Y-14447597D01*
X22700000Y-14505000D01*
X22700000Y-14805000D01*
X22688582Y-14862403D01*
X22656066Y-14911066D01*
X22607403Y-14943582D01*
X22550000Y-14955000D01*
X20900000Y-14955000D01*
X20842597Y-14943582D01*
X20793934Y-14911066D01*
X20761418Y-14862403D01*
X20750000Y-14805000D01*
X20750000Y-14505000D01*
X20761418Y-14447597D01*
X20793934Y-14398934D01*
X20842597Y-14366418D01*
X20900000Y-14355000D01*
X22550000Y-14355000D01*
X22607403Y-14366418D01*
G37*
G36*
X47242563Y-13738507D02*
G01*
X47289589Y-13743963D01*
X47305656Y-13751057D01*
X47328387Y-13755579D01*
X47352722Y-13771839D01*
X47371110Y-13779958D01*
X47383667Y-13792515D01*
X47405438Y-13807062D01*
X47419984Y-13828832D01*
X47432541Y-13841389D01*
X47440659Y-13859775D01*
X47456921Y-13884113D01*
X47461442Y-13906845D01*
X47468536Y-13922910D01*
X47473990Y-13969925D01*
X47475000Y-13975000D01*
X47475000Y-14575000D01*
X47473990Y-14580075D01*
X47468536Y-14627089D01*
X47461443Y-14643152D01*
X47456921Y-14665887D01*
X47440658Y-14690226D01*
X47432541Y-14708610D01*
X47419986Y-14721164D01*
X47405438Y-14742938D01*
X47383664Y-14757486D01*
X47371110Y-14770041D01*
X47352726Y-14778158D01*
X47328387Y-14794421D01*
X47305652Y-14798943D01*
X47289589Y-14806036D01*
X47242575Y-14811490D01*
X47237500Y-14812500D01*
X46762500Y-14812500D01*
X46757425Y-14811490D01*
X46710410Y-14806036D01*
X46694345Y-14798942D01*
X46671613Y-14794421D01*
X46647275Y-14778159D01*
X46628889Y-14770041D01*
X46616332Y-14757484D01*
X46594562Y-14742938D01*
X46580015Y-14721167D01*
X46567458Y-14708610D01*
X46559339Y-14690222D01*
X46543079Y-14665887D01*
X46538557Y-14643156D01*
X46531463Y-14627089D01*
X46526007Y-14580063D01*
X46525000Y-14575000D01*
X46525000Y-13975000D01*
X46526006Y-13969938D01*
X46531463Y-13922910D01*
X46538557Y-13906841D01*
X46543079Y-13884113D01*
X46559337Y-13859779D01*
X46567458Y-13841389D01*
X46580017Y-13828829D01*
X46594562Y-13807062D01*
X46616329Y-13792517D01*
X46628889Y-13779958D01*
X46647279Y-13771837D01*
X46671613Y-13755579D01*
X46694341Y-13751057D01*
X46710410Y-13743963D01*
X46757438Y-13738506D01*
X46762500Y-13737500D01*
X47237500Y-13737500D01*
X47242563Y-13738507D01*
G37*
G36*
X10956742Y-12476601D02*
G01*
X11110687Y-12540367D01*
X11249234Y-12632941D01*
X11367059Y-12750766D01*
X11459633Y-12889313D01*
X11523399Y-13043258D01*
X11555907Y-13206685D01*
X11555907Y-13373315D01*
X11523399Y-13536742D01*
X11459633Y-13690687D01*
X11367059Y-13829234D01*
X11249234Y-13947059D01*
X11110687Y-14039633D01*
X10956742Y-14103399D01*
X10793315Y-14135907D01*
X10626685Y-14135907D01*
X10463258Y-14103399D01*
X10309313Y-14039633D01*
X10170766Y-13947059D01*
X10052941Y-13829234D01*
X9960367Y-13690687D01*
X9896601Y-13536742D01*
X9864093Y-13373315D01*
X9864093Y-13206685D01*
X9896601Y-13043258D01*
X9960367Y-12889313D01*
X10052941Y-12750766D01*
X10170766Y-12632941D01*
X10309313Y-12540367D01*
X10463258Y-12476601D01*
X10626685Y-12444093D01*
X10793315Y-12444093D01*
X10956742Y-12476601D01*
G37*
G36*
X13496742Y-12476601D02*
G01*
X13650687Y-12540367D01*
X13789234Y-12632941D01*
X13907059Y-12750766D01*
X13999633Y-12889313D01*
X14063399Y-13043258D01*
X14095907Y-13206685D01*
X14095907Y-13373315D01*
X14063399Y-13536742D01*
X13999633Y-13690687D01*
X13907059Y-13829234D01*
X13789234Y-13947059D01*
X13650687Y-14039633D01*
X13496742Y-14103399D01*
X13333315Y-14135907D01*
X13166685Y-14135907D01*
X13003258Y-14103399D01*
X12849313Y-14039633D01*
X12710766Y-13947059D01*
X12592941Y-13829234D01*
X12500367Y-13690687D01*
X12436601Y-13536742D01*
X12404093Y-13373315D01*
X12404093Y-13206685D01*
X12436601Y-13043258D01*
X12500367Y-12889313D01*
X12592941Y-12750766D01*
X12710766Y-12632941D01*
X12849313Y-12540367D01*
X13003258Y-12476601D01*
X13166685Y-12444093D01*
X13333315Y-12444093D01*
X13496742Y-12476601D01*
G37*
G36*
X17657403Y-13096418D02*
G01*
X17706066Y-13128934D01*
X17738582Y-13177597D01*
X17750000Y-13235000D01*
X17750000Y-13535000D01*
X17738582Y-13592403D01*
X17706066Y-13641066D01*
X17657403Y-13673582D01*
X17600000Y-13685000D01*
X15950000Y-13685000D01*
X15892597Y-13673582D01*
X15843934Y-13641066D01*
X15811418Y-13592403D01*
X15800000Y-13535000D01*
X15800000Y-13235000D01*
X15811418Y-13177597D01*
X15843934Y-13128934D01*
X15892597Y-13096418D01*
X15950000Y-13085000D01*
X17600000Y-13085000D01*
X17657403Y-13096418D01*
G37*
G36*
X22607403Y-13096418D02*
G01*
X22656066Y-13128934D01*
X22688582Y-13177597D01*
X22700000Y-13235000D01*
X22700000Y-13535000D01*
X22688582Y-13592403D01*
X22656066Y-13641066D01*
X22607403Y-13673582D01*
X22550000Y-13685000D01*
X20900000Y-13685000D01*
X20842597Y-13673582D01*
X20793934Y-13641066D01*
X20761418Y-13592403D01*
X20750000Y-13535000D01*
X20750000Y-13235000D01*
X20761418Y-13177597D01*
X20793934Y-13128934D01*
X20842597Y-13096418D01*
X20900000Y-13085000D01*
X22550000Y-13085000D01*
X22607403Y-13096418D01*
G37*
G36*
X17657403Y-11826418D02*
G01*
X17706066Y-11858934D01*
X17738582Y-11907597D01*
X17750000Y-11965000D01*
X17750000Y-12265000D01*
X17738582Y-12322403D01*
X17706066Y-12371066D01*
X17657403Y-12403582D01*
X17600000Y-12415000D01*
X15950000Y-12415000D01*
X15892597Y-12403582D01*
X15843934Y-12371066D01*
X15811418Y-12322403D01*
X15800000Y-12265000D01*
X15800000Y-11965000D01*
X15811418Y-11907597D01*
X15843934Y-11858934D01*
X15892597Y-11826418D01*
X15950000Y-11815000D01*
X17600000Y-11815000D01*
X17657403Y-11826418D01*
G37*
G36*
X22607403Y-11826418D02*
G01*
X22656066Y-11858934D01*
X22688582Y-11907597D01*
X22700000Y-11965000D01*
X22700000Y-12265000D01*
X22688582Y-12322403D01*
X22656066Y-12371066D01*
X22607403Y-12403582D01*
X22550000Y-12415000D01*
X20900000Y-12415000D01*
X20842597Y-12403582D01*
X20793934Y-12371066D01*
X20761418Y-12322403D01*
X20750000Y-12265000D01*
X20750000Y-11965000D01*
X20761418Y-11907597D01*
X20793934Y-11858934D01*
X20842597Y-11826418D01*
X20900000Y-11815000D01*
X22550000Y-11815000D01*
X22607403Y-11826418D01*
G37*
G36*
X10956742Y-9936601D02*
G01*
X11110687Y-10000367D01*
X11249234Y-10092941D01*
X11367059Y-10210766D01*
X11459633Y-10349313D01*
X11523399Y-10503258D01*
X11555907Y-10666685D01*
X11555907Y-10833315D01*
X11523399Y-10996742D01*
X11459633Y-11150687D01*
X11367059Y-11289234D01*
X11249234Y-11407059D01*
X11110687Y-11499633D01*
X10956742Y-11563399D01*
X10793315Y-11595907D01*
X10626685Y-11595907D01*
X10463258Y-11563399D01*
X10309313Y-11499633D01*
X10170766Y-11407059D01*
X10052941Y-11289234D01*
X9960367Y-11150687D01*
X9896601Y-10996742D01*
X9864093Y-10833315D01*
X9864093Y-10666685D01*
X9896601Y-10503258D01*
X9960367Y-10349313D01*
X10052941Y-10210766D01*
X10170766Y-10092941D01*
X10309313Y-10000367D01*
X10463258Y-9936601D01*
X10626685Y-9904093D01*
X10793315Y-9904093D01*
X10956742Y-9936601D01*
G37*
G36*
X13496742Y-9936601D02*
G01*
X13650687Y-10000367D01*
X13789234Y-10092941D01*
X13907059Y-10210766D01*
X13999633Y-10349313D01*
X14063399Y-10503258D01*
X14095907Y-10666685D01*
X14095907Y-10833315D01*
X14063399Y-10996742D01*
X13999633Y-11150687D01*
X13907059Y-11289234D01*
X13789234Y-11407059D01*
X13650687Y-11499633D01*
X13496742Y-11563399D01*
X13333315Y-11595907D01*
X13166685Y-11595907D01*
X13003258Y-11563399D01*
X12849313Y-11499633D01*
X12710766Y-11407059D01*
X12592941Y-11289234D01*
X12500367Y-11150687D01*
X12436601Y-10996742D01*
X12404093Y-10833315D01*
X12404093Y-10666685D01*
X12436601Y-10503258D01*
X12500367Y-10349313D01*
X12592941Y-10210766D01*
X12710766Y-10092941D01*
X12849313Y-10000367D01*
X13003258Y-9936601D01*
X13166685Y-9904093D01*
X13333315Y-9904093D01*
X13496742Y-9936601D01*
G37*
G36*
X17657403Y-10556418D02*
G01*
X17706066Y-10588934D01*
X17738582Y-10637597D01*
X17750000Y-10695000D01*
X17750000Y-10995000D01*
X17738582Y-11052403D01*
X17706066Y-11101066D01*
X17657403Y-11133582D01*
X17600000Y-11145000D01*
X15950000Y-11145000D01*
X15892597Y-11133582D01*
X15843934Y-11101066D01*
X15811418Y-11052403D01*
X15800000Y-10995000D01*
X15800000Y-10695000D01*
X15811418Y-10637597D01*
X15843934Y-10588934D01*
X15892597Y-10556418D01*
X15950000Y-10545000D01*
X17600000Y-10545000D01*
X17657403Y-10556418D01*
G37*
G36*
X22607403Y-10556418D02*
G01*
X22656066Y-10588934D01*
X22688582Y-10637597D01*
X22700000Y-10695000D01*
X22700000Y-10995000D01*
X22688582Y-11052403D01*
X22656066Y-11101066D01*
X22607403Y-11133582D01*
X22550000Y-11145000D01*
X20900000Y-11145000D01*
X20842597Y-11133582D01*
X20793934Y-11101066D01*
X20761418Y-11052403D01*
X20750000Y-10995000D01*
X20750000Y-10695000D01*
X20761418Y-10637597D01*
X20793934Y-10588934D01*
X20842597Y-10556418D01*
X20900000Y-10545000D01*
X22550000Y-10545000D01*
X22607403Y-10556418D01*
G37*
G36*
X45967714Y-9032295D02*
G01*
X46103548Y-9088559D01*
X46225795Y-9170242D01*
X46329758Y-9274205D01*
X46411441Y-9396452D01*
X46467705Y-9532286D01*
X46496389Y-9676487D01*
X46496389Y-9823513D01*
X46467705Y-9967714D01*
X46411441Y-10103548D01*
X46329758Y-10225795D01*
X46225795Y-10329758D01*
X46103548Y-10411441D01*
X45967714Y-10467705D01*
X45823513Y-10496389D01*
X45676487Y-10496389D01*
X45532286Y-10467705D01*
X45396452Y-10411441D01*
X45274205Y-10329758D01*
X45170242Y-10225795D01*
X45088559Y-10103548D01*
X45032295Y-9967714D01*
X45003611Y-9823513D01*
X45003611Y-9676487D01*
X45032295Y-9532286D01*
X45088559Y-9396452D01*
X45170242Y-9274205D01*
X45274205Y-9170242D01*
X45396452Y-9088559D01*
X45532286Y-9032295D01*
X45676487Y-9003611D01*
X45823513Y-9003611D01*
X45967714Y-9032295D01*
G37*
G36*
X25452403Y-7336418D02*
G01*
X25501066Y-7368934D01*
X25533582Y-7417597D01*
X25545000Y-7475000D01*
X25545000Y-9225000D01*
X25533582Y-9282403D01*
X25501066Y-9331066D01*
X25452403Y-9363582D01*
X25395000Y-9375000D01*
X25095000Y-9375000D01*
X25037597Y-9363582D01*
X24988934Y-9331066D01*
X24956418Y-9282403D01*
X24945000Y-9225000D01*
X24945000Y-7475000D01*
X24956418Y-7417597D01*
X24988934Y-7368934D01*
X25037597Y-7336418D01*
X25095000Y-7325000D01*
X25395000Y-7325000D01*
X25452403Y-7336418D01*
G37*
G36*
X26722403Y-7336418D02*
G01*
X26771066Y-7368934D01*
X26803582Y-7417597D01*
X26815000Y-7475000D01*
X26815000Y-9225000D01*
X26803582Y-9282403D01*
X26771066Y-9331066D01*
X26722403Y-9363582D01*
X26665000Y-9375000D01*
X26365000Y-9375000D01*
X26307597Y-9363582D01*
X26258934Y-9331066D01*
X26226418Y-9282403D01*
X26215000Y-9225000D01*
X26215000Y-7475000D01*
X26226418Y-7417597D01*
X26258934Y-7368934D01*
X26307597Y-7336418D01*
X26365000Y-7325000D01*
X26665000Y-7325000D01*
X26722403Y-7336418D01*
G37*
G36*
X27992403Y-7336418D02*
G01*
X28041066Y-7368934D01*
X28073582Y-7417597D01*
X28085000Y-7475000D01*
X28085000Y-9225000D01*
X28073582Y-9282403D01*
X28041066Y-9331066D01*
X27992403Y-9363582D01*
X27935000Y-9375000D01*
X27635000Y-9375000D01*
X27577597Y-9363582D01*
X27528934Y-9331066D01*
X27496418Y-9282403D01*
X27485000Y-9225000D01*
X27485000Y-7475000D01*
X27496418Y-7417597D01*
X27528934Y-7368934D01*
X27577597Y-7336418D01*
X27635000Y-7325000D01*
X27935000Y-7325000D01*
X27992403Y-7336418D01*
G37*
G36*
X29262403Y-7336418D02*
G01*
X29311066Y-7368934D01*
X29343582Y-7417597D01*
X29355000Y-7475000D01*
X29355000Y-9225000D01*
X29343582Y-9282403D01*
X29311066Y-9331066D01*
X29262403Y-9363582D01*
X29205000Y-9375000D01*
X28905000Y-9375000D01*
X28847597Y-9363582D01*
X28798934Y-9331066D01*
X28766418Y-9282403D01*
X28755000Y-9225000D01*
X28755000Y-7475000D01*
X28766418Y-7417597D01*
X28798934Y-7368934D01*
X28847597Y-7336418D01*
X28905000Y-7325000D01*
X29205000Y-7325000D01*
X29262403Y-7336418D01*
G37*
G36*
X30532403Y-7336418D02*
G01*
X30581066Y-7368934D01*
X30613582Y-7417597D01*
X30625000Y-7475000D01*
X30625000Y-9225000D01*
X30613582Y-9282403D01*
X30581066Y-9331066D01*
X30532403Y-9363582D01*
X30475000Y-9375000D01*
X30175000Y-9375000D01*
X30117597Y-9363582D01*
X30068934Y-9331066D01*
X30036418Y-9282403D01*
X30025000Y-9225000D01*
X30025000Y-7475000D01*
X30036418Y-7417597D01*
X30068934Y-7368934D01*
X30117597Y-7336418D01*
X30175000Y-7325000D01*
X30475000Y-7325000D01*
X30532403Y-7336418D01*
G37*
G36*
X31802403Y-7336418D02*
G01*
X31851066Y-7368934D01*
X31883582Y-7417597D01*
X31895000Y-7475000D01*
X31895000Y-9225000D01*
X31883582Y-9282403D01*
X31851066Y-9331066D01*
X31802403Y-9363582D01*
X31745000Y-9375000D01*
X31445000Y-9375000D01*
X31387597Y-9363582D01*
X31338934Y-9331066D01*
X31306418Y-9282403D01*
X31295000Y-9225000D01*
X31295000Y-7475000D01*
X31306418Y-7417597D01*
X31338934Y-7368934D01*
X31387597Y-7336418D01*
X31445000Y-7325000D01*
X31745000Y-7325000D01*
X31802403Y-7336418D01*
G37*
G36*
X33072403Y-7336418D02*
G01*
X33121066Y-7368934D01*
X33153582Y-7417597D01*
X33165000Y-7475000D01*
X33165000Y-9225000D01*
X33153582Y-9282403D01*
X33121066Y-9331066D01*
X33072403Y-9363582D01*
X33015000Y-9375000D01*
X32715000Y-9375000D01*
X32657597Y-9363582D01*
X32608934Y-9331066D01*
X32576418Y-9282403D01*
X32565000Y-9225000D01*
X32565000Y-7475000D01*
X32576418Y-7417597D01*
X32608934Y-7368934D01*
X32657597Y-7336418D01*
X32715000Y-7325000D01*
X33015000Y-7325000D01*
X33072403Y-7336418D01*
G37*
G36*
X34342403Y-7336418D02*
G01*
X34391066Y-7368934D01*
X34423582Y-7417597D01*
X34435000Y-7475000D01*
X34435000Y-9225000D01*
X34423582Y-9282403D01*
X34391066Y-9331066D01*
X34342403Y-9363582D01*
X34285000Y-9375000D01*
X33985000Y-9375000D01*
X33927597Y-9363582D01*
X33878934Y-9331066D01*
X33846418Y-9282403D01*
X33835000Y-9225000D01*
X33835000Y-7475000D01*
X33846418Y-7417597D01*
X33878934Y-7368934D01*
X33927597Y-7336418D01*
X33985000Y-7325000D01*
X34285000Y-7325000D01*
X34342403Y-7336418D01*
G37*
G36*
X35612403Y-7336418D02*
G01*
X35661066Y-7368934D01*
X35693582Y-7417597D01*
X35705000Y-7475000D01*
X35705000Y-9225000D01*
X35693582Y-9282403D01*
X35661066Y-9331066D01*
X35612403Y-9363582D01*
X35555000Y-9375000D01*
X35255000Y-9375000D01*
X35197597Y-9363582D01*
X35148934Y-9331066D01*
X35116418Y-9282403D01*
X35105000Y-9225000D01*
X35105000Y-7475000D01*
X35116418Y-7417597D01*
X35148934Y-7368934D01*
X35197597Y-7336418D01*
X35255000Y-7325000D01*
X35555000Y-7325000D01*
X35612403Y-7336418D01*
G37*
G36*
X36882403Y-7336418D02*
G01*
X36931066Y-7368934D01*
X36963582Y-7417597D01*
X36975000Y-7475000D01*
X36975000Y-9225000D01*
X36963582Y-9282403D01*
X36931066Y-9331066D01*
X36882403Y-9363582D01*
X36825000Y-9375000D01*
X36525000Y-9375000D01*
X36467597Y-9363582D01*
X36418934Y-9331066D01*
X36386418Y-9282403D01*
X36375000Y-9225000D01*
X36375000Y-7475000D01*
X36386418Y-7417597D01*
X36418934Y-7368934D01*
X36467597Y-7336418D01*
X36525000Y-7325000D01*
X36825000Y-7325000D01*
X36882403Y-7336418D01*
G37*
G36*
X38152403Y-7336418D02*
G01*
X38201066Y-7368934D01*
X38233582Y-7417597D01*
X38245000Y-7475000D01*
X38245000Y-9225000D01*
X38233582Y-9282403D01*
X38201066Y-9331066D01*
X38152403Y-9363582D01*
X38095000Y-9375000D01*
X37795000Y-9375000D01*
X37737597Y-9363582D01*
X37688934Y-9331066D01*
X37656418Y-9282403D01*
X37645000Y-9225000D01*
X37645000Y-7475000D01*
X37656418Y-7417597D01*
X37688934Y-7368934D01*
X37737597Y-7336418D01*
X37795000Y-7325000D01*
X38095000Y-7325000D01*
X38152403Y-7336418D01*
G37*
G36*
X39422403Y-7336418D02*
G01*
X39471066Y-7368934D01*
X39503582Y-7417597D01*
X39515000Y-7475000D01*
X39515000Y-9225000D01*
X39503582Y-9282403D01*
X39471066Y-9331066D01*
X39422403Y-9363582D01*
X39365000Y-9375000D01*
X39065000Y-9375000D01*
X39007597Y-9363582D01*
X38958934Y-9331066D01*
X38926418Y-9282403D01*
X38915000Y-9225000D01*
X38915000Y-7475000D01*
X38926418Y-7417597D01*
X38958934Y-7368934D01*
X39007597Y-7336418D01*
X39065000Y-7325000D01*
X39365000Y-7325000D01*
X39422403Y-7336418D01*
G37*
G36*
X40692403Y-7336418D02*
G01*
X40741066Y-7368934D01*
X40773582Y-7417597D01*
X40785000Y-7475000D01*
X40785000Y-9225000D01*
X40773582Y-9282403D01*
X40741066Y-9331066D01*
X40692403Y-9363582D01*
X40635000Y-9375000D01*
X40335000Y-9375000D01*
X40277597Y-9363582D01*
X40228934Y-9331066D01*
X40196418Y-9282403D01*
X40185000Y-9225000D01*
X40185000Y-7475000D01*
X40196418Y-7417597D01*
X40228934Y-7368934D01*
X40277597Y-7336418D01*
X40335000Y-7325000D01*
X40635000Y-7325000D01*
X40692403Y-7336418D01*
G37*
G36*
X41962403Y-7336418D02*
G01*
X42011066Y-7368934D01*
X42043582Y-7417597D01*
X42055000Y-7475000D01*
X42055000Y-9225000D01*
X42043582Y-9282403D01*
X42011066Y-9331066D01*
X41962403Y-9363582D01*
X41905000Y-9375000D01*
X41605000Y-9375000D01*
X41547597Y-9363582D01*
X41498934Y-9331066D01*
X41466418Y-9282403D01*
X41455000Y-9225000D01*
X41455000Y-7475000D01*
X41466418Y-7417597D01*
X41498934Y-7368934D01*
X41547597Y-7336418D01*
X41605000Y-7325000D01*
X41905000Y-7325000D01*
X41962403Y-7336418D01*
G37*
G36*
X13858013Y-7361594D02*
G01*
X13913186Y-7368857D01*
X13927065Y-7375329D01*
X13945671Y-7379030D01*
X13970316Y-7395497D01*
X13992841Y-7406001D01*
X14006543Y-7419703D01*
X14026777Y-7433223D01*
X14040296Y-7453456D01*
X14053998Y-7467158D01*
X14064500Y-7489680D01*
X14080970Y-7514329D01*
X14084671Y-7532936D01*
X14091142Y-7546813D01*
X14098403Y-7601974D01*
X14100000Y-7610000D01*
X14100000Y-8810000D01*
X14098403Y-8818028D01*
X14091142Y-8873186D01*
X14084671Y-8887061D01*
X14080970Y-8905671D01*
X14064498Y-8930321D01*
X14053998Y-8952841D01*
X14040298Y-8966540D01*
X14026777Y-8986777D01*
X14006540Y-9000298D01*
X13992841Y-9013998D01*
X13970321Y-9024498D01*
X13945671Y-9040970D01*
X13927061Y-9044671D01*
X13913186Y-9051142D01*
X13858026Y-9058403D01*
X13850000Y-9060000D01*
X12650000Y-9060000D01*
X12641973Y-9058403D01*
X12586813Y-9051142D01*
X12572936Y-9044671D01*
X12554329Y-9040970D01*
X12529680Y-9024500D01*
X12507158Y-9013998D01*
X12493456Y-9000296D01*
X12473223Y-8986777D01*
X12459703Y-8966543D01*
X12446001Y-8952841D01*
X12435497Y-8930316D01*
X12419030Y-8905671D01*
X12415329Y-8887065D01*
X12408857Y-8873186D01*
X12401593Y-8818012D01*
X12400000Y-8810000D01*
X12400000Y-7610000D01*
X12401593Y-7601988D01*
X12408857Y-7546813D01*
X12415329Y-7532932D01*
X12419030Y-7514329D01*
X12435496Y-7489685D01*
X12446001Y-7467158D01*
X12459705Y-7453453D01*
X12473223Y-7433223D01*
X12493453Y-7419705D01*
X12507158Y-7406001D01*
X12529685Y-7395496D01*
X12554329Y-7379030D01*
X12572932Y-7375329D01*
X12586813Y-7368857D01*
X12641989Y-7361593D01*
X12650000Y-7360000D01*
X13850000Y-7360000D01*
X13858013Y-7361594D01*
G37*
G36*
X10956742Y-7396601D02*
G01*
X11110687Y-7460367D01*
X11249234Y-7552941D01*
X11367059Y-7670766D01*
X11459633Y-7809313D01*
X11523399Y-7963258D01*
X11555907Y-8126685D01*
X11555907Y-8293315D01*
X11523399Y-8456742D01*
X11459633Y-8610687D01*
X11367059Y-8749234D01*
X11249234Y-8867059D01*
X11110687Y-8959633D01*
X10956742Y-9023399D01*
X10793315Y-9055907D01*
X10626685Y-9055907D01*
X10463258Y-9023399D01*
X10309313Y-8959633D01*
X10170766Y-8867059D01*
X10052941Y-8749234D01*
X9960367Y-8610687D01*
X9896601Y-8456742D01*
X9864093Y-8293315D01*
X9864093Y-8126685D01*
X9896601Y-7963258D01*
X9960367Y-7809313D01*
X10052941Y-7670766D01*
X10170766Y-7552941D01*
X10309313Y-7460367D01*
X10463258Y-7396601D01*
X10626685Y-7364093D01*
X10793315Y-7364093D01*
X10956742Y-7396601D01*
G37*
G36*
X21965313Y-7326007D02*
G01*
X22012339Y-7331463D01*
X22028406Y-7338557D01*
X22051137Y-7343079D01*
X22075472Y-7359339D01*
X22093860Y-7367458D01*
X22106417Y-7380015D01*
X22128188Y-7394562D01*
X22142734Y-7416332D01*
X22155291Y-7428889D01*
X22163409Y-7447275D01*
X22179671Y-7471613D01*
X22184192Y-7494345D01*
X22191286Y-7510410D01*
X22196740Y-7557425D01*
X22197750Y-7562500D01*
X22197750Y-8162500D01*
X22196740Y-8167575D01*
X22191286Y-8214589D01*
X22184193Y-8230652D01*
X22179671Y-8253387D01*
X22163408Y-8277726D01*
X22155291Y-8296110D01*
X22142736Y-8308664D01*
X22128188Y-8330438D01*
X22106414Y-8344986D01*
X22093860Y-8357541D01*
X22075476Y-8365658D01*
X22051137Y-8381921D01*
X22028402Y-8386443D01*
X22012339Y-8393536D01*
X21965325Y-8398990D01*
X21960250Y-8400000D01*
X21485250Y-8400000D01*
X21480175Y-8398990D01*
X21433160Y-8393536D01*
X21417095Y-8386442D01*
X21394363Y-8381921D01*
X21370025Y-8365659D01*
X21351639Y-8357541D01*
X21339082Y-8344984D01*
X21317312Y-8330438D01*
X21302765Y-8308667D01*
X21290208Y-8296110D01*
X21282089Y-8277722D01*
X21265829Y-8253387D01*
X21261307Y-8230656D01*
X21254213Y-8214589D01*
X21248757Y-8167563D01*
X21247750Y-8162500D01*
X21247750Y-7562500D01*
X21248756Y-7557438D01*
X21254213Y-7510410D01*
X21261307Y-7494341D01*
X21265829Y-7471613D01*
X21282087Y-7447279D01*
X21290208Y-7428889D01*
X21302767Y-7416329D01*
X21317312Y-7394562D01*
X21339079Y-7380017D01*
X21351639Y-7367458D01*
X21370029Y-7359337D01*
X21394363Y-7343079D01*
X21417091Y-7338557D01*
X21433160Y-7331463D01*
X21480188Y-7326006D01*
X21485250Y-7325000D01*
X21960250Y-7325000D01*
X21965313Y-7326007D01*
G37*
G36*
X15992563Y-6326007D02*
G01*
X16039589Y-6331463D01*
X16055656Y-6338557D01*
X16078387Y-6343079D01*
X16102722Y-6359339D01*
X16121110Y-6367458D01*
X16133667Y-6380015D01*
X16155438Y-6394562D01*
X16169984Y-6416332D01*
X16182541Y-6428889D01*
X16190659Y-6447275D01*
X16206921Y-6471613D01*
X16211442Y-6494345D01*
X16218536Y-6510410D01*
X16223990Y-6557425D01*
X16225000Y-6562500D01*
X16225000Y-7162500D01*
X16223990Y-7167575D01*
X16218536Y-7214589D01*
X16211443Y-7230652D01*
X16206921Y-7253387D01*
X16190658Y-7277726D01*
X16182541Y-7296110D01*
X16169986Y-7308664D01*
X16155438Y-7330438D01*
X16133664Y-7344986D01*
X16121110Y-7357541D01*
X16102726Y-7365658D01*
X16078387Y-7381921D01*
X16055652Y-7386443D01*
X16039589Y-7393536D01*
X15992575Y-7398990D01*
X15987500Y-7400000D01*
X15512500Y-7400000D01*
X15507425Y-7398990D01*
X15460410Y-7393536D01*
X15444345Y-7386442D01*
X15421613Y-7381921D01*
X15397275Y-7365659D01*
X15378889Y-7357541D01*
X15366332Y-7344984D01*
X15344562Y-7330438D01*
X15330015Y-7308667D01*
X15317458Y-7296110D01*
X15309339Y-7277722D01*
X15293079Y-7253387D01*
X15288557Y-7230656D01*
X15281463Y-7214589D01*
X15276007Y-7167563D01*
X15275000Y-7162500D01*
X15275000Y-6562500D01*
X15276006Y-6557438D01*
X15281463Y-6510410D01*
X15288557Y-6494341D01*
X15293079Y-6471613D01*
X15309337Y-6447279D01*
X15317458Y-6428889D01*
X15330017Y-6416329D01*
X15344562Y-6394562D01*
X15366329Y-6380017D01*
X15378889Y-6367458D01*
X15397279Y-6359337D01*
X15421613Y-6343079D01*
X15444341Y-6338557D01*
X15460410Y-6331463D01*
X15507438Y-6326006D01*
X15512500Y-6325000D01*
X15987500Y-6325000D01*
X15992563Y-6326007D01*
G37*
G36*
X21965313Y-5601007D02*
G01*
X22012339Y-5606463D01*
X22028406Y-5613557D01*
X22051137Y-5618079D01*
X22075472Y-5634339D01*
X22093860Y-5642458D01*
X22106417Y-5655015D01*
X22128188Y-5669562D01*
X22142734Y-5691332D01*
X22155291Y-5703889D01*
X22163409Y-5722275D01*
X22179671Y-5746613D01*
X22184192Y-5769345D01*
X22191286Y-5785410D01*
X22196740Y-5832425D01*
X22197750Y-5837500D01*
X22197750Y-6437500D01*
X22196740Y-6442575D01*
X22191286Y-6489589D01*
X22184193Y-6505652D01*
X22179671Y-6528387D01*
X22163408Y-6552726D01*
X22155291Y-6571110D01*
X22142736Y-6583664D01*
X22128188Y-6605438D01*
X22106414Y-6619986D01*
X22093860Y-6632541D01*
X22075476Y-6640658D01*
X22051137Y-6656921D01*
X22028402Y-6661443D01*
X22012339Y-6668536D01*
X21965325Y-6673990D01*
X21960250Y-6675000D01*
X21485250Y-6675000D01*
X21480175Y-6673990D01*
X21433160Y-6668536D01*
X21417095Y-6661442D01*
X21394363Y-6656921D01*
X21370025Y-6640659D01*
X21351639Y-6632541D01*
X21339082Y-6619984D01*
X21317312Y-6605438D01*
X21302765Y-6583667D01*
X21290208Y-6571110D01*
X21282089Y-6552722D01*
X21265829Y-6528387D01*
X21261307Y-6505656D01*
X21254213Y-6489589D01*
X21248757Y-6442563D01*
X21247750Y-6437500D01*
X21247750Y-5837500D01*
X21248756Y-5832438D01*
X21254213Y-5785410D01*
X21261307Y-5769341D01*
X21265829Y-5746613D01*
X21282087Y-5722279D01*
X21290208Y-5703889D01*
X21302767Y-5691329D01*
X21317312Y-5669562D01*
X21339079Y-5655017D01*
X21351639Y-5642458D01*
X21370029Y-5634337D01*
X21394363Y-5618079D01*
X21417091Y-5613557D01*
X21433160Y-5606463D01*
X21480188Y-5601006D01*
X21485250Y-5600000D01*
X21960250Y-5600000D01*
X21965313Y-5601007D01*
G37*
G36*
X33985063Y-5626007D02*
G01*
X34032089Y-5631463D01*
X34048156Y-5638557D01*
X34070887Y-5643079D01*
X34095222Y-5659339D01*
X34113610Y-5667458D01*
X34126167Y-5680015D01*
X34147938Y-5694562D01*
X34162484Y-5716332D01*
X34175041Y-5728889D01*
X34183159Y-5747275D01*
X34199421Y-5771613D01*
X34203942Y-5794345D01*
X34211036Y-5810410D01*
X34216490Y-5857425D01*
X34217500Y-5862500D01*
X34217500Y-6337500D01*
X34216490Y-6342575D01*
X34211036Y-6389589D01*
X34203943Y-6405652D01*
X34199421Y-6428387D01*
X34183158Y-6452726D01*
X34175041Y-6471110D01*
X34162486Y-6483664D01*
X34147938Y-6505438D01*
X34126164Y-6519986D01*
X34113610Y-6532541D01*
X34095226Y-6540658D01*
X34070887Y-6556921D01*
X34048152Y-6561443D01*
X34032089Y-6568536D01*
X33985075Y-6573990D01*
X33980000Y-6575000D01*
X33380000Y-6575000D01*
X33374925Y-6573990D01*
X33327910Y-6568536D01*
X33311845Y-6561442D01*
X33289113Y-6556921D01*
X33264775Y-6540659D01*
X33246389Y-6532541D01*
X33233832Y-6519984D01*
X33212062Y-6505438D01*
X33197515Y-6483667D01*
X33184958Y-6471110D01*
X33176839Y-6452722D01*
X33160579Y-6428387D01*
X33156057Y-6405656D01*
X33148963Y-6389589D01*
X33143507Y-6342563D01*
X33142500Y-6337500D01*
X33142500Y-5862500D01*
X33143506Y-5857438D01*
X33148963Y-5810410D01*
X33156057Y-5794341D01*
X33160579Y-5771613D01*
X33176837Y-5747279D01*
X33184958Y-5728889D01*
X33197517Y-5716329D01*
X33212062Y-5694562D01*
X33233829Y-5680017D01*
X33246389Y-5667458D01*
X33264779Y-5659337D01*
X33289113Y-5643079D01*
X33311841Y-5638557D01*
X33327910Y-5631463D01*
X33374938Y-5626006D01*
X33380000Y-5625000D01*
X33980000Y-5625000D01*
X33985063Y-5626007D01*
G37*
G36*
X35710063Y-5626007D02*
G01*
X35757089Y-5631463D01*
X35773156Y-5638557D01*
X35795887Y-5643079D01*
X35820222Y-5659339D01*
X35838610Y-5667458D01*
X35851167Y-5680015D01*
X35872938Y-5694562D01*
X35887484Y-5716332D01*
X35900041Y-5728889D01*
X35908159Y-5747275D01*
X35924421Y-5771613D01*
X35928942Y-5794345D01*
X35936036Y-5810410D01*
X35941490Y-5857425D01*
X35942500Y-5862500D01*
X35942500Y-6337500D01*
X35941490Y-6342575D01*
X35936036Y-6389589D01*
X35928943Y-6405652D01*
X35924421Y-6428387D01*
X35908158Y-6452726D01*
X35900041Y-6471110D01*
X35887486Y-6483664D01*
X35872938Y-6505438D01*
X35851164Y-6519986D01*
X35838610Y-6532541D01*
X35820226Y-6540658D01*
X35795887Y-6556921D01*
X35773152Y-6561443D01*
X35757089Y-6568536D01*
X35710075Y-6573990D01*
X35705000Y-6575000D01*
X35105000Y-6575000D01*
X35099925Y-6573990D01*
X35052910Y-6568536D01*
X35036845Y-6561442D01*
X35014113Y-6556921D01*
X34989775Y-6540659D01*
X34971389Y-6532541D01*
X34958832Y-6519984D01*
X34937062Y-6505438D01*
X34922515Y-6483667D01*
X34909958Y-6471110D01*
X34901839Y-6452722D01*
X34885579Y-6428387D01*
X34881057Y-6405656D01*
X34873963Y-6389589D01*
X34868507Y-6342563D01*
X34867500Y-6337500D01*
X34867500Y-5862500D01*
X34868506Y-5857438D01*
X34873963Y-5810410D01*
X34881057Y-5794341D01*
X34885579Y-5771613D01*
X34901837Y-5747279D01*
X34909958Y-5728889D01*
X34922517Y-5716329D01*
X34937062Y-5694562D01*
X34958829Y-5680017D01*
X34971389Y-5667458D01*
X34989779Y-5659337D01*
X35014113Y-5643079D01*
X35036841Y-5638557D01*
X35052910Y-5631463D01*
X35099938Y-5626006D01*
X35105000Y-5625000D01*
X35705000Y-5625000D01*
X35710063Y-5626007D01*
G37*
G36*
X23679162Y-5528182D02*
G01*
X23726188Y-5533638D01*
X23742255Y-5540732D01*
X23764986Y-5545254D01*
X23789321Y-5561514D01*
X23807709Y-5569633D01*
X23820266Y-5582190D01*
X23842037Y-5596737D01*
X23856583Y-5618507D01*
X23869140Y-5631064D01*
X23877258Y-5649450D01*
X23893520Y-5673788D01*
X23898041Y-5696520D01*
X23905135Y-5712585D01*
X23910589Y-5759600D01*
X23911599Y-5764675D01*
X23911599Y-6239675D01*
X23910589Y-6244750D01*
X23905135Y-6291764D01*
X23898042Y-6307827D01*
X23893520Y-6330562D01*
X23877257Y-6354901D01*
X23869140Y-6373285D01*
X23856585Y-6385839D01*
X23842037Y-6407613D01*
X23820263Y-6422161D01*
X23807709Y-6434716D01*
X23789325Y-6442833D01*
X23764986Y-6459096D01*
X23742251Y-6463618D01*
X23726188Y-6470711D01*
X23679174Y-6476165D01*
X23674099Y-6477175D01*
X23174099Y-6477175D01*
X23169024Y-6476165D01*
X23122009Y-6470711D01*
X23105944Y-6463617D01*
X23083212Y-6459096D01*
X23058874Y-6442834D01*
X23040488Y-6434716D01*
X23027931Y-6422159D01*
X23006161Y-6407613D01*
X22991614Y-6385842D01*
X22979057Y-6373285D01*
X22970938Y-6354897D01*
X22954678Y-6330562D01*
X22950156Y-6307831D01*
X22943062Y-6291764D01*
X22937606Y-6244738D01*
X22936599Y-6239675D01*
X22936599Y-5764675D01*
X22937605Y-5759613D01*
X22943062Y-5712585D01*
X22950156Y-5696516D01*
X22954678Y-5673788D01*
X22970936Y-5649454D01*
X22979057Y-5631064D01*
X22991616Y-5618504D01*
X23006161Y-5596737D01*
X23027928Y-5582192D01*
X23040488Y-5569633D01*
X23058878Y-5561512D01*
X23083212Y-5545254D01*
X23105940Y-5540732D01*
X23122009Y-5533638D01*
X23169037Y-5528181D01*
X23174099Y-5527175D01*
X23674099Y-5527175D01*
X23679162Y-5528182D01*
G37*
G36*
X25504162Y-5528182D02*
G01*
X25551188Y-5533638D01*
X25567255Y-5540732D01*
X25589986Y-5545254D01*
X25614321Y-5561514D01*
X25632709Y-5569633D01*
X25645266Y-5582190D01*
X25667037Y-5596737D01*
X25681583Y-5618507D01*
X25694140Y-5631064D01*
X25702258Y-5649450D01*
X25718520Y-5673788D01*
X25723041Y-5696520D01*
X25730135Y-5712585D01*
X25735589Y-5759600D01*
X25736599Y-5764675D01*
X25736599Y-6239675D01*
X25735589Y-6244750D01*
X25730135Y-6291764D01*
X25723042Y-6307827D01*
X25718520Y-6330562D01*
X25702257Y-6354901D01*
X25694140Y-6373285D01*
X25681585Y-6385839D01*
X25667037Y-6407613D01*
X25645263Y-6422161D01*
X25632709Y-6434716D01*
X25614325Y-6442833D01*
X25589986Y-6459096D01*
X25567251Y-6463618D01*
X25551188Y-6470711D01*
X25504174Y-6476165D01*
X25499099Y-6477175D01*
X24999099Y-6477175D01*
X24994024Y-6476165D01*
X24947009Y-6470711D01*
X24930944Y-6463617D01*
X24908212Y-6459096D01*
X24883874Y-6442834D01*
X24865488Y-6434716D01*
X24852931Y-6422159D01*
X24831161Y-6407613D01*
X24816614Y-6385842D01*
X24804057Y-6373285D01*
X24795938Y-6354897D01*
X24779678Y-6330562D01*
X24775156Y-6307831D01*
X24768062Y-6291764D01*
X24762606Y-6244738D01*
X24761599Y-6239675D01*
X24761599Y-5764675D01*
X24762605Y-5759613D01*
X24768062Y-5712585D01*
X24775156Y-5696516D01*
X24779678Y-5673788D01*
X24795936Y-5649454D01*
X24804057Y-5631064D01*
X24816616Y-5618504D01*
X24831161Y-5596737D01*
X24852928Y-5582192D01*
X24865488Y-5569633D01*
X24883878Y-5561512D01*
X24908212Y-5545254D01*
X24930940Y-5540732D01*
X24947009Y-5533638D01*
X24994037Y-5528181D01*
X24999099Y-5527175D01*
X25499099Y-5527175D01*
X25504162Y-5528182D01*
G37*
G36*
X42242563Y-4826007D02*
G01*
X42289589Y-4831463D01*
X42305656Y-4838557D01*
X42328387Y-4843079D01*
X42352722Y-4859339D01*
X42371110Y-4867458D01*
X42383667Y-4880015D01*
X42405438Y-4894562D01*
X42419984Y-4916332D01*
X42432541Y-4928889D01*
X42440659Y-4947275D01*
X42456921Y-4971613D01*
X42461442Y-4994345D01*
X42468536Y-5010410D01*
X42473990Y-5057425D01*
X42475000Y-5062500D01*
X42475000Y-5662500D01*
X42473990Y-5667575D01*
X42468536Y-5714589D01*
X42461443Y-5730652D01*
X42456921Y-5753387D01*
X42440658Y-5777726D01*
X42432541Y-5796110D01*
X42419986Y-5808664D01*
X42405438Y-5830438D01*
X42383664Y-5844986D01*
X42371110Y-5857541D01*
X42352726Y-5865658D01*
X42328387Y-5881921D01*
X42305652Y-5886443D01*
X42289589Y-5893536D01*
X42242575Y-5898990D01*
X42237500Y-5900000D01*
X41762500Y-5900000D01*
X41757425Y-5898990D01*
X41710410Y-5893536D01*
X41694345Y-5886442D01*
X41671613Y-5881921D01*
X41647275Y-5865659D01*
X41628889Y-5857541D01*
X41616332Y-5844984D01*
X41594562Y-5830438D01*
X41580015Y-5808667D01*
X41567458Y-5796110D01*
X41559339Y-5777722D01*
X41543079Y-5753387D01*
X41538557Y-5730656D01*
X41531463Y-5714589D01*
X41526007Y-5667563D01*
X41525000Y-5662500D01*
X41525000Y-5062500D01*
X41526006Y-5057438D01*
X41531463Y-5010410D01*
X41538557Y-4994341D01*
X41543079Y-4971613D01*
X41559337Y-4947279D01*
X41567458Y-4928889D01*
X41580017Y-4916329D01*
X41594562Y-4894562D01*
X41616329Y-4880017D01*
X41628889Y-4867458D01*
X41647279Y-4859337D01*
X41671613Y-4843079D01*
X41694341Y-4838557D01*
X41710410Y-4831463D01*
X41757438Y-4826006D01*
X41762500Y-4825000D01*
X42237500Y-4825000D01*
X42242563Y-4826007D01*
G37*
G36*
X15992563Y-4601007D02*
G01*
X16039589Y-4606463D01*
X16055656Y-4613557D01*
X16078387Y-4618079D01*
X16102722Y-4634339D01*
X16121110Y-4642458D01*
X16133667Y-4655015D01*
X16155438Y-4669562D01*
X16169984Y-4691332D01*
X16182541Y-4703889D01*
X16190659Y-4722275D01*
X16206921Y-4746613D01*
X16211442Y-4769345D01*
X16218536Y-4785410D01*
X16223990Y-4832425D01*
X16225000Y-4837500D01*
X16225000Y-5437500D01*
X16223990Y-5442575D01*
X16218536Y-5489589D01*
X16211443Y-5505652D01*
X16206921Y-5528387D01*
X16190658Y-5552726D01*
X16182541Y-5571110D01*
X16169986Y-5583664D01*
X16155438Y-5605438D01*
X16133664Y-5619986D01*
X16121110Y-5632541D01*
X16102726Y-5640658D01*
X16078387Y-5656921D01*
X16055652Y-5661443D01*
X16039589Y-5668536D01*
X15992575Y-5673990D01*
X15987500Y-5675000D01*
X15512500Y-5675000D01*
X15507425Y-5673990D01*
X15460410Y-5668536D01*
X15444345Y-5661442D01*
X15421613Y-5656921D01*
X15397275Y-5640659D01*
X15378889Y-5632541D01*
X15366332Y-5619984D01*
X15344562Y-5605438D01*
X15330015Y-5583667D01*
X15317458Y-5571110D01*
X15309339Y-5552722D01*
X15293079Y-5528387D01*
X15288557Y-5505656D01*
X15281463Y-5489589D01*
X15276007Y-5442563D01*
X15275000Y-5437500D01*
X15275000Y-4837500D01*
X15276006Y-4832438D01*
X15281463Y-4785410D01*
X15288557Y-4769341D01*
X15293079Y-4746613D01*
X15309337Y-4722279D01*
X15317458Y-4703889D01*
X15330017Y-4691329D01*
X15344562Y-4669562D01*
X15366329Y-4655017D01*
X15378889Y-4642458D01*
X15397279Y-4634337D01*
X15421613Y-4618079D01*
X15444341Y-4613557D01*
X15460410Y-4606463D01*
X15507438Y-4601006D01*
X15512500Y-4600000D01*
X15987500Y-4600000D01*
X15992563Y-4601007D01*
G37*
G36*
X45967714Y-4152295D02*
G01*
X46103548Y-4208559D01*
X46225795Y-4290242D01*
X46329758Y-4394205D01*
X46411441Y-4516452D01*
X46467705Y-4652286D01*
X46496389Y-4796487D01*
X46496389Y-4943513D01*
X46467705Y-5087714D01*
X46411441Y-5223548D01*
X46329758Y-5345795D01*
X46225795Y-5449758D01*
X46103548Y-5531441D01*
X45967714Y-5587705D01*
X45823513Y-5616389D01*
X45676487Y-5616389D01*
X45532286Y-5587705D01*
X45396452Y-5531441D01*
X45274205Y-5449758D01*
X45170242Y-5345795D01*
X45088559Y-5223548D01*
X45032295Y-5087714D01*
X45003611Y-4943513D01*
X45003611Y-4796487D01*
X45032295Y-4652286D01*
X45088559Y-4516452D01*
X45170242Y-4394205D01*
X45274205Y-4290242D01*
X45396452Y-4208559D01*
X45532286Y-4152295D01*
X45676487Y-4123611D01*
X45823513Y-4123611D01*
X45967714Y-4152295D01*
G37*
G36*
X25092563Y-4026007D02*
G01*
X25139589Y-4031463D01*
X25155656Y-4038557D01*
X25178387Y-4043079D01*
X25202722Y-4059339D01*
X25221110Y-4067458D01*
X25233667Y-4080015D01*
X25255438Y-4094562D01*
X25269984Y-4116332D01*
X25282541Y-4128889D01*
X25290659Y-4147275D01*
X25306921Y-4171613D01*
X25311442Y-4194345D01*
X25318536Y-4210410D01*
X25323990Y-4257425D01*
X25325000Y-4262500D01*
X25325000Y-4737500D01*
X25323990Y-4742575D01*
X25318536Y-4789589D01*
X25311443Y-4805652D01*
X25306921Y-4828387D01*
X25290658Y-4852726D01*
X25282541Y-4871110D01*
X25269986Y-4883664D01*
X25255438Y-4905438D01*
X25233664Y-4919986D01*
X25221110Y-4932541D01*
X25202726Y-4940658D01*
X25178387Y-4956921D01*
X25155652Y-4961443D01*
X25139589Y-4968536D01*
X25092575Y-4973990D01*
X25087500Y-4975000D01*
X24487500Y-4975000D01*
X24482425Y-4973990D01*
X24435410Y-4968536D01*
X24419345Y-4961442D01*
X24396613Y-4956921D01*
X24372275Y-4940659D01*
X24353889Y-4932541D01*
X24341332Y-4919984D01*
X24319562Y-4905438D01*
X24305015Y-4883667D01*
X24292458Y-4871110D01*
X24284339Y-4852722D01*
X24268079Y-4828387D01*
X24263557Y-4805656D01*
X24256463Y-4789589D01*
X24251007Y-4742563D01*
X24250000Y-4737500D01*
X24250000Y-4262500D01*
X24251006Y-4257438D01*
X24256463Y-4210410D01*
X24263557Y-4194341D01*
X24268079Y-4171613D01*
X24284337Y-4147279D01*
X24292458Y-4128889D01*
X24305017Y-4116329D01*
X24319562Y-4094562D01*
X24341329Y-4080017D01*
X24353889Y-4067458D01*
X24372279Y-4059337D01*
X24396613Y-4043079D01*
X24419341Y-4038557D01*
X24435410Y-4031463D01*
X24482438Y-4026006D01*
X24487500Y-4025000D01*
X25087500Y-4025000D01*
X25092563Y-4026007D01*
G37*
G36*
X26817563Y-4026007D02*
G01*
X26864589Y-4031463D01*
X26880656Y-4038557D01*
X26903387Y-4043079D01*
X26927722Y-4059339D01*
X26946110Y-4067458D01*
X26958667Y-4080015D01*
X26980438Y-4094562D01*
X26994984Y-4116332D01*
X27007541Y-4128889D01*
X27015659Y-4147275D01*
X27031921Y-4171613D01*
X27036442Y-4194345D01*
X27043536Y-4210410D01*
X27048990Y-4257425D01*
X27050000Y-4262500D01*
X27050000Y-4737500D01*
X27048990Y-4742575D01*
X27043536Y-4789589D01*
X27036443Y-4805652D01*
X27031921Y-4828387D01*
X27015658Y-4852726D01*
X27007541Y-4871110D01*
X26994986Y-4883664D01*
X26980438Y-4905438D01*
X26958664Y-4919986D01*
X26946110Y-4932541D01*
X26927726Y-4940658D01*
X26903387Y-4956921D01*
X26880652Y-4961443D01*
X26864589Y-4968536D01*
X26817575Y-4973990D01*
X26812500Y-4975000D01*
X26212500Y-4975000D01*
X26207425Y-4973990D01*
X26160410Y-4968536D01*
X26144345Y-4961442D01*
X26121613Y-4956921D01*
X26097275Y-4940659D01*
X26078889Y-4932541D01*
X26066332Y-4919984D01*
X26044562Y-4905438D01*
X26030015Y-4883667D01*
X26017458Y-4871110D01*
X26009339Y-4852722D01*
X25993079Y-4828387D01*
X25988557Y-4805656D01*
X25981463Y-4789589D01*
X25976007Y-4742563D01*
X25975000Y-4737500D01*
X25975000Y-4262500D01*
X25976006Y-4257438D01*
X25981463Y-4210410D01*
X25988557Y-4194341D01*
X25993079Y-4171613D01*
X26009337Y-4147279D01*
X26017458Y-4128889D01*
X26030017Y-4116329D01*
X26044562Y-4094562D01*
X26066329Y-4080017D01*
X26078889Y-4067458D01*
X26097279Y-4059337D01*
X26121613Y-4043079D01*
X26144341Y-4038557D01*
X26160410Y-4031463D01*
X26207438Y-4026006D01*
X26212500Y-4025000D01*
X26812500Y-4025000D01*
X26817563Y-4026007D01*
G37*
G36*
X34667000Y-3729064D02*
G01*
X34786775Y-3761157D01*
X34894162Y-3823157D01*
X34981843Y-3910838D01*
X35043843Y-4018225D01*
X35075936Y-4138000D01*
X35075936Y-4262000D01*
X35043843Y-4381775D01*
X34981843Y-4489162D01*
X34894162Y-4576843D01*
X34786775Y-4638843D01*
X34667000Y-4670936D01*
X34605000Y-4675000D01*
X34602958Y-4675000D01*
X34307042Y-4675000D01*
X34305000Y-4675000D01*
X34243000Y-4670936D01*
X34123225Y-4638843D01*
X34015838Y-4576843D01*
X33928157Y-4489162D01*
X33866157Y-4381775D01*
X33834064Y-4262000D01*
X33834064Y-4138000D01*
X33866157Y-4018225D01*
X33928157Y-3910838D01*
X34015838Y-3823157D01*
X34123225Y-3761157D01*
X34243000Y-3729064D01*
X34305000Y-3725000D01*
X34605000Y-3725000D01*
X34667000Y-3729064D01*
G37*
G36*
X39667000Y-3729064D02*
G01*
X39786775Y-3761157D01*
X39894162Y-3823157D01*
X39981843Y-3910838D01*
X40043843Y-4018225D01*
X40075936Y-4138000D01*
X40075936Y-4262000D01*
X40043843Y-4381775D01*
X39981843Y-4489162D01*
X39894162Y-4576843D01*
X39786775Y-4638843D01*
X39667000Y-4670936D01*
X39605000Y-4675000D01*
X39602958Y-4675000D01*
X39307042Y-4675000D01*
X39305000Y-4675000D01*
X39243000Y-4670936D01*
X39123225Y-4638843D01*
X39015838Y-4576843D01*
X38928157Y-4489162D01*
X38866157Y-4381775D01*
X38834064Y-4262000D01*
X38834064Y-4138000D01*
X38866157Y-4018225D01*
X38928157Y-3910838D01*
X39015838Y-3823157D01*
X39123225Y-3761157D01*
X39243000Y-3729064D01*
X39305000Y-3725000D01*
X39605000Y-3725000D01*
X39667000Y-3729064D01*
G37*
G36*
X42242563Y-3101007D02*
G01*
X42289589Y-3106463D01*
X42305656Y-3113557D01*
X42328387Y-3118079D01*
X42352722Y-3134339D01*
X42371110Y-3142458D01*
X42383667Y-3155015D01*
X42405438Y-3169562D01*
X42419984Y-3191332D01*
X42432541Y-3203889D01*
X42440659Y-3222275D01*
X42456921Y-3246613D01*
X42461442Y-3269345D01*
X42468536Y-3285410D01*
X42473990Y-3332425D01*
X42475000Y-3337500D01*
X42475000Y-3937500D01*
X42473990Y-3942575D01*
X42468536Y-3989589D01*
X42461443Y-4005652D01*
X42456921Y-4028387D01*
X42440658Y-4052726D01*
X42432541Y-4071110D01*
X42419986Y-4083664D01*
X42405438Y-4105438D01*
X42383664Y-4119986D01*
X42371110Y-4132541D01*
X42352726Y-4140658D01*
X42328387Y-4156921D01*
X42305652Y-4161443D01*
X42289589Y-4168536D01*
X42242575Y-4173990D01*
X42237500Y-4175000D01*
X41762500Y-4175000D01*
X41757425Y-4173990D01*
X41710410Y-4168536D01*
X41694345Y-4161442D01*
X41671613Y-4156921D01*
X41647275Y-4140659D01*
X41628889Y-4132541D01*
X41616332Y-4119984D01*
X41594562Y-4105438D01*
X41580015Y-4083667D01*
X41567458Y-4071110D01*
X41559339Y-4052722D01*
X41543079Y-4028387D01*
X41538557Y-4005656D01*
X41531463Y-3989589D01*
X41526007Y-3942563D01*
X41525000Y-3937500D01*
X41525000Y-3337500D01*
X41526006Y-3332438D01*
X41531463Y-3285410D01*
X41538557Y-3269341D01*
X41543079Y-3246613D01*
X41559337Y-3222279D01*
X41567458Y-3203889D01*
X41580017Y-3191329D01*
X41594562Y-3169562D01*
X41616329Y-3155017D01*
X41628889Y-3142458D01*
X41647279Y-3134337D01*
X41671613Y-3118079D01*
X41694341Y-3113557D01*
X41710410Y-3106463D01*
X41757438Y-3101006D01*
X41762500Y-3100000D01*
X42237500Y-3100000D01*
X42242563Y-3101007D01*
G37*
%LPD*%
M02*
