%TF.GenerationSoftware,KiCad,Pcbnew,10.0.0*%
%TF.CreationDate,2026-04-17T03:24:38+02:00*%
%TF.ProjectId,bios-programmer-ch341a,62696f73-2d70-4726-9f67-72616d6d6572,rev?*%
%TF.SameCoordinates,PX2625a00PY1c9c380*%
%TF.FileFunction,Copper,L2,Bot*%
%TF.FilePolarity,Positive*%
%FSLAX46Y46*%
G04 Gerber Fmt 4.6, Leading zero omitted, Abs format (unit mm)*
G04 Created by KiCad (PCBNEW 10.0.0) date 2026-04-17 03:24:38*
%MOMM*%
%LPD*%
G01*
G04 APERTURE LIST*
G04 Aperture macros list*
%AMRoundRect*
0 Rectangle with rounded corners*
0 $1 Rounding radius*
0 $2 $3 $4 $5 $6 $7 $8 $9 X,Y pos of 4 corners*
0 Add a 4 corners polygon primitive as box body*
4,1,4,$2,$3,$4,$5,$6,$7,$8,$9,$2,$3,0*
0 Add four circle primitives for the rounded corners*
1,1,$1+$1,$2,$3*
1,1,$1+$1,$4,$5*
1,1,$1+$1,$6,$7*
1,1,$1+$1,$8,$9*
0 Add four rect primitives between the rounded corners*
20,1,$1+$1,$2,$3,$4,$5,0*
20,1,$1+$1,$4,$5,$6,$7,0*
20,1,$1+$1,$6,$7,$8,$9,0*
20,1,$1+$1,$8,$9,$2,$3,0*%
G04 Aperture macros list end*
%TA.AperFunction,ComponentPad*%
%ADD10O,0.900000X1.550000*%
%TD*%
%TA.AperFunction,ComponentPad*%
%ADD11O,1.250000X0.950000*%
%TD*%
%TA.AperFunction,WasherPad*%
%ADD12C,1.700000*%
%TD*%
%TA.AperFunction,ComponentPad*%
%ADD13C,3.500000*%
%TD*%
%TA.AperFunction,ComponentPad*%
%ADD14RoundRect,0.250000X-0.550000X0.550000X-0.550000X-0.550000X0.550000X-0.550000X0.550000X0.550000X0*%
%TD*%
%TA.AperFunction,ComponentPad*%
%ADD15C,1.600000*%
%TD*%
%TA.AperFunction,ComponentPad*%
%ADD16C,1.500000*%
%TD*%
%TA.AperFunction,SMDPad,CuDef*%
%ADD17RoundRect,0.150000X0.825000X0.150000X-0.825000X0.150000X-0.825000X-0.150000X0.825000X-0.150000X0*%
%TD*%
%TA.AperFunction,ComponentPad*%
%ADD18RoundRect,0.250000X-0.600000X-0.600000X0.600000X-0.600000X0.600000X0.600000X-0.600000X0.600000X0*%
%TD*%
%TA.AperFunction,ComponentPad*%
%ADD19C,1.700000*%
%TD*%
%TA.AperFunction,SMDPad,CuDef*%
%ADD20RoundRect,0.237500X-0.300000X-0.237500X0.300000X-0.237500X0.300000X0.237500X-0.300000X0.237500X0*%
%TD*%
%TA.AperFunction,SMDPad,CuDef*%
%ADD21RoundRect,0.150000X-0.150000X0.875000X-0.150000X-0.875000X0.150000X-0.875000X0.150000X0.875000X0*%
%TD*%
%TA.AperFunction,SMDPad,CuDef*%
%ADD22RoundRect,0.250000X0.650000X-0.412500X0.650000X0.412500X-0.650000X0.412500X-0.650000X-0.412500X0*%
%TD*%
%TA.AperFunction,SMDPad,CuDef*%
%ADD23RoundRect,0.237500X0.250000X0.237500X-0.250000X0.237500X-0.250000X-0.237500X0.250000X-0.237500X0*%
%TD*%
%TA.AperFunction,SMDPad,CuDef*%
%ADD24RoundRect,0.237500X-0.237500X0.300000X-0.237500X-0.300000X0.237500X-0.300000X0.237500X0.300000X0*%
%TD*%
%TA.AperFunction,ComponentPad*%
%ADD25RoundRect,0.250000X0.600000X0.600000X-0.600000X0.600000X-0.600000X-0.600000X0.600000X-0.600000X0*%
%TD*%
%TA.AperFunction,SMDPad,CuDef*%
%ADD26RoundRect,0.237500X0.237500X-0.300000X0.237500X0.300000X-0.237500X0.300000X-0.237500X-0.300000X0*%
%TD*%
%TA.AperFunction,SMDPad,CuDef*%
%ADD27RoundRect,0.237500X0.300000X0.237500X-0.300000X0.237500X-0.300000X-0.237500X0.300000X-0.237500X0*%
%TD*%
%TA.AperFunction,ViaPad*%
%ADD28C,0.600000*%
%TD*%
%TA.AperFunction,Conductor*%
%ADD29C,0.300000*%
%TD*%
%TA.AperFunction,Conductor*%
%ADD30C,0.400000*%
%TD*%
%TA.AperFunction,Conductor*%
%ADD31C,0.250000*%
%TD*%
%TA.AperFunction,Conductor*%
%ADD32C,1.550000*%
%TD*%
%TA.AperFunction,Conductor*%
%ADD33C,0.950000*%
%TD*%
%TA.AperFunction,Conductor*%
%ADD34C,1.900000*%
%TD*%
G04 APERTURE END LIST*
D10*
%TO.P,J1,SH,Shield_SH*%
%TO.N,GND*%
X40455000Y-1500000D03*
D11*
X39455000Y-4200000D03*
X34455000Y-4200000D03*
D10*
X33455000Y-1500000D03*
%TD*%
D12*
%TO.P,J4,*%
%TO.N,*%
X5920000Y-48360000D03*
X16080000Y-48360000D03*
X5920000Y-38200000D03*
X16080000Y-38200000D03*
D13*
%TO.P,J4,1,Pin_1_1*%
%TO.N,VDD*%
X11000000Y-42000000D03*
%TD*%
D14*
%TO.P,J6,1,Pin_1_1*%
%TO.N,/CS_I*%
X32050000Y-23500000D03*
D15*
%TO.P,J6,2,Pin_2_2*%
%TO.N,/MISO_I*%
X29510000Y-23500000D03*
%TO.P,J6,3,Pin_3_3*%
%TO.N,VDD*%
X26970000Y-23500000D03*
%TO.P,J6,4,Pin_4_4*%
%TO.N,GNDD*%
X24430000Y-23500000D03*
%TO.P,J6,5,Pin_5_5*%
X21890000Y-23500000D03*
%TO.P,J6,6,Pin_6_6*%
X19350000Y-23500000D03*
%TO.P,J6,7,Pin_7_7*%
X16810000Y-23500000D03*
%TO.P,J6,8,Pin_8_8*%
X14270000Y-23500000D03*
%TO.P,J6,9,Pin_9_9*%
%TO.N,/SDA_I*%
X14270000Y-31120000D03*
%TO.P,J6,10,Pin_10_10*%
%TO.N,/SCL_I*%
X16810000Y-31120000D03*
%TO.P,J6,11,Pin_11_11*%
%TO.N,GNDD*%
X19350000Y-31120000D03*
%TO.P,J6,12,Pin_12_12*%
%TO.N,VDD*%
X21890000Y-31120000D03*
%TO.P,J6,13,Pin_13_13*%
%TO.N,/MOSI_I*%
X24430000Y-31120000D03*
%TO.P,J6,14,Pin_14_14*%
%TO.N,/CLK_I*%
X26970000Y-31120000D03*
%TO.P,J6,15,Pin_15_15*%
%TO.N,VDD*%
X29510000Y-31120000D03*
%TO.P,J6,16,Pin_16_16*%
X32050000Y-31120000D03*
%TD*%
D12*
%TO.P,J5,*%
%TO.N,*%
X21920000Y-48360000D03*
X32080000Y-48360000D03*
X21920000Y-38200000D03*
X32080000Y-38200000D03*
D13*
%TO.P,J5,1,Pin_1_1*%
%TO.N,GNDD*%
X27000000Y-42000000D03*
%TD*%
D16*
%TO.P,Y1,1,1_1*%
%TO.N,Net-(U1-XO)*%
X45750000Y-9750000D03*
%TO.P,Y1,2,2_2*%
%TO.N,Net-(U1-XI)*%
X45750000Y-4870000D03*
%TD*%
D17*
%TO.P,U3,1,VCC1_1*%
%TO.N,VBUS*%
X21725000Y-10845000D03*
%TO.P,U3,2,SDA1_2*%
%TO.N,/SDA*%
X21725000Y-12115000D03*
%TO.P,U3,3,SCL1_3*%
%TO.N,/SCL*%
X21725000Y-13385000D03*
%TO.P,U3,4,GND1_4*%
%TO.N,GND*%
X21725000Y-14655000D03*
%TO.P,U3,5,GND2_5*%
%TO.N,GNDD*%
X16775000Y-14655000D03*
%TO.P,U3,6,SCL2_6*%
%TO.N,/SCL_I*%
X16775000Y-13385000D03*
%TO.P,U3,7,SDA2_7*%
%TO.N,/SDA_I*%
X16775000Y-12115000D03*
%TO.P,U3,8,VCC2_8*%
%TO.N,VDD*%
X16775000Y-10845000D03*
%TD*%
D18*
%TO.P,J7,1,Pin_1_1*%
%TO.N,/CS_I*%
X36750000Y-48000000D03*
D19*
%TO.P,J7,2,Pin_2_2*%
%TO.N,VDD*%
X39290000Y-48000000D03*
%TO.P,J7,3,Pin_3_3*%
%TO.N,/MISO_I*%
X36750000Y-45460000D03*
%TO.P,J7,4,Pin_4_4*%
%TO.N,VDD*%
X39290000Y-45460000D03*
%TO.P,J7,5,Pin_5_5*%
X36750000Y-42920000D03*
%TO.P,J7,6,Pin_6_6*%
%TO.N,/CLK_I*%
X39290000Y-42920000D03*
%TO.P,J7,7,Pin_7_7*%
%TO.N,GNDD*%
X36750000Y-40380000D03*
%TO.P,J7,8,Pin_8_8*%
%TO.N,/MOSI_I*%
X39290000Y-40380000D03*
%TD*%
D20*
%TO.P,C6,1*%
%TO.N,VBUS*%
X33680000Y-6100000D03*
%TO.P,C6,2*%
%TO.N,/V3*%
X35405000Y-6100000D03*
%TD*%
D21*
%TO.P,U1,1,~{ACT}_1*%
%TO.N,/ACT*%
X25245000Y-8350000D03*
%TO.P,U1,2,RSTI_2*%
%TO.N,Net-(U1-RSTI)*%
X26515000Y-8350000D03*
%TO.P,U1,3,IN7/~{SIN}/~{AS}_3*%
%TO.N,unconnected-(U1-IN7{slash}~{SIN}{slash}~{AS}-Pad3)*%
X27785000Y-8350000D03*
%TO.P,U1,4,~{ROV}/~{AFD}/~{DS}_4*%
%TO.N,unconnected-(U1-~{ROV}{slash}~{AFD}{slash}~{DS}-Pad4)*%
X29055000Y-8350000D03*
%TO.P,U1,5,TXD/~{ERR}_5*%
%TO.N,/TX*%
X30325000Y-8350000D03*
%TO.P,U1,6,RXD/PEMP_6*%
%TO.N,/RX*%
X31595000Y-8350000D03*
%TO.P,U1,7,~{INT}/~{ACK}_7*%
%TO.N,unconnected-(U1-~{INT}{slash}~{ACK}-Pad7)*%
X32865000Y-8350000D03*
%TO.P,U1,8,IN3/SLCT_8*%
%TO.N,unconnected-(U1-IN3{slash}SLCT-Pad8)*%
X34135000Y-8350000D03*
%TO.P,U1,9,V3_9*%
%TO.N,/V3*%
X35405000Y-8350000D03*
%TO.P,U1,10,UD+_10*%
%TO.N,/UD+*%
X36675000Y-8350000D03*
%TO.P,U1,11,UD-_11*%
%TO.N,/UD-*%
X37945000Y-8350000D03*
%TO.P,U1,12,GND_12*%
%TO.N,GND*%
X39215000Y-8350000D03*
%TO.P,U1,13,XI_13*%
%TO.N,Net-(U1-XI)*%
X40485000Y-8350000D03*
%TO.P,U1,14,XO_14*%
%TO.N,Net-(U1-XO)*%
X41755000Y-8350000D03*
%TO.P,U1,15,~{CTS}/D0_15*%
%TO.N,/CS*%
X41755000Y-17650000D03*
%TO.P,U1,16,~{DSR}/D1_16*%
%TO.N,unconnected-(U1-~{DSR}{slash}D1-Pad16)*%
X40485000Y-17650000D03*
%TO.P,U1,17,~{RI}/D2_17*%
%TO.N,unconnected-(U1-~{RI}{slash}D2-Pad17)*%
X39215000Y-17650000D03*
%TO.P,U1,18,~{DCD}/D3_18*%
%TO.N,/CLK*%
X37945000Y-17650000D03*
%TO.P,U1,19,~{OUT}/D4_19*%
%TO.N,unconnected-(U1-~{OUT}{slash}D4-Pad19)*%
X36675000Y-17650000D03*
%TO.P,U1,20,~{DTR}/D5_20*%
%TO.N,/MOSI*%
X35405000Y-17650000D03*
%TO.P,U1,21,~{RTS}/D6_21*%
%TO.N,unconnected-(U1-~{RTS}{slash}D6-Pad21)*%
X34135000Y-17650000D03*
%TO.P,U1,22,~{SLP}/D7_22*%
%TO.N,/MISO*%
X32865000Y-17650000D03*
%TO.P,U1,23,SDA_23*%
%TO.N,/SDA*%
X31595000Y-17650000D03*
%TO.P,U1,24,SCL_24*%
%TO.N,/SCL*%
X30325000Y-17650000D03*
%TO.P,U1,25,~{RDY}/~{STB}/~{WR}_25*%
%TO.N,unconnected-(U1-~{RDY}{slash}~{STB}{slash}~{WR}-Pad25)*%
X29055000Y-17650000D03*
%TO.P,U1,26,TNOW/~{INI}/~{RST}_26*%
%TO.N,unconnected-(U1-TNOW{slash}~{INI}{slash}~{RST}-Pad26)*%
X27785000Y-17650000D03*
%TO.P,U1,27,~{TEN}/BUSY/~{WT}_27*%
%TO.N,GND*%
X26515000Y-17650000D03*
%TO.P,U1,28,VCC_28*%
%TO.N,VBUS*%
X25245000Y-17650000D03*
%TD*%
D22*
%TO.P,C4,1*%
%TO.N,VBUS*%
X21500000Y-19717500D03*
%TO.P,C4,2*%
%TO.N,GND*%
X21500000Y-16592500D03*
%TD*%
D23*
%TO.P,R2,1*%
%TO.N,/ACT*%
X25249099Y-6002175D03*
%TO.P,R2,2*%
%TO.N,GND*%
X23424099Y-6002175D03*
%TD*%
D24*
%TO.P,C2,1*%
%TO.N,Net-(U1-XO)*%
X47000000Y-14275000D03*
%TO.P,C2,2*%
%TO.N,GND*%
X47000000Y-16000000D03*
%TD*%
D25*
%TO.P,J8,1,Pin_1_1*%
%TO.N,GNDD*%
X13250000Y-8210000D03*
D19*
%TO.P,J8,2,Pin_2_2*%
%TO.N,VDD*%
X10710000Y-8210000D03*
%TO.P,J8,3,Pin_3_3*%
%TO.N,GNDD*%
X13250000Y-10750000D03*
%TO.P,J8,4,Pin_4_4*%
X10710000Y-10750000D03*
%TO.P,J8,5,Pin_5_5*%
X13250000Y-13290000D03*
%TO.P,J8,6,Pin_6_6*%
%TO.N,/SCL_I*%
X10710000Y-13290000D03*
%TO.P,J8,7,Pin_7_7*%
%TO.N,GNDD*%
X13250000Y-15830000D03*
%TO.P,J8,8,Pin_8_8*%
%TO.N,/SDA_I*%
X10710000Y-15830000D03*
%TD*%
D21*
%TO.P,U2,1,V_{CC1}_1*%
%TO.N,VBUS*%
X37589173Y-22660000D03*
%TO.P,U2,2,GND1_2*%
%TO.N,GND*%
X38859173Y-22660000D03*
%TO.P,U2,3,INA_3*%
%TO.N,/MOSI*%
X40129173Y-22660000D03*
%TO.P,U2,4,INB_4*%
%TO.N,/CLK*%
X41399173Y-22660000D03*
%TO.P,U2,5,INC_5*%
%TO.N,/CS*%
X42669173Y-22660000D03*
%TO.P,U2,6,OUTD_6*%
%TO.N,/MISO*%
X43939173Y-22660000D03*
%TO.P,U2,7,EN1_7*%
%TO.N,unconnected-(U2-EN1-Pad7)*%
X45209173Y-22660000D03*
%TO.P,U2,8,GND1_8*%
%TO.N,GND*%
X46479173Y-22660000D03*
%TO.P,U2,9,GND2_9*%
%TO.N,GNDD*%
X46479173Y-31960000D03*
%TO.P,U2,10,EN2_10*%
%TO.N,unconnected-(U2-EN2-Pad10)*%
X45209173Y-31960000D03*
%TO.P,U2,11,IND_11*%
%TO.N,/MISO_I*%
X43939173Y-31960000D03*
%TO.P,U2,12,OUTC_12*%
%TO.N,/CS_I*%
X42669173Y-31960000D03*
%TO.P,U2,13,OUTB_13*%
%TO.N,/CLK_I*%
X41399173Y-31960000D03*
%TO.P,U2,14,OUTA_14*%
%TO.N,/MOSI_I*%
X40129173Y-31960000D03*
%TO.P,U2,15,GND2_15*%
%TO.N,GNDD*%
X38859173Y-31960000D03*
%TO.P,U2,16,V_{CC2}_16*%
%TO.N,VDD*%
X37589173Y-31960000D03*
%TD*%
D24*
%TO.P,C10,1*%
%TO.N,VDD*%
X15750000Y-5137500D03*
%TO.P,C10,2*%
%TO.N,GNDD*%
X15750000Y-6862500D03*
%TD*%
D26*
%TO.P,C1,1*%
%TO.N,Net-(U1-XI)*%
X42000000Y-5362500D03*
%TO.P,C1,2*%
%TO.N,GND*%
X42000000Y-3637500D03*
%TD*%
D27*
%TO.P,C3,1*%
%TO.N,Net-(U1-RSTI)*%
X26512500Y-4500000D03*
%TO.P,C3,2*%
%TO.N,/RST*%
X24787500Y-4500000D03*
%TD*%
D26*
%TO.P,C7,1*%
%TO.N,VBUS*%
X21722750Y-7862500D03*
%TO.P,C7,2*%
%TO.N,GND*%
X21722750Y-6137500D03*
%TD*%
%TO.P,C9,1*%
%TO.N,GNDD*%
X35500000Y-33725000D03*
%TO.P,C9,2*%
%TO.N,VDD*%
X35500000Y-32000000D03*
%TD*%
%TO.P,C8,1*%
%TO.N,VBUS*%
X35500000Y-22662500D03*
%TO.P,C8,2*%
%TO.N,GND*%
X35500000Y-20937500D03*
%TD*%
%TO.P,C5,1*%
%TO.N,VBUS*%
X23500000Y-19722500D03*
%TO.P,C5,2*%
%TO.N,GND*%
X23500000Y-17997500D03*
%TD*%
D28*
%TO.N,/SDA*%
X30875000Y-12625000D03*
%TO.N,/CS*%
X41250000Y-16020001D03*
%TO.N,VBUS*%
X36337500Y-22662500D03*
X32475000Y-5275000D03*
X24750000Y-19500000D03*
X21722750Y-9500000D03*
%TO.N,/UD-*%
X37730000Y-6974522D03*
%TO.N,/UD+*%
X36880000Y-6974522D03*
%TO.N,GND*%
X49500000Y-15681816D03*
X22307696Y-500000D03*
X40826924Y-500000D03*
X48767767Y-1232233D03*
X44942308Y-500000D03*
X49500000Y-26249996D03*
X27975000Y-14300000D03*
X49500000Y-7227272D03*
X42884616Y-500000D03*
X34653848Y-500000D03*
X49500000Y-5113636D03*
X49500000Y-17795452D03*
X27150000Y-10500000D03*
X20250000Y-500000D03*
X28480772Y-500000D03*
X49500000Y-24136360D03*
X49500000Y-13568180D03*
X36711540Y-500000D03*
X49500000Y-3000000D03*
X49500000Y-19909088D03*
X26423080Y-500000D03*
X27975000Y-10500000D03*
X49500000Y-9340908D03*
X49500000Y-22022724D03*
X49500000Y-11454544D03*
X38769232Y-500000D03*
X24365388Y-500000D03*
X32596156Y-500000D03*
X30538464Y-500000D03*
X27150000Y-14300000D03*
X47000000Y-500000D03*
%TO.N,/RST*%
X23150000Y-4500000D03*
%TO.N,GNDD*%
X4906250Y-500000D03*
X27000000Y-55500000D03*
X3000000Y-500000D03*
X500000Y-13000000D03*
X500000Y-27000000D03*
X49500000Y-32375000D03*
X500000Y-31000000D03*
X1232233Y-1232233D03*
X38119172Y-33725000D03*
X7000000Y-55500000D03*
X500000Y-25000000D03*
X43000000Y-55500000D03*
X500000Y-35000000D03*
X49500000Y-46812500D03*
X500000Y-3000000D03*
X500000Y-49000000D03*
X49500000Y-50937500D03*
X45000000Y-55500000D03*
X12531250Y-500000D03*
X15000000Y-55500000D03*
X49500000Y-40625000D03*
X500000Y-37000000D03*
X11000000Y-55500000D03*
X500000Y-33000000D03*
X49500000Y-42687500D03*
X49500000Y-48875000D03*
X23000000Y-55500000D03*
X49500000Y-30312500D03*
X6812500Y-500000D03*
X16343750Y-500000D03*
X31000000Y-55500000D03*
X33000000Y-55500000D03*
X37000000Y-55500000D03*
X500000Y-43000000D03*
X1232233Y-54767767D03*
X500000Y-53000000D03*
X500000Y-19000000D03*
X10625000Y-500000D03*
X35000000Y-55500000D03*
X500000Y-23000000D03*
X49500000Y-36500000D03*
X46500000Y-35000000D03*
X500000Y-9000000D03*
X500000Y-41000000D03*
X41000000Y-55500000D03*
X48767767Y-54767767D03*
X500000Y-47000000D03*
X39000000Y-55500000D03*
X500000Y-17000000D03*
X13000000Y-55500000D03*
X5000000Y-55500000D03*
X500000Y-15000000D03*
X49500000Y-53000000D03*
X17000000Y-55500000D03*
X8718750Y-500000D03*
X49500000Y-34437500D03*
X19000000Y-55500000D03*
X500000Y-45000000D03*
X47000000Y-55500000D03*
X500000Y-7000000D03*
X18250000Y-500000D03*
X500000Y-51000000D03*
X3000000Y-55500000D03*
X49500000Y-44750000D03*
X49500000Y-38562500D03*
X500000Y-5000000D03*
X500000Y-21000000D03*
X29000000Y-55500000D03*
X49500000Y-28250000D03*
X9000000Y-55500000D03*
X500000Y-11000000D03*
X14437500Y-500000D03*
X500000Y-39000000D03*
X25000000Y-55500000D03*
X21000000Y-55500000D03*
X500000Y-29000000D03*
%TD*%
%TO.N,/SDA*%
D29*
X21725000Y-12115000D02*
X30365000Y-12115000D01*
X30365000Y-12115000D02*
X30875000Y-12625000D01*
X31595000Y-17650000D02*
X31595000Y-13345000D01*
X31595000Y-13345000D02*
X30875000Y-12625000D01*
%TO.N,/CS*%
X42669173Y-22660000D02*
X42669173Y-20669173D01*
X41755000Y-19755000D02*
X41755000Y-17650000D01*
X41755000Y-16525001D02*
X41250000Y-16020001D01*
X42669173Y-20669173D02*
X41755000Y-19755000D01*
X41755000Y-17650000D02*
X41755000Y-16525001D01*
%TO.N,VBUS*%
D30*
X33680000Y-6100000D02*
X32991421Y-6100000D01*
X35500000Y-22662500D02*
X37583137Y-22662500D01*
X21500000Y-19717500D02*
X23487929Y-19717500D01*
X21722750Y-7750000D02*
X21722750Y-9500000D01*
X32475000Y-5336091D02*
X32475000Y-5275000D01*
X36337500Y-22662500D02*
X35500000Y-22662500D01*
X24212837Y-19722500D02*
X23500000Y-19722500D01*
X21722750Y-9500000D02*
X21722750Y-10842750D01*
X32991421Y-6100000D02*
G75*
G02*
X32749994Y-6000006I-21J341400D01*
G01*
X25245000Y-18304964D02*
G75*
G02*
X24750010Y-19500010I-1690000J-36D01*
G01*
X32750000Y-6000000D02*
G75*
G02*
X32475004Y-5336091I663900J663900D01*
G01*
X24750000Y-19500000D02*
G75*
G02*
X24212837Y-19722516I-537200J537200D01*
G01*
%TO.N,/UD-*%
D31*
X37730000Y-8135000D02*
X37730000Y-6974522D01*
X37945000Y-8350000D02*
X37730000Y-8135000D01*
%TO.N,/UD+*%
X36675000Y-8350000D02*
X36880000Y-8145000D01*
X36880000Y-8145000D02*
X36880000Y-6974522D01*
%TO.N,GND*%
D30*
X38859173Y-21359173D02*
X38500000Y-21000000D01*
X23750000Y-9500000D02*
X23823223Y-9573223D01*
D32*
X39440774Y-941368D02*
X39391889Y-902378D01*
X39282611Y-841973D02*
X39223593Y-821317D01*
D30*
X26060661Y-10500000D02*
X27150000Y-10500000D01*
X27975000Y-14300000D02*
X27150000Y-14300000D01*
D32*
X40000000Y-1500000D02*
X39463178Y-963178D01*
D30*
X23500000Y-17997500D02*
X23500000Y-16600000D01*
X23750000Y-14655000D02*
X26292954Y-14655000D01*
X23174099Y-6002175D02*
X22312358Y-6002175D01*
X38500000Y-21000000D02*
X35562500Y-21000000D01*
X38859173Y-22660000D02*
X38859173Y-21359173D01*
X27975000Y-10500000D02*
X34196699Y-10500000D01*
X42000000Y-3637500D02*
X40562995Y-3637500D01*
D32*
X33455000Y-1500000D02*
X40455000Y-1500000D01*
D30*
X26515000Y-17650000D02*
X26515000Y-15833026D01*
D33*
X49500000Y-3000000D02*
X49500000Y-26249996D01*
D30*
X20500000Y-4250000D02*
X20500000Y-3486396D01*
D34*
X34455000Y-4200000D02*
X39455000Y-4200000D01*
D32*
X39069232Y-800000D02*
X38769232Y-800000D01*
X39391889Y-902378D02*
X39338946Y-869107D01*
X39162632Y-807399D02*
X39100497Y-800395D01*
X39100497Y-800395D02*
X39069232Y-800000D01*
D30*
X21500000Y-16592500D02*
X23481893Y-16592500D01*
D32*
X39463178Y-963178D02*
X39440774Y-941368D01*
D30*
X23122792Y-1500000D02*
X33205000Y-1500000D01*
X23500000Y-16600000D02*
X23500000Y-15258553D01*
X21725000Y-14655000D02*
X23750000Y-14655000D01*
X23172500Y-6006035D02*
X23172500Y-8105792D01*
D33*
X47000000Y-500000D02*
X20250000Y-500000D01*
D32*
X39223593Y-821317D02*
X39162632Y-807399D01*
X39338946Y-869107D02*
X39282611Y-841973D01*
D30*
X43585787Y-14585786D02*
X43250000Y-14250000D01*
X27975000Y-10500000D02*
X27150000Y-10500000D01*
X39215000Y-8350000D02*
X39215000Y-4779411D01*
X21100000Y-5500000D02*
X20959620Y-5359620D01*
D32*
X40455000Y-1500000D02*
X40000000Y-1500000D01*
D30*
X35500000Y-20937500D02*
X28909772Y-20937500D01*
D33*
X49500000Y-3000000D02*
G75*
G03*
X47000000Y-500000I-2500000J0D01*
G01*
D30*
X34196699Y-10500000D02*
G75*
G02*
X43250000Y-14250000I1J-12803300D01*
G01*
X27250000Y-20250000D02*
G75*
G02*
X26515019Y-18475553I1774400J1774400D01*
G01*
X28909772Y-20937500D02*
G75*
G02*
X27250008Y-20249992I28J2347300D01*
G01*
X23481893Y-16592500D02*
G75*
G02*
X23500002Y-16599998I7J-25600D01*
G01*
X46479173Y-22602772D02*
G75*
G03*
X42867231Y-13882769I-12331943J2D01*
G01*
X23172500Y-8105792D02*
G75*
G03*
X23749998Y-9500002I1971700J-8D01*
G01*
X20959620Y-5359620D02*
G75*
G02*
X20499989Y-4250000I1109580J1109620D01*
G01*
X47000000Y-16000000D02*
G75*
G02*
X43585792Y-14585781I0J4828400D01*
G01*
X20950000Y-2400000D02*
G75*
G02*
X23122792Y-1499997I2172800J-2172800D01*
G01*
X23500000Y-15258553D02*
G75*
G02*
X23750014Y-14655014I853600J-47D01*
G01*
X26515000Y-15833026D02*
G75*
G02*
X27149992Y-14299992I2168000J26D01*
G01*
X20500000Y-3486396D02*
G75*
G02*
X20950001Y-2400001I1536400J-4D01*
G01*
X23823223Y-9573223D02*
G75*
G03*
X26060661Y-10500032I2237477J2237423D01*
G01*
X26292954Y-14655000D02*
G75*
G03*
X27150034Y-14300034I46J1212100D01*
G01*
X40562995Y-3637500D02*
G75*
G03*
X39205001Y-4200001I5J-1920500D01*
G01*
X38965000Y-4779411D02*
G75*
G02*
X39204997Y-4199997I819400J11D01*
G01*
X22312358Y-6002175D02*
G75*
G02*
X21100012Y-5499988I42J1714575D01*
G01*
%TO.N,/RST*%
D29*
X24787500Y-4500000D02*
X23150000Y-4500000D01*
%TO.N,VDD*%
D30*
X16775000Y-6162500D02*
X15750000Y-5137500D01*
X7500000Y-12250000D02*
X7500000Y-8164214D01*
X29510000Y-33490000D02*
X28000000Y-35000000D01*
X22767300Y-28632699D02*
X26312391Y-25087609D01*
X32930000Y-32000000D02*
X32050000Y-31120000D01*
X35500000Y-32000000D02*
X36000000Y-32000000D01*
X21890000Y-33390000D02*
X23500000Y-35000000D01*
X29510000Y-31120000D02*
X29510000Y-33490000D01*
X12909188Y-37390811D02*
X13529289Y-36770711D01*
X22000000Y-42000000D02*
X25500000Y-45500000D01*
X9978706Y-5137500D02*
X15750000Y-5137500D01*
X32050000Y-33450000D02*
X32050000Y-31120000D01*
X15993503Y-35750000D02*
X18477208Y-35750000D01*
X39290000Y-48000000D02*
X39290000Y-45460000D01*
X23500000Y-35000000D02*
X28000000Y-35000000D01*
X21890000Y-31856375D02*
X21890000Y-31120000D01*
X7500000Y-33550253D02*
X7500000Y-12250000D01*
X36000000Y-32000000D02*
X37549173Y-32000000D01*
X21890000Y-31120000D02*
X21890000Y-33390000D01*
X39290000Y-45460000D02*
X36750000Y-42920000D01*
X7500000Y-12250000D02*
X7500000Y-11414214D01*
X25500000Y-45500000D02*
X30000000Y-45500000D01*
X28000000Y-35000000D02*
X30500000Y-35000000D01*
X30500000Y-35000000D02*
X32050000Y-33450000D01*
X30000000Y-45500000D02*
X32580000Y-42920000D01*
X11000000Y-42000000D02*
X22000000Y-42000000D01*
X36000000Y-32000000D02*
X32930000Y-32000000D01*
X32580000Y-42920000D02*
X36750000Y-42920000D01*
X16775000Y-10845000D02*
X16775000Y-6162500D01*
X26312391Y-25087609D02*
G75*
G03*
X26970005Y-23500000I-1587591J1587609D01*
G01*
X13529289Y-36770711D02*
G75*
G02*
X15993503Y-35749995I2464211J-2464189D01*
G01*
X21890000Y-30750690D02*
G75*
G02*
X22767304Y-28632703I2995300J-10D01*
G01*
X18477208Y-35750000D02*
G75*
G03*
X20649998Y-34849998I-8J3072800D01*
G01*
X8500000Y-9000000D02*
G75*
G03*
X7500006Y-11414214I2414200J-2414200D01*
G01*
X11000000Y-42000000D02*
G75*
G02*
X12909184Y-37390807I6518400J0D01*
G01*
X20650000Y-34850000D02*
G75*
G03*
X21889990Y-31856375I-2993600J2993600D01*
G01*
X11000000Y-42000000D02*
G75*
G02*
X7499996Y-33550253I8449740J8449750D01*
G01*
X8500000Y-5750000D02*
G75*
G02*
X9978706Y-5137502I1478700J-1478700D01*
G01*
X7500000Y-8164214D02*
G75*
G02*
X8499996Y-5749996I3414200J14D01*
G01*
X10407229Y-8210000D02*
G75*
G03*
X8499992Y-8999992I-29J-2697200D01*
G01*
%TO.N,/CS_I*%
D29*
X36750000Y-48000000D02*
X36750000Y-49750000D01*
X37500000Y-50500000D02*
X41000000Y-50500000D01*
X42669173Y-31960000D02*
X42669173Y-48830827D01*
X41000000Y-50500000D02*
X42669173Y-48830827D01*
X36750000Y-49750000D02*
X37500000Y-50500000D01*
%TO.N,/MISO_I*%
X34000000Y-49500000D02*
X34000000Y-46500000D01*
X34000000Y-46500000D02*
X35040000Y-45460000D01*
X43939173Y-31960000D02*
X43939173Y-49560827D01*
X35040000Y-45460000D02*
X36750000Y-45460000D01*
X41500000Y-52000000D02*
X36500000Y-52000000D01*
X43939173Y-49560827D02*
X41500000Y-52000000D01*
X36500000Y-52000000D02*
X34000000Y-49500000D01*
%TO.N,GNDD*%
D30*
X13250000Y-8210000D02*
X14993015Y-8210000D01*
D33*
X500000Y-3000000D02*
X500000Y-53000000D01*
D30*
X38119172Y-37074526D02*
X38119172Y-33725000D01*
D33*
X3000000Y-55500000D02*
X47000000Y-55500000D01*
D30*
X38859173Y-32984999D02*
X38859173Y-31960000D01*
X16775000Y-14655000D02*
X15582904Y-14655000D01*
D33*
X3000000Y-500000D02*
X18250000Y-500000D01*
D30*
X35500000Y-33725000D02*
X38119172Y-33725000D01*
X38119172Y-33725000D02*
X38859173Y-32984999D01*
X46479173Y-31960000D02*
X46479173Y-34949719D01*
X15750000Y-7396447D02*
X15750000Y-6862500D01*
X14750000Y-15000000D02*
X14393762Y-15356238D01*
D33*
X49500000Y-53000000D02*
X49500000Y-28250000D01*
X3000000Y-500000D02*
G75*
G03*
X500000Y-3000000I0J-2500000D01*
G01*
D30*
X15582904Y-14655000D02*
G75*
G03*
X14749999Y-14999999I-4J-1177900D01*
G01*
X36750000Y-40380000D02*
G75*
G03*
X38119183Y-37074526I-3305500J3305500D01*
G01*
D33*
X500000Y-53000000D02*
G75*
G03*
X3000000Y-55500000I2500000J0D01*
G01*
D30*
X14393762Y-15356238D02*
G75*
G02*
X13250000Y-15830007I-1143762J1143738D01*
G01*
X14993015Y-8210000D02*
G75*
G03*
X15499996Y-7999996I-15J717000D01*
G01*
D33*
X47000000Y-55500000D02*
G75*
G03*
X49500000Y-53000000I0J2500000D01*
G01*
D30*
X15500000Y-8000000D02*
G75*
G03*
X15750019Y-7396447I-603600J603600D01*
G01*
%TO.N,/SDA_I*%
D29*
X8500000Y-13707107D02*
X8500000Y-14500000D01*
X17525000Y-12082750D02*
X10007331Y-12082750D01*
X9748817Y-15830000D02*
X10710000Y-15830000D01*
X9000000Y-15500000D02*
X9035147Y-15534388D01*
X8853553Y-15353554D02*
X9000000Y-15500000D01*
X9000000Y-12500000D02*
G75*
G03*
X8500003Y-13707107I1207100J-1207100D01*
G01*
X8500000Y-14500000D02*
G75*
G03*
X8853555Y-15353552I1207100J0D01*
G01*
X9035147Y-15534388D02*
G75*
G03*
X9748817Y-15829983I713653J713688D01*
G01*
X10007331Y-12082750D02*
G75*
G03*
X8999991Y-12499991I-31J-1424550D01*
G01*
%TO.N,/SCL_I*%
X16775000Y-13385000D02*
X15527635Y-13385000D01*
X15250000Y-13500000D02*
X14694102Y-14055898D01*
X13426630Y-14580902D02*
G75*
G02*
X10992747Y-13572773I-30J3442002D01*
G01*
X14694102Y-14055898D02*
G75*
G02*
X13426630Y-14580916I-1267502J1267498D01*
G01*
X15527635Y-13385000D02*
G75*
G03*
X15249990Y-13499990I-35J-392600D01*
G01*
%TO.N,/MOSI_I*%
X40129173Y-31960000D02*
X40129173Y-39540827D01*
X40129173Y-39540827D02*
X39290000Y-40380000D01*
%TO.N,/CLK_I*%
X39290000Y-42920000D02*
X40492081Y-42920000D01*
X41399173Y-42012908D02*
X41399173Y-32684173D01*
X40492081Y-42920000D02*
X41399173Y-42012908D01*
%TO.N,Net-(U1-XO)*%
X47000000Y-14275000D02*
X46431676Y-14275000D01*
X47000000Y-14275000D02*
X47000000Y-12767767D01*
X41755000Y-10347858D02*
X41755000Y-8350000D01*
X46431676Y-14275000D02*
G75*
G02*
X42750007Y-12749993I24J5206700D01*
G01*
X42750000Y-12750000D02*
G75*
G02*
X41755018Y-10347858I2402100J2402100D01*
G01*
X47000000Y-12767767D02*
G75*
G03*
X45749990Y-9750010I-4267800J-33D01*
G01*
%TO.N,Net-(U1-XI)*%
X41581955Y-5362500D02*
X42000000Y-5362500D01*
X42000000Y-5362500D02*
X44561000Y-5362500D01*
X40485000Y-8350000D02*
X40485000Y-6389767D01*
X40750000Y-5750000D02*
X40823223Y-5676777D01*
X40485000Y-6389767D02*
G75*
G02*
X40750010Y-5750010I904800J-33D01*
G01*
X44561000Y-5362500D02*
G75*
G03*
X45750000Y-4870000I0J1681500D01*
G01*
X40823223Y-5676777D02*
G75*
G02*
X41581955Y-5362465I758777J-758723D01*
G01*
%TO.N,/SCL*%
X30325000Y-17650000D02*
X30325000Y-14575000D01*
X21725000Y-13385000D02*
X29135000Y-13385000D01*
X29135000Y-13385000D02*
X30325000Y-14575000D01*
%TO.N,/V3*%
X35405000Y-6100000D02*
X35405000Y-8350000D01*
%TO.N,/ACT*%
X25245000Y-8350000D02*
X25245000Y-6012071D01*
%TO.N,Net-(U1-RSTI)*%
X26515000Y-8350000D02*
X26515000Y-6286213D01*
X26515000Y-8350000D02*
X26515000Y-4406036D01*
X26515000Y-6286213D02*
G75*
G03*
X26500004Y-6249996I-51200J13D01*
G01*
%TO.N,/CLK*%
X40750000Y-19500000D02*
X41399173Y-20149173D01*
X41399173Y-20149173D02*
X41399173Y-22660000D01*
X38500000Y-19500000D02*
X40750000Y-19500000D01*
X37945000Y-17650000D02*
X37945000Y-18945000D01*
X37945000Y-18945000D02*
X38500000Y-19500000D01*
%TO.N,/MOSI*%
X35405000Y-19405000D02*
X35405000Y-17650000D01*
X40129173Y-22660000D02*
X40129173Y-20879173D01*
X40129173Y-20879173D02*
X39250000Y-20000000D01*
X39250000Y-20000000D02*
X36000000Y-20000000D01*
X36000000Y-20000000D02*
X35405000Y-19405000D01*
%TO.N,/MISO*%
X32865000Y-16135000D02*
X33629999Y-15370001D01*
X32865000Y-17650000D02*
X32865000Y-16135000D01*
X42870001Y-15370001D02*
X43939173Y-16439173D01*
X43939173Y-16439173D02*
X43939173Y-23384173D01*
X33629999Y-15370001D02*
X42870001Y-15370001D01*
%TD*%
%TA.AperFunction,Conductor*%
%TO.N,VDD*%
G36*
X18593091Y-1473300D02*
G01*
X18673873Y-1527276D01*
X18727848Y-1608055D01*
X18731045Y-1615773D01*
X18750000Y-1711061D01*
X18750000Y-9226472D01*
X18745214Y-9275057D01*
X18741144Y-9295515D01*
X18703962Y-9385273D01*
X18635261Y-9453970D01*
X18545517Y-9491144D01*
X18525060Y-9495214D01*
X18476473Y-9500000D01*
X16750000Y-9500000D01*
X16750000Y-9500001D01*
X16750000Y-11040972D01*
X16745214Y-11089557D01*
X16741144Y-11110015D01*
X16703962Y-11199773D01*
X16635261Y-11268470D01*
X16545517Y-11305644D01*
X16525060Y-11309714D01*
X16476473Y-11314500D01*
X15884295Y-11314500D01*
X15859722Y-11316434D01*
X15847433Y-11317401D01*
X15847431Y-11317401D01*
X15689602Y-11363255D01*
X15670483Y-11374562D01*
X15655373Y-11383499D01*
X15654458Y-11384039D01*
X15652612Y-11385131D01*
X15608439Y-11405697D01*
X15572890Y-11418182D01*
X15490381Y-11432250D01*
X14815569Y-11432250D01*
X14766984Y-11427464D01*
X14746526Y-11423394D01*
X14656768Y-11386212D01*
X14588071Y-11317511D01*
X14550905Y-11227804D01*
X14550726Y-11226905D01*
X14548999Y-11139323D01*
X14551164Y-11125656D01*
X14560281Y-11087677D01*
X14567246Y-11066243D01*
X14571248Y-11040972D01*
X14584787Y-10955493D01*
X14584787Y-10955483D01*
X14584789Y-10955476D01*
X14600499Y-10856296D01*
X14600500Y-10856284D01*
X14600500Y-10643715D01*
X14600499Y-10643703D01*
X14567246Y-10433759D01*
X14567246Y-10433757D01*
X14501557Y-10231588D01*
X14405051Y-10042184D01*
X14280104Y-9870208D01*
X14245681Y-9835785D01*
X14214716Y-9798053D01*
X14203129Y-9780712D01*
X14165949Y-9690953D01*
X14165948Y-9593798D01*
X14203115Y-9504057D01*
X14206518Y-9498963D01*
X14259141Y-9441951D01*
X14262331Y-9439429D01*
X14286032Y-9422833D01*
X14318656Y-9402712D01*
X14442712Y-9278656D01*
X14534814Y-9129334D01*
X14543059Y-9104451D01*
X14562876Y-9059856D01*
X14573775Y-9040657D01*
X14637297Y-8967150D01*
X14724115Y-8923546D01*
X14725563Y-8923147D01*
X14738953Y-8919456D01*
X14805132Y-8910500D01*
X15085922Y-8910500D01*
X15093064Y-8909559D01*
X15107352Y-8907678D01*
X15270145Y-8886247D01*
X15417660Y-8846720D01*
X15447737Y-8838660D01*
X15449463Y-8838213D01*
X15449594Y-8838163D01*
X15449610Y-8838159D01*
X15449612Y-8838158D01*
X15449628Y-8838154D01*
X15449731Y-8838111D01*
X15453143Y-8836817D01*
X15453145Y-8836816D01*
X15453185Y-8836801D01*
X15454112Y-8836449D01*
X15457724Y-8834800D01*
X15552895Y-8795379D01*
X15613171Y-8770412D01*
X15616916Y-8769015D01*
X15617842Y-8768599D01*
X15620844Y-8767302D01*
X15621277Y-8767055D01*
X15621285Y-8767052D01*
X15621289Y-8767049D01*
X15621298Y-8767046D01*
X15621624Y-8766857D01*
X15622038Y-8766622D01*
X15622039Y-8766621D01*
X15622058Y-8766611D01*
X15633183Y-8760269D01*
X15634213Y-8759588D01*
X15782218Y-8674139D01*
X15929634Y-8561022D01*
X15995330Y-8495327D01*
X16000946Y-8489711D01*
X16067353Y-8423303D01*
X16191367Y-8261684D01*
X16293225Y-8085261D01*
X16371183Y-7897053D01*
X16374852Y-7883358D01*
X16392044Y-7837676D01*
X16408917Y-7803460D01*
X16456167Y-7737522D01*
X16570340Y-7623350D01*
X16660908Y-7476516D01*
X16715174Y-7312753D01*
X16725500Y-7211677D01*
X16725499Y-6513324D01*
X16715174Y-6412247D01*
X16660908Y-6248484D01*
X16658969Y-6245340D01*
X16570342Y-6101652D01*
X16570336Y-6101646D01*
X16448352Y-5979661D01*
X16448346Y-5979656D01*
X16357126Y-5923392D01*
X16301519Y-5889093D01*
X16301518Y-5889092D01*
X16301517Y-5889092D01*
X16263946Y-5876642D01*
X16226374Y-5864192D01*
X16137757Y-5834827D01*
X16137755Y-5834826D01*
X16137753Y-5834826D01*
X16094434Y-5830400D01*
X16036681Y-5824500D01*
X16036677Y-5824500D01*
X16036674Y-5824500D01*
X15463325Y-5824500D01*
X15425420Y-5828372D01*
X15362240Y-5834826D01*
X15254344Y-5870579D01*
X15254345Y-5870580D01*
X15215569Y-5883429D01*
X15215560Y-5883433D01*
X15198484Y-5889092D01*
X15198482Y-5889092D01*
X15198479Y-5889094D01*
X15182627Y-5898871D01*
X15182611Y-5898879D01*
X15051652Y-5979656D01*
X14929661Y-6101646D01*
X14929656Y-6101652D01*
X14839094Y-6248478D01*
X14784825Y-6412246D01*
X14781646Y-6431951D01*
X14781084Y-6431860D01*
X14778233Y-6456477D01*
X14773690Y-6475823D01*
X14774823Y-6506983D01*
X14774500Y-6513324D01*
X14774500Y-6847465D01*
X14769713Y-6896054D01*
X14766416Y-6912625D01*
X14729232Y-7002383D01*
X14660530Y-7071079D01*
X14570769Y-7108254D01*
X14473614Y-7108249D01*
X14383870Y-7071074D01*
X14369820Y-7061687D01*
X14332095Y-7030727D01*
X14318656Y-7017288D01*
X14318653Y-7017286D01*
X14318652Y-7017285D01*
X14310936Y-7012526D01*
X14304413Y-7006460D01*
X14296305Y-7002772D01*
X14269043Y-6973573D01*
X14243394Y-6949725D01*
X14002819Y-6870007D01*
X14002810Y-6870004D01*
X14002802Y-6870002D01*
X14002798Y-6870001D01*
X14002797Y-6870001D01*
X14002791Y-6870000D01*
X13993837Y-6868898D01*
X13990180Y-6868712D01*
X13900014Y-6859500D01*
X13900009Y-6859500D01*
X13900005Y-6859500D01*
X12599993Y-6859500D01*
X12509817Y-6868712D01*
X12497199Y-6870001D01*
X12330666Y-6925185D01*
X12262418Y-6967281D01*
X12181346Y-7017286D01*
X12181345Y-7017287D01*
X12057284Y-7141348D01*
X11965182Y-7290670D01*
X11910003Y-7457191D01*
X11909999Y-7457220D01*
X11899501Y-7559968D01*
X11899500Y-7559984D01*
X11899500Y-7559988D01*
X11899500Y-8860006D01*
X11910001Y-8962800D01*
X11965185Y-9129332D01*
X12051933Y-9269975D01*
X12057288Y-9278656D01*
X12181344Y-9402712D01*
X12181346Y-9402713D01*
X12181348Y-9402715D01*
X12184789Y-9405195D01*
X12190772Y-9408527D01*
X12205445Y-9417577D01*
X12244270Y-9447147D01*
X12259542Y-9461347D01*
X12316419Y-9540113D01*
X12338824Y-9634649D01*
X12323348Y-9730559D01*
X12320814Y-9737367D01*
X12269812Y-9820058D01*
X12263528Y-9826574D01*
X12219899Y-9870204D01*
X12191680Y-9909043D01*
X12144906Y-9957817D01*
X12144193Y-9958382D01*
X12138421Y-9962900D01*
X12137988Y-9963300D01*
X12134028Y-9966439D01*
X12094550Y-9986685D01*
X12055811Y-10008274D01*
X12051469Y-10008778D01*
X12047579Y-10010774D01*
X12003363Y-10014370D01*
X11959306Y-10019492D01*
X11955100Y-10018296D01*
X11950743Y-10018651D01*
X11908509Y-10005051D01*
X11865854Y-9992925D01*
X11865826Y-9992911D01*
X11864811Y-9992391D01*
X11861337Y-9989861D01*
X11858265Y-9988872D01*
X11847979Y-9980133D01*
X11802275Y-9946851D01*
X11792409Y-9936985D01*
X11767035Y-9907275D01*
X11740105Y-9870210D01*
X11740103Y-9870207D01*
X11589793Y-9719897D01*
X11589789Y-9719894D01*
X11495768Y-9651583D01*
X11495768Y-9651584D01*
X11495767Y-9651583D01*
X11417816Y-9594949D01*
X11228412Y-9498443D01*
X11228409Y-9498442D01*
X11228407Y-9498441D01*
X11228405Y-9498440D01*
X11026243Y-9432754D01*
X11026240Y-9432753D01*
X11026238Y-9432752D01*
X11026229Y-9432750D01*
X10816305Y-9399500D01*
X10816296Y-9399500D01*
X10816287Y-9399500D01*
X10603713Y-9399500D01*
X10603703Y-9399500D01*
X10603693Y-9399500D01*
X10393769Y-9432750D01*
X10393763Y-9432752D01*
X10393760Y-9432752D01*
X10393759Y-9432753D01*
X10352875Y-9446036D01*
X10213305Y-9491385D01*
X10213297Y-9491388D01*
X10191592Y-9498441D01*
X10191588Y-9498442D01*
X10191588Y-9498443D01*
X10137636Y-9525932D01*
X10137605Y-9525947D01*
X10069798Y-9560498D01*
X10002182Y-9594950D01*
X9830204Y-9719898D01*
X9679898Y-9870204D01*
X9554951Y-10042180D01*
X9458439Y-10231596D01*
X9392754Y-10433755D01*
X9392750Y-10433769D01*
X9359500Y-10643693D01*
X9359500Y-10856305D01*
X9392750Y-11066229D01*
X9392755Y-11066247D01*
X9443466Y-11222322D01*
X9453927Y-11269996D01*
X9456451Y-11291319D01*
X9448829Y-11388175D01*
X9404723Y-11474741D01*
X9333277Y-11536460D01*
X9316517Y-11546095D01*
X9274657Y-11565251D01*
X9211992Y-11587178D01*
X9211983Y-11587182D01*
X9211969Y-11587188D01*
X9002011Y-11688299D01*
X9001991Y-11688309D01*
X9001980Y-11688316D01*
X8804670Y-11812293D01*
X8804648Y-11812308D01*
X8658274Y-11929036D01*
X8658259Y-11929049D01*
X8622430Y-11957623D01*
X8622429Y-11957623D01*
X8591852Y-11988200D01*
X8591853Y-11988201D01*
X8516641Y-12063411D01*
X8516613Y-12063439D01*
X8446416Y-12133635D01*
X8446416Y-12133636D01*
X8446388Y-12133669D01*
X8281306Y-12340674D01*
X8140417Y-12564899D01*
X8025532Y-12803461D01*
X8025523Y-12803482D01*
X7943858Y-13036869D01*
X7943859Y-13036870D01*
X7938074Y-13053403D01*
X7938070Y-13053416D01*
X7930621Y-13086048D01*
X7930622Y-13086049D01*
X7879147Y-13311570D01*
X7879147Y-13311572D01*
X7879144Y-13311597D01*
X7849500Y-13574679D01*
X7849500Y-14621754D01*
X7881284Y-14863184D01*
X7944299Y-15098358D01*
X7944305Y-15098379D01*
X7944306Y-15098381D01*
X7944311Y-15098394D01*
X8037488Y-15323348D01*
X8037493Y-15323357D01*
X8037495Y-15323361D01*
X8159248Y-15534245D01*
X8292894Y-15708415D01*
X8297747Y-15715762D01*
X8299080Y-15719028D01*
X8365531Y-15785479D01*
X8383291Y-15803238D01*
X8383293Y-15803241D01*
X8383294Y-15803242D01*
X8462501Y-15882448D01*
X8462535Y-15882481D01*
X8482859Y-15902804D01*
X8490376Y-15910656D01*
X8497393Y-15918314D01*
X8541256Y-15961232D01*
X8542044Y-15962007D01*
X8543067Y-15963019D01*
X8544020Y-15963967D01*
X8590102Y-16010048D01*
X8590105Y-16010051D01*
X8593682Y-16013293D01*
X8602530Y-16021717D01*
X8646385Y-16065571D01*
X8652099Y-16071285D01*
X8824713Y-16203737D01*
X8847467Y-16216874D01*
X9006202Y-16308520D01*
X9006203Y-16308521D01*
X9010360Y-16311103D01*
X9012619Y-16312349D01*
X9020327Y-16315504D01*
X9020455Y-16315588D01*
X9021269Y-16315892D01*
X9167916Y-16376635D01*
X9214146Y-16395785D01*
X9214397Y-16395868D01*
X9216120Y-16396314D01*
X9400342Y-16445676D01*
X9446022Y-16462869D01*
X9472782Y-16476065D01*
X9541022Y-16525645D01*
X9548501Y-16533323D01*
X9571581Y-16560709D01*
X9679892Y-16709788D01*
X9679894Y-16709790D01*
X9679896Y-16709792D01*
X9830208Y-16860104D01*
X10002184Y-16985051D01*
X10191588Y-17081557D01*
X10393757Y-17147246D01*
X10460373Y-17157797D01*
X10603633Y-17180487D01*
X10603708Y-17180500D01*
X10816287Y-17180500D01*
X10816292Y-17180500D01*
X10816418Y-17180479D01*
X10915476Y-17164789D01*
X10915478Y-17164789D01*
X11026237Y-17147247D01*
X11026237Y-17147246D01*
X11026243Y-17147246D01*
X11228412Y-17081557D01*
X11417816Y-16985051D01*
X11589792Y-16860104D01*
X11740104Y-16709792D01*
X11764140Y-16676707D01*
X11796559Y-16640224D01*
X11811878Y-16626063D01*
X11894710Y-16575302D01*
X11990669Y-16560102D01*
X12085019Y-16582725D01*
X12085851Y-16583108D01*
X12157800Y-16633223D01*
X12167588Y-16643011D01*
X12192963Y-16672722D01*
X12219896Y-16709792D01*
X12370208Y-16860104D01*
X12542184Y-16985051D01*
X12731588Y-17081557D01*
X12933757Y-17147246D01*
X13000373Y-17157797D01*
X13143633Y-17180487D01*
X13143708Y-17180500D01*
X13356287Y-17180500D01*
X13356292Y-17180500D01*
X13356418Y-17180479D01*
X13455476Y-17164789D01*
X13455478Y-17164789D01*
X13566237Y-17147247D01*
X13566237Y-17147246D01*
X13566243Y-17147246D01*
X13768412Y-17081557D01*
X13957816Y-16985051D01*
X14129792Y-16860104D01*
X14280104Y-16709792D01*
X14405051Y-16537816D01*
X14501557Y-16348412D01*
X14545060Y-16214520D01*
X14564615Y-16169814D01*
X14582109Y-16138578D01*
X14644105Y-16065576D01*
X14797040Y-15943616D01*
X14826113Y-15914542D01*
X14826120Y-15914537D01*
X14927132Y-15813525D01*
X15232383Y-15508272D01*
X15241194Y-15499883D01*
X15250268Y-15491659D01*
X15259479Y-15483714D01*
X15289270Y-15459265D01*
X15308885Y-15444717D01*
X15329151Y-15431177D01*
X15350081Y-15418632D01*
X15367806Y-15409158D01*
X15389865Y-15398725D01*
X15412389Y-15389395D01*
X15435356Y-15381177D01*
X15454612Y-15375336D01*
X15478284Y-15369407D01*
X15481160Y-15368834D01*
X15554156Y-15365248D01*
X15576241Y-15367424D01*
X15652075Y-15387297D01*
X15656543Y-15389262D01*
X15683037Y-15402861D01*
X15689602Y-15406744D01*
X15847431Y-15452598D01*
X15884306Y-15455500D01*
X15884308Y-15455500D01*
X16476473Y-15455500D01*
X16525049Y-15460284D01*
X16545506Y-15464353D01*
X16635266Y-15501532D01*
X16703965Y-15570231D01*
X16741144Y-15659984D01*
X16745214Y-15680442D01*
X16750000Y-15729027D01*
X16750000Y-16000000D01*
X18476473Y-16000000D01*
X18525049Y-16004784D01*
X18545506Y-16008853D01*
X18635266Y-16046032D01*
X18703965Y-16114731D01*
X18741144Y-16204484D01*
X18745214Y-16224942D01*
X18750000Y-16273527D01*
X18750000Y-22006475D01*
X18757297Y-22017396D01*
X18762172Y-22024692D01*
X18799351Y-22114452D01*
X18799350Y-22211607D01*
X18762170Y-22301366D01*
X18762107Y-22301460D01*
X18761596Y-22302224D01*
X18700983Y-22365236D01*
X18686893Y-22375473D01*
X18670644Y-22386330D01*
X18668403Y-22387703D01*
X18502780Y-22508033D01*
X18502772Y-22508040D01*
X18358038Y-22652775D01*
X18358034Y-22652779D01*
X18358033Y-22652781D01*
X18358030Y-22652785D01*
X18358003Y-22652821D01*
X18295858Y-22738357D01*
X18263435Y-22774844D01*
X18248120Y-22789001D01*
X18165282Y-22839764D01*
X18069323Y-22854962D01*
X17974910Y-22832308D01*
X17974904Y-22832305D01*
X17974081Y-22831926D01*
X17902202Y-22781843D01*
X17892409Y-22772050D01*
X17867034Y-22742339D01*
X17864141Y-22738357D01*
X17801969Y-22652785D01*
X17801966Y-22652781D01*
X17801957Y-22652772D01*
X17657226Y-22508040D01*
X17657223Y-22508038D01*
X17657220Y-22508035D01*
X17510773Y-22401636D01*
X17510774Y-22401634D01*
X17510759Y-22401626D01*
X17507452Y-22399223D01*
X17506761Y-22398632D01*
X17491585Y-22387694D01*
X17490871Y-22387334D01*
X17309225Y-22294782D01*
X17309221Y-22294780D01*
X17309199Y-22294772D01*
X17114534Y-22231523D01*
X17114531Y-22231522D01*
X17114528Y-22231521D01*
X17114522Y-22231520D01*
X16912368Y-22199500D01*
X16912361Y-22199500D01*
X16912352Y-22199500D01*
X16707648Y-22199500D01*
X16707638Y-22199500D01*
X16707630Y-22199500D01*
X16505476Y-22231520D01*
X16505464Y-22231523D01*
X16310799Y-22294772D01*
X16310778Y-22294780D01*
X16128395Y-22387709D01*
X16128393Y-22387710D01*
X15962774Y-22508038D01*
X15962772Y-22508040D01*
X15818038Y-22652775D01*
X15818034Y-22652779D01*
X15818033Y-22652781D01*
X15818030Y-22652785D01*
X15818003Y-22652821D01*
X15755858Y-22738357D01*
X15723435Y-22774844D01*
X15708120Y-22789001D01*
X15625282Y-22839764D01*
X15529323Y-22854962D01*
X15434910Y-22832308D01*
X15434904Y-22832305D01*
X15434081Y-22831926D01*
X15362202Y-22781843D01*
X15352409Y-22772050D01*
X15327034Y-22742339D01*
X15324141Y-22738357D01*
X15261969Y-22652785D01*
X15261966Y-22652781D01*
X15261957Y-22652772D01*
X15117226Y-22508040D01*
X15117223Y-22508038D01*
X15117220Y-22508035D01*
X14970773Y-22401636D01*
X14970774Y-22401634D01*
X14970759Y-22401626D01*
X14967452Y-22399223D01*
X14966761Y-22398632D01*
X14951585Y-22387694D01*
X14950871Y-22387334D01*
X14769225Y-22294782D01*
X14769221Y-22294780D01*
X14769199Y-22294772D01*
X14574534Y-22231523D01*
X14574531Y-22231522D01*
X14574528Y-22231521D01*
X14574522Y-22231520D01*
X14372368Y-22199500D01*
X14372361Y-22199500D01*
X14372352Y-22199500D01*
X14167648Y-22199500D01*
X14167638Y-22199500D01*
X14167630Y-22199500D01*
X13965476Y-22231520D01*
X13965464Y-22231523D01*
X13770799Y-22294772D01*
X13770778Y-22294780D01*
X13588395Y-22387709D01*
X13588393Y-22387710D01*
X13422777Y-22508036D01*
X13278036Y-22652777D01*
X13157710Y-22818393D01*
X13157709Y-22818395D01*
X13064780Y-23000778D01*
X13064772Y-23000799D01*
X13001523Y-23195464D01*
X13001520Y-23195476D01*
X12969500Y-23397630D01*
X12969500Y-23602368D01*
X13001520Y-23804522D01*
X13001523Y-23804534D01*
X13064772Y-23999199D01*
X13064780Y-23999221D01*
X13064782Y-23999225D01*
X13064785Y-23999232D01*
X13154777Y-24175850D01*
X13154778Y-24175850D01*
X13157709Y-24181603D01*
X13157717Y-24181616D01*
X13278032Y-24347217D01*
X13278034Y-24347219D01*
X13422781Y-24491966D01*
X13588390Y-24612287D01*
X13770781Y-24705220D01*
X13770782Y-24705220D01*
X13770788Y-24705223D01*
X13905251Y-24748912D01*
X13965466Y-24768477D01*
X13981728Y-24771052D01*
X14036559Y-24779737D01*
X14036566Y-24779737D01*
X14036575Y-24779739D01*
X14167453Y-24800469D01*
X14167642Y-24800500D01*
X14372352Y-24800500D01*
X14372353Y-24800500D01*
X14372359Y-24800499D01*
X14372361Y-24800499D01*
X14467870Y-24785371D01*
X14574534Y-24768477D01*
X14769219Y-24705220D01*
X14951610Y-24612287D01*
X15117219Y-24491966D01*
X15261966Y-24347219D01*
X15324144Y-24261635D01*
X15356555Y-24225161D01*
X15371884Y-24210992D01*
X15454717Y-24160234D01*
X15550676Y-24145036D01*
X15645019Y-24167659D01*
X15645851Y-24168042D01*
X15717800Y-24218157D01*
X15727587Y-24227944D01*
X15752962Y-24257655D01*
X15818033Y-24347217D01*
X15818036Y-24347221D01*
X15962774Y-24491960D01*
X15962776Y-24491962D01*
X15962779Y-24491964D01*
X15962781Y-24491966D01*
X16128390Y-24612287D01*
X16310781Y-24705220D01*
X16310782Y-24705220D01*
X16310788Y-24705223D01*
X16445251Y-24748912D01*
X16505466Y-24768477D01*
X16521728Y-24771052D01*
X16576559Y-24779737D01*
X16576566Y-24779737D01*
X16576575Y-24779739D01*
X16707453Y-24800469D01*
X16707642Y-24800500D01*
X16912352Y-24800500D01*
X16912353Y-24800500D01*
X16912359Y-24800499D01*
X16912361Y-24800499D01*
X17007870Y-24785371D01*
X17114534Y-24768477D01*
X17309219Y-24705220D01*
X17491610Y-24612287D01*
X17657219Y-24491966D01*
X17801966Y-24347219D01*
X17864144Y-24261635D01*
X17896555Y-24225161D01*
X17911884Y-24210992D01*
X17994717Y-24160234D01*
X18090676Y-24145036D01*
X18185019Y-24167659D01*
X18185851Y-24168042D01*
X18257800Y-24218157D01*
X18267587Y-24227944D01*
X18292962Y-24257655D01*
X18358033Y-24347217D01*
X18358036Y-24347221D01*
X18502774Y-24491960D01*
X18502776Y-24491962D01*
X18502779Y-24491964D01*
X18502781Y-24491966D01*
X18668390Y-24612287D01*
X18850781Y-24705220D01*
X18850782Y-24705220D01*
X18850788Y-24705223D01*
X18985251Y-24748912D01*
X19045466Y-24768477D01*
X19061728Y-24771052D01*
X19116559Y-24779737D01*
X19116566Y-24779737D01*
X19116575Y-24779739D01*
X19247453Y-24800469D01*
X19247642Y-24800500D01*
X19452352Y-24800500D01*
X19452353Y-24800500D01*
X19452359Y-24800499D01*
X19452361Y-24800499D01*
X19547870Y-24785371D01*
X19654534Y-24768477D01*
X19849219Y-24705220D01*
X20031610Y-24612287D01*
X20197219Y-24491966D01*
X20341966Y-24347219D01*
X20404144Y-24261635D01*
X20436555Y-24225161D01*
X20451884Y-24210992D01*
X20534717Y-24160234D01*
X20630676Y-24145036D01*
X20725019Y-24167659D01*
X20725851Y-24168042D01*
X20797800Y-24218157D01*
X20807587Y-24227944D01*
X20832962Y-24257655D01*
X20898033Y-24347217D01*
X20898036Y-24347221D01*
X21042774Y-24491960D01*
X21042776Y-24491962D01*
X21042779Y-24491964D01*
X21042781Y-24491966D01*
X21208390Y-24612287D01*
X21390781Y-24705220D01*
X21390782Y-24705220D01*
X21390788Y-24705223D01*
X21525251Y-24748912D01*
X21585466Y-24768477D01*
X21601728Y-24771052D01*
X21656559Y-24779737D01*
X21656566Y-24779737D01*
X21656575Y-24779739D01*
X21787453Y-24800469D01*
X21787642Y-24800500D01*
X21992352Y-24800500D01*
X21992353Y-24800500D01*
X21992359Y-24800499D01*
X21992361Y-24800499D01*
X22087870Y-24785371D01*
X22194534Y-24768477D01*
X22389219Y-24705220D01*
X22571610Y-24612287D01*
X22737219Y-24491966D01*
X22881966Y-24347219D01*
X22944144Y-24261635D01*
X22976555Y-24225161D01*
X22991884Y-24210992D01*
X23074717Y-24160234D01*
X23170676Y-24145036D01*
X23265019Y-24167659D01*
X23265851Y-24168042D01*
X23337800Y-24218157D01*
X23347587Y-24227944D01*
X23372962Y-24257655D01*
X23438033Y-24347217D01*
X23438036Y-24347221D01*
X23582774Y-24491960D01*
X23582776Y-24491962D01*
X23582779Y-24491964D01*
X23582781Y-24491966D01*
X23748390Y-24612287D01*
X23930781Y-24705220D01*
X23930782Y-24705220D01*
X23930788Y-24705223D01*
X24065251Y-24748912D01*
X24125466Y-24768477D01*
X24141728Y-24771052D01*
X24196559Y-24779737D01*
X24196566Y-24779737D01*
X24196575Y-24779739D01*
X24327453Y-24800469D01*
X24327642Y-24800500D01*
X24532352Y-24800500D01*
X24532353Y-24800500D01*
X24532359Y-24800499D01*
X24532361Y-24800499D01*
X24627870Y-24785371D01*
X24734534Y-24768477D01*
X24929219Y-24705220D01*
X25111610Y-24612287D01*
X25277219Y-24491966D01*
X25421966Y-24347219D01*
X25542287Y-24181610D01*
X25635220Y-23999219D01*
X25698477Y-23804534D01*
X25715371Y-23697870D01*
X25730499Y-23602361D01*
X25730500Y-23602349D01*
X25730500Y-23397640D01*
X25730458Y-23397378D01*
X25701543Y-23214823D01*
X25701542Y-23214820D01*
X25698476Y-23195461D01*
X25635221Y-23000785D01*
X25635220Y-23000781D01*
X25542287Y-22818390D01*
X25421966Y-22652781D01*
X25277219Y-22508034D01*
X25217792Y-22464858D01*
X25189668Y-22434433D01*
X25169824Y-22420013D01*
X25157022Y-22399117D01*
X25151845Y-22393517D01*
X25143051Y-22376313D01*
X25119069Y-22337170D01*
X25103880Y-22241210D01*
X25126570Y-22146741D01*
X25183684Y-22068147D01*
X25266525Y-22017392D01*
X25268719Y-22016583D01*
X25271977Y-22015382D01*
X25358137Y-22000000D01*
X28571160Y-22000000D01*
X28619738Y-22004785D01*
X28636308Y-22008081D01*
X28726067Y-22045260D01*
X28794766Y-22113959D01*
X28831946Y-22203719D01*
X28831945Y-22300874D01*
X28794766Y-22390633D01*
X28794765Y-22390634D01*
X28791539Y-22395462D01*
X28730862Y-22458569D01*
X28662786Y-22508028D01*
X28662777Y-22508036D01*
X28518040Y-22652772D01*
X28518038Y-22652774D01*
X28397710Y-22818393D01*
X28397709Y-22818395D01*
X28304780Y-23000778D01*
X28304772Y-23000799D01*
X28241523Y-23195464D01*
X28241520Y-23195476D01*
X28209500Y-23397630D01*
X28209500Y-23602368D01*
X28241520Y-23804522D01*
X28241523Y-23804534D01*
X28304772Y-23999199D01*
X28304780Y-23999221D01*
X28304782Y-23999225D01*
X28304785Y-23999232D01*
X28394777Y-24175850D01*
X28394778Y-24175850D01*
X28397709Y-24181603D01*
X28397717Y-24181616D01*
X28518032Y-24347217D01*
X28518034Y-24347219D01*
X28662781Y-24491966D01*
X28828390Y-24612287D01*
X29010781Y-24705220D01*
X29010782Y-24705220D01*
X29010788Y-24705223D01*
X29145251Y-24748912D01*
X29205466Y-24768477D01*
X29221728Y-24771052D01*
X29276559Y-24779737D01*
X29276566Y-24779737D01*
X29276575Y-24779739D01*
X29407453Y-24800469D01*
X29407642Y-24800500D01*
X29612352Y-24800500D01*
X29612353Y-24800500D01*
X29612359Y-24800499D01*
X29612361Y-24800499D01*
X29707870Y-24785371D01*
X29814534Y-24768477D01*
X30009219Y-24705220D01*
X30191610Y-24612287D01*
X30357219Y-24491966D01*
X30447241Y-24401944D01*
X30484971Y-24370979D01*
X30502314Y-24359391D01*
X30592073Y-24322213D01*
X30689228Y-24322214D01*
X30778987Y-24359394D01*
X30778993Y-24359399D01*
X30784090Y-24362805D01*
X30841047Y-24415374D01*
X30843566Y-24418560D01*
X30860188Y-24442296D01*
X30890823Y-24491964D01*
X30907285Y-24518652D01*
X30907286Y-24518653D01*
X30907288Y-24518656D01*
X31031344Y-24642712D01*
X31031346Y-24642713D01*
X31039060Y-24647471D01*
X31106604Y-24710273D01*
X31180668Y-24734815D01*
X31180667Y-24734815D01*
X31333238Y-24785371D01*
X31344310Y-24789040D01*
X31344330Y-24789047D01*
X31345347Y-24789383D01*
X31347203Y-24789999D01*
X31449991Y-24800500D01*
X32650008Y-24800499D01*
X32752797Y-24789999D01*
X32919334Y-24734814D01*
X33068656Y-24642712D01*
X33192712Y-24518656D01*
X33284814Y-24369334D01*
X33339999Y-24202797D01*
X33350500Y-24100009D01*
X33350499Y-23976161D01*
X33355282Y-23927589D01*
X33358578Y-23911019D01*
X33395755Y-23821262D01*
X33464452Y-23752561D01*
X33554211Y-23715380D01*
X33651366Y-23715377D01*
X33741126Y-23752555D01*
X33741132Y-23752559D01*
X33755176Y-23761943D01*
X33792908Y-23792908D01*
X36661243Y-26661243D01*
X36715219Y-26742025D01*
X36734173Y-26837313D01*
X36734173Y-31226967D01*
X37809673Y-31226967D01*
X37904961Y-31245921D01*
X37985743Y-31299897D01*
X38039719Y-31380679D01*
X38058673Y-31475967D01*
X38058673Y-32667174D01*
X38053888Y-32715754D01*
X38049380Y-32738416D01*
X38012199Y-32828175D01*
X38012198Y-32828178D01*
X37999365Y-32847383D01*
X37968402Y-32885111D01*
X37959505Y-32894008D01*
X37921771Y-32924974D01*
X37881777Y-32951697D01*
X37838731Y-32974706D01*
X37786940Y-32996159D01*
X37740233Y-33010328D01*
X37693052Y-33019714D01*
X37644469Y-33024500D01*
X36508356Y-33024500D01*
X36459776Y-33019715D01*
X36437114Y-33015207D01*
X36347355Y-32978026D01*
X36328151Y-32965194D01*
X36290420Y-32934230D01*
X36256883Y-32900693D01*
X36256881Y-32900691D01*
X36198355Y-32842164D01*
X36198347Y-32842157D01*
X36198345Y-32842155D01*
X36198343Y-32842154D01*
X36051523Y-32751594D01*
X36047606Y-32750296D01*
X36043694Y-32749000D01*
X36043690Y-32748998D01*
X35887757Y-32697327D01*
X35887755Y-32697326D01*
X35887753Y-32697326D01*
X35832703Y-32691702D01*
X35786681Y-32687000D01*
X35786677Y-32687000D01*
X35786674Y-32687000D01*
X35213325Y-32687000D01*
X35175420Y-32690872D01*
X35112240Y-32697326D01*
X35004344Y-32733079D01*
X35004345Y-32733080D01*
X34965569Y-32745929D01*
X34965560Y-32745933D01*
X34948484Y-32751592D01*
X34948482Y-32751592D01*
X34948479Y-32751594D01*
X34932627Y-32761371D01*
X34932611Y-32761379D01*
X34801652Y-32842156D01*
X34679661Y-32964146D01*
X34679656Y-32964152D01*
X34642434Y-33024500D01*
X34589093Y-33110980D01*
X34574547Y-33154877D01*
X34534825Y-33274746D01*
X34533881Y-33280596D01*
X34533537Y-33287364D01*
X34524500Y-33375814D01*
X34524500Y-34074181D01*
X34528925Y-34117488D01*
X34534826Y-34175255D01*
X34589090Y-34339012D01*
X34589092Y-34339016D01*
X34589093Y-34339018D01*
X34589094Y-34339020D01*
X34671100Y-34471974D01*
X34679657Y-34485847D01*
X34801646Y-34607837D01*
X34801649Y-34607839D01*
X34801652Y-34607842D01*
X34948480Y-34698406D01*
X34948882Y-34698654D01*
X34953617Y-34700109D01*
X35112247Y-34752674D01*
X35213323Y-34763000D01*
X35786676Y-34762999D01*
X35887753Y-34752674D01*
X36051516Y-34698408D01*
X36177295Y-34620827D01*
X36198347Y-34607842D01*
X36198347Y-34607841D01*
X36198348Y-34607840D01*
X36198350Y-34607840D01*
X36198350Y-34607839D01*
X36198424Y-34607794D01*
X36209546Y-34600933D01*
X36222824Y-34583365D01*
X36290426Y-34515763D01*
X36328140Y-34484812D01*
X36347358Y-34471970D01*
X36437110Y-34434793D01*
X36437116Y-34434791D01*
X36443699Y-34433481D01*
X36459785Y-34430283D01*
X36508355Y-34425500D01*
X37145145Y-34425500D01*
X37193721Y-34430284D01*
X37214178Y-34434353D01*
X37303938Y-34471532D01*
X37372637Y-34540231D01*
X37409816Y-34629984D01*
X37413886Y-34650442D01*
X37418672Y-34699027D01*
X37418672Y-37066365D01*
X37418613Y-37071799D01*
X37418494Y-37077251D01*
X37418316Y-37082679D01*
X37404260Y-37404597D01*
X37403550Y-37415435D01*
X37402603Y-37426260D01*
X37401420Y-37437061D01*
X37360422Y-37748475D01*
X37358768Y-37759216D01*
X37356888Y-37769877D01*
X37354770Y-37780529D01*
X37286782Y-38087199D01*
X37284204Y-38097734D01*
X37281398Y-38108209D01*
X37278354Y-38118656D01*
X37183900Y-38418226D01*
X37180402Y-38428529D01*
X37176696Y-38438709D01*
X37172764Y-38448818D01*
X37052560Y-38739016D01*
X37048184Y-38748961D01*
X37043602Y-38758787D01*
X37038798Y-38768529D01*
X36984039Y-38873721D01*
X36957360Y-38914606D01*
X36942899Y-38932623D01*
X36868532Y-38995038D01*
X36865273Y-38996827D01*
X36783336Y-39024653D01*
X36770681Y-39026601D01*
X36732798Y-39029500D01*
X36643693Y-39029500D01*
X36433769Y-39062750D01*
X36433755Y-39062754D01*
X36231596Y-39128439D01*
X36042180Y-39224951D01*
X35870204Y-39349898D01*
X35719898Y-39500204D01*
X35594951Y-39672180D01*
X35498439Y-39861596D01*
X35432754Y-40063755D01*
X35432750Y-40063769D01*
X35399500Y-40273693D01*
X35399500Y-40486305D01*
X35432751Y-40696231D01*
X35432764Y-40696285D01*
X35433036Y-40697111D01*
X35498443Y-40898412D01*
X35594949Y-41087816D01*
X35719896Y-41259792D01*
X35870208Y-41410104D01*
X36042184Y-41535051D01*
X36231588Y-41631557D01*
X36433757Y-41697246D01*
X36502469Y-41708129D01*
X36643425Y-41730455D01*
X36643703Y-41730500D01*
X36856287Y-41730500D01*
X36856292Y-41730500D01*
X36856418Y-41730479D01*
X36955476Y-41714789D01*
X36955478Y-41714789D01*
X37066237Y-41697247D01*
X37066237Y-41697246D01*
X37066243Y-41697246D01*
X37268412Y-41631557D01*
X37457816Y-41535051D01*
X37629792Y-41410104D01*
X37780104Y-41259792D01*
X37804140Y-41226707D01*
X37836559Y-41190224D01*
X37851878Y-41176063D01*
X37934710Y-41125302D01*
X38030669Y-41110102D01*
X38125140Y-41132780D01*
X38129997Y-41135019D01*
X38208598Y-41192124D01*
X38227200Y-41214790D01*
X38259895Y-41259791D01*
X38259898Y-41259794D01*
X38410201Y-41410098D01*
X38410206Y-41410103D01*
X38451948Y-41440430D01*
X38501231Y-41489069D01*
X38503107Y-41490672D01*
X38503990Y-41491792D01*
X38505093Y-41492881D01*
X38508999Y-41498112D01*
X38509152Y-41498340D01*
X38509245Y-41498440D01*
X38511444Y-41501385D01*
X38530996Y-41542371D01*
X38551596Y-41582808D01*
X38551854Y-41586095D01*
X38553275Y-41589073D01*
X38555653Y-41634407D01*
X38559212Y-41679664D01*
X38558192Y-41682801D01*
X38558365Y-41686094D01*
X38543211Y-41728896D01*
X38529182Y-41772062D01*
X38529138Y-41772141D01*
X38528990Y-41772405D01*
X38526768Y-41775337D01*
X38525940Y-41777679D01*
X38519996Y-41784280D01*
X38487862Y-41826713D01*
X38476986Y-41837589D01*
X38447276Y-41862963D01*
X38410208Y-41889894D01*
X38259898Y-42040204D01*
X38134951Y-42212180D01*
X38038439Y-42401596D01*
X37972754Y-42603755D01*
X37972750Y-42603769D01*
X37939500Y-42813693D01*
X37939500Y-43026305D01*
X37972751Y-43236231D01*
X37972764Y-43236285D01*
X37973036Y-43237111D01*
X38034174Y-43425275D01*
X38038443Y-43438412D01*
X38134949Y-43627816D01*
X38259896Y-43799792D01*
X38410208Y-43950104D01*
X38582184Y-44075051D01*
X38771588Y-44171557D01*
X38973757Y-44237246D01*
X38973760Y-44237246D01*
X38973762Y-44237247D01*
X39047586Y-44248939D01*
X39047591Y-44248939D01*
X39047601Y-44248941D01*
X39183612Y-44270484D01*
X39183708Y-44270500D01*
X39396287Y-44270500D01*
X39396292Y-44270500D01*
X39396418Y-44270479D01*
X39495476Y-44254789D01*
X39495478Y-44254789D01*
X39606237Y-44237247D01*
X39606237Y-44237246D01*
X39606243Y-44237246D01*
X39808412Y-44171557D01*
X39997816Y-44075051D01*
X40169792Y-43950104D01*
X40320104Y-43799792D01*
X40403266Y-43685327D01*
X40435676Y-43648853D01*
X40459081Y-43627217D01*
X40541913Y-43576458D01*
X40579511Y-43565853D01*
X40681825Y-43545501D01*
X40800208Y-43496465D01*
X40819999Y-43483241D01*
X40906750Y-43425277D01*
X41576267Y-42755758D01*
X41613989Y-42724800D01*
X41628042Y-42715411D01*
X41717797Y-42678233D01*
X41814952Y-42678232D01*
X41904712Y-42715411D01*
X41973411Y-42784110D01*
X42010590Y-42873862D01*
X42013887Y-42890434D01*
X42018673Y-42939020D01*
X42018673Y-48433713D01*
X42013888Y-48482293D01*
X42009380Y-48504955D01*
X41972199Y-48594714D01*
X41959365Y-48613921D01*
X41928401Y-48651652D01*
X40820825Y-49759228D01*
X40783094Y-49790192D01*
X40763887Y-49803026D01*
X40674130Y-49840207D01*
X40651469Y-49844715D01*
X40602887Y-49849500D01*
X37897111Y-49849500D01*
X37848531Y-49844715D01*
X37825869Y-49840207D01*
X37736112Y-49803028D01*
X37716909Y-49790197D01*
X37679175Y-49759229D01*
X37621289Y-49701342D01*
X37590331Y-49663621D01*
X37579010Y-49646678D01*
X37541831Y-49556926D01*
X37541828Y-49459771D01*
X37579005Y-49370010D01*
X37643227Y-49304371D01*
X37657985Y-49294038D01*
X37657984Y-49294037D01*
X37678733Y-49279510D01*
X37690815Y-49271564D01*
X37818656Y-49192712D01*
X37942712Y-49068656D01*
X38034814Y-48919334D01*
X38089999Y-48752797D01*
X38100500Y-48650009D01*
X38100499Y-47349992D01*
X38089999Y-47247203D01*
X38080609Y-47218869D01*
X38075998Y-47204951D01*
X38075998Y-47204950D01*
X38044018Y-47108441D01*
X38034814Y-47080666D01*
X37942712Y-46931344D01*
X37818656Y-46807288D01*
X37818653Y-46807286D01*
X37818652Y-46807285D01*
X37794560Y-46792425D01*
X37755732Y-46762854D01*
X37740454Y-46748649D01*
X37683579Y-46669886D01*
X37661174Y-46575350D01*
X37676637Y-46479474D01*
X37678777Y-46473724D01*
X37716839Y-46406101D01*
X37719371Y-46402898D01*
X37738594Y-46381302D01*
X37780100Y-46339796D01*
X37780104Y-46339792D01*
X37905051Y-46167816D01*
X38001557Y-45978412D01*
X38067246Y-45776243D01*
X38100500Y-45566287D01*
X38100500Y-45353713D01*
X38100500Y-45353705D01*
X38100452Y-45353405D01*
X38070312Y-45163113D01*
X38070311Y-45163111D01*
X38067246Y-45143759D01*
X38067246Y-45143757D01*
X38001557Y-44941588D01*
X37905051Y-44752184D01*
X37780104Y-44580208D01*
X37629792Y-44429896D01*
X37457816Y-44304949D01*
X37268412Y-44208443D01*
X37268409Y-44208442D01*
X37268407Y-44208441D01*
X37268405Y-44208440D01*
X37066243Y-44142754D01*
X37066240Y-44142753D01*
X37066238Y-44142752D01*
X37066229Y-44142750D01*
X36856305Y-44109500D01*
X36856296Y-44109500D01*
X36856287Y-44109500D01*
X36643713Y-44109500D01*
X36643703Y-44109500D01*
X36643693Y-44109500D01*
X36433769Y-44142750D01*
X36433755Y-44142754D01*
X36231596Y-44208439D01*
X36042180Y-44304951D01*
X35870201Y-44429900D01*
X35870199Y-44429902D01*
X35719895Y-44580207D01*
X35719889Y-44580213D01*
X35642295Y-44687016D01*
X35609869Y-44723507D01*
X35592904Y-44739189D01*
X35510084Y-44789944D01*
X35498808Y-44794104D01*
X35412613Y-44809500D01*
X34975925Y-44809500D01*
X34850258Y-44834497D01*
X34850254Y-44834498D01*
X34746995Y-44877269D01*
X34731874Y-44883533D01*
X34731873Y-44883533D01*
X34625331Y-44954722D01*
X33494719Y-46085334D01*
X33421961Y-46194225D01*
X33418169Y-46204823D01*
X33374497Y-46310259D01*
X33374497Y-46310260D01*
X33349500Y-46435925D01*
X33349500Y-47099817D01*
X33344715Y-47148399D01*
X33340955Y-47167300D01*
X33303773Y-47257059D01*
X33235073Y-47325756D01*
X33145313Y-47362934D01*
X33048158Y-47362933D01*
X33048138Y-47362929D01*
X33043867Y-47362079D01*
X32970807Y-47335122D01*
X32966957Y-47332966D01*
X32942262Y-47317158D01*
X32787831Y-47204959D01*
X32787824Y-47204954D01*
X32787819Y-47204951D01*
X32787818Y-47204950D01*
X32787816Y-47204949D01*
X32787809Y-47204945D01*
X32787751Y-47204912D01*
X32787099Y-47204583D01*
X32785443Y-47203740D01*
X32598412Y-47108443D01*
X32598409Y-47108442D01*
X32598407Y-47108441D01*
X32597998Y-47108308D01*
X32597996Y-47108307D01*
X32396243Y-47042754D01*
X32396240Y-47042753D01*
X32396238Y-47042752D01*
X32396229Y-47042750D01*
X32186305Y-47009500D01*
X32186296Y-47009500D01*
X32186287Y-47009500D01*
X31973713Y-47009500D01*
X31973703Y-47009500D01*
X31973693Y-47009500D01*
X31763769Y-47042750D01*
X31763755Y-47042754D01*
X31561596Y-47108439D01*
X31372180Y-47204951D01*
X31200204Y-47329898D01*
X31049898Y-47480204D01*
X30924951Y-47652180D01*
X30828439Y-47841596D01*
X30762754Y-48043755D01*
X30762750Y-48043769D01*
X30729500Y-48253693D01*
X30729500Y-48466305D01*
X30762751Y-48676231D01*
X30762751Y-48676234D01*
X30762753Y-48676240D01*
X30787629Y-48752802D01*
X30787630Y-48752804D01*
X30787629Y-48752804D01*
X30828441Y-48878408D01*
X30828442Y-48878411D01*
X30828443Y-48878412D01*
X30924949Y-49067816D01*
X31049896Y-49239792D01*
X31200208Y-49390104D01*
X31372184Y-49515051D01*
X31561588Y-49611557D01*
X31763757Y-49677246D01*
X31763760Y-49677246D01*
X31763762Y-49677247D01*
X31837586Y-49688939D01*
X31837591Y-49688939D01*
X31837601Y-49688941D01*
X31973612Y-49710484D01*
X31973708Y-49710500D01*
X32186287Y-49710500D01*
X32186292Y-49710500D01*
X32186418Y-49710479D01*
X32285476Y-49694789D01*
X32285478Y-49694789D01*
X32396237Y-49677247D01*
X32396237Y-49677246D01*
X32396243Y-49677246D01*
X32598412Y-49611557D01*
X32787816Y-49515051D01*
X32936085Y-49407326D01*
X32978180Y-49382653D01*
X32995698Y-49374578D01*
X33090162Y-49351901D01*
X33186121Y-49367100D01*
X33268958Y-49417865D01*
X33326059Y-49496456D01*
X33331290Y-49507802D01*
X33349381Y-49563474D01*
X33366671Y-49650390D01*
X33366682Y-49650502D01*
X33366693Y-49650500D01*
X33366822Y-49651150D01*
X33366821Y-49651150D01*
X33374338Y-49688941D01*
X33374498Y-49689741D01*
X33421422Y-49803028D01*
X33423536Y-49808131D01*
X33464177Y-49868954D01*
X33476701Y-49887697D01*
X33494723Y-49914669D01*
X36085331Y-52505277D01*
X36085334Y-52505279D01*
X36085429Y-52505357D01*
X36085539Y-52505416D01*
X36172199Y-52563319D01*
X36172203Y-52563322D01*
X36191870Y-52576463D01*
X36191877Y-52576467D01*
X36226546Y-52590826D01*
X36226548Y-52590828D01*
X36226549Y-52590828D01*
X36310256Y-52625501D01*
X36357625Y-52634923D01*
X36411876Y-52645715D01*
X36427651Y-52650500D01*
X41564070Y-52650500D01*
X41590589Y-52650500D01*
X41591436Y-52649934D01*
X41595787Y-52648180D01*
X41616414Y-52640087D01*
X41689744Y-52625501D01*
X41808127Y-52576465D01*
X41827800Y-52563320D01*
X41914669Y-52505277D01*
X44444450Y-49975496D01*
X44515639Y-49868953D01*
X44564674Y-49750570D01*
X44576774Y-49689744D01*
X44589673Y-49624896D01*
X44589673Y-33732158D01*
X44594457Y-33683585D01*
X44598526Y-33663127D01*
X44635704Y-33573366D01*
X44704402Y-33504666D01*
X44794154Y-33467487D01*
X44797029Y-33466915D01*
X44880691Y-33464611D01*
X44890694Y-33466034D01*
X44925073Y-33473437D01*
X44956604Y-33482598D01*
X44956602Y-33482598D01*
X44976493Y-33484163D01*
X44993479Y-33485500D01*
X44993481Y-33485500D01*
X45388301Y-33485500D01*
X45424865Y-33485500D01*
X45424867Y-33485500D01*
X45461742Y-33482598D01*
X45461752Y-33482595D01*
X45470923Y-33480920D01*
X45474340Y-33480731D01*
X45474536Y-33481804D01*
X45509259Y-33478796D01*
X45513121Y-33478582D01*
X45557468Y-33484875D01*
X45601979Y-33489789D01*
X45605420Y-33491680D01*
X45609312Y-33492233D01*
X45647878Y-33515021D01*
X45687117Y-33536592D01*
X45689573Y-33539658D01*
X45692956Y-33541657D01*
X45719860Y-33577461D01*
X45747864Y-33612414D01*
X45747868Y-33612422D01*
X45749218Y-33615021D01*
X45750061Y-33617652D01*
X45751320Y-33619327D01*
X45754244Y-33630697D01*
X45774763Y-33694696D01*
X45776186Y-33704689D01*
X45778673Y-33739792D01*
X45778673Y-34575576D01*
X45773888Y-34624154D01*
X45764503Y-34671335D01*
X45750334Y-34718046D01*
X45730260Y-34766506D01*
X45730261Y-34766507D01*
X45699500Y-34921154D01*
X45699500Y-35078850D01*
X45730260Y-35233490D01*
X45730261Y-35233492D01*
X45730263Y-35233497D01*
X45790603Y-35379173D01*
X45790606Y-35379180D01*
X45878208Y-35510285D01*
X45878211Y-35510289D01*
X45989711Y-35621789D01*
X45989714Y-35621791D01*
X46120819Y-35709393D01*
X46120820Y-35709393D01*
X46120821Y-35709394D01*
X46258361Y-35766364D01*
X46265168Y-35769471D01*
X46266500Y-35769736D01*
X46266503Y-35769737D01*
X46266505Y-35769737D01*
X46266507Y-35769738D01*
X46417148Y-35799702D01*
X46417147Y-35799704D01*
X46417174Y-35799707D01*
X46421158Y-35800500D01*
X46578842Y-35800500D01*
X46733497Y-35769737D01*
X46879179Y-35709394D01*
X47010289Y-35621789D01*
X47121789Y-35510289D01*
X47209394Y-35379179D01*
X47269737Y-35233497D01*
X47300500Y-35078842D01*
X47300500Y-34921158D01*
X47269737Y-34766503D01*
X47237618Y-34688961D01*
X47213548Y-34630850D01*
X47205325Y-34607866D01*
X47190393Y-34558639D01*
X47179673Y-34486363D01*
X47179673Y-33274692D01*
X47184457Y-33226117D01*
X47191808Y-33189159D01*
X47221701Y-33110980D01*
X47230917Y-33095398D01*
X47276771Y-32937569D01*
X47279673Y-32900694D01*
X47279673Y-32773527D01*
X47284457Y-32724954D01*
X47288526Y-32704496D01*
X47325704Y-32614735D01*
X47394402Y-32546035D01*
X47484159Y-32508854D01*
X47484162Y-32508853D01*
X47484169Y-32508853D01*
X47504627Y-32504784D01*
X47553200Y-32500000D01*
X48250973Y-32500000D01*
X48299549Y-32504784D01*
X48320006Y-32508853D01*
X48409766Y-32546032D01*
X48478465Y-32614731D01*
X48515644Y-32704484D01*
X48519714Y-32724942D01*
X48524500Y-32773527D01*
X48524500Y-52986645D01*
X48524341Y-52995542D01*
X48524023Y-53004436D01*
X48523548Y-53013302D01*
X48510887Y-53190329D01*
X48508986Y-53208006D01*
X48506460Y-53225573D01*
X48503304Y-53243063D01*
X48468422Y-53403409D01*
X48464026Y-53420633D01*
X48459030Y-53437647D01*
X48453417Y-53454510D01*
X48396066Y-53608274D01*
X48389263Y-53624699D01*
X48381884Y-53640856D01*
X48373929Y-53656746D01*
X48295292Y-53800760D01*
X48286223Y-53816047D01*
X48276623Y-53830985D01*
X48266485Y-53845586D01*
X48168139Y-53976961D01*
X48156985Y-53990802D01*
X48145379Y-54004196D01*
X48133268Y-54017205D01*
X48017205Y-54133268D01*
X48004196Y-54145379D01*
X47990802Y-54156985D01*
X47976961Y-54168139D01*
X47845586Y-54266485D01*
X47830985Y-54276623D01*
X47816047Y-54286223D01*
X47800760Y-54295292D01*
X47656746Y-54373929D01*
X47640856Y-54381884D01*
X47624699Y-54389263D01*
X47608274Y-54396066D01*
X47454510Y-54453417D01*
X47437651Y-54459028D01*
X47420631Y-54464026D01*
X47403416Y-54468420D01*
X47271064Y-54497212D01*
X47271055Y-54497214D01*
X47243046Y-54503306D01*
X47225571Y-54506459D01*
X47208007Y-54508985D01*
X47190325Y-54510887D01*
X47013304Y-54523548D01*
X47004438Y-54524023D01*
X46995545Y-54524341D01*
X46986647Y-54524500D01*
X3013353Y-54524500D01*
X3004456Y-54524341D01*
X2995562Y-54524023D01*
X2986696Y-54523548D01*
X2809663Y-54510887D01*
X2791974Y-54508984D01*
X2774427Y-54506460D01*
X2756948Y-54503306D01*
X2663600Y-54482998D01*
X2663600Y-54482999D01*
X2596585Y-54468421D01*
X2579367Y-54464026D01*
X2562347Y-54459028D01*
X2545488Y-54453417D01*
X2391724Y-54396066D01*
X2375299Y-54389263D01*
X2359142Y-54381884D01*
X2343252Y-54373929D01*
X2199238Y-54295292D01*
X2183951Y-54286223D01*
X2169013Y-54276623D01*
X2154412Y-54266485D01*
X2150062Y-54263228D01*
X2023028Y-54168131D01*
X2009208Y-54156995D01*
X1995796Y-54145373D01*
X1982793Y-54133268D01*
X1866730Y-54017205D01*
X1854619Y-54004196D01*
X1843000Y-53990786D01*
X1831869Y-53976974D01*
X1733510Y-53845581D01*
X1723375Y-53830985D01*
X1713775Y-53816047D01*
X1704706Y-53800760D01*
X1626069Y-53656746D01*
X1618114Y-53640856D01*
X1610735Y-53624699D01*
X1603943Y-53608302D01*
X1546579Y-53454505D01*
X1540973Y-53437660D01*
X1535973Y-53420633D01*
X1531576Y-53403406D01*
X1496691Y-53243045D01*
X1493536Y-53225561D01*
X1491014Y-53208025D01*
X1489113Y-53190357D01*
X1476449Y-53013276D01*
X1475975Y-53004408D01*
X1475658Y-52995513D01*
X1475500Y-52986645D01*
X1475500Y-48253693D01*
X4569500Y-48253693D01*
X4569500Y-48466305D01*
X4602751Y-48676231D01*
X4602751Y-48676234D01*
X4602753Y-48676240D01*
X4627629Y-48752802D01*
X4627630Y-48752804D01*
X4627629Y-48752804D01*
X4668441Y-48878408D01*
X4668442Y-48878411D01*
X4668443Y-48878412D01*
X4764949Y-49067816D01*
X4889896Y-49239792D01*
X5040208Y-49390104D01*
X5212184Y-49515051D01*
X5401588Y-49611557D01*
X5603757Y-49677246D01*
X5603760Y-49677246D01*
X5603762Y-49677247D01*
X5677586Y-49688939D01*
X5677591Y-49688939D01*
X5677601Y-49688941D01*
X5813612Y-49710484D01*
X5813708Y-49710500D01*
X6026287Y-49710500D01*
X6026292Y-49710500D01*
X6026418Y-49710479D01*
X6125476Y-49694789D01*
X6125478Y-49694789D01*
X6236237Y-49677247D01*
X6236237Y-49677246D01*
X6236243Y-49677246D01*
X6438412Y-49611557D01*
X6627816Y-49515051D01*
X6799792Y-49390104D01*
X6950104Y-49239792D01*
X7075051Y-49067816D01*
X7171557Y-48878412D01*
X7237246Y-48676243D01*
X7243887Y-48634311D01*
X7252729Y-48578485D01*
X7252729Y-48578481D01*
X7254789Y-48565476D01*
X7270499Y-48466296D01*
X7270500Y-48466284D01*
X7270500Y-48253715D01*
X7270499Y-48253703D01*
X7270497Y-48253693D01*
X14729500Y-48253693D01*
X14729500Y-48466305D01*
X14762751Y-48676231D01*
X14762751Y-48676234D01*
X14762753Y-48676240D01*
X14787629Y-48752802D01*
X14787630Y-48752804D01*
X14787629Y-48752804D01*
X14828441Y-48878408D01*
X14828442Y-48878411D01*
X14828443Y-48878412D01*
X14924949Y-49067816D01*
X15049896Y-49239792D01*
X15200208Y-49390104D01*
X15372184Y-49515051D01*
X15561588Y-49611557D01*
X15763757Y-49677246D01*
X15763760Y-49677246D01*
X15763762Y-49677247D01*
X15837586Y-49688939D01*
X15837591Y-49688939D01*
X15837601Y-49688941D01*
X15973612Y-49710484D01*
X15973708Y-49710500D01*
X16186287Y-49710500D01*
X16186292Y-49710500D01*
X16186418Y-49710479D01*
X16285476Y-49694789D01*
X16285478Y-49694789D01*
X16396237Y-49677247D01*
X16396237Y-49677246D01*
X16396243Y-49677246D01*
X16598412Y-49611557D01*
X16787816Y-49515051D01*
X16959792Y-49390104D01*
X17110104Y-49239792D01*
X17235051Y-49067816D01*
X17331557Y-48878412D01*
X17397246Y-48676243D01*
X17403887Y-48634311D01*
X17412729Y-48578485D01*
X17412729Y-48578481D01*
X17414789Y-48565476D01*
X17430499Y-48466296D01*
X17430500Y-48466284D01*
X17430500Y-48253715D01*
X17430499Y-48253703D01*
X17430497Y-48253693D01*
X20569500Y-48253693D01*
X20569500Y-48466305D01*
X20602751Y-48676231D01*
X20602751Y-48676234D01*
X20602753Y-48676240D01*
X20627629Y-48752802D01*
X20627630Y-48752804D01*
X20627629Y-48752804D01*
X20668441Y-48878408D01*
X20668442Y-48878411D01*
X20668443Y-48878412D01*
X20764949Y-49067816D01*
X20889896Y-49239792D01*
X21040208Y-49390104D01*
X21212184Y-49515051D01*
X21401588Y-49611557D01*
X21603757Y-49677246D01*
X21603760Y-49677246D01*
X21603762Y-49677247D01*
X21677586Y-49688939D01*
X21677591Y-49688939D01*
X21677601Y-49688941D01*
X21813612Y-49710484D01*
X21813708Y-49710500D01*
X22026287Y-49710500D01*
X22026292Y-49710500D01*
X22026418Y-49710479D01*
X22125476Y-49694789D01*
X22125478Y-49694789D01*
X22236237Y-49677247D01*
X22236237Y-49677246D01*
X22236243Y-49677246D01*
X22438412Y-49611557D01*
X22627816Y-49515051D01*
X22799792Y-49390104D01*
X22950104Y-49239792D01*
X23075051Y-49067816D01*
X23171557Y-48878412D01*
X23237246Y-48676243D01*
X23241401Y-48650009D01*
X23254787Y-48565493D01*
X23254787Y-48565483D01*
X23254789Y-48565476D01*
X23270499Y-48466296D01*
X23270500Y-48466284D01*
X23270500Y-48253715D01*
X23270499Y-48253703D01*
X23237246Y-48043759D01*
X23237246Y-48043757D01*
X23171557Y-47841588D01*
X23075051Y-47652184D01*
X22950104Y-47480208D01*
X22799792Y-47329896D01*
X22627816Y-47204949D01*
X22438412Y-47108443D01*
X22438411Y-47108442D01*
X22438406Y-47108440D01*
X22236243Y-47042754D01*
X22236240Y-47042753D01*
X22236238Y-47042752D01*
X22236229Y-47042750D01*
X22026305Y-47009500D01*
X22026296Y-47009500D01*
X22026287Y-47009500D01*
X21813713Y-47009500D01*
X21813703Y-47009500D01*
X21813693Y-47009500D01*
X21603769Y-47042750D01*
X21603755Y-47042754D01*
X21401596Y-47108439D01*
X21212180Y-47204951D01*
X21040204Y-47329898D01*
X20889898Y-47480204D01*
X20764951Y-47652180D01*
X20668439Y-47841596D01*
X20602754Y-48043755D01*
X20602750Y-48043769D01*
X20569500Y-48253693D01*
X17430497Y-48253693D01*
X17397246Y-48043759D01*
X17397246Y-48043757D01*
X17331557Y-47841588D01*
X17235051Y-47652184D01*
X17110104Y-47480208D01*
X16959792Y-47329896D01*
X16787816Y-47204949D01*
X16598412Y-47108443D01*
X16598411Y-47108442D01*
X16598406Y-47108440D01*
X16396243Y-47042754D01*
X16396240Y-47042753D01*
X16396238Y-47042752D01*
X16396229Y-47042750D01*
X16186305Y-47009500D01*
X16186296Y-47009500D01*
X16186287Y-47009500D01*
X15973713Y-47009500D01*
X15973703Y-47009500D01*
X15973693Y-47009500D01*
X15763769Y-47042750D01*
X15763755Y-47042754D01*
X15561596Y-47108439D01*
X15372180Y-47204951D01*
X15200204Y-47329898D01*
X15049898Y-47480204D01*
X14924951Y-47652180D01*
X14828439Y-47841596D01*
X14762754Y-48043755D01*
X14762750Y-48043769D01*
X14729500Y-48253693D01*
X7270497Y-48253693D01*
X7237246Y-48043759D01*
X7237246Y-48043757D01*
X7171557Y-47841588D01*
X7075051Y-47652184D01*
X6950104Y-47480208D01*
X6799792Y-47329896D01*
X6627816Y-47204949D01*
X6438412Y-47108443D01*
X6438411Y-47108442D01*
X6438406Y-47108440D01*
X6236243Y-47042754D01*
X6236240Y-47042753D01*
X6236238Y-47042752D01*
X6236229Y-47042750D01*
X6026305Y-47009500D01*
X6026296Y-47009500D01*
X6026287Y-47009500D01*
X5813713Y-47009500D01*
X5813703Y-47009500D01*
X5813693Y-47009500D01*
X5603769Y-47042750D01*
X5603755Y-47042754D01*
X5401596Y-47108439D01*
X5212180Y-47204951D01*
X5040204Y-47329898D01*
X4889898Y-47480204D01*
X4764951Y-47652180D01*
X4668439Y-47841596D01*
X4602754Y-48043755D01*
X4602750Y-48043769D01*
X4569500Y-48253693D01*
X1475500Y-48253693D01*
X1475500Y-41852493D01*
X24749500Y-41852493D01*
X24749500Y-42147506D01*
X24758015Y-42212182D01*
X24782951Y-42401596D01*
X24788006Y-42439988D01*
X24820276Y-42560423D01*
X24864359Y-42724949D01*
X24864362Y-42724957D01*
X24926041Y-42873862D01*
X24977253Y-42997499D01*
X24977255Y-42997503D01*
X24977257Y-42997507D01*
X25022890Y-43076546D01*
X25085231Y-43184525D01*
X25124761Y-43252992D01*
X25124765Y-43252999D01*
X25267034Y-43438407D01*
X25267038Y-43438412D01*
X25304354Y-43487042D01*
X25512958Y-43695646D01*
X25747006Y-43875238D01*
X26002493Y-44022743D01*
X26275048Y-44135639D01*
X26560007Y-44211993D01*
X26751821Y-44237246D01*
X26852493Y-44250500D01*
X26852494Y-44250500D01*
X27147506Y-44250500D01*
X27147507Y-44250500D01*
X27196253Y-44244082D01*
X27439993Y-44211993D01*
X27724952Y-44135639D01*
X27997507Y-44022743D01*
X28252994Y-43875238D01*
X28487042Y-43695646D01*
X28695646Y-43487042D01*
X28875238Y-43252994D01*
X29022743Y-42997507D01*
X29135639Y-42724952D01*
X29211993Y-42439993D01*
X29250500Y-42147506D01*
X29250500Y-41852494D01*
X29211993Y-41560007D01*
X29135639Y-41275048D01*
X29022743Y-41002493D01*
X28875238Y-40747006D01*
X28695646Y-40512958D01*
X28668984Y-40486296D01*
X28487050Y-40304361D01*
X28487031Y-40304344D01*
X28253000Y-40124766D01*
X28252996Y-40124764D01*
X28252994Y-40124762D01*
X28252989Y-40124759D01*
X28147351Y-40063769D01*
X28041364Y-40002577D01*
X28041364Y-40002578D01*
X27997502Y-39977254D01*
X27997484Y-39977246D01*
X27724957Y-39864362D01*
X27724953Y-39864361D01*
X27724951Y-39864360D01*
X27724950Y-39864360D01*
X27637376Y-39840895D01*
X27562957Y-39804195D01*
X27147507Y-39749500D01*
X27147506Y-39749500D01*
X26852494Y-39749500D01*
X26852493Y-39749500D01*
X26560015Y-39788005D01*
X26560012Y-39788005D01*
X26560011Y-39788006D01*
X26499793Y-39804141D01*
X26275049Y-39864359D01*
X26275041Y-39864362D01*
X26002514Y-39977246D01*
X26002496Y-39977255D01*
X26002493Y-39977256D01*
X25747016Y-40124755D01*
X25747005Y-40124762D01*
X25746998Y-40124766D01*
X25512971Y-40304341D01*
X25304341Y-40512971D01*
X25124766Y-40746998D01*
X25124762Y-40747005D01*
X25124755Y-40747016D01*
X24977256Y-41002492D01*
X24977246Y-41002514D01*
X24864362Y-41275041D01*
X24864359Y-41275049D01*
X24806585Y-41490672D01*
X24794695Y-41535049D01*
X24788006Y-41560012D01*
X24788005Y-41560015D01*
X24760044Y-41772405D01*
X24749500Y-41852493D01*
X1475500Y-41852493D01*
X1475500Y-38093693D01*
X4569500Y-38093693D01*
X4569500Y-38306303D01*
X4602752Y-38516238D01*
X4608745Y-38534683D01*
X4668441Y-38718408D01*
X4668442Y-38718411D01*
X4668443Y-38718412D01*
X4764949Y-38907816D01*
X4889896Y-39079792D01*
X5040208Y-39230104D01*
X5212184Y-39355051D01*
X5401588Y-39451557D01*
X5603757Y-39517246D01*
X5603760Y-39517246D01*
X5603762Y-39517247D01*
X5677586Y-39528939D01*
X5677591Y-39528939D01*
X5677601Y-39528941D01*
X5813612Y-39550484D01*
X5813708Y-39550500D01*
X6026287Y-39550500D01*
X6026292Y-39550500D01*
X6026418Y-39550479D01*
X6125476Y-39534789D01*
X6125478Y-39534789D01*
X6236237Y-39517247D01*
X6236237Y-39517246D01*
X6236243Y-39517246D01*
X6438412Y-39451557D01*
X6627816Y-39355051D01*
X6799792Y-39230104D01*
X6950104Y-39079792D01*
X7075051Y-38907816D01*
X7171557Y-38718412D01*
X7237246Y-38516243D01*
X7254789Y-38405476D01*
X7270499Y-38306296D01*
X7270500Y-38306284D01*
X7270500Y-38097037D01*
X7270500Y-38093713D01*
X7270499Y-38093710D01*
X7270499Y-38093703D01*
X7270497Y-38093693D01*
X14729500Y-38093693D01*
X14729500Y-38306303D01*
X14762752Y-38516238D01*
X14768745Y-38534683D01*
X14828441Y-38718408D01*
X14828442Y-38718411D01*
X14828443Y-38718412D01*
X14924949Y-38907816D01*
X15049896Y-39079792D01*
X15200208Y-39230104D01*
X15372184Y-39355051D01*
X15561588Y-39451557D01*
X15763757Y-39517246D01*
X15763760Y-39517246D01*
X15763762Y-39517247D01*
X15837586Y-39528939D01*
X15837591Y-39528939D01*
X15837601Y-39528941D01*
X15973612Y-39550484D01*
X15973708Y-39550500D01*
X16186287Y-39550500D01*
X16186292Y-39550500D01*
X16186418Y-39550479D01*
X16285476Y-39534789D01*
X16285478Y-39534789D01*
X16396237Y-39517247D01*
X16396237Y-39517246D01*
X16396243Y-39517246D01*
X16598412Y-39451557D01*
X16787816Y-39355051D01*
X16959792Y-39230104D01*
X17110104Y-39079792D01*
X17235051Y-38907816D01*
X17331557Y-38718412D01*
X17397246Y-38516243D01*
X17414789Y-38405476D01*
X17430499Y-38306296D01*
X17430500Y-38306284D01*
X17430500Y-38097037D01*
X17430500Y-38093713D01*
X17430499Y-38093710D01*
X17430499Y-38093703D01*
X17430497Y-38093693D01*
X20569500Y-38093693D01*
X20569500Y-38306303D01*
X20602752Y-38516238D01*
X20608745Y-38534683D01*
X20668441Y-38718408D01*
X20668442Y-38718411D01*
X20668443Y-38718412D01*
X20764949Y-38907816D01*
X20889896Y-39079792D01*
X21040208Y-39230104D01*
X21212184Y-39355051D01*
X21401588Y-39451557D01*
X21603757Y-39517246D01*
X21603760Y-39517246D01*
X21603762Y-39517247D01*
X21677586Y-39528939D01*
X21677591Y-39528939D01*
X21677601Y-39528941D01*
X21813612Y-39550484D01*
X21813708Y-39550500D01*
X22026287Y-39550500D01*
X22026292Y-39550500D01*
X22026418Y-39550479D01*
X22125476Y-39534789D01*
X22125478Y-39534789D01*
X22236237Y-39517247D01*
X22236237Y-39517246D01*
X22236243Y-39517246D01*
X22438412Y-39451557D01*
X22627816Y-39355051D01*
X22799792Y-39230104D01*
X22950104Y-39079792D01*
X23075051Y-38907816D01*
X23171557Y-38718412D01*
X23237246Y-38516243D01*
X23254789Y-38405476D01*
X23270499Y-38306296D01*
X23270500Y-38306284D01*
X23270500Y-38097037D01*
X23270500Y-38093713D01*
X23270499Y-38093710D01*
X23270499Y-38093703D01*
X23270497Y-38093693D01*
X30729500Y-38093693D01*
X30729500Y-38306303D01*
X30762752Y-38516238D01*
X30768745Y-38534683D01*
X30828441Y-38718408D01*
X30828442Y-38718411D01*
X30828443Y-38718412D01*
X30924949Y-38907816D01*
X31049896Y-39079792D01*
X31200208Y-39230104D01*
X31372184Y-39355051D01*
X31561588Y-39451557D01*
X31763757Y-39517246D01*
X31763760Y-39517246D01*
X31763762Y-39517247D01*
X31837586Y-39528939D01*
X31837591Y-39528939D01*
X31837601Y-39528941D01*
X31973612Y-39550484D01*
X31973708Y-39550500D01*
X32186287Y-39550500D01*
X32186292Y-39550500D01*
X32186418Y-39550479D01*
X32285476Y-39534789D01*
X32285478Y-39534789D01*
X32396237Y-39517247D01*
X32396237Y-39517246D01*
X32396243Y-39517246D01*
X32598412Y-39451557D01*
X32787816Y-39355051D01*
X32959792Y-39230104D01*
X33110104Y-39079792D01*
X33235051Y-38907816D01*
X33331557Y-38718412D01*
X33397246Y-38516243D01*
X33414789Y-38405476D01*
X33430499Y-38306296D01*
X33430500Y-38306284D01*
X33430500Y-38093705D01*
X33430452Y-38093405D01*
X33400312Y-37903113D01*
X33400311Y-37903111D01*
X33397246Y-37883759D01*
X33397246Y-37883757D01*
X33331557Y-37681588D01*
X33235051Y-37492184D01*
X33110104Y-37320208D01*
X32959792Y-37169896D01*
X32787816Y-37044949D01*
X32598412Y-36948443D01*
X32598409Y-36948442D01*
X32598407Y-36948441D01*
X32598405Y-36948440D01*
X32396243Y-36882754D01*
X32396240Y-36882753D01*
X32396238Y-36882752D01*
X32396229Y-36882750D01*
X32186305Y-36849500D01*
X32186296Y-36849500D01*
X32186287Y-36849500D01*
X31973713Y-36849500D01*
X31973703Y-36849500D01*
X31973693Y-36849500D01*
X31763769Y-36882750D01*
X31763755Y-36882754D01*
X31561596Y-36948439D01*
X31372180Y-37044951D01*
X31200204Y-37169898D01*
X31049898Y-37320204D01*
X30924951Y-37492180D01*
X30828439Y-37681596D01*
X30762754Y-37883755D01*
X30762750Y-37883769D01*
X30729500Y-38093693D01*
X23270497Y-38093693D01*
X23257156Y-38009461D01*
X23240312Y-37903113D01*
X23240311Y-37903111D01*
X23237246Y-37883759D01*
X23237246Y-37883757D01*
X23171557Y-37681588D01*
X23075051Y-37492184D01*
X22950104Y-37320208D01*
X22799792Y-37169896D01*
X22627816Y-37044949D01*
X22438412Y-36948443D01*
X22438409Y-36948442D01*
X22438407Y-36948441D01*
X22438405Y-36948440D01*
X22236243Y-36882754D01*
X22236240Y-36882753D01*
X22236238Y-36882752D01*
X22236229Y-36882750D01*
X22026305Y-36849500D01*
X22026296Y-36849500D01*
X22026287Y-36849500D01*
X21813713Y-36849500D01*
X21813703Y-36849500D01*
X21813693Y-36849500D01*
X21603769Y-36882750D01*
X21603755Y-36882754D01*
X21401596Y-36948439D01*
X21212180Y-37044951D01*
X21040204Y-37169898D01*
X20889898Y-37320204D01*
X20764951Y-37492180D01*
X20668439Y-37681596D01*
X20602754Y-37883755D01*
X20602750Y-37883769D01*
X20569500Y-38093693D01*
X17430497Y-38093693D01*
X17417156Y-38009461D01*
X17400312Y-37903113D01*
X17400311Y-37903111D01*
X17397246Y-37883759D01*
X17397246Y-37883757D01*
X17331557Y-37681588D01*
X17235051Y-37492184D01*
X17110104Y-37320208D01*
X16959792Y-37169896D01*
X16787816Y-37044949D01*
X16598412Y-36948443D01*
X16598409Y-36948442D01*
X16598407Y-36948441D01*
X16598405Y-36948440D01*
X16396243Y-36882754D01*
X16396240Y-36882753D01*
X16396238Y-36882752D01*
X16396229Y-36882750D01*
X16186305Y-36849500D01*
X16186296Y-36849500D01*
X16186287Y-36849500D01*
X15973713Y-36849500D01*
X15973703Y-36849500D01*
X15973693Y-36849500D01*
X15763769Y-36882750D01*
X15763755Y-36882754D01*
X15561596Y-36948439D01*
X15372180Y-37044951D01*
X15200204Y-37169898D01*
X15049898Y-37320204D01*
X14924951Y-37492180D01*
X14828439Y-37681596D01*
X14762754Y-37883755D01*
X14762750Y-37883769D01*
X14729500Y-38093693D01*
X7270497Y-38093693D01*
X7257156Y-38009461D01*
X7240312Y-37903113D01*
X7240311Y-37903111D01*
X7237246Y-37883759D01*
X7237246Y-37883757D01*
X7171557Y-37681588D01*
X7075051Y-37492184D01*
X6950104Y-37320208D01*
X6799792Y-37169896D01*
X6627816Y-37044949D01*
X6438412Y-36948443D01*
X6438409Y-36948442D01*
X6438407Y-36948441D01*
X6438405Y-36948440D01*
X6236243Y-36882754D01*
X6236240Y-36882753D01*
X6236238Y-36882752D01*
X6236229Y-36882750D01*
X6026305Y-36849500D01*
X6026296Y-36849500D01*
X6026287Y-36849500D01*
X5813713Y-36849500D01*
X5813703Y-36849500D01*
X5813693Y-36849500D01*
X5603769Y-36882750D01*
X5603755Y-36882754D01*
X5401596Y-36948439D01*
X5212180Y-37044951D01*
X5040204Y-37169898D01*
X4889898Y-37320204D01*
X4764951Y-37492180D01*
X4668439Y-37681596D01*
X4602754Y-37883755D01*
X4602750Y-37883769D01*
X4569500Y-38093693D01*
X1475500Y-38093693D01*
X1475500Y-31017630D01*
X12969500Y-31017630D01*
X12969500Y-31222368D01*
X13001520Y-31424522D01*
X13001523Y-31424534D01*
X13064772Y-31619199D01*
X13064780Y-31619221D01*
X13064782Y-31619225D01*
X13064785Y-31619232D01*
X13154777Y-31795850D01*
X13154778Y-31795850D01*
X13157709Y-31801603D01*
X13157717Y-31801616D01*
X13278032Y-31967217D01*
X13278034Y-31967219D01*
X13422781Y-32111966D01*
X13588390Y-32232287D01*
X13770781Y-32325220D01*
X13770782Y-32325220D01*
X13770788Y-32325223D01*
X13905251Y-32368912D01*
X13965466Y-32388477D01*
X13981728Y-32391052D01*
X14036559Y-32399737D01*
X14036566Y-32399737D01*
X14036575Y-32399739D01*
X14167453Y-32420469D01*
X14167642Y-32420500D01*
X14372352Y-32420500D01*
X14372353Y-32420500D01*
X14372359Y-32420499D01*
X14372361Y-32420499D01*
X14467870Y-32405371D01*
X14574534Y-32388477D01*
X14769219Y-32325220D01*
X14951610Y-32232287D01*
X15117219Y-32111966D01*
X15261966Y-31967219D01*
X15324144Y-31881635D01*
X15356555Y-31845161D01*
X15371884Y-31830992D01*
X15454717Y-31780234D01*
X15550676Y-31765036D01*
X15645019Y-31787659D01*
X15645851Y-31788042D01*
X15717800Y-31838157D01*
X15727587Y-31847944D01*
X15752962Y-31877655D01*
X15818033Y-31967217D01*
X15818036Y-31967221D01*
X15962774Y-32111960D01*
X15962776Y-32111962D01*
X15962779Y-32111964D01*
X15962781Y-32111966D01*
X16128390Y-32232287D01*
X16310781Y-32325220D01*
X16310782Y-32325220D01*
X16310788Y-32325223D01*
X16445251Y-32368912D01*
X16505466Y-32388477D01*
X16521728Y-32391052D01*
X16576559Y-32399737D01*
X16576566Y-32399737D01*
X16576575Y-32399739D01*
X16707453Y-32420469D01*
X16707642Y-32420500D01*
X16912352Y-32420500D01*
X16912353Y-32420500D01*
X16912359Y-32420499D01*
X16912361Y-32420499D01*
X17007870Y-32405371D01*
X17114534Y-32388477D01*
X17309219Y-32325220D01*
X17491610Y-32232287D01*
X17657219Y-32111966D01*
X17801966Y-31967219D01*
X17864144Y-31881635D01*
X17896555Y-31845161D01*
X17911884Y-31830992D01*
X17994717Y-31780234D01*
X18090676Y-31765036D01*
X18185019Y-31787659D01*
X18185851Y-31788042D01*
X18257800Y-31838157D01*
X18267587Y-31847944D01*
X18292962Y-31877655D01*
X18358033Y-31967217D01*
X18358036Y-31967221D01*
X18502774Y-32111960D01*
X18502776Y-32111962D01*
X18502779Y-32111964D01*
X18502781Y-32111966D01*
X18668390Y-32232287D01*
X18850781Y-32325220D01*
X18850782Y-32325220D01*
X18850788Y-32325223D01*
X18985251Y-32368912D01*
X19045466Y-32388477D01*
X19061728Y-32391052D01*
X19116559Y-32399737D01*
X19116566Y-32399737D01*
X19116575Y-32399739D01*
X19247453Y-32420469D01*
X19247642Y-32420500D01*
X19452352Y-32420500D01*
X19452353Y-32420500D01*
X19452359Y-32420499D01*
X19452361Y-32420499D01*
X19547870Y-32405371D01*
X19654534Y-32388477D01*
X19849219Y-32325220D01*
X20031610Y-32232287D01*
X20197219Y-32111966D01*
X20341966Y-31967219D01*
X20462287Y-31801610D01*
X20555220Y-31619219D01*
X20618477Y-31424534D01*
X20649769Y-31226967D01*
X20650499Y-31222361D01*
X20650500Y-31222349D01*
X20650500Y-31020966D01*
X20650500Y-31017648D01*
X20650499Y-31017645D01*
X20650499Y-31017638D01*
X20650498Y-31017630D01*
X23129500Y-31017630D01*
X23129500Y-31222368D01*
X23161520Y-31424522D01*
X23161523Y-31424534D01*
X23224772Y-31619199D01*
X23224780Y-31619221D01*
X23224782Y-31619225D01*
X23224785Y-31619232D01*
X23314777Y-31795850D01*
X23314778Y-31795850D01*
X23317709Y-31801603D01*
X23317717Y-31801616D01*
X23438032Y-31967217D01*
X23438034Y-31967219D01*
X23582781Y-32111966D01*
X23748390Y-32232287D01*
X23930781Y-32325220D01*
X23930782Y-32325220D01*
X23930788Y-32325223D01*
X24065251Y-32368912D01*
X24125466Y-32388477D01*
X24141728Y-32391052D01*
X24196559Y-32399737D01*
X24196566Y-32399737D01*
X24196575Y-32399739D01*
X24327453Y-32420469D01*
X24327642Y-32420500D01*
X24532352Y-32420500D01*
X24532353Y-32420500D01*
X24532359Y-32420499D01*
X24532361Y-32420499D01*
X24627870Y-32405371D01*
X24734534Y-32388477D01*
X24929219Y-32325220D01*
X25111610Y-32232287D01*
X25277219Y-32111966D01*
X25421966Y-31967219D01*
X25484144Y-31881635D01*
X25516555Y-31845161D01*
X25531884Y-31830992D01*
X25614717Y-31780234D01*
X25710676Y-31765036D01*
X25805019Y-31787659D01*
X25805851Y-31788042D01*
X25877800Y-31838157D01*
X25887587Y-31847944D01*
X25912962Y-31877655D01*
X25978033Y-31967217D01*
X25978036Y-31967221D01*
X26122774Y-32111960D01*
X26122776Y-32111962D01*
X26122779Y-32111964D01*
X26122781Y-32111966D01*
X26288390Y-32232287D01*
X26470781Y-32325220D01*
X26470782Y-32325220D01*
X26470788Y-32325223D01*
X26605251Y-32368912D01*
X26665466Y-32388477D01*
X26681728Y-32391052D01*
X26736559Y-32399737D01*
X26736566Y-32399737D01*
X26736575Y-32399739D01*
X26867453Y-32420469D01*
X26867642Y-32420500D01*
X27072352Y-32420500D01*
X27072353Y-32420500D01*
X27072359Y-32420499D01*
X27072361Y-32420499D01*
X27167870Y-32405371D01*
X27274534Y-32388477D01*
X27469219Y-32325220D01*
X27651610Y-32232287D01*
X27817219Y-32111966D01*
X27961966Y-31967219D01*
X28082287Y-31801610D01*
X28175220Y-31619219D01*
X28238477Y-31424534D01*
X28269769Y-31226967D01*
X28270499Y-31222361D01*
X28270500Y-31222349D01*
X28270500Y-31017640D01*
X28270458Y-31017378D01*
X28241543Y-30834823D01*
X28241542Y-30834820D01*
X28238476Y-30815461D01*
X28175221Y-30620785D01*
X28175220Y-30620781D01*
X28082287Y-30438390D01*
X27961966Y-30272781D01*
X27817219Y-30128034D01*
X27817215Y-30128031D01*
X27817214Y-30128030D01*
X27672880Y-30023165D01*
X27672861Y-30023153D01*
X27651610Y-30007713D01*
X27651609Y-30007712D01*
X27651607Y-30007711D01*
X27639409Y-30001495D01*
X27639397Y-30001488D01*
X27469225Y-29914782D01*
X27469221Y-29914780D01*
X27469199Y-29914772D01*
X27274534Y-29851523D01*
X27274531Y-29851522D01*
X27274528Y-29851521D01*
X27274522Y-29851520D01*
X27072368Y-29819500D01*
X27072361Y-29819500D01*
X27072352Y-29819500D01*
X26867648Y-29819500D01*
X26867638Y-29819500D01*
X26867630Y-29819500D01*
X26665476Y-29851520D01*
X26665464Y-29851523D01*
X26470799Y-29914772D01*
X26470778Y-29914780D01*
X26288395Y-30007709D01*
X26288393Y-30007710D01*
X26122774Y-30128038D01*
X26122772Y-30128040D01*
X25978038Y-30272775D01*
X25978034Y-30272779D01*
X25978033Y-30272781D01*
X25978030Y-30272785D01*
X25978003Y-30272821D01*
X25915858Y-30358357D01*
X25883435Y-30394844D01*
X25868120Y-30409001D01*
X25785282Y-30459764D01*
X25689323Y-30474962D01*
X25594910Y-30452308D01*
X25594904Y-30452305D01*
X25594081Y-30451926D01*
X25522202Y-30401843D01*
X25512409Y-30392050D01*
X25487034Y-30362339D01*
X25484141Y-30358357D01*
X25421969Y-30272785D01*
X25421966Y-30272781D01*
X25421960Y-30272775D01*
X25277226Y-30128040D01*
X25277215Y-30128031D01*
X25132876Y-30023163D01*
X25132864Y-30023155D01*
X25121748Y-30015079D01*
X25111610Y-30007713D01*
X25111609Y-30007712D01*
X25111607Y-30007711D01*
X25099411Y-30001496D01*
X25099399Y-30001489D01*
X24929225Y-29914782D01*
X24929221Y-29914780D01*
X24929199Y-29914772D01*
X24734534Y-29851523D01*
X24734531Y-29851522D01*
X24734528Y-29851521D01*
X24734522Y-29851520D01*
X24532368Y-29819500D01*
X24532361Y-29819500D01*
X24532352Y-29819500D01*
X24327648Y-29819500D01*
X24327638Y-29819500D01*
X24327630Y-29819500D01*
X24125476Y-29851520D01*
X24125464Y-29851523D01*
X23930799Y-29914772D01*
X23930778Y-29914780D01*
X23748395Y-30007709D01*
X23748393Y-30007710D01*
X23582777Y-30128036D01*
X23438036Y-30272777D01*
X23317710Y-30438393D01*
X23317709Y-30438395D01*
X23224780Y-30620778D01*
X23224772Y-30620799D01*
X23161523Y-30815464D01*
X23161520Y-30815476D01*
X23129500Y-31017630D01*
X20650498Y-31017630D01*
X20618477Y-30815468D01*
X20618477Y-30815466D01*
X20618476Y-30815464D01*
X20618476Y-30815461D01*
X20555221Y-30620785D01*
X20555220Y-30620781D01*
X20462287Y-30438390D01*
X20341966Y-30272781D01*
X20197219Y-30128034D01*
X20197215Y-30128031D01*
X20197214Y-30128030D01*
X20052880Y-30023165D01*
X20052861Y-30023153D01*
X20031610Y-30007713D01*
X20031609Y-30007712D01*
X20031607Y-30007711D01*
X20019409Y-30001495D01*
X20019397Y-30001488D01*
X19849225Y-29914782D01*
X19849221Y-29914780D01*
X19849199Y-29914772D01*
X19654534Y-29851523D01*
X19654531Y-29851522D01*
X19654528Y-29851521D01*
X19654522Y-29851520D01*
X19452368Y-29819500D01*
X19452361Y-29819500D01*
X19452352Y-29819500D01*
X19247648Y-29819500D01*
X19247638Y-29819500D01*
X19247630Y-29819500D01*
X19045476Y-29851520D01*
X19045464Y-29851523D01*
X18850799Y-29914772D01*
X18850778Y-29914780D01*
X18668395Y-30007709D01*
X18668393Y-30007710D01*
X18502774Y-30128038D01*
X18502772Y-30128040D01*
X18358038Y-30272775D01*
X18358034Y-30272779D01*
X18358033Y-30272781D01*
X18358030Y-30272785D01*
X18358003Y-30272821D01*
X18295858Y-30358357D01*
X18263435Y-30394844D01*
X18248120Y-30409001D01*
X18165282Y-30459764D01*
X18069323Y-30474962D01*
X17974910Y-30452308D01*
X17974904Y-30452305D01*
X17974081Y-30451926D01*
X17902202Y-30401843D01*
X17892409Y-30392050D01*
X17867034Y-30362339D01*
X17864141Y-30358357D01*
X17801969Y-30272785D01*
X17801966Y-30272781D01*
X17801960Y-30272775D01*
X17657226Y-30128040D01*
X17657215Y-30128031D01*
X17512876Y-30023163D01*
X17512864Y-30023155D01*
X17501748Y-30015079D01*
X17491610Y-30007713D01*
X17491609Y-30007712D01*
X17491607Y-30007711D01*
X17479411Y-30001496D01*
X17479399Y-30001489D01*
X17309225Y-29914782D01*
X17309221Y-29914780D01*
X17309199Y-29914772D01*
X17114534Y-29851523D01*
X17114531Y-29851522D01*
X17114528Y-29851521D01*
X17114522Y-29851520D01*
X16912368Y-29819500D01*
X16912361Y-29819500D01*
X16912352Y-29819500D01*
X16707648Y-29819500D01*
X16707638Y-29819500D01*
X16707630Y-29819500D01*
X16505476Y-29851520D01*
X16505464Y-29851523D01*
X16310799Y-29914772D01*
X16310778Y-29914780D01*
X16128395Y-30007709D01*
X16128393Y-30007710D01*
X15962774Y-30128038D01*
X15962772Y-30128040D01*
X15818038Y-30272775D01*
X15818034Y-30272779D01*
X15818033Y-30272781D01*
X15818030Y-30272785D01*
X15818003Y-30272821D01*
X15755858Y-30358357D01*
X15723435Y-30394844D01*
X15708120Y-30409001D01*
X15625282Y-30459764D01*
X15529323Y-30474962D01*
X15434910Y-30452308D01*
X15434904Y-30452305D01*
X15434081Y-30451926D01*
X15362202Y-30401843D01*
X15352409Y-30392050D01*
X15327034Y-30362339D01*
X15324141Y-30358357D01*
X15261969Y-30272785D01*
X15261966Y-30272781D01*
X15261960Y-30272775D01*
X15117226Y-30128040D01*
X15117215Y-30128031D01*
X14972876Y-30023163D01*
X14972864Y-30023155D01*
X14961748Y-30015079D01*
X14951610Y-30007713D01*
X14951609Y-30007712D01*
X14951607Y-30007711D01*
X14939411Y-30001496D01*
X14939399Y-30001489D01*
X14769225Y-29914782D01*
X14769221Y-29914780D01*
X14769199Y-29914772D01*
X14574534Y-29851523D01*
X14574531Y-29851522D01*
X14574528Y-29851521D01*
X14574522Y-29851520D01*
X14372368Y-29819500D01*
X14372361Y-29819500D01*
X14372352Y-29819500D01*
X14167648Y-29819500D01*
X14167638Y-29819500D01*
X14167630Y-29819500D01*
X13965476Y-29851520D01*
X13965464Y-29851523D01*
X13770799Y-29914772D01*
X13770778Y-29914780D01*
X13588395Y-30007709D01*
X13588393Y-30007710D01*
X13422777Y-30128036D01*
X13278036Y-30272777D01*
X13157710Y-30438393D01*
X13157709Y-30438395D01*
X13064780Y-30620778D01*
X13064772Y-30620799D01*
X13001523Y-30815464D01*
X13001520Y-30815476D01*
X12969500Y-31017630D01*
X1475500Y-31017630D01*
X1475500Y-3013353D01*
X1475658Y-3004480D01*
X1475975Y-2995590D01*
X1476452Y-2986698D01*
X1480006Y-2937004D01*
X1482677Y-2899644D01*
X1489114Y-2809635D01*
X1491011Y-2791995D01*
X1493537Y-2774429D01*
X1496683Y-2756991D01*
X1531583Y-2596554D01*
X1535974Y-2579358D01*
X1540977Y-2562325D01*
X1546576Y-2545502D01*
X1603946Y-2391686D01*
X1610726Y-2375320D01*
X1618121Y-2359126D01*
X1626053Y-2343281D01*
X1704724Y-2199205D01*
X1713756Y-2183980D01*
X1723383Y-2169000D01*
X1733487Y-2154446D01*
X1831883Y-2023006D01*
X1842989Y-2009224D01*
X1854631Y-1995787D01*
X1866712Y-1982811D01*
X1982811Y-1866712D01*
X1995787Y-1854631D01*
X2009224Y-1842989D01*
X2023006Y-1831883D01*
X2154439Y-1733493D01*
X2168992Y-1723387D01*
X2183969Y-1713762D01*
X2199207Y-1704722D01*
X2299456Y-1649984D01*
X2343280Y-1626054D01*
X2359138Y-1618116D01*
X2375318Y-1610727D01*
X2391686Y-1603946D01*
X2545502Y-1546576D01*
X2562325Y-1540977D01*
X2569183Y-1538962D01*
X2579358Y-1535974D01*
X2596554Y-1531583D01*
X2756991Y-1496683D01*
X2774419Y-1493538D01*
X2792004Y-1491009D01*
X2809628Y-1489114D01*
X2957692Y-1478525D01*
X2982823Y-1476728D01*
X2982823Y-1476733D01*
X2982859Y-1476725D01*
X2986745Y-1476447D01*
X2995563Y-1475976D01*
X3004479Y-1475658D01*
X3013354Y-1475500D01*
X18346078Y-1475500D01*
X18411883Y-1462410D01*
X18428379Y-1459129D01*
X18476935Y-1454346D01*
X18497805Y-1454346D01*
X18593091Y-1473300D01*
G37*
%TD.AperFunction*%
%TD*%
%TA.AperFunction,Conductor*%
%TO.N,GND*%
G36*
X42624358Y-30282D02*
G01*
X42665667Y-38498D01*
X42741581Y-67067D01*
X42761866Y-78778D01*
X42768491Y-84587D01*
X42803512Y-108522D01*
X42839084Y-138028D01*
X42861969Y-160913D01*
X42883445Y-185403D01*
X42903122Y-211047D01*
X42921216Y-238126D01*
X42937397Y-266152D01*
X42951802Y-295362D01*
X42964170Y-325220D01*
X42974640Y-356062D01*
X42983016Y-387320D01*
X42989371Y-419268D01*
X42996806Y-475743D01*
X42998402Y-491951D01*
X42999466Y-508177D01*
X43000000Y-524470D01*
X43000000Y-4195050D01*
X42995215Y-4243632D01*
X42991455Y-4262533D01*
X42954273Y-4352292D01*
X42885573Y-4420989D01*
X42795813Y-4458167D01*
X42698658Y-4458166D01*
X42698644Y-4458163D01*
X42690729Y-4456588D01*
X42608608Y-4424306D01*
X42603230Y-4420989D01*
X42551519Y-4389093D01*
X42551517Y-4389092D01*
X42551515Y-4389091D01*
X42551511Y-4389089D01*
X42387758Y-4334827D01*
X42387754Y-4334826D01*
X42387753Y-4334826D01*
X42344434Y-4330400D01*
X42286681Y-4324500D01*
X42286677Y-4324500D01*
X42286674Y-4324500D01*
X41713325Y-4324500D01*
X41675420Y-4328372D01*
X41612240Y-4334826D01*
X41504344Y-4370579D01*
X41504345Y-4370580D01*
X41465569Y-4383429D01*
X41465560Y-4383433D01*
X41448484Y-4389092D01*
X41448482Y-4389092D01*
X41448479Y-4389094D01*
X41432627Y-4398871D01*
X41432611Y-4398879D01*
X41301655Y-4479654D01*
X41179653Y-4601656D01*
X41122967Y-4693561D01*
X41093389Y-4732400D01*
X41070662Y-4756842D01*
X41009695Y-4804696D01*
X41006154Y-4806673D01*
X40980058Y-4819309D01*
X40818037Y-4886420D01*
X40818026Y-4886425D01*
X40622372Y-4999386D01*
X40622362Y-4999393D01*
X40444192Y-5136108D01*
X40443222Y-5136843D01*
X40443122Y-5136930D01*
X40217959Y-5362092D01*
X40217947Y-5362105D01*
X40217925Y-5362133D01*
X40093841Y-5523843D01*
X39991893Y-5700419D01*
X39991883Y-5700442D01*
X39913192Y-5890421D01*
X39913067Y-5890980D01*
X39912461Y-5892346D01*
X39910623Y-5900917D01*
X39861101Y-6085736D01*
X39860971Y-6086757D01*
X39834500Y-6287828D01*
X39834500Y-6950761D01*
X39829715Y-6999341D01*
X39822363Y-7036300D01*
X39792472Y-7114472D01*
X39733257Y-7214597D01*
X39687401Y-7372431D01*
X39687401Y-7372433D01*
X39687401Y-7372436D01*
X39685833Y-7392366D01*
X39684500Y-7409301D01*
X39684500Y-9290707D01*
X39685709Y-9306074D01*
X39685710Y-9306081D01*
X39687401Y-9327563D01*
X39687401Y-9327566D01*
X39687402Y-9327569D01*
X39692573Y-9345367D01*
X39692574Y-9345373D01*
X39704521Y-9386492D01*
X39733256Y-9485398D01*
X39816919Y-9626865D01*
X39933135Y-9743081D01*
X40074602Y-9826744D01*
X40232431Y-9872598D01*
X40269306Y-9875500D01*
X40269308Y-9875500D01*
X40700692Y-9875500D01*
X40700694Y-9875500D01*
X40737569Y-9872598D01*
X40762480Y-9865359D01*
X40810449Y-9856402D01*
X40831241Y-9854601D01*
X40927802Y-9865259D01*
X41012941Y-9912061D01*
X41073689Y-9987882D01*
X41073714Y-9987929D01*
X41075064Y-9990529D01*
X41100590Y-10070169D01*
X41102013Y-10080162D01*
X41104500Y-10115265D01*
X41104500Y-10524602D01*
X41135300Y-10876645D01*
X41135305Y-10876686D01*
X41135309Y-10876714D01*
X41196674Y-11224735D01*
X41196675Y-11224737D01*
X41196691Y-11224808D01*
X41288154Y-11566152D01*
X41288207Y-11566316D01*
X41288595Y-11567366D01*
X41407875Y-11895084D01*
X41408651Y-11897308D01*
X41409043Y-11898295D01*
X41510062Y-12114932D01*
X41558418Y-12218632D01*
X41735134Y-12524712D01*
X41735167Y-12524769D01*
X41735736Y-12525573D01*
X41937873Y-12814254D01*
X42165065Y-13085010D01*
X42165074Y-13085019D01*
X42209817Y-13129763D01*
X42209818Y-13129764D01*
X42224008Y-13143954D01*
X42290026Y-13209973D01*
X42437942Y-13357888D01*
X42437956Y-13357901D01*
X42437963Y-13357907D01*
X42437964Y-13357908D01*
X42754131Y-13631869D01*
X42923150Y-13758395D01*
X42984598Y-13804394D01*
X43089066Y-13882598D01*
X43441029Y-14108791D01*
X43441034Y-14108794D01*
X43441039Y-14108797D01*
X43581511Y-14185500D01*
X43581775Y-14185644D01*
X43581776Y-14185645D01*
X43808225Y-14309295D01*
X43808228Y-14309296D01*
X43808231Y-14309298D01*
X44188803Y-14483099D01*
X44188809Y-14483101D01*
X44188813Y-14483103D01*
X44575267Y-14627243D01*
X44577055Y-14627960D01*
X44579412Y-14628808D01*
X44580729Y-14629290D01*
X44581626Y-14629549D01*
X44982235Y-14747179D01*
X45391053Y-14836112D01*
X45805174Y-14895653D01*
X45805182Y-14895653D01*
X45805185Y-14895654D01*
X45842617Y-14898330D01*
X45954813Y-14906355D01*
X46002920Y-14914592D01*
X46024789Y-14920592D01*
X46025197Y-14920704D01*
X46112072Y-14964192D01*
X46121433Y-14971464D01*
X46173520Y-15029481D01*
X46173872Y-15029176D01*
X46175930Y-15031549D01*
X46176477Y-15031177D01*
X46179652Y-15035837D01*
X46179658Y-15035847D01*
X46179661Y-15035851D01*
X46179662Y-15035852D01*
X46301646Y-15157837D01*
X46301649Y-15157839D01*
X46301652Y-15157842D01*
X46448480Y-15248406D01*
X46448882Y-15248654D01*
X46453617Y-15250109D01*
X46612247Y-15302674D01*
X46713323Y-15313000D01*
X47286676Y-15312999D01*
X47387753Y-15302674D01*
X47551516Y-15248408D01*
X47698350Y-15157840D01*
X47820340Y-15035850D01*
X47824269Y-15029481D01*
X47900214Y-14906354D01*
X47910908Y-14889016D01*
X47965174Y-14725253D01*
X47975500Y-14624177D01*
X47975499Y-13925824D01*
X47965174Y-13824747D01*
X47965173Y-13824743D01*
X47964596Y-13822049D01*
X47963449Y-13811205D01*
X47964010Y-13811085D01*
X47960152Y-13780041D01*
X47959913Y-13777778D01*
X47964122Y-13731619D01*
X47967490Y-13685390D01*
X47968527Y-13683324D01*
X47968737Y-13681024D01*
X47990295Y-13639980D01*
X48011093Y-13598569D01*
X48012840Y-13597058D01*
X48013915Y-13595013D01*
X48049539Y-13565343D01*
X48084599Y-13535044D01*
X48085208Y-13534698D01*
X48087156Y-13534014D01*
X48088570Y-13532837D01*
X48105565Y-13527547D01*
X48168341Y-13505494D01*
X48182695Y-13503177D01*
X48222352Y-13500000D01*
X49475527Y-13500000D01*
X49491788Y-13500531D01*
X49508063Y-13501598D01*
X49524241Y-13503191D01*
X49550069Y-13506590D01*
X49550076Y-13506593D01*
X49550077Y-13506592D01*
X49580732Y-13510628D01*
X49612670Y-13516981D01*
X49620677Y-13519126D01*
X49643931Y-13525357D01*
X49674779Y-13535829D01*
X49704645Y-13548201D01*
X49733842Y-13562599D01*
X49761867Y-13578778D01*
X49788945Y-13596870D01*
X49814606Y-13616561D01*
X49839084Y-13638028D01*
X49861969Y-13660913D01*
X49883445Y-13685403D01*
X49903122Y-13711047D01*
X49921213Y-13738121D01*
X49932919Y-13758395D01*
X49961497Y-13834319D01*
X49969714Y-13875625D01*
X49974499Y-13924207D01*
X49974499Y-26325788D01*
X49969715Y-26374365D01*
X49961498Y-26415675D01*
X49932923Y-26491598D01*
X49921219Y-26511870D01*
X49903121Y-26538955D01*
X49883443Y-26564599D01*
X49861970Y-26589084D01*
X49839084Y-26611970D01*
X49814598Y-26633443D01*
X49788955Y-26653120D01*
X49761866Y-26671220D01*
X49733840Y-26687400D01*
X49704636Y-26701802D01*
X49674778Y-26714170D01*
X49643932Y-26724641D01*
X49612672Y-26733017D01*
X49580732Y-26739370D01*
X49547011Y-26743810D01*
X49547003Y-26743811D01*
X49524251Y-26746806D01*
X49508044Y-26748403D01*
X49506121Y-26748529D01*
X49491805Y-26749467D01*
X49475525Y-26750000D01*
X48024473Y-26750000D01*
X48008195Y-26749467D01*
X47991954Y-26748403D01*
X47975750Y-26746807D01*
X47965539Y-26745463D01*
X47965531Y-26745462D01*
X47952983Y-26743810D01*
X47919264Y-26739370D01*
X47887322Y-26733016D01*
X47856066Y-26724641D01*
X47856059Y-26724639D01*
X47825224Y-26714171D01*
X47795365Y-26701803D01*
X47766152Y-26687397D01*
X47738126Y-26671216D01*
X47711047Y-26653122D01*
X47685403Y-26633445D01*
X47660913Y-26611969D01*
X47638028Y-26589084D01*
X47616561Y-26564606D01*
X47596870Y-26538945D01*
X47578780Y-26511870D01*
X47562597Y-26483840D01*
X47548196Y-26454634D01*
X47535829Y-26424777D01*
X47525361Y-26393940D01*
X47516983Y-26362675D01*
X47510628Y-26330734D01*
X47503190Y-26274230D01*
X47501597Y-26258060D01*
X47500531Y-26241793D01*
X47500000Y-26225526D01*
X47500000Y-23999999D01*
X47500000Y-23999998D01*
X47482963Y-23870591D01*
X47433011Y-23749996D01*
X47385630Y-23688249D01*
X47342658Y-23601114D01*
X47334173Y-23536665D01*
X47334173Y-23410001D01*
X47334173Y-23410000D01*
X47334172Y-23410000D01*
X46258673Y-23410000D01*
X46163385Y-23391046D01*
X46082603Y-23337070D01*
X46028627Y-23256288D01*
X46009673Y-23161000D01*
X46009673Y-21719304D01*
X46009654Y-21719057D01*
X46007067Y-21686192D01*
X46006771Y-21682431D01*
X45960917Y-21524602D01*
X45877254Y-21383135D01*
X45761038Y-21266919D01*
X45619571Y-21183256D01*
X45539056Y-21159864D01*
X45479546Y-21142574D01*
X45479540Y-21142573D01*
X45461742Y-21137402D01*
X45461739Y-21137401D01*
X45461736Y-21137401D01*
X45440254Y-21135710D01*
X45440247Y-21135709D01*
X45424880Y-21134500D01*
X45424877Y-21134500D01*
X45424867Y-21134500D01*
X44993479Y-21134500D01*
X44993468Y-21134500D01*
X44993454Y-21134500D01*
X44956615Y-21137399D01*
X44956595Y-21137403D01*
X44956575Y-21137408D01*
X44931688Y-21144639D01*
X44883703Y-21153597D01*
X44867637Y-21154988D01*
X44862925Y-21155397D01*
X44766357Y-21144734D01*
X44681220Y-21097927D01*
X44620476Y-21022103D01*
X44619126Y-21019504D01*
X44593576Y-20939796D01*
X44592153Y-20929798D01*
X44589673Y-20894736D01*
X44589673Y-16374735D01*
X44588807Y-16370753D01*
X44580612Y-16329555D01*
X44580611Y-16329553D01*
X44576453Y-16308646D01*
X44564674Y-16249429D01*
X44560457Y-16239249D01*
X44533122Y-16173256D01*
X44533121Y-16173253D01*
X44515639Y-16131047D01*
X44513204Y-16127403D01*
X44444450Y-16024504D01*
X43284670Y-14864724D01*
X43254320Y-14844445D01*
X43254316Y-14844442D01*
X43254316Y-14844441D01*
X43178129Y-14793536D01*
X43178130Y-14793536D01*
X43178128Y-14793535D01*
X43164326Y-14787818D01*
X43081368Y-14753455D01*
X43081356Y-14753451D01*
X43066215Y-14747180D01*
X43059745Y-14744500D01*
X43059743Y-14744499D01*
X43059742Y-14744499D01*
X43025984Y-14737784D01*
X43025981Y-14737783D01*
X42934074Y-14719501D01*
X42934072Y-14719501D01*
X42934070Y-14719501D01*
X33565930Y-14719501D01*
X33565927Y-14719501D01*
X33565924Y-14719501D01*
X33440257Y-14744498D01*
X33440253Y-14744499D01*
X33336994Y-14787270D01*
X33321873Y-14793534D01*
X33321872Y-14793534D01*
X33215330Y-14864723D01*
X32687914Y-15392140D01*
X32650185Y-15423103D01*
X32636137Y-15432490D01*
X32546379Y-15469672D01*
X32449224Y-15469674D01*
X32359463Y-15432496D01*
X32290763Y-15363798D01*
X32253581Y-15274040D01*
X32253580Y-15274032D01*
X32250284Y-15257461D01*
X32245500Y-15208886D01*
X32245500Y-13280564D01*
X32244643Y-13276626D01*
X32238708Y-13246789D01*
X32220501Y-13155256D01*
X32171465Y-13036873D01*
X32149620Y-13004179D01*
X32100277Y-12930331D01*
X31736167Y-12566221D01*
X31705201Y-12528488D01*
X31685421Y-12498885D01*
X31648242Y-12409128D01*
X31644737Y-12391503D01*
X31584394Y-12245821D01*
X31546588Y-12189241D01*
X31496932Y-12114925D01*
X31496899Y-12114845D01*
X31496791Y-12114714D01*
X31496789Y-12114711D01*
X31385289Y-12003211D01*
X31385285Y-12003208D01*
X31385278Y-12003203D01*
X31262222Y-11920979D01*
X31262220Y-11920978D01*
X31254180Y-11915606D01*
X31254173Y-11915603D01*
X31108497Y-11855263D01*
X31108498Y-11855263D01*
X31080895Y-11849772D01*
X31060227Y-11841656D01*
X31058965Y-11840846D01*
X31055957Y-11839934D01*
X31023060Y-11826308D01*
X30942278Y-11772332D01*
X30779669Y-11609723D01*
X30673127Y-11538534D01*
X30673124Y-11538532D01*
X30673123Y-11538532D01*
X30673116Y-11538529D01*
X30577858Y-11499073D01*
X30577846Y-11499068D01*
X30562894Y-11492874D01*
X30556306Y-11489867D01*
X30537184Y-11485353D01*
X30530686Y-11484713D01*
X30429073Y-11464500D01*
X30429071Y-11464500D01*
X30429069Y-11464500D01*
X23447158Y-11464500D01*
X23398573Y-11459714D01*
X23378115Y-11455644D01*
X23288357Y-11418462D01*
X23219660Y-11349761D01*
X23182496Y-11260067D01*
X23182452Y-11259849D01*
X23181923Y-11257191D01*
X23179615Y-11173455D01*
X23181038Y-11163462D01*
X23188436Y-11129103D01*
X23197598Y-11097569D01*
X23200500Y-11060694D01*
X23200500Y-10629306D01*
X23197598Y-10592431D01*
X23151744Y-10434602D01*
X23068081Y-10293135D01*
X22951865Y-10176919D01*
X22810398Y-10093256D01*
X22683439Y-10056370D01*
X22638120Y-10038220D01*
X22619610Y-10028604D01*
X22543789Y-9967856D01*
X22496987Y-9882717D01*
X22486328Y-9786167D01*
X22488477Y-9761352D01*
X22492331Y-9734274D01*
X22492484Y-9733501D01*
X22492487Y-9733497D01*
X22523250Y-9578842D01*
X22523250Y-9421158D01*
X22515357Y-9381478D01*
X22492488Y-9266507D01*
X22492487Y-9266505D01*
X22492487Y-9266503D01*
X22451584Y-9167754D01*
X22437418Y-9121053D01*
X22428032Y-9073866D01*
X22423250Y-9025297D01*
X22423250Y-8870857D01*
X22428033Y-8822287D01*
X22432540Y-8799625D01*
X22469717Y-8709865D01*
X22469723Y-8709856D01*
X22482557Y-8690649D01*
X22513524Y-8652916D01*
X22543086Y-8623354D01*
X22543090Y-8623350D01*
X22633658Y-8476516D01*
X22687924Y-8312753D01*
X22698250Y-8211677D01*
X22698249Y-7513324D01*
X22687924Y-7412247D01*
X22633658Y-7248484D01*
X22612761Y-7214605D01*
X22543092Y-7101652D01*
X22484528Y-7043088D01*
X22421102Y-6979661D01*
X22421096Y-6979656D01*
X22322177Y-6918643D01*
X22274269Y-6889093D01*
X22214888Y-6869416D01*
X22214887Y-6869415D01*
X22110507Y-6834827D01*
X22110505Y-6834826D01*
X22110503Y-6834826D01*
X22067184Y-6830400D01*
X22009431Y-6824500D01*
X22009427Y-6824500D01*
X22009424Y-6824500D01*
X21436075Y-6824500D01*
X21375427Y-6830695D01*
X21334993Y-6834826D01*
X21252067Y-6862306D01*
X21252066Y-6862306D01*
X21174324Y-6888067D01*
X21171081Y-6889095D01*
X21167487Y-6891401D01*
X21024402Y-6979656D01*
X20902411Y-7101646D01*
X20902406Y-7101652D01*
X20821024Y-7233595D01*
X20811843Y-7248480D01*
X20808648Y-7258123D01*
X20757575Y-7412246D01*
X20756631Y-7418096D01*
X20756287Y-7424864D01*
X20747250Y-7513314D01*
X20747250Y-8211679D01*
X20753798Y-8275775D01*
X20753798Y-8275777D01*
X20757576Y-8312750D01*
X20757576Y-8312753D01*
X20811842Y-8476516D01*
X20811843Y-8476518D01*
X20811844Y-8476520D01*
X20902407Y-8623347D01*
X20931982Y-8652922D01*
X20962946Y-8690653D01*
X20975780Y-8709861D01*
X21012957Y-8799615D01*
X21017465Y-8822277D01*
X21022250Y-8870857D01*
X21022250Y-9025294D01*
X21017465Y-9073872D01*
X21008080Y-9121053D01*
X20993912Y-9167761D01*
X20953015Y-9266497D01*
X20953012Y-9266505D01*
X20953007Y-9266521D01*
X20922250Y-9421148D01*
X20922250Y-9578850D01*
X20952993Y-9733403D01*
X20956579Y-9757571D01*
X20959231Y-9784493D01*
X20949709Y-9881180D01*
X20903912Y-9966864D01*
X20828816Y-10028497D01*
X20811658Y-10037669D01*
X20763743Y-10057187D01*
X20650414Y-10090113D01*
X20580947Y-10100000D01*
X19999000Y-10100000D01*
X19903712Y-10081046D01*
X19822930Y-10027070D01*
X19768954Y-9946288D01*
X19750000Y-9851000D01*
X19750000Y-4421148D01*
X22349500Y-4421148D01*
X22349500Y-4578850D01*
X22380260Y-4733490D01*
X22380282Y-4733544D01*
X22440587Y-4879134D01*
X22440607Y-4879182D01*
X22520923Y-4999383D01*
X22528208Y-5010285D01*
X22528211Y-5010289D01*
X22639711Y-5121789D01*
X22639714Y-5121791D01*
X22770819Y-5209393D01*
X22770820Y-5209393D01*
X22770821Y-5209394D01*
X22908361Y-5266364D01*
X22915168Y-5269471D01*
X22916500Y-5269736D01*
X22916503Y-5269737D01*
X22916505Y-5269737D01*
X22916507Y-5269738D01*
X23018507Y-5290027D01*
X23071158Y-5300500D01*
X23228842Y-5300500D01*
X23383497Y-5269737D01*
X23529179Y-5209394D01*
X23534129Y-5206086D01*
X23577175Y-5183077D01*
X23610069Y-5169452D01*
X23705354Y-5150500D01*
X23729144Y-5150500D01*
X23777724Y-5155285D01*
X23800386Y-5159793D01*
X23890132Y-5196964D01*
X23909342Y-5209799D01*
X23947073Y-5240763D01*
X24026644Y-5320335D01*
X24026648Y-5320338D01*
X24026650Y-5320340D01*
X24026652Y-5320341D01*
X24131451Y-5384982D01*
X24170277Y-5414550D01*
X24187197Y-5430283D01*
X24244075Y-5509046D01*
X24244092Y-5509084D01*
X24244863Y-5510770D01*
X24266884Y-5598041D01*
X24267947Y-5614263D01*
X24267191Y-5655849D01*
X24261099Y-5715476D01*
X24261099Y-5715487D01*
X24261099Y-6288849D01*
X24262601Y-6303550D01*
X24271425Y-6389931D01*
X24280600Y-6417618D01*
X24280614Y-6417660D01*
X24281172Y-6419342D01*
X24325691Y-6553691D01*
X24325692Y-6553693D01*
X24325693Y-6553695D01*
X24330724Y-6561851D01*
X24416251Y-6700515D01*
X24416253Y-6700518D01*
X24416256Y-6700522D01*
X24416263Y-6700530D01*
X24501772Y-6786038D01*
X24532731Y-6823761D01*
X24544571Y-6841481D01*
X24544994Y-6842113D01*
X24582175Y-6931872D01*
X24582178Y-7029027D01*
X24582175Y-7029041D01*
X24579903Y-7040461D01*
X24550015Y-7118625D01*
X24493257Y-7214598D01*
X24493256Y-7214601D01*
X24447403Y-7372424D01*
X24447402Y-7372429D01*
X24447401Y-7372432D01*
X24447401Y-7372433D01*
X24447401Y-7372436D01*
X24445833Y-7392366D01*
X24444500Y-7409301D01*
X24444500Y-9290707D01*
X24445709Y-9306074D01*
X24445710Y-9306081D01*
X24447401Y-9327563D01*
X24447401Y-9327566D01*
X24447402Y-9327569D01*
X24452573Y-9345367D01*
X24452574Y-9345373D01*
X24464521Y-9386492D01*
X24493256Y-9485398D01*
X24576919Y-9626865D01*
X24693135Y-9743081D01*
X24834602Y-9826744D01*
X24992431Y-9872598D01*
X25029306Y-9875500D01*
X25029308Y-9875500D01*
X25460692Y-9875500D01*
X25460694Y-9875500D01*
X25497569Y-9872598D01*
X25655398Y-9826744D01*
X25732141Y-9781357D01*
X25776381Y-9760750D01*
X25798181Y-9753094D01*
X25894361Y-9739404D01*
X25897349Y-9739568D01*
X25899565Y-9739691D01*
X25981120Y-9758257D01*
X25990445Y-9762120D01*
X26021915Y-9777843D01*
X26104602Y-9826744D01*
X26262431Y-9872598D01*
X26299306Y-9875500D01*
X26299308Y-9875500D01*
X26730692Y-9875500D01*
X26730694Y-9875500D01*
X26767569Y-9872598D01*
X26925398Y-9826744D01*
X27002141Y-9781357D01*
X27046381Y-9760750D01*
X27068181Y-9753094D01*
X27164361Y-9739404D01*
X27167349Y-9739568D01*
X27169565Y-9739691D01*
X27251120Y-9758257D01*
X27260445Y-9762120D01*
X27291915Y-9777843D01*
X27374602Y-9826744D01*
X27532431Y-9872598D01*
X27569306Y-9875500D01*
X27569308Y-9875500D01*
X28000692Y-9875500D01*
X28000694Y-9875500D01*
X28037569Y-9872598D01*
X28195398Y-9826744D01*
X28272141Y-9781357D01*
X28316381Y-9760750D01*
X28338181Y-9753094D01*
X28434361Y-9739404D01*
X28437349Y-9739568D01*
X28439565Y-9739691D01*
X28521120Y-9758257D01*
X28530445Y-9762120D01*
X28561915Y-9777843D01*
X28644602Y-9826744D01*
X28802431Y-9872598D01*
X28839306Y-9875500D01*
X28839308Y-9875500D01*
X29270692Y-9875500D01*
X29270694Y-9875500D01*
X29307569Y-9872598D01*
X29465398Y-9826744D01*
X29542141Y-9781357D01*
X29586381Y-9760750D01*
X29608181Y-9753094D01*
X29704361Y-9739404D01*
X29707349Y-9739568D01*
X29709565Y-9739691D01*
X29791120Y-9758257D01*
X29800445Y-9762120D01*
X29831915Y-9777843D01*
X29914602Y-9826744D01*
X30072431Y-9872598D01*
X30109306Y-9875500D01*
X30109308Y-9875500D01*
X30540692Y-9875500D01*
X30540694Y-9875500D01*
X30577569Y-9872598D01*
X30735398Y-9826744D01*
X30812141Y-9781357D01*
X30856381Y-9760750D01*
X30878181Y-9753094D01*
X30974361Y-9739404D01*
X30977349Y-9739568D01*
X30979565Y-9739691D01*
X31061120Y-9758257D01*
X31070445Y-9762120D01*
X31101915Y-9777843D01*
X31184602Y-9826744D01*
X31342431Y-9872598D01*
X31379306Y-9875500D01*
X31379308Y-9875500D01*
X31810692Y-9875500D01*
X31810694Y-9875500D01*
X31847569Y-9872598D01*
X32005398Y-9826744D01*
X32082141Y-9781357D01*
X32126381Y-9760750D01*
X32148181Y-9753094D01*
X32244361Y-9739404D01*
X32247349Y-9739568D01*
X32249565Y-9739691D01*
X32331120Y-9758257D01*
X32340445Y-9762120D01*
X32371915Y-9777843D01*
X32454602Y-9826744D01*
X32612431Y-9872598D01*
X32649306Y-9875500D01*
X32649308Y-9875500D01*
X33080692Y-9875500D01*
X33080694Y-9875500D01*
X33117569Y-9872598D01*
X33275398Y-9826744D01*
X33352141Y-9781357D01*
X33396381Y-9760750D01*
X33418181Y-9753094D01*
X33514361Y-9739404D01*
X33517349Y-9739568D01*
X33519565Y-9739691D01*
X33601120Y-9758257D01*
X33610445Y-9762120D01*
X33641915Y-9777843D01*
X33724602Y-9826744D01*
X33882431Y-9872598D01*
X33919306Y-9875500D01*
X33919308Y-9875500D01*
X34350692Y-9875500D01*
X34350694Y-9875500D01*
X34387569Y-9872598D01*
X34545398Y-9826744D01*
X34622141Y-9781357D01*
X34666381Y-9760750D01*
X34688181Y-9753094D01*
X34784361Y-9739404D01*
X34787349Y-9739568D01*
X34789565Y-9739691D01*
X34871120Y-9758257D01*
X34880445Y-9762120D01*
X34911915Y-9777843D01*
X34994602Y-9826744D01*
X35152431Y-9872598D01*
X35189306Y-9875500D01*
X35189308Y-9875500D01*
X35620692Y-9875500D01*
X35620694Y-9875500D01*
X35657569Y-9872598D01*
X35815398Y-9826744D01*
X35892141Y-9781357D01*
X35936381Y-9760750D01*
X35958181Y-9753094D01*
X36054361Y-9739404D01*
X36057349Y-9739568D01*
X36059565Y-9739691D01*
X36141120Y-9758257D01*
X36150445Y-9762120D01*
X36181915Y-9777843D01*
X36264602Y-9826744D01*
X36422431Y-9872598D01*
X36459306Y-9875500D01*
X36459308Y-9875500D01*
X36890692Y-9875500D01*
X36890694Y-9875500D01*
X36927569Y-9872598D01*
X37085398Y-9826744D01*
X37162141Y-9781357D01*
X37206381Y-9760750D01*
X37228181Y-9753094D01*
X37324361Y-9739404D01*
X37327349Y-9739568D01*
X37329565Y-9739691D01*
X37411120Y-9758257D01*
X37420445Y-9762120D01*
X37451915Y-9777843D01*
X37534602Y-9826744D01*
X37692431Y-9872598D01*
X37729306Y-9875500D01*
X37729308Y-9875500D01*
X38160692Y-9875500D01*
X38160694Y-9875500D01*
X38197569Y-9872598D01*
X38355398Y-9826744D01*
X38496865Y-9743081D01*
X38613081Y-9626865D01*
X38696744Y-9485398D01*
X38742598Y-9327569D01*
X38745500Y-9290694D01*
X38745500Y-7409306D01*
X38742598Y-7372431D01*
X38696744Y-7214602D01*
X38613081Y-7073135D01*
X38613080Y-7073134D01*
X38603477Y-7060754D01*
X38603978Y-7060365D01*
X38589802Y-7043088D01*
X38576968Y-7023880D01*
X38539790Y-6934123D01*
X38517237Y-6820740D01*
X38513842Y-6811937D01*
X38503124Y-6758053D01*
X38499738Y-6741029D01*
X38499737Y-6741027D01*
X38499737Y-6741025D01*
X38499730Y-6741010D01*
X38498700Y-6738002D01*
X38496369Y-6732894D01*
X38439394Y-6595343D01*
X38409516Y-6550628D01*
X38351791Y-6464236D01*
X38351789Y-6464233D01*
X38240289Y-6352733D01*
X38215106Y-6335906D01*
X38143153Y-6287828D01*
X38109182Y-6265129D01*
X38109180Y-6265128D01*
X38109173Y-6265125D01*
X38037057Y-6235254D01*
X37963544Y-6204804D01*
X37963511Y-6204790D01*
X37963497Y-6204785D01*
X37963492Y-6204783D01*
X37963491Y-6204782D01*
X37963490Y-6204782D01*
X37808850Y-6174022D01*
X37808846Y-6174022D01*
X37808842Y-6174022D01*
X37651158Y-6174022D01*
X37651153Y-6174022D01*
X37496507Y-6204783D01*
X37496505Y-6204783D01*
X37496504Y-6204784D01*
X37422942Y-6235254D01*
X37376228Y-6249424D01*
X37353572Y-6253930D01*
X37256428Y-6253930D01*
X37233767Y-6249423D01*
X37187059Y-6235255D01*
X37113492Y-6204783D01*
X36958846Y-6174022D01*
X36958843Y-6174022D01*
X36801156Y-6174022D01*
X36801155Y-6174022D01*
X36790446Y-6176152D01*
X36764623Y-6181288D01*
X36716051Y-6186071D01*
X36695195Y-6186071D01*
X36599907Y-6167117D01*
X36519125Y-6113141D01*
X36465149Y-6032359D01*
X36465140Y-6032336D01*
X36461944Y-6024618D01*
X36442999Y-5929353D01*
X36442999Y-5813323D01*
X36438162Y-5765971D01*
X36432674Y-5712247D01*
X36378408Y-5548484D01*
X36378405Y-5548479D01*
X36287842Y-5401652D01*
X36235954Y-5349764D01*
X36165852Y-5279661D01*
X36165846Y-5279656D01*
X36051932Y-5209394D01*
X36019019Y-5189093D01*
X36019018Y-5189092D01*
X36019017Y-5189092D01*
X35980874Y-5176453D01*
X35965928Y-5171500D01*
X35855257Y-5134827D01*
X35855255Y-5134826D01*
X35855253Y-5134826D01*
X35811934Y-5130400D01*
X35754181Y-5124500D01*
X35754177Y-5124500D01*
X35754174Y-5124500D01*
X35055825Y-5124500D01*
X34987636Y-5131466D01*
X34954744Y-5134826D01*
X34790979Y-5189093D01*
X34790977Y-5189094D01*
X34694089Y-5248855D01*
X34650233Y-5270284D01*
X34628582Y-5278343D01*
X34532694Y-5293821D01*
X34529910Y-5293720D01*
X34443651Y-5274930D01*
X34430222Y-5269368D01*
X34394796Y-5251253D01*
X34349689Y-5223431D01*
X34318787Y-5204371D01*
X34305456Y-5193830D01*
X34268372Y-5178469D01*
X34255875Y-5176453D01*
X34130257Y-5134827D01*
X34130254Y-5134826D01*
X34130253Y-5134826D01*
X34130250Y-5134825D01*
X34130242Y-5134824D01*
X34097368Y-5131465D01*
X34097366Y-5131466D01*
X34029186Y-5124500D01*
X34029181Y-5124500D01*
X33470019Y-5124500D01*
X33421438Y-5119715D01*
X33399787Y-5115408D01*
X33310028Y-5078227D01*
X33241332Y-5009529D01*
X33229071Y-4991179D01*
X33206063Y-4948134D01*
X33184396Y-4895826D01*
X33184393Y-4895819D01*
X33096791Y-4764714D01*
X33096789Y-4764711D01*
X32985289Y-4653211D01*
X32908123Y-4601650D01*
X32873995Y-4578846D01*
X32854182Y-4565607D01*
X32854138Y-4565588D01*
X32708544Y-4505282D01*
X32708511Y-4505268D01*
X32708497Y-4505263D01*
X32708492Y-4505261D01*
X32708491Y-4505260D01*
X32708490Y-4505260D01*
X32553850Y-4474500D01*
X32553846Y-4474500D01*
X32553842Y-4474500D01*
X32396158Y-4474500D01*
X32396153Y-4474500D01*
X32396148Y-4474500D01*
X32241508Y-4505260D01*
X32241454Y-4505282D01*
X32095864Y-4565587D01*
X32095817Y-4565606D01*
X31964717Y-4653205D01*
X31853205Y-4764717D01*
X31765606Y-4895817D01*
X31765587Y-4895864D01*
X31705282Y-5041454D01*
X31705260Y-5041508D01*
X31674500Y-5196148D01*
X31674500Y-5353850D01*
X31705260Y-5508490D01*
X31705282Y-5508544D01*
X31765588Y-5654138D01*
X31765596Y-5654156D01*
X31765603Y-5654173D01*
X31765606Y-5654180D01*
X31788120Y-5687874D01*
X31792013Y-5693700D01*
X31811779Y-5729266D01*
X31828413Y-5765979D01*
X31842116Y-5804273D01*
X31844537Y-5813306D01*
X31844539Y-5813323D01*
X31844542Y-5813323D01*
X31844542Y-5813324D01*
X31858172Y-5864193D01*
X31858174Y-5864200D01*
X31926387Y-6028882D01*
X31926389Y-6028884D01*
X31926389Y-6028885D01*
X31940407Y-6062727D01*
X31940414Y-6062743D01*
X32045437Y-6244648D01*
X32047865Y-6248854D01*
X32047866Y-6248855D01*
X32047871Y-6248863D01*
X32164228Y-6400500D01*
X32178687Y-6419343D01*
X32178693Y-6419351D01*
X32186355Y-6427013D01*
X32205318Y-6455395D01*
X32218517Y-6467215D01*
X32232072Y-6495438D01*
X32240329Y-6507796D01*
X32242228Y-6516583D01*
X32260580Y-6554793D01*
X32265927Y-6651800D01*
X32233744Y-6743470D01*
X32168930Y-6815846D01*
X32081352Y-6857909D01*
X31984345Y-6863256D01*
X31975627Y-6862016D01*
X31941220Y-6854610D01*
X31847573Y-6827402D01*
X31847569Y-6827401D01*
X31847563Y-6827400D01*
X31810710Y-6824500D01*
X31810704Y-6824500D01*
X31810694Y-6824500D01*
X31379306Y-6824500D01*
X31379295Y-6824500D01*
X31354722Y-6826434D01*
X31342433Y-6827401D01*
X31342431Y-6827401D01*
X31184599Y-6873256D01*
X31157819Y-6889095D01*
X31157815Y-6889097D01*
X31107853Y-6918643D01*
X31063617Y-6939248D01*
X31047827Y-6944793D01*
X31041823Y-6946902D01*
X30945639Y-6960594D01*
X30945602Y-6960592D01*
X30940434Y-6960307D01*
X30858851Y-6941729D01*
X30849528Y-6937867D01*
X30818071Y-6922148D01*
X30735402Y-6873258D01*
X30735400Y-6873257D01*
X30735398Y-6873256D01*
X30639508Y-6845397D01*
X30595373Y-6832574D01*
X30595367Y-6832573D01*
X30577569Y-6827402D01*
X30577566Y-6827401D01*
X30577563Y-6827401D01*
X30556081Y-6825710D01*
X30556074Y-6825709D01*
X30540707Y-6824500D01*
X30540704Y-6824500D01*
X30540694Y-6824500D01*
X30109306Y-6824500D01*
X30109295Y-6824500D01*
X30084722Y-6826434D01*
X30072433Y-6827401D01*
X30072431Y-6827401D01*
X29914599Y-6873256D01*
X29887819Y-6889095D01*
X29887815Y-6889097D01*
X29837853Y-6918643D01*
X29793617Y-6939248D01*
X29777827Y-6944793D01*
X29771823Y-6946902D01*
X29675639Y-6960594D01*
X29675602Y-6960592D01*
X29670434Y-6960307D01*
X29588851Y-6941729D01*
X29579528Y-6937867D01*
X29548071Y-6922148D01*
X29465402Y-6873258D01*
X29465400Y-6873257D01*
X29465398Y-6873256D01*
X29369508Y-6845397D01*
X29325373Y-6832574D01*
X29325367Y-6832573D01*
X29307569Y-6827402D01*
X29307566Y-6827401D01*
X29307563Y-6827401D01*
X29286081Y-6825710D01*
X29286074Y-6825709D01*
X29270707Y-6824500D01*
X29270704Y-6824500D01*
X29270694Y-6824500D01*
X28839306Y-6824500D01*
X28839295Y-6824500D01*
X28814722Y-6826434D01*
X28802433Y-6827401D01*
X28802431Y-6827401D01*
X28644599Y-6873256D01*
X28617819Y-6889095D01*
X28617815Y-6889097D01*
X28567853Y-6918643D01*
X28523617Y-6939248D01*
X28507827Y-6944793D01*
X28501823Y-6946902D01*
X28405639Y-6960594D01*
X28405602Y-6960592D01*
X28400434Y-6960307D01*
X28318851Y-6941729D01*
X28309528Y-6937867D01*
X28278071Y-6922148D01*
X28195402Y-6873258D01*
X28195400Y-6873257D01*
X28195398Y-6873256D01*
X28099508Y-6845397D01*
X28055373Y-6832574D01*
X28055367Y-6832573D01*
X28037569Y-6827402D01*
X28037566Y-6827401D01*
X28037563Y-6827401D01*
X28016081Y-6825710D01*
X28016074Y-6825709D01*
X28000707Y-6824500D01*
X28000704Y-6824500D01*
X28000694Y-6824500D01*
X27569306Y-6824500D01*
X27569295Y-6824500D01*
X27569281Y-6824500D01*
X27532442Y-6827399D01*
X27532422Y-6827403D01*
X27532402Y-6827408D01*
X27507515Y-6834639D01*
X27459530Y-6843597D01*
X27443464Y-6844988D01*
X27438752Y-6845397D01*
X27342184Y-6834734D01*
X27257047Y-6787927D01*
X27196303Y-6712103D01*
X27194953Y-6709504D01*
X27169403Y-6629796D01*
X27167980Y-6619798D01*
X27165500Y-6584736D01*
X27165500Y-6235253D01*
X27165501Y-6217110D01*
X27165500Y-6217104D01*
X27165500Y-5550361D01*
X27170283Y-5501791D01*
X27174790Y-5479129D01*
X27211967Y-5389369D01*
X27216623Y-5382400D01*
X27269230Y-5325413D01*
X27300659Y-5300565D01*
X27323989Y-5269700D01*
X27395340Y-5198350D01*
X27401051Y-5189092D01*
X27485906Y-5051519D01*
X27485905Y-5051519D01*
X27485908Y-5051516D01*
X27485908Y-5051513D01*
X27501185Y-5026746D01*
X27501186Y-5026744D01*
X27501187Y-5026743D01*
X27513222Y-5007229D01*
X27517176Y-4957906D01*
X27520360Y-4947544D01*
X27540174Y-4887753D01*
X27550500Y-4786677D01*
X27550499Y-4213324D01*
X27540174Y-4112247D01*
X27540173Y-4112243D01*
X27485908Y-3948483D01*
X27485907Y-3948482D01*
X27465978Y-3916171D01*
X27465978Y-3916172D01*
X27395342Y-3801652D01*
X27352915Y-3759225D01*
X27273352Y-3679661D01*
X27273349Y-3679659D01*
X27273347Y-3679657D01*
X27126519Y-3589093D01*
X27126512Y-3589090D01*
X26962758Y-3534827D01*
X26962754Y-3534826D01*
X26962753Y-3534826D01*
X26919434Y-3530400D01*
X26861681Y-3524500D01*
X26861677Y-3524500D01*
X26861674Y-3524500D01*
X26163325Y-3524500D01*
X26087515Y-3532244D01*
X26062244Y-3534826D01*
X25898479Y-3589093D01*
X25898477Y-3589094D01*
X25801589Y-3648855D01*
X25757733Y-3670284D01*
X25736082Y-3678343D01*
X25640194Y-3693821D01*
X25637410Y-3693720D01*
X25551151Y-3674930D01*
X25537722Y-3669368D01*
X25502296Y-3651253D01*
X25426289Y-3604372D01*
X25412956Y-3593830D01*
X25375872Y-3578469D01*
X25363375Y-3576453D01*
X25237757Y-3534827D01*
X25237755Y-3534826D01*
X25237753Y-3534826D01*
X25194434Y-3530400D01*
X25136681Y-3524500D01*
X25136677Y-3524500D01*
X25136674Y-3524500D01*
X24438325Y-3524500D01*
X24400420Y-3528372D01*
X24337240Y-3534826D01*
X24229344Y-3570579D01*
X24229345Y-3570580D01*
X24190569Y-3583429D01*
X24190560Y-3583433D01*
X24173484Y-3589092D01*
X24173482Y-3589092D01*
X24173479Y-3589094D01*
X24157627Y-3598871D01*
X24157611Y-3598879D01*
X24026662Y-3679650D01*
X24026648Y-3679660D01*
X24026631Y-3679675D01*
X23947084Y-3759225D01*
X23909346Y-3790196D01*
X23890138Y-3803030D01*
X23800390Y-3840206D01*
X23777731Y-3844714D01*
X23729145Y-3849500D01*
X23717380Y-3849500D01*
X23668800Y-3844715D01*
X23633877Y-3837768D01*
X23544118Y-3800587D01*
X23544114Y-3800585D01*
X23529182Y-3790607D01*
X23529180Y-3790606D01*
X23529173Y-3790603D01*
X23383497Y-3730263D01*
X23383492Y-3730261D01*
X23383490Y-3730260D01*
X23383489Y-3730260D01*
X23228850Y-3699500D01*
X23228846Y-3699500D01*
X23228842Y-3699500D01*
X23071158Y-3699500D01*
X23071153Y-3699500D01*
X23071148Y-3699500D01*
X22916508Y-3730260D01*
X22916454Y-3730282D01*
X22770864Y-3790587D01*
X22770817Y-3790606D01*
X22639717Y-3878205D01*
X22528205Y-3989717D01*
X22440606Y-4120817D01*
X22440587Y-4120864D01*
X22380282Y-4266454D01*
X22380260Y-4266508D01*
X22349500Y-4421148D01*
X19750000Y-4421148D01*
X19750000Y-524472D01*
X19750532Y-508201D01*
X19750534Y-508177D01*
X19751598Y-491935D01*
X19753189Y-475774D01*
X19760630Y-419252D01*
X19766977Y-387342D01*
X19775359Y-356057D01*
X19785820Y-325240D01*
X19798204Y-295342D01*
X19812595Y-266161D01*
X19828785Y-238118D01*
X19846866Y-211059D01*
X19866566Y-185385D01*
X19888024Y-160917D01*
X19910917Y-138024D01*
X19935387Y-116565D01*
X19961056Y-96868D01*
X19988117Y-78786D01*
X20008408Y-67071D01*
X20084328Y-38499D01*
X20119378Y-31528D01*
X20125641Y-30283D01*
X20174209Y-25500D01*
X42575792Y-25500D01*
X42624358Y-30282D01*
G37*
%TD.AperFunction*%
%TA.AperFunction,Conductor*%
G36*
X38901459Y-20655283D02*
G01*
X38903616Y-20655712D01*
X38924121Y-20659790D01*
X39013880Y-20696968D01*
X39013887Y-20696973D01*
X39033094Y-20709807D01*
X39049741Y-20726454D01*
X39049928Y-20726264D01*
X39386711Y-21056674D01*
X39419365Y-21096078D01*
X39432199Y-21115285D01*
X39469380Y-21205044D01*
X39469383Y-21205059D01*
X39472346Y-21219959D01*
X39472344Y-21317098D01*
X39466537Y-21346294D01*
X39436645Y-21424472D01*
X39377430Y-21524597D01*
X39331574Y-21682431D01*
X39331574Y-21682433D01*
X39328673Y-21719301D01*
X39328673Y-23161000D01*
X39309719Y-23256288D01*
X39255743Y-23337070D01*
X39174961Y-23391046D01*
X39079673Y-23410000D01*
X38638673Y-23410000D01*
X38543385Y-23391046D01*
X38462603Y-23337070D01*
X38408627Y-23256288D01*
X38389673Y-23161000D01*
X38389673Y-21719304D01*
X38389654Y-21719057D01*
X38387067Y-21686192D01*
X38386771Y-21682431D01*
X38340917Y-21524602D01*
X38257254Y-21383135D01*
X38141038Y-21266919D01*
X37999571Y-21183256D01*
X37999568Y-21183255D01*
X37999564Y-21183253D01*
X37869456Y-21145452D01*
X37836606Y-21128387D01*
X37813052Y-21121543D01*
X37813046Y-21121540D01*
X37793905Y-21106205D01*
X37783240Y-21100665D01*
X37773321Y-21092285D01*
X37765641Y-21085445D01*
X37766620Y-21084345D01*
X37737228Y-21060796D01*
X37690424Y-20975657D01*
X37679765Y-20879089D01*
X37706872Y-20785792D01*
X37767619Y-20709971D01*
X37852756Y-20663167D01*
X37856171Y-20662087D01*
X37931248Y-20650500D01*
X38852887Y-20650500D01*
X38901459Y-20655283D01*
G37*
%TD.AperFunction*%
%TA.AperFunction,Conductor*%
G36*
X28786460Y-14040283D02*
G01*
X28792201Y-14041424D01*
X28809122Y-14044790D01*
X28898881Y-14081968D01*
X28898888Y-14081973D01*
X28918095Y-14094807D01*
X28955825Y-14125771D01*
X29584226Y-14754171D01*
X29615193Y-14791904D01*
X29628028Y-14811113D01*
X29665207Y-14900868D01*
X29669715Y-14923529D01*
X29674500Y-14972111D01*
X29674500Y-15877840D01*
X29669714Y-15926425D01*
X29665644Y-15946883D01*
X29628462Y-16036641D01*
X29559761Y-16105338D01*
X29470034Y-16142508D01*
X29467160Y-16143080D01*
X29383460Y-16145384D01*
X29373472Y-16143962D01*
X29339095Y-16136560D01*
X29329248Y-16133699D01*
X29321657Y-16130727D01*
X29313198Y-16128730D01*
X29313198Y-16128729D01*
X29305614Y-16126940D01*
X29297806Y-16126633D01*
X29290607Y-16126066D01*
X29270707Y-16124500D01*
X29270704Y-16124500D01*
X29270694Y-16124500D01*
X28839306Y-16124500D01*
X28839295Y-16124500D01*
X28814722Y-16126434D01*
X28802433Y-16127401D01*
X28802431Y-16127401D01*
X28644599Y-16173256D01*
X28611262Y-16192972D01*
X28600954Y-16199069D01*
X28600951Y-16199071D01*
X28567853Y-16218644D01*
X28523615Y-16239249D01*
X28501821Y-16246903D01*
X28405635Y-16260594D01*
X28405602Y-16260592D01*
X28400434Y-16260307D01*
X28318851Y-16241729D01*
X28309528Y-16237867D01*
X28278071Y-16222148D01*
X28195402Y-16173258D01*
X28195400Y-16173257D01*
X28195398Y-16173256D01*
X28099463Y-16145384D01*
X28055373Y-16132574D01*
X28055367Y-16132573D01*
X28037569Y-16127402D01*
X28037566Y-16127401D01*
X28037563Y-16127401D01*
X28016081Y-16125710D01*
X28016074Y-16125709D01*
X28000707Y-16124500D01*
X28000704Y-16124500D01*
X28000694Y-16124500D01*
X27569306Y-16124500D01*
X27569295Y-16124500D01*
X27544722Y-16126434D01*
X27532433Y-16127401D01*
X27532431Y-16127401D01*
X27374600Y-16173256D01*
X27233137Y-16256917D01*
X27116917Y-16373137D01*
X27033256Y-16514600D01*
X26987401Y-16672431D01*
X26987401Y-16672433D01*
X26984500Y-16709301D01*
X26984500Y-18590707D01*
X26985709Y-18606074D01*
X26985710Y-18606081D01*
X26987401Y-18627563D01*
X26987401Y-18627566D01*
X26987402Y-18627569D01*
X26992573Y-18645367D01*
X26992574Y-18645373D01*
X27003942Y-18684500D01*
X27033256Y-18785398D01*
X27116919Y-18926865D01*
X27233135Y-19043081D01*
X27374602Y-19126744D01*
X27532431Y-19172598D01*
X27569306Y-19175500D01*
X27569308Y-19175500D01*
X28000692Y-19175500D01*
X28000694Y-19175500D01*
X28037569Y-19172598D01*
X28195398Y-19126744D01*
X28272141Y-19081357D01*
X28316381Y-19060750D01*
X28338181Y-19053094D01*
X28434361Y-19039404D01*
X28437349Y-19039568D01*
X28439565Y-19039691D01*
X28521120Y-19058257D01*
X28530445Y-19062120D01*
X28561915Y-19077843D01*
X28644602Y-19126744D01*
X28802431Y-19172598D01*
X28839306Y-19175500D01*
X28839308Y-19175500D01*
X29270692Y-19175500D01*
X29270694Y-19175500D01*
X29307569Y-19172598D01*
X29465398Y-19126744D01*
X29542141Y-19081357D01*
X29586381Y-19060750D01*
X29608181Y-19053094D01*
X29704361Y-19039404D01*
X29707349Y-19039568D01*
X29709565Y-19039691D01*
X29791120Y-19058257D01*
X29800445Y-19062120D01*
X29831915Y-19077843D01*
X29914602Y-19126744D01*
X30072431Y-19172598D01*
X30109306Y-19175500D01*
X30109308Y-19175500D01*
X30540692Y-19175500D01*
X30540694Y-19175500D01*
X30577569Y-19172598D01*
X30735398Y-19126744D01*
X30812141Y-19081357D01*
X30856381Y-19060750D01*
X30878181Y-19053094D01*
X30974361Y-19039404D01*
X30977349Y-19039568D01*
X30979565Y-19039691D01*
X31061120Y-19058257D01*
X31070445Y-19062120D01*
X31101915Y-19077843D01*
X31184602Y-19126744D01*
X31342431Y-19172598D01*
X31379306Y-19175500D01*
X31379308Y-19175500D01*
X31810692Y-19175500D01*
X31810694Y-19175500D01*
X31847569Y-19172598D01*
X32005398Y-19126744D01*
X32082141Y-19081357D01*
X32126381Y-19060750D01*
X32148181Y-19053094D01*
X32244361Y-19039404D01*
X32247349Y-19039568D01*
X32249565Y-19039691D01*
X32331120Y-19058257D01*
X32340445Y-19062120D01*
X32371915Y-19077843D01*
X32454602Y-19126744D01*
X32612431Y-19172598D01*
X32649306Y-19175500D01*
X32649308Y-19175500D01*
X33080692Y-19175500D01*
X33080694Y-19175500D01*
X33117569Y-19172598D01*
X33275398Y-19126744D01*
X33352141Y-19081357D01*
X33396381Y-19060750D01*
X33418181Y-19053094D01*
X33514361Y-19039404D01*
X33517349Y-19039568D01*
X33519565Y-19039691D01*
X33601120Y-19058257D01*
X33610445Y-19062120D01*
X33641915Y-19077843D01*
X33724602Y-19126744D01*
X33882431Y-19172598D01*
X33919306Y-19175500D01*
X33919308Y-19175500D01*
X34350692Y-19175500D01*
X34350694Y-19175500D01*
X34387569Y-19172598D01*
X34412480Y-19165359D01*
X34460449Y-19156402D01*
X34481241Y-19154601D01*
X34577802Y-19165259D01*
X34662941Y-19212061D01*
X34723689Y-19287882D01*
X34723691Y-19287885D01*
X34726464Y-19293223D01*
X34753571Y-19386520D01*
X34754500Y-19408010D01*
X34754500Y-19469070D01*
X34774676Y-19570497D01*
X34774677Y-19570500D01*
X34776720Y-19580771D01*
X34776719Y-19580778D01*
X34776722Y-19580785D01*
X34779496Y-19594737D01*
X34817904Y-19687463D01*
X34817905Y-19687464D01*
X34817906Y-19687466D01*
X34828535Y-19713127D01*
X34899723Y-19819669D01*
X35585331Y-20505277D01*
X35672981Y-20563842D01*
X35691873Y-20576465D01*
X35810256Y-20625501D01*
X35930369Y-20649393D01*
X35933425Y-20650500D01*
X35935930Y-20650500D01*
X35935931Y-20650500D01*
X37238439Y-20650500D01*
X37287011Y-20655283D01*
X37289168Y-20655712D01*
X37299274Y-20657722D01*
X37389035Y-20694900D01*
X37457735Y-20763598D01*
X37494917Y-20853356D01*
X37494919Y-20950511D01*
X37457741Y-21040272D01*
X37389047Y-21108970D01*
X37386072Y-21110958D01*
X37317197Y-21143040D01*
X37178773Y-21183256D01*
X37037310Y-21266917D01*
X36921090Y-21383137D01*
X36837429Y-21524600D01*
X36837429Y-21524601D01*
X36796929Y-21664001D01*
X36789331Y-21686192D01*
X36775066Y-21722222D01*
X36722366Y-21803842D01*
X36642505Y-21859054D01*
X36642124Y-21859219D01*
X36553529Y-21879510D01*
X36542626Y-21879964D01*
X36483692Y-21875396D01*
X36416343Y-21862000D01*
X36416342Y-21862000D01*
X36398809Y-21862000D01*
X36327295Y-21851509D01*
X36323250Y-21850296D01*
X36320740Y-21849450D01*
X36319813Y-21849265D01*
X36314238Y-21847594D01*
X36274656Y-21826600D01*
X36242410Y-21810738D01*
X36241725Y-21811764D01*
X36228151Y-21802694D01*
X36210245Y-21787999D01*
X36209727Y-21788655D01*
X36198350Y-21779660D01*
X36198347Y-21779657D01*
X36051519Y-21689093D01*
X36051512Y-21689090D01*
X35887758Y-21634827D01*
X35887754Y-21634826D01*
X35887753Y-21634826D01*
X35844434Y-21630400D01*
X35786681Y-21624500D01*
X35786677Y-21624500D01*
X35786674Y-21624500D01*
X35213325Y-21624500D01*
X35175420Y-21628372D01*
X35112240Y-21634826D01*
X35004344Y-21670579D01*
X35004345Y-21670580D01*
X34965569Y-21683429D01*
X34965560Y-21683433D01*
X34948484Y-21689092D01*
X34948482Y-21689092D01*
X34948479Y-21689094D01*
X34932627Y-21698871D01*
X34932611Y-21698879D01*
X34801652Y-21779656D01*
X34679661Y-21901646D01*
X34679656Y-21901652D01*
X34589094Y-22048478D01*
X34534825Y-22212246D01*
X34534349Y-22215199D01*
X34534168Y-22218686D01*
X34524500Y-22313318D01*
X34524500Y-22405271D01*
X34524166Y-22411717D01*
X34522635Y-22417759D01*
X34519713Y-22447421D01*
X34516416Y-22463992D01*
X34502276Y-22498123D01*
X34500307Y-22505897D01*
X34497493Y-22509669D01*
X34479232Y-22553750D01*
X34410530Y-22622446D01*
X34320769Y-22659621D01*
X34223614Y-22659616D01*
X34133862Y-22622436D01*
X34119817Y-22613051D01*
X34082088Y-22582088D01*
X32646445Y-21146445D01*
X32646440Y-21146441D01*
X32646438Y-21146439D01*
X32542896Y-21066989D01*
X32542890Y-21066985D01*
X32542889Y-21066984D01*
X32542887Y-21066983D01*
X32542883Y-21066981D01*
X32422308Y-21017037D01*
X32422302Y-21017035D01*
X32292895Y-21000000D01*
X32292894Y-21000000D01*
X32292893Y-21000000D01*
X24429357Y-21000000D01*
X24380773Y-20995214D01*
X24364165Y-20991910D01*
X24274406Y-20954728D01*
X24205709Y-20886027D01*
X24168532Y-20796267D01*
X24168535Y-20699112D01*
X24205624Y-20609493D01*
X24214885Y-20595613D01*
X24245931Y-20557757D01*
X24314906Y-20488783D01*
X24352369Y-20458000D01*
X24359952Y-20452920D01*
X24359953Y-20452918D01*
X24365946Y-20448904D01*
X24366422Y-20449615D01*
X24433973Y-20414504D01*
X24441281Y-20412159D01*
X24442321Y-20411951D01*
X24453911Y-20408106D01*
X24455008Y-20407755D01*
X24456965Y-20407530D01*
X24498597Y-20397978D01*
X24514489Y-20395886D01*
X24514497Y-20395885D01*
X24530635Y-20393760D01*
X24571258Y-20378470D01*
X24683198Y-20348476D01*
X24738643Y-20325509D01*
X24773410Y-20314024D01*
X24815991Y-20303359D01*
X24827865Y-20300693D01*
X24828835Y-20300500D01*
X24828842Y-20300500D01*
X24983497Y-20269737D01*
X25129179Y-20209394D01*
X25260289Y-20121789D01*
X25371789Y-20010289D01*
X25459394Y-19879179D01*
X25519737Y-19733497D01*
X25524452Y-19709787D01*
X25537307Y-19666315D01*
X25553855Y-19624722D01*
X25574378Y-19584301D01*
X25650514Y-19463134D01*
X25767012Y-19221224D01*
X25767012Y-19221221D01*
X25767015Y-19221217D01*
X25767016Y-19221214D01*
X25767018Y-19221207D01*
X25769043Y-19217003D01*
X25771622Y-19208047D01*
X25819962Y-19069900D01*
X25840516Y-19025642D01*
X25842031Y-19023074D01*
X25862165Y-18988941D01*
X25900566Y-18939378D01*
X25913081Y-18926865D01*
X25996744Y-18785398D01*
X26042598Y-18627569D01*
X26045500Y-18590694D01*
X26045500Y-16709306D01*
X26042598Y-16672431D01*
X25996744Y-16514602D01*
X25913081Y-16373135D01*
X25796865Y-16256919D01*
X25655398Y-16173256D01*
X25559463Y-16145384D01*
X25515373Y-16132574D01*
X25515367Y-16132573D01*
X25497569Y-16127402D01*
X25497566Y-16127401D01*
X25497563Y-16127401D01*
X25476081Y-16125710D01*
X25476074Y-16125709D01*
X25460707Y-16124500D01*
X25460704Y-16124500D01*
X25460694Y-16124500D01*
X25029306Y-16124500D01*
X25029295Y-16124500D01*
X25004722Y-16126434D01*
X24992433Y-16127401D01*
X24992431Y-16127401D01*
X24834600Y-16173256D01*
X24693137Y-16256917D01*
X24576917Y-16373137D01*
X24493256Y-16514600D01*
X24447401Y-16672431D01*
X24447401Y-16672433D01*
X24444500Y-16709301D01*
X24444500Y-18520817D01*
X24439713Y-18569407D01*
X24436331Y-18586405D01*
X24399147Y-18676162D01*
X24330445Y-18744858D01*
X24240683Y-18782033D01*
X24143528Y-18782028D01*
X24096830Y-18767861D01*
X24025872Y-18738469D01*
X24013375Y-18736453D01*
X23887757Y-18694827D01*
X23887755Y-18694826D01*
X23887753Y-18694826D01*
X23844434Y-18690400D01*
X23786681Y-18684500D01*
X23786677Y-18684500D01*
X23786674Y-18684500D01*
X23213325Y-18684500D01*
X23137515Y-18692244D01*
X23112244Y-18694826D01*
X22948476Y-18749094D01*
X22935334Y-18755223D01*
X22935094Y-18754708D01*
X22911819Y-18766081D01*
X22891141Y-18773777D01*
X22795226Y-18789251D01*
X22700711Y-18766851D01*
X22690823Y-18762328D01*
X22630638Y-18720514D01*
X22630031Y-18721282D01*
X22618656Y-18712288D01*
X22610936Y-18707526D01*
X22543394Y-18644725D01*
X22302819Y-18565007D01*
X22302810Y-18565004D01*
X22302802Y-18565002D01*
X22302798Y-18565001D01*
X22302797Y-18565001D01*
X22302791Y-18565000D01*
X22293837Y-18563898D01*
X22290180Y-18563712D01*
X22200014Y-18554500D01*
X22200009Y-18554500D01*
X22200005Y-18554500D01*
X20799993Y-18554500D01*
X20709817Y-18563712D01*
X20697199Y-18565001D01*
X20530666Y-18620185D01*
X20489830Y-18645373D01*
X20381346Y-18712286D01*
X20381345Y-18712287D01*
X20257281Y-18836351D01*
X20223802Y-18890631D01*
X20211620Y-18903732D01*
X20211264Y-18904668D01*
X20178568Y-18939281D01*
X20157647Y-18961783D01*
X20156872Y-18962250D01*
X20144550Y-18975295D01*
X20055886Y-19015017D01*
X19958771Y-19017784D01*
X19867988Y-18983176D01*
X19797361Y-18916462D01*
X19773955Y-18875900D01*
X19773053Y-18873929D01*
X19752149Y-18799176D01*
X19751677Y-18795141D01*
X19750000Y-18766285D01*
X19750000Y-15599000D01*
X19768954Y-15503712D01*
X19822930Y-15422930D01*
X19903712Y-15368954D01*
X19999000Y-15350000D01*
X21349999Y-15350000D01*
X21350000Y-15350000D01*
X21350000Y-14434500D01*
X21368954Y-14339212D01*
X21422930Y-14258430D01*
X21503712Y-14204454D01*
X21599000Y-14185500D01*
X22615692Y-14185500D01*
X22615694Y-14185500D01*
X22652569Y-14182598D01*
X22810398Y-14136744D01*
X22901858Y-14082654D01*
X22946095Y-14062050D01*
X22981654Y-14049562D01*
X23064149Y-14035500D01*
X28737888Y-14035500D01*
X28786460Y-14040283D01*
G37*
%TD.AperFunction*%
%TD*%
M02*
