%TF.GenerationSoftware,KiCad,Pcbnew,10.0.0*%
%TF.CreationDate,2026-04-17T03:24:38+02:00*%
%TF.ProjectId,bios-programmer-ch341a,62696f73-2d70-4726-9f67-72616d6d6572,rev?*%
%TF.SameCoordinates,PX2625a00PY1c9c380*%
%TF.FileFunction,Paste,Bot*%
%TF.FilePolarity,Positive*%
%FSLAX46Y46*%
G04 Gerber Fmt 4.6, Leading zero omitted, Abs format (unit mm)*
G04 Created by KiCad (PCBNEW 10.0.0) date 2026-04-17 03:24:38*
%MOMM*%
%LPD*%
G01*
G04 APERTURE LIST*
G04 Aperture macros list*
%AMRoundRect*
0 Rectangle with rounded corners*
0 $1 Rounding radius*
0 $2 $3 $4 $5 $6 $7 $8 $9 X,Y pos of 4 corners*
0 Add a 4 corners polygon primitive as box body*
4,1,4,$2,$3,$4,$5,$6,$7,$8,$9,$2,$3,0*
0 Add four circle primitives for the rounded corners*
1,1,$1+$1,$2,$3*
1,1,$1+$1,$4,$5*
1,1,$1+$1,$6,$7*
1,1,$1+$1,$8,$9*
0 Add four rect primitives between the rounded corners*
20,1,$1+$1,$2,$3,$4,$5,0*
20,1,$1+$1,$4,$5,$6,$7,0*
20,1,$1+$1,$6,$7,$8,$9,0*
20,1,$1+$1,$8,$9,$2,$3,0*%
G04 Aperture macros list end*
%ADD10RoundRect,0.150000X0.825000X0.150000X-0.825000X0.150000X-0.825000X-0.150000X0.825000X-0.150000X0*%
%ADD11RoundRect,0.237500X-0.300000X-0.237500X0.300000X-0.237500X0.300000X0.237500X-0.300000X0.237500X0*%
%ADD12RoundRect,0.150000X-0.150000X0.875000X-0.150000X-0.875000X0.150000X-0.875000X0.150000X0.875000X0*%
%ADD13RoundRect,0.250000X0.650000X-0.412500X0.650000X0.412500X-0.650000X0.412500X-0.650000X-0.412500X0*%
%ADD14RoundRect,0.237500X0.250000X0.237500X-0.250000X0.237500X-0.250000X-0.237500X0.250000X-0.237500X0*%
%ADD15RoundRect,0.237500X-0.237500X0.300000X-0.237500X-0.300000X0.237500X-0.300000X0.237500X0.300000X0*%
%ADD16RoundRect,0.237500X0.237500X-0.300000X0.237500X0.300000X-0.237500X0.300000X-0.237500X-0.300000X0*%
%ADD17RoundRect,0.237500X0.300000X0.237500X-0.300000X0.237500X-0.300000X-0.237500X0.300000X-0.237500X0*%
G04 APERTURE END LIST*
D10*
%TO.C,U3*%
X21725000Y-10845000D03*
X21725000Y-12115000D03*
X21725000Y-13385000D03*
X21725000Y-14655000D03*
X16775000Y-14655000D03*
X16775000Y-13385000D03*
X16775000Y-12115000D03*
X16775000Y-10845000D03*
%TD*%
D11*
%TO.C,C6*%
X33680000Y-6100000D03*
X35405000Y-6100000D03*
%TD*%
D12*
%TO.C,U1*%
X25245000Y-8350000D03*
X26515000Y-8350000D03*
X27785000Y-8350000D03*
X29055000Y-8350000D03*
X30325000Y-8350000D03*
X31595000Y-8350000D03*
X32865000Y-8350000D03*
X34135000Y-8350000D03*
X35405000Y-8350000D03*
X36675000Y-8350000D03*
X37945000Y-8350000D03*
X39215000Y-8350000D03*
X40485000Y-8350000D03*
X41755000Y-8350000D03*
X41755000Y-17650000D03*
X40485000Y-17650000D03*
X39215000Y-17650000D03*
X37945000Y-17650000D03*
X36675000Y-17650000D03*
X35405000Y-17650000D03*
X34135000Y-17650000D03*
X32865000Y-17650000D03*
X31595000Y-17650000D03*
X30325000Y-17650000D03*
X29055000Y-17650000D03*
X27785000Y-17650000D03*
X26515000Y-17650000D03*
X25245000Y-17650000D03*
%TD*%
D13*
%TO.C,C4*%
X21500000Y-19717500D03*
X21500000Y-16592500D03*
%TD*%
D14*
%TO.C,R2*%
X25249099Y-6002175D03*
X23424099Y-6002175D03*
%TD*%
D15*
%TO.C,C2*%
X47000000Y-14275000D03*
X47000000Y-16000000D03*
%TD*%
D12*
%TO.C,U2*%
X37589173Y-22660000D03*
X38859173Y-22660000D03*
X40129173Y-22660000D03*
X41399173Y-22660000D03*
X42669173Y-22660000D03*
X43939173Y-22660000D03*
X45209173Y-22660000D03*
X46479173Y-22660000D03*
X46479173Y-31960000D03*
X45209173Y-31960000D03*
X43939173Y-31960000D03*
X42669173Y-31960000D03*
X41399173Y-31960000D03*
X40129173Y-31960000D03*
X38859173Y-31960000D03*
X37589173Y-31960000D03*
%TD*%
D15*
%TO.C,C10*%
X15750000Y-5137500D03*
X15750000Y-6862500D03*
%TD*%
D16*
%TO.C,C1*%
X42000000Y-5362500D03*
X42000000Y-3637500D03*
%TD*%
D17*
%TO.C,C3*%
X26512500Y-4500000D03*
X24787500Y-4500000D03*
%TD*%
D16*
%TO.C,C7*%
X21722750Y-7862500D03*
X21722750Y-6137500D03*
%TD*%
%TO.C,C9*%
X35500000Y-33725000D03*
X35500000Y-32000000D03*
%TD*%
%TO.C,C8*%
X35500000Y-22662500D03*
X35500000Y-20937500D03*
%TD*%
%TO.C,C5*%
X23500000Y-19722500D03*
X23500000Y-17997500D03*
%TD*%
M02*
