%TF.GenerationSoftware,KiCad,Pcbnew,10.0.0*%
%TF.CreationDate,2026-04-17T03:24:38+02:00*%
%TF.ProjectId,bios-programmer-ch341a,62696f73-2d70-4726-9f67-72616d6d6572,rev?*%
%TF.SameCoordinates,PX2625a00PY1c9c380*%
%TF.FileFunction,Legend,Top*%
%TF.FilePolarity,Positive*%
%FSLAX46Y46*%
G04 Gerber Fmt 4.6, Leading zero omitted, Abs format (unit mm)*
G04 Created by KiCad (PCBNEW 10.0.0) date 2026-04-17 03:24:38*
%MOMM*%
%LPD*%
G01*
G04 APERTURE LIST*
%ADD10C,0.100000*%
%ADD11C,0.250000*%
%ADD12C,0.158750*%
%ADD13C,0.120000*%
%ADD14C,0.200000*%
G04 APERTURE END LIST*
D10*
X4750000Y-4000000D02*
X4250000Y-3500000D01*
X5250000Y-3500000D01*
X4750000Y-4000000D01*
G36*
X4750000Y-4000000D02*
G01*
X4250000Y-3500000D01*
X5250000Y-3500000D01*
X4750000Y-4000000D01*
G37*
X45753542Y-52750000D02*
X44753542Y-52750000D01*
X45253542Y-52250000D01*
X45753542Y-52750000D01*
G36*
X45753542Y-52750000D02*
G01*
X44753542Y-52750000D01*
X45253542Y-52250000D01*
X45753542Y-52750000D01*
G37*
D11*
X19250000Y-9200000D02*
X19250000Y-9150000D01*
X19250000Y-8150000D02*
X19250000Y-8100000D01*
X19250000Y-7100000D02*
X19250000Y-7050000D01*
X19250000Y-6050000D02*
X19250000Y-6000000D01*
X19250000Y-5000000D02*
X19250000Y-4950000D01*
X19250000Y-3950000D02*
X19250000Y-3900000D01*
X19250000Y-2900000D02*
X19250000Y-2850000D01*
X19250000Y-1850000D02*
X19250000Y-1800000D01*
X19250000Y-800000D02*
X19250000Y-750000D01*
X19250000Y-20750000D02*
X19250000Y-20700000D01*
X19250000Y-19700000D02*
X19250000Y-19650000D01*
X32450000Y-21500000D02*
X32400000Y-21500000D01*
X31400000Y-21500000D02*
X31350000Y-21500000D01*
X30350000Y-21500000D02*
X30300000Y-21500000D01*
X29300000Y-21500000D02*
X29250000Y-21500000D01*
X28250000Y-21500000D02*
X28200000Y-21500000D01*
X27200000Y-21500000D02*
X27150000Y-21500000D01*
X26150000Y-21500000D02*
X26100000Y-21500000D01*
X25100000Y-21500000D02*
X25050000Y-21500000D01*
X24050000Y-21500000D02*
X24000000Y-21500000D01*
X23000000Y-21500000D02*
X22950000Y-21500000D01*
X21950000Y-21500000D02*
X21900000Y-21500000D01*
X20900000Y-21500000D02*
X20850000Y-21500000D01*
X19850000Y-21500000D02*
X19800000Y-21500000D01*
X38000000Y-27250000D02*
X37964645Y-27214645D01*
X37257538Y-26507538D02*
X37222183Y-26472183D01*
X36515076Y-25765076D02*
X36479720Y-25729720D01*
X35772614Y-25022614D02*
X35737258Y-24987258D01*
X35030152Y-24280152D02*
X34994796Y-24244796D01*
X34287689Y-23537689D02*
X34252334Y-23502334D01*
X33545227Y-22795227D02*
X33509872Y-22759872D01*
X32802765Y-22052765D02*
X32767410Y-22017410D01*
X50700000Y-27260000D02*
X50650000Y-27260000D01*
X49650000Y-27260000D02*
X49600000Y-27260000D01*
X48600000Y-27260000D02*
X48550000Y-27260000D01*
X47550000Y-27260000D02*
X47500000Y-27260000D01*
X46500000Y-27260000D02*
X46450000Y-27260000D01*
X45450000Y-27260000D02*
X45400000Y-27260000D01*
X44400000Y-27260000D02*
X44350000Y-27260000D01*
X43350000Y-27260000D02*
X43300000Y-27260000D01*
X42300000Y-27260000D02*
X42250000Y-27260000D01*
X41250000Y-27260000D02*
X41200000Y-27260000D01*
X40200000Y-27260000D02*
X40150000Y-27260000D01*
X39150000Y-27260000D02*
X39100000Y-27260000D01*
D12*
G36*
X30257739Y-11139169D02*
G01*
X30216952Y-11065320D01*
X30187600Y-10985724D01*
X30169617Y-10899400D01*
X30163441Y-10805174D01*
X30170597Y-10710381D01*
X30190943Y-10628814D01*
X30223474Y-10558246D01*
X30268136Y-10496949D01*
X30325825Y-10443804D01*
X30390770Y-10402368D01*
X30468067Y-10368478D01*
X30559717Y-10342710D01*
X30668067Y-10326120D01*
X30795761Y-10320194D01*
X30946543Y-10328885D01*
X31071721Y-10353056D01*
X31175375Y-10390492D01*
X31260966Y-10439927D01*
X31320482Y-10491800D01*
X31366617Y-10552674D01*
X31400331Y-10623790D01*
X31421519Y-10707108D01*
X31429010Y-10805174D01*
X31423577Y-10893112D01*
X31407219Y-10980430D01*
X31380679Y-11061800D01*
X31349602Y-11120092D01*
X31235453Y-11073254D01*
X31273952Y-10989368D01*
X31297089Y-10900467D01*
X31304935Y-10805174D01*
X31296614Y-10722829D01*
X31273197Y-10655334D01*
X31235551Y-10599550D01*
X31182565Y-10553533D01*
X31121156Y-10520953D01*
X31039610Y-10495054D01*
X30933030Y-10477593D01*
X30795761Y-10471101D01*
X30655871Y-10478483D01*
X30546485Y-10498455D01*
X30462026Y-10528355D01*
X30397734Y-10566455D01*
X30349860Y-10612112D01*
X30315916Y-10665856D01*
X30294923Y-10729329D01*
X30287517Y-10805096D01*
X30296356Y-10897385D01*
X30323751Y-10993449D01*
X30371888Y-11094890D01*
X30257739Y-11139169D01*
G37*
G36*
X31265231Y-12069657D02*
G01*
X31295431Y-11960918D01*
X31304935Y-11862296D01*
X31298845Y-11789761D01*
X31281837Y-11730298D01*
X31254994Y-11681378D01*
X31217230Y-11642731D01*
X31170837Y-11619676D01*
X31113006Y-11611586D01*
X31065553Y-11620689D01*
X31018642Y-11649649D01*
X30970240Y-11704393D01*
X30919758Y-11794597D01*
X30833061Y-11973731D01*
X30805182Y-12016654D01*
X30766448Y-12062677D01*
X30720493Y-12103230D01*
X30666645Y-12135106D01*
X30606635Y-12155431D01*
X30537529Y-12162480D01*
X30450415Y-12154361D01*
X30377024Y-12131329D01*
X30314650Y-12094217D01*
X30261461Y-12042282D01*
X30218662Y-11979687D01*
X30188261Y-11912328D01*
X30169775Y-11839216D01*
X30163441Y-11759080D01*
X30171018Y-11655454D01*
X30192792Y-11563845D01*
X30227961Y-11482315D01*
X30352036Y-11511783D01*
X30314205Y-11606971D01*
X30293761Y-11687388D01*
X30287517Y-11755591D01*
X30295053Y-11834347D01*
X30316114Y-11898218D01*
X30349632Y-11950312D01*
X30395479Y-11990587D01*
X30451438Y-12015041D01*
X30520623Y-12023671D01*
X30572520Y-12018155D01*
X30617567Y-12002221D01*
X30657261Y-11975902D01*
X30690692Y-11940652D01*
X30728814Y-11884223D01*
X30772264Y-11799793D01*
X30854929Y-11629344D01*
X30880369Y-11591843D01*
X30915803Y-11552573D01*
X30957276Y-11518622D01*
X31003121Y-11493559D01*
X31053154Y-11478073D01*
X31108508Y-11472777D01*
X31182001Y-11480035D01*
X31244429Y-11500744D01*
X31298053Y-11534414D01*
X31344329Y-11582040D01*
X31380434Y-11638514D01*
X31406794Y-11702535D01*
X31423249Y-11775421D01*
X31429010Y-11858806D01*
X31419172Y-11980191D01*
X31389306Y-12101761D01*
X31265231Y-12069657D01*
G37*
G36*
X31409158Y-17028522D02*
G01*
X30183294Y-16629387D01*
X30183294Y-16458473D01*
X31409158Y-16058563D01*
X31409158Y-16207764D01*
X30356301Y-16543543D01*
X31409158Y-16881028D01*
X31409158Y-17028522D01*
G37*
G36*
X30257739Y-18007554D02*
G01*
X30216952Y-17933706D01*
X30187600Y-17854109D01*
X30169617Y-17767785D01*
X30163441Y-17673559D01*
X30170597Y-17578767D01*
X30190943Y-17497199D01*
X30223474Y-17426632D01*
X30268136Y-17365335D01*
X30325825Y-17312189D01*
X30390770Y-17270753D01*
X30468067Y-17236863D01*
X30559717Y-17211096D01*
X30668067Y-17194505D01*
X30795761Y-17188579D01*
X30946543Y-17197271D01*
X31071721Y-17221441D01*
X31175375Y-17258878D01*
X31260966Y-17308312D01*
X31320482Y-17360185D01*
X31366617Y-17421060D01*
X31400331Y-17492175D01*
X31421519Y-17575494D01*
X31429010Y-17673559D01*
X31423577Y-17761497D01*
X31407219Y-17848815D01*
X31380679Y-17930186D01*
X31349602Y-17988478D01*
X31235453Y-17941639D01*
X31273952Y-17857753D01*
X31297089Y-17768852D01*
X31304935Y-17673559D01*
X31296614Y-17591214D01*
X31273197Y-17523719D01*
X31235551Y-17467935D01*
X31182565Y-17421919D01*
X31121156Y-17389338D01*
X31039610Y-17363440D01*
X30933030Y-17345979D01*
X30795761Y-17339486D01*
X30655871Y-17346868D01*
X30546485Y-17366840D01*
X30462026Y-17396741D01*
X30397734Y-17434840D01*
X30349860Y-17480498D01*
X30315916Y-17534241D01*
X30294923Y-17597714D01*
X30287517Y-17673481D01*
X30296356Y-17765771D01*
X30323751Y-17861835D01*
X30371888Y-17963275D01*
X30257739Y-18007554D01*
G37*
G36*
X30257739Y-19073362D02*
G01*
X30216952Y-18999513D01*
X30187600Y-18919917D01*
X30169617Y-18833593D01*
X30163441Y-18739366D01*
X30170597Y-18644574D01*
X30190943Y-18563007D01*
X30223474Y-18492439D01*
X30268136Y-18431142D01*
X30325825Y-18377997D01*
X30390770Y-18336560D01*
X30468067Y-18302671D01*
X30559717Y-18276903D01*
X30668067Y-18260313D01*
X30795761Y-18254387D01*
X30946543Y-18263078D01*
X31071721Y-18287249D01*
X31175375Y-18324685D01*
X31260966Y-18374119D01*
X31320482Y-18425992D01*
X31366617Y-18486867D01*
X31400331Y-18557983D01*
X31421519Y-18641301D01*
X31429010Y-18739366D01*
X31423577Y-18827305D01*
X31407219Y-18914623D01*
X31380679Y-18995993D01*
X31349602Y-19054285D01*
X31235453Y-19007447D01*
X31273952Y-18923561D01*
X31297089Y-18834660D01*
X31304935Y-18739366D01*
X31296614Y-18657021D01*
X31273197Y-18589526D01*
X31235551Y-18533743D01*
X31182565Y-18487726D01*
X31121156Y-18455146D01*
X31039610Y-18429247D01*
X30933030Y-18411786D01*
X30795761Y-18405293D01*
X30655871Y-18412676D01*
X30546485Y-18432648D01*
X30462026Y-18462548D01*
X30397734Y-18500648D01*
X30349860Y-18546305D01*
X30315916Y-18600049D01*
X30294923Y-18663521D01*
X30287517Y-18739289D01*
X30296356Y-18831578D01*
X30323751Y-18927642D01*
X30371888Y-19029082D01*
X30257739Y-19073362D01*
G37*
G36*
X28583294Y-11137385D02*
G01*
X28583294Y-11000360D01*
X29635453Y-11000360D01*
X29129225Y-10815565D01*
X29129225Y-10681098D01*
X29635453Y-10496303D01*
X28583294Y-10496303D01*
X28583294Y-10359200D01*
X29809158Y-10359200D01*
X29809158Y-10543995D01*
X29249035Y-10748719D01*
X29809158Y-10952668D01*
X29809158Y-11137385D01*
X28583294Y-11137385D01*
G37*
G36*
X28583294Y-12080901D02*
G01*
X28583294Y-11524811D01*
X28707369Y-11524811D01*
X28707369Y-11735584D01*
X29685083Y-11735584D01*
X29685083Y-11524811D01*
X29809158Y-11524811D01*
X29809158Y-12080901D01*
X29685083Y-12080901D01*
X29685083Y-11877883D01*
X28707369Y-11877883D01*
X28707369Y-12080901D01*
X28583294Y-12080901D01*
G37*
G36*
X29665231Y-13135464D02*
G01*
X29695431Y-13026726D01*
X29704935Y-12928103D01*
X29698845Y-12855568D01*
X29681837Y-12796105D01*
X29654994Y-12747186D01*
X29617230Y-12708538D01*
X29570837Y-12685483D01*
X29513006Y-12677393D01*
X29465553Y-12686496D01*
X29418642Y-12715456D01*
X29370240Y-12770201D01*
X29319758Y-12860404D01*
X29233061Y-13039538D01*
X29205182Y-13082461D01*
X29166448Y-13128485D01*
X29120493Y-13169037D01*
X29066645Y-13200914D01*
X29006635Y-13221239D01*
X28937529Y-13228288D01*
X28850415Y-13220169D01*
X28777024Y-13197136D01*
X28714650Y-13160024D01*
X28661461Y-13108090D01*
X28618662Y-13045495D01*
X28588261Y-12978135D01*
X28569775Y-12905023D01*
X28563441Y-12824888D01*
X28571018Y-12721261D01*
X28592792Y-12629652D01*
X28627961Y-12548122D01*
X28752036Y-12577590D01*
X28714205Y-12672779D01*
X28693761Y-12753196D01*
X28687517Y-12821398D01*
X28695053Y-12900155D01*
X28716114Y-12964025D01*
X28749632Y-13016119D01*
X28795479Y-13056395D01*
X28851438Y-13080849D01*
X28920623Y-13089479D01*
X28972520Y-13083962D01*
X29017567Y-13068029D01*
X29057261Y-13041710D01*
X29090692Y-13006459D01*
X29128814Y-12950031D01*
X29172264Y-12865600D01*
X29254929Y-12695152D01*
X29280369Y-12657650D01*
X29315803Y-12618380D01*
X29357276Y-12584429D01*
X29403121Y-12559367D01*
X29453154Y-12543881D01*
X29508508Y-12538584D01*
X29582001Y-12545842D01*
X29644429Y-12566552D01*
X29698053Y-12600222D01*
X29744329Y-12647848D01*
X29780434Y-12704322D01*
X29806794Y-12768342D01*
X29823249Y-12841228D01*
X29829010Y-12924613D01*
X29819172Y-13045998D01*
X29789306Y-13167568D01*
X29665231Y-13135464D01*
G37*
G36*
X29353892Y-13525701D02*
G01*
X29481846Y-13547877D01*
X29584623Y-13581597D01*
X29666549Y-13625174D01*
X29725481Y-13672558D01*
X29770236Y-13726483D01*
X29802293Y-13787720D01*
X29822094Y-13857700D01*
X29829010Y-13938387D01*
X29822115Y-14019058D01*
X29802369Y-14089080D01*
X29770398Y-14150403D01*
X29725767Y-14204447D01*
X29667014Y-14251987D01*
X29585297Y-14295724D01*
X29482560Y-14329589D01*
X29354409Y-14351878D01*
X29195761Y-14360010D01*
X29038158Y-14351936D01*
X28910486Y-14329776D01*
X28807801Y-14296058D01*
X28725825Y-14252452D01*
X28666971Y-14205082D01*
X28622244Y-14151094D01*
X28590184Y-14089701D01*
X28570367Y-14019460D01*
X28563441Y-13938387D01*
X28563448Y-13938309D01*
X28687517Y-13938309D01*
X28696047Y-14003908D01*
X28720632Y-14058876D01*
X28761971Y-14105882D01*
X28823534Y-14145955D01*
X28911088Y-14178325D01*
X29032177Y-14200592D01*
X29195761Y-14209026D01*
X29359698Y-14200586D01*
X29481030Y-14178305D01*
X29568742Y-14145918D01*
X29630400Y-14105834D01*
X29671789Y-14058828D01*
X29696398Y-14003876D01*
X29704935Y-13938309D01*
X29696784Y-13876632D01*
X29673081Y-13823882D01*
X29632967Y-13777792D01*
X29573105Y-13737462D01*
X29507676Y-13709811D01*
X29425288Y-13688129D01*
X29322575Y-13673770D01*
X29195761Y-13668523D01*
X29067375Y-13673783D01*
X28964164Y-13688128D01*
X28882093Y-13709696D01*
X28817563Y-13737074D01*
X28758702Y-13777082D01*
X28719107Y-13823098D01*
X28695618Y-13876071D01*
X28687517Y-13938309D01*
X28563448Y-13938309D01*
X28570322Y-13858092D01*
X28590037Y-13788328D01*
X28621977Y-13727161D01*
X28666593Y-13673185D01*
X28725360Y-13625639D01*
X28807127Y-13581874D01*
X28909772Y-13548011D01*
X29037641Y-13525738D01*
X29195761Y-13517616D01*
X29353892Y-13525701D01*
G37*
G36*
X29029965Y-15948834D02*
G01*
X28976830Y-15877209D01*
X28941829Y-15810889D01*
X28922128Y-15748724D01*
X28915815Y-15689439D01*
X28921521Y-15641397D01*
X28942417Y-15570019D01*
X28985298Y-15467344D01*
X29028819Y-15362000D01*
X29049374Y-15293147D01*
X29054780Y-15250445D01*
X29048824Y-15203590D01*
X29028994Y-15147612D01*
X28991327Y-15079959D01*
X28930705Y-14997952D01*
X29054780Y-14997952D01*
X29107765Y-15070814D01*
X29142793Y-15138586D01*
X29162575Y-15202391D01*
X29168929Y-15263473D01*
X29163174Y-15312593D01*
X29142221Y-15384650D01*
X29099447Y-15487274D01*
X29055941Y-15590262D01*
X29035379Y-15657769D01*
X29029965Y-15699830D01*
X29035962Y-15746687D01*
X29055854Y-15802162D01*
X29093528Y-15868698D01*
X29154040Y-15948834D01*
X29029965Y-15948834D01*
G37*
G36*
X29809158Y-16540053D02*
G01*
X29803180Y-16627443D01*
X29786386Y-16701017D01*
X29759960Y-16763062D01*
X29724322Y-16815423D01*
X29678491Y-16859104D01*
X29624982Y-16890341D01*
X29562266Y-16909721D01*
X29488113Y-16916544D01*
X29415969Y-16908330D01*
X29349991Y-16884023D01*
X29288429Y-16842797D01*
X29237397Y-16788844D01*
X29197801Y-16722013D01*
X29169705Y-16639856D01*
X28583294Y-17031082D01*
X28583294Y-16853266D01*
X29105550Y-16515781D01*
X29263227Y-16515781D01*
X29270568Y-16588670D01*
X29291280Y-16648778D01*
X29324644Y-16698792D01*
X29369512Y-16738093D01*
X29420379Y-16761212D01*
X29479350Y-16769127D01*
X29543163Y-16761954D01*
X29592320Y-16742162D01*
X29630319Y-16710581D01*
X29658948Y-16665637D01*
X29677953Y-16603639D01*
X29685083Y-16519271D01*
X29685083Y-16336182D01*
X29263227Y-16336182D01*
X29263227Y-16515781D01*
X29105550Y-16515781D01*
X29139151Y-16494068D01*
X29139151Y-16336182D01*
X28583294Y-16336182D01*
X28583294Y-16193883D01*
X29809158Y-16193883D01*
X29809158Y-16540053D01*
G37*
G36*
X29665231Y-17872235D02*
G01*
X29695431Y-17763497D01*
X29704935Y-17664874D01*
X29698845Y-17592339D01*
X29681837Y-17532876D01*
X29654994Y-17483957D01*
X29617230Y-17445309D01*
X29570837Y-17422254D01*
X29513006Y-17414164D01*
X29465553Y-17423267D01*
X29418642Y-17452227D01*
X29370240Y-17506972D01*
X29319758Y-17597175D01*
X29233061Y-17776309D01*
X29205182Y-17819232D01*
X29166448Y-17865256D01*
X29120493Y-17905808D01*
X29066645Y-17937685D01*
X29006635Y-17958010D01*
X28937529Y-17965059D01*
X28850415Y-17956940D01*
X28777024Y-17933907D01*
X28714650Y-17896795D01*
X28661461Y-17844861D01*
X28618662Y-17782266D01*
X28588261Y-17714906D01*
X28569775Y-17641794D01*
X28563441Y-17561659D01*
X28571018Y-17458032D01*
X28592792Y-17366423D01*
X28627961Y-17284893D01*
X28752036Y-17314361D01*
X28714205Y-17409550D01*
X28693761Y-17489967D01*
X28687517Y-17558169D01*
X28695053Y-17636926D01*
X28716114Y-17700796D01*
X28749632Y-17752890D01*
X28795479Y-17793166D01*
X28851438Y-17817620D01*
X28920623Y-17826250D01*
X28972520Y-17820733D01*
X29017567Y-17804800D01*
X29057261Y-17778481D01*
X29090692Y-17743230D01*
X29128814Y-17686802D01*
X29172264Y-17602371D01*
X29254929Y-17431923D01*
X29280369Y-17394421D01*
X29315803Y-17355151D01*
X29357276Y-17321200D01*
X29403121Y-17296138D01*
X29453154Y-17280652D01*
X29508508Y-17275355D01*
X29582001Y-17282613D01*
X29644429Y-17303323D01*
X29698053Y-17336993D01*
X29744329Y-17384619D01*
X29780434Y-17441093D01*
X29806794Y-17505113D01*
X29823249Y-17577999D01*
X29829010Y-17661384D01*
X29819172Y-17782769D01*
X29789306Y-17904339D01*
X29665231Y-17872235D01*
G37*
G36*
X29695009Y-19127102D02*
G01*
X29695009Y-18749758D01*
X28583294Y-18749758D01*
X28583294Y-18608312D01*
X29695009Y-18608312D01*
X29695009Y-18229184D01*
X29809158Y-18229184D01*
X29809158Y-19127102D01*
X29695009Y-19127102D01*
G37*
G36*
X27429965Y-11212063D02*
G01*
X27376830Y-11140438D01*
X27341829Y-11074118D01*
X27322128Y-11011953D01*
X27315815Y-10952668D01*
X27321521Y-10904626D01*
X27342417Y-10833248D01*
X27385298Y-10730573D01*
X27428819Y-10625229D01*
X27449374Y-10556376D01*
X27454780Y-10513674D01*
X27448824Y-10466819D01*
X27428994Y-10410841D01*
X27391327Y-10343188D01*
X27330705Y-10261181D01*
X27454780Y-10261181D01*
X27507765Y-10334043D01*
X27542793Y-10401815D01*
X27562575Y-10465620D01*
X27568929Y-10526702D01*
X27563174Y-10575822D01*
X27542221Y-10647879D01*
X27499447Y-10750503D01*
X27455941Y-10853491D01*
X27435379Y-10920998D01*
X27429965Y-10963059D01*
X27435962Y-11009916D01*
X27455854Y-11065391D01*
X27493528Y-11131927D01*
X27554040Y-11212063D01*
X27429965Y-11212063D01*
G37*
G36*
X28209158Y-12304702D02*
G01*
X26983294Y-12148600D01*
X26983294Y-12016692D01*
X27675634Y-11808478D01*
X26983294Y-11601117D01*
X26983294Y-11465797D01*
X28209158Y-11313107D01*
X28209158Y-11453622D01*
X27212523Y-11556915D01*
X27817080Y-11737367D01*
X27817080Y-11879666D01*
X27211127Y-12060971D01*
X28209158Y-12165893D01*
X28209158Y-12304702D01*
G37*
G36*
X28209158Y-12874285D02*
G01*
X28203005Y-12962282D01*
X28185620Y-13037261D01*
X28158075Y-13101347D01*
X28120677Y-13156247D01*
X28072839Y-13202117D01*
X28017387Y-13234801D01*
X27952808Y-13255005D01*
X27876869Y-13262098D01*
X27800490Y-13255088D01*
X27734714Y-13235028D01*
X27677489Y-13202466D01*
X27627400Y-13156712D01*
X27587641Y-13101690D01*
X27558675Y-13038399D01*
X27540559Y-12965298D01*
X27534188Y-12880412D01*
X27534188Y-12860404D01*
X27658263Y-12860404D01*
X27665483Y-12944769D01*
X27684752Y-13006885D01*
X27713845Y-13052035D01*
X27752575Y-13083858D01*
X27802819Y-13103854D01*
X27868184Y-13111114D01*
X27929880Y-13103261D01*
X27981414Y-13080694D01*
X28025216Y-13043028D01*
X28057824Y-12994566D01*
X28077970Y-12936843D01*
X28085083Y-12867384D01*
X28085083Y-12706008D01*
X27658263Y-12706008D01*
X27658263Y-12860404D01*
X27534188Y-12860404D01*
X27534188Y-12706008D01*
X26983294Y-12706008D01*
X26983294Y-12563709D01*
X28209158Y-12563709D01*
X28209158Y-12874285D01*
G37*
G36*
X27057739Y-16941747D02*
G01*
X27016952Y-16867898D01*
X26987600Y-16788302D01*
X26969617Y-16701978D01*
X26963441Y-16607752D01*
X26970597Y-16512959D01*
X26990943Y-16431392D01*
X27023474Y-16360824D01*
X27068136Y-16299527D01*
X27125825Y-16246382D01*
X27190770Y-16204946D01*
X27268067Y-16171056D01*
X27359717Y-16145288D01*
X27468067Y-16128698D01*
X27595761Y-16122772D01*
X27746543Y-16131463D01*
X27871721Y-16155634D01*
X27975375Y-16193070D01*
X28060966Y-16242505D01*
X28120482Y-16294378D01*
X28166617Y-16355252D01*
X28200331Y-16426368D01*
X28221519Y-16509686D01*
X28229010Y-16607752D01*
X28223577Y-16695690D01*
X28207219Y-16783008D01*
X28180679Y-16864378D01*
X28149602Y-16922670D01*
X28035453Y-16875832D01*
X28073952Y-16791946D01*
X28097089Y-16703045D01*
X28104935Y-16607752D01*
X28096614Y-16525407D01*
X28073197Y-16457912D01*
X28035551Y-16402128D01*
X27982565Y-16356111D01*
X27921156Y-16323531D01*
X27839610Y-16297632D01*
X27733030Y-16280171D01*
X27595761Y-16273679D01*
X27455871Y-16281061D01*
X27346485Y-16301033D01*
X27262026Y-16330933D01*
X27197734Y-16369033D01*
X27149860Y-16414690D01*
X27115916Y-16468434D01*
X27094923Y-16531907D01*
X27087517Y-16607674D01*
X27096356Y-16699963D01*
X27123751Y-16796027D01*
X27171888Y-16897468D01*
X27057739Y-16941747D01*
G37*
G36*
X26983294Y-17966765D02*
G01*
X26983294Y-17300480D01*
X28209158Y-17300480D01*
X28209158Y-17442779D01*
X27107369Y-17442779D01*
X27107369Y-17966765D01*
X26983294Y-17966765D01*
G37*
G36*
X26983294Y-19190458D02*
G01*
X26983294Y-19010859D01*
X27584904Y-18597067D01*
X27444854Y-18467796D01*
X26983294Y-18467796D01*
X26983294Y-18325497D01*
X28209158Y-18325497D01*
X28209158Y-18467796D01*
X27622437Y-18467796D01*
X28209158Y-19010859D01*
X28209158Y-19174871D01*
X27692384Y-18696793D01*
X26983294Y-19190458D01*
G37*
G36*
X25473636Y-11137385D02*
G01*
X25425007Y-11059543D01*
X25390843Y-10978842D01*
X25370359Y-10894392D01*
X25363441Y-10805096D01*
X25370565Y-10709864D01*
X25390799Y-10628065D01*
X25423108Y-10557447D01*
X25467395Y-10496254D01*
X25524507Y-10443339D01*
X25588854Y-10402189D01*
X25665882Y-10368450D01*
X25757685Y-10342733D01*
X25866723Y-10326134D01*
X25995761Y-10320194D01*
X26148057Y-10328902D01*
X26273832Y-10353057D01*
X26377363Y-10390357D01*
X26462284Y-10439461D01*
X26521218Y-10491106D01*
X26566977Y-10551879D01*
X26600470Y-10623055D01*
X26621550Y-10706628D01*
X26629010Y-10805174D01*
X26623577Y-10893112D01*
X26607219Y-10980430D01*
X26580679Y-11061800D01*
X26549602Y-11120092D01*
X26435453Y-11073254D01*
X26473952Y-10989368D01*
X26497089Y-10900467D01*
X26504935Y-10805174D01*
X26496618Y-10723320D01*
X26473173Y-10656014D01*
X26435413Y-10600179D01*
X26382178Y-10553921D01*
X26320510Y-10521139D01*
X26238885Y-10495122D01*
X26132488Y-10477607D01*
X25995761Y-10471101D01*
X25855878Y-10478484D01*
X25746495Y-10498459D01*
X25662036Y-10528364D01*
X25597743Y-10566470D01*
X25549866Y-10612137D01*
X25515920Y-10665894D01*
X25494923Y-10729384D01*
X25487517Y-10805174D01*
X25494338Y-10887575D01*
X25512648Y-10949327D01*
X25540404Y-10995164D01*
X25839891Y-10995164D01*
X25839891Y-10774775D01*
X25963966Y-10774775D01*
X25963966Y-11137385D01*
X25473636Y-11137385D01*
G37*
G36*
X25383294Y-12178067D02*
G01*
X25383294Y-12020182D01*
X26351159Y-11581187D01*
X25383294Y-11581187D01*
X25383294Y-11438888D01*
X26609158Y-11438888D01*
X26609158Y-11597705D01*
X25649978Y-12038405D01*
X26609158Y-12038405D01*
X26609158Y-12178067D01*
X25383294Y-12178067D01*
G37*
G36*
X26609158Y-12764091D02*
G01*
X26602152Y-12859414D01*
X26581975Y-12944057D01*
X26549315Y-13019743D01*
X26504075Y-13087837D01*
X26445379Y-13149267D01*
X26378319Y-13199372D01*
X26301437Y-13239274D01*
X26213296Y-13268905D01*
X26112100Y-13287614D01*
X25995761Y-13294203D01*
X25876608Y-13287436D01*
X25773985Y-13268304D01*
X25685545Y-13238148D01*
X25609279Y-13197708D01*
X25543583Y-13147096D01*
X25485752Y-13084810D01*
X25441394Y-13016961D01*
X25409564Y-12942748D01*
X25390033Y-12860994D01*
X25383294Y-12770217D01*
X25383294Y-12765875D01*
X25507369Y-12765875D01*
X25515864Y-12850396D01*
X25540243Y-12923051D01*
X25580130Y-12986300D01*
X25636873Y-13041710D01*
X25703451Y-13083913D01*
X25783615Y-13115594D01*
X25879992Y-13135929D01*
X25995761Y-13143219D01*
X26110549Y-13135938D01*
X26206629Y-13115575D01*
X26287030Y-13083756D01*
X26354261Y-13041244D01*
X26411707Y-12985564D01*
X26451985Y-12922277D01*
X26476541Y-12849855D01*
X26485083Y-12765875D01*
X26485083Y-12665218D01*
X25507369Y-12665218D01*
X25507369Y-12765875D01*
X25383294Y-12765875D01*
X25383294Y-12522919D01*
X26609158Y-12522919D01*
X26609158Y-12764091D01*
G37*
G36*
X25383294Y-15874156D02*
G01*
X25383294Y-15737131D01*
X26435453Y-15737131D01*
X25929225Y-15552336D01*
X25929225Y-15417869D01*
X26435453Y-15233074D01*
X25383294Y-15233074D01*
X25383294Y-15095971D01*
X26609158Y-15095971D01*
X26609158Y-15280766D01*
X26049035Y-15485490D01*
X26609158Y-15689439D01*
X26609158Y-15874156D01*
X25383294Y-15874156D01*
G37*
G36*
X26153892Y-16130857D02*
G01*
X26281846Y-16153033D01*
X26384623Y-16186753D01*
X26466549Y-16230330D01*
X26525481Y-16277714D01*
X26570236Y-16331639D01*
X26602293Y-16392877D01*
X26622094Y-16462856D01*
X26629010Y-16543543D01*
X26622115Y-16624214D01*
X26602369Y-16694236D01*
X26570398Y-16755559D01*
X26525767Y-16809604D01*
X26467014Y-16857143D01*
X26385297Y-16900880D01*
X26282560Y-16934745D01*
X26154409Y-16957035D01*
X25995761Y-16965167D01*
X25838158Y-16957092D01*
X25710486Y-16934932D01*
X25607801Y-16901215D01*
X25525825Y-16857609D01*
X25466971Y-16810239D01*
X25422244Y-16756250D01*
X25390184Y-16694857D01*
X25370367Y-16624616D01*
X25363441Y-16543543D01*
X25363448Y-16543465D01*
X25487517Y-16543465D01*
X25496047Y-16609065D01*
X25520632Y-16664032D01*
X25561971Y-16711038D01*
X25623534Y-16751111D01*
X25711088Y-16783481D01*
X25832177Y-16805748D01*
X25995761Y-16814182D01*
X26159698Y-16805742D01*
X26281030Y-16783461D01*
X26368742Y-16751075D01*
X26430400Y-16710990D01*
X26471789Y-16663984D01*
X26496398Y-16609032D01*
X26504935Y-16543465D01*
X26496784Y-16481788D01*
X26473081Y-16429038D01*
X26432967Y-16382948D01*
X26373105Y-16342618D01*
X26307676Y-16314967D01*
X26225288Y-16293285D01*
X26122575Y-16278926D01*
X25995761Y-16273679D01*
X25867375Y-16278939D01*
X25764164Y-16293284D01*
X25682093Y-16314852D01*
X25617563Y-16342231D01*
X25558702Y-16382238D01*
X25519107Y-16428254D01*
X25495618Y-16481227D01*
X25487517Y-16543465D01*
X25363448Y-16543465D01*
X25370322Y-16463249D01*
X25390037Y-16393484D01*
X25421977Y-16332317D01*
X25466593Y-16278342D01*
X25525360Y-16230795D01*
X25607127Y-16187030D01*
X25709772Y-16153167D01*
X25837641Y-16130894D01*
X25995761Y-16122772D01*
X26153892Y-16130857D01*
G37*
G36*
X26465231Y-17872235D02*
G01*
X26495431Y-17763497D01*
X26504935Y-17664874D01*
X26498845Y-17592339D01*
X26481837Y-17532876D01*
X26454994Y-17483957D01*
X26417230Y-17445309D01*
X26370837Y-17422254D01*
X26313006Y-17414164D01*
X26265553Y-17423267D01*
X26218642Y-17452227D01*
X26170240Y-17506972D01*
X26119758Y-17597175D01*
X26033061Y-17776309D01*
X26005182Y-17819232D01*
X25966448Y-17865256D01*
X25920493Y-17905808D01*
X25866645Y-17937685D01*
X25806635Y-17958010D01*
X25737529Y-17965059D01*
X25650415Y-17956940D01*
X25577024Y-17933907D01*
X25514650Y-17896795D01*
X25461461Y-17844861D01*
X25418662Y-17782266D01*
X25388261Y-17714906D01*
X25369775Y-17641794D01*
X25363441Y-17561659D01*
X25371018Y-17458032D01*
X25392792Y-17366423D01*
X25427961Y-17284893D01*
X25552036Y-17314361D01*
X25514205Y-17409550D01*
X25493761Y-17489967D01*
X25487517Y-17558169D01*
X25495053Y-17636926D01*
X25516114Y-17700796D01*
X25549632Y-17752890D01*
X25595479Y-17793166D01*
X25651438Y-17817620D01*
X25720623Y-17826250D01*
X25772520Y-17820733D01*
X25817567Y-17804800D01*
X25857261Y-17778481D01*
X25890692Y-17743230D01*
X25928814Y-17686802D01*
X25972264Y-17602371D01*
X26054929Y-17431923D01*
X26080369Y-17394421D01*
X26115803Y-17355151D01*
X26157276Y-17321200D01*
X26203121Y-17296138D01*
X26253154Y-17280652D01*
X26308508Y-17275355D01*
X26382001Y-17282613D01*
X26444429Y-17303323D01*
X26498053Y-17336993D01*
X26544329Y-17384619D01*
X26580434Y-17441093D01*
X26606794Y-17505113D01*
X26623249Y-17577999D01*
X26629010Y-17661384D01*
X26619172Y-17782769D01*
X26589306Y-17904339D01*
X26465231Y-17872235D01*
G37*
G36*
X25383294Y-18949287D02*
G01*
X25383294Y-18393196D01*
X25507369Y-18393196D01*
X25507369Y-18603969D01*
X26485083Y-18603969D01*
X26485083Y-18393196D01*
X26609158Y-18393196D01*
X26609158Y-18949287D01*
X26485083Y-18949287D01*
X26485083Y-18746268D01*
X25507369Y-18746268D01*
X25507369Y-18949287D01*
X25383294Y-18949287D01*
G37*
G36*
X21009158Y-10659385D02*
G01*
X21009158Y-10830299D01*
X19783294Y-11230287D01*
X19783294Y-11081009D01*
X20210113Y-10945689D01*
X20210113Y-10904899D01*
X20334188Y-10904899D01*
X20834600Y-10744454D01*
X20334188Y-10584785D01*
X20334188Y-10904899D01*
X20210113Y-10904899D01*
X20210113Y-10543995D01*
X19783294Y-10406969D01*
X19783294Y-10259475D01*
X21009158Y-10659385D01*
G37*
G36*
X20432841Y-11679087D02*
G01*
X20463469Y-11691309D01*
X20490290Y-11711699D01*
X20511085Y-11738257D01*
X20523479Y-11768401D01*
X20527746Y-11803282D01*
X20523458Y-11838162D01*
X20510956Y-11868578D01*
X20489903Y-11895641D01*
X20462746Y-11916645D01*
X20432226Y-11929125D01*
X20397234Y-11933406D01*
X20361060Y-11929091D01*
X20329076Y-11916461D01*
X20300222Y-11895176D01*
X20277516Y-11867656D01*
X20264243Y-11837386D01*
X20259743Y-11803282D01*
X20264229Y-11769704D01*
X20277484Y-11739816D01*
X20300222Y-11712552D01*
X20329038Y-11691590D01*
X20361025Y-11679127D01*
X20397234Y-11674864D01*
X20432841Y-11679087D01*
G37*
G36*
X20544647Y-11410804D02*
G01*
X20669036Y-11431481D01*
X20772561Y-11463414D01*
X20858407Y-11505269D01*
X20920987Y-11551000D01*
X20967999Y-11603018D01*
X21001372Y-11661957D01*
X21021868Y-11729207D01*
X21029010Y-11806772D01*
X21022104Y-11882240D01*
X21002206Y-11948322D01*
X20969695Y-12006844D01*
X20923800Y-12059080D01*
X20862672Y-12105638D01*
X20778936Y-12148254D01*
X20675811Y-12181023D01*
X20549528Y-12202421D01*
X20395761Y-12210172D01*
X20247371Y-12202775D01*
X20123275Y-12182186D01*
X20019882Y-12150374D01*
X19934045Y-12108663D01*
X19871524Y-12063119D01*
X19824524Y-12011174D01*
X19791130Y-11952178D01*
X19770601Y-11884723D01*
X19763441Y-11806772D01*
X19763448Y-11806694D01*
X19887517Y-11806694D01*
X19895233Y-11867162D01*
X19917414Y-11917697D01*
X19954472Y-11960691D01*
X20009188Y-11997150D01*
X20069032Y-12021232D01*
X20150025Y-12040810D01*
X20257314Y-12054183D01*
X20396691Y-12059188D01*
X20536618Y-12054167D01*
X20643986Y-12040769D01*
X20724729Y-12021189D01*
X20784116Y-11997150D01*
X20838392Y-11960742D01*
X20875200Y-11917772D01*
X20897257Y-11867220D01*
X20904935Y-11806694D01*
X20897174Y-11747312D01*
X20874759Y-11697301D01*
X20837074Y-11654356D01*
X20781092Y-11617557D01*
X20720165Y-11593160D01*
X20639018Y-11573471D01*
X20532952Y-11560108D01*
X20396691Y-11555132D01*
X20258343Y-11560115D01*
X20151418Y-11573456D01*
X20070313Y-11593031D01*
X20010041Y-11617169D01*
X19954815Y-11653676D01*
X19917514Y-11696557D01*
X19895247Y-11746778D01*
X19887517Y-11806694D01*
X19763448Y-11806694D01*
X19770316Y-11731662D01*
X19790137Y-11665774D01*
X19822547Y-11607311D01*
X19868324Y-11555018D01*
X19929315Y-11508293D01*
X20012886Y-11465521D01*
X20115867Y-11432632D01*
X20242042Y-11411153D01*
X20395761Y-11403372D01*
X20544647Y-11410804D01*
G37*
G36*
X21009158Y-17028522D02*
G01*
X19783294Y-16629387D01*
X19783294Y-16458473D01*
X21009158Y-16058563D01*
X21009158Y-16207764D01*
X19956301Y-16543543D01*
X21009158Y-16881028D01*
X21009158Y-17028522D01*
G37*
G36*
X19857739Y-18007554D02*
G01*
X19816952Y-17933706D01*
X19787600Y-17854109D01*
X19769617Y-17767785D01*
X19763441Y-17673559D01*
X19770597Y-17578767D01*
X19790943Y-17497199D01*
X19823474Y-17426632D01*
X19868136Y-17365335D01*
X19925825Y-17312189D01*
X19990770Y-17270753D01*
X20068067Y-17236863D01*
X20159717Y-17211096D01*
X20268067Y-17194505D01*
X20395761Y-17188579D01*
X20546543Y-17197271D01*
X20671721Y-17221441D01*
X20775375Y-17258878D01*
X20860966Y-17308312D01*
X20920482Y-17360185D01*
X20966617Y-17421060D01*
X21000331Y-17492175D01*
X21021519Y-17575494D01*
X21029010Y-17673559D01*
X21023577Y-17761497D01*
X21007219Y-17848815D01*
X20980679Y-17930186D01*
X20949602Y-17988478D01*
X20835453Y-17941639D01*
X20873952Y-17857753D01*
X20897089Y-17768852D01*
X20904935Y-17673559D01*
X20896614Y-17591214D01*
X20873197Y-17523719D01*
X20835551Y-17467935D01*
X20782565Y-17421919D01*
X20721156Y-17389338D01*
X20639610Y-17363440D01*
X20533030Y-17345979D01*
X20395761Y-17339486D01*
X20255871Y-17346868D01*
X20146485Y-17366840D01*
X20062026Y-17396741D01*
X19997734Y-17434840D01*
X19949860Y-17480498D01*
X19915916Y-17534241D01*
X19894923Y-17597714D01*
X19887517Y-17673481D01*
X19896356Y-17765771D01*
X19923751Y-17861835D01*
X19971888Y-17963275D01*
X19857739Y-18007554D01*
G37*
G36*
X19857739Y-19073362D02*
G01*
X19816952Y-18999513D01*
X19787600Y-18919917D01*
X19769617Y-18833593D01*
X19763441Y-18739366D01*
X19770597Y-18644574D01*
X19790943Y-18563007D01*
X19823474Y-18492439D01*
X19868136Y-18431142D01*
X19925825Y-18377997D01*
X19990770Y-18336560D01*
X20068067Y-18302671D01*
X20159717Y-18276903D01*
X20268067Y-18260313D01*
X20395761Y-18254387D01*
X20546543Y-18263078D01*
X20671721Y-18287249D01*
X20775375Y-18324685D01*
X20860966Y-18374119D01*
X20920482Y-18425992D01*
X20966617Y-18486867D01*
X21000331Y-18557983D01*
X21021519Y-18641301D01*
X21029010Y-18739366D01*
X21023577Y-18827305D01*
X21007219Y-18914623D01*
X20980679Y-18995993D01*
X20949602Y-19054285D01*
X20835453Y-19007447D01*
X20873952Y-18923561D01*
X20897089Y-18834660D01*
X20904935Y-18739366D01*
X20896614Y-18657021D01*
X20873197Y-18589526D01*
X20835551Y-18533743D01*
X20782565Y-18487726D01*
X20721156Y-18455146D01*
X20639610Y-18429247D01*
X20533030Y-18411786D01*
X20395761Y-18405293D01*
X20255871Y-18412676D01*
X20146485Y-18432648D01*
X20062026Y-18462548D01*
X19997734Y-18500648D01*
X19949860Y-18546305D01*
X19915916Y-18600049D01*
X19894923Y-18663521D01*
X19887517Y-18739289D01*
X19896356Y-18831578D01*
X19923751Y-18927642D01*
X19971888Y-19029082D01*
X19857739Y-19073362D01*
G37*
G36*
X19409158Y-10659385D02*
G01*
X19409158Y-10830299D01*
X18183294Y-11230287D01*
X18183294Y-11081009D01*
X18610113Y-10945689D01*
X18610113Y-10904899D01*
X18734188Y-10904899D01*
X19234600Y-10744454D01*
X18734188Y-10584785D01*
X18734188Y-10904899D01*
X18610113Y-10904899D01*
X18610113Y-10543995D01*
X18183294Y-10406969D01*
X18183294Y-10259475D01*
X19409158Y-10659385D01*
G37*
G36*
X18183294Y-12158991D02*
G01*
X18183294Y-11515272D01*
X18307369Y-11515272D01*
X18307369Y-11774667D01*
X19257554Y-11774667D01*
X19136192Y-11530006D01*
X19282834Y-11530006D01*
X19414121Y-11794597D01*
X19414121Y-11916966D01*
X18307369Y-11916966D01*
X18307369Y-12158991D01*
X18183294Y-12158991D01*
G37*
G36*
X19409158Y-18107280D02*
G01*
X18183294Y-17951178D01*
X18183294Y-17819271D01*
X18875634Y-17611057D01*
X18183294Y-17403696D01*
X18183294Y-17268376D01*
X19409158Y-17115686D01*
X19409158Y-17256201D01*
X18412523Y-17359494D01*
X19017080Y-17539946D01*
X19017080Y-17682245D01*
X18411127Y-17863550D01*
X19409158Y-17968471D01*
X19409158Y-18107280D01*
G37*
G36*
X19409158Y-18676864D02*
G01*
X19403005Y-18764861D01*
X19385620Y-18839839D01*
X19358075Y-18903926D01*
X19320677Y-18958825D01*
X19272839Y-19004696D01*
X19217387Y-19037380D01*
X19152808Y-19057584D01*
X19076869Y-19064677D01*
X19000490Y-19057667D01*
X18934714Y-19037607D01*
X18877489Y-19005044D01*
X18827400Y-18959291D01*
X18787641Y-18904269D01*
X18758675Y-18840978D01*
X18740559Y-18767877D01*
X18734188Y-18682990D01*
X18734188Y-18662983D01*
X18858263Y-18662983D01*
X18865483Y-18747348D01*
X18884752Y-18809464D01*
X18913845Y-18854613D01*
X18952575Y-18886437D01*
X19002819Y-18906433D01*
X19068184Y-18913693D01*
X19129880Y-18905840D01*
X19181414Y-18883273D01*
X19225216Y-18845606D01*
X19257824Y-18797145D01*
X19277970Y-18739422D01*
X19285083Y-18669962D01*
X19285083Y-18508587D01*
X18858263Y-18508587D01*
X18858263Y-18662983D01*
X18734188Y-18662983D01*
X18734188Y-18508587D01*
X18183294Y-18508587D01*
X18183294Y-18366288D01*
X19409158Y-18366288D01*
X19409158Y-18676864D01*
G37*
G36*
X17809158Y-10659385D02*
G01*
X17809158Y-10830299D01*
X16583294Y-11230287D01*
X16583294Y-11081009D01*
X17010113Y-10945689D01*
X17010113Y-10904899D01*
X17134188Y-10904899D01*
X17634600Y-10744454D01*
X17134188Y-10584785D01*
X17134188Y-10904899D01*
X17010113Y-10904899D01*
X17010113Y-10543995D01*
X16583294Y-10406969D01*
X16583294Y-10259475D01*
X17809158Y-10659385D01*
G37*
G36*
X16583294Y-12126886D02*
G01*
X16583294Y-11453622D01*
X16686509Y-11453622D01*
X16949811Y-11686409D01*
X17068816Y-11785912D01*
X17168967Y-11855547D01*
X17272455Y-11909987D01*
X17344710Y-11936859D01*
X17415279Y-11952533D01*
X17484856Y-11957679D01*
X17550350Y-11950265D01*
X17603102Y-11929423D01*
X17645999Y-11895641D01*
X17677653Y-11850888D01*
X17697685Y-11794061D01*
X17704935Y-11721703D01*
X17700050Y-11665058D01*
X17683155Y-11589686D01*
X17650342Y-11490923D01*
X17774417Y-11470993D01*
X17804746Y-11559661D01*
X17822910Y-11650780D01*
X17829010Y-11745122D01*
X17822717Y-11826431D01*
X17804819Y-11896340D01*
X17776164Y-11956805D01*
X17736729Y-12009325D01*
X17687470Y-12052662D01*
X17631040Y-12083652D01*
X17566029Y-12102809D01*
X17490440Y-12109516D01*
X17418175Y-12103918D01*
X17345666Y-12086925D01*
X17272144Y-12057869D01*
X17166902Y-11999547D01*
X17064318Y-11925574D01*
X16946169Y-11825063D01*
X16707369Y-11611586D01*
X16707369Y-12126886D01*
X16583294Y-12126886D01*
G37*
G36*
X17665231Y-16806427D02*
G01*
X17695431Y-16697689D01*
X17704935Y-16599066D01*
X17698845Y-16526531D01*
X17681837Y-16467069D01*
X17654994Y-16418149D01*
X17617230Y-16379502D01*
X17570837Y-16356446D01*
X17513006Y-16348356D01*
X17465553Y-16357459D01*
X17418642Y-16386420D01*
X17370240Y-16441164D01*
X17319758Y-16531368D01*
X17233061Y-16710501D01*
X17205182Y-16753424D01*
X17166448Y-16799448D01*
X17120493Y-16840000D01*
X17066645Y-16871877D01*
X17006635Y-16892202D01*
X16937529Y-16899251D01*
X16850415Y-16891132D01*
X16777024Y-16868099D01*
X16714650Y-16830987D01*
X16661461Y-16779053D01*
X16618662Y-16716458D01*
X16588261Y-16649098D01*
X16569775Y-16575986D01*
X16563441Y-16495851D01*
X16571018Y-16392225D01*
X16592792Y-16300616D01*
X16627961Y-16219085D01*
X16752036Y-16248553D01*
X16714205Y-16343742D01*
X16693761Y-16424159D01*
X16687517Y-16492361D01*
X16695053Y-16571118D01*
X16716114Y-16634989D01*
X16749632Y-16687082D01*
X16795479Y-16727358D01*
X16851438Y-16751812D01*
X16920623Y-16760442D01*
X16972520Y-16754925D01*
X17017567Y-16738992D01*
X17057261Y-16712673D01*
X17090692Y-16677423D01*
X17128814Y-16620994D01*
X17172264Y-16536563D01*
X17254929Y-16366115D01*
X17280369Y-16328613D01*
X17315803Y-16289343D01*
X17357276Y-16255392D01*
X17403121Y-16230330D01*
X17453154Y-16214844D01*
X17508508Y-16209547D01*
X17582001Y-16216805D01*
X17644429Y-16237515D01*
X17698053Y-16271185D01*
X17744329Y-16318811D01*
X17780434Y-16375285D01*
X17806794Y-16439305D01*
X17823249Y-16512192D01*
X17829010Y-16595577D01*
X17819172Y-16716961D01*
X17789306Y-16838532D01*
X17665231Y-16806427D01*
G37*
G36*
X16657739Y-18007554D02*
G01*
X16616952Y-17933706D01*
X16587600Y-17854109D01*
X16569617Y-17767785D01*
X16563441Y-17673559D01*
X16570597Y-17578767D01*
X16590943Y-17497199D01*
X16623474Y-17426632D01*
X16668136Y-17365335D01*
X16725825Y-17312189D01*
X16790770Y-17270753D01*
X16868067Y-17236863D01*
X16959717Y-17211096D01*
X17068067Y-17194505D01*
X17195761Y-17188579D01*
X17346543Y-17197271D01*
X17471721Y-17221441D01*
X17575375Y-17258878D01*
X17660966Y-17308312D01*
X17720482Y-17360185D01*
X17766617Y-17421060D01*
X17800331Y-17492175D01*
X17821519Y-17575494D01*
X17829010Y-17673559D01*
X17823577Y-17761497D01*
X17807219Y-17848815D01*
X17780679Y-17930186D01*
X17749602Y-17988478D01*
X17635453Y-17941639D01*
X17673952Y-17857753D01*
X17697089Y-17768852D01*
X17704935Y-17673559D01*
X17696614Y-17591214D01*
X17673197Y-17523719D01*
X17635551Y-17467935D01*
X17582565Y-17421919D01*
X17521156Y-17389338D01*
X17439610Y-17363440D01*
X17333030Y-17345979D01*
X17195761Y-17339486D01*
X17055871Y-17346868D01*
X16946485Y-17366840D01*
X16862026Y-17396741D01*
X16797734Y-17434840D01*
X16749860Y-17480498D01*
X16715916Y-17534241D01*
X16694923Y-17597714D01*
X16687517Y-17673481D01*
X16696356Y-17765771D01*
X16723751Y-17861835D01*
X16771888Y-17963275D01*
X16657739Y-18007554D01*
G37*
G36*
X16583294Y-19032572D02*
G01*
X16583294Y-18366287D01*
X17809158Y-18366287D01*
X17809158Y-18508586D01*
X16707369Y-18508586D01*
X16707369Y-19032572D01*
X16583294Y-19032572D01*
G37*
G36*
X15073636Y-11137385D02*
G01*
X15025007Y-11059543D01*
X14990843Y-10978842D01*
X14970359Y-10894392D01*
X14963441Y-10805096D01*
X14970565Y-10709864D01*
X14990799Y-10628065D01*
X15023108Y-10557447D01*
X15067395Y-10496254D01*
X15124507Y-10443339D01*
X15188854Y-10402189D01*
X15265882Y-10368450D01*
X15357685Y-10342733D01*
X15466723Y-10326134D01*
X15595761Y-10320194D01*
X15748057Y-10328902D01*
X15873832Y-10353057D01*
X15977363Y-10390357D01*
X16062284Y-10439461D01*
X16121218Y-10491106D01*
X16166977Y-10551879D01*
X16200470Y-10623055D01*
X16221550Y-10706628D01*
X16229010Y-10805174D01*
X16223577Y-10893112D01*
X16207219Y-10980430D01*
X16180679Y-11061800D01*
X16149602Y-11120092D01*
X16035453Y-11073254D01*
X16073952Y-10989368D01*
X16097089Y-10900467D01*
X16104935Y-10805174D01*
X16096618Y-10723320D01*
X16073173Y-10656014D01*
X16035413Y-10600179D01*
X15982178Y-10553921D01*
X15920510Y-10521139D01*
X15838885Y-10495122D01*
X15732488Y-10477607D01*
X15595761Y-10471101D01*
X15455878Y-10478484D01*
X15346495Y-10498459D01*
X15262036Y-10528364D01*
X15197743Y-10566470D01*
X15149866Y-10612137D01*
X15115920Y-10665894D01*
X15094923Y-10729384D01*
X15087517Y-10805174D01*
X15094338Y-10887575D01*
X15112648Y-10949327D01*
X15140404Y-10995164D01*
X15439891Y-10995164D01*
X15439891Y-10774775D01*
X15563966Y-10774775D01*
X15563966Y-11137385D01*
X15073636Y-11137385D01*
G37*
G36*
X14983294Y-12178067D02*
G01*
X14983294Y-12020182D01*
X15951159Y-11581187D01*
X14983294Y-11581187D01*
X14983294Y-11438888D01*
X16209158Y-11438888D01*
X16209158Y-11597705D01*
X15249978Y-12038405D01*
X16209158Y-12038405D01*
X16209158Y-12178067D01*
X14983294Y-12178067D01*
G37*
G36*
X16209158Y-12764091D02*
G01*
X16202152Y-12859414D01*
X16181975Y-12944057D01*
X16149315Y-13019743D01*
X16104075Y-13087837D01*
X16045379Y-13149267D01*
X15978319Y-13199372D01*
X15901437Y-13239274D01*
X15813296Y-13268905D01*
X15712100Y-13287614D01*
X15595761Y-13294203D01*
X15476608Y-13287436D01*
X15373985Y-13268304D01*
X15285545Y-13238148D01*
X15209279Y-13197708D01*
X15143583Y-13147096D01*
X15085752Y-13084810D01*
X15041394Y-13016961D01*
X15009564Y-12942748D01*
X14990033Y-12860994D01*
X14983294Y-12770217D01*
X14983294Y-12765875D01*
X15107369Y-12765875D01*
X15115864Y-12850396D01*
X15140243Y-12923051D01*
X15180130Y-12986300D01*
X15236873Y-13041710D01*
X15303451Y-13083913D01*
X15383615Y-13115594D01*
X15479992Y-13135929D01*
X15595761Y-13143219D01*
X15710549Y-13135938D01*
X15806629Y-13115575D01*
X15887030Y-13083756D01*
X15954261Y-13041244D01*
X16011707Y-12985564D01*
X16051985Y-12922277D01*
X16076541Y-12849855D01*
X16085083Y-12765875D01*
X16085083Y-12665218D01*
X15107369Y-12665218D01*
X15107369Y-12765875D01*
X14983294Y-12765875D01*
X14983294Y-12522919D01*
X16209158Y-12522919D01*
X16209158Y-12764091D01*
G37*
G36*
X16065231Y-16806427D02*
G01*
X16095431Y-16697689D01*
X16104935Y-16599066D01*
X16098845Y-16526531D01*
X16081837Y-16467069D01*
X16054994Y-16418149D01*
X16017230Y-16379502D01*
X15970837Y-16356446D01*
X15913006Y-16348356D01*
X15865553Y-16357459D01*
X15818642Y-16386420D01*
X15770240Y-16441164D01*
X15719758Y-16531368D01*
X15633061Y-16710501D01*
X15605182Y-16753424D01*
X15566448Y-16799448D01*
X15520493Y-16840000D01*
X15466645Y-16871877D01*
X15406635Y-16892202D01*
X15337529Y-16899251D01*
X15250415Y-16891132D01*
X15177024Y-16868099D01*
X15114650Y-16830987D01*
X15061461Y-16779053D01*
X15018662Y-16716458D01*
X14988261Y-16649098D01*
X14969775Y-16575986D01*
X14963441Y-16495851D01*
X14971018Y-16392225D01*
X14992792Y-16300616D01*
X15027961Y-16219085D01*
X15152036Y-16248553D01*
X15114205Y-16343742D01*
X15093761Y-16424159D01*
X15087517Y-16492361D01*
X15095053Y-16571118D01*
X15116114Y-16634989D01*
X15149632Y-16687082D01*
X15195479Y-16727358D01*
X15251438Y-16751812D01*
X15320623Y-16760442D01*
X15372520Y-16754925D01*
X15417567Y-16738992D01*
X15457261Y-16712673D01*
X15490692Y-16677423D01*
X15528814Y-16620994D01*
X15572264Y-16536563D01*
X15654929Y-16366115D01*
X15680369Y-16328613D01*
X15715803Y-16289343D01*
X15757276Y-16255392D01*
X15803121Y-16230330D01*
X15853154Y-16214844D01*
X15908508Y-16209547D01*
X15982001Y-16216805D01*
X16044429Y-16237515D01*
X16098053Y-16271185D01*
X16144329Y-16318811D01*
X16180434Y-16375285D01*
X16206794Y-16439305D01*
X16223249Y-16512192D01*
X16229010Y-16595577D01*
X16219172Y-16716961D01*
X16189306Y-16838532D01*
X16065231Y-16806427D01*
G37*
G36*
X16209158Y-17500862D02*
G01*
X16202152Y-17596184D01*
X16181975Y-17680827D01*
X16149315Y-17756513D01*
X16104075Y-17824607D01*
X16045379Y-17886038D01*
X15978319Y-17936143D01*
X15901437Y-17976045D01*
X15813296Y-18005675D01*
X15712100Y-18024385D01*
X15595761Y-18030974D01*
X15476608Y-18024207D01*
X15373985Y-18005075D01*
X15285545Y-17974918D01*
X15209279Y-17934479D01*
X15143583Y-17883867D01*
X15085752Y-17821580D01*
X15041394Y-17753732D01*
X15009564Y-17679518D01*
X14990033Y-17597765D01*
X14983294Y-17506988D01*
X14983294Y-17502645D01*
X15107369Y-17502645D01*
X15115864Y-17587167D01*
X15140243Y-17659822D01*
X15180130Y-17723070D01*
X15236873Y-17778480D01*
X15303451Y-17820683D01*
X15383615Y-17852364D01*
X15479992Y-17872700D01*
X15595761Y-17879989D01*
X15710549Y-17872708D01*
X15806629Y-17852345D01*
X15887030Y-17820526D01*
X15954261Y-17778015D01*
X16011707Y-17722334D01*
X16051985Y-17659047D01*
X16076541Y-17586625D01*
X16085083Y-17502645D01*
X16085083Y-17401989D01*
X15107369Y-17401989D01*
X15107369Y-17502645D01*
X14983294Y-17502645D01*
X14983294Y-17259690D01*
X16209158Y-17259690D01*
X16209158Y-17500862D01*
G37*
G36*
X16209158Y-18593578D02*
G01*
X16209158Y-18764492D01*
X14983294Y-19164480D01*
X14983294Y-19015201D01*
X15410113Y-18879882D01*
X15410113Y-18839092D01*
X15534188Y-18839092D01*
X16034600Y-18678647D01*
X15534188Y-18518977D01*
X15534188Y-18839092D01*
X15410113Y-18839092D01*
X15410113Y-18478188D01*
X14983294Y-18341162D01*
X14983294Y-18193667D01*
X16209158Y-18593578D01*
G37*
D13*
X31567394Y-14710000D02*
X29967394Y-14710000D01*
X29967394Y-14710000D02*
X28367394Y-14710000D01*
X28367394Y-14710000D02*
X26767394Y-14710000D01*
X26767394Y-14710000D02*
X25167394Y-14710000D01*
X21167394Y-14710000D02*
X19567394Y-14710000D01*
X19567394Y-14710000D02*
X17967394Y-14710000D01*
X17967394Y-14710000D02*
X16367394Y-14710000D01*
X16367394Y-14710000D02*
X14767394Y-14710000D01*
X29967394Y-14710000D02*
X29967394Y-9710000D01*
X29967394Y-19710000D02*
X29967394Y-14710000D01*
X28367394Y-14710000D02*
X28367394Y-9710000D01*
X28367394Y-19710000D02*
X28367394Y-14710000D01*
X26767394Y-14710000D02*
X26767394Y-9710000D01*
X26767394Y-19710000D02*
X26767394Y-14710000D01*
X25167394Y-14710000D02*
X25167394Y-9710000D01*
X25167394Y-19710000D02*
X25167394Y-14710000D01*
X21167394Y-19710000D02*
X21167394Y-9710000D01*
X19567394Y-14710000D02*
X19567394Y-9710000D01*
X19567394Y-19710000D02*
X19567394Y-14710000D01*
X17967394Y-14710000D02*
X17967394Y-9710000D01*
X17967394Y-19710000D02*
X17967394Y-14710000D01*
X16367394Y-14710000D02*
X16367394Y-9710000D01*
X16367394Y-19710000D02*
X16367394Y-14710000D01*
X31567394Y-9710000D02*
X31567394Y-19710000D01*
X31567394Y-19710000D02*
X14767394Y-19710000D01*
X14767394Y-19710000D02*
X14767394Y-9710000D01*
X14767394Y-9710000D02*
X31567394Y-9710000D01*
D12*
G36*
X7448814Y-5377542D02*
G01*
X6222950Y-4978407D01*
X6222950Y-4807493D01*
X7448814Y-4407583D01*
X7448814Y-4556784D01*
X6395957Y-4892563D01*
X7448814Y-5230048D01*
X7448814Y-5377542D01*
G37*
G36*
X6297395Y-6356574D02*
G01*
X6256608Y-6282726D01*
X6227256Y-6203129D01*
X6209273Y-6116805D01*
X6203097Y-6022579D01*
X6210253Y-5927787D01*
X6230599Y-5846219D01*
X6263130Y-5775652D01*
X6307792Y-5714355D01*
X6365481Y-5661209D01*
X6430426Y-5619773D01*
X6507723Y-5585883D01*
X6599373Y-5560116D01*
X6707723Y-5543525D01*
X6835417Y-5537599D01*
X6986199Y-5546291D01*
X7111377Y-5570461D01*
X7215031Y-5607898D01*
X7300622Y-5657332D01*
X7360138Y-5709205D01*
X7406273Y-5770080D01*
X7439987Y-5841195D01*
X7461175Y-5924514D01*
X7468666Y-6022579D01*
X7463233Y-6110517D01*
X7446875Y-6197835D01*
X7420335Y-6279206D01*
X7389258Y-6337498D01*
X7275109Y-6290659D01*
X7313608Y-6206773D01*
X7336745Y-6117872D01*
X7344591Y-6022579D01*
X7336270Y-5940234D01*
X7312853Y-5872739D01*
X7275207Y-5816955D01*
X7222221Y-5770939D01*
X7160812Y-5738358D01*
X7079266Y-5712460D01*
X6972686Y-5694999D01*
X6835417Y-5688506D01*
X6695527Y-5695888D01*
X6586141Y-5715860D01*
X6501682Y-5745761D01*
X6437390Y-5783860D01*
X6389516Y-5829518D01*
X6355572Y-5883261D01*
X6334579Y-5946734D01*
X6327173Y-6022501D01*
X6336012Y-6114791D01*
X6363407Y-6210855D01*
X6411544Y-6312295D01*
X6297395Y-6356574D01*
G37*
G36*
X6297395Y-7422382D02*
G01*
X6256608Y-7348533D01*
X6227256Y-7268937D01*
X6209273Y-7182613D01*
X6203097Y-7088386D01*
X6210253Y-6993594D01*
X6230599Y-6912027D01*
X6263130Y-6841459D01*
X6307792Y-6780162D01*
X6365481Y-6727017D01*
X6430426Y-6685580D01*
X6507723Y-6651691D01*
X6599373Y-6625923D01*
X6707723Y-6609333D01*
X6835417Y-6603407D01*
X6986199Y-6612098D01*
X7111377Y-6636269D01*
X7215031Y-6673705D01*
X7300622Y-6723139D01*
X7360138Y-6775012D01*
X7406273Y-6835887D01*
X7439987Y-6907003D01*
X7461175Y-6990321D01*
X7468666Y-7088386D01*
X7463233Y-7176325D01*
X7446875Y-7263643D01*
X7420335Y-7345013D01*
X7389258Y-7403305D01*
X7275109Y-7356467D01*
X7313608Y-7272581D01*
X7336745Y-7183680D01*
X7344591Y-7088386D01*
X7336270Y-7006041D01*
X7312853Y-6938546D01*
X7275207Y-6882763D01*
X7222221Y-6836746D01*
X7160812Y-6804166D01*
X7079266Y-6778267D01*
X6972686Y-6760806D01*
X6835417Y-6754313D01*
X6695527Y-6761696D01*
X6586141Y-6781668D01*
X6501682Y-6811568D01*
X6437390Y-6849668D01*
X6389516Y-6895325D01*
X6355572Y-6949069D01*
X6334579Y-7012541D01*
X6327173Y-7088309D01*
X6336012Y-7180598D01*
X6363407Y-7276662D01*
X6411544Y-7378102D01*
X6297395Y-7422382D01*
G37*
G36*
X7448814Y-9888705D02*
G01*
X6222950Y-9732603D01*
X6222950Y-9600696D01*
X6915290Y-9392482D01*
X6222950Y-9185121D01*
X6222950Y-9049801D01*
X7448814Y-8897111D01*
X7448814Y-9037626D01*
X6452179Y-9140919D01*
X7056736Y-9321371D01*
X7056736Y-9463670D01*
X6450783Y-9644975D01*
X7448814Y-9749896D01*
X7448814Y-9888705D01*
G37*
G36*
X7448814Y-10458289D02*
G01*
X7442661Y-10546286D01*
X7425276Y-10621264D01*
X7397731Y-10685351D01*
X7360333Y-10740250D01*
X7312495Y-10786121D01*
X7257043Y-10818805D01*
X7192464Y-10839009D01*
X7116525Y-10846102D01*
X7040146Y-10839092D01*
X6974370Y-10819032D01*
X6917145Y-10786469D01*
X6867056Y-10740716D01*
X6827297Y-10685694D01*
X6798331Y-10622403D01*
X6780215Y-10549302D01*
X6773844Y-10464415D01*
X6773844Y-10444408D01*
X6897919Y-10444408D01*
X6905139Y-10528773D01*
X6924408Y-10590889D01*
X6953501Y-10636038D01*
X6992231Y-10667862D01*
X7042475Y-10687858D01*
X7107840Y-10695118D01*
X7169536Y-10687265D01*
X7221070Y-10664698D01*
X7264872Y-10627031D01*
X7297480Y-10578570D01*
X7317626Y-10520847D01*
X7324739Y-10451387D01*
X7324739Y-10290012D01*
X6897919Y-10290012D01*
X6897919Y-10444408D01*
X6773844Y-10444408D01*
X6773844Y-10290012D01*
X6222950Y-10290012D01*
X6222950Y-10147713D01*
X7448814Y-10147713D01*
X7448814Y-10458289D01*
G37*
G36*
X7304887Y-13145756D02*
G01*
X7335087Y-13037018D01*
X7344591Y-12938395D01*
X7338501Y-12865860D01*
X7321493Y-12806398D01*
X7294650Y-12757478D01*
X7256886Y-12718831D01*
X7210493Y-12695775D01*
X7152662Y-12687685D01*
X7105209Y-12696788D01*
X7058298Y-12725749D01*
X7009896Y-12780493D01*
X6959414Y-12870697D01*
X6872717Y-13049830D01*
X6844838Y-13092753D01*
X6806104Y-13138777D01*
X6760149Y-13179329D01*
X6706301Y-13211206D01*
X6646291Y-13231531D01*
X6577185Y-13238580D01*
X6490071Y-13230461D01*
X6416680Y-13207428D01*
X6354306Y-13170316D01*
X6301117Y-13118382D01*
X6258318Y-13055787D01*
X6227917Y-12988427D01*
X6209431Y-12915315D01*
X6203097Y-12835180D01*
X6210674Y-12731554D01*
X6232448Y-12639945D01*
X6267617Y-12558414D01*
X6391692Y-12587882D01*
X6353861Y-12683071D01*
X6333417Y-12763488D01*
X6327173Y-12831690D01*
X6334709Y-12910447D01*
X6355770Y-12974318D01*
X6389288Y-13026411D01*
X6435135Y-13066687D01*
X6491094Y-13091141D01*
X6560279Y-13099771D01*
X6612176Y-13094254D01*
X6657223Y-13078321D01*
X6696917Y-13052002D01*
X6730348Y-13016752D01*
X6768470Y-12960323D01*
X6811920Y-12875892D01*
X6894585Y-12705444D01*
X6920025Y-12667942D01*
X6955459Y-12628672D01*
X6996932Y-12594721D01*
X7042777Y-12569659D01*
X7092810Y-12554173D01*
X7148164Y-12548876D01*
X7221657Y-12556134D01*
X7284085Y-12576844D01*
X7337709Y-12610514D01*
X7383985Y-12658140D01*
X7420090Y-12714614D01*
X7446450Y-12778634D01*
X7462905Y-12851521D01*
X7468666Y-12934906D01*
X7458828Y-13056290D01*
X7428962Y-13177861D01*
X7304887Y-13145756D01*
G37*
G36*
X6297395Y-14346883D02*
G01*
X6256608Y-14273035D01*
X6227256Y-14193438D01*
X6209273Y-14107114D01*
X6203097Y-14012888D01*
X6210253Y-13918096D01*
X6230599Y-13836528D01*
X6263130Y-13765961D01*
X6307792Y-13704664D01*
X6365481Y-13651518D01*
X6430426Y-13610082D01*
X6507723Y-13576192D01*
X6599373Y-13550425D01*
X6707723Y-13533834D01*
X6835417Y-13527908D01*
X6986199Y-13536600D01*
X7111377Y-13560770D01*
X7215031Y-13598207D01*
X7300622Y-13647641D01*
X7360138Y-13699514D01*
X7406273Y-13760389D01*
X7439987Y-13831504D01*
X7461175Y-13914823D01*
X7468666Y-14012888D01*
X7463233Y-14100826D01*
X7446875Y-14188144D01*
X7420335Y-14269515D01*
X7389258Y-14327807D01*
X7275109Y-14280968D01*
X7313608Y-14197082D01*
X7336745Y-14108181D01*
X7344591Y-14012888D01*
X7336270Y-13930543D01*
X7312853Y-13863048D01*
X7275207Y-13807264D01*
X7222221Y-13761248D01*
X7160812Y-13728667D01*
X7079266Y-13702769D01*
X6972686Y-13685308D01*
X6835417Y-13678815D01*
X6695527Y-13686197D01*
X6586141Y-13706169D01*
X6501682Y-13736070D01*
X6437390Y-13774169D01*
X6389516Y-13819827D01*
X6355572Y-13873570D01*
X6334579Y-13937043D01*
X6327173Y-14012810D01*
X6336012Y-14105100D01*
X6363407Y-14201164D01*
X6411544Y-14302604D01*
X6297395Y-14346883D01*
G37*
G36*
X6222950Y-15371901D02*
G01*
X6222950Y-14705616D01*
X7448814Y-14705616D01*
X7448814Y-14847915D01*
X6347025Y-14847915D01*
X6347025Y-15371901D01*
X6222950Y-15371901D01*
G37*
G36*
X7304887Y-17145756D02*
G01*
X7335087Y-17037018D01*
X7344591Y-16938395D01*
X7338501Y-16865860D01*
X7321493Y-16806398D01*
X7294650Y-16757478D01*
X7256886Y-16718831D01*
X7210493Y-16695775D01*
X7152662Y-16687685D01*
X7105209Y-16696788D01*
X7058298Y-16725749D01*
X7009896Y-16780493D01*
X6959414Y-16870697D01*
X6872717Y-17049830D01*
X6844838Y-17092753D01*
X6806104Y-17138777D01*
X6760149Y-17179329D01*
X6706301Y-17211206D01*
X6646291Y-17231531D01*
X6577185Y-17238580D01*
X6490071Y-17230461D01*
X6416680Y-17207428D01*
X6354306Y-17170316D01*
X6301117Y-17118382D01*
X6258318Y-17055787D01*
X6227917Y-16988427D01*
X6209431Y-16915315D01*
X6203097Y-16835180D01*
X6210674Y-16731554D01*
X6232448Y-16639945D01*
X6267617Y-16558414D01*
X6391692Y-16587882D01*
X6353861Y-16683071D01*
X6333417Y-16763488D01*
X6327173Y-16831690D01*
X6334709Y-16910447D01*
X6355770Y-16974318D01*
X6389288Y-17026411D01*
X6435135Y-17066687D01*
X6491094Y-17091141D01*
X6560279Y-17099771D01*
X6612176Y-17094254D01*
X6657223Y-17078321D01*
X6696917Y-17052002D01*
X6730348Y-17016752D01*
X6768470Y-16960323D01*
X6811920Y-16875892D01*
X6894585Y-16705444D01*
X6920025Y-16667942D01*
X6955459Y-16628672D01*
X6996932Y-16594721D01*
X7042777Y-16569659D01*
X7092810Y-16554173D01*
X7148164Y-16548876D01*
X7221657Y-16556134D01*
X7284085Y-16576844D01*
X7337709Y-16610514D01*
X7383985Y-16658140D01*
X7420090Y-16714614D01*
X7446450Y-16778634D01*
X7462905Y-16851521D01*
X7468666Y-16934906D01*
X7458828Y-17056290D01*
X7428962Y-17177861D01*
X7304887Y-17145756D01*
G37*
G36*
X7448814Y-17840191D02*
G01*
X7441808Y-17935513D01*
X7421631Y-18020156D01*
X7388971Y-18095842D01*
X7343731Y-18163936D01*
X7285035Y-18225367D01*
X7217975Y-18275472D01*
X7141093Y-18315374D01*
X7052952Y-18345004D01*
X6951756Y-18363714D01*
X6835417Y-18370303D01*
X6716264Y-18363536D01*
X6613641Y-18344404D01*
X6525201Y-18314247D01*
X6448935Y-18273808D01*
X6383239Y-18223196D01*
X6325408Y-18160909D01*
X6281050Y-18093061D01*
X6249220Y-18018847D01*
X6229689Y-17937094D01*
X6222950Y-17846317D01*
X6222950Y-17841974D01*
X6347025Y-17841974D01*
X6355520Y-17926496D01*
X6379899Y-17999151D01*
X6419786Y-18062399D01*
X6476529Y-18117809D01*
X6543107Y-18160012D01*
X6623271Y-18191693D01*
X6719648Y-18212029D01*
X6835417Y-18219318D01*
X6950205Y-18212037D01*
X7046285Y-18191674D01*
X7126686Y-18159855D01*
X7193917Y-18117344D01*
X7251363Y-18061663D01*
X7291641Y-17998376D01*
X7316197Y-17925954D01*
X7324739Y-17841974D01*
X7324739Y-17741318D01*
X6347025Y-17741318D01*
X6347025Y-17841974D01*
X6222950Y-17841974D01*
X6222950Y-17599019D01*
X7448814Y-17599019D01*
X7448814Y-17840191D01*
G37*
G36*
X7448814Y-18932907D02*
G01*
X7448814Y-19103821D01*
X6222950Y-19503809D01*
X6222950Y-19354530D01*
X6649769Y-19219211D01*
X6649769Y-19178421D01*
X6773844Y-19178421D01*
X7274256Y-19017976D01*
X6773844Y-18858306D01*
X6773844Y-19178421D01*
X6649769Y-19178421D01*
X6649769Y-18817517D01*
X6222950Y-18680491D01*
X6222950Y-18532996D01*
X7448814Y-18932907D01*
G37*
G36*
X5448814Y-5343887D02*
G01*
X5448814Y-5514801D01*
X4222950Y-5914789D01*
X4222950Y-5765511D01*
X4649769Y-5630191D01*
X4649769Y-5589401D01*
X4773844Y-5589401D01*
X5274256Y-5428956D01*
X4773844Y-5269287D01*
X4773844Y-5589401D01*
X4649769Y-5589401D01*
X4649769Y-5228497D01*
X4222950Y-5091471D01*
X4222950Y-4943977D01*
X5448814Y-5343887D01*
G37*
G36*
X4872497Y-6363589D02*
G01*
X4903125Y-6375811D01*
X4929946Y-6396201D01*
X4950741Y-6422759D01*
X4963135Y-6452903D01*
X4967402Y-6487784D01*
X4963114Y-6522664D01*
X4950612Y-6553080D01*
X4929559Y-6580143D01*
X4902402Y-6601147D01*
X4871882Y-6613627D01*
X4836890Y-6617908D01*
X4800716Y-6613593D01*
X4768732Y-6600963D01*
X4739878Y-6579678D01*
X4717172Y-6552158D01*
X4703899Y-6521888D01*
X4699399Y-6487784D01*
X4703885Y-6454206D01*
X4717140Y-6424318D01*
X4739878Y-6397054D01*
X4768694Y-6376092D01*
X4800681Y-6363629D01*
X4836890Y-6359366D01*
X4872497Y-6363589D01*
G37*
G36*
X4984303Y-6095306D02*
G01*
X5108692Y-6115983D01*
X5212217Y-6147916D01*
X5298063Y-6189771D01*
X5360643Y-6235502D01*
X5407655Y-6287520D01*
X5441028Y-6346459D01*
X5461524Y-6413709D01*
X5468666Y-6491274D01*
X5461760Y-6566742D01*
X5441862Y-6632824D01*
X5409351Y-6691346D01*
X5363456Y-6743582D01*
X5302328Y-6790140D01*
X5218592Y-6832756D01*
X5115467Y-6865525D01*
X4989184Y-6886923D01*
X4835417Y-6894674D01*
X4687027Y-6887277D01*
X4562931Y-6866688D01*
X4459538Y-6834876D01*
X4373701Y-6793165D01*
X4311180Y-6747621D01*
X4264180Y-6695676D01*
X4230786Y-6636680D01*
X4210257Y-6569225D01*
X4203097Y-6491274D01*
X4203104Y-6491196D01*
X4327173Y-6491196D01*
X4334889Y-6551664D01*
X4357070Y-6602199D01*
X4394128Y-6645193D01*
X4448844Y-6681652D01*
X4508688Y-6705734D01*
X4589681Y-6725312D01*
X4696970Y-6738685D01*
X4836347Y-6743690D01*
X4976274Y-6738669D01*
X5083642Y-6725271D01*
X5164385Y-6705691D01*
X5223772Y-6681652D01*
X5278048Y-6645244D01*
X5314856Y-6602274D01*
X5336913Y-6551722D01*
X5344591Y-6491196D01*
X5336830Y-6431814D01*
X5314415Y-6381803D01*
X5276730Y-6338858D01*
X5220748Y-6302059D01*
X5159821Y-6277662D01*
X5078674Y-6257973D01*
X4972608Y-6244610D01*
X4836347Y-6239634D01*
X4697999Y-6244617D01*
X4591074Y-6257958D01*
X4509969Y-6277533D01*
X4449697Y-6301671D01*
X4394471Y-6338178D01*
X4357170Y-6381059D01*
X4334903Y-6431280D01*
X4327173Y-6491196D01*
X4203104Y-6491196D01*
X4209972Y-6416164D01*
X4229793Y-6350276D01*
X4262203Y-6291813D01*
X4307980Y-6239520D01*
X4368971Y-6192795D01*
X4452542Y-6150023D01*
X4555523Y-6117134D01*
X4681698Y-6095655D01*
X4835417Y-6087874D01*
X4984303Y-6095306D01*
G37*
G36*
X5448814Y-9309196D02*
G01*
X5448814Y-9480110D01*
X4222950Y-9880098D01*
X4222950Y-9730820D01*
X4649769Y-9595500D01*
X4649769Y-9554710D01*
X4773844Y-9554710D01*
X5274256Y-9394265D01*
X4773844Y-9234596D01*
X4773844Y-9554710D01*
X4649769Y-9554710D01*
X4649769Y-9193806D01*
X4222950Y-9056780D01*
X4222950Y-8909286D01*
X5448814Y-9309196D01*
G37*
G36*
X4222950Y-10808802D02*
G01*
X4222950Y-10165083D01*
X4347025Y-10165083D01*
X4347025Y-10424478D01*
X5297210Y-10424478D01*
X5175848Y-10179817D01*
X5322490Y-10179817D01*
X5453777Y-10444408D01*
X5453777Y-10566777D01*
X4347025Y-10566777D01*
X4347025Y-10808802D01*
X4222950Y-10808802D01*
G37*
G36*
X5448814Y-13334196D02*
G01*
X5448814Y-13505110D01*
X4222950Y-13905098D01*
X4222950Y-13755820D01*
X4649769Y-13620500D01*
X4649769Y-13579710D01*
X4773844Y-13579710D01*
X5274256Y-13419265D01*
X4773844Y-13259596D01*
X4773844Y-13579710D01*
X4649769Y-13579710D01*
X4649769Y-13218806D01*
X4222950Y-13081780D01*
X4222950Y-12934286D01*
X5448814Y-13334196D01*
G37*
G36*
X4222950Y-14801697D02*
G01*
X4222950Y-14128433D01*
X4326165Y-14128433D01*
X4589467Y-14361220D01*
X4708472Y-14460723D01*
X4808623Y-14530358D01*
X4912111Y-14584798D01*
X4984366Y-14611670D01*
X5054935Y-14627344D01*
X5124512Y-14632490D01*
X5190006Y-14625076D01*
X5242758Y-14604234D01*
X5285655Y-14570452D01*
X5317309Y-14525699D01*
X5337341Y-14468872D01*
X5344591Y-14396514D01*
X5339706Y-14339869D01*
X5322811Y-14264497D01*
X5289998Y-14165734D01*
X5414073Y-14145804D01*
X5444402Y-14234472D01*
X5462566Y-14325591D01*
X5468666Y-14419933D01*
X5462373Y-14501242D01*
X5444475Y-14571151D01*
X5415820Y-14631616D01*
X5376385Y-14684136D01*
X5327126Y-14727473D01*
X5270696Y-14758463D01*
X5205685Y-14777620D01*
X5130096Y-14784327D01*
X5057831Y-14778729D01*
X4985322Y-14761736D01*
X4911800Y-14732680D01*
X4806558Y-14674358D01*
X4703974Y-14600385D01*
X4585825Y-14499874D01*
X4347025Y-14286397D01*
X4347025Y-14801697D01*
X4222950Y-14801697D01*
G37*
G36*
X4313292Y-17279292D02*
G01*
X4264663Y-17201450D01*
X4230499Y-17120749D01*
X4210015Y-17036299D01*
X4203097Y-16947003D01*
X4210221Y-16851771D01*
X4230455Y-16769972D01*
X4262764Y-16699354D01*
X4307051Y-16638161D01*
X4364163Y-16585246D01*
X4428510Y-16544096D01*
X4505538Y-16510357D01*
X4597341Y-16484640D01*
X4706379Y-16468041D01*
X4835417Y-16462101D01*
X4987713Y-16470809D01*
X5113488Y-16494964D01*
X5217019Y-16532264D01*
X5301940Y-16581368D01*
X5360874Y-16633013D01*
X5406633Y-16693786D01*
X5440126Y-16764962D01*
X5461206Y-16848535D01*
X5468666Y-16947081D01*
X5463233Y-17035019D01*
X5446875Y-17122337D01*
X5420335Y-17203707D01*
X5389258Y-17261999D01*
X5275109Y-17215161D01*
X5313608Y-17131275D01*
X5336745Y-17042374D01*
X5344591Y-16947081D01*
X5336274Y-16865227D01*
X5312829Y-16797921D01*
X5275069Y-16742086D01*
X5221834Y-16695828D01*
X5160166Y-16663046D01*
X5078541Y-16637029D01*
X4972144Y-16619514D01*
X4835417Y-16613008D01*
X4695534Y-16620391D01*
X4586151Y-16640366D01*
X4501692Y-16670271D01*
X4437399Y-16708377D01*
X4389522Y-16754044D01*
X4355576Y-16807801D01*
X4334579Y-16871291D01*
X4327173Y-16947081D01*
X4333994Y-17029482D01*
X4352304Y-17091234D01*
X4380060Y-17137071D01*
X4679547Y-17137071D01*
X4679547Y-16916682D01*
X4803622Y-16916682D01*
X4803622Y-17279292D01*
X4313292Y-17279292D01*
G37*
G36*
X4222950Y-18319974D02*
G01*
X4222950Y-18162089D01*
X5190815Y-17723094D01*
X4222950Y-17723094D01*
X4222950Y-17580795D01*
X5448814Y-17580795D01*
X5448814Y-17739612D01*
X4489634Y-18180312D01*
X5448814Y-18180312D01*
X5448814Y-18319974D01*
X4222950Y-18319974D01*
G37*
G36*
X5448814Y-18905998D02*
G01*
X5441808Y-19001321D01*
X5421631Y-19085964D01*
X5388971Y-19161650D01*
X5343731Y-19229744D01*
X5285035Y-19291174D01*
X5217975Y-19341279D01*
X5141093Y-19381181D01*
X5052952Y-19410812D01*
X4951756Y-19429521D01*
X4835417Y-19436110D01*
X4716264Y-19429343D01*
X4613641Y-19410211D01*
X4525201Y-19380055D01*
X4448935Y-19339615D01*
X4383239Y-19289003D01*
X4325408Y-19226717D01*
X4281050Y-19158868D01*
X4249220Y-19084655D01*
X4229689Y-19002901D01*
X4222950Y-18912124D01*
X4222950Y-18907782D01*
X4347025Y-18907782D01*
X4355520Y-18992303D01*
X4379899Y-19064958D01*
X4419786Y-19128207D01*
X4476529Y-19183617D01*
X4543107Y-19225820D01*
X4623271Y-19257501D01*
X4719648Y-19277836D01*
X4835417Y-19285126D01*
X4950205Y-19277845D01*
X5046285Y-19257482D01*
X5126686Y-19225663D01*
X5193917Y-19183151D01*
X5251363Y-19127471D01*
X5291641Y-19064184D01*
X5316197Y-18991762D01*
X5324739Y-18907782D01*
X5324739Y-18807125D01*
X4347025Y-18807125D01*
X4347025Y-18907782D01*
X4222950Y-18907782D01*
X4222950Y-18664826D01*
X5448814Y-18664826D01*
X5448814Y-18905998D01*
G37*
D13*
X7750000Y-7900618D02*
X5750000Y-7900618D01*
X5750000Y-7900618D02*
X3750000Y-7900618D01*
X3750000Y-9950618D02*
X1500000Y-9950618D01*
X7750000Y-11950618D02*
X5750000Y-11950618D01*
X5750000Y-11950618D02*
X3750000Y-11950618D01*
X3750000Y-11950618D02*
X2500000Y-11950618D01*
X2500000Y-11950618D02*
X1500000Y-11950618D01*
X7750000Y-15950618D02*
X5750000Y-15950618D01*
X5750000Y-15950618D02*
X3750000Y-15950618D01*
X3750000Y-14000618D02*
X2500000Y-14000618D01*
X2500000Y-14000618D02*
X1500000Y-14000618D01*
X7750000Y-19950618D02*
X7750000Y-4020000D01*
X5750000Y-7900618D02*
X5750000Y-4020000D01*
X5750000Y-11950618D02*
X5750000Y-7900618D01*
X5750000Y-15950618D02*
X5750000Y-11950618D01*
X5750000Y-19950618D02*
X5750000Y-15950618D01*
X3750000Y-7900618D02*
X3750000Y-4020000D01*
X3750000Y-11950618D02*
X3750000Y-7900618D01*
X3750000Y-15950618D02*
X3750000Y-11950618D01*
X3750000Y-19950618D02*
X3750000Y-15950618D01*
X2500000Y-11950618D02*
X2500000Y-9950618D01*
X2500000Y-14000618D02*
X2500000Y-11950618D01*
D12*
G36*
X42551185Y-50832457D02*
G01*
X43777050Y-51231592D01*
X43777050Y-51402506D01*
X42551185Y-51802416D01*
X42551185Y-51653215D01*
X43604042Y-51317436D01*
X42551185Y-50979951D01*
X42551185Y-50832457D01*
G37*
G36*
X43702604Y-49853425D02*
G01*
X43743391Y-49927273D01*
X43772743Y-50006870D01*
X43790726Y-50093194D01*
X43796902Y-50187420D01*
X43789746Y-50282212D01*
X43769400Y-50363780D01*
X43736869Y-50434347D01*
X43692207Y-50495644D01*
X43634518Y-50548790D01*
X43569573Y-50590226D01*
X43492276Y-50624116D01*
X43400626Y-50649883D01*
X43292276Y-50666474D01*
X43164582Y-50672400D01*
X43013800Y-50663708D01*
X42888622Y-50639538D01*
X42784968Y-50602101D01*
X42699377Y-50552667D01*
X42639861Y-50500794D01*
X42593726Y-50439919D01*
X42560012Y-50368804D01*
X42538824Y-50285485D01*
X42531333Y-50187420D01*
X42536766Y-50099482D01*
X42553124Y-50012164D01*
X42579664Y-49930793D01*
X42610741Y-49872501D01*
X42724890Y-49919340D01*
X42686391Y-50003226D01*
X42663254Y-50092127D01*
X42655408Y-50187420D01*
X42663729Y-50269765D01*
X42687146Y-50337260D01*
X42724792Y-50393044D01*
X42777778Y-50439060D01*
X42839187Y-50471641D01*
X42920733Y-50497539D01*
X43027313Y-50515000D01*
X43164582Y-50521493D01*
X43304472Y-50514111D01*
X43413858Y-50494139D01*
X43498317Y-50464238D01*
X43562609Y-50426139D01*
X43610483Y-50380481D01*
X43644427Y-50326738D01*
X43665420Y-50263265D01*
X43672826Y-50187498D01*
X43663987Y-50095208D01*
X43636592Y-49999144D01*
X43588455Y-49897704D01*
X43702604Y-49853425D01*
G37*
G36*
X43702604Y-48787617D02*
G01*
X43743391Y-48861466D01*
X43772743Y-48941062D01*
X43790726Y-49027386D01*
X43796902Y-49121613D01*
X43789746Y-49216405D01*
X43769400Y-49297972D01*
X43736869Y-49368540D01*
X43692207Y-49429837D01*
X43634518Y-49482982D01*
X43569573Y-49524419D01*
X43492276Y-49558308D01*
X43400626Y-49584076D01*
X43292276Y-49600666D01*
X43164582Y-49606592D01*
X43013800Y-49597901D01*
X42888622Y-49573730D01*
X42784968Y-49536294D01*
X42699377Y-49486860D01*
X42639861Y-49434987D01*
X42593726Y-49374112D01*
X42560012Y-49302996D01*
X42538824Y-49219678D01*
X42531333Y-49121613D01*
X42536766Y-49033674D01*
X42553124Y-48946356D01*
X42579664Y-48864986D01*
X42610741Y-48806694D01*
X42724890Y-48853532D01*
X42686391Y-48937418D01*
X42663254Y-49026319D01*
X42655408Y-49121613D01*
X42663729Y-49203958D01*
X42687146Y-49271453D01*
X42724792Y-49327236D01*
X42777778Y-49373253D01*
X42839187Y-49405833D01*
X42920733Y-49431732D01*
X43027313Y-49449193D01*
X43164582Y-49455686D01*
X43304472Y-49448303D01*
X43413858Y-49428331D01*
X43498317Y-49398431D01*
X43562609Y-49360331D01*
X43610483Y-49314674D01*
X43644427Y-49260930D01*
X43665420Y-49197458D01*
X43672826Y-49121690D01*
X43663987Y-49029401D01*
X43636592Y-48933337D01*
X43588455Y-48831897D01*
X43702604Y-48787617D01*
G37*
G36*
X43330378Y-47413932D02*
G01*
X43383513Y-47485557D01*
X43418514Y-47551877D01*
X43438215Y-47614042D01*
X43444528Y-47673327D01*
X43438822Y-47721369D01*
X43417926Y-47792747D01*
X43375045Y-47895422D01*
X43331524Y-48000766D01*
X43310969Y-48069619D01*
X43305563Y-48112321D01*
X43311519Y-48159176D01*
X43331349Y-48215154D01*
X43369016Y-48282807D01*
X43429638Y-48364814D01*
X43305563Y-48364814D01*
X43252578Y-48291952D01*
X43217550Y-48224180D01*
X43197768Y-48160375D01*
X43191414Y-48099293D01*
X43197169Y-48050173D01*
X43218122Y-47978116D01*
X43260896Y-47875492D01*
X43304402Y-47772504D01*
X43324964Y-47704997D01*
X43330378Y-47662936D01*
X43324381Y-47616079D01*
X43304489Y-47560604D01*
X43266815Y-47494068D01*
X43206303Y-47413932D01*
X43330378Y-47413932D01*
G37*
G36*
X43777050Y-46509500D02*
G01*
X43221192Y-46868698D01*
X43221192Y-47026584D01*
X43777050Y-47026584D01*
X43777050Y-47168883D01*
X42551185Y-47168883D01*
X42551185Y-46843495D01*
X42675260Y-46843495D01*
X42675260Y-47026584D01*
X43097116Y-47026584D01*
X43097116Y-46846985D01*
X43089775Y-46774096D01*
X43069063Y-46713988D01*
X43035699Y-46663974D01*
X42990831Y-46624673D01*
X42939964Y-46601554D01*
X42880993Y-46593639D01*
X42817180Y-46600812D01*
X42768023Y-46620604D01*
X42730024Y-46652185D01*
X42701395Y-46697129D01*
X42682390Y-46759127D01*
X42675260Y-46843495D01*
X42551185Y-46843495D01*
X42551185Y-46822713D01*
X42557163Y-46735323D01*
X42573957Y-46661749D01*
X42600383Y-46599704D01*
X42636021Y-46547343D01*
X42681852Y-46503662D01*
X42735361Y-46472425D01*
X42798077Y-46453045D01*
X42872230Y-46446222D01*
X42944374Y-46454436D01*
X43010352Y-46478743D01*
X43071914Y-46519969D01*
X43122946Y-46573922D01*
X43162542Y-46640753D01*
X43190638Y-46722910D01*
X43777050Y-46331684D01*
X43777050Y-46509500D01*
G37*
G36*
X42695112Y-45490531D02*
G01*
X42664912Y-45599269D01*
X42655408Y-45697892D01*
X42661498Y-45770427D01*
X42678506Y-45829890D01*
X42705349Y-45878809D01*
X42743113Y-45917457D01*
X42789506Y-45940512D01*
X42847337Y-45948602D01*
X42894790Y-45939499D01*
X42941701Y-45910539D01*
X42990103Y-45855794D01*
X43040585Y-45765591D01*
X43127282Y-45586457D01*
X43155161Y-45543534D01*
X43193895Y-45497510D01*
X43239850Y-45456958D01*
X43293698Y-45425081D01*
X43353708Y-45404756D01*
X43422814Y-45397707D01*
X43509928Y-45405826D01*
X43583319Y-45428859D01*
X43645693Y-45465971D01*
X43698882Y-45517905D01*
X43741681Y-45580500D01*
X43772082Y-45647860D01*
X43790568Y-45720972D01*
X43796902Y-45801107D01*
X43789325Y-45904734D01*
X43767551Y-45996343D01*
X43732382Y-46077873D01*
X43608307Y-46048405D01*
X43646138Y-45953216D01*
X43666582Y-45872799D01*
X43672826Y-45804597D01*
X43665290Y-45725840D01*
X43644229Y-45661970D01*
X43610711Y-45609876D01*
X43564864Y-45569600D01*
X43508905Y-45545146D01*
X43439720Y-45536516D01*
X43387823Y-45542033D01*
X43342776Y-45557966D01*
X43303082Y-45584285D01*
X43269651Y-45619536D01*
X43231529Y-45675964D01*
X43188079Y-45760395D01*
X43105414Y-45930843D01*
X43079974Y-45968345D01*
X43044540Y-46007615D01*
X43003067Y-46041566D01*
X42957222Y-46066628D01*
X42907189Y-46082114D01*
X42851835Y-46087411D01*
X42778342Y-46080153D01*
X42715914Y-46059443D01*
X42662290Y-46025773D01*
X42616014Y-45978147D01*
X42579909Y-45921673D01*
X42553549Y-45857653D01*
X42537094Y-45784767D01*
X42531333Y-45701382D01*
X42541171Y-45579997D01*
X42571037Y-45458427D01*
X42695112Y-45490531D01*
G37*
G36*
X42665334Y-44235664D02*
G01*
X42665334Y-44613008D01*
X43777050Y-44613008D01*
X43777050Y-44754454D01*
X42665334Y-44754454D01*
X42665334Y-45133582D01*
X42551185Y-45133582D01*
X42551185Y-44235664D01*
X42665334Y-44235664D01*
G37*
G36*
X43702604Y-42928923D02*
G01*
X43743391Y-43002772D01*
X43772743Y-43082368D01*
X43790726Y-43168692D01*
X43796902Y-43262918D01*
X43789746Y-43357711D01*
X43769400Y-43439278D01*
X43736869Y-43509846D01*
X43692207Y-43571143D01*
X43634518Y-43624288D01*
X43569573Y-43665724D01*
X43492276Y-43699614D01*
X43400626Y-43725382D01*
X43292276Y-43741972D01*
X43164582Y-43747898D01*
X43013800Y-43739207D01*
X42888622Y-43715036D01*
X42784968Y-43677600D01*
X42699377Y-43628165D01*
X42639861Y-43576292D01*
X42593726Y-43515418D01*
X42560012Y-43444302D01*
X42538824Y-43360984D01*
X42531333Y-43262918D01*
X42536766Y-43174980D01*
X42553124Y-43087662D01*
X42579664Y-43006292D01*
X42610741Y-42948000D01*
X42724890Y-42994838D01*
X42686391Y-43078724D01*
X42663254Y-43167625D01*
X42655408Y-43262918D01*
X42663729Y-43345263D01*
X42687146Y-43412758D01*
X42724792Y-43468542D01*
X42777778Y-43514559D01*
X42839187Y-43547139D01*
X42920733Y-43573038D01*
X43027313Y-43590499D01*
X43164582Y-43596991D01*
X43304472Y-43589609D01*
X43413858Y-43569637D01*
X43498317Y-43539737D01*
X43562609Y-43501637D01*
X43610483Y-43455980D01*
X43644427Y-43402236D01*
X43665420Y-43338763D01*
X43672826Y-43262996D01*
X43663987Y-43170707D01*
X43636592Y-43074643D01*
X43588455Y-42973202D01*
X43702604Y-42928923D01*
G37*
G36*
X43777050Y-41903905D02*
G01*
X43777050Y-42570190D01*
X42551185Y-42570190D01*
X42551185Y-42427891D01*
X43652974Y-42427891D01*
X43652974Y-41903905D01*
X43777050Y-41903905D01*
G37*
G36*
X43777050Y-40680212D02*
G01*
X43777050Y-40859811D01*
X43175439Y-41273603D01*
X43315489Y-41402874D01*
X43777050Y-41402874D01*
X43777050Y-41545173D01*
X42551185Y-41545173D01*
X42551185Y-41402874D01*
X43137906Y-41402874D01*
X42551185Y-40859811D01*
X42551185Y-40695799D01*
X43067959Y-41173877D01*
X43777050Y-40680212D01*
G37*
G36*
X43777050Y-39463610D02*
G01*
X43777050Y-39600635D01*
X42724890Y-39600635D01*
X43231118Y-39785430D01*
X43231118Y-39919897D01*
X42724890Y-40104692D01*
X43777050Y-40104692D01*
X43777050Y-40241795D01*
X42551185Y-40241795D01*
X42551185Y-40057000D01*
X43111308Y-39852276D01*
X42551185Y-39648327D01*
X42551185Y-39463610D01*
X43777050Y-39463610D01*
G37*
G36*
X43322185Y-38380674D02*
G01*
X43449857Y-38402834D01*
X43552542Y-38436551D01*
X43634518Y-38480157D01*
X43693372Y-38527527D01*
X43738099Y-38581516D01*
X43770159Y-38642909D01*
X43789976Y-38713150D01*
X43796902Y-38794223D01*
X43790021Y-38874517D01*
X43770306Y-38944282D01*
X43738366Y-39005449D01*
X43693750Y-39059424D01*
X43634983Y-39106971D01*
X43553216Y-39150736D01*
X43450571Y-39184599D01*
X43322702Y-39206872D01*
X43164582Y-39214994D01*
X43006451Y-39206909D01*
X42878497Y-39184733D01*
X42775720Y-39151013D01*
X42693794Y-39107436D01*
X42634862Y-39060052D01*
X42590107Y-39006127D01*
X42558050Y-38944889D01*
X42538249Y-38874910D01*
X42531340Y-38794301D01*
X42655408Y-38794301D01*
X42663559Y-38855978D01*
X42687262Y-38908728D01*
X42727376Y-38954818D01*
X42787238Y-38995148D01*
X42852667Y-39022799D01*
X42935055Y-39044481D01*
X43037768Y-39058840D01*
X43164582Y-39064087D01*
X43292968Y-39058827D01*
X43396179Y-39044482D01*
X43478250Y-39022914D01*
X43542780Y-38995535D01*
X43601641Y-38955528D01*
X43641236Y-38909512D01*
X43664725Y-38856539D01*
X43672826Y-38794301D01*
X43664296Y-38728701D01*
X43639711Y-38673734D01*
X43598372Y-38626728D01*
X43536809Y-38586655D01*
X43449255Y-38554285D01*
X43328166Y-38532018D01*
X43164582Y-38523584D01*
X43000645Y-38532024D01*
X42879313Y-38554305D01*
X42791601Y-38586691D01*
X42729943Y-38626776D01*
X42688554Y-38673782D01*
X42663945Y-38728734D01*
X42655408Y-38794301D01*
X42531340Y-38794301D01*
X42531333Y-38794223D01*
X42538228Y-38713552D01*
X42557974Y-38643530D01*
X42589945Y-38582207D01*
X42634576Y-38528162D01*
X42693329Y-38480623D01*
X42775046Y-38436886D01*
X42877783Y-38403021D01*
X43005934Y-38380731D01*
X43164582Y-38372599D01*
X43322185Y-38380674D01*
G37*
G36*
X42695112Y-37465531D02*
G01*
X42664912Y-37574269D01*
X42655408Y-37672892D01*
X42661498Y-37745427D01*
X42678506Y-37804890D01*
X42705349Y-37853809D01*
X42743113Y-37892457D01*
X42789506Y-37915512D01*
X42847337Y-37923602D01*
X42894790Y-37914499D01*
X42941701Y-37885539D01*
X42990103Y-37830794D01*
X43040585Y-37740591D01*
X43127282Y-37561457D01*
X43155161Y-37518534D01*
X43193895Y-37472510D01*
X43239850Y-37431958D01*
X43293698Y-37400081D01*
X43353708Y-37379756D01*
X43422814Y-37372707D01*
X43509928Y-37380826D01*
X43583319Y-37403859D01*
X43645693Y-37440971D01*
X43698882Y-37492905D01*
X43741681Y-37555500D01*
X43772082Y-37622860D01*
X43790568Y-37695972D01*
X43796902Y-37776107D01*
X43789325Y-37879734D01*
X43767551Y-37971343D01*
X43732382Y-38052873D01*
X43608307Y-38023405D01*
X43646138Y-37928216D01*
X43666582Y-37847799D01*
X43672826Y-37779597D01*
X43665290Y-37700840D01*
X43644229Y-37636970D01*
X43610711Y-37584876D01*
X43564864Y-37544600D01*
X43508905Y-37520146D01*
X43439720Y-37511516D01*
X43387823Y-37517033D01*
X43342776Y-37532966D01*
X43303082Y-37559285D01*
X43269651Y-37594536D01*
X43231529Y-37650964D01*
X43188079Y-37735395D01*
X43105414Y-37905843D01*
X43079974Y-37943345D01*
X43044540Y-37982615D01*
X43003067Y-38016566D01*
X42957222Y-38041628D01*
X42907189Y-38057114D01*
X42851835Y-38062411D01*
X42778342Y-38055153D01*
X42715914Y-38034443D01*
X42662290Y-38000773D01*
X42616014Y-37953147D01*
X42579909Y-37896673D01*
X42553549Y-37832653D01*
X42537094Y-37759767D01*
X42531333Y-37676382D01*
X42541171Y-37554997D01*
X42571037Y-37433427D01*
X42695112Y-37465531D01*
G37*
G36*
X43777050Y-36388479D02*
G01*
X43777050Y-36944570D01*
X43652974Y-36944570D01*
X43652974Y-36733797D01*
X42675260Y-36733797D01*
X42675260Y-36944570D01*
X42551185Y-36944570D01*
X42551185Y-36388479D01*
X42675260Y-36388479D01*
X42675260Y-36591498D01*
X43652974Y-36591498D01*
X43652974Y-36388479D01*
X43777050Y-36388479D01*
G37*
G36*
X45702604Y-50386328D02*
G01*
X45743391Y-50460177D01*
X45772743Y-50539773D01*
X45790726Y-50626097D01*
X45796902Y-50720323D01*
X45789746Y-50815116D01*
X45769400Y-50896683D01*
X45736869Y-50967251D01*
X45692207Y-51028548D01*
X45634518Y-51081693D01*
X45569573Y-51123129D01*
X45492276Y-51157019D01*
X45400626Y-51182787D01*
X45292276Y-51199377D01*
X45164582Y-51205303D01*
X45013800Y-51196612D01*
X44888622Y-51172441D01*
X44784968Y-51135005D01*
X44699377Y-51085570D01*
X44639861Y-51033697D01*
X44593726Y-50972823D01*
X44560012Y-50901707D01*
X44538824Y-50818389D01*
X44531333Y-50720323D01*
X44536766Y-50632385D01*
X44553124Y-50545067D01*
X44579664Y-50463697D01*
X44610741Y-50405405D01*
X44724890Y-50452243D01*
X44686391Y-50536129D01*
X44663254Y-50625030D01*
X44655408Y-50720323D01*
X44663729Y-50802668D01*
X44687146Y-50870163D01*
X44724792Y-50925947D01*
X44777778Y-50971964D01*
X44839187Y-51004544D01*
X44920733Y-51030443D01*
X45027313Y-51047904D01*
X45164582Y-51054396D01*
X45304472Y-51047014D01*
X45413858Y-51027042D01*
X45498317Y-50997142D01*
X45562609Y-50959042D01*
X45610483Y-50913385D01*
X45644427Y-50859641D01*
X45665420Y-50796168D01*
X45672826Y-50720401D01*
X45663987Y-50628112D01*
X45636592Y-50532048D01*
X45588455Y-50430607D01*
X45702604Y-50386328D01*
G37*
G36*
X44695112Y-49455840D02*
G01*
X44664912Y-49564579D01*
X44655408Y-49663201D01*
X44661498Y-49735736D01*
X44678506Y-49795199D01*
X44705349Y-49844119D01*
X44743113Y-49882766D01*
X44789506Y-49905821D01*
X44847337Y-49913911D01*
X44894790Y-49904808D01*
X44941701Y-49875848D01*
X44990103Y-49821104D01*
X45040585Y-49730900D01*
X45127282Y-49551766D01*
X45155161Y-49508843D01*
X45193895Y-49462820D01*
X45239850Y-49422267D01*
X45293698Y-49390391D01*
X45353708Y-49370066D01*
X45422814Y-49363017D01*
X45509928Y-49371136D01*
X45583319Y-49394168D01*
X45645693Y-49431280D01*
X45698882Y-49483215D01*
X45741681Y-49545810D01*
X45772082Y-49613169D01*
X45790568Y-49686281D01*
X45796902Y-49766417D01*
X45789325Y-49870043D01*
X45767551Y-49961652D01*
X45732382Y-50043182D01*
X45608307Y-50013714D01*
X45646138Y-49918526D01*
X45666582Y-49838109D01*
X45672826Y-49769906D01*
X45665290Y-49691150D01*
X45644229Y-49627279D01*
X45610711Y-49575185D01*
X45564864Y-49534910D01*
X45508905Y-49510456D01*
X45439720Y-49501826D01*
X45387823Y-49507342D01*
X45342776Y-49523276D01*
X45303082Y-49549595D01*
X45269651Y-49584845D01*
X45231529Y-49641274D01*
X45188079Y-49725704D01*
X45105414Y-49896153D01*
X45079974Y-49933654D01*
X45044540Y-49972924D01*
X45003067Y-50006875D01*
X44957222Y-50031938D01*
X44907189Y-50047424D01*
X44851835Y-50052720D01*
X44778342Y-50045462D01*
X44715914Y-50024753D01*
X44662290Y-49991083D01*
X44616014Y-49943457D01*
X44579909Y-49886983D01*
X44553549Y-49822962D01*
X44537094Y-49750076D01*
X44531333Y-49666691D01*
X44541171Y-49545306D01*
X44571037Y-49423736D01*
X44695112Y-49455840D01*
G37*
G36*
X45777050Y-47488610D02*
G01*
X45777050Y-47625635D01*
X44724890Y-47625635D01*
X45231118Y-47810430D01*
X45231118Y-47944897D01*
X44724890Y-48129692D01*
X45777050Y-48129692D01*
X45777050Y-48266795D01*
X44551185Y-48266795D01*
X44551185Y-48082000D01*
X45111308Y-47877276D01*
X44551185Y-47673327D01*
X44551185Y-47488610D01*
X45777050Y-47488610D01*
G37*
G36*
X45777050Y-46545094D02*
G01*
X45777050Y-47101184D01*
X45652974Y-47101184D01*
X45652974Y-46890411D01*
X44675260Y-46890411D01*
X44675260Y-47101184D01*
X44551185Y-47101184D01*
X44551185Y-46545094D01*
X44675260Y-46545094D01*
X44675260Y-46748112D01*
X45652974Y-46748112D01*
X45652974Y-46545094D01*
X45777050Y-46545094D01*
G37*
G36*
X44695112Y-45490531D02*
G01*
X44664912Y-45599269D01*
X44655408Y-45697892D01*
X44661498Y-45770427D01*
X44678506Y-45829890D01*
X44705349Y-45878809D01*
X44743113Y-45917457D01*
X44789506Y-45940512D01*
X44847337Y-45948602D01*
X44894790Y-45939499D01*
X44941701Y-45910539D01*
X44990103Y-45855794D01*
X45040585Y-45765591D01*
X45127282Y-45586457D01*
X45155161Y-45543534D01*
X45193895Y-45497510D01*
X45239850Y-45456958D01*
X45293698Y-45425081D01*
X45353708Y-45404756D01*
X45422814Y-45397707D01*
X45509928Y-45405826D01*
X45583319Y-45428859D01*
X45645693Y-45465971D01*
X45698882Y-45517905D01*
X45741681Y-45580500D01*
X45772082Y-45647860D01*
X45790568Y-45720972D01*
X45796902Y-45801107D01*
X45789325Y-45904734D01*
X45767551Y-45996343D01*
X45732382Y-46077873D01*
X45608307Y-46048405D01*
X45646138Y-45953216D01*
X45666582Y-45872799D01*
X45672826Y-45804597D01*
X45665290Y-45725840D01*
X45644229Y-45661970D01*
X45610711Y-45609876D01*
X45564864Y-45569600D01*
X45508905Y-45545146D01*
X45439720Y-45536516D01*
X45387823Y-45542033D01*
X45342776Y-45557966D01*
X45303082Y-45584285D01*
X45269651Y-45619536D01*
X45231529Y-45675964D01*
X45188079Y-45760395D01*
X45105414Y-45930843D01*
X45079974Y-45968345D01*
X45044540Y-46007615D01*
X45003067Y-46041566D01*
X44957222Y-46066628D01*
X44907189Y-46082114D01*
X44851835Y-46087411D01*
X44778342Y-46080153D01*
X44715914Y-46059443D01*
X44662290Y-46025773D01*
X44616014Y-45978147D01*
X44579909Y-45921673D01*
X44553549Y-45857653D01*
X44537094Y-45784767D01*
X44531333Y-45701382D01*
X44541171Y-45579997D01*
X44571037Y-45458427D01*
X44695112Y-45490531D01*
G37*
G36*
X45322185Y-44274059D02*
G01*
X45449857Y-44296219D01*
X45552542Y-44329937D01*
X45634518Y-44373543D01*
X45693372Y-44420913D01*
X45738099Y-44474901D01*
X45770159Y-44536294D01*
X45789976Y-44606535D01*
X45796902Y-44687608D01*
X45790021Y-44767903D01*
X45770306Y-44837667D01*
X45738366Y-44898834D01*
X45693750Y-44952810D01*
X45634983Y-45000356D01*
X45553216Y-45044121D01*
X45450571Y-45077984D01*
X45322702Y-45100257D01*
X45164582Y-45108379D01*
X45006451Y-45100294D01*
X44878497Y-45078118D01*
X44775720Y-45044398D01*
X44693794Y-45000821D01*
X44634862Y-44953437D01*
X44590107Y-44899512D01*
X44558050Y-44838275D01*
X44538249Y-44768295D01*
X44531340Y-44687686D01*
X44655408Y-44687686D01*
X44663559Y-44749363D01*
X44687262Y-44802113D01*
X44727376Y-44848203D01*
X44787238Y-44888533D01*
X44852667Y-44916184D01*
X44935055Y-44937866D01*
X45037768Y-44952225D01*
X45164582Y-44957472D01*
X45292968Y-44952212D01*
X45396179Y-44937867D01*
X45478250Y-44916299D01*
X45542780Y-44888921D01*
X45601641Y-44848913D01*
X45641236Y-44802897D01*
X45664725Y-44749924D01*
X45672826Y-44687686D01*
X45664296Y-44622087D01*
X45639711Y-44567119D01*
X45598372Y-44520113D01*
X45536809Y-44480040D01*
X45449255Y-44447670D01*
X45328166Y-44425403D01*
X45164582Y-44416969D01*
X45000645Y-44425409D01*
X44879313Y-44447690D01*
X44791601Y-44480077D01*
X44729943Y-44520161D01*
X44688554Y-44567167D01*
X44663945Y-44622119D01*
X44655408Y-44687686D01*
X44531340Y-44687686D01*
X44531333Y-44687608D01*
X44538228Y-44606937D01*
X44557974Y-44536915D01*
X44589945Y-44475592D01*
X44634576Y-44421548D01*
X44693329Y-44374008D01*
X44775046Y-44330271D01*
X44877783Y-44296406D01*
X45005934Y-44274117D01*
X45164582Y-44265985D01*
X45322185Y-44274059D01*
G37*
G36*
X45330378Y-42856029D02*
G01*
X45383513Y-42927654D01*
X45418514Y-42993974D01*
X45438215Y-43056139D01*
X45444528Y-43115424D01*
X45438822Y-43163466D01*
X45417926Y-43234844D01*
X45375045Y-43337519D01*
X45331524Y-43442863D01*
X45310969Y-43511716D01*
X45305563Y-43554418D01*
X45311519Y-43601273D01*
X45331349Y-43657251D01*
X45369016Y-43724904D01*
X45429638Y-43806911D01*
X45305563Y-43806911D01*
X45252578Y-43734049D01*
X45217550Y-43666277D01*
X45197768Y-43602472D01*
X45191414Y-43541390D01*
X45197169Y-43492270D01*
X45218122Y-43420213D01*
X45260896Y-43317589D01*
X45304402Y-43214601D01*
X45324964Y-43147094D01*
X45330378Y-43105033D01*
X45324381Y-43058176D01*
X45304489Y-43002701D01*
X45266815Y-42936165D01*
X45206303Y-42856029D01*
X45330378Y-42856029D01*
G37*
G36*
X44551185Y-41763390D02*
G01*
X45777050Y-41919492D01*
X45777050Y-42051400D01*
X45084709Y-42259614D01*
X45777050Y-42466975D01*
X45777050Y-42602295D01*
X44551185Y-42754985D01*
X44551185Y-42614470D01*
X45547820Y-42511177D01*
X44943263Y-42330725D01*
X44943263Y-42188426D01*
X45549216Y-42007121D01*
X44551185Y-41902199D01*
X44551185Y-41763390D01*
G37*
G36*
X44959853Y-40813004D02*
G01*
X45025629Y-40833064D01*
X45082854Y-40865626D01*
X45132943Y-40911380D01*
X45172702Y-40966402D01*
X45201668Y-41029693D01*
X45219784Y-41102794D01*
X45226155Y-41187680D01*
X45226155Y-41362084D01*
X45777050Y-41362084D01*
X45777050Y-41504383D01*
X44551185Y-41504383D01*
X44551185Y-41200708D01*
X44675260Y-41200708D01*
X44675260Y-41362084D01*
X45102080Y-41362084D01*
X45102080Y-41207688D01*
X45094860Y-41123323D01*
X45075591Y-41061207D01*
X45046498Y-41016057D01*
X45007768Y-40984234D01*
X44957524Y-40964238D01*
X44892159Y-40956978D01*
X44830463Y-40964831D01*
X44778929Y-40987398D01*
X44735127Y-41025064D01*
X44702519Y-41073526D01*
X44682373Y-41131249D01*
X44675260Y-41200708D01*
X44551185Y-41200708D01*
X44551185Y-41193807D01*
X44557338Y-41105810D01*
X44574723Y-41030831D01*
X44602268Y-40966745D01*
X44639666Y-40911845D01*
X44687504Y-40865975D01*
X44742956Y-40833291D01*
X44807535Y-40813087D01*
X44883474Y-40805994D01*
X44959853Y-40813004D01*
G37*
G36*
X45686707Y-38930707D02*
G01*
X45735336Y-39008549D01*
X45769500Y-39089250D01*
X45789984Y-39173700D01*
X45796902Y-39262996D01*
X45789778Y-39358228D01*
X45769544Y-39440027D01*
X45737235Y-39510645D01*
X45692948Y-39571838D01*
X45635836Y-39624753D01*
X45571489Y-39665903D01*
X45494461Y-39699642D01*
X45402658Y-39725359D01*
X45293620Y-39741958D01*
X45164582Y-39747898D01*
X45012286Y-39739190D01*
X44886511Y-39715035D01*
X44782980Y-39677735D01*
X44698059Y-39628631D01*
X44639125Y-39576986D01*
X44593366Y-39516213D01*
X44559873Y-39445037D01*
X44538793Y-39361464D01*
X44531333Y-39262918D01*
X44536766Y-39174980D01*
X44553124Y-39087662D01*
X44579664Y-39006292D01*
X44610741Y-38948000D01*
X44724890Y-38994838D01*
X44686391Y-39078724D01*
X44663254Y-39167625D01*
X44655408Y-39262918D01*
X44663725Y-39344772D01*
X44687170Y-39412078D01*
X44724930Y-39467913D01*
X44778165Y-39514171D01*
X44839833Y-39546953D01*
X44921458Y-39572970D01*
X45027855Y-39590485D01*
X45164582Y-39596991D01*
X45304465Y-39589608D01*
X45413848Y-39569633D01*
X45498307Y-39539728D01*
X45562600Y-39501622D01*
X45610477Y-39455955D01*
X45644423Y-39402198D01*
X45665420Y-39338708D01*
X45672826Y-39262918D01*
X45666005Y-39180517D01*
X45647695Y-39118765D01*
X45619939Y-39072928D01*
X45320452Y-39072928D01*
X45320452Y-39293317D01*
X45196377Y-39293317D01*
X45196377Y-38930707D01*
X45686707Y-38930707D01*
G37*
G36*
X45777050Y-37890025D02*
G01*
X45777050Y-38047910D01*
X44809184Y-38486905D01*
X45777050Y-38486905D01*
X45777050Y-38629204D01*
X44551185Y-38629204D01*
X44551185Y-38470387D01*
X45510365Y-38029687D01*
X44551185Y-38029687D01*
X44551185Y-37890025D01*
X45777050Y-37890025D01*
G37*
G36*
X45283735Y-36780656D02*
G01*
X45386358Y-36799788D01*
X45474798Y-36829944D01*
X45551064Y-36870384D01*
X45616760Y-36920996D01*
X45674591Y-36983282D01*
X45718949Y-37051131D01*
X45750779Y-37125344D01*
X45770310Y-37207098D01*
X45777050Y-37297875D01*
X45777050Y-37545173D01*
X44551185Y-37545173D01*
X44551185Y-37304001D01*
X44551316Y-37302218D01*
X44675260Y-37302218D01*
X44675260Y-37402874D01*
X45652974Y-37402874D01*
X45652974Y-37302218D01*
X45644479Y-37217696D01*
X45620100Y-37145041D01*
X45580213Y-37081792D01*
X45523470Y-37026382D01*
X45456892Y-36984179D01*
X45376728Y-36952498D01*
X45280351Y-36932163D01*
X45164582Y-36924873D01*
X45049794Y-36932154D01*
X44953714Y-36952517D01*
X44873313Y-36984336D01*
X44806082Y-37026848D01*
X44748636Y-37082528D01*
X44708358Y-37145815D01*
X44683802Y-37218237D01*
X44675260Y-37302218D01*
X44551316Y-37302218D01*
X44558191Y-37208678D01*
X44578368Y-37124035D01*
X44611028Y-37048349D01*
X44656268Y-36980255D01*
X44714964Y-36918825D01*
X44782024Y-36868720D01*
X44858906Y-36828818D01*
X44947047Y-36799187D01*
X45048243Y-36780478D01*
X45164582Y-36773889D01*
X45283735Y-36780656D01*
G37*
D13*
X42250000Y-48309382D02*
X44250000Y-48309382D01*
X44250000Y-48309382D02*
X46250000Y-48309382D01*
X46250000Y-46259382D02*
X48500000Y-46259382D01*
X42250000Y-44259382D02*
X44250000Y-44259382D01*
X44250000Y-44259382D02*
X46250000Y-44259382D01*
X46250000Y-44259382D02*
X47500000Y-44259382D01*
X47500000Y-44259382D02*
X48500000Y-44259382D01*
X42250000Y-40259382D02*
X44250000Y-40259382D01*
X44250000Y-40259382D02*
X46250000Y-40259382D01*
X46250000Y-42209382D02*
X47500000Y-42209382D01*
X47500000Y-42209382D02*
X48500000Y-42209382D01*
X42250000Y-36259382D02*
X42250000Y-52190000D01*
X44250000Y-48309382D02*
X44250000Y-52190000D01*
X44250000Y-44259382D02*
X44250000Y-48309382D01*
X44250000Y-40259382D02*
X44250000Y-44259382D01*
X44250000Y-36259382D02*
X44250000Y-40259382D01*
X46250000Y-48309382D02*
X46250000Y-52190000D01*
X46250000Y-44259382D02*
X46250000Y-48309382D01*
X46250000Y-40259382D02*
X46250000Y-44259382D01*
X46250000Y-36259382D02*
X46250000Y-40259382D01*
X47500000Y-44259382D02*
X47500000Y-46259382D01*
X47500000Y-42209382D02*
X47500000Y-44259382D01*
D10*
X35625833Y-9957419D02*
X35292500Y-9481228D01*
X35054405Y-9957419D02*
X35054405Y-8957419D01*
X35054405Y-8957419D02*
X35435357Y-8957419D01*
X35435357Y-8957419D02*
X35530595Y-9005038D01*
X35530595Y-9005038D02*
X35578214Y-9052657D01*
X35578214Y-9052657D02*
X35625833Y-9147895D01*
X35625833Y-9147895D02*
X35625833Y-9290752D01*
X35625833Y-9290752D02*
X35578214Y-9385990D01*
X35578214Y-9385990D02*
X35530595Y-9433609D01*
X35530595Y-9433609D02*
X35435357Y-9481228D01*
X35435357Y-9481228D02*
X35054405Y-9481228D01*
X36482976Y-9290752D02*
X36482976Y-9957419D01*
X36244881Y-8909800D02*
X36006786Y-9624085D01*
X36006786Y-9624085D02*
X36625833Y-9624085D01*
X35670833Y-12957419D02*
X35337500Y-12481228D01*
X35099405Y-12957419D02*
X35099405Y-11957419D01*
X35099405Y-11957419D02*
X35480357Y-11957419D01*
X35480357Y-11957419D02*
X35575595Y-12005038D01*
X35575595Y-12005038D02*
X35623214Y-12052657D01*
X35623214Y-12052657D02*
X35670833Y-12147895D01*
X35670833Y-12147895D02*
X35670833Y-12290752D01*
X35670833Y-12290752D02*
X35623214Y-12385990D01*
X35623214Y-12385990D02*
X35575595Y-12433609D01*
X35575595Y-12433609D02*
X35480357Y-12481228D01*
X35480357Y-12481228D02*
X35099405Y-12481228D01*
X36004167Y-11957419D02*
X36623214Y-11957419D01*
X36623214Y-11957419D02*
X36289881Y-12338371D01*
X36289881Y-12338371D02*
X36432738Y-12338371D01*
X36432738Y-12338371D02*
X36527976Y-12385990D01*
X36527976Y-12385990D02*
X36575595Y-12433609D01*
X36575595Y-12433609D02*
X36623214Y-12528847D01*
X36623214Y-12528847D02*
X36623214Y-12766942D01*
X36623214Y-12766942D02*
X36575595Y-12862180D01*
X36575595Y-12862180D02*
X36527976Y-12909800D01*
X36527976Y-12909800D02*
X36432738Y-12957419D01*
X36432738Y-12957419D02*
X36147024Y-12957419D01*
X36147024Y-12957419D02*
X36051786Y-12909800D01*
X36051786Y-12909800D02*
X36004167Y-12862180D01*
X30761905Y-4457419D02*
X30761905Y-3457419D01*
X30761905Y-3457419D02*
X31000000Y-3457419D01*
X31000000Y-3457419D02*
X31142857Y-3505038D01*
X31142857Y-3505038D02*
X31238095Y-3600276D01*
X31238095Y-3600276D02*
X31285714Y-3695514D01*
X31285714Y-3695514D02*
X31333333Y-3885990D01*
X31333333Y-3885990D02*
X31333333Y-4028847D01*
X31333333Y-4028847D02*
X31285714Y-4219323D01*
X31285714Y-4219323D02*
X31238095Y-4314561D01*
X31238095Y-4314561D02*
X31142857Y-4409800D01*
X31142857Y-4409800D02*
X31000000Y-4457419D01*
X31000000Y-4457419D02*
X30761905Y-4457419D01*
X32285714Y-4457419D02*
X31714286Y-4457419D01*
X32000000Y-4457419D02*
X32000000Y-3457419D01*
X32000000Y-3457419D02*
X31904762Y-3600276D01*
X31904762Y-3600276D02*
X31809524Y-3695514D01*
X31809524Y-3695514D02*
X31714286Y-3743133D01*
D14*
X27666667Y-5952219D02*
X27666667Y-4952219D01*
X27666667Y-4952219D02*
X28047619Y-4952219D01*
X28047619Y-4952219D02*
X28142857Y-4999838D01*
X28142857Y-4999838D02*
X28190476Y-5047457D01*
X28190476Y-5047457D02*
X28238095Y-5142695D01*
X28238095Y-5142695D02*
X28238095Y-5285552D01*
X28238095Y-5285552D02*
X28190476Y-5380790D01*
X28190476Y-5380790D02*
X28142857Y-5428409D01*
X28142857Y-5428409D02*
X28047619Y-5476028D01*
X28047619Y-5476028D02*
X27666667Y-5476028D01*
X28571429Y-4952219D02*
X28809524Y-5952219D01*
X28809524Y-5952219D02*
X29000000Y-5237933D01*
X29000000Y-5237933D02*
X29190476Y-5952219D01*
X29190476Y-5952219D02*
X29428572Y-4952219D01*
X30380952Y-5952219D02*
X30047619Y-5476028D01*
X29809524Y-5952219D02*
X29809524Y-4952219D01*
X29809524Y-4952219D02*
X30190476Y-4952219D01*
X30190476Y-4952219D02*
X30285714Y-4999838D01*
X30285714Y-4999838D02*
X30333333Y-5047457D01*
X30333333Y-5047457D02*
X30380952Y-5142695D01*
X30380952Y-5142695D02*
X30380952Y-5285552D01*
X30380952Y-5285552D02*
X30333333Y-5380790D01*
X30333333Y-5380790D02*
X30285714Y-5428409D01*
X30285714Y-5428409D02*
X30190476Y-5476028D01*
X30190476Y-5476028D02*
X29809524Y-5476028D01*
D10*
X39935804Y-5457419D02*
X39935804Y-6171704D01*
X39935804Y-6171704D02*
X39888185Y-6314561D01*
X39888185Y-6314561D02*
X39792947Y-6409800D01*
X39792947Y-6409800D02*
X39650090Y-6457419D01*
X39650090Y-6457419D02*
X39554852Y-6457419D01*
X40935804Y-6457419D02*
X40364376Y-6457419D01*
X40650090Y-6457419D02*
X40650090Y-5457419D01*
X40650090Y-5457419D02*
X40554852Y-5600276D01*
X40554852Y-5600276D02*
X40459614Y-5695514D01*
X40459614Y-5695514D02*
X40364376Y-5743133D01*
X24046667Y-3499800D02*
X24189524Y-3547419D01*
X24189524Y-3547419D02*
X24427619Y-3547419D01*
X24427619Y-3547419D02*
X24522857Y-3499800D01*
X24522857Y-3499800D02*
X24570476Y-3452180D01*
X24570476Y-3452180D02*
X24618095Y-3356942D01*
X24618095Y-3356942D02*
X24618095Y-3261704D01*
X24618095Y-3261704D02*
X24570476Y-3166466D01*
X24570476Y-3166466D02*
X24522857Y-3118847D01*
X24522857Y-3118847D02*
X24427619Y-3071228D01*
X24427619Y-3071228D02*
X24237143Y-3023609D01*
X24237143Y-3023609D02*
X24141905Y-2975990D01*
X24141905Y-2975990D02*
X24094286Y-2928371D01*
X24094286Y-2928371D02*
X24046667Y-2833133D01*
X24046667Y-2833133D02*
X24046667Y-2737895D01*
X24046667Y-2737895D02*
X24094286Y-2642657D01*
X24094286Y-2642657D02*
X24141905Y-2595038D01*
X24141905Y-2595038D02*
X24237143Y-2547419D01*
X24237143Y-2547419D02*
X24475238Y-2547419D01*
X24475238Y-2547419D02*
X24618095Y-2595038D01*
X24951429Y-2547419D02*
X25189524Y-3547419D01*
X25189524Y-3547419D02*
X25380000Y-2833133D01*
X25380000Y-2833133D02*
X25570476Y-3547419D01*
X25570476Y-3547419D02*
X25808572Y-2547419D01*
X26713333Y-3547419D02*
X26141905Y-3547419D01*
X26427619Y-3547419D02*
X26427619Y-2547419D01*
X26427619Y-2547419D02*
X26332381Y-2690276D01*
X26332381Y-2690276D02*
X26237143Y-2785514D01*
X26237143Y-2785514D02*
X26141905Y-2833133D01*
D14*
X26452219Y-8452381D02*
X25976028Y-8785714D01*
X26452219Y-9023809D02*
X25452219Y-9023809D01*
X25452219Y-9023809D02*
X25452219Y-8642857D01*
X25452219Y-8642857D02*
X25499838Y-8547619D01*
X25499838Y-8547619D02*
X25547457Y-8500000D01*
X25547457Y-8500000D02*
X25642695Y-8452381D01*
X25642695Y-8452381D02*
X25785552Y-8452381D01*
X25785552Y-8452381D02*
X25880790Y-8500000D01*
X25880790Y-8500000D02*
X25928409Y-8547619D01*
X25928409Y-8547619D02*
X25976028Y-8642857D01*
X25976028Y-8642857D02*
X25976028Y-9023809D01*
X25928409Y-8023809D02*
X25928409Y-7690476D01*
X26452219Y-7547619D02*
X26452219Y-8023809D01*
X26452219Y-8023809D02*
X25452219Y-8023809D01*
X25452219Y-8023809D02*
X25452219Y-7547619D01*
X26404600Y-7166666D02*
X26452219Y-7023809D01*
X26452219Y-7023809D02*
X26452219Y-6785714D01*
X26452219Y-6785714D02*
X26404600Y-6690476D01*
X26404600Y-6690476D02*
X26356980Y-6642857D01*
X26356980Y-6642857D02*
X26261742Y-6595238D01*
X26261742Y-6595238D02*
X26166504Y-6595238D01*
X26166504Y-6595238D02*
X26071266Y-6642857D01*
X26071266Y-6642857D02*
X26023647Y-6690476D01*
X26023647Y-6690476D02*
X25976028Y-6785714D01*
X25976028Y-6785714D02*
X25928409Y-6976190D01*
X25928409Y-6976190D02*
X25880790Y-7071428D01*
X25880790Y-7071428D02*
X25833171Y-7119047D01*
X25833171Y-7119047D02*
X25737933Y-7166666D01*
X25737933Y-7166666D02*
X25642695Y-7166666D01*
X25642695Y-7166666D02*
X25547457Y-7119047D01*
X25547457Y-7119047D02*
X25499838Y-7071428D01*
X25499838Y-7071428D02*
X25452219Y-6976190D01*
X25452219Y-6976190D02*
X25452219Y-6738095D01*
X25452219Y-6738095D02*
X25499838Y-6595238D01*
X25928409Y-6166666D02*
X25928409Y-5833333D01*
X26452219Y-5690476D02*
X26452219Y-6166666D01*
X26452219Y-6166666D02*
X25452219Y-6166666D01*
X25452219Y-6166666D02*
X25452219Y-5690476D01*
X25452219Y-5404761D02*
X25452219Y-4833333D01*
X26452219Y-5119047D02*
X25452219Y-5119047D01*
D10*
X3463329Y-37762175D02*
X4177614Y-37762175D01*
X4177614Y-37762175D02*
X4320471Y-37809794D01*
X4320471Y-37809794D02*
X4415710Y-37905032D01*
X4415710Y-37905032D02*
X4463329Y-38047889D01*
X4463329Y-38047889D02*
X4463329Y-38143127D01*
X3796662Y-36857413D02*
X4463329Y-36857413D01*
X3415710Y-37095508D02*
X4129995Y-37333603D01*
X4129995Y-37333603D02*
X4129995Y-36714556D01*
X41261905Y-11207419D02*
X41261905Y-10207419D01*
X41261905Y-10207419D02*
X41500000Y-10207419D01*
X41500000Y-10207419D02*
X41642857Y-10255038D01*
X41642857Y-10255038D02*
X41738095Y-10350276D01*
X41738095Y-10350276D02*
X41785714Y-10445514D01*
X41785714Y-10445514D02*
X41833333Y-10635990D01*
X41833333Y-10635990D02*
X41833333Y-10778847D01*
X41833333Y-10778847D02*
X41785714Y-10969323D01*
X41785714Y-10969323D02*
X41738095Y-11064561D01*
X41738095Y-11064561D02*
X41642857Y-11159800D01*
X41642857Y-11159800D02*
X41500000Y-11207419D01*
X41500000Y-11207419D02*
X41261905Y-11207419D01*
X42166667Y-10207419D02*
X42785714Y-10207419D01*
X42785714Y-10207419D02*
X42452381Y-10588371D01*
X42452381Y-10588371D02*
X42595238Y-10588371D01*
X42595238Y-10588371D02*
X42690476Y-10635990D01*
X42690476Y-10635990D02*
X42738095Y-10683609D01*
X42738095Y-10683609D02*
X42785714Y-10778847D01*
X42785714Y-10778847D02*
X42785714Y-11016942D01*
X42785714Y-11016942D02*
X42738095Y-11112180D01*
X42738095Y-11112180D02*
X42690476Y-11159800D01*
X42690476Y-11159800D02*
X42595238Y-11207419D01*
X42595238Y-11207419D02*
X42309524Y-11207419D01*
X42309524Y-11207419D02*
X42214286Y-11159800D01*
X42214286Y-11159800D02*
X42166667Y-11112180D01*
D14*
X38619048Y-9802219D02*
X38619048Y-8802219D01*
X39047619Y-8564123D02*
X39142857Y-8516504D01*
X39142857Y-8516504D02*
X39285714Y-8516504D01*
X39285714Y-8516504D02*
X39380952Y-8564123D01*
X39380952Y-8564123D02*
X39428571Y-8659361D01*
X39428571Y-8659361D02*
X39428571Y-8754600D01*
X39428571Y-8754600D02*
X39380952Y-8849838D01*
X39380952Y-8849838D02*
X39047619Y-9183171D01*
X39047619Y-9183171D02*
X39428571Y-9183171D01*
X40428571Y-9706980D02*
X40380952Y-9754600D01*
X40380952Y-9754600D02*
X40238095Y-9802219D01*
X40238095Y-9802219D02*
X40142857Y-9802219D01*
X40142857Y-9802219D02*
X40000000Y-9754600D01*
X40000000Y-9754600D02*
X39904762Y-9659361D01*
X39904762Y-9659361D02*
X39857143Y-9564123D01*
X39857143Y-9564123D02*
X39809524Y-9373647D01*
X39809524Y-9373647D02*
X39809524Y-9230790D01*
X39809524Y-9230790D02*
X39857143Y-9040314D01*
X39857143Y-9040314D02*
X39904762Y-8945076D01*
X39904762Y-8945076D02*
X40000000Y-8849838D01*
X40000000Y-8849838D02*
X40142857Y-8802219D01*
X40142857Y-8802219D02*
X40238095Y-8802219D01*
X40238095Y-8802219D02*
X40380952Y-8849838D01*
X40380952Y-8849838D02*
X40428571Y-8897457D01*
D10*
X31333333Y-2457419D02*
X31000000Y-1981228D01*
X30761905Y-2457419D02*
X30761905Y-1457419D01*
X30761905Y-1457419D02*
X31142857Y-1457419D01*
X31142857Y-1457419D02*
X31238095Y-1505038D01*
X31238095Y-1505038D02*
X31285714Y-1552657D01*
X31285714Y-1552657D02*
X31333333Y-1647895D01*
X31333333Y-1647895D02*
X31333333Y-1790752D01*
X31333333Y-1790752D02*
X31285714Y-1885990D01*
X31285714Y-1885990D02*
X31238095Y-1933609D01*
X31238095Y-1933609D02*
X31142857Y-1981228D01*
X31142857Y-1981228D02*
X30761905Y-1981228D01*
X32285714Y-2457419D02*
X31714286Y-2457419D01*
X32000000Y-2457419D02*
X32000000Y-1457419D01*
X32000000Y-1457419D02*
X31904762Y-1600276D01*
X31904762Y-1600276D02*
X31809524Y-1695514D01*
X31809524Y-1695514D02*
X31714286Y-1743133D01*
X5707419Y-34410401D02*
X6421704Y-34410401D01*
X6421704Y-34410401D02*
X6564561Y-34458020D01*
X6564561Y-34458020D02*
X6659800Y-34553258D01*
X6659800Y-34553258D02*
X6707419Y-34696115D01*
X6707419Y-34696115D02*
X6707419Y-34791353D01*
X5707419Y-33505639D02*
X5707419Y-33696115D01*
X5707419Y-33696115D02*
X5755038Y-33791353D01*
X5755038Y-33791353D02*
X5802657Y-33838972D01*
X5802657Y-33838972D02*
X5945514Y-33934210D01*
X5945514Y-33934210D02*
X6135990Y-33981829D01*
X6135990Y-33981829D02*
X6516942Y-33981829D01*
X6516942Y-33981829D02*
X6612180Y-33934210D01*
X6612180Y-33934210D02*
X6659800Y-33886591D01*
X6659800Y-33886591D02*
X6707419Y-33791353D01*
X6707419Y-33791353D02*
X6707419Y-33600877D01*
X6707419Y-33600877D02*
X6659800Y-33505639D01*
X6659800Y-33505639D02*
X6612180Y-33458020D01*
X6612180Y-33458020D02*
X6516942Y-33410401D01*
X6516942Y-33410401D02*
X6278847Y-33410401D01*
X6278847Y-33410401D02*
X6183609Y-33458020D01*
X6183609Y-33458020D02*
X6135990Y-33505639D01*
X6135990Y-33505639D02*
X6088371Y-33600877D01*
X6088371Y-33600877D02*
X6088371Y-33791353D01*
X6088371Y-33791353D02*
X6135990Y-33886591D01*
X6135990Y-33886591D02*
X6183609Y-33934210D01*
X6183609Y-33934210D02*
X6278847Y-33981829D01*
X38592580Y-24262381D02*
X38592580Y-24833809D01*
X37592580Y-24548095D02*
X38592580Y-24548095D01*
X38116390Y-25167143D02*
X38116390Y-25500476D01*
X37592580Y-25643333D02*
X37592580Y-25167143D01*
X37592580Y-25167143D02*
X38592580Y-25167143D01*
X38592580Y-25167143D02*
X38592580Y-25643333D01*
X38592580Y-25976667D02*
X37592580Y-26643333D01*
X38592580Y-26643333D02*
X37592580Y-25976667D01*
X38592580Y-26881429D02*
X38592580Y-27452857D01*
X37592580Y-27167143D02*
X38592580Y-27167143D01*
X38592580Y-27976667D02*
X38592580Y-28167143D01*
X38592580Y-28167143D02*
X38544961Y-28262381D01*
X38544961Y-28262381D02*
X38449723Y-28357619D01*
X38449723Y-28357619D02*
X38259247Y-28405238D01*
X38259247Y-28405238D02*
X37925914Y-28405238D01*
X37925914Y-28405238D02*
X37735438Y-28357619D01*
X37735438Y-28357619D02*
X37640200Y-28262381D01*
X37640200Y-28262381D02*
X37592580Y-28167143D01*
X37592580Y-28167143D02*
X37592580Y-27976667D01*
X37592580Y-27976667D02*
X37640200Y-27881429D01*
X37640200Y-27881429D02*
X37735438Y-27786191D01*
X37735438Y-27786191D02*
X37925914Y-27738572D01*
X37925914Y-27738572D02*
X38259247Y-27738572D01*
X38259247Y-27738572D02*
X38449723Y-27786191D01*
X38449723Y-27786191D02*
X38544961Y-27881429D01*
X38544961Y-27881429D02*
X38592580Y-27976667D01*
X38592580Y-29024286D02*
X38592580Y-29214762D01*
X38592580Y-29214762D02*
X38544961Y-29310000D01*
X38544961Y-29310000D02*
X38449723Y-29405238D01*
X38449723Y-29405238D02*
X38259247Y-29452857D01*
X38259247Y-29452857D02*
X37925914Y-29452857D01*
X37925914Y-29452857D02*
X37735438Y-29405238D01*
X37735438Y-29405238D02*
X37640200Y-29310000D01*
X37640200Y-29310000D02*
X37592580Y-29214762D01*
X37592580Y-29214762D02*
X37592580Y-29024286D01*
X37592580Y-29024286D02*
X37640200Y-28929048D01*
X37640200Y-28929048D02*
X37735438Y-28833810D01*
X37735438Y-28833810D02*
X37925914Y-28786191D01*
X37925914Y-28786191D02*
X38259247Y-28786191D01*
X38259247Y-28786191D02*
X38449723Y-28833810D01*
X38449723Y-28833810D02*
X38544961Y-28929048D01*
X38544961Y-28929048D02*
X38592580Y-29024286D01*
X37592580Y-30357619D02*
X37592580Y-29881429D01*
X37592580Y-29881429D02*
X38592580Y-29881429D01*
X19478597Y-37527443D02*
X20192882Y-37527443D01*
X20192882Y-37527443D02*
X20335739Y-37575062D01*
X20335739Y-37575062D02*
X20430978Y-37670300D01*
X20430978Y-37670300D02*
X20478597Y-37813157D01*
X20478597Y-37813157D02*
X20478597Y-37908395D01*
X19478597Y-36575062D02*
X19478597Y-37051252D01*
X19478597Y-37051252D02*
X19954787Y-37098871D01*
X19954787Y-37098871D02*
X19907168Y-37051252D01*
X19907168Y-37051252D02*
X19859549Y-36956014D01*
X19859549Y-36956014D02*
X19859549Y-36717919D01*
X19859549Y-36717919D02*
X19907168Y-36622681D01*
X19907168Y-36622681D02*
X19954787Y-36575062D01*
X19954787Y-36575062D02*
X20050025Y-36527443D01*
X20050025Y-36527443D02*
X20288120Y-36527443D01*
X20288120Y-36527443D02*
X20383358Y-36575062D01*
X20383358Y-36575062D02*
X20430978Y-36622681D01*
X20430978Y-36622681D02*
X20478597Y-36717919D01*
X20478597Y-36717919D02*
X20478597Y-36956014D01*
X20478597Y-36956014D02*
X20430978Y-37051252D01*
X20430978Y-37051252D02*
X20383358Y-37098871D01*
X41261905Y-14207419D02*
X41261905Y-13207419D01*
X41261905Y-13207419D02*
X41500000Y-13207419D01*
X41500000Y-13207419D02*
X41642857Y-13255038D01*
X41642857Y-13255038D02*
X41738095Y-13350276D01*
X41738095Y-13350276D02*
X41785714Y-13445514D01*
X41785714Y-13445514D02*
X41833333Y-13635990D01*
X41833333Y-13635990D02*
X41833333Y-13778847D01*
X41833333Y-13778847D02*
X41785714Y-13969323D01*
X41785714Y-13969323D02*
X41738095Y-14064561D01*
X41738095Y-14064561D02*
X41642857Y-14159800D01*
X41642857Y-14159800D02*
X41500000Y-14207419D01*
X41500000Y-14207419D02*
X41261905Y-14207419D01*
X42214286Y-13302657D02*
X42261905Y-13255038D01*
X42261905Y-13255038D02*
X42357143Y-13207419D01*
X42357143Y-13207419D02*
X42595238Y-13207419D01*
X42595238Y-13207419D02*
X42690476Y-13255038D01*
X42690476Y-13255038D02*
X42738095Y-13302657D01*
X42738095Y-13302657D02*
X42785714Y-13397895D01*
X42785714Y-13397895D02*
X42785714Y-13493133D01*
X42785714Y-13493133D02*
X42738095Y-13635990D01*
X42738095Y-13635990D02*
X42166667Y-14207419D01*
X42166667Y-14207419D02*
X42785714Y-14207419D01*
D14*
X38476191Y-12754600D02*
X38619048Y-12802219D01*
X38619048Y-12802219D02*
X38857143Y-12802219D01*
X38857143Y-12802219D02*
X38952381Y-12754600D01*
X38952381Y-12754600D02*
X39000000Y-12706980D01*
X39000000Y-12706980D02*
X39047619Y-12611742D01*
X39047619Y-12611742D02*
X39047619Y-12516504D01*
X39047619Y-12516504D02*
X39000000Y-12421266D01*
X39000000Y-12421266D02*
X38952381Y-12373647D01*
X38952381Y-12373647D02*
X38857143Y-12326028D01*
X38857143Y-12326028D02*
X38666667Y-12278409D01*
X38666667Y-12278409D02*
X38571429Y-12230790D01*
X38571429Y-12230790D02*
X38523810Y-12183171D01*
X38523810Y-12183171D02*
X38476191Y-12087933D01*
X38476191Y-12087933D02*
X38476191Y-11992695D01*
X38476191Y-11992695D02*
X38523810Y-11897457D01*
X38523810Y-11897457D02*
X38571429Y-11849838D01*
X38571429Y-11849838D02*
X38666667Y-11802219D01*
X38666667Y-11802219D02*
X38904762Y-11802219D01*
X38904762Y-11802219D02*
X39047619Y-11849838D01*
X39476191Y-12802219D02*
X39476191Y-11802219D01*
X39476191Y-11802219D02*
X39857143Y-11802219D01*
X39857143Y-11802219D02*
X39952381Y-11849838D01*
X39952381Y-11849838D02*
X40000000Y-11897457D01*
X40000000Y-11897457D02*
X40047619Y-11992695D01*
X40047619Y-11992695D02*
X40047619Y-12135552D01*
X40047619Y-12135552D02*
X40000000Y-12230790D01*
X40000000Y-12230790D02*
X39952381Y-12278409D01*
X39952381Y-12278409D02*
X39857143Y-12326028D01*
X39857143Y-12326028D02*
X39476191Y-12326028D01*
X40476191Y-12802219D02*
X40476191Y-11802219D01*
%TO.C,R4*%
D13*
X35495276Y-10227500D02*
X36004724Y-10227500D01*
X35495276Y-11272500D02*
X36004724Y-11272500D01*
%TO.C,R3*%
X35582776Y-13227500D02*
X36092224Y-13227500D01*
X35582776Y-14272500D02*
X36092224Y-14272500D01*
%TO.C,D1*%
X27340000Y-3265000D02*
X27340000Y-4735000D01*
X27340000Y-4735000D02*
X29800000Y-4735000D01*
X29800000Y-3265000D02*
X27340000Y-3265000D01*
%TO.C,J1*%
X33080000Y420000D02*
X33080000Y-800000D01*
X33080000Y-2200000D02*
X33080000Y-3930000D01*
X37880000Y-5630000D02*
X38280000Y-5180000D01*
X38280000Y-5180000D02*
X38680000Y-5630000D01*
X38680000Y-5630000D02*
X37880000Y-5630000D01*
X40830000Y420000D02*
X40830000Y-800000D01*
X40830000Y-2200000D02*
X40830000Y-3930000D01*
%TO.C,SW1*%
X21160000Y-3800000D02*
X21160000Y-10200000D01*
X21160000Y-10200000D02*
X22360000Y-10200000D01*
X22360000Y-3800000D02*
X21160000Y-3800000D01*
X23960000Y-10200000D02*
X25160000Y-10200000D01*
X25160000Y-3800000D02*
X23960000Y-3800000D01*
X25160000Y-10200000D02*
X25160000Y-3800000D01*
%TO.C,J4*%
X4900000Y-36400000D02*
X4900000Y-37600000D01*
X4900000Y-38800000D02*
X4900000Y-47700000D01*
X4900000Y-49000000D02*
X4900000Y-55600000D01*
X4900000Y-55600000D02*
X17100000Y-55600000D01*
X17100000Y-36400000D02*
X4900000Y-36400000D01*
X17100000Y-37600000D02*
X17100000Y-36400000D01*
X17100000Y-47700000D02*
X17100000Y-38800000D01*
X17100000Y-55600000D02*
X17100000Y-49000000D01*
%TO.C,D3*%
X37840000Y-10015000D02*
X37840000Y-11485000D01*
X37840000Y-11485000D02*
X40300000Y-11485000D01*
X40300000Y-10015000D02*
X37840000Y-10015000D01*
%TO.C,R1*%
X28745276Y-1477500D02*
X29254724Y-1477500D01*
X28745276Y-2522500D02*
X29254724Y-2522500D01*
%TO.C,J6*%
X12940000Y-24660000D02*
X12940000Y-29960000D01*
X12940000Y-29960000D02*
X33380000Y-29960000D01*
X33380000Y-24660000D02*
X12940000Y-24660000D01*
X33380000Y-26310000D02*
X33380000Y-24660000D01*
X33380000Y-29960000D02*
X33380000Y-28310000D01*
D10*
X34590000Y-19710000D02*
X36130000Y-19710000D01*
X37130000Y-20710000D02*
X37130000Y-21230000D01*
X38130000Y-22230000D02*
X42550000Y-22230000D01*
D13*
X12880000Y-22170000D02*
X33440000Y-22170000D01*
X33440000Y-32450000D01*
X12880000Y-32450000D01*
X12880000Y-22170000D01*
D10*
X7250000Y-20960000D02*
X7250000Y-20960000D01*
G75*
G02*
X8500000Y-19710000I1250000J0D01*
G01*
X41300000Y-19710000D01*
G75*
G02*
X42550000Y-20960000I0J-1250000D01*
G01*
X42550000Y-33660000D01*
G75*
G02*
X41300000Y-34910000I-1250000J0D01*
G01*
X8500000Y-34910000D01*
G75*
G02*
X7250000Y-33660000I0J1250000D01*
G01*
X7250000Y-20960000D01*
D13*
X33380000Y-28310000D02*
G75*
G02*
X33380000Y-26310000I0J1000000D01*
G01*
D10*
X36130000Y-19710000D02*
G75*
G02*
X37130000Y-20710000I1J-999999D01*
G01*
X38130000Y-22230000D02*
G75*
G02*
X37130000Y-21230000I-1J999999D01*
G01*
X38550000Y-20970000D02*
G75*
G02*
X37550000Y-20970000I-500000J0D01*
G01*
X37550000Y-20970000D02*
G75*
G02*
X38550000Y-20970000I500000J0D01*
G01*
X40050000Y-20970000D02*
G75*
G02*
X36050000Y-20970000I-2000000J0D01*
G01*
X36050000Y-20970000D02*
G75*
G02*
X40050000Y-20970000I2000000J0D01*
G01*
%TO.C,J5*%
D13*
X20900000Y-36400000D02*
X20900000Y-37600000D01*
X20900000Y-38800000D02*
X20900000Y-47700000D01*
X20900000Y-49000000D02*
X20900000Y-55600000D01*
X20900000Y-55600000D02*
X33100000Y-55600000D01*
X33100000Y-36400000D02*
X20900000Y-36400000D01*
X33100000Y-37600000D02*
X33100000Y-36400000D01*
X33100000Y-47700000D02*
X33100000Y-38800000D01*
X33100000Y-55600000D02*
X33100000Y-49000000D01*
%TO.C,D2*%
X37840000Y-13015000D02*
X37840000Y-14485000D01*
X37840000Y-14485000D02*
X40300000Y-14485000D01*
X40300000Y-13015000D02*
X37840000Y-13015000D01*
%TD*%
%LPC*%
G36*
X18312000Y-29064D02*
G01*
X18431775Y-61157D01*
X18539162Y-123157D01*
X18626843Y-210838D01*
X18688843Y-318225D01*
X18720936Y-438000D01*
X18720936Y-562000D01*
X18688843Y-681775D01*
X18626843Y-789162D01*
X18539162Y-876843D01*
X18431775Y-938843D01*
X18312000Y-970936D01*
X18250000Y-975000D01*
X18247958Y-975000D01*
X3062535Y-975000D01*
X3000000Y-975000D01*
X2735684Y-992324D01*
X2475898Y-1043998D01*
X2475884Y-1044002D01*
X2225066Y-1129144D01*
X1987500Y-1246299D01*
X1767263Y-1393455D01*
X1767253Y-1393463D01*
X1568109Y-1568109D01*
X1393463Y-1767253D01*
X1393455Y-1767263D01*
X1246299Y-1987500D01*
X1129144Y-2225066D01*
X1044002Y-2475884D01*
X1043998Y-2475898D01*
X992324Y-2735684D01*
X975000Y-3000000D01*
X975000Y-52937465D01*
X975000Y-53000000D01*
X992324Y-53264316D01*
X1044000Y-53524109D01*
X1129144Y-53774934D01*
X1246299Y-54012500D01*
X1393459Y-54232742D01*
X1568109Y-54431891D01*
X1767253Y-54606536D01*
X1767263Y-54606544D01*
X1987500Y-54753701D01*
X2225066Y-54870856D01*
X2475884Y-54955997D01*
X2475898Y-54956001D01*
X2735683Y-55007675D01*
X2735684Y-55007676D01*
X3000000Y-55025000D01*
X47000000Y-55025000D01*
X47264315Y-55007676D01*
X47264316Y-55007675D01*
X47524101Y-54956001D01*
X47524115Y-54955997D01*
X47774934Y-54870856D01*
X48012500Y-54753701D01*
X48232736Y-54606544D01*
X48232746Y-54606536D01*
X48431891Y-54431891D01*
X48606541Y-54232742D01*
X48753701Y-54012500D01*
X48870856Y-53774934D01*
X48956000Y-53524109D01*
X49007676Y-53264316D01*
X49025000Y-53000000D01*
X49025000Y-52937465D01*
X49025000Y-28252042D01*
X49025000Y-28250000D01*
X49029064Y-28188000D01*
X49061157Y-28068225D01*
X49123157Y-27960838D01*
X49210838Y-27873157D01*
X49318225Y-27811157D01*
X49438000Y-27779064D01*
X49562000Y-27779064D01*
X49681775Y-27811157D01*
X49789162Y-27873157D01*
X49876843Y-27960838D01*
X49938843Y-28068225D01*
X49970936Y-28188000D01*
X49975000Y-28250000D01*
X49975000Y-28252042D01*
X49975000Y-52937465D01*
X49975000Y-53000000D01*
X49975000Y-53155913D01*
X49942406Y-53466031D01*
X49877573Y-53771043D01*
X49781214Y-54067608D01*
X49654382Y-54352475D01*
X49498469Y-54622525D01*
X49315182Y-54874798D01*
X49106530Y-55106530D01*
X48874798Y-55315182D01*
X48622525Y-55498469D01*
X48352475Y-55654382D01*
X48067608Y-55781214D01*
X47771043Y-55877573D01*
X47466031Y-55942406D01*
X47155913Y-55975000D01*
X47000000Y-55975000D01*
X46937465Y-55975000D01*
X3000000Y-55975000D01*
X2844090Y-55975000D01*
X2844087Y-55975000D01*
X2533969Y-55942406D01*
X2228957Y-55877573D01*
X1932392Y-55781214D01*
X1647525Y-55654382D01*
X1479999Y-55557661D01*
X1377476Y-55498470D01*
X1293510Y-55437465D01*
X1125202Y-55315182D01*
X893470Y-55106530D01*
X684818Y-54874798D01*
X580246Y-54730867D01*
X501529Y-54622523D01*
X345620Y-54352478D01*
X345618Y-54352475D01*
X218786Y-54067608D01*
X200305Y-54010729D01*
X122426Y-53771041D01*
X58637Y-53470936D01*
X57594Y-53466031D01*
X25000Y-53155913D01*
X25000Y-53000000D01*
X25000Y-52937465D01*
X25000Y-2844090D01*
X25000Y-2844087D01*
X57594Y-2533969D01*
X112857Y-2273978D01*
X122426Y-2228958D01*
X218784Y-1932397D01*
X241372Y-1881665D01*
X345618Y-1647525D01*
X376196Y-1594562D01*
X501529Y-1377476D01*
X684818Y-1125202D01*
X692867Y-1116263D01*
X893470Y-893470D01*
X1125202Y-684818D01*
X1129677Y-681567D01*
X1377476Y-501529D01*
X1647521Y-345620D01*
X1647525Y-345618D01*
X1932392Y-218786D01*
X1932393Y-218785D01*
X1932397Y-218784D01*
X2228958Y-122426D01*
X2413773Y-83142D01*
X2533969Y-57594D01*
X2844087Y-25000D01*
X3000000Y-25000D01*
X3062535Y-25000D01*
X18247958Y-25000D01*
X18250000Y-25000D01*
X18312000Y-29064D01*
G37*
G36*
X6166742Y-47546601D02*
G01*
X6320687Y-47610367D01*
X6459234Y-47702941D01*
X6577059Y-47820766D01*
X6669633Y-47959313D01*
X6733399Y-48113258D01*
X6765907Y-48276685D01*
X6765907Y-48443315D01*
X6733399Y-48606742D01*
X6669633Y-48760687D01*
X6577059Y-48899234D01*
X6459234Y-49017059D01*
X6320687Y-49109633D01*
X6166742Y-49173399D01*
X6003315Y-49205907D01*
X5836685Y-49205907D01*
X5673258Y-49173399D01*
X5519313Y-49109633D01*
X5380766Y-49017059D01*
X5262941Y-48899234D01*
X5170367Y-48760687D01*
X5106601Y-48606742D01*
X5074093Y-48443315D01*
X5074093Y-48276685D01*
X5106601Y-48113258D01*
X5170367Y-47959313D01*
X5262941Y-47820766D01*
X5380766Y-47702941D01*
X5519313Y-47610367D01*
X5673258Y-47546601D01*
X5836685Y-47514093D01*
X6003315Y-47514093D01*
X6166742Y-47546601D01*
G37*
G36*
X16326742Y-47546601D02*
G01*
X16480687Y-47610367D01*
X16619234Y-47702941D01*
X16737059Y-47820766D01*
X16829633Y-47959313D01*
X16893399Y-48113258D01*
X16925907Y-48276685D01*
X16925907Y-48443315D01*
X16893399Y-48606742D01*
X16829633Y-48760687D01*
X16737059Y-48899234D01*
X16619234Y-49017059D01*
X16480687Y-49109633D01*
X16326742Y-49173399D01*
X16163315Y-49205907D01*
X15996685Y-49205907D01*
X15833258Y-49173399D01*
X15679313Y-49109633D01*
X15540766Y-49017059D01*
X15422941Y-48899234D01*
X15330367Y-48760687D01*
X15266601Y-48606742D01*
X15234093Y-48443315D01*
X15234093Y-48276685D01*
X15266601Y-48113258D01*
X15330367Y-47959313D01*
X15422941Y-47820766D01*
X15540766Y-47702941D01*
X15679313Y-47610367D01*
X15833258Y-47546601D01*
X15996685Y-47514093D01*
X16163315Y-47514093D01*
X16326742Y-47546601D01*
G37*
G36*
X22166742Y-47546601D02*
G01*
X22320687Y-47610367D01*
X22459234Y-47702941D01*
X22577059Y-47820766D01*
X22669633Y-47959313D01*
X22733399Y-48113258D01*
X22765907Y-48276685D01*
X22765907Y-48443315D01*
X22733399Y-48606742D01*
X22669633Y-48760687D01*
X22577059Y-48899234D01*
X22459234Y-49017059D01*
X22320687Y-49109633D01*
X22166742Y-49173399D01*
X22003315Y-49205907D01*
X21836685Y-49205907D01*
X21673258Y-49173399D01*
X21519313Y-49109633D01*
X21380766Y-49017059D01*
X21262941Y-48899234D01*
X21170367Y-48760687D01*
X21106601Y-48606742D01*
X21074093Y-48443315D01*
X21074093Y-48276685D01*
X21106601Y-48113258D01*
X21170367Y-47959313D01*
X21262941Y-47820766D01*
X21380766Y-47702941D01*
X21519313Y-47610367D01*
X21673258Y-47546601D01*
X21836685Y-47514093D01*
X22003315Y-47514093D01*
X22166742Y-47546601D01*
G37*
G36*
X32326742Y-47546601D02*
G01*
X32480687Y-47610367D01*
X32619234Y-47702941D01*
X32737059Y-47820766D01*
X32829633Y-47959313D01*
X32893399Y-48113258D01*
X32925907Y-48276685D01*
X32925907Y-48443315D01*
X32893399Y-48606742D01*
X32829633Y-48760687D01*
X32737059Y-48899234D01*
X32619234Y-49017059D01*
X32480687Y-49109633D01*
X32326742Y-49173399D01*
X32163315Y-49205907D01*
X31996685Y-49205907D01*
X31833258Y-49173399D01*
X31679313Y-49109633D01*
X31540766Y-49017059D01*
X31422941Y-48899234D01*
X31330367Y-48760687D01*
X31266601Y-48606742D01*
X31234093Y-48443315D01*
X31234093Y-48276685D01*
X31266601Y-48113258D01*
X31330367Y-47959313D01*
X31422941Y-47820766D01*
X31540766Y-47702941D01*
X31679313Y-47610367D01*
X31833258Y-47546601D01*
X31996685Y-47514093D01*
X32163315Y-47514093D01*
X32326742Y-47546601D01*
G37*
G36*
X37358013Y-47151594D02*
G01*
X37413186Y-47158857D01*
X37427065Y-47165329D01*
X37445671Y-47169030D01*
X37470316Y-47185497D01*
X37492841Y-47196001D01*
X37506543Y-47209703D01*
X37526777Y-47223223D01*
X37540296Y-47243456D01*
X37553998Y-47257158D01*
X37564500Y-47279680D01*
X37580970Y-47304329D01*
X37584671Y-47322936D01*
X37591142Y-47336813D01*
X37598403Y-47391974D01*
X37600000Y-47400000D01*
X37600000Y-48600000D01*
X37598403Y-48608028D01*
X37591142Y-48663186D01*
X37584671Y-48677061D01*
X37580970Y-48695671D01*
X37564498Y-48720321D01*
X37553998Y-48742841D01*
X37540298Y-48756540D01*
X37526777Y-48776777D01*
X37506540Y-48790298D01*
X37492841Y-48803998D01*
X37470321Y-48814498D01*
X37445671Y-48830970D01*
X37427061Y-48834671D01*
X37413186Y-48841142D01*
X37358026Y-48848403D01*
X37350000Y-48850000D01*
X36150000Y-48850000D01*
X36141973Y-48848403D01*
X36086813Y-48841142D01*
X36072936Y-48834671D01*
X36054329Y-48830970D01*
X36029680Y-48814500D01*
X36007158Y-48803998D01*
X35993456Y-48790296D01*
X35973223Y-48776777D01*
X35959703Y-48756543D01*
X35946001Y-48742841D01*
X35935497Y-48720316D01*
X35919030Y-48695671D01*
X35915329Y-48677065D01*
X35908857Y-48663186D01*
X35901593Y-48608012D01*
X35900000Y-48600000D01*
X35900000Y-47400000D01*
X35901593Y-47391988D01*
X35908857Y-47336813D01*
X35915329Y-47322932D01*
X35919030Y-47304329D01*
X35935496Y-47279685D01*
X35946001Y-47257158D01*
X35959705Y-47243453D01*
X35973223Y-47223223D01*
X35993453Y-47209705D01*
X36007158Y-47196001D01*
X36029685Y-47185496D01*
X36054329Y-47169030D01*
X36072932Y-47165329D01*
X36086813Y-47158857D01*
X36141989Y-47151593D01*
X36150000Y-47150000D01*
X37350000Y-47150000D01*
X37358013Y-47151594D01*
G37*
G36*
X39536742Y-47186601D02*
G01*
X39690687Y-47250367D01*
X39829234Y-47342941D01*
X39947059Y-47460766D01*
X40039633Y-47599313D01*
X40103399Y-47753258D01*
X40135907Y-47916685D01*
X40135907Y-48083315D01*
X40103399Y-48246742D01*
X40039633Y-48400687D01*
X39947059Y-48539234D01*
X39829234Y-48657059D01*
X39690687Y-48749633D01*
X39536742Y-48813399D01*
X39373315Y-48845907D01*
X39206685Y-48845907D01*
X39043258Y-48813399D01*
X38889313Y-48749633D01*
X38750766Y-48657059D01*
X38632941Y-48539234D01*
X38540367Y-48400687D01*
X38476601Y-48246742D01*
X38444093Y-48083315D01*
X38444093Y-47916685D01*
X38476601Y-47753258D01*
X38540367Y-47599313D01*
X38632941Y-47460766D01*
X38750766Y-47342941D01*
X38889313Y-47250367D01*
X39043258Y-47186601D01*
X39206685Y-47154093D01*
X39373315Y-47154093D01*
X39536742Y-47186601D01*
G37*
G36*
X36996742Y-44646601D02*
G01*
X37150687Y-44710367D01*
X37289234Y-44802941D01*
X37407059Y-44920766D01*
X37499633Y-45059313D01*
X37563399Y-45213258D01*
X37595907Y-45376685D01*
X37595907Y-45543315D01*
X37563399Y-45706742D01*
X37499633Y-45860687D01*
X37407059Y-45999234D01*
X37289234Y-46117059D01*
X37150687Y-46209633D01*
X36996742Y-46273399D01*
X36833315Y-46305907D01*
X36666685Y-46305907D01*
X36503258Y-46273399D01*
X36349313Y-46209633D01*
X36210766Y-46117059D01*
X36092941Y-45999234D01*
X36000367Y-45860687D01*
X35936601Y-45706742D01*
X35904093Y-45543315D01*
X35904093Y-45376685D01*
X35936601Y-45213258D01*
X36000367Y-45059313D01*
X36092941Y-44920766D01*
X36210766Y-44802941D01*
X36349313Y-44710367D01*
X36503258Y-44646601D01*
X36666685Y-44614093D01*
X36833315Y-44614093D01*
X36996742Y-44646601D01*
G37*
G36*
X39536742Y-44646601D02*
G01*
X39690687Y-44710367D01*
X39829234Y-44802941D01*
X39947059Y-44920766D01*
X40039633Y-45059313D01*
X40103399Y-45213258D01*
X40135907Y-45376685D01*
X40135907Y-45543315D01*
X40103399Y-45706742D01*
X40039633Y-45860687D01*
X39947059Y-45999234D01*
X39829234Y-46117059D01*
X39690687Y-46209633D01*
X39536742Y-46273399D01*
X39373315Y-46305907D01*
X39206685Y-46305907D01*
X39043258Y-46273399D01*
X38889313Y-46209633D01*
X38750766Y-46117059D01*
X38632941Y-45999234D01*
X38540367Y-45860687D01*
X38476601Y-45706742D01*
X38444093Y-45543315D01*
X38444093Y-45376685D01*
X38476601Y-45213258D01*
X38540367Y-45059313D01*
X38632941Y-44920766D01*
X38750766Y-44802941D01*
X38889313Y-44710367D01*
X39043258Y-44646601D01*
X39206685Y-44614093D01*
X39373315Y-44614093D01*
X39536742Y-44646601D01*
G37*
G36*
X36996742Y-42106601D02*
G01*
X37150687Y-42170367D01*
X37289234Y-42262941D01*
X37407059Y-42380766D01*
X37499633Y-42519313D01*
X37563399Y-42673258D01*
X37595907Y-42836685D01*
X37595907Y-43003315D01*
X37563399Y-43166742D01*
X37499633Y-43320687D01*
X37407059Y-43459234D01*
X37289234Y-43577059D01*
X37150687Y-43669633D01*
X36996742Y-43733399D01*
X36833315Y-43765907D01*
X36666685Y-43765907D01*
X36503258Y-43733399D01*
X36349313Y-43669633D01*
X36210766Y-43577059D01*
X36092941Y-43459234D01*
X36000367Y-43320687D01*
X35936601Y-43166742D01*
X35904093Y-43003315D01*
X35904093Y-42836685D01*
X35936601Y-42673258D01*
X36000367Y-42519313D01*
X36092941Y-42380766D01*
X36210766Y-42262941D01*
X36349313Y-42170367D01*
X36503258Y-42106601D01*
X36666685Y-42074093D01*
X36833315Y-42074093D01*
X36996742Y-42106601D01*
G37*
G36*
X39536742Y-42106601D02*
G01*
X39690687Y-42170367D01*
X39829234Y-42262941D01*
X39947059Y-42380766D01*
X40039633Y-42519313D01*
X40103399Y-42673258D01*
X40135907Y-42836685D01*
X40135907Y-43003315D01*
X40103399Y-43166742D01*
X40039633Y-43320687D01*
X39947059Y-43459234D01*
X39829234Y-43577059D01*
X39690687Y-43669633D01*
X39536742Y-43733399D01*
X39373315Y-43765907D01*
X39206685Y-43765907D01*
X39043258Y-43733399D01*
X38889313Y-43669633D01*
X38750766Y-43577059D01*
X38632941Y-43459234D01*
X38540367Y-43320687D01*
X38476601Y-43166742D01*
X38444093Y-43003315D01*
X38444093Y-42836685D01*
X38476601Y-42673258D01*
X38540367Y-42519313D01*
X38632941Y-42380766D01*
X38750766Y-42262941D01*
X38889313Y-42170367D01*
X39043258Y-42106601D01*
X39206685Y-42074093D01*
X39373315Y-42074093D01*
X39536742Y-42106601D01*
G37*
G36*
X11341408Y-40283626D02*
G01*
X11562519Y-40342872D01*
X11774005Y-40430473D01*
X11972248Y-40544928D01*
X12153855Y-40684280D01*
X12315720Y-40846145D01*
X12455072Y-41027752D01*
X12569527Y-41225995D01*
X12657128Y-41437481D01*
X12716374Y-41658592D01*
X12746253Y-41885545D01*
X12746253Y-42114455D01*
X12716374Y-42341408D01*
X12657128Y-42562519D01*
X12569527Y-42774005D01*
X12455072Y-42972248D01*
X12315720Y-43153855D01*
X12153855Y-43315720D01*
X11972248Y-43455072D01*
X11774005Y-43569527D01*
X11562519Y-43657128D01*
X11341408Y-43716374D01*
X11114455Y-43746253D01*
X10885545Y-43746253D01*
X10658592Y-43716374D01*
X10437481Y-43657128D01*
X10225995Y-43569527D01*
X10027752Y-43455072D01*
X9846145Y-43315720D01*
X9684280Y-43153855D01*
X9544928Y-42972248D01*
X9430473Y-42774005D01*
X9342872Y-42562519D01*
X9283626Y-42341408D01*
X9253747Y-42114455D01*
X9253747Y-41885545D01*
X9283626Y-41658592D01*
X9342872Y-41437481D01*
X9430473Y-41225995D01*
X9544928Y-41027752D01*
X9684280Y-40846145D01*
X9846145Y-40684280D01*
X10027752Y-40544928D01*
X10225995Y-40430473D01*
X10437481Y-40342872D01*
X10658592Y-40283626D01*
X10885545Y-40253747D01*
X11114455Y-40253747D01*
X11341408Y-40283626D01*
G37*
G36*
X27341408Y-40283626D02*
G01*
X27562519Y-40342872D01*
X27774005Y-40430473D01*
X27972248Y-40544928D01*
X28153855Y-40684280D01*
X28315720Y-40846145D01*
X28455072Y-41027752D01*
X28569527Y-41225995D01*
X28657128Y-41437481D01*
X28716374Y-41658592D01*
X28746253Y-41885545D01*
X28746253Y-42114455D01*
X28716374Y-42341408D01*
X28657128Y-42562519D01*
X28569527Y-42774005D01*
X28455072Y-42972248D01*
X28315720Y-43153855D01*
X28153855Y-43315720D01*
X27972248Y-43455072D01*
X27774005Y-43569527D01*
X27562519Y-43657128D01*
X27341408Y-43716374D01*
X27114455Y-43746253D01*
X26885545Y-43746253D01*
X26658592Y-43716374D01*
X26437481Y-43657128D01*
X26225995Y-43569527D01*
X26027752Y-43455072D01*
X25846145Y-43315720D01*
X25684280Y-43153855D01*
X25544928Y-42972248D01*
X25430473Y-42774005D01*
X25342872Y-42562519D01*
X25283626Y-42341408D01*
X25253747Y-42114455D01*
X25253747Y-41885545D01*
X25283626Y-41658592D01*
X25342872Y-41437481D01*
X25430473Y-41225995D01*
X25544928Y-41027752D01*
X25684280Y-40846145D01*
X25846145Y-40684280D01*
X26027752Y-40544928D01*
X26225995Y-40430473D01*
X26437481Y-40342872D01*
X26658592Y-40283626D01*
X26885545Y-40253747D01*
X27114455Y-40253747D01*
X27341408Y-40283626D01*
G37*
G36*
X36996742Y-39566601D02*
G01*
X37150687Y-39630367D01*
X37289234Y-39722941D01*
X37407059Y-39840766D01*
X37499633Y-39979313D01*
X37563399Y-40133258D01*
X37595907Y-40296685D01*
X37595907Y-40463315D01*
X37563399Y-40626742D01*
X37499633Y-40780687D01*
X37407059Y-40919234D01*
X37289234Y-41037059D01*
X37150687Y-41129633D01*
X36996742Y-41193399D01*
X36833315Y-41225907D01*
X36666685Y-41225907D01*
X36503258Y-41193399D01*
X36349313Y-41129633D01*
X36210766Y-41037059D01*
X36092941Y-40919234D01*
X36000367Y-40780687D01*
X35936601Y-40626742D01*
X35904093Y-40463315D01*
X35904093Y-40296685D01*
X35936601Y-40133258D01*
X36000367Y-39979313D01*
X36092941Y-39840766D01*
X36210766Y-39722941D01*
X36349313Y-39630367D01*
X36503258Y-39566601D01*
X36666685Y-39534093D01*
X36833315Y-39534093D01*
X36996742Y-39566601D01*
G37*
G36*
X39536742Y-39566601D02*
G01*
X39690687Y-39630367D01*
X39829234Y-39722941D01*
X39947059Y-39840766D01*
X40039633Y-39979313D01*
X40103399Y-40133258D01*
X40135907Y-40296685D01*
X40135907Y-40463315D01*
X40103399Y-40626742D01*
X40039633Y-40780687D01*
X39947059Y-40919234D01*
X39829234Y-41037059D01*
X39690687Y-41129633D01*
X39536742Y-41193399D01*
X39373315Y-41225907D01*
X39206685Y-41225907D01*
X39043258Y-41193399D01*
X38889313Y-41129633D01*
X38750766Y-41037059D01*
X38632941Y-40919234D01*
X38540367Y-40780687D01*
X38476601Y-40626742D01*
X38444093Y-40463315D01*
X38444093Y-40296685D01*
X38476601Y-40133258D01*
X38540367Y-39979313D01*
X38632941Y-39840766D01*
X38750766Y-39722941D01*
X38889313Y-39630367D01*
X39043258Y-39566601D01*
X39206685Y-39534093D01*
X39373315Y-39534093D01*
X39536742Y-39566601D01*
G37*
G36*
X6166742Y-37386601D02*
G01*
X6320687Y-37450367D01*
X6459234Y-37542941D01*
X6577059Y-37660766D01*
X6669633Y-37799313D01*
X6733399Y-37953258D01*
X6765907Y-38116685D01*
X6765907Y-38283315D01*
X6733399Y-38446742D01*
X6669633Y-38600687D01*
X6577059Y-38739234D01*
X6459234Y-38857059D01*
X6320687Y-38949633D01*
X6166742Y-39013399D01*
X6003315Y-39045907D01*
X5836685Y-39045907D01*
X5673258Y-39013399D01*
X5519313Y-38949633D01*
X5380766Y-38857059D01*
X5262941Y-38739234D01*
X5170367Y-38600687D01*
X5106601Y-38446742D01*
X5074093Y-38283315D01*
X5074093Y-38116685D01*
X5106601Y-37953258D01*
X5170367Y-37799313D01*
X5262941Y-37660766D01*
X5380766Y-37542941D01*
X5519313Y-37450367D01*
X5673258Y-37386601D01*
X5836685Y-37354093D01*
X6003315Y-37354093D01*
X6166742Y-37386601D01*
G37*
G36*
X16326742Y-37386601D02*
G01*
X16480687Y-37450367D01*
X16619234Y-37542941D01*
X16737059Y-37660766D01*
X16829633Y-37799313D01*
X16893399Y-37953258D01*
X16925907Y-38116685D01*
X16925907Y-38283315D01*
X16893399Y-38446742D01*
X16829633Y-38600687D01*
X16737059Y-38739234D01*
X16619234Y-38857059D01*
X16480687Y-38949633D01*
X16326742Y-39013399D01*
X16163315Y-39045907D01*
X15996685Y-39045907D01*
X15833258Y-39013399D01*
X15679313Y-38949633D01*
X15540766Y-38857059D01*
X15422941Y-38739234D01*
X15330367Y-38600687D01*
X15266601Y-38446742D01*
X15234093Y-38283315D01*
X15234093Y-38116685D01*
X15266601Y-37953258D01*
X15330367Y-37799313D01*
X15422941Y-37660766D01*
X15540766Y-37542941D01*
X15679313Y-37450367D01*
X15833258Y-37386601D01*
X15996685Y-37354093D01*
X16163315Y-37354093D01*
X16326742Y-37386601D01*
G37*
G36*
X22166742Y-37386601D02*
G01*
X22320687Y-37450367D01*
X22459234Y-37542941D01*
X22577059Y-37660766D01*
X22669633Y-37799313D01*
X22733399Y-37953258D01*
X22765907Y-38116685D01*
X22765907Y-38283315D01*
X22733399Y-38446742D01*
X22669633Y-38600687D01*
X22577059Y-38739234D01*
X22459234Y-38857059D01*
X22320687Y-38949633D01*
X22166742Y-39013399D01*
X22003315Y-39045907D01*
X21836685Y-39045907D01*
X21673258Y-39013399D01*
X21519313Y-38949633D01*
X21380766Y-38857059D01*
X21262941Y-38739234D01*
X21170367Y-38600687D01*
X21106601Y-38446742D01*
X21074093Y-38283315D01*
X21074093Y-38116685D01*
X21106601Y-37953258D01*
X21170367Y-37799313D01*
X21262941Y-37660766D01*
X21380766Y-37542941D01*
X21519313Y-37450367D01*
X21673258Y-37386601D01*
X21836685Y-37354093D01*
X22003315Y-37354093D01*
X22166742Y-37386601D01*
G37*
G36*
X32326742Y-37386601D02*
G01*
X32480687Y-37450367D01*
X32619234Y-37542941D01*
X32737059Y-37660766D01*
X32829633Y-37799313D01*
X32893399Y-37953258D01*
X32925907Y-38116685D01*
X32925907Y-38283315D01*
X32893399Y-38446742D01*
X32829633Y-38600687D01*
X32737059Y-38739234D01*
X32619234Y-38857059D01*
X32480687Y-38949633D01*
X32326742Y-39013399D01*
X32163315Y-39045907D01*
X31996685Y-39045907D01*
X31833258Y-39013399D01*
X31679313Y-38949633D01*
X31540766Y-38857059D01*
X31422941Y-38739234D01*
X31330367Y-38600687D01*
X31266601Y-38446742D01*
X31234093Y-38283315D01*
X31234093Y-38116685D01*
X31266601Y-37953258D01*
X31330367Y-37799313D01*
X31422941Y-37660766D01*
X31540766Y-37542941D01*
X31679313Y-37450367D01*
X31833258Y-37386601D01*
X31996685Y-37354093D01*
X32163315Y-37354093D01*
X32326742Y-37386601D01*
G37*
G36*
X14502228Y-30354448D02*
G01*
X14647117Y-30414463D01*
X14777515Y-30501592D01*
X14888408Y-30612485D01*
X14975537Y-30742883D01*
X15035552Y-30887772D01*
X15066148Y-31041586D01*
X15066148Y-31198414D01*
X15035552Y-31352228D01*
X14975537Y-31497117D01*
X14888408Y-31627515D01*
X14777515Y-31738408D01*
X14647117Y-31825537D01*
X14502228Y-31885552D01*
X14348414Y-31916148D01*
X14191586Y-31916148D01*
X14037772Y-31885552D01*
X13892883Y-31825537D01*
X13762485Y-31738408D01*
X13651592Y-31627515D01*
X13564463Y-31497117D01*
X13504448Y-31352228D01*
X13473852Y-31198414D01*
X13473852Y-31041586D01*
X13504448Y-30887772D01*
X13564463Y-30742883D01*
X13651592Y-30612485D01*
X13762485Y-30501592D01*
X13892883Y-30414463D01*
X14037772Y-30354448D01*
X14191586Y-30323852D01*
X14348414Y-30323852D01*
X14502228Y-30354448D01*
G37*
G36*
X17042228Y-30354448D02*
G01*
X17187117Y-30414463D01*
X17317515Y-30501592D01*
X17428408Y-30612485D01*
X17515537Y-30742883D01*
X17575552Y-30887772D01*
X17606148Y-31041586D01*
X17606148Y-31198414D01*
X17575552Y-31352228D01*
X17515537Y-31497117D01*
X17428408Y-31627515D01*
X17317515Y-31738408D01*
X17187117Y-31825537D01*
X17042228Y-31885552D01*
X16888414Y-31916148D01*
X16731586Y-31916148D01*
X16577772Y-31885552D01*
X16432883Y-31825537D01*
X16302485Y-31738408D01*
X16191592Y-31627515D01*
X16104463Y-31497117D01*
X16044448Y-31352228D01*
X16013852Y-31198414D01*
X16013852Y-31041586D01*
X16044448Y-30887772D01*
X16104463Y-30742883D01*
X16191592Y-30612485D01*
X16302485Y-30501592D01*
X16432883Y-30414463D01*
X16577772Y-30354448D01*
X16731586Y-30323852D01*
X16888414Y-30323852D01*
X17042228Y-30354448D01*
G37*
G36*
X19582228Y-30354448D02*
G01*
X19727117Y-30414463D01*
X19857515Y-30501592D01*
X19968408Y-30612485D01*
X20055537Y-30742883D01*
X20115552Y-30887772D01*
X20146148Y-31041586D01*
X20146148Y-31198414D01*
X20115552Y-31352228D01*
X20055537Y-31497117D01*
X19968408Y-31627515D01*
X19857515Y-31738408D01*
X19727117Y-31825537D01*
X19582228Y-31885552D01*
X19428414Y-31916148D01*
X19271586Y-31916148D01*
X19117772Y-31885552D01*
X18972883Y-31825537D01*
X18842485Y-31738408D01*
X18731592Y-31627515D01*
X18644463Y-31497117D01*
X18584448Y-31352228D01*
X18553852Y-31198414D01*
X18553852Y-31041586D01*
X18584448Y-30887772D01*
X18644463Y-30742883D01*
X18731592Y-30612485D01*
X18842485Y-30501592D01*
X18972883Y-30414463D01*
X19117772Y-30354448D01*
X19271586Y-30323852D01*
X19428414Y-30323852D01*
X19582228Y-30354448D01*
G37*
G36*
X22122228Y-30354448D02*
G01*
X22267117Y-30414463D01*
X22397515Y-30501592D01*
X22508408Y-30612485D01*
X22595537Y-30742883D01*
X22655552Y-30887772D01*
X22686148Y-31041586D01*
X22686148Y-31198414D01*
X22655552Y-31352228D01*
X22595537Y-31497117D01*
X22508408Y-31627515D01*
X22397515Y-31738408D01*
X22267117Y-31825537D01*
X22122228Y-31885552D01*
X21968414Y-31916148D01*
X21811586Y-31916148D01*
X21657772Y-31885552D01*
X21512883Y-31825537D01*
X21382485Y-31738408D01*
X21271592Y-31627515D01*
X21184463Y-31497117D01*
X21124448Y-31352228D01*
X21093852Y-31198414D01*
X21093852Y-31041586D01*
X21124448Y-30887772D01*
X21184463Y-30742883D01*
X21271592Y-30612485D01*
X21382485Y-30501592D01*
X21512883Y-30414463D01*
X21657772Y-30354448D01*
X21811586Y-30323852D01*
X21968414Y-30323852D01*
X22122228Y-30354448D01*
G37*
G36*
X24662228Y-30354448D02*
G01*
X24807117Y-30414463D01*
X24937515Y-30501592D01*
X25048408Y-30612485D01*
X25135537Y-30742883D01*
X25195552Y-30887772D01*
X25226148Y-31041586D01*
X25226148Y-31198414D01*
X25195552Y-31352228D01*
X25135537Y-31497117D01*
X25048408Y-31627515D01*
X24937515Y-31738408D01*
X24807117Y-31825537D01*
X24662228Y-31885552D01*
X24508414Y-31916148D01*
X24351586Y-31916148D01*
X24197772Y-31885552D01*
X24052883Y-31825537D01*
X23922485Y-31738408D01*
X23811592Y-31627515D01*
X23724463Y-31497117D01*
X23664448Y-31352228D01*
X23633852Y-31198414D01*
X23633852Y-31041586D01*
X23664448Y-30887772D01*
X23724463Y-30742883D01*
X23811592Y-30612485D01*
X23922485Y-30501592D01*
X24052883Y-30414463D01*
X24197772Y-30354448D01*
X24351586Y-30323852D01*
X24508414Y-30323852D01*
X24662228Y-30354448D01*
G37*
G36*
X27202228Y-30354448D02*
G01*
X27347117Y-30414463D01*
X27477515Y-30501592D01*
X27588408Y-30612485D01*
X27675537Y-30742883D01*
X27735552Y-30887772D01*
X27766148Y-31041586D01*
X27766148Y-31198414D01*
X27735552Y-31352228D01*
X27675537Y-31497117D01*
X27588408Y-31627515D01*
X27477515Y-31738408D01*
X27347117Y-31825537D01*
X27202228Y-31885552D01*
X27048414Y-31916148D01*
X26891586Y-31916148D01*
X26737772Y-31885552D01*
X26592883Y-31825537D01*
X26462485Y-31738408D01*
X26351592Y-31627515D01*
X26264463Y-31497117D01*
X26204448Y-31352228D01*
X26173852Y-31198414D01*
X26173852Y-31041586D01*
X26204448Y-30887772D01*
X26264463Y-30742883D01*
X26351592Y-30612485D01*
X26462485Y-30501592D01*
X26592883Y-30414463D01*
X26737772Y-30354448D01*
X26891586Y-30323852D01*
X27048414Y-30323852D01*
X27202228Y-30354448D01*
G37*
G36*
X29742228Y-30354448D02*
G01*
X29887117Y-30414463D01*
X30017515Y-30501592D01*
X30128408Y-30612485D01*
X30215537Y-30742883D01*
X30275552Y-30887772D01*
X30306148Y-31041586D01*
X30306148Y-31198414D01*
X30275552Y-31352228D01*
X30215537Y-31497117D01*
X30128408Y-31627515D01*
X30017515Y-31738408D01*
X29887117Y-31825537D01*
X29742228Y-31885552D01*
X29588414Y-31916148D01*
X29431586Y-31916148D01*
X29277772Y-31885552D01*
X29132883Y-31825537D01*
X29002485Y-31738408D01*
X28891592Y-31627515D01*
X28804463Y-31497117D01*
X28744448Y-31352228D01*
X28713852Y-31198414D01*
X28713852Y-31041586D01*
X28744448Y-30887772D01*
X28804463Y-30742883D01*
X28891592Y-30612485D01*
X29002485Y-30501592D01*
X29132883Y-30414463D01*
X29277772Y-30354448D01*
X29431586Y-30323852D01*
X29588414Y-30323852D01*
X29742228Y-30354448D01*
G37*
G36*
X32282228Y-30354448D02*
G01*
X32427117Y-30414463D01*
X32557515Y-30501592D01*
X32668408Y-30612485D01*
X32755537Y-30742883D01*
X32815552Y-30887772D01*
X32846148Y-31041586D01*
X32846148Y-31198414D01*
X32815552Y-31352228D01*
X32755537Y-31497117D01*
X32668408Y-31627515D01*
X32557515Y-31738408D01*
X32427117Y-31825537D01*
X32282228Y-31885552D01*
X32128414Y-31916148D01*
X31971586Y-31916148D01*
X31817772Y-31885552D01*
X31672883Y-31825537D01*
X31542485Y-31738408D01*
X31431592Y-31627515D01*
X31344463Y-31497117D01*
X31284448Y-31352228D01*
X31253852Y-31198414D01*
X31253852Y-31041586D01*
X31284448Y-30887772D01*
X31344463Y-30742883D01*
X31431592Y-30612485D01*
X31542485Y-30501592D01*
X31672883Y-30414463D01*
X31817772Y-30354448D01*
X31971586Y-30323852D01*
X32128414Y-30323852D01*
X32282228Y-30354448D01*
G37*
G36*
X47466031Y-57594D02*
G01*
X47636114Y-93746D01*
X47771041Y-122426D01*
X48044147Y-211163D01*
X48067608Y-218786D01*
X48352475Y-345618D01*
X48352480Y-345620D01*
X48352478Y-345620D01*
X48622523Y-501529D01*
X48706490Y-562535D01*
X48874798Y-684818D01*
X49106530Y-893470D01*
X49315182Y-1125202D01*
X49459111Y-1323303D01*
X49498470Y-1377476D01*
X49508417Y-1394705D01*
X49654382Y-1647525D01*
X49781214Y-1932392D01*
X49877573Y-2228957D01*
X49942406Y-2533969D01*
X49975000Y-2844087D01*
X49975000Y-2844090D01*
X49975000Y-3000000D01*
X49975000Y-26249996D01*
X49970936Y-26311996D01*
X49938843Y-26431771D01*
X49876843Y-26539158D01*
X49789162Y-26626839D01*
X49681775Y-26688839D01*
X49562000Y-26720932D01*
X49438000Y-26720932D01*
X49318225Y-26688839D01*
X49210838Y-26626839D01*
X49123157Y-26539158D01*
X49061157Y-26431771D01*
X49029064Y-26311996D01*
X49025000Y-26249996D01*
X49025000Y-3000000D01*
X49007676Y-2735684D01*
X48956001Y-2475898D01*
X48955997Y-2475884D01*
X48870856Y-2225066D01*
X48753701Y-1987500D01*
X48606544Y-1767263D01*
X48606536Y-1767253D01*
X48431891Y-1568109D01*
X48232746Y-1393463D01*
X48232736Y-1393455D01*
X48012500Y-1246299D01*
X47774934Y-1129144D01*
X47524115Y-1044002D01*
X47524101Y-1043998D01*
X47264316Y-992324D01*
X47000000Y-975000D01*
X40913375Y-975000D01*
X40876259Y-1023369D01*
X40901150Y-1116263D01*
X40905000Y-1175000D01*
X40905000Y-1825000D01*
X40901150Y-1883737D01*
X40870746Y-1997208D01*
X40812009Y-2098943D01*
X40728943Y-2182009D01*
X40627208Y-2240746D01*
X40513737Y-2271150D01*
X40468552Y-2271150D01*
X40467862Y-2271218D01*
X40455000Y-2273775D01*
X40455000Y-2275000D01*
X39255000Y-2275000D01*
X39255000Y-1011611D01*
X39218389Y-975000D01*
X38741610Y-975000D01*
X38705000Y-1011610D01*
X38705000Y-2275000D01*
X37205000Y-2275000D01*
X37205000Y-1011611D01*
X37168389Y-975000D01*
X36741610Y-975000D01*
X36705000Y-1011610D01*
X36705000Y-2275000D01*
X35205000Y-2275000D01*
X35205000Y-1011611D01*
X35168389Y-975000D01*
X34691610Y-975000D01*
X34655000Y-1011610D01*
X34655000Y-2275000D01*
X33455000Y-2275000D01*
X33455000Y-2273775D01*
X33442139Y-2271218D01*
X33441449Y-2271150D01*
X33396263Y-2271150D01*
X33282792Y-2240746D01*
X33181057Y-2182009D01*
X33097991Y-2098943D01*
X33039254Y-1997208D01*
X33008850Y-1883737D01*
X33005000Y-1825000D01*
X33005000Y-1175000D01*
X33008850Y-1116263D01*
X33033740Y-1023369D01*
X32996625Y-975000D01*
X20252042Y-975000D01*
X20250000Y-975000D01*
X20188000Y-970936D01*
X20068225Y-938843D01*
X19960838Y-876843D01*
X19873157Y-789162D01*
X19811157Y-681775D01*
X19779064Y-562000D01*
X19779064Y-438000D01*
X19811157Y-318225D01*
X19873157Y-210838D01*
X19960838Y-123157D01*
X20068225Y-61157D01*
X20188000Y-29064D01*
X20250000Y-25000D01*
X47000000Y-25000D01*
X47155910Y-25000D01*
X47155913Y-25000D01*
X47466031Y-57594D01*
G37*
G36*
X32608013Y-22701594D02*
G01*
X32663186Y-22708857D01*
X32677065Y-22715329D01*
X32695671Y-22719030D01*
X32720316Y-22735497D01*
X32742841Y-22746001D01*
X32756543Y-22759703D01*
X32776777Y-22773223D01*
X32790296Y-22793456D01*
X32803998Y-22807158D01*
X32814500Y-22829680D01*
X32830970Y-22854329D01*
X32834671Y-22872936D01*
X32841142Y-22886813D01*
X32848403Y-22941974D01*
X32850000Y-22950000D01*
X32850000Y-24050000D01*
X32848403Y-24058028D01*
X32841142Y-24113186D01*
X32834671Y-24127061D01*
X32830970Y-24145671D01*
X32814498Y-24170321D01*
X32803998Y-24192841D01*
X32790298Y-24206540D01*
X32776777Y-24226777D01*
X32756540Y-24240298D01*
X32742841Y-24253998D01*
X32720321Y-24264498D01*
X32695671Y-24280970D01*
X32677061Y-24284671D01*
X32663186Y-24291142D01*
X32608026Y-24298403D01*
X32600000Y-24300000D01*
X31500000Y-24300000D01*
X31491973Y-24298403D01*
X31436813Y-24291142D01*
X31422936Y-24284671D01*
X31404329Y-24280970D01*
X31379680Y-24264500D01*
X31357158Y-24253998D01*
X31343456Y-24240296D01*
X31323223Y-24226777D01*
X31309703Y-24206543D01*
X31296001Y-24192841D01*
X31285497Y-24170316D01*
X31269030Y-24145671D01*
X31265329Y-24127065D01*
X31258857Y-24113186D01*
X31251593Y-24058012D01*
X31250000Y-24050000D01*
X31250000Y-22950000D01*
X31251593Y-22941988D01*
X31258857Y-22886813D01*
X31265329Y-22872932D01*
X31269030Y-22854329D01*
X31285496Y-22829685D01*
X31296001Y-22807158D01*
X31309705Y-22793453D01*
X31323223Y-22773223D01*
X31343453Y-22759705D01*
X31357158Y-22746001D01*
X31379685Y-22735496D01*
X31404329Y-22719030D01*
X31422932Y-22715329D01*
X31436813Y-22708857D01*
X31491989Y-22701593D01*
X31500000Y-22700000D01*
X32600000Y-22700000D01*
X32608013Y-22701594D01*
G37*
G36*
X14502228Y-22734448D02*
G01*
X14647117Y-22794463D01*
X14777515Y-22881592D01*
X14888408Y-22992485D01*
X14975537Y-23122883D01*
X15035552Y-23267772D01*
X15066148Y-23421586D01*
X15066148Y-23578414D01*
X15035552Y-23732228D01*
X14975537Y-23877117D01*
X14888408Y-24007515D01*
X14777515Y-24118408D01*
X14647117Y-24205537D01*
X14502228Y-24265552D01*
X14348414Y-24296148D01*
X14191586Y-24296148D01*
X14037772Y-24265552D01*
X13892883Y-24205537D01*
X13762485Y-24118408D01*
X13651592Y-24007515D01*
X13564463Y-23877117D01*
X13504448Y-23732228D01*
X13473852Y-23578414D01*
X13473852Y-23421586D01*
X13504448Y-23267772D01*
X13564463Y-23122883D01*
X13651592Y-22992485D01*
X13762485Y-22881592D01*
X13892883Y-22794463D01*
X14037772Y-22734448D01*
X14191586Y-22703852D01*
X14348414Y-22703852D01*
X14502228Y-22734448D01*
G37*
G36*
X17042228Y-22734448D02*
G01*
X17187117Y-22794463D01*
X17317515Y-22881592D01*
X17428408Y-22992485D01*
X17515537Y-23122883D01*
X17575552Y-23267772D01*
X17606148Y-23421586D01*
X17606148Y-23578414D01*
X17575552Y-23732228D01*
X17515537Y-23877117D01*
X17428408Y-24007515D01*
X17317515Y-24118408D01*
X17187117Y-24205537D01*
X17042228Y-24265552D01*
X16888414Y-24296148D01*
X16731586Y-24296148D01*
X16577772Y-24265552D01*
X16432883Y-24205537D01*
X16302485Y-24118408D01*
X16191592Y-24007515D01*
X16104463Y-23877117D01*
X16044448Y-23732228D01*
X16013852Y-23578414D01*
X16013852Y-23421586D01*
X16044448Y-23267772D01*
X16104463Y-23122883D01*
X16191592Y-22992485D01*
X16302485Y-22881592D01*
X16432883Y-22794463D01*
X16577772Y-22734448D01*
X16731586Y-22703852D01*
X16888414Y-22703852D01*
X17042228Y-22734448D01*
G37*
G36*
X19582228Y-22734448D02*
G01*
X19727117Y-22794463D01*
X19857515Y-22881592D01*
X19968408Y-22992485D01*
X20055537Y-23122883D01*
X20115552Y-23267772D01*
X20146148Y-23421586D01*
X20146148Y-23578414D01*
X20115552Y-23732228D01*
X20055537Y-23877117D01*
X19968408Y-24007515D01*
X19857515Y-24118408D01*
X19727117Y-24205537D01*
X19582228Y-24265552D01*
X19428414Y-24296148D01*
X19271586Y-24296148D01*
X19117772Y-24265552D01*
X18972883Y-24205537D01*
X18842485Y-24118408D01*
X18731592Y-24007515D01*
X18644463Y-23877117D01*
X18584448Y-23732228D01*
X18553852Y-23578414D01*
X18553852Y-23421586D01*
X18584448Y-23267772D01*
X18644463Y-23122883D01*
X18731592Y-22992485D01*
X18842485Y-22881592D01*
X18972883Y-22794463D01*
X19117772Y-22734448D01*
X19271586Y-22703852D01*
X19428414Y-22703852D01*
X19582228Y-22734448D01*
G37*
G36*
X22122228Y-22734448D02*
G01*
X22267117Y-22794463D01*
X22397515Y-22881592D01*
X22508408Y-22992485D01*
X22595537Y-23122883D01*
X22655552Y-23267772D01*
X22686148Y-23421586D01*
X22686148Y-23578414D01*
X22655552Y-23732228D01*
X22595537Y-23877117D01*
X22508408Y-24007515D01*
X22397515Y-24118408D01*
X22267117Y-24205537D01*
X22122228Y-24265552D01*
X21968414Y-24296148D01*
X21811586Y-24296148D01*
X21657772Y-24265552D01*
X21512883Y-24205537D01*
X21382485Y-24118408D01*
X21271592Y-24007515D01*
X21184463Y-23877117D01*
X21124448Y-23732228D01*
X21093852Y-23578414D01*
X21093852Y-23421586D01*
X21124448Y-23267772D01*
X21184463Y-23122883D01*
X21271592Y-22992485D01*
X21382485Y-22881592D01*
X21512883Y-22794463D01*
X21657772Y-22734448D01*
X21811586Y-22703852D01*
X21968414Y-22703852D01*
X22122228Y-22734448D01*
G37*
G36*
X24662228Y-22734448D02*
G01*
X24807117Y-22794463D01*
X24937515Y-22881592D01*
X25048408Y-22992485D01*
X25135537Y-23122883D01*
X25195552Y-23267772D01*
X25226148Y-23421586D01*
X25226148Y-23578414D01*
X25195552Y-23732228D01*
X25135537Y-23877117D01*
X25048408Y-24007515D01*
X24937515Y-24118408D01*
X24807117Y-24205537D01*
X24662228Y-24265552D01*
X24508414Y-24296148D01*
X24351586Y-24296148D01*
X24197772Y-24265552D01*
X24052883Y-24205537D01*
X23922485Y-24118408D01*
X23811592Y-24007515D01*
X23724463Y-23877117D01*
X23664448Y-23732228D01*
X23633852Y-23578414D01*
X23633852Y-23421586D01*
X23664448Y-23267772D01*
X23724463Y-23122883D01*
X23811592Y-22992485D01*
X23922485Y-22881592D01*
X24052883Y-22794463D01*
X24197772Y-22734448D01*
X24351586Y-22703852D01*
X24508414Y-22703852D01*
X24662228Y-22734448D01*
G37*
G36*
X27202228Y-22734448D02*
G01*
X27347117Y-22794463D01*
X27477515Y-22881592D01*
X27588408Y-22992485D01*
X27675537Y-23122883D01*
X27735552Y-23267772D01*
X27766148Y-23421586D01*
X27766148Y-23578414D01*
X27735552Y-23732228D01*
X27675537Y-23877117D01*
X27588408Y-24007515D01*
X27477515Y-24118408D01*
X27347117Y-24205537D01*
X27202228Y-24265552D01*
X27048414Y-24296148D01*
X26891586Y-24296148D01*
X26737772Y-24265552D01*
X26592883Y-24205537D01*
X26462485Y-24118408D01*
X26351592Y-24007515D01*
X26264463Y-23877117D01*
X26204448Y-23732228D01*
X26173852Y-23578414D01*
X26173852Y-23421586D01*
X26204448Y-23267772D01*
X26264463Y-23122883D01*
X26351592Y-22992485D01*
X26462485Y-22881592D01*
X26592883Y-22794463D01*
X26737772Y-22734448D01*
X26891586Y-22703852D01*
X27048414Y-22703852D01*
X27202228Y-22734448D01*
G37*
G36*
X29742228Y-22734448D02*
G01*
X29887117Y-22794463D01*
X30017515Y-22881592D01*
X30128408Y-22992485D01*
X30215537Y-23122883D01*
X30275552Y-23267772D01*
X30306148Y-23421586D01*
X30306148Y-23578414D01*
X30275552Y-23732228D01*
X30215537Y-23877117D01*
X30128408Y-24007515D01*
X30017515Y-24118408D01*
X29887117Y-24205537D01*
X29742228Y-24265552D01*
X29588414Y-24296148D01*
X29431586Y-24296148D01*
X29277772Y-24265552D01*
X29132883Y-24205537D01*
X29002485Y-24118408D01*
X28891592Y-24007515D01*
X28804463Y-23877117D01*
X28744448Y-23732228D01*
X28713852Y-23578414D01*
X28713852Y-23421586D01*
X28744448Y-23267772D01*
X28804463Y-23122883D01*
X28891592Y-22992485D01*
X29002485Y-22881592D01*
X29132883Y-22794463D01*
X29277772Y-22734448D01*
X29431586Y-22703852D01*
X29588414Y-22703852D01*
X29742228Y-22734448D01*
G37*
G36*
X10956742Y-15016601D02*
G01*
X11110687Y-15080367D01*
X11249234Y-15172941D01*
X11367059Y-15290766D01*
X11459633Y-15429313D01*
X11523399Y-15583258D01*
X11555907Y-15746685D01*
X11555907Y-15913315D01*
X11523399Y-16076742D01*
X11459633Y-16230687D01*
X11367059Y-16369234D01*
X11249234Y-16487059D01*
X11110687Y-16579633D01*
X10956742Y-16643399D01*
X10793315Y-16675907D01*
X10626685Y-16675907D01*
X10463258Y-16643399D01*
X10309313Y-16579633D01*
X10170766Y-16487059D01*
X10052941Y-16369234D01*
X9960367Y-16230687D01*
X9896601Y-16076742D01*
X9864093Y-15913315D01*
X9864093Y-15746685D01*
X9896601Y-15583258D01*
X9960367Y-15429313D01*
X10052941Y-15290766D01*
X10170766Y-15172941D01*
X10309313Y-15080367D01*
X10463258Y-15016601D01*
X10626685Y-14984093D01*
X10793315Y-14984093D01*
X10956742Y-15016601D01*
G37*
G36*
X13496742Y-15016601D02*
G01*
X13650687Y-15080367D01*
X13789234Y-15172941D01*
X13907059Y-15290766D01*
X13999633Y-15429313D01*
X14063399Y-15583258D01*
X14095907Y-15746685D01*
X14095907Y-15913315D01*
X14063399Y-16076742D01*
X13999633Y-16230687D01*
X13907059Y-16369234D01*
X13789234Y-16487059D01*
X13650687Y-16579633D01*
X13496742Y-16643399D01*
X13333315Y-16675907D01*
X13166685Y-16675907D01*
X13003258Y-16643399D01*
X12849313Y-16579633D01*
X12710766Y-16487059D01*
X12592941Y-16369234D01*
X12500367Y-16230687D01*
X12436601Y-16076742D01*
X12404093Y-15913315D01*
X12404093Y-15746685D01*
X12436601Y-15583258D01*
X12500367Y-15429313D01*
X12592941Y-15290766D01*
X12710766Y-15172941D01*
X12849313Y-15080367D01*
X13003258Y-15016601D01*
X13166685Y-14984093D01*
X13333315Y-14984093D01*
X13496742Y-15016601D01*
G37*
G36*
X35180063Y-13276007D02*
G01*
X35227089Y-13281463D01*
X35243156Y-13288557D01*
X35265887Y-13293079D01*
X35290222Y-13309339D01*
X35308610Y-13317458D01*
X35321167Y-13330015D01*
X35342938Y-13344562D01*
X35357484Y-13366332D01*
X35370041Y-13378889D01*
X35378159Y-13397275D01*
X35394421Y-13421613D01*
X35398942Y-13444345D01*
X35406036Y-13460410D01*
X35411490Y-13507425D01*
X35412500Y-13512500D01*
X35412500Y-13987500D01*
X35411490Y-13992575D01*
X35406036Y-14039589D01*
X35398943Y-14055652D01*
X35394421Y-14078387D01*
X35378158Y-14102726D01*
X35370041Y-14121110D01*
X35357486Y-14133664D01*
X35342938Y-14155438D01*
X35321164Y-14169986D01*
X35308610Y-14182541D01*
X35290226Y-14190658D01*
X35265887Y-14206921D01*
X35243152Y-14211443D01*
X35227089Y-14218536D01*
X35180075Y-14223990D01*
X35175000Y-14225000D01*
X34675000Y-14225000D01*
X34669925Y-14223990D01*
X34622910Y-14218536D01*
X34606845Y-14211442D01*
X34584113Y-14206921D01*
X34559775Y-14190659D01*
X34541389Y-14182541D01*
X34528832Y-14169984D01*
X34507062Y-14155438D01*
X34492515Y-14133667D01*
X34479958Y-14121110D01*
X34471839Y-14102722D01*
X34455579Y-14078387D01*
X34451057Y-14055656D01*
X34443963Y-14039589D01*
X34438507Y-13992563D01*
X34437500Y-13987500D01*
X34437500Y-13512500D01*
X34438506Y-13507438D01*
X34443963Y-13460410D01*
X34451057Y-13444341D01*
X34455579Y-13421613D01*
X34471837Y-13397279D01*
X34479958Y-13378889D01*
X34492517Y-13366329D01*
X34507062Y-13344562D01*
X34528829Y-13330017D01*
X34541389Y-13317458D01*
X34559779Y-13309337D01*
X34584113Y-13293079D01*
X34606841Y-13288557D01*
X34622910Y-13281463D01*
X34669938Y-13276006D01*
X34675000Y-13275000D01*
X35175000Y-13275000D01*
X35180063Y-13276007D01*
G37*
G36*
X37005063Y-13276007D02*
G01*
X37052089Y-13281463D01*
X37068156Y-13288557D01*
X37090887Y-13293079D01*
X37115222Y-13309339D01*
X37133610Y-13317458D01*
X37146167Y-13330015D01*
X37167938Y-13344562D01*
X37182484Y-13366332D01*
X37195041Y-13378889D01*
X37203159Y-13397275D01*
X37219421Y-13421613D01*
X37223942Y-13444345D01*
X37231036Y-13460410D01*
X37236490Y-13507425D01*
X37237500Y-13512500D01*
X37237500Y-13987500D01*
X37236490Y-13992575D01*
X37231036Y-14039589D01*
X37223943Y-14055652D01*
X37219421Y-14078387D01*
X37203158Y-14102726D01*
X37195041Y-14121110D01*
X37182486Y-14133664D01*
X37167938Y-14155438D01*
X37146164Y-14169986D01*
X37133610Y-14182541D01*
X37115226Y-14190658D01*
X37090887Y-14206921D01*
X37068152Y-14211443D01*
X37052089Y-14218536D01*
X37005075Y-14223990D01*
X37000000Y-14225000D01*
X36500000Y-14225000D01*
X36494925Y-14223990D01*
X36447910Y-14218536D01*
X36431845Y-14211442D01*
X36409113Y-14206921D01*
X36384775Y-14190659D01*
X36366389Y-14182541D01*
X36353832Y-14169984D01*
X36332062Y-14155438D01*
X36317515Y-14133667D01*
X36304958Y-14121110D01*
X36296839Y-14102722D01*
X36280579Y-14078387D01*
X36276057Y-14055656D01*
X36268963Y-14039589D01*
X36263507Y-13992563D01*
X36262500Y-13987500D01*
X36262500Y-13512500D01*
X36263506Y-13507438D01*
X36268963Y-13460410D01*
X36276057Y-13444341D01*
X36280579Y-13421613D01*
X36296837Y-13397279D01*
X36304958Y-13378889D01*
X36317517Y-13366329D01*
X36332062Y-13344562D01*
X36353829Y-13330017D01*
X36366389Y-13317458D01*
X36384779Y-13309337D01*
X36409113Y-13293079D01*
X36431841Y-13288557D01*
X36447910Y-13281463D01*
X36494938Y-13276006D01*
X36500000Y-13275000D01*
X37000000Y-13275000D01*
X37005063Y-13276007D01*
G37*
G36*
X38917563Y-13276007D02*
G01*
X38964589Y-13281463D01*
X38980656Y-13288557D01*
X39003387Y-13293079D01*
X39027722Y-13309339D01*
X39046110Y-13317458D01*
X39058667Y-13330015D01*
X39080438Y-13344562D01*
X39094984Y-13366332D01*
X39107541Y-13378889D01*
X39115659Y-13397275D01*
X39131921Y-13421613D01*
X39136442Y-13444345D01*
X39143536Y-13460410D01*
X39148990Y-13507425D01*
X39150000Y-13512500D01*
X39150000Y-13987500D01*
X39148990Y-13992575D01*
X39143536Y-14039589D01*
X39136443Y-14055652D01*
X39131921Y-14078387D01*
X39115658Y-14102726D01*
X39107541Y-14121110D01*
X39094986Y-14133664D01*
X39080438Y-14155438D01*
X39058664Y-14169986D01*
X39046110Y-14182541D01*
X39027726Y-14190658D01*
X39003387Y-14206921D01*
X38980652Y-14211443D01*
X38964589Y-14218536D01*
X38917575Y-14223990D01*
X38912500Y-14225000D01*
X38337500Y-14225000D01*
X38332425Y-14223990D01*
X38285410Y-14218536D01*
X38269345Y-14211442D01*
X38246613Y-14206921D01*
X38222275Y-14190659D01*
X38203889Y-14182541D01*
X38191332Y-14169984D01*
X38169562Y-14155438D01*
X38155015Y-14133667D01*
X38142458Y-14121110D01*
X38134339Y-14102722D01*
X38118079Y-14078387D01*
X38113557Y-14055656D01*
X38106463Y-14039589D01*
X38101007Y-13992563D01*
X38100000Y-13987500D01*
X38100000Y-13512500D01*
X38101006Y-13507438D01*
X38106463Y-13460410D01*
X38113557Y-13444341D01*
X38118079Y-13421613D01*
X38134337Y-13397279D01*
X38142458Y-13378889D01*
X38155017Y-13366329D01*
X38169562Y-13344562D01*
X38191329Y-13330017D01*
X38203889Y-13317458D01*
X38222279Y-13309337D01*
X38246613Y-13293079D01*
X38269341Y-13288557D01*
X38285410Y-13281463D01*
X38332438Y-13276006D01*
X38337500Y-13275000D01*
X38912500Y-13275000D01*
X38917563Y-13276007D01*
G37*
G36*
X40667563Y-13276007D02*
G01*
X40714589Y-13281463D01*
X40730656Y-13288557D01*
X40753387Y-13293079D01*
X40777722Y-13309339D01*
X40796110Y-13317458D01*
X40808667Y-13330015D01*
X40830438Y-13344562D01*
X40844984Y-13366332D01*
X40857541Y-13378889D01*
X40865659Y-13397275D01*
X40881921Y-13421613D01*
X40886442Y-13444345D01*
X40893536Y-13460410D01*
X40898990Y-13507425D01*
X40900000Y-13512500D01*
X40900000Y-13987500D01*
X40898990Y-13992575D01*
X40893536Y-14039589D01*
X40886443Y-14055652D01*
X40881921Y-14078387D01*
X40865658Y-14102726D01*
X40857541Y-14121110D01*
X40844986Y-14133664D01*
X40830438Y-14155438D01*
X40808664Y-14169986D01*
X40796110Y-14182541D01*
X40777726Y-14190658D01*
X40753387Y-14206921D01*
X40730652Y-14211443D01*
X40714589Y-14218536D01*
X40667575Y-14223990D01*
X40662500Y-14225000D01*
X40087500Y-14225000D01*
X40082425Y-14223990D01*
X40035410Y-14218536D01*
X40019345Y-14211442D01*
X39996613Y-14206921D01*
X39972275Y-14190659D01*
X39953889Y-14182541D01*
X39941332Y-14169984D01*
X39919562Y-14155438D01*
X39905015Y-14133667D01*
X39892458Y-14121110D01*
X39884339Y-14102722D01*
X39868079Y-14078387D01*
X39863557Y-14055656D01*
X39856463Y-14039589D01*
X39851007Y-13992563D01*
X39850000Y-13987500D01*
X39850000Y-13512500D01*
X39851006Y-13507438D01*
X39856463Y-13460410D01*
X39863557Y-13444341D01*
X39868079Y-13421613D01*
X39884337Y-13397279D01*
X39892458Y-13378889D01*
X39905017Y-13366329D01*
X39919562Y-13344562D01*
X39941329Y-13330017D01*
X39953889Y-13317458D01*
X39972279Y-13309337D01*
X39996613Y-13293079D01*
X40019341Y-13288557D01*
X40035410Y-13281463D01*
X40082438Y-13276006D01*
X40087500Y-13275000D01*
X40662500Y-13275000D01*
X40667563Y-13276007D01*
G37*
G36*
X10956742Y-12476601D02*
G01*
X11110687Y-12540367D01*
X11249234Y-12632941D01*
X11367059Y-12750766D01*
X11459633Y-12889313D01*
X11523399Y-13043258D01*
X11555907Y-13206685D01*
X11555907Y-13373315D01*
X11523399Y-13536742D01*
X11459633Y-13690687D01*
X11367059Y-13829234D01*
X11249234Y-13947059D01*
X11110687Y-14039633D01*
X10956742Y-14103399D01*
X10793315Y-14135907D01*
X10626685Y-14135907D01*
X10463258Y-14103399D01*
X10309313Y-14039633D01*
X10170766Y-13947059D01*
X10052941Y-13829234D01*
X9960367Y-13690687D01*
X9896601Y-13536742D01*
X9864093Y-13373315D01*
X9864093Y-13206685D01*
X9896601Y-13043258D01*
X9960367Y-12889313D01*
X10052941Y-12750766D01*
X10170766Y-12632941D01*
X10309313Y-12540367D01*
X10463258Y-12476601D01*
X10626685Y-12444093D01*
X10793315Y-12444093D01*
X10956742Y-12476601D01*
G37*
G36*
X13496742Y-12476601D02*
G01*
X13650687Y-12540367D01*
X13789234Y-12632941D01*
X13907059Y-12750766D01*
X13999633Y-12889313D01*
X14063399Y-13043258D01*
X14095907Y-13206685D01*
X14095907Y-13373315D01*
X14063399Y-13536742D01*
X13999633Y-13690687D01*
X13907059Y-13829234D01*
X13789234Y-13947059D01*
X13650687Y-14039633D01*
X13496742Y-14103399D01*
X13333315Y-14135907D01*
X13166685Y-14135907D01*
X13003258Y-14103399D01*
X12849313Y-14039633D01*
X12710766Y-13947059D01*
X12592941Y-13829234D01*
X12500367Y-13690687D01*
X12436601Y-13536742D01*
X12404093Y-13373315D01*
X12404093Y-13206685D01*
X12436601Y-13043258D01*
X12500367Y-12889313D01*
X12592941Y-12750766D01*
X12710766Y-12632941D01*
X12849313Y-12540367D01*
X13003258Y-12476601D01*
X13166685Y-12444093D01*
X13333315Y-12444093D01*
X13496742Y-12476601D01*
G37*
G36*
X10956742Y-9936601D02*
G01*
X11110687Y-10000367D01*
X11249234Y-10092941D01*
X11367059Y-10210766D01*
X11459633Y-10349313D01*
X11523399Y-10503258D01*
X11555907Y-10666685D01*
X11555907Y-10833315D01*
X11523399Y-10996742D01*
X11459633Y-11150687D01*
X11367059Y-11289234D01*
X11249234Y-11407059D01*
X11110687Y-11499633D01*
X10956742Y-11563399D01*
X10793315Y-11595907D01*
X10626685Y-11595907D01*
X10463258Y-11563399D01*
X10309313Y-11499633D01*
X10170766Y-11407059D01*
X10052941Y-11289234D01*
X9960367Y-11150687D01*
X9896601Y-10996742D01*
X9864093Y-10833315D01*
X9864093Y-10666685D01*
X9896601Y-10503258D01*
X9960367Y-10349313D01*
X10052941Y-10210766D01*
X10170766Y-10092941D01*
X10309313Y-10000367D01*
X10463258Y-9936601D01*
X10626685Y-9904093D01*
X10793315Y-9904093D01*
X10956742Y-9936601D01*
G37*
G36*
X13496742Y-9936601D02*
G01*
X13650687Y-10000367D01*
X13789234Y-10092941D01*
X13907059Y-10210766D01*
X13999633Y-10349313D01*
X14063399Y-10503258D01*
X14095907Y-10666685D01*
X14095907Y-10833315D01*
X14063399Y-10996742D01*
X13999633Y-11150687D01*
X13907059Y-11289234D01*
X13789234Y-11407059D01*
X13650687Y-11499633D01*
X13496742Y-11563399D01*
X13333315Y-11595907D01*
X13166685Y-11595907D01*
X13003258Y-11563399D01*
X12849313Y-11499633D01*
X12710766Y-11407059D01*
X12592941Y-11289234D01*
X12500367Y-11150687D01*
X12436601Y-10996742D01*
X12404093Y-10833315D01*
X12404093Y-10666685D01*
X12436601Y-10503258D01*
X12500367Y-10349313D01*
X12592941Y-10210766D01*
X12710766Y-10092941D01*
X12849313Y-10000367D01*
X13003258Y-9936601D01*
X13166685Y-9904093D01*
X13333315Y-9904093D01*
X13496742Y-9936601D01*
G37*
G36*
X23660000Y-11500000D02*
G01*
X22660000Y-11500000D01*
X22660000Y-10250000D01*
X23660000Y-10250000D01*
X23660000Y-11500000D01*
G37*
G36*
X35092563Y-10276007D02*
G01*
X35139589Y-10281463D01*
X35155656Y-10288557D01*
X35178387Y-10293079D01*
X35202722Y-10309339D01*
X35221110Y-10317458D01*
X35233667Y-10330015D01*
X35255438Y-10344562D01*
X35269984Y-10366332D01*
X35282541Y-10378889D01*
X35290659Y-10397275D01*
X35306921Y-10421613D01*
X35311442Y-10444345D01*
X35318536Y-10460410D01*
X35323990Y-10507425D01*
X35325000Y-10512500D01*
X35325000Y-10987500D01*
X35323990Y-10992575D01*
X35318536Y-11039589D01*
X35311443Y-11055652D01*
X35306921Y-11078387D01*
X35290658Y-11102726D01*
X35282541Y-11121110D01*
X35269986Y-11133664D01*
X35255438Y-11155438D01*
X35233664Y-11169986D01*
X35221110Y-11182541D01*
X35202726Y-11190658D01*
X35178387Y-11206921D01*
X35155652Y-11211443D01*
X35139589Y-11218536D01*
X35092575Y-11223990D01*
X35087500Y-11225000D01*
X34587500Y-11225000D01*
X34582425Y-11223990D01*
X34535410Y-11218536D01*
X34519345Y-11211442D01*
X34496613Y-11206921D01*
X34472275Y-11190659D01*
X34453889Y-11182541D01*
X34441332Y-11169984D01*
X34419562Y-11155438D01*
X34405015Y-11133667D01*
X34392458Y-11121110D01*
X34384339Y-11102722D01*
X34368079Y-11078387D01*
X34363557Y-11055656D01*
X34356463Y-11039589D01*
X34351007Y-10992563D01*
X34350000Y-10987500D01*
X34350000Y-10512500D01*
X34351006Y-10507438D01*
X34356463Y-10460410D01*
X34363557Y-10444341D01*
X34368079Y-10421613D01*
X34384337Y-10397279D01*
X34392458Y-10378889D01*
X34405017Y-10366329D01*
X34419562Y-10344562D01*
X34441329Y-10330017D01*
X34453889Y-10317458D01*
X34472279Y-10309337D01*
X34496613Y-10293079D01*
X34519341Y-10288557D01*
X34535410Y-10281463D01*
X34582438Y-10276006D01*
X34587500Y-10275000D01*
X35087500Y-10275000D01*
X35092563Y-10276007D01*
G37*
G36*
X36917563Y-10276007D02*
G01*
X36964589Y-10281463D01*
X36980656Y-10288557D01*
X37003387Y-10293079D01*
X37027722Y-10309339D01*
X37046110Y-10317458D01*
X37058667Y-10330015D01*
X37080438Y-10344562D01*
X37094984Y-10366332D01*
X37107541Y-10378889D01*
X37115659Y-10397275D01*
X37131921Y-10421613D01*
X37136442Y-10444345D01*
X37143536Y-10460410D01*
X37148990Y-10507425D01*
X37150000Y-10512500D01*
X37150000Y-10987500D01*
X37148990Y-10992575D01*
X37143536Y-11039589D01*
X37136443Y-11055652D01*
X37131921Y-11078387D01*
X37115658Y-11102726D01*
X37107541Y-11121110D01*
X37094986Y-11133664D01*
X37080438Y-11155438D01*
X37058664Y-11169986D01*
X37046110Y-11182541D01*
X37027726Y-11190658D01*
X37003387Y-11206921D01*
X36980652Y-11211443D01*
X36964589Y-11218536D01*
X36917575Y-11223990D01*
X36912500Y-11225000D01*
X36412500Y-11225000D01*
X36407425Y-11223990D01*
X36360410Y-11218536D01*
X36344345Y-11211442D01*
X36321613Y-11206921D01*
X36297275Y-11190659D01*
X36278889Y-11182541D01*
X36266332Y-11169984D01*
X36244562Y-11155438D01*
X36230015Y-11133667D01*
X36217458Y-11121110D01*
X36209339Y-11102722D01*
X36193079Y-11078387D01*
X36188557Y-11055656D01*
X36181463Y-11039589D01*
X36176007Y-10992563D01*
X36175000Y-10987500D01*
X36175000Y-10512500D01*
X36176006Y-10507438D01*
X36181463Y-10460410D01*
X36188557Y-10444341D01*
X36193079Y-10421613D01*
X36209337Y-10397279D01*
X36217458Y-10378889D01*
X36230017Y-10366329D01*
X36244562Y-10344562D01*
X36266329Y-10330017D01*
X36278889Y-10317458D01*
X36297279Y-10309337D01*
X36321613Y-10293079D01*
X36344341Y-10288557D01*
X36360410Y-10281463D01*
X36407438Y-10276006D01*
X36412500Y-10275000D01*
X36912500Y-10275000D01*
X36917563Y-10276007D01*
G37*
G36*
X38917563Y-10276007D02*
G01*
X38964589Y-10281463D01*
X38980656Y-10288557D01*
X39003387Y-10293079D01*
X39027722Y-10309339D01*
X39046110Y-10317458D01*
X39058667Y-10330015D01*
X39080438Y-10344562D01*
X39094984Y-10366332D01*
X39107541Y-10378889D01*
X39115659Y-10397275D01*
X39131921Y-10421613D01*
X39136442Y-10444345D01*
X39143536Y-10460410D01*
X39148990Y-10507425D01*
X39150000Y-10512500D01*
X39150000Y-10987500D01*
X39148990Y-10992575D01*
X39143536Y-11039589D01*
X39136443Y-11055652D01*
X39131921Y-11078387D01*
X39115658Y-11102726D01*
X39107541Y-11121110D01*
X39094986Y-11133664D01*
X39080438Y-11155438D01*
X39058664Y-11169986D01*
X39046110Y-11182541D01*
X39027726Y-11190658D01*
X39003387Y-11206921D01*
X38980652Y-11211443D01*
X38964589Y-11218536D01*
X38917575Y-11223990D01*
X38912500Y-11225000D01*
X38337500Y-11225000D01*
X38332425Y-11223990D01*
X38285410Y-11218536D01*
X38269345Y-11211442D01*
X38246613Y-11206921D01*
X38222275Y-11190659D01*
X38203889Y-11182541D01*
X38191332Y-11169984D01*
X38169562Y-11155438D01*
X38155015Y-11133667D01*
X38142458Y-11121110D01*
X38134339Y-11102722D01*
X38118079Y-11078387D01*
X38113557Y-11055656D01*
X38106463Y-11039589D01*
X38101007Y-10992563D01*
X38100000Y-10987500D01*
X38100000Y-10512500D01*
X38101006Y-10507438D01*
X38106463Y-10460410D01*
X38113557Y-10444341D01*
X38118079Y-10421613D01*
X38134337Y-10397279D01*
X38142458Y-10378889D01*
X38155017Y-10366329D01*
X38169562Y-10344562D01*
X38191329Y-10330017D01*
X38203889Y-10317458D01*
X38222279Y-10309337D01*
X38246613Y-10293079D01*
X38269341Y-10288557D01*
X38285410Y-10281463D01*
X38332438Y-10276006D01*
X38337500Y-10275000D01*
X38912500Y-10275000D01*
X38917563Y-10276007D01*
G37*
G36*
X40667563Y-10276007D02*
G01*
X40714589Y-10281463D01*
X40730656Y-10288557D01*
X40753387Y-10293079D01*
X40777722Y-10309339D01*
X40796110Y-10317458D01*
X40808667Y-10330015D01*
X40830438Y-10344562D01*
X40844984Y-10366332D01*
X40857541Y-10378889D01*
X40865659Y-10397275D01*
X40881921Y-10421613D01*
X40886442Y-10444345D01*
X40893536Y-10460410D01*
X40898990Y-10507425D01*
X40900000Y-10512500D01*
X40900000Y-10987500D01*
X40898990Y-10992575D01*
X40893536Y-11039589D01*
X40886443Y-11055652D01*
X40881921Y-11078387D01*
X40865658Y-11102726D01*
X40857541Y-11121110D01*
X40844986Y-11133664D01*
X40830438Y-11155438D01*
X40808664Y-11169986D01*
X40796110Y-11182541D01*
X40777726Y-11190658D01*
X40753387Y-11206921D01*
X40730652Y-11211443D01*
X40714589Y-11218536D01*
X40667575Y-11223990D01*
X40662500Y-11225000D01*
X40087500Y-11225000D01*
X40082425Y-11223990D01*
X40035410Y-11218536D01*
X40019345Y-11211442D01*
X39996613Y-11206921D01*
X39972275Y-11190659D01*
X39953889Y-11182541D01*
X39941332Y-11169984D01*
X39919562Y-11155438D01*
X39905015Y-11133667D01*
X39892458Y-11121110D01*
X39884339Y-11102722D01*
X39868079Y-11078387D01*
X39863557Y-11055656D01*
X39856463Y-11039589D01*
X39851007Y-10992563D01*
X39850000Y-10987500D01*
X39850000Y-10512500D01*
X39851006Y-10507438D01*
X39856463Y-10460410D01*
X39863557Y-10444341D01*
X39868079Y-10421613D01*
X39884337Y-10397279D01*
X39892458Y-10378889D01*
X39905017Y-10366329D01*
X39919562Y-10344562D01*
X39941329Y-10330017D01*
X39953889Y-10317458D01*
X39972279Y-10309337D01*
X39996613Y-10293079D01*
X40019341Y-10288557D01*
X40035410Y-10281463D01*
X40082438Y-10276006D01*
X40087500Y-10275000D01*
X40662500Y-10275000D01*
X40667563Y-10276007D01*
G37*
G36*
X45967714Y-9032295D02*
G01*
X46103548Y-9088559D01*
X46225795Y-9170242D01*
X46329758Y-9274205D01*
X46411441Y-9396452D01*
X46467705Y-9532286D01*
X46496389Y-9676487D01*
X46496389Y-9823513D01*
X46467705Y-9967714D01*
X46411441Y-10103548D01*
X46329758Y-10225795D01*
X46225795Y-10329758D01*
X46103548Y-10411441D01*
X45967714Y-10467705D01*
X45823513Y-10496389D01*
X45676487Y-10496389D01*
X45532286Y-10467705D01*
X45396452Y-10411441D01*
X45274205Y-10329758D01*
X45170242Y-10225795D01*
X45088559Y-10103548D01*
X45032295Y-9967714D01*
X45003611Y-9823513D01*
X45003611Y-9676487D01*
X45032295Y-9532286D01*
X45088559Y-9396452D01*
X45170242Y-9274205D01*
X45274205Y-9170242D01*
X45396452Y-9088559D01*
X45532286Y-9032295D01*
X45676487Y-9003611D01*
X45823513Y-9003611D01*
X45967714Y-9032295D01*
G37*
G36*
X13858013Y-7361594D02*
G01*
X13913186Y-7368857D01*
X13927065Y-7375329D01*
X13945671Y-7379030D01*
X13970316Y-7395497D01*
X13992841Y-7406001D01*
X14006543Y-7419703D01*
X14026777Y-7433223D01*
X14040296Y-7453456D01*
X14053998Y-7467158D01*
X14064500Y-7489680D01*
X14080970Y-7514329D01*
X14084671Y-7532936D01*
X14091142Y-7546813D01*
X14098403Y-7601974D01*
X14100000Y-7610000D01*
X14100000Y-8810000D01*
X14098403Y-8818028D01*
X14091142Y-8873186D01*
X14084671Y-8887061D01*
X14080970Y-8905671D01*
X14064498Y-8930321D01*
X14053998Y-8952841D01*
X14040298Y-8966540D01*
X14026777Y-8986777D01*
X14006540Y-9000298D01*
X13992841Y-9013998D01*
X13970321Y-9024498D01*
X13945671Y-9040970D01*
X13927061Y-9044671D01*
X13913186Y-9051142D01*
X13858026Y-9058403D01*
X13850000Y-9060000D01*
X12650000Y-9060000D01*
X12641973Y-9058403D01*
X12586813Y-9051142D01*
X12572936Y-9044671D01*
X12554329Y-9040970D01*
X12529680Y-9024500D01*
X12507158Y-9013998D01*
X12493456Y-9000296D01*
X12473223Y-8986777D01*
X12459703Y-8966543D01*
X12446001Y-8952841D01*
X12435497Y-8930316D01*
X12419030Y-8905671D01*
X12415329Y-8887065D01*
X12408857Y-8873186D01*
X12401593Y-8818012D01*
X12400000Y-8810000D01*
X12400000Y-7610000D01*
X12401593Y-7601988D01*
X12408857Y-7546813D01*
X12415329Y-7532932D01*
X12419030Y-7514329D01*
X12435496Y-7489685D01*
X12446001Y-7467158D01*
X12459705Y-7453453D01*
X12473223Y-7433223D01*
X12493453Y-7419705D01*
X12507158Y-7406001D01*
X12529685Y-7395496D01*
X12554329Y-7379030D01*
X12572932Y-7375329D01*
X12586813Y-7368857D01*
X12641989Y-7361593D01*
X12650000Y-7360000D01*
X13850000Y-7360000D01*
X13858013Y-7361594D01*
G37*
G36*
X10956742Y-7396601D02*
G01*
X11110687Y-7460367D01*
X11249234Y-7552941D01*
X11367059Y-7670766D01*
X11459633Y-7809313D01*
X11523399Y-7963258D01*
X11555907Y-8126685D01*
X11555907Y-8293315D01*
X11523399Y-8456742D01*
X11459633Y-8610687D01*
X11367059Y-8749234D01*
X11249234Y-8867059D01*
X11110687Y-8959633D01*
X10956742Y-9023399D01*
X10793315Y-9055907D01*
X10626685Y-9055907D01*
X10463258Y-9023399D01*
X10309313Y-8959633D01*
X10170766Y-8867059D01*
X10052941Y-8749234D01*
X9960367Y-8610687D01*
X9896601Y-8456742D01*
X9864093Y-8293315D01*
X9864093Y-8126685D01*
X9896601Y-7963258D01*
X9960367Y-7809313D01*
X10052941Y-7670766D01*
X10170766Y-7552941D01*
X10309313Y-7460367D01*
X10463258Y-7396601D01*
X10626685Y-7364093D01*
X10793315Y-7364093D01*
X10956742Y-7396601D01*
G37*
G36*
X45967714Y-4152295D02*
G01*
X46103548Y-4208559D01*
X46225795Y-4290242D01*
X46329758Y-4394205D01*
X46411441Y-4516452D01*
X46467705Y-4652286D01*
X46496389Y-4796487D01*
X46496389Y-4943513D01*
X46467705Y-5087714D01*
X46411441Y-5223548D01*
X46329758Y-5345795D01*
X46225795Y-5449758D01*
X46103548Y-5531441D01*
X45967714Y-5587705D01*
X45823513Y-5616389D01*
X45676487Y-5616389D01*
X45532286Y-5587705D01*
X45396452Y-5531441D01*
X45274205Y-5449758D01*
X45170242Y-5345795D01*
X45088559Y-5223548D01*
X45032295Y-5087714D01*
X45003611Y-4943513D01*
X45003611Y-4796487D01*
X45032295Y-4652286D01*
X45088559Y-4516452D01*
X45170242Y-4394205D01*
X45274205Y-4290242D01*
X45396452Y-4208559D01*
X45532286Y-4152295D01*
X45676487Y-4123611D01*
X45823513Y-4123611D01*
X45967714Y-4152295D01*
G37*
G36*
X35880000Y-4905000D02*
G01*
X35480000Y-4905000D01*
X35480000Y-3255000D01*
X35880000Y-3255000D01*
X35880000Y-4905000D01*
G37*
G36*
X36530000Y-4905000D02*
G01*
X36130000Y-4905000D01*
X36130000Y-3255000D01*
X36530000Y-3255000D01*
X36530000Y-4905000D01*
G37*
G36*
X37180000Y-4905000D02*
G01*
X36780000Y-4905000D01*
X36780000Y-3255000D01*
X37180000Y-3255000D01*
X37180000Y-4905000D01*
G37*
G36*
X37830000Y-4905000D02*
G01*
X37430000Y-4905000D01*
X37430000Y-3255000D01*
X37830000Y-3255000D01*
X37830000Y-4905000D01*
G37*
G36*
X38480000Y-4905000D02*
G01*
X38080000Y-4905000D01*
X38080000Y-3255000D01*
X38480000Y-3255000D01*
X38480000Y-4905000D01*
G37*
G36*
X34667000Y-3729064D02*
G01*
X34786775Y-3761157D01*
X34894162Y-3823157D01*
X34981843Y-3910838D01*
X35043843Y-4018225D01*
X35075936Y-4138000D01*
X35075936Y-4262000D01*
X35043843Y-4381775D01*
X34981843Y-4489162D01*
X34894162Y-4576843D01*
X34786775Y-4638843D01*
X34667000Y-4670936D01*
X34605000Y-4675000D01*
X34602958Y-4675000D01*
X34307042Y-4675000D01*
X34305000Y-4675000D01*
X34243000Y-4670936D01*
X34123225Y-4638843D01*
X34015838Y-4576843D01*
X33928157Y-4489162D01*
X33866157Y-4381775D01*
X33834064Y-4262000D01*
X33834064Y-4138000D01*
X33866157Y-4018225D01*
X33928157Y-3910838D01*
X34015838Y-3823157D01*
X34123225Y-3761157D01*
X34243000Y-3729064D01*
X34305000Y-3725000D01*
X34605000Y-3725000D01*
X34667000Y-3729064D01*
G37*
G36*
X39667000Y-3729064D02*
G01*
X39786775Y-3761157D01*
X39894162Y-3823157D01*
X39981843Y-3910838D01*
X40043843Y-4018225D01*
X40075936Y-4138000D01*
X40075936Y-4262000D01*
X40043843Y-4381775D01*
X39981843Y-4489162D01*
X39894162Y-4576843D01*
X39786775Y-4638843D01*
X39667000Y-4670936D01*
X39605000Y-4675000D01*
X39602958Y-4675000D01*
X39307042Y-4675000D01*
X39305000Y-4675000D01*
X39243000Y-4670936D01*
X39123225Y-4638843D01*
X39015838Y-4576843D01*
X38928157Y-4489162D01*
X38866157Y-4381775D01*
X38834064Y-4262000D01*
X38834064Y-4138000D01*
X38866157Y-4018225D01*
X38928157Y-3910838D01*
X39015838Y-3823157D01*
X39123225Y-3761157D01*
X39243000Y-3729064D01*
X39305000Y-3725000D01*
X39605000Y-3725000D01*
X39667000Y-3729064D01*
G37*
G36*
X28417563Y-3526007D02*
G01*
X28464589Y-3531463D01*
X28480656Y-3538557D01*
X28503387Y-3543079D01*
X28527722Y-3559339D01*
X28546110Y-3567458D01*
X28558667Y-3580015D01*
X28580438Y-3594562D01*
X28594984Y-3616332D01*
X28607541Y-3628889D01*
X28615659Y-3647275D01*
X28631921Y-3671613D01*
X28636442Y-3694345D01*
X28643536Y-3710410D01*
X28648990Y-3757425D01*
X28650000Y-3762500D01*
X28650000Y-4237500D01*
X28648990Y-4242575D01*
X28643536Y-4289589D01*
X28636443Y-4305652D01*
X28631921Y-4328387D01*
X28615658Y-4352726D01*
X28607541Y-4371110D01*
X28594986Y-4383664D01*
X28580438Y-4405438D01*
X28558664Y-4419986D01*
X28546110Y-4432541D01*
X28527726Y-4440658D01*
X28503387Y-4456921D01*
X28480652Y-4461443D01*
X28464589Y-4468536D01*
X28417575Y-4473990D01*
X28412500Y-4475000D01*
X27837500Y-4475000D01*
X27832425Y-4473990D01*
X27785410Y-4468536D01*
X27769345Y-4461442D01*
X27746613Y-4456921D01*
X27722275Y-4440659D01*
X27703889Y-4432541D01*
X27691332Y-4419984D01*
X27669562Y-4405438D01*
X27655015Y-4383667D01*
X27642458Y-4371110D01*
X27634339Y-4352722D01*
X27618079Y-4328387D01*
X27613557Y-4305656D01*
X27606463Y-4289589D01*
X27601007Y-4242563D01*
X27600000Y-4237500D01*
X27600000Y-3762500D01*
X27601006Y-3757438D01*
X27606463Y-3710410D01*
X27613557Y-3694341D01*
X27618079Y-3671613D01*
X27634337Y-3647279D01*
X27642458Y-3628889D01*
X27655017Y-3616329D01*
X27669562Y-3594562D01*
X27691329Y-3580017D01*
X27703889Y-3567458D01*
X27722279Y-3559337D01*
X27746613Y-3543079D01*
X27769341Y-3538557D01*
X27785410Y-3531463D01*
X27832438Y-3526006D01*
X27837500Y-3525000D01*
X28412500Y-3525000D01*
X28417563Y-3526007D01*
G37*
G36*
X30167563Y-3526007D02*
G01*
X30214589Y-3531463D01*
X30230656Y-3538557D01*
X30253387Y-3543079D01*
X30277722Y-3559339D01*
X30296110Y-3567458D01*
X30308667Y-3580015D01*
X30330438Y-3594562D01*
X30344984Y-3616332D01*
X30357541Y-3628889D01*
X30365659Y-3647275D01*
X30381921Y-3671613D01*
X30386442Y-3694345D01*
X30393536Y-3710410D01*
X30398990Y-3757425D01*
X30400000Y-3762500D01*
X30400000Y-4237500D01*
X30398990Y-4242575D01*
X30393536Y-4289589D01*
X30386443Y-4305652D01*
X30381921Y-4328387D01*
X30365658Y-4352726D01*
X30357541Y-4371110D01*
X30344986Y-4383664D01*
X30330438Y-4405438D01*
X30308664Y-4419986D01*
X30296110Y-4432541D01*
X30277726Y-4440658D01*
X30253387Y-4456921D01*
X30230652Y-4461443D01*
X30214589Y-4468536D01*
X30167575Y-4473990D01*
X30162500Y-4475000D01*
X29587500Y-4475000D01*
X29582425Y-4473990D01*
X29535410Y-4468536D01*
X29519345Y-4461442D01*
X29496613Y-4456921D01*
X29472275Y-4440659D01*
X29453889Y-4432541D01*
X29441332Y-4419984D01*
X29419562Y-4405438D01*
X29405015Y-4383667D01*
X29392458Y-4371110D01*
X29384339Y-4352722D01*
X29368079Y-4328387D01*
X29363557Y-4305656D01*
X29356463Y-4289589D01*
X29351007Y-4242563D01*
X29350000Y-4237500D01*
X29350000Y-3762500D01*
X29351006Y-3757438D01*
X29356463Y-3710410D01*
X29363557Y-3694341D01*
X29368079Y-3671613D01*
X29384337Y-3647279D01*
X29392458Y-3628889D01*
X29405017Y-3616329D01*
X29419562Y-3594562D01*
X29441329Y-3580017D01*
X29453889Y-3567458D01*
X29472279Y-3559337D01*
X29496613Y-3543079D01*
X29519341Y-3538557D01*
X29535410Y-3531463D01*
X29582438Y-3526006D01*
X29587500Y-3525000D01*
X30162500Y-3525000D01*
X30167563Y-3526007D01*
G37*
G36*
X23660000Y-3750000D02*
G01*
X22660000Y-3750000D01*
X22660000Y-2500000D01*
X23660000Y-2500000D01*
X23660000Y-3750000D01*
G37*
G36*
X28342563Y-1526007D02*
G01*
X28389589Y-1531463D01*
X28405656Y-1538557D01*
X28428387Y-1543079D01*
X28452722Y-1559339D01*
X28471110Y-1567458D01*
X28483667Y-1580015D01*
X28505438Y-1594562D01*
X28519984Y-1616332D01*
X28532541Y-1628889D01*
X28540659Y-1647275D01*
X28556921Y-1671613D01*
X28561442Y-1694345D01*
X28568536Y-1710410D01*
X28573990Y-1757425D01*
X28575000Y-1762500D01*
X28575000Y-2237500D01*
X28573990Y-2242575D01*
X28568536Y-2289589D01*
X28561443Y-2305652D01*
X28556921Y-2328387D01*
X28540658Y-2352726D01*
X28532541Y-2371110D01*
X28519986Y-2383664D01*
X28505438Y-2405438D01*
X28483664Y-2419986D01*
X28471110Y-2432541D01*
X28452726Y-2440658D01*
X28428387Y-2456921D01*
X28405652Y-2461443D01*
X28389589Y-2468536D01*
X28342575Y-2473990D01*
X28337500Y-2475000D01*
X27837500Y-2475000D01*
X27832425Y-2473990D01*
X27785410Y-2468536D01*
X27769345Y-2461442D01*
X27746613Y-2456921D01*
X27722275Y-2440659D01*
X27703889Y-2432541D01*
X27691332Y-2419984D01*
X27669562Y-2405438D01*
X27655015Y-2383667D01*
X27642458Y-2371110D01*
X27634339Y-2352722D01*
X27618079Y-2328387D01*
X27613557Y-2305656D01*
X27606463Y-2289589D01*
X27601007Y-2242563D01*
X27600000Y-2237500D01*
X27600000Y-1762500D01*
X27601006Y-1757438D01*
X27606463Y-1710410D01*
X27613557Y-1694341D01*
X27618079Y-1671613D01*
X27634337Y-1647279D01*
X27642458Y-1628889D01*
X27655017Y-1616329D01*
X27669562Y-1594562D01*
X27691329Y-1580017D01*
X27703889Y-1567458D01*
X27722279Y-1559337D01*
X27746613Y-1543079D01*
X27769341Y-1538557D01*
X27785410Y-1531463D01*
X27832438Y-1526006D01*
X27837500Y-1525000D01*
X28337500Y-1525000D01*
X28342563Y-1526007D01*
G37*
G36*
X30167563Y-1526007D02*
G01*
X30214589Y-1531463D01*
X30230656Y-1538557D01*
X30253387Y-1543079D01*
X30277722Y-1559339D01*
X30296110Y-1567458D01*
X30308667Y-1580015D01*
X30330438Y-1594562D01*
X30344984Y-1616332D01*
X30357541Y-1628889D01*
X30365659Y-1647275D01*
X30381921Y-1671613D01*
X30386442Y-1694345D01*
X30393536Y-1710410D01*
X30398990Y-1757425D01*
X30400000Y-1762500D01*
X30400000Y-2237500D01*
X30398990Y-2242575D01*
X30393536Y-2289589D01*
X30386443Y-2305652D01*
X30381921Y-2328387D01*
X30365658Y-2352726D01*
X30357541Y-2371110D01*
X30344986Y-2383664D01*
X30330438Y-2405438D01*
X30308664Y-2419986D01*
X30296110Y-2432541D01*
X30277726Y-2440658D01*
X30253387Y-2456921D01*
X30230652Y-2461443D01*
X30214589Y-2468536D01*
X30167575Y-2473990D01*
X30162500Y-2475000D01*
X29662500Y-2475000D01*
X29657425Y-2473990D01*
X29610410Y-2468536D01*
X29594345Y-2461442D01*
X29571613Y-2456921D01*
X29547275Y-2440659D01*
X29528889Y-2432541D01*
X29516332Y-2419984D01*
X29494562Y-2405438D01*
X29480015Y-2383667D01*
X29467458Y-2371110D01*
X29459339Y-2352722D01*
X29443079Y-2328387D01*
X29438557Y-2305656D01*
X29431463Y-2289589D01*
X29426007Y-2242563D01*
X29425000Y-2237500D01*
X29425000Y-1762500D01*
X29426006Y-1757438D01*
X29431463Y-1710410D01*
X29438557Y-1694341D01*
X29443079Y-1671613D01*
X29459337Y-1647279D01*
X29467458Y-1628889D01*
X29480017Y-1616329D01*
X29494562Y-1594562D01*
X29516329Y-1580017D01*
X29528889Y-1567458D01*
X29547279Y-1559337D01*
X29571613Y-1543079D01*
X29594341Y-1538557D01*
X29610410Y-1531463D01*
X29657438Y-1526006D01*
X29662500Y-1525000D01*
X30162500Y-1525000D01*
X30167563Y-1526007D01*
G37*
%LPD*%
M02*
