%TF.GenerationSoftware,KiCad,Pcbnew,10.0.0*%
%TF.CreationDate,2026-04-17T03:24:38+02:00*%
%TF.ProjectId,bios-programmer-ch341a,62696f73-2d70-4726-9f67-72616d6d6572,rev?*%
%TF.SameCoordinates,PX2625a00PY1c9c380*%
%TF.FileFunction,Copper,L1,Top*%
%TF.FilePolarity,Positive*%
%FSLAX46Y46*%
G04 Gerber Fmt 4.6, Leading zero omitted, Abs format (unit mm)*
G04 Created by KiCad (PCBNEW 10.0.0) date 2026-04-17 03:24:38*
%MOMM*%
%LPD*%
G01*
G04 APERTURE LIST*
G04 Aperture macros list*
%AMRoundRect*
0 Rectangle with rounded corners*
0 $1 Rounding radius*
0 $2 $3 $4 $5 $6 $7 $8 $9 X,Y pos of 4 corners*
0 Add a 4 corners polygon primitive as box body*
4,1,4,$2,$3,$4,$5,$6,$7,$8,$9,$2,$3,0*
0 Add four circle primitives for the rounded corners*
1,1,$1+$1,$2,$3*
1,1,$1+$1,$4,$5*
1,1,$1+$1,$6,$7*
1,1,$1+$1,$8,$9*
0 Add four rect primitives between the rounded corners*
20,1,$1+$1,$2,$3,$4,$5,0*
20,1,$1+$1,$4,$5,$6,$7,0*
20,1,$1+$1,$6,$7,$8,$9,0*
20,1,$1+$1,$8,$9,$2,$3,0*%
G04 Aperture macros list end*
%TA.AperFunction,SMDPad,CuDef*%
%ADD10RoundRect,0.237500X-0.250000X-0.237500X0.250000X-0.237500X0.250000X0.237500X-0.250000X0.237500X0*%
%TD*%
%TA.AperFunction,SMDPad,CuDef*%
%ADD11RoundRect,0.237500X-0.287500X-0.237500X0.287500X-0.237500X0.287500X0.237500X-0.287500X0.237500X0*%
%TD*%
%TA.AperFunction,SMDPad,CuDef*%
%ADD12R,0.400000X1.650000*%
%TD*%
%TA.AperFunction,ComponentPad*%
%ADD13O,0.900000X1.550000*%
%TD*%
%TA.AperFunction,SMDPad,CuDef*%
%ADD14R,1.200000X1.550000*%
%TD*%
%TA.AperFunction,ComponentPad*%
%ADD15O,1.250000X0.950000*%
%TD*%
%TA.AperFunction,SMDPad,CuDef*%
%ADD16R,1.500000X1.550000*%
%TD*%
%TA.AperFunction,SMDPad,CuDef*%
%ADD17R,1.000000X1.250000*%
%TD*%
%TA.AperFunction,WasherPad*%
%ADD18C,1.700000*%
%TD*%
%TA.AperFunction,ComponentPad*%
%ADD19C,3.500000*%
%TD*%
%TA.AperFunction,ComponentPad*%
%ADD20RoundRect,0.250000X-0.550000X0.550000X-0.550000X-0.550000X0.550000X-0.550000X0.550000X0.550000X0*%
%TD*%
%TA.AperFunction,ComponentPad*%
%ADD21C,1.600000*%
%TD*%
%TA.AperFunction,ComponentPad*%
%ADD22C,1.500000*%
%TD*%
%TA.AperFunction,ComponentPad*%
%ADD23RoundRect,0.250000X-0.600000X-0.600000X0.600000X-0.600000X0.600000X0.600000X-0.600000X0.600000X0*%
%TD*%
%TA.AperFunction,ComponentPad*%
%ADD24C,1.700000*%
%TD*%
%TA.AperFunction,ComponentPad*%
%ADD25RoundRect,0.250000X0.600000X0.600000X-0.600000X0.600000X-0.600000X-0.600000X0.600000X-0.600000X0*%
%TD*%
%TA.AperFunction,ViaPad*%
%ADD26C,0.600000*%
%TD*%
%TA.AperFunction,Conductor*%
%ADD27C,0.300000*%
%TD*%
%TA.AperFunction,Conductor*%
%ADD28C,0.400000*%
%TD*%
%TA.AperFunction,Conductor*%
%ADD29C,0.250000*%
%TD*%
%TA.AperFunction,Conductor*%
%ADD30C,1.900000*%
%TD*%
%TA.AperFunction,Conductor*%
%ADD31C,0.950000*%
%TD*%
%TA.AperFunction,Conductor*%
%ADD32C,1.000000*%
%TD*%
%TA.AperFunction,Conductor*%
%ADD33C,1.200000*%
%TD*%
G04 APERTURE END LIST*
D10*
%TO.P,R4,1*%
%TO.N,/SDA*%
X34837500Y-10750000D03*
%TO.P,R4,2*%
%TO.N,Net-(D3-K)*%
X36662500Y-10750000D03*
%TD*%
%TO.P,R3,1*%
%TO.N,/CS*%
X34925000Y-13750000D03*
%TO.P,R3,2*%
%TO.N,Net-(D2-K)*%
X36750000Y-13750000D03*
%TD*%
D11*
%TO.P,D1,1,K_1*%
%TO.N,Net-(D1-K)*%
X28125000Y-4000000D03*
%TO.P,D1,2,A_2*%
%TO.N,VBUS*%
X29875000Y-4000000D03*
%TD*%
D12*
%TO.P,J1,1,VBUS_1*%
%TO.N,VBUS*%
X38280000Y-4080000D03*
%TO.P,J1,2,D-_2*%
%TO.N,/UD-*%
X37630000Y-4080000D03*
%TO.P,J1,3,D+_3*%
%TO.N,/UD+*%
X36980000Y-4080000D03*
%TO.P,J1,4,ID_4*%
%TO.N,unconnected-(J1-ID-Pad4)*%
X36330000Y-4080000D03*
%TO.P,J1,5,GND_5*%
%TO.N,GND*%
X35680000Y-4080000D03*
D13*
%TO.P,J1,SH,Shield_SH*%
X40455000Y-1500000D03*
D14*
X39855000Y-1500000D03*
D15*
X39455000Y-4200000D03*
D16*
X37955000Y-1500000D03*
X35955000Y-1500000D03*
D15*
X34455000Y-4200000D03*
D14*
X34055000Y-1500000D03*
D13*
X33455000Y-1500000D03*
%TD*%
D17*
%TO.P,SW1,1,A_1*%
%TO.N,VBUS*%
X23160000Y-10875000D03*
%TO.P,SW1,2,B_2*%
%TO.N,/RST*%
X23160000Y-3125000D03*
%TD*%
D18*
%TO.P,J4,*%
%TO.N,*%
X5920000Y-48360000D03*
X16080000Y-48360000D03*
X5920000Y-38200000D03*
X16080000Y-38200000D03*
D19*
%TO.P,J4,1,Pin_1_1*%
%TO.N,VDD*%
X11000000Y-42000000D03*
%TD*%
D11*
%TO.P,D3,1,K_1*%
%TO.N,Net-(D3-K)*%
X38625000Y-10750000D03*
%TO.P,D3,2,A_2*%
%TO.N,VBUS*%
X40375000Y-10750000D03*
%TD*%
D10*
%TO.P,R1,1*%
%TO.N,Net-(D1-K)*%
X28087500Y-2000000D03*
%TO.P,R1,2*%
%TO.N,GND*%
X29912500Y-2000000D03*
%TD*%
D20*
%TO.P,J6,1,Pin_1_1*%
%TO.N,/CS_I*%
X32050000Y-23500000D03*
D21*
%TO.P,J6,2,Pin_2_2*%
%TO.N,/MISO_I*%
X29510000Y-23500000D03*
%TO.P,J6,3,Pin_3_3*%
%TO.N,VDD*%
X26970000Y-23500000D03*
%TO.P,J6,4,Pin_4_4*%
%TO.N,GNDD*%
X24430000Y-23500000D03*
%TO.P,J6,5,Pin_5_5*%
X21890000Y-23500000D03*
%TO.P,J6,6,Pin_6_6*%
X19350000Y-23500000D03*
%TO.P,J6,7,Pin_7_7*%
X16810000Y-23500000D03*
%TO.P,J6,8,Pin_8_8*%
X14270000Y-23500000D03*
%TO.P,J6,9,Pin_9_9*%
%TO.N,/SDA_I*%
X14270000Y-31120000D03*
%TO.P,J6,10,Pin_10_10*%
%TO.N,/SCL_I*%
X16810000Y-31120000D03*
%TO.P,J6,11,Pin_11_11*%
%TO.N,GNDD*%
X19350000Y-31120000D03*
%TO.P,J6,12,Pin_12_12*%
%TO.N,VDD*%
X21890000Y-31120000D03*
%TO.P,J6,13,Pin_13_13*%
%TO.N,/MOSI_I*%
X24430000Y-31120000D03*
%TO.P,J6,14,Pin_14_14*%
%TO.N,/CLK_I*%
X26970000Y-31120000D03*
%TO.P,J6,15,Pin_15_15*%
%TO.N,VDD*%
X29510000Y-31120000D03*
%TO.P,J6,16,Pin_16_16*%
X32050000Y-31120000D03*
%TD*%
D18*
%TO.P,J5,*%
%TO.N,*%
X21920000Y-48360000D03*
X32080000Y-48360000D03*
X21920000Y-38200000D03*
X32080000Y-38200000D03*
D19*
%TO.P,J5,1,Pin_1_1*%
%TO.N,GNDD*%
X27000000Y-42000000D03*
%TD*%
D11*
%TO.P,D2,1,K_1*%
%TO.N,Net-(D2-K)*%
X38625000Y-13750000D03*
%TO.P,D2,2,A_2*%
%TO.N,VBUS*%
X40375000Y-13750000D03*
%TD*%
D22*
%TO.P,Y1,1,1_1*%
%TO.N,Net-(U1-XO)*%
X45750000Y-9750000D03*
%TO.P,Y1,2,2_2*%
%TO.N,Net-(U1-XI)*%
X45750000Y-4870000D03*
%TD*%
D23*
%TO.P,J7,1,Pin_1_1*%
%TO.N,/CS_I*%
X36750000Y-48000000D03*
D24*
%TO.P,J7,2,Pin_2_2*%
%TO.N,VDD*%
X39290000Y-48000000D03*
%TO.P,J7,3,Pin_3_3*%
%TO.N,/MISO_I*%
X36750000Y-45460000D03*
%TO.P,J7,4,Pin_4_4*%
%TO.N,VDD*%
X39290000Y-45460000D03*
%TO.P,J7,5,Pin_5_5*%
X36750000Y-42920000D03*
%TO.P,J7,6,Pin_6_6*%
%TO.N,/CLK_I*%
X39290000Y-42920000D03*
%TO.P,J7,7,Pin_7_7*%
%TO.N,GNDD*%
X36750000Y-40380000D03*
%TO.P,J7,8,Pin_8_8*%
%TO.N,/MOSI_I*%
X39290000Y-40380000D03*
%TD*%
D25*
%TO.P,J8,1,Pin_1_1*%
%TO.N,GNDD*%
X13250000Y-8210000D03*
D24*
%TO.P,J8,2,Pin_2_2*%
%TO.N,VDD*%
X10710000Y-8210000D03*
%TO.P,J8,3,Pin_3_3*%
%TO.N,GNDD*%
X13250000Y-10750000D03*
%TO.P,J8,4,Pin_4_4*%
X10710000Y-10750000D03*
%TO.P,J8,5,Pin_5_5*%
X13250000Y-13290000D03*
%TO.P,J8,6,Pin_6_6*%
%TO.N,/SCL_I*%
X10710000Y-13290000D03*
%TO.P,J8,7,Pin_7_7*%
%TO.N,GNDD*%
X13250000Y-15830000D03*
%TO.P,J8,8,Pin_8_8*%
%TO.N,/SDA_I*%
X10710000Y-15830000D03*
%TD*%
D26*
%TO.N,/SDA*%
X30875000Y-12625000D03*
%TO.N,/CS*%
X41250000Y-16020001D03*
%TO.N,VBUS*%
X36337500Y-22662500D03*
X32475000Y-5275000D03*
X24750000Y-19500000D03*
X21722750Y-9500000D03*
%TO.N,/UD-*%
X37730000Y-6974522D03*
%TO.N,/UD+*%
X36880000Y-6974522D03*
%TO.N,GND*%
X49500000Y-15681816D03*
X22307696Y-500000D03*
X40826924Y-500000D03*
X48767767Y-1232233D03*
X44942308Y-500000D03*
X49500000Y-26249996D03*
X27975000Y-14300000D03*
X49500000Y-7227272D03*
X42884616Y-500000D03*
X34653848Y-500000D03*
X49500000Y-5113636D03*
X49500000Y-17795452D03*
X27150000Y-10500000D03*
X20250000Y-500000D03*
X28480772Y-500000D03*
X49500000Y-24136360D03*
X49500000Y-13568180D03*
X36711540Y-500000D03*
X49500000Y-3000000D03*
X49500000Y-19909088D03*
X26423080Y-500000D03*
X27975000Y-10500000D03*
X49500000Y-9340908D03*
X49500000Y-22022724D03*
X49500000Y-11454544D03*
X38769232Y-500000D03*
X24365388Y-500000D03*
X32596156Y-500000D03*
X30538464Y-500000D03*
X27150000Y-14300000D03*
X47000000Y-500000D03*
%TO.N,/RST*%
X23150000Y-4500000D03*
%TO.N,GNDD*%
X4906250Y-500000D03*
X27000000Y-55500000D03*
X3000000Y-500000D03*
X500000Y-13000000D03*
X500000Y-27000000D03*
X49500000Y-32375000D03*
X500000Y-31000000D03*
X1232233Y-1232233D03*
X38119172Y-33725000D03*
X7000000Y-55500000D03*
X500000Y-25000000D03*
X43000000Y-55500000D03*
X500000Y-35000000D03*
X49500000Y-46812500D03*
X500000Y-3000000D03*
X500000Y-49000000D03*
X49500000Y-50937500D03*
X45000000Y-55500000D03*
X12531250Y-500000D03*
X15000000Y-55500000D03*
X49500000Y-40625000D03*
X500000Y-37000000D03*
X11000000Y-55500000D03*
X500000Y-33000000D03*
X49500000Y-42687500D03*
X49500000Y-48875000D03*
X23000000Y-55500000D03*
X49500000Y-30312500D03*
X6812500Y-500000D03*
X16343750Y-500000D03*
X31000000Y-55500000D03*
X33000000Y-55500000D03*
X37000000Y-55500000D03*
X500000Y-43000000D03*
X1232233Y-54767767D03*
X500000Y-53000000D03*
X500000Y-19000000D03*
X10625000Y-500000D03*
X35000000Y-55500000D03*
X500000Y-23000000D03*
X49500000Y-36500000D03*
X46500000Y-35000000D03*
X500000Y-9000000D03*
X500000Y-41000000D03*
X41000000Y-55500000D03*
X48767767Y-54767767D03*
X500000Y-47000000D03*
X39000000Y-55500000D03*
X500000Y-17000000D03*
X13000000Y-55500000D03*
X5000000Y-55500000D03*
X500000Y-15000000D03*
X49500000Y-53000000D03*
X17000000Y-55500000D03*
X8718750Y-500000D03*
X49500000Y-34437500D03*
X19000000Y-55500000D03*
X500000Y-45000000D03*
X47000000Y-55500000D03*
X500000Y-7000000D03*
X18250000Y-500000D03*
X500000Y-51000000D03*
X3000000Y-55500000D03*
X49500000Y-44750000D03*
X49500000Y-38562500D03*
X500000Y-5000000D03*
X500000Y-21000000D03*
X29000000Y-55500000D03*
X49500000Y-28250000D03*
X9000000Y-55500000D03*
X500000Y-11000000D03*
X14437500Y-500000D03*
X500000Y-39000000D03*
X25000000Y-55500000D03*
X21000000Y-55500000D03*
X500000Y-29000000D03*
%TD*%
%TO.N,/SDA*%
D27*
X31273914Y-12226085D02*
X30875000Y-12625000D01*
X34837500Y-10750000D02*
G75*
G03*
X31273908Y-12226079I0J-5039700D01*
G01*
%TO.N,Net-(D3-K)*%
X38625000Y-10750000D02*
X36662500Y-10750000D01*
%TO.N,/CS*%
X36020001Y-16020001D02*
X34925000Y-14925000D01*
X34925000Y-14925000D02*
X34925000Y-13750000D01*
X41250000Y-16020001D02*
X36020001Y-16020001D01*
%TO.N,Net-(D2-K)*%
X36750000Y-13750000D02*
X38625000Y-13750000D01*
%TO.N,Net-(D1-K)*%
X28125000Y-4000000D02*
X28125000Y-2037500D01*
%TO.N,VBUS*%
D28*
X21750000Y-9500000D02*
X24500000Y-6750000D01*
X21722750Y-9500000D02*
X21750000Y-9500000D01*
X24750000Y-19500000D02*
X25750000Y-20500000D01*
X39200000Y-7336396D02*
X39200000Y-7500000D01*
X23160000Y-10875000D02*
X23160000Y-17910000D01*
X29875000Y-4000000D02*
X29024049Y-4850951D01*
X23160000Y-9985046D02*
X23160000Y-10875000D01*
X24542893Y-6707107D02*
X24500000Y-6750000D01*
X34912500Y-22662500D02*
X36337500Y-22662500D01*
X32750000Y-20500000D02*
X34912500Y-22662500D01*
X36822031Y-8935471D02*
X37700000Y-8935471D01*
X36337500Y-22662500D02*
X36355291Y-22662936D01*
X38492999Y-8607000D02*
X38917157Y-8182842D01*
X25750000Y-20500000D02*
X32750000Y-20500000D01*
X23160000Y-17910000D02*
X24750000Y-19500000D01*
X40375000Y-10750000D02*
X40375000Y-13750000D01*
X45500000Y-18267767D02*
X45500000Y-18750000D01*
X38280000Y-4080000D02*
X38280000Y-5115320D01*
X32136917Y-4936916D02*
X32475000Y-5275000D01*
X40375000Y-10173097D02*
X40375000Y-10750000D01*
X32475000Y-5275000D02*
X35650000Y-8450000D01*
X36355291Y-22662936D02*
X41174657Y-22662936D01*
X45500000Y-18750000D02*
G75*
G02*
X44439336Y-21310656I-3621300J0D01*
G01*
X37700000Y-8935471D02*
G75*
G03*
X38492999Y-8607000I0J1121471D01*
G01*
X29875000Y-4000000D02*
G75*
G02*
X32136910Y-4936923I0J-3198800D01*
G01*
X38750000Y-6250000D02*
G75*
G02*
X40375001Y-10173097I-3923100J-3923100D01*
G01*
X24500000Y-6750000D02*
G75*
G03*
X23160019Y-9985046I3235000J-3235000D01*
G01*
X26250000Y-6000000D02*
G75*
G03*
X24542896Y-6707110I0J-2414200D01*
G01*
X35650000Y-8450000D02*
G75*
G03*
X36822031Y-8935458I1172000J1172000D01*
G01*
X39200000Y-7500000D02*
G75*
G02*
X38917161Y-8182846I-965700J0D01*
G01*
X29024049Y-4850951D02*
G75*
G02*
X26250000Y-5999999I-2774049J2774051D01*
G01*
X41174657Y-22662936D02*
G75*
G03*
X44439357Y-21310677I43J4616936D01*
G01*
X38280000Y-5115320D02*
G75*
G03*
X38750006Y-6249994I1604700J20D01*
G01*
X40628680Y-13750000D02*
G75*
G02*
X44250006Y-15249994I20J-5121300D01*
G01*
X44250000Y-15250000D02*
G75*
G02*
X45500014Y-18267767I-3017800J-3017800D01*
G01*
X38750000Y-6250000D02*
G75*
G02*
X39200002Y-7336396I-1086400J-1086400D01*
G01*
%TO.N,/UD-*%
D29*
X37555000Y-5392501D02*
X37555000Y-6799522D01*
X37555000Y-6799522D02*
X37730000Y-6974522D01*
X37630000Y-5317501D02*
X37555000Y-5392501D01*
X37630000Y-4080000D02*
X37630000Y-5317501D01*
%TO.N,/UD+*%
X36980000Y-4080000D02*
X36980000Y-5317501D01*
X37055000Y-5392501D02*
X37055000Y-6799522D01*
X37055000Y-6799522D02*
X36880000Y-6974522D01*
X36980000Y-5317501D02*
X37055000Y-5392501D01*
%TO.N,GND*%
D28*
X27975000Y-14300000D02*
X27975000Y-10500000D01*
D30*
X33455000Y-1500000D02*
X40455000Y-1500000D01*
D31*
X47000000Y-500000D02*
X20250000Y-500000D01*
D28*
X31119607Y-1500000D02*
X33205000Y-1500000D01*
D31*
X49500000Y-3000000D02*
X49500000Y-26249996D01*
D28*
X27150000Y-10500000D02*
X27150000Y-14300000D01*
X33455000Y-1785786D02*
X33455000Y-1500000D01*
D32*
X35390294Y-4200000D02*
X34455000Y-4200000D01*
D28*
X29912500Y-2000000D02*
G75*
G02*
X31119607Y-1500003I1207100J-1207100D01*
G01*
D31*
X49500000Y-3000000D02*
G75*
G03*
X47000000Y-500000I-2500000J0D01*
G01*
D33*
X40455000Y-1785786D02*
G75*
G02*
X39455004Y-4200004I-3414200J-14D01*
G01*
D28*
X35680000Y-4080000D02*
G75*
G02*
X35390294Y-4199998I-289700J289700D01*
G01*
D33*
X34455000Y-4200000D02*
G75*
G02*
X33455006Y-1785786I2414200J2414200D01*
G01*
%TO.N,/RST*%
D27*
X23160000Y-4490000D02*
X23150000Y-4500000D01*
X23160000Y-3125000D02*
X23160000Y-4490000D01*
%TO.N,/CS_I*%
X32050000Y-25342893D02*
X32050000Y-23500000D01*
X35500000Y-32292894D02*
X42500000Y-39292893D01*
X42500000Y-49207107D02*
X41207107Y-50500000D01*
X41207107Y-50500000D02*
X37500000Y-50500000D01*
X42500000Y-39292893D02*
X42500000Y-49207107D01*
X32050000Y-25342893D02*
X35500000Y-28792893D01*
X36750000Y-49750000D02*
X36750000Y-48000000D01*
X37500000Y-50500000D02*
X36750000Y-49750000D01*
X35500000Y-28792893D02*
X35500000Y-32292894D01*
%TO.N,/MISO_I*%
X29510000Y-23500000D02*
X29510000Y-25510000D01*
X38090000Y-46800000D02*
X40700000Y-46800000D01*
X42000000Y-39500000D02*
X35000000Y-32500000D01*
X32500000Y-26500000D02*
X30500000Y-26500000D01*
X35000000Y-29000000D02*
X32500000Y-26500000D01*
X36750000Y-45460000D02*
X38090000Y-46800000D01*
X35000000Y-32500000D02*
X35000000Y-29000000D01*
X40700000Y-46800000D02*
X42000000Y-45500000D01*
X29510000Y-25510000D02*
X30500000Y-26500000D01*
X42000000Y-45500000D02*
X42000000Y-39500000D01*
%TO.N,GNDD*%
D28*
X46500000Y-35000000D02*
X41197294Y-35000000D01*
X19350000Y-23500000D02*
X19350000Y-31120000D01*
D31*
X500000Y-3000000D02*
X500000Y-53000000D01*
D28*
X13250000Y-10750000D02*
X13250000Y-8210000D01*
D31*
X3000000Y-500000D02*
X18250000Y-500000D01*
D28*
X27000000Y-42000000D02*
X27000000Y-51500000D01*
X35130000Y-42000000D02*
X27000000Y-42000000D01*
X14270000Y-23500000D02*
X24430000Y-23500000D01*
X25672539Y-37273271D02*
X25530121Y-37130853D01*
X27000000Y-51500000D02*
X31000000Y-55500000D01*
X13250000Y-15830000D02*
X13250000Y-10750000D01*
X10710000Y-10750000D02*
X13250000Y-10750000D01*
X19350000Y-32847918D02*
X19350000Y-31120000D01*
X25700000Y-37300000D02*
X25672539Y-37273271D01*
X14270000Y-23500000D02*
X14270000Y-18292498D01*
D31*
X3000000Y-55500000D02*
X47000000Y-55500000D01*
D28*
X36750000Y-40380000D02*
X35130000Y-42000000D01*
X20239340Y-34939340D02*
X20200000Y-34900000D01*
D31*
X49500000Y-53000000D02*
X49500000Y-28250000D01*
D28*
X27000000Y-42000000D02*
X27000000Y-40438478D01*
X38119172Y-33725000D02*
G75*
G03*
X41197294Y-35000011I3078128J3078100D01*
G01*
X20200000Y-34900000D02*
G75*
G02*
X19349992Y-32847918I2052100J2052100D01*
G01*
X22800000Y-36000000D02*
G75*
G02*
X20239344Y-34939336I0J3621300D01*
G01*
X14270000Y-18292498D02*
G75*
G03*
X13249999Y-15830001I-3482500J-2D01*
G01*
D31*
X500000Y-53000000D02*
G75*
G03*
X3000000Y-55500000I2500000J0D01*
G01*
X47000000Y-55500000D02*
G75*
G03*
X49500000Y-53000000I0J2500000D01*
G01*
D28*
X25530121Y-37130853D02*
G75*
G03*
X22800000Y-36000007I-2730121J-2730147D01*
G01*
D31*
X3000000Y-500000D02*
G75*
G03*
X500000Y-3000000I0J-2500000D01*
G01*
D28*
X27000000Y-40438478D02*
G75*
G03*
X25699993Y-37300007I-4438500J-22D01*
G01*
%TO.N,/SDA_I*%
D27*
X12306827Y-30306827D02*
X12000000Y-30000000D01*
X10710000Y-26885665D02*
X10710000Y-15830000D01*
X14270000Y-31120000D02*
G75*
G02*
X12306836Y-30306818I0J2776300D01*
G01*
X12000000Y-30000000D02*
G75*
G02*
X10710015Y-26885665I3114300J3114300D01*
G01*
%TO.N,/SCL_I*%
X13146446Y-28646447D02*
X13000000Y-28500000D01*
X14792893Y-29000000D02*
X14000000Y-29000000D01*
X12000000Y-15600000D02*
X12000000Y-26085786D01*
X16237244Y-29737243D02*
X16000000Y-29500000D01*
X10710000Y-13290000D02*
X11278751Y-13858751D01*
X16000000Y-29500000D02*
G75*
G03*
X14792893Y-29000003I-1207100J-1207100D01*
G01*
X16810000Y-31120000D02*
G75*
G03*
X16237241Y-29737246I-1955500J0D01*
G01*
X14000000Y-29000000D02*
G75*
G02*
X13146448Y-28646445I0J1207100D01*
G01*
X13000000Y-28500000D02*
G75*
G02*
X12000006Y-26085786I2414200J2414200D01*
G01*
X11278751Y-13858751D02*
G75*
G02*
X11999999Y-15600000I-1741251J-1741249D01*
G01*
%TO.N,/MOSI_I*%
X34500000Y-32707106D02*
X34500000Y-29500000D01*
X39290000Y-37497106D02*
X34500000Y-32707106D01*
X24430000Y-29570000D02*
X25500000Y-28500000D01*
X39290000Y-40380000D02*
X39290000Y-37497106D01*
X24430000Y-31120000D02*
X24430000Y-29570000D01*
X34500000Y-29500000D02*
X33500000Y-28500000D01*
X33500000Y-28500000D02*
X25500000Y-28500000D01*
%TO.N,/CLK_I*%
X34000000Y-33050000D02*
X34000000Y-29707106D01*
X33292894Y-29000000D02*
X28000000Y-29000000D01*
X28000000Y-29000000D02*
X26970000Y-30030000D01*
X26970000Y-30030000D02*
X26970000Y-31120000D01*
X38700287Y-42330287D02*
X39290000Y-42920000D01*
X34000000Y-29707106D02*
X33292894Y-29000000D01*
X38025000Y-38736701D02*
X38025000Y-40700000D01*
X36850000Y-35900000D02*
X34000000Y-33050000D01*
X36850000Y-35900000D02*
G75*
G02*
X38025000Y-38736701I-2836700J-2836700D01*
G01*
X38025000Y-40700000D02*
G75*
G03*
X38700282Y-42330292I2305600J0D01*
G01*
%TD*%
%TA.AperFunction,Conductor*%
%TO.N,VBUS*%
G36*
X21666121Y-3252953D02*
G01*
X21666134Y-3252736D01*
X21679731Y-3253489D01*
X21687544Y-3254485D01*
X21695820Y-3255077D01*
X21709545Y-3257050D01*
X21709511Y-3257286D01*
X21750443Y-3262505D01*
X21755972Y-3263616D01*
X21889820Y-3311128D01*
X22004860Y-3394425D01*
X22091772Y-3506759D01*
X22091916Y-3507013D01*
X22094537Y-3511643D01*
X22125182Y-3576150D01*
X22125393Y-3576691D01*
X22157644Y-3715011D01*
X22159500Y-3757999D01*
X22159500Y-3797871D01*
X22159501Y-3797879D01*
X22165908Y-3857481D01*
X22165909Y-3857484D01*
X22216202Y-3992326D01*
X22216206Y-3992334D01*
X22246946Y-4033397D01*
X22315015Y-4158054D01*
X22339139Y-4247174D01*
X22345099Y-4281541D01*
X22349785Y-4408901D01*
X22350101Y-4408917D01*
X22349920Y-4412583D01*
X22350036Y-4415713D01*
X22349500Y-4421155D01*
X22349500Y-4578843D01*
X22380262Y-4733494D01*
X22380318Y-4733674D01*
X22381400Y-4736243D01*
X22440605Y-4879178D01*
X22440611Y-4879189D01*
X22528199Y-5010274D01*
X22528203Y-5010279D01*
X22528206Y-5010283D01*
X22528212Y-5010290D01*
X22639709Y-5121787D01*
X22639716Y-5121793D01*
X22639720Y-5121796D01*
X22639724Y-5121799D01*
X22770816Y-5209391D01*
X22770821Y-5209394D01*
X22916503Y-5269737D01*
X23071158Y-5300500D01*
X23071162Y-5300500D01*
X23228838Y-5300500D01*
X23228842Y-5300500D01*
X23383497Y-5269737D01*
X23529179Y-5209394D01*
X23660289Y-5121789D01*
X23771789Y-5010289D01*
X23859394Y-4879179D01*
X23919737Y-4733497D01*
X23950500Y-4578842D01*
X23950500Y-4421158D01*
X23950500Y-4415726D01*
X23950997Y-4393471D01*
X23953491Y-4337606D01*
X23979953Y-4198063D01*
X24044658Y-4071628D01*
X24052495Y-4060860D01*
X24103796Y-3992331D01*
X24154091Y-3857483D01*
X24160500Y-3797873D01*
X24160499Y-3760118D01*
X24168590Y-3703839D01*
X24169270Y-3674063D01*
X24175831Y-3653467D01*
X24180709Y-3619538D01*
X24211886Y-3540295D01*
X24212384Y-3538735D01*
X24213005Y-3537452D01*
X24213283Y-3536747D01*
X24214413Y-3534488D01*
X24214947Y-3533450D01*
X24215088Y-3533140D01*
X24216748Y-3529825D01*
X24255441Y-3474096D01*
X24293402Y-3417893D01*
X24295899Y-3415826D01*
X24297752Y-3413159D01*
X24350589Y-3370581D01*
X24402836Y-3327357D01*
X24405817Y-3326076D01*
X24408344Y-3324041D01*
X24471026Y-3298077D01*
X24526045Y-3274454D01*
X24525764Y-3273496D01*
X24536945Y-3270213D01*
X24539020Y-3269914D01*
X24539563Y-3269690D01*
X24543603Y-3269255D01*
X24677528Y-3250000D01*
X26564810Y-3250000D01*
X26635809Y-3255076D01*
X26667554Y-3259640D01*
X26803826Y-3299650D01*
X26923311Y-3376435D01*
X27016324Y-3483772D01*
X27075325Y-3612953D01*
X27079280Y-3626420D01*
X27099500Y-3767004D01*
X27099500Y-4286675D01*
X27102171Y-4312823D01*
X27104276Y-4333422D01*
X27104276Y-4333430D01*
X27104277Y-4333430D01*
X27104277Y-4333431D01*
X27105094Y-4341430D01*
X27109825Y-4387749D01*
X27109825Y-4387751D01*
X27109826Y-4387753D01*
X27164092Y-4551516D01*
X27254660Y-4698350D01*
X27376650Y-4820340D01*
X27523484Y-4910908D01*
X27687247Y-4965174D01*
X27788323Y-4975500D01*
X28461676Y-4975499D01*
X28562753Y-4965174D01*
X28726516Y-4910908D01*
X28873350Y-4820340D01*
X28995340Y-4698350D01*
X29085908Y-4551516D01*
X29140174Y-4387753D01*
X29150500Y-4286677D01*
X29150499Y-3784689D01*
X29155578Y-3713673D01*
X29160141Y-3681937D01*
X29200156Y-3545660D01*
X29276943Y-3426177D01*
X29384283Y-3333167D01*
X29513475Y-3274167D01*
X29517577Y-3272962D01*
X29526975Y-3270204D01*
X29667528Y-3250000D01*
X32216964Y-3250000D01*
X32287971Y-3255078D01*
X32299598Y-3256749D01*
X32321021Y-3259829D01*
X32457296Y-3299841D01*
X32576781Y-3376626D01*
X32668721Y-3482304D01*
X32686024Y-3508994D01*
X32719560Y-3569549D01*
X32808086Y-3759393D01*
X32860805Y-3872450D01*
X32861364Y-3873468D01*
X32862902Y-3876081D01*
X32996539Y-4107546D01*
X33048799Y-4198063D01*
X33057909Y-4213841D01*
X33057924Y-4213865D01*
X33284032Y-4536783D01*
X33284044Y-4536797D01*
X33449096Y-4733497D01*
X33537444Y-4838786D01*
X33537449Y-4838791D01*
X33666327Y-4967669D01*
X33666352Y-4967696D01*
X33748924Y-5050269D01*
X33748928Y-5050272D01*
X33748934Y-5050277D01*
X33748937Y-5050280D01*
X33829544Y-5105497D01*
X33917197Y-5165541D01*
X33967788Y-5187879D01*
X34061513Y-5246457D01*
X34302298Y-5294614D01*
X34302304Y-5294616D01*
X34302303Y-5294616D01*
X34302308Y-5294617D01*
X34506043Y-5304036D01*
X34708040Y-5275858D01*
X34724609Y-5270304D01*
X34793547Y-5252554D01*
X34826838Y-5246475D01*
X34968766Y-5241106D01*
X35106445Y-5275935D01*
X35123316Y-5282881D01*
X35232369Y-5344828D01*
X35237669Y-5348796D01*
X35372517Y-5399091D01*
X35432127Y-5405500D01*
X35894808Y-5405499D01*
X35965823Y-5410578D01*
X35997560Y-5415141D01*
X36133837Y-5455155D01*
X36253320Y-5531942D01*
X36346331Y-5639281D01*
X36405330Y-5768467D01*
X36409284Y-5781932D01*
X36429500Y-5922516D01*
X36429500Y-6050562D01*
X36424420Y-6121582D01*
X36419496Y-6155827D01*
X36379481Y-6292103D01*
X36379475Y-6292115D01*
X36376314Y-6299036D01*
X36310958Y-6404833D01*
X36300130Y-6418270D01*
X36264440Y-6458002D01*
X36258222Y-6464219D01*
X36258200Y-6464245D01*
X36170611Y-6595331D01*
X36170603Y-6595345D01*
X36110263Y-6741024D01*
X36110261Y-6741028D01*
X36079500Y-6895678D01*
X36079500Y-7053365D01*
X36110262Y-7208016D01*
X36110318Y-7208196D01*
X36111430Y-7210835D01*
X36170605Y-7353700D01*
X36170611Y-7353711D01*
X36258199Y-7484796D01*
X36258203Y-7484801D01*
X36258206Y-7484805D01*
X36258212Y-7484812D01*
X36369709Y-7596309D01*
X36369716Y-7596315D01*
X36369720Y-7596318D01*
X36369724Y-7596321D01*
X36500816Y-7683913D01*
X36500821Y-7683916D01*
X36646503Y-7744259D01*
X36801158Y-7775022D01*
X36801162Y-7775022D01*
X36958837Y-7775022D01*
X36958838Y-7775022D01*
X36958842Y-7775022D01*
X37113497Y-7744259D01*
X37113502Y-7744256D01*
X37116191Y-7743722D01*
X37126156Y-7740940D01*
X37137248Y-7738108D01*
X37137249Y-7738109D01*
X37182145Y-7726650D01*
X37323355Y-7711468D01*
X37330995Y-7711741D01*
X37453731Y-7731633D01*
X37472998Y-7737291D01*
X37487643Y-7741591D01*
X37490448Y-7742424D01*
X37490498Y-7742439D01*
X37490494Y-7742449D01*
X37492201Y-7742952D01*
X37496499Y-7744257D01*
X37496503Y-7744259D01*
X37496506Y-7744259D01*
X37513592Y-7749449D01*
X37518581Y-7750675D01*
X37573311Y-7766745D01*
X37587227Y-7765846D01*
X37645546Y-7773905D01*
X37651158Y-7775022D01*
X37651162Y-7775022D01*
X37808838Y-7775022D01*
X37808842Y-7775022D01*
X37963497Y-7744259D01*
X38109179Y-7683916D01*
X38240289Y-7596311D01*
X38351789Y-7484811D01*
X38439394Y-7353701D01*
X38499737Y-7208019D01*
X38530500Y-7053364D01*
X38530500Y-6895680D01*
X38499737Y-6741025D01*
X38439394Y-6595343D01*
X38439391Y-6595338D01*
X38439386Y-6595331D01*
X38351799Y-6464246D01*
X38351796Y-6464242D01*
X38351793Y-6464238D01*
X38351787Y-6464231D01*
X38351775Y-6464219D01*
X38345275Y-6457199D01*
X38345514Y-6456976D01*
X38305271Y-6410534D01*
X38284534Y-6382833D01*
X38216469Y-6258185D01*
X38213803Y-6251038D01*
X38185203Y-6129997D01*
X38183356Y-6112824D01*
X38180500Y-6059501D01*
X38180500Y-5757934D01*
X38185579Y-5686920D01*
X38190026Y-5655990D01*
X38213335Y-5561096D01*
X38242719Y-5477747D01*
X38249171Y-5459444D01*
X38314975Y-5333581D01*
X38413575Y-5231352D01*
X38536982Y-5161044D01*
X38675198Y-5128351D01*
X38817024Y-5135921D01*
X38824938Y-5137494D01*
X38826477Y-5137800D01*
X38934320Y-5172328D01*
X38940018Y-5174897D01*
X38977711Y-5193849D01*
X39008581Y-5211044D01*
X39008587Y-5211046D01*
X39008586Y-5211046D01*
X39069173Y-5231352D01*
X39074066Y-5232992D01*
X39193629Y-5273066D01*
X39201087Y-5275713D01*
X39201943Y-5275852D01*
X39201950Y-5275855D01*
X39201953Y-5275855D01*
X39201961Y-5275858D01*
X39202061Y-5275872D01*
X39207681Y-5276789D01*
X39207684Y-5276790D01*
X39207704Y-5276793D01*
X39227611Y-5280040D01*
X39236237Y-5280639D01*
X39403958Y-5304036D01*
X39607693Y-5294616D01*
X39806228Y-5247921D01*
X39992803Y-5165540D01*
X40161063Y-5050279D01*
X40233171Y-4978171D01*
X40372554Y-4838788D01*
X40625962Y-4536788D01*
X40852085Y-4213851D01*
X41049201Y-3872435D01*
X41190021Y-3570443D01*
X41224630Y-3508241D01*
X41242909Y-3480288D01*
X41336768Y-3373696D01*
X41456858Y-3297861D01*
X41591486Y-3259202D01*
X41618594Y-3255414D01*
X41623002Y-3254799D01*
X41692043Y-3250000D01*
X41963232Y-3250000D01*
X41987709Y-3250601D01*
X42012164Y-3251802D01*
X42036572Y-3253602D01*
X42051567Y-3255079D01*
X42121803Y-3261996D01*
X42170198Y-3269174D01*
X42218077Y-3278697D01*
X42265555Y-3290589D01*
X42312207Y-3304741D01*
X42358299Y-3321233D01*
X42403401Y-3339915D01*
X42447636Y-3360838D01*
X42490621Y-3383814D01*
X42532611Y-3408983D01*
X42573186Y-3436095D01*
X42612511Y-3465260D01*
X42650168Y-3496165D01*
X42686449Y-3529048D01*
X42720950Y-3563549D01*
X42753834Y-3599831D01*
X42770008Y-3619538D01*
X42784737Y-3637486D01*
X42813903Y-3676812D01*
X42841015Y-3717387D01*
X42866187Y-3759384D01*
X42886761Y-3797873D01*
X42889152Y-3802346D01*
X42910088Y-3846611D01*
X42928762Y-3891693D01*
X42945263Y-3937809D01*
X42959406Y-3984434D01*
X42971302Y-4031929D01*
X42980818Y-4079768D01*
X42988004Y-4128206D01*
X42996396Y-4213406D01*
X42998198Y-4237832D01*
X42999399Y-4262276D01*
X43000000Y-4286764D01*
X43000000Y-12500002D01*
X43019215Y-12695094D01*
X43076116Y-12882675D01*
X43076117Y-12882678D01*
X43076118Y-12882679D01*
X43076119Y-12882681D01*
X43168529Y-13055569D01*
X43292892Y-13207107D01*
X43396539Y-13292167D01*
X43444427Y-13331468D01*
X43444428Y-13331468D01*
X43444430Y-13331470D01*
X43617317Y-13423880D01*
X43804910Y-13480785D01*
X43957369Y-13495801D01*
X43999998Y-13500000D01*
X44000000Y-13500000D01*
X47989810Y-13500000D01*
X48060809Y-13505076D01*
X48092554Y-13509640D01*
X48228826Y-13549650D01*
X48348311Y-13626435D01*
X48441324Y-13733772D01*
X48500325Y-13862953D01*
X48504280Y-13876420D01*
X48524500Y-14017004D01*
X48524500Y-22465310D01*
X48519420Y-22536328D01*
X48514857Y-22568063D01*
X48474842Y-22704340D01*
X48398054Y-22823823D01*
X48290714Y-22916832D01*
X48161546Y-22975825D01*
X48148079Y-22979780D01*
X48007495Y-23000000D01*
X34950981Y-23000000D01*
X34926479Y-22999398D01*
X34902029Y-22998196D01*
X34877629Y-22996396D01*
X34846011Y-22993282D01*
X34839740Y-22992664D01*
X34839730Y-22992662D01*
X34839723Y-22992663D01*
X34792419Y-22988003D01*
X34743993Y-22980820D01*
X34696136Y-22971301D01*
X34648631Y-22959401D01*
X34602021Y-22945262D01*
X34555916Y-22928766D01*
X34533373Y-22919428D01*
X34510826Y-22910089D01*
X34466556Y-22889150D01*
X34423600Y-22866189D01*
X34381601Y-22841016D01*
X34341040Y-22813914D01*
X34301710Y-22784745D01*
X34235514Y-22730420D01*
X34216976Y-22714429D01*
X34198825Y-22697977D01*
X34181128Y-22681128D01*
X32792908Y-21292907D01*
X32792886Y-21292887D01*
X32792882Y-21292883D01*
X32641357Y-21168530D01*
X32641356Y-21168529D01*
X32468468Y-21076119D01*
X32468466Y-21076118D01*
X32468465Y-21076117D01*
X32468462Y-21076116D01*
X32280881Y-21019215D01*
X32085790Y-21000000D01*
X32085788Y-21000000D01*
X32085786Y-21000000D01*
X20786768Y-21000000D01*
X20762266Y-20999398D01*
X20737816Y-20998196D01*
X20713413Y-20996396D01*
X20691508Y-20994238D01*
X20659684Y-20991104D01*
X20659680Y-20991103D01*
X20659677Y-20991103D01*
X20628202Y-20988003D01*
X20579768Y-20980818D01*
X20531929Y-20971302D01*
X20484434Y-20959406D01*
X20452479Y-20949713D01*
X20437805Y-20945261D01*
X20391693Y-20928762D01*
X20346611Y-20910088D01*
X20302352Y-20889155D01*
X20259384Y-20866187D01*
X20217387Y-20841015D01*
X20176812Y-20813903D01*
X20137486Y-20784737D01*
X20099835Y-20753838D01*
X20063549Y-20720950D01*
X20029048Y-20686449D01*
X19996160Y-20650163D01*
X19965261Y-20612512D01*
X19936095Y-20573186D01*
X19908983Y-20532611D01*
X19883814Y-20490621D01*
X19860838Y-20447636D01*
X19839912Y-20403393D01*
X19821233Y-20358299D01*
X19804735Y-20312188D01*
X19790592Y-20265561D01*
X19778694Y-20218061D01*
X19769177Y-20170211D01*
X19761994Y-20121781D01*
X19753602Y-20036569D01*
X19751802Y-20012163D01*
X19750601Y-19987709D01*
X19750000Y-19963231D01*
X19750000Y-17036767D01*
X19750601Y-17012289D01*
X19751802Y-16987835D01*
X19753604Y-16963405D01*
X19761996Y-16878201D01*
X19769172Y-16829814D01*
X19778700Y-16781907D01*
X19790586Y-16734455D01*
X19804742Y-16687785D01*
X19821229Y-16641707D01*
X19839921Y-16596582D01*
X19860832Y-16552374D01*
X19883822Y-16509362D01*
X19908976Y-16467398D01*
X19936093Y-16426814D01*
X19965244Y-16387506D01*
X19996181Y-16349810D01*
X20029043Y-16313553D01*
X20063553Y-16279043D01*
X20099810Y-16246181D01*
X20137506Y-16215244D01*
X20176814Y-16186093D01*
X20217408Y-16158969D01*
X20259369Y-16133818D01*
X20261634Y-16132607D01*
X20261641Y-16132605D01*
X20261641Y-16132604D01*
X20261643Y-16132603D01*
X20302365Y-16110836D01*
X20346610Y-16089910D01*
X20391693Y-16071235D01*
X20437794Y-16054740D01*
X20484432Y-16040593D01*
X20531925Y-16028697D01*
X20543746Y-16026345D01*
X20579785Y-16019177D01*
X20628200Y-16011995D01*
X20750000Y-16000000D01*
X20945090Y-15980785D01*
X21132683Y-15923880D01*
X21305570Y-15831470D01*
X21457107Y-15707107D01*
X21581470Y-15555570D01*
X21673880Y-15382683D01*
X21730785Y-15195090D01*
X21750000Y-15000000D01*
X21750000Y-10500000D01*
X21744788Y-10447082D01*
X21744638Y-10445554D01*
X21742235Y-10421158D01*
X26349500Y-10421158D01*
X26349500Y-10578842D01*
X26380263Y-10733497D01*
X26430912Y-10855778D01*
X26440231Y-10912953D01*
X26440345Y-10919065D01*
X26442140Y-10925698D01*
X26444911Y-10945988D01*
X26449500Y-11013510D01*
X26449500Y-13764403D01*
X26444420Y-13835425D01*
X26436560Y-13890087D01*
X26403664Y-14010004D01*
X26392627Y-14036653D01*
X26392620Y-14036671D01*
X26380263Y-14066502D01*
X26380262Y-14066505D01*
X26349500Y-14221158D01*
X26349500Y-14378843D01*
X26380262Y-14533494D01*
X26380318Y-14533674D01*
X26381430Y-14536313D01*
X26440605Y-14679178D01*
X26440611Y-14679189D01*
X26528199Y-14810274D01*
X26528203Y-14810279D01*
X26528206Y-14810283D01*
X26528212Y-14810290D01*
X26639709Y-14921787D01*
X26639716Y-14921793D01*
X26639720Y-14921796D01*
X26639724Y-14921799D01*
X26740400Y-14989068D01*
X26770816Y-15009391D01*
X26770821Y-15009394D01*
X26916503Y-15069737D01*
X27071158Y-15100500D01*
X27071162Y-15100500D01*
X27228637Y-15100500D01*
X27228838Y-15100500D01*
X27228842Y-15100500D01*
X27383497Y-15069737D01*
X27383511Y-15069730D01*
X27397282Y-15065553D01*
X27407221Y-15063494D01*
X27407809Y-15065433D01*
X27450671Y-15054490D01*
X27461797Y-15052185D01*
X27521437Y-15048510D01*
X27580821Y-15042122D01*
X27588452Y-15042394D01*
X27597340Y-15043835D01*
X27603559Y-15043452D01*
X27624678Y-15048265D01*
X27711216Y-15062288D01*
X27717577Y-15064156D01*
X27717577Y-15064155D01*
X27815377Y-15092872D01*
X27833330Y-15091674D01*
X27892723Y-15099816D01*
X27896158Y-15100500D01*
X27896162Y-15100500D01*
X28053838Y-15100500D01*
X28053842Y-15100500D01*
X28208497Y-15069737D01*
X28354179Y-15009394D01*
X28485289Y-14921789D01*
X28596789Y-14810289D01*
X28684394Y-14679179D01*
X28744737Y-14533497D01*
X28775500Y-14378842D01*
X28775500Y-14221158D01*
X28744737Y-14066503D01*
X28727139Y-14024018D01*
X28704660Y-13956479D01*
X28690998Y-13902953D01*
X28675500Y-13779554D01*
X28675500Y-13463322D01*
X33937000Y-13463322D01*
X33937000Y-14036677D01*
X33945409Y-14118999D01*
X33947325Y-14137752D01*
X33947327Y-14137758D01*
X34001590Y-14301512D01*
X34001591Y-14301513D01*
X34001592Y-14301516D01*
X34062646Y-14400500D01*
X34092161Y-14448351D01*
X34128137Y-14484327D01*
X34149382Y-14512638D01*
X34149473Y-14512805D01*
X34149728Y-14513099D01*
X34165130Y-14533674D01*
X34170463Y-14540797D01*
X34238529Y-14665446D01*
X34243033Y-14677522D01*
X34273228Y-14816302D01*
X34274500Y-14851914D01*
X34274500Y-14989068D01*
X34292290Y-15078505D01*
X34292292Y-15078512D01*
X34296666Y-15100500D01*
X34299499Y-15114744D01*
X34301233Y-15118930D01*
X34311415Y-15143512D01*
X34311418Y-15143522D01*
X34348530Y-15233119D01*
X34348532Y-15233122D01*
X34348533Y-15233124D01*
X34400304Y-15310607D01*
X34419723Y-15339669D01*
X34419725Y-15339671D01*
X34419729Y-15339676D01*
X35596867Y-16516814D01*
X35596869Y-16516815D01*
X35605331Y-16525277D01*
X35612814Y-16530276D01*
X35612832Y-16530293D01*
X35612834Y-16530290D01*
X35711874Y-16596466D01*
X35799502Y-16632763D01*
X35813915Y-16638733D01*
X35827582Y-16644970D01*
X35830262Y-16645503D01*
X35830264Y-16645504D01*
X35955926Y-16670500D01*
X35955929Y-16670500D01*
X35955932Y-16670501D01*
X40599955Y-16670501D01*
X40670961Y-16675579D01*
X40689416Y-16678232D01*
X40715309Y-16681955D01*
X40833195Y-16714011D01*
X40848129Y-16720119D01*
X40870577Y-16729300D01*
X40872569Y-16730119D01*
X41016503Y-16789738D01*
X41171158Y-16820501D01*
X41171162Y-16820501D01*
X41328838Y-16820501D01*
X41328842Y-16820501D01*
X41483497Y-16789738D01*
X41629179Y-16729395D01*
X41760289Y-16641790D01*
X41871789Y-16530290D01*
X41959394Y-16399180D01*
X42019737Y-16253498D01*
X42050500Y-16098843D01*
X42050500Y-15941159D01*
X42019737Y-15786504D01*
X41959394Y-15640822D01*
X41959391Y-15640817D01*
X41902431Y-15555570D01*
X41871799Y-15509725D01*
X41871796Y-15509721D01*
X41871793Y-15509717D01*
X41871787Y-15509710D01*
X41760290Y-15398213D01*
X41760283Y-15398207D01*
X41760277Y-15398203D01*
X41760269Y-15398196D01*
X41748386Y-15389184D01*
X41749279Y-15388006D01*
X41676513Y-15322645D01*
X41483501Y-15250265D01*
X41483493Y-15250262D01*
X41328843Y-15219501D01*
X41328842Y-15219501D01*
X41171158Y-15219501D01*
X41016614Y-15250241D01*
X41016495Y-15250265D01*
X40971344Y-15268967D01*
X40971329Y-15268974D01*
X40919878Y-15290287D01*
X40881279Y-15306275D01*
X40860522Y-15314335D01*
X40795207Y-15338034D01*
X40676141Y-15365330D01*
X40666111Y-15366363D01*
X40661150Y-15366874D01*
X40610019Y-15369501D01*
X39814571Y-15369501D01*
X39752109Y-15360520D01*
X39716432Y-15360522D01*
X39682179Y-15350465D01*
X39673986Y-15349288D01*
X39666460Y-15345851D01*
X39580153Y-15320513D01*
X39460667Y-15243730D01*
X39367652Y-15136395D01*
X39308646Y-15007202D01*
X39288427Y-14866618D01*
X39308634Y-14726033D01*
X39367631Y-14596835D01*
X39375981Y-14583841D01*
X39442937Y-14500752D01*
X39459154Y-14484536D01*
X39495340Y-14448350D01*
X39585908Y-14301516D01*
X39640174Y-14137753D01*
X39650500Y-14036677D01*
X39650499Y-13463324D01*
X39640174Y-13362247D01*
X39585908Y-13198484D01*
X39495340Y-13051650D01*
X39373350Y-12929660D01*
X39293304Y-12880287D01*
X39226512Y-12839089D01*
X39128026Y-12806454D01*
X39062758Y-12784827D01*
X39062753Y-12784826D01*
X39062748Y-12784825D01*
X39062741Y-12784824D01*
X38961677Y-12774500D01*
X38961676Y-12774500D01*
X38288324Y-12774500D01*
X38288323Y-12774500D01*
X38261092Y-12777281D01*
X38196615Y-12783868D01*
X38196587Y-12783870D01*
X38187248Y-12784825D01*
X38150961Y-12796849D01*
X38132659Y-12802914D01*
X38095836Y-12815116D01*
X38023480Y-12839092D01*
X37973848Y-12869705D01*
X37973849Y-12869706D01*
X37961092Y-12877575D01*
X37961082Y-12877579D01*
X37897977Y-12910536D01*
X37868570Y-12923314D01*
X37834157Y-12932730D01*
X37830828Y-12934177D01*
X37827224Y-12934627D01*
X37731577Y-12960798D01*
X37589571Y-12958168D01*
X37454059Y-12915637D01*
X37401230Y-12880287D01*
X37399358Y-12883296D01*
X37362064Y-12860076D01*
X37358124Y-12858497D01*
X37353117Y-12856490D01*
X37327906Y-12845569D01*
X37314013Y-12839090D01*
X37150258Y-12784827D01*
X37150253Y-12784826D01*
X37150250Y-12784825D01*
X37150241Y-12784824D01*
X37049177Y-12774500D01*
X37049176Y-12774500D01*
X36450824Y-12774500D01*
X36450823Y-12774500D01*
X36423592Y-12777281D01*
X36359115Y-12783868D01*
X36359087Y-12783870D01*
X36349748Y-12784825D01*
X36313461Y-12796849D01*
X36295159Y-12802914D01*
X36258336Y-12815116D01*
X36185980Y-12839092D01*
X36136339Y-12869712D01*
X36129873Y-12873701D01*
X36066713Y-12906688D01*
X36037306Y-12919464D01*
X36002924Y-12928870D01*
X35999600Y-12930315D01*
X35995998Y-12930765D01*
X35900310Y-12956944D01*
X35758305Y-12954310D01*
X35622793Y-12911775D01*
X35576724Y-12880947D01*
X35575779Y-12882572D01*
X35527426Y-12854422D01*
X35489448Y-12839293D01*
X35489021Y-12839093D01*
X35489013Y-12839090D01*
X35325258Y-12784827D01*
X35325253Y-12784826D01*
X35325250Y-12784825D01*
X35325241Y-12784824D01*
X35224177Y-12774500D01*
X35224176Y-12774500D01*
X34625824Y-12774500D01*
X34625823Y-12774500D01*
X34598592Y-12777281D01*
X34534115Y-12783868D01*
X34534087Y-12783870D01*
X34524749Y-12784825D01*
X34360984Y-12839091D01*
X34360982Y-12839092D01*
X34214145Y-12929662D01*
X34214145Y-12929663D01*
X34092163Y-13051644D01*
X34087178Y-13058560D01*
X34080493Y-13070564D01*
X34032212Y-13148841D01*
X34032209Y-13148844D01*
X34032208Y-13148847D01*
X34001590Y-13198484D01*
X33947327Y-13362242D01*
X33947324Y-13362259D01*
X33937000Y-13463322D01*
X28675500Y-13463322D01*
X28675500Y-12546158D01*
X30074500Y-12546158D01*
X30074500Y-12703842D01*
X30105263Y-12858497D01*
X30105266Y-12858504D01*
X30165605Y-13004178D01*
X30165608Y-13004183D01*
X30184948Y-13033128D01*
X30184949Y-13033130D01*
X30253199Y-13135274D01*
X30253203Y-13135279D01*
X30253206Y-13135283D01*
X30253212Y-13135290D01*
X30364709Y-13246787D01*
X30364716Y-13246793D01*
X30364720Y-13246796D01*
X30364724Y-13246799D01*
X30491441Y-13331468D01*
X30495816Y-13334391D01*
X30495821Y-13334394D01*
X30641503Y-13394737D01*
X30796158Y-13425500D01*
X30796162Y-13425500D01*
X30953838Y-13425500D01*
X30953842Y-13425500D01*
X31108497Y-13394737D01*
X31254179Y-13334394D01*
X31385289Y-13246789D01*
X31496789Y-13135289D01*
X31584394Y-13004179D01*
X31644737Y-12858497D01*
X31649272Y-12835689D01*
X31678808Y-12781205D01*
X31684144Y-12774030D01*
X31688530Y-12764085D01*
X31690232Y-12761221D01*
X31739024Y-12692934D01*
X31743703Y-12687431D01*
X31743735Y-12687387D01*
X31743952Y-12687115D01*
X31763122Y-12664337D01*
X31771596Y-12654857D01*
X31776088Y-12651084D01*
X31806499Y-12619519D01*
X31992162Y-12449391D01*
X32008454Y-12435103D01*
X32025127Y-12421112D01*
X32042071Y-12407514D01*
X32294090Y-12214132D01*
X32311589Y-12201301D01*
X32329474Y-12188778D01*
X32347450Y-12176768D01*
X32615413Y-12006056D01*
X32633913Y-11994830D01*
X32652876Y-11983882D01*
X32671819Y-11973489D01*
X32953635Y-11826786D01*
X32973048Y-11817212D01*
X32992804Y-11807999D01*
X33012709Y-11799241D01*
X33306164Y-11677687D01*
X33326430Y-11669805D01*
X33346869Y-11662366D01*
X33367414Y-11655392D01*
X33670362Y-11559873D01*
X33691239Y-11553788D01*
X33712238Y-11548161D01*
X33733348Y-11542995D01*
X33757568Y-11537625D01*
X33827985Y-11527217D01*
X33862482Y-11524612D01*
X34004181Y-11534180D01*
X34013456Y-11536159D01*
X34127635Y-11575469D01*
X34139943Y-11581458D01*
X34183571Y-11605449D01*
X34273484Y-11660908D01*
X34437247Y-11715174D01*
X34538323Y-11725500D01*
X35136676Y-11725499D01*
X35237753Y-11715174D01*
X35401516Y-11660908D01*
X35457661Y-11626276D01*
X35520757Y-11593323D01*
X35551795Y-11579837D01*
X35688782Y-11542351D01*
X35830783Y-11544975D01*
X35833355Y-11545394D01*
X35960399Y-11583993D01*
X35983713Y-11594640D01*
X36038385Y-11623839D01*
X36072091Y-11644628D01*
X36098484Y-11660908D01*
X36262247Y-11715174D01*
X36363323Y-11725500D01*
X36961676Y-11725499D01*
X37062753Y-11715174D01*
X37226516Y-11660908D01*
X37332670Y-11595431D01*
X37395765Y-11562479D01*
X37426801Y-11548994D01*
X37563791Y-11511510D01*
X37705797Y-11514138D01*
X37705812Y-11514140D01*
X37708355Y-11514554D01*
X37835400Y-11553153D01*
X37858714Y-11563800D01*
X37913386Y-11592999D01*
X37937736Y-11608018D01*
X38023484Y-11660908D01*
X38187247Y-11715174D01*
X38288323Y-11725500D01*
X38961676Y-11725499D01*
X39062753Y-11715174D01*
X39226516Y-11660908D01*
X39373350Y-11570340D01*
X39495340Y-11448350D01*
X39585908Y-11301516D01*
X39640174Y-11137753D01*
X39650500Y-11036677D01*
X39650499Y-10463324D01*
X39640174Y-10362247D01*
X39585908Y-10198484D01*
X39495340Y-10051650D01*
X39373350Y-9929660D01*
X39307754Y-9889200D01*
X39226512Y-9839089D01*
X39128026Y-9806454D01*
X39062758Y-9784827D01*
X39062753Y-9784826D01*
X39062748Y-9784825D01*
X39062741Y-9784824D01*
X38961677Y-9774500D01*
X38961676Y-9774500D01*
X38288324Y-9774500D01*
X38288323Y-9774500D01*
X38261092Y-9777281D01*
X38196615Y-9783868D01*
X38196587Y-9783870D01*
X38187247Y-9784825D01*
X38182860Y-9786279D01*
X38182852Y-9786282D01*
X38162906Y-9792892D01*
X38023482Y-9839092D01*
X38023481Y-9839093D01*
X37942249Y-9889197D01*
X37942243Y-9889200D01*
X37917342Y-9904560D01*
X37854222Y-9937524D01*
X37823189Y-9951007D01*
X37686194Y-9988489D01*
X37544226Y-9985863D01*
X37541767Y-9985463D01*
X37414599Y-9946846D01*
X37391279Y-9936196D01*
X37336615Y-9907001D01*
X37285317Y-9875360D01*
X37226518Y-9839093D01*
X37226512Y-9839090D01*
X37062758Y-9784827D01*
X37062753Y-9784826D01*
X37062750Y-9784825D01*
X37062741Y-9784824D01*
X36961677Y-9774500D01*
X36961676Y-9774500D01*
X36363324Y-9774500D01*
X36363323Y-9774500D01*
X36336092Y-9777281D01*
X36271615Y-9783868D01*
X36271587Y-9783870D01*
X36262247Y-9784825D01*
X36258673Y-9786009D01*
X36258659Y-9786014D01*
X36237906Y-9792892D01*
X36098482Y-9839092D01*
X36098481Y-9839093D01*
X36011962Y-9892459D01*
X35978999Y-9906780D01*
X35978689Y-9906915D01*
X35948188Y-9920167D01*
X35811192Y-9957649D01*
X35669186Y-9955017D01*
X35669162Y-9955013D01*
X35666705Y-9954613D01*
X35539605Y-9916008D01*
X35516290Y-9905361D01*
X35461610Y-9876158D01*
X35401523Y-9839096D01*
X35401514Y-9839091D01*
X35401512Y-9839090D01*
X35237758Y-9784827D01*
X35237753Y-9784826D01*
X35237750Y-9784825D01*
X35237741Y-9784824D01*
X35136677Y-9774500D01*
X35136676Y-9774500D01*
X34538324Y-9774500D01*
X34538323Y-9774500D01*
X34511092Y-9777281D01*
X34446615Y-9783868D01*
X34446587Y-9783870D01*
X34437249Y-9784825D01*
X34273488Y-9839090D01*
X34273480Y-9839093D01*
X34126647Y-9929660D01*
X34015143Y-10041164D01*
X33961349Y-10087777D01*
X33933656Y-10108509D01*
X33809001Y-10176580D01*
X33776062Y-10188865D01*
X33718186Y-10206535D01*
X33590928Y-10237087D01*
X33291771Y-10308908D01*
X32866517Y-10447081D01*
X32453427Y-10618188D01*
X32055006Y-10821193D01*
X31628623Y-11082480D01*
X31585200Y-11119166D01*
X31320166Y-11311723D01*
X31316139Y-11314526D01*
X31312027Y-11317636D01*
X30990825Y-11591969D01*
X30990816Y-11591977D01*
X30972040Y-11608014D01*
X30972035Y-11608018D01*
X30872621Y-11707431D01*
X30870508Y-11709496D01*
X30866774Y-11712222D01*
X30820845Y-11752020D01*
X30784982Y-11778864D01*
X30678965Y-11839543D01*
X30641380Y-11855307D01*
X30639337Y-11856158D01*
X30495836Y-11915598D01*
X30495823Y-11915604D01*
X30495812Y-11915609D01*
X30364723Y-12003200D01*
X30364702Y-12003218D01*
X30253218Y-12114702D01*
X30253199Y-12114724D01*
X30165611Y-12245809D01*
X30165603Y-12245823D01*
X30105263Y-12391502D01*
X30105261Y-12391506D01*
X30083681Y-12500001D01*
X30074500Y-12546158D01*
X28675500Y-12546158D01*
X28675500Y-11035596D01*
X28680577Y-10964592D01*
X28688439Y-10909913D01*
X28721343Y-10789972D01*
X28744737Y-10733497D01*
X28775500Y-10578842D01*
X28775500Y-10421158D01*
X28744737Y-10266503D01*
X28684394Y-10120821D01*
X28648029Y-10066397D01*
X28596793Y-9989716D01*
X28596787Y-9989709D01*
X28485290Y-9878212D01*
X28485283Y-9878206D01*
X28437085Y-9846001D01*
X28396710Y-9802129D01*
X28395522Y-9800397D01*
X28208501Y-9730264D01*
X28208493Y-9730261D01*
X28053843Y-9699500D01*
X28053842Y-9699500D01*
X27896158Y-9699500D01*
X27741503Y-9730263D01*
X27741500Y-9730264D01*
X27727731Y-9734441D01*
X27717778Y-9736503D01*
X27717191Y-9734568D01*
X27674346Y-9745502D01*
X27663198Y-9747813D01*
X27603541Y-9751487D01*
X27544134Y-9757874D01*
X27544125Y-9757873D01*
X27536516Y-9757601D01*
X27527641Y-9756162D01*
X27521437Y-9756545D01*
X27500368Y-9751743D01*
X27413764Y-9737709D01*
X27309566Y-9707115D01*
X27291781Y-9708313D01*
X27232105Y-9700149D01*
X27228845Y-9699500D01*
X27228842Y-9699500D01*
X27071158Y-9699500D01*
X26916614Y-9730240D01*
X26916495Y-9730264D01*
X26871334Y-9748971D01*
X26871329Y-9748972D01*
X26871330Y-9748973D01*
X26770822Y-9790604D01*
X26770809Y-9790611D01*
X26639724Y-9878199D01*
X26639702Y-9878218D01*
X26528218Y-9989702D01*
X26528199Y-9989724D01*
X26440611Y-10120809D01*
X26440603Y-10120823D01*
X26380263Y-10266502D01*
X26380261Y-10266506D01*
X26355314Y-10391925D01*
X26355314Y-10391927D01*
X26349500Y-10421158D01*
X21742235Y-10421158D01*
X21731179Y-10308913D01*
X21730785Y-10304910D01*
X21699309Y-10201147D01*
X21673882Y-10117322D01*
X21673880Y-10117318D01*
X21673880Y-10117317D01*
X21581470Y-9944430D01*
X21538819Y-9892459D01*
X21536144Y-9889200D01*
X21457107Y-9792892D01*
X21305574Y-9668533D01*
X21305573Y-9668532D01*
X21305569Y-9668529D01*
X21132681Y-9576119D01*
X21132679Y-9576118D01*
X21132678Y-9576117D01*
X21132675Y-9576116D01*
X20945097Y-9519216D01*
X20945093Y-9519215D01*
X20945092Y-9519215D01*
X20815030Y-9506405D01*
X20750000Y-9500000D01*
X20749999Y-9499999D01*
X20683653Y-9493464D01*
X20676405Y-9492751D01*
X20676404Y-9492750D01*
X20628209Y-9488004D01*
X20579768Y-9480818D01*
X20531929Y-9471302D01*
X20484434Y-9459406D01*
X20452479Y-9449713D01*
X20437805Y-9445261D01*
X20391693Y-9428762D01*
X20346611Y-9410088D01*
X20302352Y-9389155D01*
X20259384Y-9366187D01*
X20217387Y-9341015D01*
X20176812Y-9313903D01*
X20137486Y-9284737D01*
X20099835Y-9253838D01*
X20063549Y-9220950D01*
X20029048Y-9186449D01*
X19996160Y-9150163D01*
X19965261Y-9112512D01*
X19936095Y-9073186D01*
X19908983Y-9032611D01*
X19883814Y-8990621D01*
X19860838Y-8947636D01*
X19839912Y-8903393D01*
X19821233Y-8858299D01*
X19804735Y-8812188D01*
X19790592Y-8765561D01*
X19778694Y-8718061D01*
X19769177Y-8670211D01*
X19761994Y-8621781D01*
X19753602Y-8536569D01*
X19751802Y-8512163D01*
X19750601Y-8487709D01*
X19750000Y-8463231D01*
X19750000Y-4286767D01*
X19750601Y-4262289D01*
X19751802Y-4237835D01*
X19753604Y-4213405D01*
X19755115Y-4198063D01*
X19761996Y-4128201D01*
X19769172Y-4079814D01*
X19778700Y-4031907D01*
X19790586Y-3984455D01*
X19804742Y-3937785D01*
X19821229Y-3891707D01*
X19839921Y-3846582D01*
X19860832Y-3802374D01*
X19883822Y-3759362D01*
X19908976Y-3717398D01*
X19936095Y-3676812D01*
X19965244Y-3637506D01*
X19996181Y-3599810D01*
X20029048Y-3563549D01*
X20063553Y-3529043D01*
X20099810Y-3496181D01*
X20137506Y-3465244D01*
X20176811Y-3436095D01*
X20217396Y-3408977D01*
X20259375Y-3383816D01*
X20259396Y-3383805D01*
X20281704Y-3371881D01*
X20302365Y-3360836D01*
X20346606Y-3339911D01*
X20391696Y-3321234D01*
X20437794Y-3304740D01*
X20484432Y-3290593D01*
X20531922Y-3278698D01*
X20566227Y-3271874D01*
X20579775Y-3269179D01*
X20628200Y-3261995D01*
X20698433Y-3255079D01*
X20713439Y-3253601D01*
X20737836Y-3251802D01*
X20762292Y-3250601D01*
X20786768Y-3250000D01*
X21624817Y-3250000D01*
X21666121Y-3252953D01*
G37*
%TD.AperFunction*%
%TD*%
%TA.AperFunction,Conductor*%
%TO.N,GNDD*%
G36*
X18374357Y-30282D02*
G01*
X18410065Y-37384D01*
X18499823Y-74560D01*
X18499827Y-74563D01*
X18515248Y-84867D01*
X18515259Y-84874D01*
X18544796Y-104214D01*
X18577758Y-130001D01*
X18608109Y-158163D01*
X18636288Y-189108D01*
X18653119Y-211042D01*
X18671218Y-238128D01*
X18687399Y-266155D01*
X18701802Y-295362D01*
X18714170Y-325220D01*
X18724640Y-356064D01*
X18733016Y-387323D01*
X18739371Y-419267D01*
X18746365Y-472389D01*
X18746370Y-472432D01*
X18746811Y-475786D01*
X18748402Y-491951D01*
X18749466Y-508175D01*
X18750000Y-524470D01*
X18750000Y-8975528D01*
X18749466Y-8991821D01*
X18748402Y-9008047D01*
X18746806Y-9024255D01*
X18739371Y-9080730D01*
X18733016Y-9112678D01*
X18724640Y-9143936D01*
X18714170Y-9174778D01*
X18701802Y-9204636D01*
X18687400Y-9233840D01*
X18671220Y-9261866D01*
X18653120Y-9288955D01*
X18633443Y-9314598D01*
X18611970Y-9339084D01*
X18589084Y-9361970D01*
X18564598Y-9383443D01*
X18538955Y-9403120D01*
X18511866Y-9421220D01*
X18483840Y-9437400D01*
X18454636Y-9451802D01*
X18424778Y-9464170D01*
X18393932Y-9474641D01*
X18362672Y-9483017D01*
X18330732Y-9489370D01*
X18297011Y-9493810D01*
X18297003Y-9493811D01*
X18274251Y-9496806D01*
X18258044Y-9498403D01*
X18256121Y-9498529D01*
X18241805Y-9499467D01*
X18225525Y-9500000D01*
X17999998Y-9500000D01*
X17870591Y-9517035D01*
X17749993Y-9566989D01*
X17749992Y-9566989D01*
X17646455Y-9646439D01*
X17646439Y-9646455D01*
X17566989Y-9749992D01*
X17566989Y-9749993D01*
X17517036Y-9870590D01*
X17515336Y-9883503D01*
X17484105Y-9975502D01*
X17420046Y-10048546D01*
X17332910Y-10091516D01*
X17268466Y-10100000D01*
X17150000Y-10100000D01*
X17150000Y-15350000D01*
X17261884Y-15350000D01*
X17357172Y-15368954D01*
X17437954Y-15422930D01*
X17491930Y-15503712D01*
X17508754Y-15566500D01*
X17517035Y-15629407D01*
X17566989Y-15750005D01*
X17646447Y-15853553D01*
X17646490Y-15853595D01*
X17647545Y-15854395D01*
X17737060Y-15923085D01*
X17743194Y-15928464D01*
X17743207Y-15928473D01*
X17748915Y-15932564D01*
X17753929Y-15934640D01*
X17870590Y-15982963D01*
X17935295Y-15991481D01*
X17993528Y-15999148D01*
X17999998Y-16000000D01*
X17999999Y-16000000D01*
X18000000Y-16000000D01*
X18225527Y-16000000D01*
X18241788Y-16000531D01*
X18258063Y-16001598D01*
X18274241Y-16003191D01*
X18300069Y-16006590D01*
X18300076Y-16006593D01*
X18300077Y-16006592D01*
X18330732Y-16010628D01*
X18362670Y-16016981D01*
X18370677Y-16019126D01*
X18393931Y-16025357D01*
X18424779Y-16035829D01*
X18454645Y-16048201D01*
X18483842Y-16062599D01*
X18511867Y-16078778D01*
X18538945Y-16096870D01*
X18564606Y-16116561D01*
X18589084Y-16138028D01*
X18611969Y-16160913D01*
X18633445Y-16185403D01*
X18653122Y-16211047D01*
X18671216Y-16238126D01*
X18687397Y-16266152D01*
X18701802Y-16295362D01*
X18714170Y-16325220D01*
X18724640Y-16356062D01*
X18733016Y-16387320D01*
X18739371Y-16419268D01*
X18746806Y-16475743D01*
X18748402Y-16491951D01*
X18749466Y-16508177D01*
X18750000Y-16524470D01*
X18750000Y-21500002D01*
X18767035Y-21629406D01*
X18767035Y-21629407D01*
X18816989Y-21750005D01*
X18896447Y-21853553D01*
X18896490Y-21853595D01*
X18897545Y-21854395D01*
X18987060Y-21923085D01*
X18993194Y-21928464D01*
X18993207Y-21928473D01*
X18998915Y-21932564D01*
X19003929Y-21934640D01*
X19120590Y-21982963D01*
X19185295Y-21991481D01*
X19243528Y-21999148D01*
X19249998Y-22000000D01*
X19249999Y-22000000D01*
X19250000Y-22000000D01*
X26031160Y-22000000D01*
X26071784Y-22008080D01*
X26096309Y-22008081D01*
X26118964Y-22017465D01*
X26126448Y-22018954D01*
X26143682Y-22027704D01*
X26186068Y-22045261D01*
X26254767Y-22113960D01*
X26291946Y-22203720D01*
X26291945Y-22300875D01*
X26254765Y-22390634D01*
X26251539Y-22395462D01*
X26190862Y-22458569D01*
X26122786Y-22508028D01*
X26122777Y-22508036D01*
X25978040Y-22652772D01*
X25978038Y-22652774D01*
X25857710Y-22818393D01*
X25857709Y-22818395D01*
X25764780Y-23000778D01*
X25764772Y-23000799D01*
X25701523Y-23195464D01*
X25701520Y-23195476D01*
X25669500Y-23397630D01*
X25669500Y-23602368D01*
X25701520Y-23804522D01*
X25701523Y-23804534D01*
X25764772Y-23999199D01*
X25764780Y-23999221D01*
X25764782Y-23999225D01*
X25764785Y-23999232D01*
X25854777Y-24175850D01*
X25854778Y-24175850D01*
X25857709Y-24181603D01*
X25857717Y-24181616D01*
X25978032Y-24347217D01*
X25978034Y-24347219D01*
X26122781Y-24491966D01*
X26288390Y-24612287D01*
X26470781Y-24705220D01*
X26470782Y-24705220D01*
X26470788Y-24705223D01*
X26593974Y-24745248D01*
X26665466Y-24768477D01*
X26681728Y-24771052D01*
X26736559Y-24779737D01*
X26736566Y-24779737D01*
X26736575Y-24779739D01*
X26867453Y-24800469D01*
X26867642Y-24800500D01*
X27072352Y-24800500D01*
X27072353Y-24800500D01*
X27072359Y-24800499D01*
X27072361Y-24800499D01*
X27167870Y-24785371D01*
X27274534Y-24768477D01*
X27469219Y-24705220D01*
X27651610Y-24612287D01*
X27817219Y-24491966D01*
X27961966Y-24347219D01*
X28024144Y-24261635D01*
X28056555Y-24225161D01*
X28071884Y-24210992D01*
X28154717Y-24160234D01*
X28250676Y-24145036D01*
X28345019Y-24167659D01*
X28345851Y-24168042D01*
X28417800Y-24218157D01*
X28427587Y-24227944D01*
X28452962Y-24257655D01*
X28501580Y-24324572D01*
X28518034Y-24347219D01*
X28662781Y-24491966D01*
X28662785Y-24491969D01*
X28662784Y-24491969D01*
X28708367Y-24525086D01*
X28737020Y-24545903D01*
X28773504Y-24578323D01*
X28789184Y-24595285D01*
X28839947Y-24678118D01*
X28844107Y-24689393D01*
X28859500Y-24775584D01*
X28859500Y-25574071D01*
X28874806Y-25651017D01*
X28874806Y-25651021D01*
X28874807Y-25651021D01*
X28880982Y-25682066D01*
X28880981Y-25682066D01*
X28884496Y-25699737D01*
X28884498Y-25699743D01*
X28884499Y-25699745D01*
X28933534Y-25818127D01*
X28933535Y-25818129D01*
X29004720Y-25924665D01*
X29004723Y-25924669D01*
X29686894Y-26606840D01*
X30085328Y-27005274D01*
X30097775Y-27013591D01*
X30097774Y-27013591D01*
X30190293Y-27075409D01*
X30190290Y-27075412D01*
X30190329Y-27075433D01*
X30191870Y-27076463D01*
X30191877Y-27076467D01*
X30310256Y-27125501D01*
X30310259Y-27125502D01*
X30411876Y-27145715D01*
X30427651Y-27150500D01*
X30435930Y-27150500D01*
X30435931Y-27150500D01*
X32102887Y-27150500D01*
X32151459Y-27155283D01*
X32157200Y-27156424D01*
X32174121Y-27159790D01*
X32263880Y-27196968D01*
X32263887Y-27196973D01*
X32283094Y-27209807D01*
X32320825Y-27240771D01*
X32487142Y-27407088D01*
X32518105Y-27444817D01*
X32527490Y-27458862D01*
X32564672Y-27548620D01*
X32564674Y-27645775D01*
X32527496Y-27735536D01*
X32458798Y-27804236D01*
X32369049Y-27841416D01*
X32352479Y-27844713D01*
X32303887Y-27849500D01*
X25435925Y-27849500D01*
X25318458Y-27872866D01*
X25318454Y-27872867D01*
X25310258Y-27874498D01*
X25261220Y-27894810D01*
X25261219Y-27894809D01*
X25191876Y-27923532D01*
X25191872Y-27923535D01*
X25168325Y-27939267D01*
X25168321Y-27939270D01*
X25085328Y-27994724D01*
X23924720Y-29155333D01*
X23918880Y-29163436D01*
X23916040Y-29168325D01*
X23877876Y-29225441D01*
X23877877Y-29225441D01*
X23867634Y-29240771D01*
X23859578Y-29252828D01*
X23857146Y-29256467D01*
X23853533Y-29261874D01*
X23804496Y-29380262D01*
X23779500Y-29505925D01*
X23779500Y-29833710D01*
X23774715Y-29882290D01*
X23770207Y-29904952D01*
X23733026Y-29994711D01*
X23733023Y-29994717D01*
X23726348Y-30004706D01*
X23665694Y-30067793D01*
X23656580Y-30074416D01*
X23656561Y-30074430D01*
X23582781Y-30128033D01*
X23582780Y-30128034D01*
X23582779Y-30128035D01*
X23438033Y-30272781D01*
X23438031Y-30272784D01*
X23438003Y-30272821D01*
X23375858Y-30358357D01*
X23343435Y-30394844D01*
X23328120Y-30409001D01*
X23245282Y-30459764D01*
X23149323Y-30474962D01*
X23054910Y-30452308D01*
X23054904Y-30452305D01*
X23054081Y-30451926D01*
X22982202Y-30401843D01*
X22972409Y-30392050D01*
X22947034Y-30362339D01*
X22915931Y-30319530D01*
X22881969Y-30272785D01*
X22881966Y-30272781D01*
X22737220Y-30128035D01*
X22737217Y-30128033D01*
X22737214Y-30128030D01*
X22736218Y-30127213D01*
X22733158Y-30125083D01*
X22587462Y-30019229D01*
X22586779Y-30018646D01*
X22571585Y-30007694D01*
X22570871Y-30007334D01*
X22389225Y-29914782D01*
X22389221Y-29914780D01*
X22389199Y-29914772D01*
X22194534Y-29851523D01*
X22194531Y-29851522D01*
X22194528Y-29851521D01*
X22194522Y-29851520D01*
X21992368Y-29819500D01*
X21992361Y-29819500D01*
X21992352Y-29819500D01*
X21787648Y-29819500D01*
X21787638Y-29819500D01*
X21787630Y-29819500D01*
X21585476Y-29851520D01*
X21585464Y-29851523D01*
X21390799Y-29914772D01*
X21390778Y-29914780D01*
X21208395Y-30007709D01*
X21208393Y-30007710D01*
X21042777Y-30128036D01*
X20898036Y-30272777D01*
X20777710Y-30438393D01*
X20777709Y-30438395D01*
X20684780Y-30620778D01*
X20684772Y-30620799D01*
X20621523Y-30815464D01*
X20621520Y-30815476D01*
X20589500Y-31017630D01*
X20589500Y-31222368D01*
X20621520Y-31424522D01*
X20621523Y-31424534D01*
X20684772Y-31619199D01*
X20684780Y-31619221D01*
X20684782Y-31619225D01*
X20684785Y-31619232D01*
X20774777Y-31795850D01*
X20774778Y-31795850D01*
X20777709Y-31801603D01*
X20777717Y-31801616D01*
X20898032Y-31967217D01*
X20898033Y-31967218D01*
X20898034Y-31967219D01*
X21042781Y-32111966D01*
X21208390Y-32232287D01*
X21390781Y-32325220D01*
X21390782Y-32325220D01*
X21390788Y-32325223D01*
X21525251Y-32368912D01*
X21585466Y-32388477D01*
X21601728Y-32391052D01*
X21656559Y-32399737D01*
X21656566Y-32399737D01*
X21656575Y-32399739D01*
X21787453Y-32420469D01*
X21787642Y-32420500D01*
X21992352Y-32420500D01*
X21992353Y-32420500D01*
X21992359Y-32420499D01*
X21992361Y-32420499D01*
X22087870Y-32405371D01*
X22194534Y-32388477D01*
X22389219Y-32325220D01*
X22571610Y-32232287D01*
X22737219Y-32111966D01*
X22881966Y-31967219D01*
X22944144Y-31881635D01*
X22976555Y-31845161D01*
X22991884Y-31830992D01*
X23074717Y-31780234D01*
X23170676Y-31765036D01*
X23265019Y-31787659D01*
X23265851Y-31788042D01*
X23337800Y-31838157D01*
X23347587Y-31847944D01*
X23372962Y-31877655D01*
X23386130Y-31895779D01*
X23438033Y-31967218D01*
X23438036Y-31967221D01*
X23582774Y-32111960D01*
X23582776Y-32111962D01*
X23582779Y-32111964D01*
X23582781Y-32111966D01*
X23748390Y-32232287D01*
X23930781Y-32325220D01*
X23930782Y-32325220D01*
X23930788Y-32325223D01*
X24065251Y-32368912D01*
X24125466Y-32388477D01*
X24141728Y-32391052D01*
X24196559Y-32399737D01*
X24196566Y-32399737D01*
X24196575Y-32399739D01*
X24327453Y-32420469D01*
X24327642Y-32420500D01*
X24532352Y-32420500D01*
X24532353Y-32420500D01*
X24532359Y-32420499D01*
X24532361Y-32420499D01*
X24627870Y-32405371D01*
X24734534Y-32388477D01*
X24929219Y-32325220D01*
X25111610Y-32232287D01*
X25277219Y-32111966D01*
X25421966Y-31967219D01*
X25484144Y-31881635D01*
X25516555Y-31845161D01*
X25531884Y-31830992D01*
X25614717Y-31780234D01*
X25710676Y-31765036D01*
X25805019Y-31787659D01*
X25805851Y-31788042D01*
X25877800Y-31838157D01*
X25887587Y-31847944D01*
X25912962Y-31877655D01*
X25926130Y-31895779D01*
X25978033Y-31967218D01*
X25978036Y-31967221D01*
X26122774Y-32111960D01*
X26122776Y-32111962D01*
X26122779Y-32111964D01*
X26122781Y-32111966D01*
X26288390Y-32232287D01*
X26470781Y-32325220D01*
X26470782Y-32325220D01*
X26470788Y-32325223D01*
X26605251Y-32368912D01*
X26665466Y-32388477D01*
X26681728Y-32391052D01*
X26736559Y-32399737D01*
X26736566Y-32399737D01*
X26736575Y-32399739D01*
X26867453Y-32420469D01*
X26867642Y-32420500D01*
X27072352Y-32420500D01*
X27072353Y-32420500D01*
X27072359Y-32420499D01*
X27072361Y-32420499D01*
X27167870Y-32405371D01*
X27274534Y-32388477D01*
X27469219Y-32325220D01*
X27651610Y-32232287D01*
X27817219Y-32111966D01*
X27961966Y-31967219D01*
X28024144Y-31881635D01*
X28056555Y-31845161D01*
X28071884Y-31830992D01*
X28154717Y-31780234D01*
X28250676Y-31765036D01*
X28345019Y-31787659D01*
X28345851Y-31788042D01*
X28417800Y-31838157D01*
X28427587Y-31847944D01*
X28452962Y-31877655D01*
X28466130Y-31895779D01*
X28518033Y-31967218D01*
X28518036Y-31967221D01*
X28662774Y-32111960D01*
X28662776Y-32111962D01*
X28662779Y-32111964D01*
X28662781Y-32111966D01*
X28828390Y-32232287D01*
X29010781Y-32325220D01*
X29010782Y-32325220D01*
X29010788Y-32325223D01*
X29145251Y-32368912D01*
X29205466Y-32388477D01*
X29221728Y-32391052D01*
X29276559Y-32399737D01*
X29276566Y-32399737D01*
X29276575Y-32399739D01*
X29407453Y-32420469D01*
X29407642Y-32420500D01*
X29612352Y-32420500D01*
X29612353Y-32420500D01*
X29612359Y-32420499D01*
X29612361Y-32420499D01*
X29707870Y-32405371D01*
X29814534Y-32388477D01*
X30009219Y-32325220D01*
X30191610Y-32232287D01*
X30357219Y-32111966D01*
X30501966Y-31967219D01*
X30564144Y-31881635D01*
X30596555Y-31845161D01*
X30611884Y-31830992D01*
X30694717Y-31780234D01*
X30790676Y-31765036D01*
X30885019Y-31787659D01*
X30885851Y-31788042D01*
X30957800Y-31838157D01*
X30967587Y-31847944D01*
X30992962Y-31877655D01*
X31006130Y-31895779D01*
X31058033Y-31967218D01*
X31058036Y-31967221D01*
X31202774Y-32111960D01*
X31202776Y-32111962D01*
X31202779Y-32111964D01*
X31202781Y-32111966D01*
X31368390Y-32232287D01*
X31550781Y-32325220D01*
X31550782Y-32325220D01*
X31550788Y-32325223D01*
X31685251Y-32368912D01*
X31745466Y-32388477D01*
X31761728Y-32391052D01*
X31816559Y-32399737D01*
X31816566Y-32399737D01*
X31816575Y-32399739D01*
X31947453Y-32420469D01*
X31947642Y-32420500D01*
X32152352Y-32420500D01*
X32152353Y-32420500D01*
X32152359Y-32420499D01*
X32152361Y-32420499D01*
X32247870Y-32405371D01*
X32354534Y-32388477D01*
X32549219Y-32325220D01*
X32731610Y-32232287D01*
X32897219Y-32111966D01*
X32907083Y-32102102D01*
X32944817Y-32071133D01*
X32958864Y-32061746D01*
X33048620Y-32024566D01*
X33145775Y-32024564D01*
X33235536Y-32061742D01*
X33304236Y-32130440D01*
X33341416Y-32220192D01*
X33344713Y-32236763D01*
X33349500Y-32285352D01*
X33349500Y-33114070D01*
X33354358Y-33138497D01*
X33354361Y-33138505D01*
X33369713Y-33215688D01*
X33374497Y-33239743D01*
X33412424Y-33331306D01*
X33423534Y-33358127D01*
X33494723Y-33464669D01*
X36383558Y-36353504D01*
X36387828Y-36357881D01*
X36392037Y-36362302D01*
X36396194Y-36366777D01*
X36599217Y-36590779D01*
X36607188Y-36600019D01*
X36614938Y-36609461D01*
X36622469Y-36619110D01*
X36797104Y-36854579D01*
X36804148Y-36864581D01*
X36810944Y-36874753D01*
X36817469Y-36885059D01*
X36968185Y-37136513D01*
X36974192Y-37147116D01*
X36979960Y-37157906D01*
X36985460Y-37168833D01*
X37110799Y-37433841D01*
X37115754Y-37445020D01*
X37120426Y-37456300D01*
X37124822Y-37467696D01*
X37223580Y-37743706D01*
X37227415Y-37755312D01*
X37230965Y-37767015D01*
X37234224Y-37778793D01*
X37305457Y-38063169D01*
X37308132Y-38075081D01*
X37310515Y-38087058D01*
X37312607Y-38099112D01*
X37355623Y-38389103D01*
X37357120Y-38401240D01*
X37358316Y-38413387D01*
X37359214Y-38425568D01*
X37374049Y-38727538D01*
X37374273Y-38733607D01*
X37374424Y-38739720D01*
X37374500Y-38745869D01*
X37374500Y-40845222D01*
X37389991Y-41002514D01*
X37402968Y-41134269D01*
X37430969Y-41275041D01*
X37438196Y-41311371D01*
X37442980Y-41359948D01*
X37442980Y-41379214D01*
X37424026Y-41474502D01*
X37370050Y-41555284D01*
X37289268Y-41609260D01*
X37193980Y-41628214D01*
X37184040Y-41628214D01*
X37107093Y-41616026D01*
X37087818Y-41609763D01*
X37083971Y-41608513D01*
X37074906Y-41604798D01*
X37056440Y-41600439D01*
X37046882Y-41599687D01*
X36856303Y-41569500D01*
X36856296Y-41569500D01*
X36856287Y-41569500D01*
X36643713Y-41569500D01*
X36643703Y-41569500D01*
X36643693Y-41569500D01*
X36433769Y-41602750D01*
X36433755Y-41602754D01*
X36231596Y-41668439D01*
X36042180Y-41764951D01*
X35870204Y-41889898D01*
X35719898Y-42040204D01*
X35594951Y-42212180D01*
X35498439Y-42401596D01*
X35432754Y-42603755D01*
X35432750Y-42603769D01*
X35399500Y-42813693D01*
X35399500Y-43026305D01*
X35432751Y-43236231D01*
X35432764Y-43236285D01*
X35433036Y-43237111D01*
X35498443Y-43438412D01*
X35594949Y-43627816D01*
X35594953Y-43627823D01*
X35633531Y-43680920D01*
X35681446Y-43746869D01*
X35719897Y-43799793D01*
X35870207Y-43950103D01*
X35920134Y-43986377D01*
X35934702Y-44001231D01*
X35935986Y-44003194D01*
X35939777Y-44006562D01*
X35953941Y-44021885D01*
X36004702Y-44104725D01*
X36019897Y-44200684D01*
X35997213Y-44295154D01*
X35997187Y-44295211D01*
X35996805Y-44296039D01*
X35946777Y-44367798D01*
X35936985Y-44377590D01*
X35907274Y-44402965D01*
X35870207Y-44429895D01*
X35719898Y-44580204D01*
X35594951Y-44752180D01*
X35498439Y-44941596D01*
X35432754Y-45143755D01*
X35432750Y-45143769D01*
X35399500Y-45353693D01*
X35399500Y-45566305D01*
X35432751Y-45776231D01*
X35432764Y-45776285D01*
X35433036Y-45777111D01*
X35498443Y-45978412D01*
X35594949Y-46167816D01*
X35594950Y-46167817D01*
X35719897Y-46339793D01*
X35764800Y-46384696D01*
X35773968Y-46396353D01*
X35776377Y-46401095D01*
X35785286Y-46411951D01*
X35796873Y-46429293D01*
X35834051Y-46519053D01*
X35834048Y-46616208D01*
X35796871Y-46705961D01*
X35793466Y-46711057D01*
X35740868Y-46768040D01*
X35737686Y-46770556D01*
X35713965Y-46787166D01*
X35681350Y-46807282D01*
X35557284Y-46931348D01*
X35465182Y-47080670D01*
X35410003Y-47247191D01*
X35409999Y-47247220D01*
X35399501Y-47349968D01*
X35399500Y-47349989D01*
X35399500Y-48650004D01*
X35410001Y-48752800D01*
X35465183Y-48919329D01*
X35465188Y-48919337D01*
X35485669Y-48952542D01*
X35485671Y-48952545D01*
X35556799Y-49067865D01*
X35556798Y-49067865D01*
X35557281Y-49068647D01*
X35557293Y-49068662D01*
X35643681Y-49155049D01*
X35681344Y-49192712D01*
X35830666Y-49284814D01*
X35905547Y-49309627D01*
X35950151Y-49329447D01*
X35959561Y-49334789D01*
X35969346Y-49340344D01*
X36042854Y-49403871D01*
X36086450Y-49490671D01*
X36090536Y-49505488D01*
X36099500Y-49571695D01*
X36099500Y-49814069D01*
X36104699Y-49840207D01*
X36111519Y-49874488D01*
X36111521Y-49874501D01*
X36114314Y-49888545D01*
X36114317Y-49888562D01*
X36115192Y-49892960D01*
X36124498Y-49939741D01*
X36124498Y-49939743D01*
X36124499Y-49939745D01*
X36173531Y-50058121D01*
X36173532Y-50058124D01*
X36173534Y-50058127D01*
X36244725Y-50164672D01*
X36994723Y-50914668D01*
X36994725Y-50914671D01*
X37085329Y-51005274D01*
X37085331Y-51005276D01*
X37182936Y-51070493D01*
X37182939Y-51070496D01*
X37193924Y-51077835D01*
X37203162Y-51081141D01*
X37226543Y-51090825D01*
X37226548Y-51090829D01*
X37226549Y-51090828D01*
X37310256Y-51125501D01*
X37357625Y-51134923D01*
X37411876Y-51145715D01*
X37427651Y-51150500D01*
X41271177Y-51150500D01*
X41297696Y-51150500D01*
X41298543Y-51149934D01*
X41345255Y-51135763D01*
X41396851Y-51125501D01*
X41515234Y-51076465D01*
X41621776Y-51005277D01*
X43005277Y-49621776D01*
X43076465Y-49515234D01*
X43125501Y-49396850D01*
X43134721Y-49350499D01*
X43150500Y-49271176D01*
X43150500Y-39228824D01*
X43125501Y-39103149D01*
X43076465Y-38984766D01*
X43005276Y-38878223D01*
X36240771Y-32113718D01*
X36209807Y-32075987D01*
X36196973Y-32056780D01*
X36159792Y-31967021D01*
X36159790Y-31967011D01*
X36155283Y-31944349D01*
X36150500Y-31895779D01*
X36150500Y-31773527D01*
X36155284Y-31724954D01*
X36159353Y-31704496D01*
X36196531Y-31614735D01*
X36265229Y-31546035D01*
X36354986Y-31508854D01*
X36354989Y-31508853D01*
X36354996Y-31508853D01*
X36375454Y-31504784D01*
X36424027Y-31500000D01*
X47000001Y-31500000D01*
X47043136Y-31494321D01*
X47129410Y-31482963D01*
X47250000Y-31433013D01*
X47353553Y-31353553D01*
X47433013Y-31250000D01*
X47482963Y-31129410D01*
X47497676Y-31017650D01*
X47500000Y-31000001D01*
X47500000Y-28274472D01*
X47500532Y-28258201D01*
X47501270Y-28246936D01*
X47501598Y-28241935D01*
X47503191Y-28225756D01*
X47507341Y-28194238D01*
X47510627Y-28169268D01*
X47516981Y-28137325D01*
X47525356Y-28106069D01*
X47535827Y-28075226D01*
X47548201Y-28045353D01*
X47562595Y-28016160D01*
X47578785Y-27988118D01*
X47596866Y-27961059D01*
X47616566Y-27935385D01*
X47638024Y-27910917D01*
X47660917Y-27888024D01*
X47685385Y-27866566D01*
X47711059Y-27846866D01*
X47738118Y-27828785D01*
X47766161Y-27812595D01*
X47795354Y-27798200D01*
X47825230Y-27785825D01*
X47856067Y-27775357D01*
X47887336Y-27766978D01*
X47919261Y-27760628D01*
X47936971Y-27758297D01*
X47975759Y-27753191D01*
X47991941Y-27751597D01*
X48008206Y-27750531D01*
X48024475Y-27750000D01*
X49475527Y-27750000D01*
X49491788Y-27750531D01*
X49508063Y-27751598D01*
X49524241Y-27753191D01*
X49550069Y-27756590D01*
X49550076Y-27756593D01*
X49550077Y-27756592D01*
X49580732Y-27760628D01*
X49612670Y-27766981D01*
X49620677Y-27769126D01*
X49643931Y-27775357D01*
X49674779Y-27785829D01*
X49704645Y-27798201D01*
X49733842Y-27812599D01*
X49761867Y-27828778D01*
X49788945Y-27846870D01*
X49814602Y-27866558D01*
X49839084Y-27888028D01*
X49861969Y-27910913D01*
X49883444Y-27935402D01*
X49903122Y-27961047D01*
X49921216Y-27988125D01*
X49932921Y-28008398D01*
X49961496Y-28084317D01*
X49965823Y-28106069D01*
X49969714Y-28125625D01*
X49974499Y-28174207D01*
X49974499Y-53107727D01*
X49974439Y-53113200D01*
X49974319Y-53118658D01*
X49974142Y-53124044D01*
X49969059Y-53240486D01*
X49968183Y-53253139D01*
X49966988Y-53265738D01*
X49965472Y-53278314D01*
X49921134Y-53581008D01*
X49918617Y-53595282D01*
X49915692Y-53609445D01*
X49912353Y-53623529D01*
X49833934Y-53916191D01*
X49829780Y-53930068D01*
X49825227Y-53943808D01*
X49820273Y-53957418D01*
X49708413Y-54238985D01*
X49702682Y-54252273D01*
X49696562Y-54265399D01*
X49690056Y-54278354D01*
X49546253Y-54545052D01*
X49539011Y-54557595D01*
X49531415Y-54569910D01*
X49523456Y-54582011D01*
X49349676Y-54830196D01*
X49341023Y-54841819D01*
X49332049Y-54853168D01*
X49322742Y-54864259D01*
X49121320Y-55090595D01*
X49111381Y-55101131D01*
X49101131Y-55111381D01*
X49090595Y-55121320D01*
X48864259Y-55322742D01*
X48853168Y-55332049D01*
X48841819Y-55341023D01*
X48830196Y-55349676D01*
X48582008Y-55523458D01*
X48569897Y-55531423D01*
X48557571Y-55539025D01*
X48545038Y-55546261D01*
X48278353Y-55690057D01*
X48265400Y-55696562D01*
X48252285Y-55702677D01*
X48238995Y-55708409D01*
X47957413Y-55820275D01*
X47943803Y-55825229D01*
X47930057Y-55829784D01*
X47916180Y-55833938D01*
X47623541Y-55912351D01*
X47609445Y-55915692D01*
X47595264Y-55918620D01*
X47581002Y-55921135D01*
X47278316Y-55965472D01*
X47265740Y-55966988D01*
X47253141Y-55968183D01*
X47240488Y-55969059D01*
X47124046Y-55974142D01*
X47118661Y-55974319D01*
X47113204Y-55974439D01*
X47107730Y-55974499D01*
X2892270Y-55974499D01*
X2886797Y-55974439D01*
X2881339Y-55974319D01*
X2875953Y-55974142D01*
X2759511Y-55969059D01*
X2746858Y-55968183D01*
X2734259Y-55966988D01*
X2721683Y-55965472D01*
X2418989Y-55921134D01*
X2404715Y-55918617D01*
X2390552Y-55915692D01*
X2376468Y-55912353D01*
X2083806Y-55833934D01*
X2069929Y-55829780D01*
X2056189Y-55825227D01*
X2042579Y-55820273D01*
X1761012Y-55708413D01*
X1747724Y-55702682D01*
X1734598Y-55696562D01*
X1721643Y-55690056D01*
X1454945Y-55546253D01*
X1442402Y-55539011D01*
X1430087Y-55531415D01*
X1417986Y-55523456D01*
X1217690Y-55383208D01*
X1217689Y-55383207D01*
X1169793Y-55349669D01*
X1158183Y-55341026D01*
X1146827Y-55332047D01*
X1135750Y-55322752D01*
X909380Y-55121300D01*
X898861Y-55111376D01*
X888621Y-55101136D01*
X878682Y-55090600D01*
X878678Y-55090595D01*
X677248Y-54864250D01*
X667940Y-54853158D01*
X658972Y-54841816D01*
X650323Y-54830198D01*
X476540Y-54582010D01*
X468573Y-54569896D01*
X460970Y-54557568D01*
X453736Y-54545037D01*
X315814Y-54289243D01*
X315814Y-54289244D01*
X314934Y-54287613D01*
X309933Y-54278339D01*
X303435Y-54265399D01*
X297326Y-54252299D01*
X291596Y-54239014D01*
X179711Y-53957384D01*
X174764Y-53943794D01*
X170214Y-53930062D01*
X166068Y-53916208D01*
X87640Y-53623513D01*
X84299Y-53609418D01*
X81380Y-53595281D01*
X78865Y-53581019D01*
X34520Y-53278289D01*
X33008Y-53265738D01*
X31809Y-53253085D01*
X30941Y-53240532D01*
X25855Y-53124034D01*
X25678Y-53118614D01*
X25559Y-53113154D01*
X25500Y-53107728D01*
X25500Y-48253693D01*
X4569500Y-48253693D01*
X4569500Y-48466305D01*
X4602751Y-48676231D01*
X4602764Y-48676285D01*
X4603036Y-48677111D01*
X4668443Y-48878412D01*
X4764949Y-49067816D01*
X4889896Y-49239792D01*
X5040208Y-49390104D01*
X5212184Y-49515051D01*
X5401588Y-49611557D01*
X5603757Y-49677246D01*
X5603760Y-49677246D01*
X5603762Y-49677247D01*
X5677586Y-49688939D01*
X5677591Y-49688939D01*
X5677601Y-49688941D01*
X5813612Y-49710484D01*
X5813708Y-49710500D01*
X6026287Y-49710500D01*
X6026292Y-49710500D01*
X6026418Y-49710479D01*
X6125476Y-49694789D01*
X6125478Y-49694789D01*
X6236237Y-49677247D01*
X6236237Y-49677246D01*
X6236243Y-49677246D01*
X6438412Y-49611557D01*
X6627816Y-49515051D01*
X6799792Y-49390104D01*
X6950104Y-49239792D01*
X7075051Y-49067816D01*
X7171557Y-48878412D01*
X7237246Y-48676243D01*
X7262245Y-48518407D01*
X7270499Y-48466296D01*
X7270500Y-48466284D01*
X7270500Y-48257037D01*
X7270500Y-48253713D01*
X7270499Y-48253710D01*
X7270499Y-48253703D01*
X7270497Y-48253693D01*
X14729500Y-48253693D01*
X14729500Y-48466305D01*
X14762751Y-48676231D01*
X14762764Y-48676285D01*
X14763036Y-48677111D01*
X14828443Y-48878412D01*
X14924949Y-49067816D01*
X15049896Y-49239792D01*
X15200208Y-49390104D01*
X15372184Y-49515051D01*
X15561588Y-49611557D01*
X15763757Y-49677246D01*
X15763760Y-49677246D01*
X15763762Y-49677247D01*
X15837586Y-49688939D01*
X15837591Y-49688939D01*
X15837601Y-49688941D01*
X15973612Y-49710484D01*
X15973708Y-49710500D01*
X16186287Y-49710500D01*
X16186292Y-49710500D01*
X16186418Y-49710479D01*
X16285476Y-49694789D01*
X16285478Y-49694789D01*
X16396237Y-49677247D01*
X16396237Y-49677246D01*
X16396243Y-49677246D01*
X16598412Y-49611557D01*
X16787816Y-49515051D01*
X16959792Y-49390104D01*
X17110104Y-49239792D01*
X17235051Y-49067816D01*
X17331557Y-48878412D01*
X17397246Y-48676243D01*
X17422245Y-48518407D01*
X17430499Y-48466296D01*
X17430500Y-48466284D01*
X17430500Y-48257037D01*
X17430500Y-48253713D01*
X17430499Y-48253710D01*
X17430499Y-48253703D01*
X17430497Y-48253693D01*
X20569500Y-48253693D01*
X20569500Y-48466305D01*
X20602751Y-48676231D01*
X20602764Y-48676285D01*
X20603036Y-48677111D01*
X20668443Y-48878412D01*
X20764949Y-49067816D01*
X20889896Y-49239792D01*
X21040208Y-49390104D01*
X21212184Y-49515051D01*
X21401588Y-49611557D01*
X21603757Y-49677246D01*
X21603760Y-49677246D01*
X21603762Y-49677247D01*
X21677586Y-49688939D01*
X21677591Y-49688939D01*
X21677601Y-49688941D01*
X21813612Y-49710484D01*
X21813708Y-49710500D01*
X22026287Y-49710500D01*
X22026292Y-49710500D01*
X22026418Y-49710479D01*
X22125476Y-49694789D01*
X22125478Y-49694789D01*
X22236237Y-49677247D01*
X22236237Y-49677246D01*
X22236243Y-49677246D01*
X22438412Y-49611557D01*
X22627816Y-49515051D01*
X22799792Y-49390104D01*
X22950104Y-49239792D01*
X23075051Y-49067816D01*
X23171557Y-48878412D01*
X23237246Y-48676243D01*
X23262245Y-48518407D01*
X23270499Y-48466296D01*
X23270500Y-48466284D01*
X23270500Y-48257037D01*
X23270500Y-48253713D01*
X23270499Y-48253710D01*
X23270499Y-48253703D01*
X23270497Y-48253693D01*
X30729500Y-48253693D01*
X30729500Y-48466305D01*
X30762751Y-48676231D01*
X30762764Y-48676285D01*
X30763036Y-48677111D01*
X30828443Y-48878412D01*
X30924949Y-49067816D01*
X31049896Y-49239792D01*
X31200208Y-49390104D01*
X31372184Y-49515051D01*
X31561588Y-49611557D01*
X31763757Y-49677246D01*
X31763760Y-49677246D01*
X31763762Y-49677247D01*
X31837586Y-49688939D01*
X31837591Y-49688939D01*
X31837601Y-49688941D01*
X31973612Y-49710484D01*
X31973708Y-49710500D01*
X32186287Y-49710500D01*
X32186292Y-49710500D01*
X32186418Y-49710479D01*
X32285476Y-49694789D01*
X32285478Y-49694789D01*
X32396237Y-49677247D01*
X32396237Y-49677246D01*
X32396243Y-49677246D01*
X32598412Y-49611557D01*
X32787816Y-49515051D01*
X32959792Y-49390104D01*
X33110104Y-49239792D01*
X33235051Y-49067816D01*
X33331557Y-48878412D01*
X33397246Y-48676243D01*
X33422245Y-48518407D01*
X33430499Y-48466296D01*
X33430500Y-48466284D01*
X33430500Y-48253705D01*
X33430452Y-48253405D01*
X33400312Y-48063113D01*
X33400311Y-48063111D01*
X33397246Y-48043759D01*
X33397246Y-48043757D01*
X33331557Y-47841588D01*
X33235051Y-47652184D01*
X33110104Y-47480208D01*
X32959792Y-47329896D01*
X32787816Y-47204949D01*
X32598412Y-47108443D01*
X32598409Y-47108442D01*
X32598407Y-47108441D01*
X32598405Y-47108440D01*
X32396243Y-47042754D01*
X32396240Y-47042753D01*
X32396238Y-47042752D01*
X32396229Y-47042750D01*
X32186305Y-47009500D01*
X32186296Y-47009500D01*
X32186287Y-47009500D01*
X31973713Y-47009500D01*
X31973703Y-47009500D01*
X31973693Y-47009500D01*
X31763769Y-47042750D01*
X31763755Y-47042754D01*
X31561596Y-47108439D01*
X31372180Y-47204951D01*
X31200204Y-47329898D01*
X31049898Y-47480204D01*
X30924951Y-47652180D01*
X30828439Y-47841596D01*
X30762754Y-48043755D01*
X30762750Y-48043769D01*
X30729500Y-48253693D01*
X23270497Y-48253693D01*
X23257156Y-48169461D01*
X23240312Y-48063113D01*
X23240311Y-48063111D01*
X23237246Y-48043759D01*
X23237246Y-48043757D01*
X23171557Y-47841588D01*
X23075051Y-47652184D01*
X22950104Y-47480208D01*
X22799792Y-47329896D01*
X22627816Y-47204949D01*
X22438412Y-47108443D01*
X22438409Y-47108442D01*
X22438407Y-47108441D01*
X22438405Y-47108440D01*
X22236243Y-47042754D01*
X22236240Y-47042753D01*
X22236238Y-47042752D01*
X22236229Y-47042750D01*
X22026305Y-47009500D01*
X22026296Y-47009500D01*
X22026287Y-47009500D01*
X21813713Y-47009500D01*
X21813703Y-47009500D01*
X21813693Y-47009500D01*
X21603769Y-47042750D01*
X21603755Y-47042754D01*
X21401596Y-47108439D01*
X21212180Y-47204951D01*
X21040204Y-47329898D01*
X20889898Y-47480204D01*
X20764951Y-47652180D01*
X20668439Y-47841596D01*
X20602754Y-48043755D01*
X20602750Y-48043769D01*
X20569500Y-48253693D01*
X17430497Y-48253693D01*
X17417156Y-48169461D01*
X17400312Y-48063113D01*
X17400311Y-48063111D01*
X17397246Y-48043759D01*
X17397246Y-48043757D01*
X17331557Y-47841588D01*
X17235051Y-47652184D01*
X17110104Y-47480208D01*
X16959792Y-47329896D01*
X16787816Y-47204949D01*
X16598412Y-47108443D01*
X16598409Y-47108442D01*
X16598407Y-47108441D01*
X16598405Y-47108440D01*
X16396243Y-47042754D01*
X16396240Y-47042753D01*
X16396238Y-47042752D01*
X16396229Y-47042750D01*
X16186305Y-47009500D01*
X16186296Y-47009500D01*
X16186287Y-47009500D01*
X15973713Y-47009500D01*
X15973703Y-47009500D01*
X15973693Y-47009500D01*
X15763769Y-47042750D01*
X15763755Y-47042754D01*
X15561596Y-47108439D01*
X15372180Y-47204951D01*
X15200204Y-47329898D01*
X15049898Y-47480204D01*
X14924951Y-47652180D01*
X14828439Y-47841596D01*
X14762754Y-48043755D01*
X14762750Y-48043769D01*
X14729500Y-48253693D01*
X7270497Y-48253693D01*
X7257156Y-48169461D01*
X7240312Y-48063113D01*
X7240311Y-48063111D01*
X7237246Y-48043759D01*
X7237246Y-48043757D01*
X7171557Y-47841588D01*
X7075051Y-47652184D01*
X6950104Y-47480208D01*
X6799792Y-47329896D01*
X6627816Y-47204949D01*
X6438412Y-47108443D01*
X6438409Y-47108442D01*
X6438407Y-47108441D01*
X6438405Y-47108440D01*
X6236243Y-47042754D01*
X6236240Y-47042753D01*
X6236238Y-47042752D01*
X6236229Y-47042750D01*
X6026305Y-47009500D01*
X6026296Y-47009500D01*
X6026287Y-47009500D01*
X5813713Y-47009500D01*
X5813703Y-47009500D01*
X5813693Y-47009500D01*
X5603769Y-47042750D01*
X5603755Y-47042754D01*
X5401596Y-47108439D01*
X5212180Y-47204951D01*
X5040204Y-47329898D01*
X4889898Y-47480204D01*
X4764951Y-47652180D01*
X4668439Y-47841596D01*
X4602754Y-48043755D01*
X4602750Y-48043769D01*
X4569500Y-48253693D01*
X25500Y-48253693D01*
X25500Y-41852493D01*
X8749500Y-41852493D01*
X8749500Y-42147506D01*
X8758015Y-42212182D01*
X8782951Y-42401596D01*
X8788006Y-42439988D01*
X8820276Y-42560423D01*
X8864359Y-42724949D01*
X8864362Y-42724957D01*
X8977245Y-42997480D01*
X8977253Y-42997499D01*
X8977255Y-42997503D01*
X8977257Y-42997507D01*
X9022890Y-43076546D01*
X9085231Y-43184525D01*
X9124761Y-43252992D01*
X9124765Y-43252999D01*
X9267034Y-43438407D01*
X9267038Y-43438412D01*
X9304354Y-43487042D01*
X9512958Y-43695646D01*
X9512962Y-43695649D01*
X9512963Y-43695650D01*
X9560325Y-43731992D01*
X9747006Y-43875238D01*
X10002493Y-44022743D01*
X10275048Y-44135639D01*
X10560007Y-44211993D01*
X10779372Y-44240873D01*
X10852493Y-44250500D01*
X10852494Y-44250500D01*
X11147507Y-44250500D01*
X11196253Y-44244082D01*
X11439993Y-44211993D01*
X11724952Y-44135639D01*
X11997507Y-44022743D01*
X12252994Y-43875238D01*
X12487042Y-43695646D01*
X12695646Y-43487042D01*
X12875238Y-43252994D01*
X13022743Y-42997507D01*
X13135639Y-42724952D01*
X13211993Y-42439993D01*
X13250500Y-42147506D01*
X13250500Y-41852494D01*
X13211993Y-41560007D01*
X13135639Y-41275048D01*
X13022743Y-41002493D01*
X12875238Y-40747006D01*
X12695646Y-40512958D01*
X12668972Y-40486284D01*
X12487050Y-40304361D01*
X12487031Y-40304344D01*
X12253000Y-40124766D01*
X12252996Y-40124764D01*
X12252994Y-40124762D01*
X12252989Y-40124759D01*
X12252988Y-40124758D01*
X12147331Y-40063757D01*
X12004420Y-39981248D01*
X12004418Y-39981247D01*
X11997507Y-39977257D01*
X11997505Y-39977256D01*
X11997503Y-39977255D01*
X11997499Y-39977253D01*
X11724950Y-39864360D01*
X11625311Y-39837662D01*
X11613627Y-39833237D01*
X11582817Y-39813989D01*
X11562957Y-39804195D01*
X11147507Y-39749500D01*
X11147506Y-39749500D01*
X10852494Y-39749500D01*
X10852493Y-39749500D01*
X10560015Y-39788005D01*
X10560012Y-39788005D01*
X10560011Y-39788006D01*
X10499793Y-39804141D01*
X10275049Y-39864359D01*
X10275041Y-39864362D01*
X10002514Y-39977246D01*
X10002496Y-39977255D01*
X10002493Y-39977256D01*
X9747016Y-40124755D01*
X9747005Y-40124762D01*
X9746998Y-40124766D01*
X9512971Y-40304341D01*
X9304341Y-40512971D01*
X9124766Y-40746998D01*
X9124762Y-40747005D01*
X9124755Y-40747016D01*
X8977256Y-41002492D01*
X8977246Y-41002514D01*
X8864362Y-41275041D01*
X8864359Y-41275049D01*
X8788006Y-41560012D01*
X8788005Y-41560015D01*
X8773731Y-41668439D01*
X8749500Y-41852493D01*
X25500Y-41852493D01*
X25500Y-38093693D01*
X4569500Y-38093693D01*
X4569500Y-38306305D01*
X4602751Y-38516231D01*
X4602764Y-38516285D01*
X4603036Y-38517111D01*
X4668443Y-38718412D01*
X4764949Y-38907816D01*
X4889896Y-39079792D01*
X5040208Y-39230104D01*
X5212184Y-39355051D01*
X5401588Y-39451557D01*
X5603757Y-39517246D01*
X5603760Y-39517246D01*
X5603762Y-39517247D01*
X5677586Y-39528939D01*
X5677591Y-39528939D01*
X5677601Y-39528941D01*
X5813612Y-39550484D01*
X5813708Y-39550500D01*
X6026287Y-39550500D01*
X6026292Y-39550500D01*
X6026418Y-39550479D01*
X6125476Y-39534789D01*
X6125478Y-39534789D01*
X6236237Y-39517247D01*
X6236237Y-39517246D01*
X6236243Y-39517246D01*
X6438412Y-39451557D01*
X6627816Y-39355051D01*
X6799792Y-39230104D01*
X6950104Y-39079792D01*
X7075051Y-38907816D01*
X7171557Y-38718412D01*
X7237246Y-38516243D01*
X7257383Y-38389103D01*
X7270499Y-38306296D01*
X7270500Y-38306284D01*
X7270500Y-38097037D01*
X7270500Y-38093713D01*
X7270499Y-38093710D01*
X7270499Y-38093703D01*
X7270497Y-38093693D01*
X14729500Y-38093693D01*
X14729500Y-38306305D01*
X14762751Y-38516231D01*
X14762764Y-38516285D01*
X14763036Y-38517111D01*
X14828443Y-38718412D01*
X14924949Y-38907816D01*
X15049896Y-39079792D01*
X15200208Y-39230104D01*
X15372184Y-39355051D01*
X15561588Y-39451557D01*
X15763757Y-39517246D01*
X15763760Y-39517246D01*
X15763762Y-39517247D01*
X15837586Y-39528939D01*
X15837591Y-39528939D01*
X15837601Y-39528941D01*
X15973612Y-39550484D01*
X15973708Y-39550500D01*
X16186287Y-39550500D01*
X16186292Y-39550500D01*
X16186418Y-39550479D01*
X16285476Y-39534789D01*
X16285478Y-39534789D01*
X16396237Y-39517247D01*
X16396237Y-39517246D01*
X16396243Y-39517246D01*
X16598412Y-39451557D01*
X16787816Y-39355051D01*
X16959792Y-39230104D01*
X17110104Y-39079792D01*
X17235051Y-38907816D01*
X17331557Y-38718412D01*
X17397246Y-38516243D01*
X17417383Y-38389103D01*
X17430499Y-38306296D01*
X17430500Y-38306284D01*
X17430500Y-38097037D01*
X17430500Y-38093713D01*
X17430499Y-38093710D01*
X17430499Y-38093703D01*
X17430497Y-38093693D01*
X20569500Y-38093693D01*
X20569500Y-38306305D01*
X20602751Y-38516231D01*
X20602764Y-38516285D01*
X20603036Y-38517111D01*
X20668443Y-38718412D01*
X20764949Y-38907816D01*
X20889896Y-39079792D01*
X21040208Y-39230104D01*
X21212184Y-39355051D01*
X21401588Y-39451557D01*
X21603757Y-39517246D01*
X21603760Y-39517246D01*
X21603762Y-39517247D01*
X21677586Y-39528939D01*
X21677591Y-39528939D01*
X21677601Y-39528941D01*
X21813612Y-39550484D01*
X21813708Y-39550500D01*
X22026287Y-39550500D01*
X22026292Y-39550500D01*
X22026418Y-39550479D01*
X22125476Y-39534789D01*
X22125478Y-39534789D01*
X22236237Y-39517247D01*
X22236237Y-39517246D01*
X22236243Y-39517246D01*
X22438412Y-39451557D01*
X22627816Y-39355051D01*
X22799792Y-39230104D01*
X22950104Y-39079792D01*
X23075051Y-38907816D01*
X23171557Y-38718412D01*
X23237246Y-38516243D01*
X23257383Y-38389103D01*
X23270499Y-38306296D01*
X23270500Y-38306284D01*
X23270500Y-38097037D01*
X23270500Y-38093713D01*
X23270499Y-38093710D01*
X23270499Y-38093703D01*
X23270497Y-38093693D01*
X30729500Y-38093693D01*
X30729500Y-38306305D01*
X30762751Y-38516231D01*
X30762764Y-38516285D01*
X30763036Y-38517111D01*
X30828443Y-38718412D01*
X30924949Y-38907816D01*
X31049896Y-39079792D01*
X31200208Y-39230104D01*
X31372184Y-39355051D01*
X31561588Y-39451557D01*
X31763757Y-39517246D01*
X31763760Y-39517246D01*
X31763762Y-39517247D01*
X31837586Y-39528939D01*
X31837591Y-39528939D01*
X31837601Y-39528941D01*
X31973612Y-39550484D01*
X31973708Y-39550500D01*
X32186287Y-39550500D01*
X32186292Y-39550500D01*
X32186418Y-39550479D01*
X32285476Y-39534789D01*
X32285478Y-39534789D01*
X32396237Y-39517247D01*
X32396237Y-39517246D01*
X32396243Y-39517246D01*
X32598412Y-39451557D01*
X32787816Y-39355051D01*
X32959792Y-39230104D01*
X33110104Y-39079792D01*
X33235051Y-38907816D01*
X33331557Y-38718412D01*
X33397246Y-38516243D01*
X33417383Y-38389103D01*
X33430499Y-38306296D01*
X33430500Y-38306284D01*
X33430500Y-38093705D01*
X33430452Y-38093405D01*
X33400312Y-37903113D01*
X33400311Y-37903111D01*
X33397246Y-37883759D01*
X33397246Y-37883757D01*
X33331557Y-37681588D01*
X33235051Y-37492184D01*
X33110104Y-37320208D01*
X32959792Y-37169896D01*
X32787816Y-37044949D01*
X32598412Y-36948443D01*
X32598409Y-36948442D01*
X32598407Y-36948441D01*
X32598405Y-36948440D01*
X32396243Y-36882754D01*
X32396240Y-36882753D01*
X32396238Y-36882752D01*
X32396229Y-36882750D01*
X32186305Y-36849500D01*
X32186296Y-36849500D01*
X32186287Y-36849500D01*
X31973713Y-36849500D01*
X31973703Y-36849500D01*
X31973693Y-36849500D01*
X31763769Y-36882750D01*
X31763755Y-36882754D01*
X31561596Y-36948439D01*
X31372180Y-37044951D01*
X31200204Y-37169898D01*
X31049898Y-37320204D01*
X30924951Y-37492180D01*
X30828439Y-37681596D01*
X30762754Y-37883755D01*
X30762750Y-37883769D01*
X30729500Y-38093693D01*
X23270497Y-38093693D01*
X23257156Y-38009461D01*
X23240312Y-37903113D01*
X23240311Y-37903111D01*
X23237246Y-37883759D01*
X23237246Y-37883757D01*
X23171557Y-37681588D01*
X23075051Y-37492184D01*
X22950104Y-37320208D01*
X22799792Y-37169896D01*
X22627816Y-37044949D01*
X22438412Y-36948443D01*
X22438409Y-36948442D01*
X22438407Y-36948441D01*
X22438405Y-36948440D01*
X22236243Y-36882754D01*
X22236240Y-36882753D01*
X22236238Y-36882752D01*
X22236229Y-36882750D01*
X22026305Y-36849500D01*
X22026296Y-36849500D01*
X22026287Y-36849500D01*
X21813713Y-36849500D01*
X21813703Y-36849500D01*
X21813693Y-36849500D01*
X21603769Y-36882750D01*
X21603755Y-36882754D01*
X21401596Y-36948439D01*
X21212180Y-37044951D01*
X21040204Y-37169898D01*
X20889898Y-37320204D01*
X20764951Y-37492180D01*
X20668439Y-37681596D01*
X20602754Y-37883755D01*
X20602750Y-37883769D01*
X20569500Y-38093693D01*
X17430497Y-38093693D01*
X17417156Y-38009461D01*
X17400312Y-37903113D01*
X17400311Y-37903111D01*
X17397246Y-37883759D01*
X17397246Y-37883757D01*
X17331557Y-37681588D01*
X17235051Y-37492184D01*
X17110104Y-37320208D01*
X16959792Y-37169896D01*
X16787816Y-37044949D01*
X16598412Y-36948443D01*
X16598409Y-36948442D01*
X16598407Y-36948441D01*
X16598405Y-36948440D01*
X16396243Y-36882754D01*
X16396240Y-36882753D01*
X16396238Y-36882752D01*
X16396229Y-36882750D01*
X16186305Y-36849500D01*
X16186296Y-36849500D01*
X16186287Y-36849500D01*
X15973713Y-36849500D01*
X15973703Y-36849500D01*
X15973693Y-36849500D01*
X15763769Y-36882750D01*
X15763755Y-36882754D01*
X15561596Y-36948439D01*
X15372180Y-37044951D01*
X15200204Y-37169898D01*
X15049898Y-37320204D01*
X14924951Y-37492180D01*
X14828439Y-37681596D01*
X14762754Y-37883755D01*
X14762750Y-37883769D01*
X14729500Y-38093693D01*
X7270497Y-38093693D01*
X7257156Y-38009461D01*
X7240312Y-37903113D01*
X7240311Y-37903111D01*
X7237246Y-37883759D01*
X7237246Y-37883757D01*
X7171557Y-37681588D01*
X7075051Y-37492184D01*
X6950104Y-37320208D01*
X6799792Y-37169896D01*
X6627816Y-37044949D01*
X6438412Y-36948443D01*
X6438409Y-36948442D01*
X6438407Y-36948441D01*
X6438405Y-36948440D01*
X6236243Y-36882754D01*
X6236240Y-36882753D01*
X6236238Y-36882752D01*
X6236229Y-36882750D01*
X6026305Y-36849500D01*
X6026296Y-36849500D01*
X6026287Y-36849500D01*
X5813713Y-36849500D01*
X5813703Y-36849500D01*
X5813693Y-36849500D01*
X5603769Y-36882750D01*
X5603755Y-36882754D01*
X5401596Y-36948439D01*
X5212180Y-37044951D01*
X5040204Y-37169898D01*
X4889898Y-37320204D01*
X4764951Y-37492180D01*
X4668439Y-37681596D01*
X4602754Y-37883755D01*
X4602750Y-37883769D01*
X4569500Y-38093693D01*
X25500Y-38093693D01*
X25500Y-13183693D01*
X9359500Y-13183693D01*
X9359500Y-13396305D01*
X9392751Y-13606231D01*
X9392764Y-13606285D01*
X9393036Y-13607111D01*
X9442366Y-13758934D01*
X9458443Y-13808412D01*
X9554873Y-13997666D01*
X9554953Y-13997823D01*
X9618632Y-14085468D01*
X9656619Y-14137753D01*
X9679897Y-14169793D01*
X9830207Y-14320103D01*
X9879093Y-14355621D01*
X9892906Y-14369419D01*
X9894618Y-14371978D01*
X9899777Y-14376562D01*
X9913941Y-14391885D01*
X9964702Y-14474725D01*
X9979897Y-14570684D01*
X9957213Y-14665154D01*
X9957187Y-14665211D01*
X9956805Y-14666039D01*
X9906777Y-14737798D01*
X9896985Y-14747590D01*
X9867274Y-14772965D01*
X9830207Y-14799895D01*
X9679898Y-14950204D01*
X9554951Y-15122180D01*
X9458439Y-15311596D01*
X9392754Y-15513755D01*
X9392750Y-15513769D01*
X9359500Y-15723693D01*
X9359500Y-15936305D01*
X9392750Y-16146229D01*
X9392755Y-16146247D01*
X9438129Y-16285897D01*
X9438130Y-16285897D01*
X9438131Y-16285900D01*
X9441205Y-16295362D01*
X9458444Y-16348414D01*
X9554946Y-16537812D01*
X9597562Y-16596467D01*
X9679900Y-16709797D01*
X9679902Y-16709799D01*
X9830206Y-16860102D01*
X9830208Y-16860104D01*
X9830239Y-16860127D01*
X9937016Y-16937705D01*
X9973511Y-16970136D01*
X9989192Y-16987101D01*
X10039941Y-17069912D01*
X10044102Y-17081188D01*
X10059500Y-17167391D01*
X10059500Y-27084292D01*
X10090659Y-27480216D01*
X10090667Y-27480282D01*
X10155578Y-27890113D01*
X10159683Y-27901239D01*
X10245519Y-28258777D01*
X10245530Y-28258818D01*
X10368273Y-28636579D01*
X10371286Y-28643930D01*
X10371642Y-28644711D01*
X10520272Y-29003539D01*
X10520276Y-29003547D01*
X10520279Y-29003554D01*
X10520583Y-29004151D01*
X10520587Y-29004160D01*
X10700599Y-29357452D01*
X10700603Y-29357460D01*
X10700609Y-29357470D01*
X10908151Y-29696148D01*
X10975314Y-29788590D01*
X11141624Y-30017496D01*
X11141633Y-30017507D01*
X11141635Y-30017509D01*
X11379411Y-30295911D01*
X11399584Y-30319530D01*
X11399589Y-30319535D01*
X11529740Y-30449688D01*
X11529744Y-30449691D01*
X11700829Y-30620775D01*
X11846854Y-30766800D01*
X11965895Y-30885842D01*
X12126503Y-31017649D01*
X12226168Y-31099442D01*
X12506120Y-31286501D01*
X12506122Y-31286501D01*
X12506124Y-31286503D01*
X12803067Y-31445222D01*
X12803073Y-31445224D01*
X12803074Y-31445225D01*
X12803076Y-31445226D01*
X12803082Y-31445228D01*
X12803186Y-31445284D01*
X12804653Y-31445904D01*
X12808936Y-31447747D01*
X12811221Y-31448599D01*
X12914896Y-31491543D01*
X12957935Y-31514547D01*
X12981363Y-31530201D01*
X13044471Y-31590880D01*
X13052603Y-31602073D01*
X13073015Y-31635382D01*
X13139589Y-31766041D01*
X13139590Y-31766042D01*
X13139589Y-31766042D01*
X13157711Y-31801608D01*
X13157715Y-31801615D01*
X13278030Y-31967214D01*
X13278033Y-31967218D01*
X13278034Y-31967219D01*
X13422781Y-32111966D01*
X13588390Y-32232287D01*
X13770781Y-32325220D01*
X13770782Y-32325220D01*
X13770788Y-32325223D01*
X13905251Y-32368912D01*
X13965466Y-32388477D01*
X13981728Y-32391052D01*
X14036559Y-32399737D01*
X14036566Y-32399737D01*
X14036575Y-32399739D01*
X14167453Y-32420469D01*
X14167642Y-32420500D01*
X14372352Y-32420500D01*
X14372353Y-32420500D01*
X14372359Y-32420499D01*
X14372361Y-32420499D01*
X14467870Y-32405371D01*
X14574534Y-32388477D01*
X14769219Y-32325220D01*
X14951610Y-32232287D01*
X15117219Y-32111966D01*
X15261966Y-31967219D01*
X15324144Y-31881635D01*
X15356555Y-31845161D01*
X15371884Y-31830992D01*
X15454717Y-31780234D01*
X15550676Y-31765036D01*
X15645019Y-31787659D01*
X15645851Y-31788042D01*
X15717800Y-31838157D01*
X15727587Y-31847944D01*
X15752962Y-31877655D01*
X15766130Y-31895779D01*
X15818033Y-31967218D01*
X15818036Y-31967221D01*
X15962774Y-32111960D01*
X15962776Y-32111962D01*
X15962779Y-32111964D01*
X15962781Y-32111966D01*
X16128390Y-32232287D01*
X16310781Y-32325220D01*
X16310782Y-32325220D01*
X16310788Y-32325223D01*
X16445251Y-32368912D01*
X16505466Y-32388477D01*
X16521728Y-32391052D01*
X16576559Y-32399737D01*
X16576566Y-32399737D01*
X16576575Y-32399739D01*
X16707453Y-32420469D01*
X16707642Y-32420500D01*
X16912352Y-32420500D01*
X16912353Y-32420500D01*
X16912359Y-32420499D01*
X16912361Y-32420499D01*
X17007870Y-32405371D01*
X17114534Y-32388477D01*
X17309219Y-32325220D01*
X17491610Y-32232287D01*
X17657219Y-32111966D01*
X17801966Y-31967219D01*
X17922287Y-31801610D01*
X18015220Y-31619219D01*
X18078477Y-31424534D01*
X18089720Y-31353553D01*
X18106121Y-31250003D01*
X18108102Y-31237492D01*
X18110499Y-31222361D01*
X18110500Y-31222349D01*
X18110500Y-31017650D01*
X18110499Y-31017638D01*
X18078477Y-30815468D01*
X18078477Y-30815466D01*
X18078476Y-30815464D01*
X18078476Y-30815461D01*
X18015221Y-30620785D01*
X18015220Y-30620781D01*
X17922287Y-30438390D01*
X17801966Y-30272781D01*
X17657219Y-30128034D01*
X17657215Y-30128031D01*
X17657214Y-30128030D01*
X17512882Y-30023167D01*
X17512870Y-30023159D01*
X17491610Y-30007713D01*
X17491609Y-30007712D01*
X17491607Y-30007711D01*
X17479410Y-30001496D01*
X17479405Y-30001493D01*
X17309226Y-29914783D01*
X17309225Y-29914782D01*
X17309224Y-29914782D01*
X17309217Y-29914779D01*
X17309210Y-29914776D01*
X17309198Y-29914772D01*
X17249691Y-29895437D01*
X17204973Y-29875877D01*
X17179772Y-29861764D01*
X17113005Y-29807283D01*
X17104829Y-29797818D01*
X17082415Y-29767504D01*
X17081255Y-29765658D01*
X17015500Y-29661009D01*
X16983198Y-29609600D01*
X16800703Y-29380757D01*
X16697218Y-29277271D01*
X16645392Y-29225445D01*
X16645390Y-29225443D01*
X16501551Y-29081605D01*
X16459973Y-29040027D01*
X16366352Y-28946406D01*
X16366346Y-28946401D01*
X16284108Y-28880817D01*
X16284042Y-28880766D01*
X16159322Y-28781305D01*
X16159323Y-28781305D01*
X16159321Y-28781304D01*
X16138781Y-28768398D01*
X16138776Y-28768394D01*
X15935103Y-28640419D01*
X15696537Y-28525532D01*
X15696531Y-28525529D01*
X15696526Y-28525527D01*
X15696521Y-28525525D01*
X15696511Y-28525521D01*
X15519312Y-28463517D01*
X15519304Y-28463515D01*
X15509076Y-28459936D01*
X15446591Y-28438072D01*
X15241677Y-28391301D01*
X15188434Y-28379149D01*
X15188430Y-28379148D01*
X15188429Y-28379148D01*
X15188427Y-28379147D01*
X15188423Y-28379147D01*
X15188322Y-28379135D01*
X15185276Y-28378359D01*
X15184374Y-28378134D01*
X15174525Y-28377581D01*
X15155863Y-28375478D01*
X14925317Y-28349500D01*
X14925307Y-28349500D01*
X14925293Y-28349500D01*
X14856962Y-28349500D01*
X14018346Y-28349500D01*
X14006109Y-28349199D01*
X13993915Y-28348599D01*
X13981744Y-28347701D01*
X13964383Y-28345991D01*
X13964383Y-28345990D01*
X13927986Y-28342406D01*
X13903822Y-28338822D01*
X13879941Y-28334071D01*
X13856250Y-28328137D01*
X13822168Y-28317799D01*
X13799157Y-28309566D01*
X13776666Y-28300250D01*
X13754589Y-28289808D01*
X13723167Y-28273013D01*
X13702219Y-28260457D01*
X13681976Y-28246931D01*
X13662361Y-28232383D01*
X13620597Y-28198109D01*
X13611342Y-28190126D01*
X13602310Y-28181940D01*
X13593457Y-28173512D01*
X13511800Y-28091855D01*
X13511799Y-28091853D01*
X13466426Y-28046479D01*
X13462197Y-28042144D01*
X13457948Y-28037681D01*
X13453820Y-28033238D01*
X13309946Y-27874498D01*
X13290150Y-27852657D01*
X13282163Y-27843397D01*
X13274417Y-27833958D01*
X13266903Y-27824330D01*
X13252154Y-27804443D01*
X13127188Y-27635947D01*
X13120153Y-27625956D01*
X13113372Y-27615807D01*
X13106837Y-27605487D01*
X13046734Y-27505212D01*
X12986267Y-27404329D01*
X12980248Y-27393704D01*
X12974483Y-27382919D01*
X12969006Y-27372040D01*
X12899696Y-27225496D01*
X12868703Y-27159966D01*
X12863765Y-27148824D01*
X12859075Y-27137500D01*
X12854690Y-27126130D01*
X12854465Y-27125502D01*
X12775683Y-26905320D01*
X12771849Y-26893715D01*
X12768309Y-26882045D01*
X12765049Y-26870266D01*
X12708055Y-26642730D01*
X12705377Y-26630802D01*
X12703005Y-26618876D01*
X12700916Y-26606840D01*
X12666497Y-26374814D01*
X12665001Y-26362683D01*
X12663803Y-26350521D01*
X12662909Y-26338399D01*
X12650949Y-26094933D01*
X12650725Y-26088836D01*
X12650575Y-26082720D01*
X12650500Y-26076615D01*
X12650500Y-15447070D01*
X12642860Y-15369501D01*
X12637156Y-15311592D01*
X12620519Y-15142677D01*
X12560848Y-14842691D01*
X12489523Y-14607564D01*
X12478336Y-14570684D01*
X12473848Y-14555887D01*
X12473042Y-14552971D01*
X12473020Y-14552905D01*
X12471182Y-14547103D01*
X12469767Y-14542440D01*
X12465042Y-14533052D01*
X12422314Y-14429899D01*
X12376836Y-14320104D01*
X12355013Y-14267418D01*
X12355011Y-14267415D01*
X12226463Y-14026919D01*
X12210829Y-13997670D01*
X12080073Y-13801980D01*
X12057065Y-13758934D01*
X12047255Y-13735251D01*
X12028348Y-13644853D01*
X12027985Y-13626350D01*
X12031019Y-13582422D01*
X12031372Y-13580195D01*
X12044054Y-13500121D01*
X12060499Y-13396295D01*
X12060500Y-13396284D01*
X12060500Y-13183715D01*
X12060499Y-13183703D01*
X12027246Y-12973759D01*
X12027246Y-12973757D01*
X11961557Y-12771588D01*
X11865051Y-12582184D01*
X11740104Y-12410208D01*
X11589792Y-12259896D01*
X11417816Y-12134949D01*
X11228412Y-12038443D01*
X11228409Y-12038442D01*
X11228407Y-12038441D01*
X11228405Y-12038440D01*
X11026243Y-11972754D01*
X11026240Y-11972753D01*
X11026238Y-11972752D01*
X11026229Y-11972750D01*
X10816305Y-11939500D01*
X10816296Y-11939500D01*
X10816287Y-11939500D01*
X10603713Y-11939500D01*
X10603703Y-11939500D01*
X10603693Y-11939500D01*
X10393769Y-11972750D01*
X10393755Y-11972754D01*
X10191596Y-12038439D01*
X10002180Y-12134951D01*
X9830204Y-12259898D01*
X9679898Y-12410204D01*
X9554951Y-12582180D01*
X9458439Y-12771596D01*
X9392754Y-12973755D01*
X9392750Y-12973769D01*
X9359500Y-13183693D01*
X25500Y-13183693D01*
X25500Y-8103693D01*
X9359500Y-8103693D01*
X9359500Y-8316305D01*
X9392750Y-8526229D01*
X9392755Y-8526247D01*
X9442865Y-8680473D01*
X9442866Y-8680473D01*
X9442867Y-8680476D01*
X9458443Y-8728412D01*
X9554949Y-8917816D01*
X9679896Y-9089792D01*
X9830208Y-9240104D01*
X10002184Y-9365051D01*
X10191588Y-9461557D01*
X10393757Y-9527246D01*
X10393760Y-9527246D01*
X10393762Y-9527247D01*
X10467586Y-9538939D01*
X10467591Y-9538939D01*
X10467601Y-9538941D01*
X10603612Y-9560484D01*
X10603708Y-9560500D01*
X10816287Y-9560500D01*
X10816293Y-9560500D01*
X10816637Y-9560445D01*
X10823617Y-9559339D01*
X10926897Y-9542981D01*
X10926898Y-9542981D01*
X10952417Y-9538939D01*
X11026243Y-9527246D01*
X11228412Y-9461557D01*
X11417816Y-9365051D01*
X11589792Y-9240104D01*
X11740104Y-9089792D01*
X11865051Y-8917816D01*
X11961557Y-8728412D01*
X12027246Y-8526243D01*
X12044789Y-8415476D01*
X12060499Y-8316296D01*
X12060500Y-8316284D01*
X12060500Y-8103705D01*
X12060452Y-8103405D01*
X12030312Y-7913113D01*
X12030311Y-7913111D01*
X12027246Y-7893759D01*
X12027246Y-7893757D01*
X11961557Y-7691588D01*
X11865051Y-7502184D01*
X11740104Y-7330208D01*
X11589792Y-7179896D01*
X11417816Y-7054949D01*
X11228412Y-6958443D01*
X11228409Y-6958442D01*
X11228407Y-6958441D01*
X11228405Y-6958440D01*
X11026243Y-6892754D01*
X11026240Y-6892753D01*
X11026238Y-6892752D01*
X11026229Y-6892750D01*
X10816305Y-6859500D01*
X10816296Y-6859500D01*
X10816287Y-6859500D01*
X10603713Y-6859500D01*
X10603703Y-6859500D01*
X10603693Y-6859500D01*
X10393769Y-6892750D01*
X10393755Y-6892754D01*
X10191596Y-6958439D01*
X10002180Y-7054951D01*
X9830204Y-7179898D01*
X9679898Y-7330204D01*
X9554951Y-7502180D01*
X9458439Y-7691596D01*
X9392754Y-7893755D01*
X9392750Y-7893769D01*
X9359500Y-8103693D01*
X25500Y-8103693D01*
X25500Y-2892270D01*
X25559Y-2886838D01*
X25678Y-2881384D01*
X25855Y-2875972D01*
X26439Y-2862575D01*
X30940Y-2759474D01*
X31813Y-2746866D01*
X33008Y-2734258D01*
X34520Y-2721714D01*
X78867Y-2418961D01*
X81376Y-2404731D01*
X84306Y-2390543D01*
X87638Y-2376486D01*
X166070Y-2083777D01*
X170208Y-2069953D01*
X174765Y-2056200D01*
X179712Y-2042611D01*
X291599Y-1760976D01*
X297314Y-1747723D01*
X303460Y-1734544D01*
X309906Y-1721710D01*
X453752Y-1454929D01*
X460978Y-1442415D01*
X461560Y-1441470D01*
X468578Y-1430093D01*
X476518Y-1418019D01*
X650337Y-1169779D01*
X658979Y-1158172D01*
X667942Y-1146837D01*
X677249Y-1135746D01*
X878706Y-909370D01*
X888612Y-898869D01*
X898869Y-888612D01*
X909370Y-878706D01*
X1135755Y-677240D01*
X1146837Y-667942D01*
X1158172Y-658979D01*
X1169779Y-650337D01*
X1418015Y-476521D01*
X1430084Y-468583D01*
X1442399Y-460987D01*
X1454919Y-453758D01*
X1721685Y-309919D01*
X1734592Y-303438D01*
X1747713Y-297320D01*
X1760981Y-291597D01*
X2042612Y-179712D01*
X2056196Y-174767D01*
X2069932Y-170216D01*
X2083794Y-166067D01*
X2376506Y-87633D01*
X2390549Y-84305D01*
X2404729Y-81377D01*
X2418964Y-78866D01*
X2721714Y-34520D01*
X2734258Y-33008D01*
X2746883Y-31811D01*
X2759479Y-30940D01*
X2862404Y-26447D01*
X2875996Y-25854D01*
X2881432Y-25677D01*
X2886870Y-25559D01*
X2892272Y-25500D01*
X18325792Y-25500D01*
X18374357Y-30282D01*
G37*
%TD.AperFunction*%
%TD*%
M02*
