M48
; DRILL file KiCad 10.0.0 date 2026-04-17T03:24:07
; FORMAT={-:-/ absolute / metric / decimal}
; #@! TF.CreationDate,2026-04-17T03:24:07+02:00
; #@! TF.GenerationSoftware,Kicad,Pcbnew,10.0.0
; #@! TF.FileFunction,MixedPlating,1,2
FMAT,2
METRIC
; #@! TA.AperFunction,Plated,PTH,ViaDrill
T1C0.300
; #@! TA.AperFunction,Plated,PTH,ComponentDrill
T2C0.500
; #@! TA.AperFunction,Plated,PTH,ComponentDrill
T3C0.550
; #@! TA.AperFunction,Plated,PTH,ComponentDrill
T4C0.800
; #@! TA.AperFunction,Plated,PTH,ComponentDrill
T5C1.000
; #@! TA.AperFunction,Plated,PTH,ComponentDrill
T6C2.200
; #@! TA.AperFunction,NonPlated,NPTH,ComponentDrill
T7C1.200
%
G90
G05
T1
X40.5Y-33.0
X40.5Y-35.0
X40.5Y-37.0
X40.5Y-39.0
X40.5Y-41.0
X40.5Y-43.0
X40.5Y-45.0
X40.5Y-47.0
X40.5Y-49.0
X40.5Y-51.0
X40.5Y-53.0
X40.5Y-55.0
X40.5Y-57.0
X40.5Y-59.0
X40.5Y-61.0
X40.5Y-63.0
X40.5Y-65.0
X40.5Y-67.0
X40.5Y-69.0
X40.5Y-71.0
X40.5Y-73.0
X40.5Y-75.0
X40.5Y-77.0
X40.5Y-79.0
X40.5Y-81.0
X40.5Y-83.0
X41.232Y-31.232
X41.232Y-84.768
X43.0Y-30.5
X43.0Y-85.5
X44.906Y-30.5
X45.0Y-85.5
X46.812Y-30.5
X47.0Y-85.5
X48.719Y-30.5
X49.0Y-85.5
X50.625Y-30.5
X51.0Y-85.5
X52.531Y-30.5
X53.0Y-85.5
X54.438Y-30.5
X55.0Y-85.5
X56.344Y-30.5
X57.0Y-85.5
X58.25Y-30.5
X59.0Y-85.5
X60.25Y-30.5
X61.0Y-85.5
X61.723Y-39.5
X62.308Y-30.5
X63.0Y-85.5
X63.15Y-34.5
X64.365Y-30.5
X64.75Y-49.5
X65.0Y-85.5
X66.423Y-30.5
X67.0Y-85.5
X67.15Y-40.5
X67.15Y-44.3
X67.975Y-40.5
X67.975Y-44.3
X68.481Y-30.5
X69.0Y-85.5
X70.538Y-30.5
X70.875Y-42.625
X71.0Y-85.5
X72.475Y-35.275
X72.596Y-30.5
X73.0Y-85.5
X74.654Y-30.5
X75.0Y-85.5
X76.337Y-52.662
X76.712Y-30.5
X76.88Y-36.975
X77.0Y-85.5
X77.73Y-36.975
X78.119Y-63.725
X78.769Y-30.5
X79.0Y-85.5
X80.827Y-30.5
X81.0Y-85.5
X81.25Y-46.02
X82.885Y-30.5
X83.0Y-85.5
X84.942Y-30.5
X85.0Y-85.5
X86.5Y-65.0
X87.0Y-30.5
X87.0Y-85.5
X88.768Y-31.232
X88.768Y-84.768
X89.5Y-33.0
X89.5Y-35.114
X89.5Y-37.227
X89.5Y-39.341
X89.5Y-41.455
X89.5Y-43.568
X89.5Y-45.682
X89.5Y-47.795
X89.5Y-49.909
X89.5Y-52.023
X89.5Y-54.136
X89.5Y-56.25
X89.5Y-58.25
X89.5Y-60.312
X89.5Y-62.375
X89.5Y-64.438
X89.5Y-66.5
X89.5Y-68.562
X89.5Y-70.625
X89.5Y-72.688
X89.5Y-74.75
X89.5Y-76.812
X89.5Y-78.875
X89.5Y-80.938
X89.5Y-83.0
T4
X54.27Y-53.5
X54.27Y-61.12
X56.81Y-53.5
X56.81Y-61.12
X59.35Y-53.5
X59.35Y-61.12
X61.89Y-53.5
X61.89Y-61.12
X64.43Y-53.5
X64.43Y-61.12
X66.97Y-53.5
X66.97Y-61.12
X69.51Y-53.5
X69.51Y-61.12
X72.05Y-53.5
X72.05Y-61.12
X85.75Y-34.87
X85.75Y-39.75
T5
X50.71Y-38.21
X50.71Y-40.75
X50.71Y-43.29
X50.71Y-45.83
X53.25Y-38.21
X53.25Y-40.75
X53.25Y-43.29
X53.25Y-45.83
X76.75Y-70.38
X76.75Y-72.92
X76.75Y-75.46
X76.75Y-78.0
X79.29Y-70.38
X79.29Y-72.92
X79.29Y-75.46
X79.29Y-78.0
T6
X51.0Y-72.0
X67.0Y-72.0
T7
X45.92Y-68.2
X45.92Y-78.36
X56.08Y-68.2
X56.08Y-78.36
X61.92Y-68.2
X61.92Y-78.36
X72.08Y-68.2
X72.08Y-78.36
T2
X73.455Y-31.175G85X73.455Y-31.825
G05
X80.455Y-31.175G85X80.455Y-31.825
G05
T3
X74.305Y-34.2G85X74.605Y-34.2
G05
X79.305Y-34.2G85X79.605Y-34.2
G05
M30
