<?xml version="1.0" standalone="no"?>
 <!DOCTYPE svg PUBLIC "-//W3C//DTD SVG 1.1//EN" 
 "http://www.w3.org/Graphics/SVG/1.1/DTD/svg11.dtd"> 
<svg
  xmlns:svg="http://www.w3.org/2000/svg"
  xmlns="http://www.w3.org/2000/svg"
  xmlns:xlink="http://www.w3.org/1999/xlink"
  xmlns:inkscape="http://www.inkscape.org/namespaces/inkscape"
  version="1.1"
  width="55.5498mm" height="71.2978mm" viewBox="0.0000 0.0000 55.5498 71.2978">
<title>SVG Image created as bios-programmer-ch341a-B_Paste.svg date 2026-04-17T02:47:46 </title>
  <desc>Image generated by PCBNEW </desc>
<g style="fill:#000000; fill-opacity:1.0000;stroke:#000000; stroke-opacity:1.0000;
stroke-linecap:round; stroke-linejoin:round;"
 transform="translate(0 0) scale(1 1)">
</g>
<g style="fill:none; 
stroke:#C872AB; stroke-width:0.1500; stroke-opacity:1; 
stroke-linecap:round; stroke-linejoin:round;">
<path d="M-103.7000 -1.3950
L4.3000 -1.3950
L4.3000 30.6050
L-103.7000 30.6050
L-103.7000 -1.3950
" />
<path d="M-29.2500 -18.7100
L6.3000 -18.7100
L6.3000 32.6050
L-29.2500 32.6050
L-29.2500 -18.7100
" />
<path d="M-27.2500 -16.7100
L4.3000 -16.7100
L4.3000 30.6050
L-27.2500 30.6050
L-27.2500 -16.7100
" />
<path d="M20.7500 -16.7100
L20.7500 -18.7100
" />
<text x="-4.2500" y="-17.0600"
textLength="1.4281" font-size="1.7333" lengthAdjust="spacingAndGlyphs"
text-anchor="start" opacity="0" stroke-opacity="0">1</text>
<g class="stroked-text"><desc>1</desc>
<path d="M-3.1608 -17.1164
L-3.9037 -17.1164
" />
<path d="M-3.5323 -17.1164
L-3.5323 -18.4164
" />
<path d="M-3.5323 -18.4164
L-3.6561 -18.2307
" />
<path d="M-3.6561 -18.2307
L-3.7799 -18.1069
" />
<path d="M-3.7799 -18.1069
L-3.9037 -18.0450
" />
</g><path d="M20.7500 30.6050
L20.7500 32.6050
" />
<text x="-4.2500" y="32.2550"
textLength="1.4281" font-size="1.7333" lengthAdjust="spacingAndGlyphs"
text-anchor="start" opacity="0" stroke-opacity="0">1</text>
<g class="stroked-text"><desc>1</desc>
<path d="M-3.1608 32.1986
L-3.9037 32.1986
" />
<path d="M-3.5323 32.1986
L-3.5323 30.8986
" />
<path d="M-3.5323 30.8986
L-3.6561 31.0843
" />
<path d="M-3.6561 31.0843
L-3.7799 31.2081
" />
<path d="M-3.7799 31.2081
L-3.9037 31.2700
" />
</g><path d="M-29.2500 31.2900
L-27.2500 31.2900
" />
<text x="-28.2500" y="6.9400"
textLength="1.3043" font-size="1.7333" lengthAdjust="spacingAndGlyphs"
text-anchor="middle" opacity="0" stroke-opacity="0">A</text>
<g class="stroked-text"><desc>A</desc>
<path d="M-28.5595 6.5122
L-27.9405 6.5122
" />
<path d="M-28.6833 6.8836
L-28.2500 5.5836
" />
<path d="M-28.2500 5.5836
L-27.8167 6.8836
" />
</g><path d="M6.3000 31.2900
L4.3000 31.2900
" />
<text x="5.3000" y="6.9400"
textLength="1.3043" font-size="1.7333" lengthAdjust="spacingAndGlyphs"
text-anchor="middle" opacity="0" stroke-opacity="0">A</text>
<g class="stroked-text"><desc>A</desc>
<path d="M4.9905 6.5122
L5.6095 6.5122
" />
<path d="M4.8667 6.8836
L5.3000 5.5836
" />
<path d="M5.3000 5.5836
L5.7333 6.8836
" />
</g><text x="-80.7000" y="26.4550"
textLength="7.0071" font-size="2.0000" lengthAdjust="spacingAndGlyphs"
text-anchor="start" opacity="0" stroke-opacity="0">Date: </text>
<g class="stroked-text"><desc>Date: </desc>
<path d="M-80.2442 26.3911
L-80.2442 24.8911
" />
<path d="M-80.2442 24.8911
L-79.8870 24.8911
" />
<path d="M-79.8870 24.8911
L-79.6727 24.9626
" />
<path d="M-79.6727 24.9626
L-79.5299 25.1054
" />
<path d="M-79.5299 25.1054
L-79.4585 25.2483
" />
<path d="M-79.4585 25.2483
L-79.3870 25.5340
" />
<path d="M-79.3870 25.5340
L-79.3870 25.7483
" />
<path d="M-79.3870 25.7483
L-79.4585 26.0340
" />
<path d="M-79.4585 26.0340
L-79.5299 26.1768
" />
<path d="M-79.5299 26.1768
L-79.6727 26.3197
" />
<path d="M-79.6727 26.3197
L-79.8870 26.3911
" />
<path d="M-79.8870 26.3911
L-80.2442 26.3911
" />
<path d="M-78.1013 26.3911
L-78.1013 25.6054
" />
<path d="M-78.1013 25.6054
L-78.1727 25.4626
" />
<path d="M-78.1727 25.4626
L-78.3156 25.3911
" />
<path d="M-78.3156 25.3911
L-78.6013 25.3911
" />
<path d="M-78.6013 25.3911
L-78.7442 25.4626
" />
<path d="M-78.1013 26.3197
L-78.2442 26.3911
" />
<path d="M-78.2442 26.3911
L-78.6013 26.3911
" />
<path d="M-78.6013 26.3911
L-78.7442 26.3197
" />
<path d="M-78.7442 26.3197
L-78.8156 26.1768
" />
<path d="M-78.8156 26.1768
L-78.8156 26.0340
" />
<path d="M-78.8156 26.0340
L-78.7442 25.8911
" />
<path d="M-78.7442 25.8911
L-78.6013 25.8197
" />
<path d="M-78.6013 25.8197
L-78.2442 25.8197
" />
<path d="M-78.2442 25.8197
L-78.1013 25.7483
" />
<path d="M-77.6013 25.3911
L-77.0299 25.3911
" />
<path d="M-77.3870 24.8911
L-77.3870 26.1768
" />
<path d="M-77.3870 26.1768
L-77.3156 26.3197
" />
<path d="M-77.3156 26.3197
L-77.1727 26.3911
" />
<path d="M-77.1727 26.3911
L-77.0299 26.3911
" />
<path d="M-75.9585 26.3197
L-76.1013 26.3911
" />
<path d="M-76.1013 26.3911
L-76.3870 26.3911
" />
<path d="M-76.3870 26.3911
L-76.5299 26.3197
" />
<path d="M-76.5299 26.3197
L-76.6013 26.1768
" />
<path d="M-76.6013 26.1768
L-76.6013 25.6054
" />
<path d="M-76.6013 25.6054
L-76.5299 25.4626
" />
<path d="M-76.5299 25.4626
L-76.3870 25.3911
" />
<path d="M-76.3870 25.3911
L-76.1013 25.3911
" />
<path d="M-76.1013 25.3911
L-75.9585 25.4626
" />
<path d="M-75.9585 25.4626
L-75.8870 25.6054
" />
<path d="M-75.8870 25.6054
L-75.8870 25.7483
" />
<path d="M-75.8870 25.7483
L-76.6013 25.8911
" />
<path d="M-75.2442 26.2483
L-75.1727 26.3197
" />
<path d="M-75.1727 26.3197
L-75.2442 26.3911
" />
<path d="M-75.2442 26.3911
L-75.3156 26.3197
" />
<path d="M-75.3156 26.3197
L-75.2442 26.2483
" />
<path d="M-75.2442 26.2483
L-75.2442 26.3911
" />
<path d="M-75.2442 25.4626
L-75.1727 25.5340
" />
<path d="M-75.1727 25.5340
L-75.2442 25.6054
" />
<path d="M-75.2442 25.6054
L-75.3156 25.5340
" />
<path d="M-75.3156 25.5340
L-75.2442 25.4626
" />
<path d="M-75.2442 25.4626
L-75.2442 25.6054
" />
</g><path d="M-103.7000 27.1050
L4.3000 27.1050
" />
<text x="-102.7000" y="29.2550"
textLength="22.2929" font-size="2.0000" lengthAdjust="spacingAndGlyphs"
text-anchor="start" opacity="0" stroke-opacity="0">KiCad E.D.A. 10.0.0</text>
<g class="stroked-text"><desc>KiCad E.D.A. 10.0.0</desc>
<path d="M-102.2442 29.1911
L-102.2442 27.6911
" />
<path d="M-101.3870 29.1911
L-102.0299 28.3340
" />
<path d="M-101.3870 27.6911
L-102.2442 28.5483
" />
<path d="M-100.7442 29.1911
L-100.7442 28.1911
" />
<path d="M-100.7442 27.6911
L-100.8156 27.7626
" />
<path d="M-100.8156 27.7626
L-100.7442 27.8340
" />
<path d="M-100.7442 27.8340
L-100.6727 27.7626
" />
<path d="M-100.6727 27.7626
L-100.7442 27.6911
" />
<path d="M-100.7442 27.6911
L-100.7442 27.8340
" />
<path d="M-99.1727 29.0483
L-99.2442 29.1197
" />
<path d="M-99.2442 29.1197
L-99.4585 29.1911
" />
<path d="M-99.4585 29.1911
L-99.6013 29.1911
" />
<path d="M-99.6013 29.1911
L-99.8156 29.1197
" />
<path d="M-99.8156 29.1197
L-99.9585 28.9768
" />
<path d="M-99.9585 28.9768
L-100.0299 28.8340
" />
<path d="M-100.0299 28.8340
L-100.1013 28.5483
" />
<path d="M-100.1013 28.5483
L-100.1013 28.3340
" />
<path d="M-100.1013 28.3340
L-100.0299 28.0483
" />
<path d="M-100.0299 28.0483
L-99.9585 27.9054
" />
<path d="M-99.9585 27.9054
L-99.8156 27.7626
" />
<path d="M-99.8156 27.7626
L-99.6013 27.6911
" />
<path d="M-99.6013 27.6911
L-99.4585 27.6911
" />
<path d="M-99.4585 27.6911
L-99.2442 27.7626
" />
<path d="M-99.2442 27.7626
L-99.1727 27.8340
" />
<path d="M-97.8870 29.1911
L-97.8870 28.4054
" />
<path d="M-97.8870 28.4054
L-97.9585 28.2626
" />
<path d="M-97.9585 28.2626
L-98.1013 28.1911
" />
<path d="M-98.1013 28.1911
L-98.3870 28.1911
" />
<path d="M-98.3870 28.1911
L-98.5299 28.2626
" />
<path d="M-97.8870 29.1197
L-98.0299 29.1911
" />
<path d="M-98.0299 29.1911
L-98.3870 29.1911
" />
<path d="M-98.3870 29.1911
L-98.5299 29.1197
" />
<path d="M-98.5299 29.1197
L-98.6013 28.9768
" />
<path d="M-98.6013 28.9768
L-98.6013 28.8340
" />
<path d="M-98.6013 28.8340
L-98.5299 28.6911
" />
<path d="M-98.5299 28.6911
L-98.3870 28.6197
" />
<path d="M-98.3870 28.6197
L-98.0299 28.6197
" />
<path d="M-98.0299 28.6197
L-97.8870 28.5483
" />
<path d="M-96.5299 29.1911
L-96.5299 27.6911
" />
<path d="M-96.5299 29.1197
L-96.6727 29.1911
" />
<path d="M-96.6727 29.1911
L-96.9585 29.1911
" />
<path d="M-96.9585 29.1911
L-97.1013 29.1197
" />
<path d="M-97.1013 29.1197
L-97.1727 29.0483
" />
<path d="M-97.1727 29.0483
L-97.2442 28.9054
" />
<path d="M-97.2442 28.9054
L-97.2442 28.4768
" />
<path d="M-97.2442 28.4768
L-97.1727 28.3340
" />
<path d="M-97.1727 28.3340
L-97.1013 28.2626
" />
<path d="M-97.1013 28.2626
L-96.9585 28.1911
" />
<path d="M-96.9585 28.1911
L-96.6727 28.1911
" />
<path d="M-96.6727 28.1911
L-96.5299 28.2626
" />
<path d="M-94.6727 28.4054
L-94.1727 28.4054
" />
<path d="M-93.9585 29.1911
L-94.6727 29.1911
" />
<path d="M-94.6727 29.1911
L-94.6727 27.6911
" />
<path d="M-94.6727 27.6911
L-93.9585 27.6911
" />
<path d="M-93.3156 29.0483
L-93.2442 29.1197
" />
<path d="M-93.2442 29.1197
L-93.3156 29.1911
" />
<path d="M-93.3156 29.1911
L-93.3870 29.1197
" />
<path d="M-93.3870 29.1197
L-93.3156 29.0483
" />
<path d="M-93.3156 29.0483
L-93.3156 29.1911
" />
<path d="M-92.6013 29.1911
L-92.6013 27.6911
" />
<path d="M-92.6013 27.6911
L-92.2442 27.6911
" />
<path d="M-92.2442 27.6911
L-92.0299 27.7626
" />
<path d="M-92.0299 27.7626
L-91.8870 27.9054
" />
<path d="M-91.8870 27.9054
L-91.8156 28.0483
" />
<path d="M-91.8156 28.0483
L-91.7442 28.3340
" />
<path d="M-91.7442 28.3340
L-91.7442 28.5483
" />
<path d="M-91.7442 28.5483
L-91.8156 28.8340
" />
<path d="M-91.8156 28.8340
L-91.8870 28.9768
" />
<path d="M-91.8870 28.9768
L-92.0299 29.1197
" />
<path d="M-92.0299 29.1197
L-92.2442 29.1911
" />
<path d="M-92.2442 29.1911
L-92.6013 29.1911
" />
<path d="M-91.1013 29.0483
L-91.0299 29.1197
" />
<path d="M-91.0299 29.1197
L-91.1013 29.1911
" />
<path d="M-91.1013 29.1911
L-91.1727 29.1197
" />
<path d="M-91.1727 29.1197
L-91.1013 29.0483
" />
<path d="M-91.1013 29.0483
L-91.1013 29.1911
" />
<path d="M-90.4585 28.7626
L-89.7442 28.7626
" />
<path d="M-90.6013 29.1911
L-90.1013 27.6911
" />
<path d="M-90.1013 27.6911
L-89.6013 29.1911
" />
<path d="M-89.1013 29.0483
L-89.0299 29.1197
" />
<path d="M-89.0299 29.1197
L-89.1013 29.1911
" />
<path d="M-89.1013 29.1911
L-89.1727 29.1197
" />
<path d="M-89.1727 29.1197
L-89.1013 29.0483
" />
<path d="M-89.1013 29.0483
L-89.1013 29.1911
" />
<path d="M-86.4585 29.1911
L-87.3156 29.1911
" />
<path d="M-86.8870 29.1911
L-86.8870 27.6911
" />
<path d="M-86.8870 27.6911
L-87.0299 27.9054
" />
<path d="M-87.0299 27.9054
L-87.1727 28.0483
" />
<path d="M-87.1727 28.0483
L-87.3156 28.1197
" />
<path d="M-85.5299 27.6911
L-85.3870 27.6911
" />
<path d="M-85.3870 27.6911
L-85.2442 27.7626
" />
<path d="M-85.2442 27.7626
L-85.1727 27.8340
" />
<path d="M-85.1727 27.8340
L-85.1013 27.9768
" />
<path d="M-85.1013 27.9768
L-85.0299 28.2626
" />
<path d="M-85.0299 28.2626
L-85.0299 28.6197
" />
<path d="M-85.0299 28.6197
L-85.1013 28.9054
" />
<path d="M-85.1013 28.9054
L-85.1727 29.0483
" />
<path d="M-85.1727 29.0483
L-85.2442 29.1197
" />
<path d="M-85.2442 29.1197
L-85.3870 29.1911
" />
<path d="M-85.3870 29.1911
L-85.5299 29.1911
" />
<path d="M-85.5299 29.1911
L-85.6727 29.1197
" />
<path d="M-85.6727 29.1197
L-85.7442 29.0483
" />
<path d="M-85.7442 29.0483
L-85.8156 28.9054
" />
<path d="M-85.8156 28.9054
L-85.8870 28.6197
" />
<path d="M-85.8870 28.6197
L-85.8870 28.2626
" />
<path d="M-85.8870 28.2626
L-85.8156 27.9768
" />
<path d="M-85.8156 27.9768
L-85.7442 27.8340
" />
<path d="M-85.7442 27.8340
L-85.6727 27.7626
" />
<path d="M-85.6727 27.7626
L-85.5299 27.6911
" />
<path d="M-84.3870 29.0483
L-84.3156 29.1197
" />
<path d="M-84.3156 29.1197
L-84.3870 29.1911
" />
<path d="M-84.3870 29.1911
L-84.4585 29.1197
" />
<path d="M-84.4585 29.1197
L-84.3870 29.0483
" />
<path d="M-84.3870 29.0483
L-84.3870 29.1911
" />
<path d="M-83.3870 27.6911
L-83.2442 27.6911
" />
<path d="M-83.2442 27.6911
L-83.1013 27.7626
" />
<path d="M-83.1013 27.7626
L-83.0299 27.8340
" />
<path d="M-83.0299 27.8340
L-82.9585 27.9768
" />
<path d="M-82.9585 27.9768
L-82.8870 28.2626
" />
<path d="M-82.8870 28.2626
L-82.8870 28.6197
" />
<path d="M-82.8870 28.6197
L-82.9585 28.9054
" />
<path d="M-82.9585 28.9054
L-83.0299 29.0483
" />
<path d="M-83.0299 29.0483
L-83.1013 29.1197
" />
<path d="M-83.1013 29.1197
L-83.2442 29.1911
" />
<path d="M-83.2442 29.1911
L-83.3870 29.1911
" />
<path d="M-83.3870 29.1911
L-83.5299 29.1197
" />
<path d="M-83.5299 29.1197
L-83.6013 29.0483
" />
<path d="M-83.6013 29.0483
L-83.6727 28.9054
" />
<path d="M-83.6727 28.9054
L-83.7442 28.6197
" />
<path d="M-83.7442 28.6197
L-83.7442 28.2626
" />
<path d="M-83.7442 28.2626
L-83.6727 27.9768
" />
<path d="M-83.6727 27.9768
L-83.6013 27.8340
" />
<path d="M-83.6013 27.8340
L-83.5299 27.7626
" />
<path d="M-83.5299 27.7626
L-83.3870 27.6911
" />
<path d="M-82.2442 29.0483
L-82.1727 29.1197
" />
<path d="M-82.1727 29.1197
L-82.2442 29.1911
" />
<path d="M-82.2442 29.1911
L-82.3156 29.1197
" />
<path d="M-82.3156 29.1197
L-82.2442 29.0483
" />
<path d="M-82.2442 29.0483
L-82.2442 29.1911
" />
<path d="M-81.2442 27.6911
L-81.1013 27.6911
" />
<path d="M-81.1013 27.6911
L-80.9585 27.7626
" />
<path d="M-80.9585 27.7626
L-80.8870 27.8340
" />
<path d="M-80.8870 27.8340
L-80.8156 27.9768
" />
<path d="M-80.8156 27.9768
L-80.7442 28.2626
" />
<path d="M-80.7442 28.2626
L-80.7442 28.6197
" />
<path d="M-80.7442 28.6197
L-80.8156 28.9054
" />
<path d="M-80.8156 28.9054
L-80.8870 29.0483
" />
<path d="M-80.8870 29.0483
L-80.9585 29.1197
" />
<path d="M-80.9585 29.1197
L-81.1013 29.1911
" />
<path d="M-81.1013 29.1911
L-81.2442 29.1911
" />
<path d="M-81.2442 29.1911
L-81.3870 29.1197
" />
<path d="M-81.3870 29.1197
L-81.4585 29.0483
" />
<path d="M-81.4585 29.0483
L-81.5299 28.9054
" />
<path d="M-81.5299 28.9054
L-81.6013 28.6197
" />
<path d="M-81.6013 28.6197
L-81.6013 28.2626
" />
<path d="M-81.6013 28.2626
L-81.5299 27.9768
" />
<path d="M-81.5299 27.9768
L-81.4585 27.8340
" />
<path d="M-81.4585 27.8340
L-81.3870 27.7626
" />
<path d="M-81.3870 27.7626
L-81.2442 27.6911
" />
</g><path d="M-103.7000 24.1050
L4.3000 24.1050
" />
</g>
<g style="fill:none; 
stroke:#C872AB; stroke-width:0.3000; stroke-opacity:1; 
stroke-linecap:round; stroke-linejoin:round;">
<text x="-17.7000" y="26.4550"
textLength="6.3857" font-size="2.0000" lengthAdjust="spacingAndGlyphs"
text-anchor="start" opacity="0" stroke-opacity="0">Rev: </text>
<g class="stroked-text"><desc>Rev: </desc>
<path d="M-16.2883 26.3833
L-16.7883 25.6690
" />
<path d="M-17.1455 26.3833
L-17.1455 24.8833
" />
<path d="M-17.1455 24.8833
L-16.5741 24.8833
" />
<path d="M-16.5741 24.8833
L-16.4312 24.9548
" />
<path d="M-16.4312 24.9548
L-16.3598 25.0262
" />
<path d="M-16.3598 25.0262
L-16.2883 25.1690
" />
<path d="M-16.2883 25.1690
L-16.2883 25.3833
" />
<path d="M-16.2883 25.3833
L-16.3598 25.5262
" />
<path d="M-16.3598 25.5262
L-16.4312 25.5976
" />
<path d="M-16.4312 25.5976
L-16.5741 25.6690
" />
<path d="M-16.5741 25.6690
L-17.1455 25.6690
" />
<path d="M-15.0741 26.3119
L-15.2169 26.3833
" />
<path d="M-15.2169 26.3833
L-15.5026 26.3833
" />
<path d="M-15.5026 26.3833
L-15.6455 26.3119
" />
<path d="M-15.6455 26.3119
L-15.7169 26.1690
" />
<path d="M-15.7169 26.1690
L-15.7169 25.5976
" />
<path d="M-15.7169 25.5976
L-15.6455 25.4548
" />
<path d="M-15.6455 25.4548
L-15.5026 25.3833
" />
<path d="M-15.5026 25.3833
L-15.2169 25.3833
" />
<path d="M-15.2169 25.3833
L-15.0741 25.4548
" />
<path d="M-15.0741 25.4548
L-15.0026 25.5976
" />
<path d="M-15.0026 25.5976
L-15.0026 25.7405
" />
<path d="M-15.0026 25.7405
L-15.7169 25.8833
" />
<path d="M-14.5026 25.3833
L-14.1455 26.3833
" />
<path d="M-14.1455 26.3833
L-13.7883 25.3833
" />
<path d="M-13.2169 26.2405
L-13.1455 26.3119
" />
<path d="M-13.1455 26.3119
L-13.2169 26.3833
" />
<path d="M-13.2169 26.3833
L-13.2883 26.3119
" />
<path d="M-13.2883 26.3119
L-13.2169 26.2405
" />
<path d="M-13.2169 26.2405
L-13.2169 26.3833
" />
<path d="M-13.2169 25.4548
L-13.1455 25.5262
" />
<path d="M-13.1455 25.5262
L-13.2169 25.5976
" />
<path d="M-13.2169 25.5976
L-13.2883 25.5262
" />
<path d="M-13.2883 25.5262
L-13.2169 25.4548
" />
<path d="M-13.2169 25.4548
L-13.2169 25.5976
" />
</g></g>
<g style="fill:none; 
stroke:#C872AB; stroke-width:0.1500; stroke-opacity:1; 
stroke-linecap:round; stroke-linejoin:round;">
<text x="-102.7000" y="26.4550"
textLength="11.6500" font-size="2.0000" lengthAdjust="spacingAndGlyphs"
text-anchor="start" opacity="0" stroke-opacity="0">Size: User</text>
<g class="stroked-text"><desc>Size: User</desc>
<path d="M-102.3156 26.3197
L-102.1013 26.3911
" />
<path d="M-102.1013 26.3911
L-101.7442 26.3911
" />
<path d="M-101.7442 26.3911
L-101.6013 26.3197
" />
<path d="M-101.6013 26.3197
L-101.5299 26.2483
" />
<path d="M-101.5299 26.2483
L-101.4585 26.1054
" />
<path d="M-101.4585 26.1054
L-101.4585 25.9626
" />
<path d="M-101.4585 25.9626
L-101.5299 25.8197
" />
<path d="M-101.5299 25.8197
L-101.6013 25.7483
" />
<path d="M-101.6013 25.7483
L-101.7442 25.6768
" />
<path d="M-101.7442 25.6768
L-102.0299 25.6054
" />
<path d="M-102.0299 25.6054
L-102.1727 25.5340
" />
<path d="M-102.1727 25.5340
L-102.2442 25.4626
" />
<path d="M-102.2442 25.4626
L-102.3156 25.3197
" />
<path d="M-102.3156 25.3197
L-102.3156 25.1768
" />
<path d="M-102.3156 25.1768
L-102.2442 25.0340
" />
<path d="M-102.2442 25.0340
L-102.1727 24.9626
" />
<path d="M-102.1727 24.9626
L-102.0299 24.8911
" />
<path d="M-102.0299 24.8911
L-101.6727 24.8911
" />
<path d="M-101.6727 24.8911
L-101.4585 24.9626
" />
<path d="M-100.8156 26.3911
L-100.8156 25.3911
" />
<path d="M-100.8156 24.8911
L-100.8870 24.9626
" />
<path d="M-100.8870 24.9626
L-100.8156 25.0340
" />
<path d="M-100.8156 25.0340
L-100.7442 24.9626
" />
<path d="M-100.7442 24.9626
L-100.8156 24.8911
" />
<path d="M-100.8156 24.8911
L-100.8156 25.0340
" />
<path d="M-100.2442 25.3911
L-99.4585 25.3911
" />
<path d="M-99.4585 25.3911
L-100.2442 26.3911
" />
<path d="M-100.2442 26.3911
L-99.4585 26.3911
" />
<path d="M-98.3156 26.3197
L-98.4585 26.3911
" />
<path d="M-98.4585 26.3911
L-98.7442 26.3911
" />
<path d="M-98.7442 26.3911
L-98.8870 26.3197
" />
<path d="M-98.8870 26.3197
L-98.9585 26.1768
" />
<path d="M-98.9585 26.1768
L-98.9585 25.6054
" />
<path d="M-98.9585 25.6054
L-98.8870 25.4626
" />
<path d="M-98.8870 25.4626
L-98.7442 25.3911
" />
<path d="M-98.7442 25.3911
L-98.4585 25.3911
" />
<path d="M-98.4585 25.3911
L-98.3156 25.4626
" />
<path d="M-98.3156 25.4626
L-98.2442 25.6054
" />
<path d="M-98.2442 25.6054
L-98.2442 25.7483
" />
<path d="M-98.2442 25.7483
L-98.9585 25.8911
" />
<path d="M-97.6013 26.2483
L-97.5299 26.3197
" />
<path d="M-97.5299 26.3197
L-97.6013 26.3911
" />
<path d="M-97.6013 26.3911
L-97.6727 26.3197
" />
<path d="M-97.6727 26.3197
L-97.6013 26.2483
" />
<path d="M-97.6013 26.2483
L-97.6013 26.3911
" />
<path d="M-97.6013 25.4626
L-97.5299 25.5340
" />
<path d="M-97.5299 25.5340
L-97.6013 25.6054
" />
<path d="M-97.6013 25.6054
L-97.6727 25.5340
" />
<path d="M-97.6727 25.5340
L-97.6013 25.4626
" />
<path d="M-97.6013 25.4626
L-97.6013 25.6054
" />
<path d="M-95.7442 24.8911
L-95.7442 26.1054
" />
<path d="M-95.7442 26.1054
L-95.6727 26.2483
" />
<path d="M-95.6727 26.2483
L-95.6013 26.3197
" />
<path d="M-95.6013 26.3197
L-95.4585 26.3911
" />
<path d="M-95.4585 26.3911
L-95.1727 26.3911
" />
<path d="M-95.1727 26.3911
L-95.0299 26.3197
" />
<path d="M-95.0299 26.3197
L-94.9585 26.2483
" />
<path d="M-94.9585 26.2483
L-94.8870 26.1054
" />
<path d="M-94.8870 26.1054
L-94.8870 24.8911
" />
<path d="M-94.2442 26.3197
L-94.1013 26.3911
" />
<path d="M-94.1013 26.3911
L-93.8156 26.3911
" />
<path d="M-93.8156 26.3911
L-93.6727 26.3197
" />
<path d="M-93.6727 26.3197
L-93.6013 26.1768
" />
<path d="M-93.6013 26.1768
L-93.6013 26.1054
" />
<path d="M-93.6013 26.1054
L-93.6727 25.9626
" />
<path d="M-93.6727 25.9626
L-93.8156 25.8911
" />
<path d="M-93.8156 25.8911
L-94.0299 25.8911
" />
<path d="M-94.0299 25.8911
L-94.1727 25.8197
" />
<path d="M-94.1727 25.8197
L-94.2442 25.6768
" />
<path d="M-94.2442 25.6768
L-94.2442 25.6054
" />
<path d="M-94.2442 25.6054
L-94.1727 25.4626
" />
<path d="M-94.1727 25.4626
L-94.0299 25.3911
" />
<path d="M-94.0299 25.3911
L-93.8156 25.3911
" />
<path d="M-93.8156 25.3911
L-93.6727 25.4626
" />
<path d="M-92.3870 26.3197
L-92.5299 26.3911
" />
<path d="M-92.5299 26.3911
L-92.8156 26.3911
" />
<path d="M-92.8156 26.3911
L-92.9585 26.3197
" />
<path d="M-92.9585 26.3197
L-93.0299 26.1768
" />
<path d="M-93.0299 26.1768
L-93.0299 25.6054
" />
<path d="M-93.0299 25.6054
L-92.9585 25.4626
" />
<path d="M-92.9585 25.4626
L-92.8156 25.3911
" />
<path d="M-92.8156 25.3911
L-92.5299 25.3911
" />
<path d="M-92.5299 25.3911
L-92.3870 25.4626
" />
<path d="M-92.3870 25.4626
L-92.3156 25.6054
" />
<path d="M-92.3156 25.6054
L-92.3156 25.7483
" />
<path d="M-92.3156 25.7483
L-93.0299 25.8911
" />
<path d="M-91.6727 26.3911
L-91.6727 25.3911
" />
<path d="M-91.6727 25.6768
L-91.6013 25.5340
" />
<path d="M-91.6013 25.5340
L-91.5299 25.4626
" />
<path d="M-91.5299 25.4626
L-91.3870 25.3911
" />
<path d="M-91.3870 25.3911
L-91.2442 25.3911
" />
</g><text x="-17.7000" y="29.2550"
textLength="8.5071" font-size="2.0000" lengthAdjust="spacingAndGlyphs"
text-anchor="start" opacity="0" stroke-opacity="0">Id: 3/5</text>
<g class="stroked-text"><desc>Id: 3/5</desc>
<path d="M-17.2442 29.1911
L-17.2442 27.6911
" />
<path d="M-15.8870 29.1911
L-15.8870 27.6911
" />
<path d="M-15.8870 29.1197
L-16.0299 29.1911
" />
<path d="M-16.0299 29.1911
L-16.3156 29.1911
" />
<path d="M-16.3156 29.1911
L-16.4585 29.1197
" />
<path d="M-16.4585 29.1197
L-16.5299 29.0483
" />
<path d="M-16.5299 29.0483
L-16.6013 28.9054
" />
<path d="M-16.6013 28.9054
L-16.6013 28.4768
" />
<path d="M-16.6013 28.4768
L-16.5299 28.3340
" />
<path d="M-16.5299 28.3340
L-16.4585 28.2626
" />
<path d="M-16.4585 28.2626
L-16.3156 28.1911
" />
<path d="M-16.3156 28.1911
L-16.0299 28.1911
" />
<path d="M-16.0299 28.1911
L-15.8870 28.2626
" />
<path d="M-15.1727 29.0483
L-15.1013 29.1197
" />
<path d="M-15.1013 29.1197
L-15.1727 29.1911
" />
<path d="M-15.1727 29.1911
L-15.2442 29.1197
" />
<path d="M-15.2442 29.1197
L-15.1727 29.0483
" />
<path d="M-15.1727 29.0483
L-15.1727 29.1911
" />
<path d="M-15.1727 28.2626
L-15.1013 28.3340
" />
<path d="M-15.1013 28.3340
L-15.1727 28.4054
" />
<path d="M-15.1727 28.4054
L-15.2442 28.3340
" />
<path d="M-15.2442 28.3340
L-15.1727 28.2626
" />
<path d="M-15.1727 28.2626
L-15.1727 28.4054
" />
<path d="M-13.4585 27.6911
L-12.5299 27.6911
" />
<path d="M-12.5299 27.6911
L-13.0299 28.2626
" />
<path d="M-13.0299 28.2626
L-12.8156 28.2626
" />
<path d="M-12.8156 28.2626
L-12.6727 28.3340
" />
<path d="M-12.6727 28.3340
L-12.6013 28.4054
" />
<path d="M-12.6013 28.4054
L-12.5299 28.5483
" />
<path d="M-12.5299 28.5483
L-12.5299 28.9054
" />
<path d="M-12.5299 28.9054
L-12.6013 29.0483
" />
<path d="M-12.6013 29.0483
L-12.6727 29.1197
" />
<path d="M-12.6727 29.1197
L-12.8156 29.1911
" />
<path d="M-12.8156 29.1911
L-13.2442 29.1911
" />
<path d="M-13.2442 29.1911
L-13.3870 29.1197
" />
<path d="M-13.3870 29.1197
L-13.4585 29.0483
" />
<path d="M-10.8156 27.6197
L-12.1013 29.5483
" />
<path d="M-9.6013 27.6911
L-10.3156 27.6911
" />
<path d="M-10.3156 27.6911
L-10.3870 28.4054
" />
<path d="M-10.3870 28.4054
L-10.3156 28.3340
" />
<path d="M-10.3156 28.3340
L-10.1727 28.2626
" />
<path d="M-10.1727 28.2626
L-9.8156 28.2626
" />
<path d="M-9.8156 28.2626
L-9.6727 28.3340
" />
<path d="M-9.6727 28.3340
L-9.6013 28.4054
" />
<path d="M-9.6013 28.4054
L-9.5299 28.5483
" />
<path d="M-9.5299 28.5483
L-9.5299 28.9054
" />
<path d="M-9.5299 28.9054
L-9.6013 29.0483
" />
<path d="M-9.6013 29.0483
L-9.6727 29.1197
" />
<path d="M-9.6727 29.1197
L-9.8156 29.1911
" />
<path d="M-9.8156 29.1911
L-10.1727 29.1911
" />
<path d="M-10.1727 29.1911
L-10.3156 29.1197
" />
<path d="M-10.3156 29.1197
L-10.3870 29.0483
" />
</g><path d="M-103.7000 20.1050
L4.3000 20.1050
" />
</g>
<g style="fill:none; 
stroke:#C872AB; stroke-width:0.4000; stroke-opacity:1; 
stroke-linecap:round; stroke-linejoin:round;">
<text x="-102.7000" y="22.9050"
textLength="9.6571" font-size="2.6667" lengthAdjust="spacingAndGlyphs"
text-anchor="start" opacity="0" stroke-opacity="0">Title: </text>
<g class="stroked-text"><desc>Title: </desc>
<path d="M-102.0083 20.8094
L-100.8654 20.8094
" />
<path d="M-101.6868 22.8094
L-101.4368 20.8094
" />
<path d="M-100.4487 22.8094
L-100.2821 21.4761
" />
<path d="M-100.1987 20.8094
L-100.3059 20.9047
" />
<path d="M-100.3059 20.9047
L-100.2226 20.9999
" />
<path d="M-100.2226 20.9999
L-100.1154 20.9047
" />
<path d="M-100.1154 20.9047
L-100.1987 20.8094
" />
<path d="M-100.1987 20.8094
L-100.2226 20.9999
" />
<path d="M-99.6154 21.4761
L-98.8535 21.4761
" />
<path d="M-99.2464 20.8094
L-99.4607 22.5237
" />
<path d="M-99.4607 22.5237
L-99.3892 22.7142
" />
<path d="M-99.3892 22.7142
L-99.2107 22.8094
" />
<path d="M-99.2107 22.8094
L-99.0202 22.8094
" />
<path d="M-98.0678 22.8094
L-98.2464 22.7142
" />
<path d="M-98.2464 22.7142
L-98.3178 22.5237
" />
<path d="M-98.3178 22.5237
L-98.1035 20.8094
" />
<path d="M-96.5321 22.7142
L-96.7345 22.8094
" />
<path d="M-96.7345 22.8094
L-97.1154 22.8094
" />
<path d="M-97.1154 22.8094
L-97.2940 22.7142
" />
<path d="M-97.2940 22.7142
L-97.3654 22.5237
" />
<path d="M-97.3654 22.5237
L-97.2702 21.7618
" />
<path d="M-97.2702 21.7618
L-97.1511 21.5713
" />
<path d="M-97.1511 21.5713
L-96.9487 21.4761
" />
<path d="M-96.9487 21.4761
L-96.5678 21.4761
" />
<path d="M-96.5678 21.4761
L-96.3892 21.5713
" />
<path d="M-96.3892 21.5713
L-96.3178 21.7618
" />
<path d="M-96.3178 21.7618
L-96.3416 21.9523
" />
<path d="M-96.3416 21.9523
L-97.3178 22.1428
" />
<path d="M-95.5678 22.6190
L-95.4845 22.7142
" />
<path d="M-95.4845 22.7142
L-95.5916 22.8094
" />
<path d="M-95.5916 22.8094
L-95.6749 22.7142
" />
<path d="M-95.6749 22.7142
L-95.5678 22.6190
" />
<path d="M-95.5678 22.6190
L-95.5916 22.8094
" />
<path d="M-95.4368 21.5713
L-95.3535 21.6666
" />
<path d="M-95.3535 21.6666
L-95.4607 21.7618
" />
<path d="M-95.4607 21.7618
L-95.5440 21.6666
" />
<path d="M-95.5440 21.6666
L-95.4368 21.5713
" />
<path d="M-95.4368 21.5713
L-95.4607 21.7618
" />
</g></g>
<g style="fill:none; 
stroke:#C872AB; stroke-width:0.1500; stroke-opacity:1; 
stroke-linecap:round; stroke-linejoin:round;">
<text x="-102.7000" y="19.0550"
textLength="48.0071" font-size="2.0000" lengthAdjust="spacingAndGlyphs"
text-anchor="start" opacity="0" stroke-opacity="0">File: bios-programmer-ch341a.kicad_pcb</text>
<g class="stroked-text"><desc>File: bios-programmer-ch341a.kicad_pcb</desc>
<path d="M-101.7442 18.2054
L-102.2442 18.2054
" />
<path d="M-102.2442 18.9911
L-102.2442 17.4911
" />
<path d="M-102.2442 17.4911
L-101.5299 17.4911
" />
<path d="M-100.9585 18.9911
L-100.9585 17.9911
" />
<path d="M-100.9585 17.4911
L-101.0299 17.5626
" />
<path d="M-101.0299 17.5626
L-100.9585 17.6340
" />
<path d="M-100.9585 17.6340
L-100.8870 17.5626
" />
<path d="M-100.8870 17.5626
L-100.9585 17.4911
" />
<path d="M-100.9585 17.4911
L-100.9585 17.6340
" />
<path d="M-100.0299 18.9911
L-100.1727 18.9197
" />
<path d="M-100.1727 18.9197
L-100.2442 18.7768
" />
<path d="M-100.2442 18.7768
L-100.2442 17.4911
" />
<path d="M-98.8870 18.9197
L-99.0299 18.9911
" />
<path d="M-99.0299 18.9911
L-99.3156 18.9911
" />
<path d="M-99.3156 18.9911
L-99.4585 18.9197
" />
<path d="M-99.4585 18.9197
L-99.5299 18.7768
" />
<path d="M-99.5299 18.7768
L-99.5299 18.2054
" />
<path d="M-99.5299 18.2054
L-99.4585 18.0626
" />
<path d="M-99.4585 18.0626
L-99.3156 17.9911
" />
<path d="M-99.3156 17.9911
L-99.0299 17.9911
" />
<path d="M-99.0299 17.9911
L-98.8870 18.0626
" />
<path d="M-98.8870 18.0626
L-98.8156 18.2054
" />
<path d="M-98.8156 18.2054
L-98.8156 18.3483
" />
<path d="M-98.8156 18.3483
L-99.5299 18.4911
" />
<path d="M-98.1727 18.8483
L-98.1013 18.9197
" />
<path d="M-98.1013 18.9197
L-98.1727 18.9911
" />
<path d="M-98.1727 18.9911
L-98.2442 18.9197
" />
<path d="M-98.2442 18.9197
L-98.1727 18.8483
" />
<path d="M-98.1727 18.8483
L-98.1727 18.9911
" />
<path d="M-98.1727 18.0626
L-98.1013 18.1340
" />
<path d="M-98.1013 18.1340
L-98.1727 18.2054
" />
<path d="M-98.1727 18.2054
L-98.2442 18.1340
" />
<path d="M-98.2442 18.1340
L-98.1727 18.0626
" />
<path d="M-98.1727 18.0626
L-98.1727 18.2054
" />
<path d="M-96.3156 18.9911
L-96.3156 17.4911
" />
<path d="M-96.3156 18.0626
L-96.1727 17.9911
" />
<path d="M-96.1727 17.9911
L-95.8870 17.9911
" />
<path d="M-95.8870 17.9911
L-95.7442 18.0626
" />
<path d="M-95.7442 18.0626
L-95.6727 18.1340
" />
<path d="M-95.6727 18.1340
L-95.6013 18.2768
" />
<path d="M-95.6013 18.2768
L-95.6013 18.7054
" />
<path d="M-95.6013 18.7054
L-95.6727 18.8483
" />
<path d="M-95.6727 18.8483
L-95.7442 18.9197
" />
<path d="M-95.7442 18.9197
L-95.8870 18.9911
" />
<path d="M-95.8870 18.9911
L-96.1727 18.9911
" />
<path d="M-96.1727 18.9911
L-96.3156 18.9197
" />
<path d="M-94.9585 18.9911
L-94.9585 17.9911
" />
<path d="M-94.9585 17.4911
L-95.0299 17.5626
" />
<path d="M-95.0299 17.5626
L-94.9585 17.6340
" />
<path d="M-94.9585 17.6340
L-94.8870 17.5626
" />
<path d="M-94.8870 17.5626
L-94.9585 17.4911
" />
<path d="M-94.9585 17.4911
L-94.9585 17.6340
" />
<path d="M-94.0299 18.9911
L-94.1727 18.9197
" />
<path d="M-94.1727 18.9197
L-94.2442 18.8483
" />
<path d="M-94.2442 18.8483
L-94.3156 18.7054
" />
<path d="M-94.3156 18.7054
L-94.3156 18.2768
" />
<path d="M-94.3156 18.2768
L-94.2442 18.1340
" />
<path d="M-94.2442 18.1340
L-94.1727 18.0626
" />
<path d="M-94.1727 18.0626
L-94.0299 17.9911
" />
<path d="M-94.0299 17.9911
L-93.8156 17.9911
" />
<path d="M-93.8156 17.9911
L-93.6727 18.0626
" />
<path d="M-93.6727 18.0626
L-93.6013 18.1340
" />
<path d="M-93.6013 18.1340
L-93.5299 18.2768
" />
<path d="M-93.5299 18.2768
L-93.5299 18.7054
" />
<path d="M-93.5299 18.7054
L-93.6013 18.8483
" />
<path d="M-93.6013 18.8483
L-93.6727 18.9197
" />
<path d="M-93.6727 18.9197
L-93.8156 18.9911
" />
<path d="M-93.8156 18.9911
L-94.0299 18.9911
" />
<path d="M-92.9585 18.9197
L-92.8156 18.9911
" />
<path d="M-92.8156 18.9911
L-92.5299 18.9911
" />
<path d="M-92.5299 18.9911
L-92.3870 18.9197
" />
<path d="M-92.3870 18.9197
L-92.3156 18.7768
" />
<path d="M-92.3156 18.7768
L-92.3156 18.7054
" />
<path d="M-92.3156 18.7054
L-92.3870 18.5626
" />
<path d="M-92.3870 18.5626
L-92.5299 18.4911
" />
<path d="M-92.5299 18.4911
L-92.7442 18.4911
" />
<path d="M-92.7442 18.4911
L-92.8870 18.4197
" />
<path d="M-92.8870 18.4197
L-92.9585 18.2768
" />
<path d="M-92.9585 18.2768
L-92.9585 18.2054
" />
<path d="M-92.9585 18.2054
L-92.8870 18.0626
" />
<path d="M-92.8870 18.0626
L-92.7442 17.9911
" />
<path d="M-92.7442 17.9911
L-92.5299 17.9911
" />
<path d="M-92.5299 17.9911
L-92.3870 18.0626
" />
<path d="M-91.6727 18.4197
L-90.5299 18.4197
" />
<path d="M-89.8156 17.9911
L-89.8156 19.4911
" />
<path d="M-89.8156 18.0626
L-89.6727 17.9911
" />
<path d="M-89.6727 17.9911
L-89.3870 17.9911
" />
<path d="M-89.3870 17.9911
L-89.2442 18.0626
" />
<path d="M-89.2442 18.0626
L-89.1727 18.1340
" />
<path d="M-89.1727 18.1340
L-89.1013 18.2768
" />
<path d="M-89.1013 18.2768
L-89.1013 18.7054
" />
<path d="M-89.1013 18.7054
L-89.1727 18.8483
" />
<path d="M-89.1727 18.8483
L-89.2442 18.9197
" />
<path d="M-89.2442 18.9197
L-89.3870 18.9911
" />
<path d="M-89.3870 18.9911
L-89.6727 18.9911
" />
<path d="M-89.6727 18.9911
L-89.8156 18.9197
" />
<path d="M-88.4585 18.9911
L-88.4585 17.9911
" />
<path d="M-88.4585 18.2768
L-88.3870 18.1340
" />
<path d="M-88.3870 18.1340
L-88.3156 18.0626
" />
<path d="M-88.3156 18.0626
L-88.1727 17.9911
" />
<path d="M-88.1727 17.9911
L-88.0299 17.9911
" />
<path d="M-87.3156 18.9911
L-87.4585 18.9197
" />
<path d="M-87.4585 18.9197
L-87.5299 18.8483
" />
<path d="M-87.5299 18.8483
L-87.6013 18.7054
" />
<path d="M-87.6013 18.7054
L-87.6013 18.2768
" />
<path d="M-87.6013 18.2768
L-87.5299 18.1340
" />
<path d="M-87.5299 18.1340
L-87.4585 18.0626
" />
<path d="M-87.4585 18.0626
L-87.3156 17.9911
" />
<path d="M-87.3156 17.9911
L-87.1013 17.9911
" />
<path d="M-87.1013 17.9911
L-86.9585 18.0626
" />
<path d="M-86.9585 18.0626
L-86.8870 18.1340
" />
<path d="M-86.8870 18.1340
L-86.8156 18.2768
" />
<path d="M-86.8156 18.2768
L-86.8156 18.7054
" />
<path d="M-86.8156 18.7054
L-86.8870 18.8483
" />
<path d="M-86.8870 18.8483
L-86.9585 18.9197
" />
<path d="M-86.9585 18.9197
L-87.1013 18.9911
" />
<path d="M-87.1013 18.9911
L-87.3156 18.9911
" />
<path d="M-85.5299 17.9911
L-85.5299 19.2054
" />
<path d="M-85.5299 19.2054
L-85.6013 19.3483
" />
<path d="M-85.6013 19.3483
L-85.6727 19.4197
" />
<path d="M-85.6727 19.4197
L-85.8156 19.4911
" />
<path d="M-85.8156 19.4911
L-86.0299 19.4911
" />
<path d="M-86.0299 19.4911
L-86.1727 19.4197
" />
<path d="M-85.5299 18.9197
L-85.6727 18.9911
" />
<path d="M-85.6727 18.9911
L-85.9585 18.9911
" />
<path d="M-85.9585 18.9911
L-86.1013 18.9197
" />
<path d="M-86.1013 18.9197
L-86.1727 18.8483
" />
<path d="M-86.1727 18.8483
L-86.2442 18.7054
" />
<path d="M-86.2442 18.7054
L-86.2442 18.2768
" />
<path d="M-86.2442 18.2768
L-86.1727 18.1340
" />
<path d="M-86.1727 18.1340
L-86.1013 18.0626
" />
<path d="M-86.1013 18.0626
L-85.9585 17.9911
" />
<path d="M-85.9585 17.9911
L-85.6727 17.9911
" />
<path d="M-85.6727 17.9911
L-85.5299 18.0626
" />
<path d="M-84.8156 18.9911
L-84.8156 17.9911
" />
<path d="M-84.8156 18.2768
L-84.7442 18.1340
" />
<path d="M-84.7442 18.1340
L-84.6727 18.0626
" />
<path d="M-84.6727 18.0626
L-84.5299 17.9911
" />
<path d="M-84.5299 17.9911
L-84.3870 17.9911
" />
<path d="M-83.2442 18.9911
L-83.2442 18.2054
" />
<path d="M-83.2442 18.2054
L-83.3156 18.0626
" />
<path d="M-83.3156 18.0626
L-83.4585 17.9911
" />
<path d="M-83.4585 17.9911
L-83.7442 17.9911
" />
<path d="M-83.7442 17.9911
L-83.8870 18.0626
" />
<path d="M-83.2442 18.9197
L-83.3870 18.9911
" />
<path d="M-83.3870 18.9911
L-83.7442 18.9911
" />
<path d="M-83.7442 18.9911
L-83.8870 18.9197
" />
<path d="M-83.8870 18.9197
L-83.9585 18.7768
" />
<path d="M-83.9585 18.7768
L-83.9585 18.6340
" />
<path d="M-83.9585 18.6340
L-83.8870 18.4911
" />
<path d="M-83.8870 18.4911
L-83.7442 18.4197
" />
<path d="M-83.7442 18.4197
L-83.3870 18.4197
" />
<path d="M-83.3870 18.4197
L-83.2442 18.3483
" />
<path d="M-82.5299 18.9911
L-82.5299 17.9911
" />
<path d="M-82.5299 18.1340
L-82.4585 18.0626
" />
<path d="M-82.4585 18.0626
L-82.3156 17.9911
" />
<path d="M-82.3156 17.9911
L-82.1013 17.9911
" />
<path d="M-82.1013 17.9911
L-81.9585 18.0626
" />
<path d="M-81.9585 18.0626
L-81.8870 18.2054
" />
<path d="M-81.8870 18.2054
L-81.8870 18.9911
" />
<path d="M-81.8870 18.2054
L-81.8156 18.0626
" />
<path d="M-81.8156 18.0626
L-81.6727 17.9911
" />
<path d="M-81.6727 17.9911
L-81.4585 17.9911
" />
<path d="M-81.4585 17.9911
L-81.3156 18.0626
" />
<path d="M-81.3156 18.0626
L-81.2442 18.2054
" />
<path d="M-81.2442 18.2054
L-81.2442 18.9911
" />
<path d="M-80.5299 18.9911
L-80.5299 17.9911
" />
<path d="M-80.5299 18.1340
L-80.4585 18.0626
" />
<path d="M-80.4585 18.0626
L-80.3156 17.9911
" />
<path d="M-80.3156 17.9911
L-80.1013 17.9911
" />
<path d="M-80.1013 17.9911
L-79.9585 18.0626
" />
<path d="M-79.9585 18.0626
L-79.8870 18.2054
" />
<path d="M-79.8870 18.2054
L-79.8870 18.9911
" />
<path d="M-79.8870 18.2054
L-79.8156 18.0626
" />
<path d="M-79.8156 18.0626
L-79.6727 17.9911
" />
<path d="M-79.6727 17.9911
L-79.4585 17.9911
" />
<path d="M-79.4585 17.9911
L-79.3156 18.0626
" />
<path d="M-79.3156 18.0626
L-79.2442 18.2054
" />
<path d="M-79.2442 18.2054
L-79.2442 18.9911
" />
<path d="M-77.9585 18.9197
L-78.1013 18.9911
" />
<path d="M-78.1013 18.9911
L-78.3870 18.9911
" />
<path d="M-78.3870 18.9911
L-78.5299 18.9197
" />
<path d="M-78.5299 18.9197
L-78.6013 18.7768
" />
<path d="M-78.6013 18.7768
L-78.6013 18.2054
" />
<path d="M-78.6013 18.2054
L-78.5299 18.0626
" />
<path d="M-78.5299 18.0626
L-78.3870 17.9911
" />
<path d="M-78.3870 17.9911
L-78.1013 17.9911
" />
<path d="M-78.1013 17.9911
L-77.9585 18.0626
" />
<path d="M-77.9585 18.0626
L-77.8870 18.2054
" />
<path d="M-77.8870 18.2054
L-77.8870 18.3483
" />
<path d="M-77.8870 18.3483
L-78.6013 18.4911
" />
<path d="M-77.2442 18.9911
L-77.2442 17.9911
" />
<path d="M-77.2442 18.2768
L-77.1727 18.1340
" />
<path d="M-77.1727 18.1340
L-77.1013 18.0626
" />
<path d="M-77.1013 18.0626
L-76.9585 17.9911
" />
<path d="M-76.9585 17.9911
L-76.8156 17.9911
" />
<path d="M-76.3156 18.4197
L-75.1727 18.4197
" />
<path d="M-73.8156 18.9197
L-73.9585 18.9911
" />
<path d="M-73.9585 18.9911
L-74.2442 18.9911
" />
<path d="M-74.2442 18.9911
L-74.3870 18.9197
" />
<path d="M-74.3870 18.9197
L-74.4585 18.8483
" />
<path d="M-74.4585 18.8483
L-74.5299 18.7054
" />
<path d="M-74.5299 18.7054
L-74.5299 18.2768
" />
<path d="M-74.5299 18.2768
L-74.4585 18.1340
" />
<path d="M-74.4585 18.1340
L-74.3870 18.0626
" />
<path d="M-74.3870 18.0626
L-74.2442 17.9911
" />
<path d="M-74.2442 17.9911
L-73.9585 17.9911
" />
<path d="M-73.9585 17.9911
L-73.8156 18.0626
" />
<path d="M-73.1727 18.9911
L-73.1727 17.4911
" />
<path d="M-72.5299 18.9911
L-72.5299 18.2054
" />
<path d="M-72.5299 18.2054
L-72.6013 18.0626
" />
<path d="M-72.6013 18.0626
L-72.7442 17.9911
" />
<path d="M-72.7442 17.9911
L-72.9585 17.9911
" />
<path d="M-72.9585 17.9911
L-73.1013 18.0626
" />
<path d="M-73.1013 18.0626
L-73.1727 18.1340
" />
<path d="M-71.9585 17.4911
L-71.0299 17.4911
" />
<path d="M-71.0299 17.4911
L-71.5299 18.0626
" />
<path d="M-71.5299 18.0626
L-71.3156 18.0626
" />
<path d="M-71.3156 18.0626
L-71.1727 18.1340
" />
<path d="M-71.1727 18.1340
L-71.1013 18.2054
" />
<path d="M-71.1013 18.2054
L-71.0299 18.3483
" />
<path d="M-71.0299 18.3483
L-71.0299 18.7054
" />
<path d="M-71.0299 18.7054
L-71.1013 18.8483
" />
<path d="M-71.1013 18.8483
L-71.1727 18.9197
" />
<path d="M-71.1727 18.9197
L-71.3156 18.9911
" />
<path d="M-71.3156 18.9911
L-71.7442 18.9911
" />
<path d="M-71.7442 18.9911
L-71.8870 18.9197
" />
<path d="M-71.8870 18.9197
L-71.9585 18.8483
" />
<path d="M-69.7442 17.9911
L-69.7442 18.9911
" />
<path d="M-70.1013 17.4197
L-70.4585 18.4911
" />
<path d="M-70.4585 18.4911
L-69.5299 18.4911
" />
<path d="M-68.1727 18.9911
L-69.0299 18.9911
" />
<path d="M-68.6013 18.9911
L-68.6013 17.4911
" />
<path d="M-68.6013 17.4911
L-68.7442 17.7054
" />
<path d="M-68.7442 17.7054
L-68.8870 17.8483
" />
<path d="M-68.8870 17.8483
L-69.0299 17.9197
" />
<path d="M-66.8870 18.9911
L-66.8870 18.2054
" />
<path d="M-66.8870 18.2054
L-66.9585 18.0626
" />
<path d="M-66.9585 18.0626
L-67.1013 17.9911
" />
<path d="M-67.1013 17.9911
L-67.3870 17.9911
" />
<path d="M-67.3870 17.9911
L-67.5299 18.0626
" />
<path d="M-66.8870 18.9197
L-67.0299 18.9911
" />
<path d="M-67.0299 18.9911
L-67.3870 18.9911
" />
<path d="M-67.3870 18.9911
L-67.5299 18.9197
" />
<path d="M-67.5299 18.9197
L-67.6013 18.7768
" />
<path d="M-67.6013 18.7768
L-67.6013 18.6340
" />
<path d="M-67.6013 18.6340
L-67.5299 18.4911
" />
<path d="M-67.5299 18.4911
L-67.3870 18.4197
" />
<path d="M-67.3870 18.4197
L-67.0299 18.4197
" />
<path d="M-67.0299 18.4197
L-66.8870 18.3483
" />
<path d="M-66.1727 18.8483
L-66.1013 18.9197
" />
<path d="M-66.1013 18.9197
L-66.1727 18.9911
" />
<path d="M-66.1727 18.9911
L-66.2442 18.9197
" />
<path d="M-66.2442 18.9197
L-66.1727 18.8483
" />
<path d="M-66.1727 18.8483
L-66.1727 18.9911
" />
<path d="M-65.4585 18.9911
L-65.4585 17.4911
" />
<path d="M-65.3156 18.4197
L-64.8870 18.9911
" />
<path d="M-64.8870 17.9911
L-65.4585 18.5626
" />
<path d="M-64.2442 18.9911
L-64.2442 17.9911
" />
<path d="M-64.2442 17.4911
L-64.3156 17.5626
" />
<path d="M-64.3156 17.5626
L-64.2442 17.6340
" />
<path d="M-64.2442 17.6340
L-64.1727 17.5626
" />
<path d="M-64.1727 17.5626
L-64.2442 17.4911
" />
<path d="M-64.2442 17.4911
L-64.2442 17.6340
" />
<path d="M-62.8870 18.9197
L-63.0299 18.9911
" />
<path d="M-63.0299 18.9911
L-63.3156 18.9911
" />
<path d="M-63.3156 18.9911
L-63.4585 18.9197
" />
<path d="M-63.4585 18.9197
L-63.5299 18.8483
" />
<path d="M-63.5299 18.8483
L-63.6013 18.7054
" />
<path d="M-63.6013 18.7054
L-63.6013 18.2768
" />
<path d="M-63.6013 18.2768
L-63.5299 18.1340
" />
<path d="M-63.5299 18.1340
L-63.4585 18.0626
" />
<path d="M-63.4585 18.0626
L-63.3156 17.9911
" />
<path d="M-63.3156 17.9911
L-63.0299 17.9911
" />
<path d="M-63.0299 17.9911
L-62.8870 18.0626
" />
<path d="M-61.6013 18.9911
L-61.6013 18.2054
" />
<path d="M-61.6013 18.2054
L-61.6727 18.0626
" />
<path d="M-61.6727 18.0626
L-61.8156 17.9911
" />
<path d="M-61.8156 17.9911
L-62.1013 17.9911
" />
<path d="M-62.1013 17.9911
L-62.2442 18.0626
" />
<path d="M-61.6013 18.9197
L-61.7442 18.9911
" />
<path d="M-61.7442 18.9911
L-62.1013 18.9911
" />
<path d="M-62.1013 18.9911
L-62.2442 18.9197
" />
<path d="M-62.2442 18.9197
L-62.3156 18.7768
" />
<path d="M-62.3156 18.7768
L-62.3156 18.6340
" />
<path d="M-62.3156 18.6340
L-62.2442 18.4911
" />
<path d="M-62.2442 18.4911
L-62.1013 18.4197
" />
<path d="M-62.1013 18.4197
L-61.7442 18.4197
" />
<path d="M-61.7442 18.4197
L-61.6013 18.3483
" />
<path d="M-60.2442 18.9911
L-60.2442 17.4911
" />
<path d="M-60.2442 18.9197
L-60.3870 18.9911
" />
<path d="M-60.3870 18.9911
L-60.6727 18.9911
" />
<path d="M-60.6727 18.9911
L-60.8156 18.9197
" />
<path d="M-60.8156 18.9197
L-60.8870 18.8483
" />
<path d="M-60.8870 18.8483
L-60.9585 18.7054
" />
<path d="M-60.9585 18.7054
L-60.9585 18.2768
" />
<path d="M-60.9585 18.2768
L-60.8870 18.1340
" />
<path d="M-60.8870 18.1340
L-60.8156 18.0626
" />
<path d="M-60.8156 18.0626
L-60.6727 17.9911
" />
<path d="M-60.6727 17.9911
L-60.3870 17.9911
" />
<path d="M-60.3870 17.9911
L-60.2442 18.0626
" />
<path d="M-59.8870 19.1340
L-58.7442 19.1340
" />
<path d="M-58.3870 17.9911
L-58.3870 19.4911
" />
<path d="M-58.3870 18.0626
L-58.2442 17.9911
" />
<path d="M-58.2442 17.9911
L-57.9585 17.9911
" />
<path d="M-57.9585 17.9911
L-57.8156 18.0626
" />
<path d="M-57.8156 18.0626
L-57.7442 18.1340
" />
<path d="M-57.7442 18.1340
L-57.6727 18.2768
" />
<path d="M-57.6727 18.2768
L-57.6727 18.7054
" />
<path d="M-57.6727 18.7054
L-57.7442 18.8483
" />
<path d="M-57.7442 18.8483
L-57.8156 18.9197
" />
<path d="M-57.8156 18.9197
L-57.9585 18.9911
" />
<path d="M-57.9585 18.9911
L-58.2442 18.9911
" />
<path d="M-58.2442 18.9911
L-58.3870 18.9197
" />
<path d="M-56.3870 18.9197
L-56.5299 18.9911
" />
<path d="M-56.5299 18.9911
L-56.8156 18.9911
" />
<path d="M-56.8156 18.9911
L-56.9585 18.9197
" />
<path d="M-56.9585 18.9197
L-57.0299 18.8483
" />
<path d="M-57.0299 18.8483
L-57.1013 18.7054
" />
<path d="M-57.1013 18.7054
L-57.1013 18.2768
" />
<path d="M-57.1013 18.2768
L-57.0299 18.1340
" />
<path d="M-57.0299 18.1340
L-56.9585 18.0626
" />
<path d="M-56.9585 18.0626
L-56.8156 17.9911
" />
<path d="M-56.8156 17.9911
L-56.5299 17.9911
" />
<path d="M-56.5299 17.9911
L-56.3870 18.0626
" />
<path d="M-55.7442 18.9911
L-55.7442 17.4911
" />
<path d="M-55.7442 18.0626
L-55.6013 17.9911
" />
<path d="M-55.6013 17.9911
L-55.3156 17.9911
" />
<path d="M-55.3156 17.9911
L-55.1727 18.0626
" />
<path d="M-55.1727 18.0626
L-55.1013 18.1340
" />
<path d="M-55.1013 18.1340
L-55.0299 18.2768
" />
<path d="M-55.0299 18.2768
L-55.0299 18.7054
" />
<path d="M-55.0299 18.7054
L-55.1013 18.8483
" />
<path d="M-55.1013 18.8483
L-55.1727 18.9197
" />
<path d="M-55.1727 18.9197
L-55.3156 18.9911
" />
<path d="M-55.3156 18.9911
L-55.6013 18.9911
" />
<path d="M-55.6013 18.9911
L-55.7442 18.9197
" />
</g><path d="M-103.7000 14.1050
L4.3000 14.1050
" />
<text x="-102.7000" y="16.3550"
textLength="8.2214" font-size="2.0000" lengthAdjust="spacingAndGlyphs"
text-anchor="start" opacity="0" stroke-opacity="0">Sheet: </text>
<g class="stroked-text"><desc>Sheet: </desc>
<path d="M-102.3156 16.2197
L-102.1013 16.2911
" />
<path d="M-102.1013 16.2911
L-101.7442 16.2911
" />
<path d="M-101.7442 16.2911
L-101.6013 16.2197
" />
<path d="M-101.6013 16.2197
L-101.5299 16.1483
" />
<path d="M-101.5299 16.1483
L-101.4585 16.0054
" />
<path d="M-101.4585 16.0054
L-101.4585 15.8626
" />
<path d="M-101.4585 15.8626
L-101.5299 15.7197
" />
<path d="M-101.5299 15.7197
L-101.6013 15.6483
" />
<path d="M-101.6013 15.6483
L-101.7442 15.5768
" />
<path d="M-101.7442 15.5768
L-102.0299 15.5054
" />
<path d="M-102.0299 15.5054
L-102.1727 15.4340
" />
<path d="M-102.1727 15.4340
L-102.2442 15.3626
" />
<path d="M-102.2442 15.3626
L-102.3156 15.2197
" />
<path d="M-102.3156 15.2197
L-102.3156 15.0768
" />
<path d="M-102.3156 15.0768
L-102.2442 14.9340
" />
<path d="M-102.2442 14.9340
L-102.1727 14.8626
" />
<path d="M-102.1727 14.8626
L-102.0299 14.7911
" />
<path d="M-102.0299 14.7911
L-101.6727 14.7911
" />
<path d="M-101.6727 14.7911
L-101.4585 14.8626
" />
<path d="M-100.8156 16.2911
L-100.8156 14.7911
" />
<path d="M-100.1727 16.2911
L-100.1727 15.5054
" />
<path d="M-100.1727 15.5054
L-100.2442 15.3626
" />
<path d="M-100.2442 15.3626
L-100.3870 15.2911
" />
<path d="M-100.3870 15.2911
L-100.6013 15.2911
" />
<path d="M-100.6013 15.2911
L-100.7442 15.3626
" />
<path d="M-100.7442 15.3626
L-100.8156 15.4340
" />
<path d="M-98.8870 16.2197
L-99.0299 16.2911
" />
<path d="M-99.0299 16.2911
L-99.3156 16.2911
" />
<path d="M-99.3156 16.2911
L-99.4585 16.2197
" />
<path d="M-99.4585 16.2197
L-99.5299 16.0768
" />
<path d="M-99.5299 16.0768
L-99.5299 15.5054
" />
<path d="M-99.5299 15.5054
L-99.4585 15.3626
" />
<path d="M-99.4585 15.3626
L-99.3156 15.2911
" />
<path d="M-99.3156 15.2911
L-99.0299 15.2911
" />
<path d="M-99.0299 15.2911
L-98.8870 15.3626
" />
<path d="M-98.8870 15.3626
L-98.8156 15.5054
" />
<path d="M-98.8156 15.5054
L-98.8156 15.6483
" />
<path d="M-98.8156 15.6483
L-99.5299 15.7911
" />
<path d="M-97.6013 16.2197
L-97.7442 16.2911
" />
<path d="M-97.7442 16.2911
L-98.0299 16.2911
" />
<path d="M-98.0299 16.2911
L-98.1727 16.2197
" />
<path d="M-98.1727 16.2197
L-98.2442 16.0768
" />
<path d="M-98.2442 16.0768
L-98.2442 15.5054
" />
<path d="M-98.2442 15.5054
L-98.1727 15.3626
" />
<path d="M-98.1727 15.3626
L-98.0299 15.2911
" />
<path d="M-98.0299 15.2911
L-97.7442 15.2911
" />
<path d="M-97.7442 15.2911
L-97.6013 15.3626
" />
<path d="M-97.6013 15.3626
L-97.5299 15.5054
" />
<path d="M-97.5299 15.5054
L-97.5299 15.6483
" />
<path d="M-97.5299 15.6483
L-98.2442 15.7911
" />
<path d="M-97.1013 15.2911
L-96.5299 15.2911
" />
<path d="M-96.8870 14.7911
L-96.8870 16.0768
" />
<path d="M-96.8870 16.0768
L-96.8156 16.2197
" />
<path d="M-96.8156 16.2197
L-96.6727 16.2911
" />
<path d="M-96.6727 16.2911
L-96.5299 16.2911
" />
<path d="M-96.0299 16.1483
L-95.9585 16.2197
" />
<path d="M-95.9585 16.2197
L-96.0299 16.2911
" />
<path d="M-96.0299 16.2911
L-96.1013 16.2197
" />
<path d="M-96.1013 16.2197
L-96.0299 16.1483
" />
<path d="M-96.0299 16.1483
L-96.0299 16.2911
" />
<path d="M-96.0299 15.3626
L-95.9585 15.4340
" />
<path d="M-95.9585 15.4340
L-96.0299 15.5054
" />
<path d="M-96.0299 15.5054
L-96.1013 15.4340
" />
<path d="M-96.1013 15.4340
L-96.0299 15.3626
" />
<path d="M-96.0299 15.3626
L-96.0299 15.5054
" />
</g></g>
<g style="fill:none; 
stroke:#C872AB; stroke-width:0.3000; stroke-opacity:1; 
stroke-linecap:round; stroke-linejoin:round;">
<text x="-102.7000" y="13.3550"
textLength="0.9000" font-size="2.0000" lengthAdjust="spacingAndGlyphs"
text-anchor="start" opacity="0" stroke-opacity="0"></text>
<g class="stroked-text"><desc></desc>
</g></g>
<g style="fill:none; 
stroke:#C872AB; stroke-width:0.1500; stroke-opacity:1; 
stroke-linecap:round; stroke-linejoin:round;">
<text x="-102.7000" y="10.3550"
textLength="0.4500" font-size="2.0000" lengthAdjust="spacingAndGlyphs"
text-anchor="start" opacity="0" stroke-opacity="0"></text>
<g class="stroked-text"><desc></desc>
</g><text x="-102.7000" y="7.3550"
textLength="0.4500" font-size="2.0000" lengthAdjust="spacingAndGlyphs"
text-anchor="start" opacity="0" stroke-opacity="0"></text>
<g class="stroked-text"><desc></desc>
</g><text x="-102.7000" y="4.3550"
textLength="0.4500" font-size="2.0000" lengthAdjust="spacingAndGlyphs"
text-anchor="start" opacity="0" stroke-opacity="0"></text>
<g class="stroked-text"><desc></desc>
</g><text x="-102.7000" y="1.3550"
textLength="0.4500" font-size="2.0000" lengthAdjust="spacingAndGlyphs"
text-anchor="start" opacity="0" stroke-opacity="0"></text>
<g class="stroked-text"><desc></desc>
</g><path d="M-83.7000 24.1050
L-83.7000 27.1050
" />
<path d="M-19.7000 24.1050
L-19.7000 30.6050
" />
<path style="fill:#00C2C2; fill-opacity:0.9000; stroke:none;fill-rule:evenodd;"
d="M 32.0998,12.2850
32.1112,12.3424
32.1437,12.3911
32.1924,12.4236
32.2498,12.4350
33.8998,12.4350
33.9572,12.4236
34.0059,12.3911
34.0384,12.3424
34.0498,12.2850
34.0498,11.9850
34.0384,11.9276
34.0059,11.8789
33.9572,11.8464
33.8998,11.8350
32.2498,11.8350
32.1924,11.8464
32.1437,11.8789
32.1112,11.9276
32.0998,11.9850
Z" /> 
<path style="fill:#00C2C2; fill-opacity:0.9000; stroke:none;fill-rule:evenodd;"
d="M 32.0998,13.5550
32.1112,13.6124
32.1437,13.6611
32.1924,13.6936
32.2498,13.7050
33.8998,13.7050
33.9572,13.6936
34.0059,13.6611
34.0384,13.6124
34.0498,13.5550
34.0498,13.2550
34.0384,13.1976
34.0059,13.1489
33.9572,13.1164
33.8998,13.1050
32.2498,13.1050
32.1924,13.1164
32.1437,13.1489
32.1112,13.1976
32.0998,13.2550
Z" /> 
<path style="fill:#00C2C2; fill-opacity:0.9000; stroke:none;fill-rule:evenodd;"
d="M 32.0998,14.8250
32.1112,14.8824
32.1437,14.9311
32.1924,14.9636
32.2498,14.9750
33.8998,14.9750
33.9572,14.9636
34.0059,14.9311
34.0384,14.8824
34.0498,14.8250
34.0498,14.5250
34.0384,14.4676
34.0059,14.4189
33.9572,14.3864
33.8998,14.3750
32.2498,14.3750
32.1924,14.3864
32.1437,14.4189
32.1112,14.4676
32.0998,14.5250
Z" /> 
<path style="fill:#00C2C2; fill-opacity:0.9000; stroke:none;fill-rule:evenodd;"
d="M 32.0998,16.0950
32.1112,16.1524
32.1437,16.2011
32.1924,16.2336
32.2498,16.2450
33.8998,16.2450
33.9572,16.2336
34.0059,16.2011
34.0384,16.1524
34.0498,16.0950
34.0498,15.7950
34.0384,15.7376
34.0059,15.6889
33.9572,15.6564
33.8998,15.6450
32.2498,15.6450
32.1924,15.6564
32.1437,15.6889
32.1112,15.7376
32.0998,15.7950
Z" /> 
<path style="fill:#00C2C2; fill-opacity:0.9000; stroke:none;fill-rule:evenodd;"
d="M 37.0498,16.0950
37.0612,16.1524
37.0937,16.2011
37.1424,16.2336
37.1998,16.2450
38.8498,16.2450
38.9072,16.2336
38.9559,16.2011
38.9884,16.1524
38.9998,16.0950
38.9998,15.7950
38.9884,15.7376
38.9559,15.6889
38.9072,15.6564
38.8498,15.6450
37.1998,15.6450
37.1424,15.6564
37.0937,15.6889
37.0612,15.7376
37.0498,15.7950
Z" /> 
<path style="fill:#00C2C2; fill-opacity:0.9000; stroke:none;fill-rule:evenodd;"
d="M 37.0498,14.8250
37.0612,14.8824
37.0937,14.9311
37.1424,14.9636
37.1998,14.9750
38.8498,14.9750
38.9072,14.9636
38.9559,14.9311
38.9884,14.8824
38.9998,14.8250
38.9998,14.5250
38.9884,14.4676
38.9559,14.4189
38.9072,14.3864
38.8498,14.3750
37.1998,14.3750
37.1424,14.3864
37.0937,14.4189
37.0612,14.4676
37.0498,14.5250
Z" /> 
<path style="fill:#00C2C2; fill-opacity:0.9000; stroke:none;fill-rule:evenodd;"
d="M 37.0498,13.5550
37.0612,13.6124
37.0937,13.6611
37.1424,13.6936
37.1998,13.7050
38.8498,13.7050
38.9072,13.6936
38.9559,13.6611
38.9884,13.6124
38.9998,13.5550
38.9998,13.2550
38.9884,13.1976
38.9559,13.1489
38.9072,13.1164
38.8498,13.1050
37.1998,13.1050
37.1424,13.1164
37.0937,13.1489
37.0612,13.1976
37.0498,13.2550
Z" /> 
<path style="fill:#00C2C2; fill-opacity:0.9000; stroke:none;fill-rule:evenodd;"
d="M 37.0498,12.2850
37.0612,12.3424
37.0937,12.3911
37.1424,12.4236
37.1998,12.4350
38.8498,12.4350
38.9072,12.4236
38.9559,12.3911
38.9884,12.3424
38.9998,12.2850
38.9998,11.9850
38.9884,11.9276
38.9559,11.8789
38.9072,11.8464
38.8498,11.8350
37.1998,11.8350
37.1424,11.8464
37.0937,11.8789
37.0612,11.9276
37.0498,11.9850
Z" /> 
<path style="fill:#00C2C2; fill-opacity:0.9000; stroke:none;fill-rule:evenodd;"
d="M 21.6573,7.1525
21.6392,7.0616
21.5877,6.9846
21.5107,6.9331
21.4198,6.9150
20.8198,6.9150
20.7289,6.9331
20.6519,6.9846
20.6004,7.0616
20.5823,7.1525
20.5823,7.6275
20.6004,7.7184
20.6519,7.7954
20.7289,7.8469
20.8198,7.8650
21.4198,7.8650
21.5107,7.8469
21.5877,7.7954
21.6392,7.7184
21.6573,7.6275
Z" /> 
<path style="fill:#00C2C2; fill-opacity:0.9000; stroke:none;fill-rule:evenodd;"
d="M 19.9323,7.1525
19.9142,7.0616
19.8627,6.9846
19.7857,6.9331
19.6948,6.9150
19.0948,6.9150
19.0039,6.9331
18.9269,6.9846
18.8754,7.0616
18.8573,7.1525
18.8573,7.6275
18.8754,7.7184
18.9269,7.7954
19.0039,7.8469
19.0948,7.8650
19.6948,7.8650
19.7857,7.8469
19.8627,7.7954
19.9142,7.7184
19.9323,7.6275
Z" /> 
<path style="fill:#00C2C2; fill-opacity:0.9000; stroke:none;fill-rule:evenodd;"
d="M 29.4048,8.6150
29.3474,8.6264
29.2987,8.6589
29.2662,8.7076
29.2548,8.7650
29.2548,10.5150
29.2662,10.5724
29.2987,10.6211
29.3474,10.6536
29.4048,10.6650
29.7048,10.6650
29.7622,10.6536
29.8109,10.6211
29.8434,10.5724
29.8548,10.5150
29.8548,8.7650
29.8434,8.7076
29.8109,8.6589
29.7622,8.6264
29.7048,8.6150
Z" /> 
<path style="fill:#00C2C2; fill-opacity:0.9000; stroke:none;fill-rule:evenodd;"
d="M 28.1348,8.6150
28.0774,8.6264
28.0287,8.6589
27.9962,8.7076
27.9848,8.7650
27.9848,10.5150
27.9962,10.5724
28.0287,10.6211
28.0774,10.6536
28.1348,10.6650
28.4348,10.6650
28.4922,10.6536
28.5409,10.6211
28.5734,10.5724
28.5848,10.5150
28.5848,8.7650
28.5734,8.7076
28.5409,8.6589
28.4922,8.6264
28.4348,8.6150
Z" /> 
<path style="fill:#00C2C2; fill-opacity:0.9000; stroke:none;fill-rule:evenodd;"
d="M 26.8648,8.6150
26.8074,8.6264
26.7587,8.6589
26.7262,8.7076
26.7148,8.7650
26.7148,10.5150
26.7262,10.5724
26.7587,10.6211
26.8074,10.6536
26.8648,10.6650
27.1648,10.6650
27.2222,10.6536
27.2709,10.6211
27.3034,10.5724
27.3148,10.5150
27.3148,8.7650
27.3034,8.7076
27.2709,8.6589
27.2222,8.6264
27.1648,8.6150
Z" /> 
<path style="fill:#00C2C2; fill-opacity:0.9000; stroke:none;fill-rule:evenodd;"
d="M 25.5948,8.6150
25.5374,8.6264
25.4887,8.6589
25.4562,8.7076
25.4448,8.7650
25.4448,10.5150
25.4562,10.5724
25.4887,10.6211
25.5374,10.6536
25.5948,10.6650
25.8948,10.6650
25.9522,10.6536
26.0009,10.6211
26.0334,10.5724
26.0448,10.5150
26.0448,8.7650
26.0334,8.7076
26.0009,8.6589
25.9522,8.6264
25.8948,8.6150
Z" /> 
<path style="fill:#00C2C2; fill-opacity:0.9000; stroke:none;fill-rule:evenodd;"
d="M 24.3248,8.6150
24.2674,8.6264
24.2187,8.6589
24.1862,8.7076
24.1748,8.7650
24.1748,10.5150
24.1862,10.5724
24.2187,10.6211
24.2674,10.6536
24.3248,10.6650
24.6248,10.6650
24.6822,10.6536
24.7309,10.6211
24.7634,10.5724
24.7748,10.5150
24.7748,8.7650
24.7634,8.7076
24.7309,8.6589
24.6822,8.6264
24.6248,8.6150
Z" /> 
<path style="fill:#00C2C2; fill-opacity:0.9000; stroke:none;fill-rule:evenodd;"
d="M 23.0548,8.6150
22.9974,8.6264
22.9487,8.6589
22.9162,8.7076
22.9048,8.7650
22.9048,10.5150
22.9162,10.5724
22.9487,10.6211
22.9974,10.6536
23.0548,10.6650
23.3548,10.6650
23.4122,10.6536
23.4609,10.6211
23.4934,10.5724
23.5048,10.5150
23.5048,8.7650
23.4934,8.7076
23.4609,8.6589
23.4122,8.6264
23.3548,8.6150
Z" /> 
<path style="fill:#00C2C2; fill-opacity:0.9000; stroke:none;fill-rule:evenodd;"
d="M 21.7848,8.6150
21.7274,8.6264
21.6787,8.6589
21.6462,8.7076
21.6348,8.7650
21.6348,10.5150
21.6462,10.5724
21.6787,10.6211
21.7274,10.6536
21.7848,10.6650
22.0848,10.6650
22.1422,10.6536
22.1909,10.6211
22.2234,10.5724
22.2348,10.5150
22.2348,8.7650
22.2234,8.7076
22.1909,8.6589
22.1422,8.6264
22.0848,8.6150
Z" /> 
<path style="fill:#00C2C2; fill-opacity:0.9000; stroke:none;fill-rule:evenodd;"
d="M 20.5148,8.6150
20.4574,8.6264
20.4087,8.6589
20.3762,8.7076
20.3648,8.7650
20.3648,10.5150
20.3762,10.5724
20.4087,10.6211
20.4574,10.6536
20.5148,10.6650
20.8148,10.6650
20.8722,10.6536
20.9209,10.6211
20.9534,10.5724
20.9648,10.5150
20.9648,8.7650
20.9534,8.7076
20.9209,8.6589
20.8722,8.6264
20.8148,8.6150
Z" /> 
<path style="fill:#00C2C2; fill-opacity:0.9000; stroke:none;fill-rule:evenodd;"
d="M 19.2448,8.6150
19.1874,8.6264
19.1387,8.6589
19.1062,8.7076
19.0948,8.7650
19.0948,10.5150
19.1062,10.5724
19.1387,10.6211
19.1874,10.6536
19.2448,10.6650
19.5448,10.6650
19.6022,10.6536
19.6509,10.6211
19.6834,10.5724
19.6948,10.5150
19.6948,8.7650
19.6834,8.7076
19.6509,8.6589
19.6022,8.6264
19.5448,8.6150
Z" /> 
<path style="fill:#00C2C2; fill-opacity:0.9000; stroke:none;fill-rule:evenodd;"
d="M 17.9748,8.6150
17.9174,8.6264
17.8687,8.6589
17.8362,8.7076
17.8248,8.7650
17.8248,10.5150
17.8362,10.5724
17.8687,10.6211
17.9174,10.6536
17.9748,10.6650
18.2748,10.6650
18.3322,10.6536
18.3809,10.6211
18.4134,10.5724
18.4248,10.5150
18.4248,8.7650
18.4134,8.7076
18.3809,8.6589
18.3322,8.6264
18.2748,8.6150
Z" /> 
<path style="fill:#00C2C2; fill-opacity:0.9000; stroke:none;fill-rule:evenodd;"
d="M 16.7048,8.6150
16.6474,8.6264
16.5987,8.6589
16.5662,8.7076
16.5548,8.7650
16.5548,10.5150
16.5662,10.5724
16.5987,10.6211
16.6474,10.6536
16.7048,10.6650
17.0048,10.6650
17.0622,10.6536
17.1109,10.6211
17.1434,10.5724
17.1548,10.5150
17.1548,8.7650
17.1434,8.7076
17.1109,8.6589
17.0622,8.6264
17.0048,8.6150
Z" /> 
<path style="fill:#00C2C2; fill-opacity:0.9000; stroke:none;fill-rule:evenodd;"
d="M 15.4348,8.6150
15.3774,8.6264
15.3287,8.6589
15.2962,8.7076
15.2848,8.7650
15.2848,10.5150
15.2962,10.5724
15.3287,10.6211
15.3774,10.6536
15.4348,10.6650
15.7348,10.6650
15.7922,10.6536
15.8409,10.6211
15.8734,10.5724
15.8848,10.5150
15.8848,8.7650
15.8734,8.7076
15.8409,8.6589
15.7922,8.6264
15.7348,8.6150
Z" /> 
<path style="fill:#00C2C2; fill-opacity:0.9000; stroke:none;fill-rule:evenodd;"
d="M 14.1648,8.6150
14.1074,8.6264
14.0587,8.6589
14.0262,8.7076
14.0148,8.7650
14.0148,10.5150
14.0262,10.5724
14.0587,10.6211
14.1074,10.6536
14.1648,10.6650
14.4648,10.6650
14.5222,10.6536
14.5709,10.6211
14.6034,10.5724
14.6148,10.5150
14.6148,8.7650
14.6034,8.7076
14.5709,8.6589
14.5222,8.6264
14.4648,8.6150
Z" /> 
<path style="fill:#00C2C2; fill-opacity:0.9000; stroke:none;fill-rule:evenodd;"
d="M 12.8948,8.6150
12.8374,8.6264
12.7887,8.6589
12.7562,8.7076
12.7448,8.7650
12.7448,10.5150
12.7562,10.5724
12.7887,10.6211
12.8374,10.6536
12.8948,10.6650
13.1948,10.6650
13.2522,10.6536
13.3009,10.6211
13.3334,10.5724
13.3448,10.5150
13.3448,8.7650
13.3334,8.7076
13.3009,8.6589
13.2522,8.6264
13.1948,8.6150
Z" /> 
<path style="fill:#00C2C2; fill-opacity:0.9000; stroke:none;fill-rule:evenodd;"
d="M 12.8948,17.9150
12.8374,17.9264
12.7887,17.9589
12.7562,18.0076
12.7448,18.0650
12.7448,19.8150
12.7562,19.8724
12.7887,19.9211
12.8374,19.9536
12.8948,19.9650
13.1948,19.9650
13.2522,19.9536
13.3009,19.9211
13.3334,19.8724
13.3448,19.8150
13.3448,18.0650
13.3334,18.0076
13.3009,17.9589
13.2522,17.9264
13.1948,17.9150
Z" /> 
<path style="fill:#00C2C2; fill-opacity:0.9000; stroke:none;fill-rule:evenodd;"
d="M 14.1648,17.9150
14.1074,17.9264
14.0587,17.9589
14.0262,18.0076
14.0148,18.0650
14.0148,19.8150
14.0262,19.8724
14.0587,19.9211
14.1074,19.9536
14.1648,19.9650
14.4648,19.9650
14.5222,19.9536
14.5709,19.9211
14.6034,19.8724
14.6148,19.8150
14.6148,18.0650
14.6034,18.0076
14.5709,17.9589
14.5222,17.9264
14.4648,17.9150
Z" /> 
<path style="fill:#00C2C2; fill-opacity:0.9000; stroke:none;fill-rule:evenodd;"
d="M 15.4348,17.9150
15.3774,17.9264
15.3287,17.9589
15.2962,18.0076
15.2848,18.0650
15.2848,19.8150
15.2962,19.8724
15.3287,19.9211
15.3774,19.9536
15.4348,19.9650
15.7348,19.9650
15.7922,19.9536
15.8409,19.9211
15.8734,19.8724
15.8848,19.8150
15.8848,18.0650
15.8734,18.0076
15.8409,17.9589
15.7922,17.9264
15.7348,17.9150
Z" /> 
<path style="fill:#00C2C2; fill-opacity:0.9000; stroke:none;fill-rule:evenodd;"
d="M 16.7048,17.9150
16.6474,17.9264
16.5987,17.9589
16.5662,18.0076
16.5548,18.0650
16.5548,19.8150
16.5662,19.8724
16.5987,19.9211
16.6474,19.9536
16.7048,19.9650
17.0048,19.9650
17.0622,19.9536
17.1109,19.9211
17.1434,19.8724
17.1548,19.8150
17.1548,18.0650
17.1434,18.0076
17.1109,17.9589
17.0622,17.9264
17.0048,17.9150
Z" /> 
<path style="fill:#00C2C2; fill-opacity:0.9000; stroke:none;fill-rule:evenodd;"
d="M 17.9748,17.9150
17.9174,17.9264
17.8687,17.9589
17.8362,18.0076
17.8248,18.0650
17.8248,19.8150
17.8362,19.8724
17.8687,19.9211
17.9174,19.9536
17.9748,19.9650
18.2748,19.9650
18.3322,19.9536
18.3809,19.9211
18.4134,19.8724
18.4248,19.8150
18.4248,18.0650
18.4134,18.0076
18.3809,17.9589
18.3322,17.9264
18.2748,17.9150
Z" /> 
<path style="fill:#00C2C2; fill-opacity:0.9000; stroke:none;fill-rule:evenodd;"
d="M 19.2448,17.9150
19.1874,17.9264
19.1387,17.9589
19.1062,18.0076
19.0948,18.0650
19.0948,19.8150
19.1062,19.8724
19.1387,19.9211
19.1874,19.9536
19.2448,19.9650
19.5448,19.9650
19.6022,19.9536
19.6509,19.9211
19.6834,19.8724
19.6948,19.8150
19.6948,18.0650
19.6834,18.0076
19.6509,17.9589
19.6022,17.9264
19.5448,17.9150
Z" /> 
<path style="fill:#00C2C2; fill-opacity:0.9000; stroke:none;fill-rule:evenodd;"
d="M 20.5148,17.9150
20.4574,17.9264
20.4087,17.9589
20.3762,18.0076
20.3648,18.0650
20.3648,19.8150
20.3762,19.8724
20.4087,19.9211
20.4574,19.9536
20.5148,19.9650
20.8148,19.9650
20.8722,19.9536
20.9209,19.9211
20.9534,19.8724
20.9648,19.8150
20.9648,18.0650
20.9534,18.0076
20.9209,17.9589
20.8722,17.9264
20.8148,17.9150
Z" /> 
<path style="fill:#00C2C2; fill-opacity:0.9000; stroke:none;fill-rule:evenodd;"
d="M 21.7848,17.9150
21.7274,17.9264
21.6787,17.9589
21.6462,18.0076
21.6348,18.0650
21.6348,19.8150
21.6462,19.8724
21.6787,19.9211
21.7274,19.9536
21.7848,19.9650
22.0848,19.9650
22.1422,19.9536
22.1909,19.9211
22.2234,19.8724
22.2348,19.8150
22.2348,18.0650
22.2234,18.0076
22.1909,17.9589
22.1422,17.9264
22.0848,17.9150
Z" /> 
<path style="fill:#00C2C2; fill-opacity:0.9000; stroke:none;fill-rule:evenodd;"
d="M 23.0548,17.9150
22.9974,17.9264
22.9487,17.9589
22.9162,18.0076
22.9048,18.0650
22.9048,19.8150
22.9162,19.8724
22.9487,19.9211
22.9974,19.9536
23.0548,19.9650
23.3548,19.9650
23.4122,19.9536
23.4609,19.9211
23.4934,19.8724
23.5048,19.8150
23.5048,18.0650
23.4934,18.0076
23.4609,17.9589
23.4122,17.9264
23.3548,17.9150
Z" /> 
<path style="fill:#00C2C2; fill-opacity:0.9000; stroke:none;fill-rule:evenodd;"
d="M 24.3248,17.9150
24.2674,17.9264
24.2187,17.9589
24.1862,18.0076
24.1748,18.0650
24.1748,19.8150
24.1862,19.8724
24.2187,19.9211
24.2674,19.9536
24.3248,19.9650
24.6248,19.9650
24.6822,19.9536
24.7309,19.9211
24.7634,19.8724
24.7748,19.8150
24.7748,18.0650
24.7634,18.0076
24.7309,17.9589
24.6822,17.9264
24.6248,17.9150
Z" /> 
<path style="fill:#00C2C2; fill-opacity:0.9000; stroke:none;fill-rule:evenodd;"
d="M 25.5948,17.9150
25.5374,17.9264
25.4887,17.9589
25.4562,18.0076
25.4448,18.0650
25.4448,19.8150
25.4562,19.8724
25.4887,19.9211
25.5374,19.9536
25.5948,19.9650
25.8948,19.9650
25.9522,19.9536
26.0009,19.9211
26.0334,19.8724
26.0448,19.8150
26.0448,18.0650
26.0334,18.0076
26.0009,17.9589
25.9522,17.9264
25.8948,17.9150
Z" /> 
<path style="fill:#00C2C2; fill-opacity:0.9000; stroke:none;fill-rule:evenodd;"
d="M 26.8648,17.9150
26.8074,17.9264
26.7587,17.9589
26.7262,18.0076
26.7148,18.0650
26.7148,19.8150
26.7262,19.8724
26.7587,19.9211
26.8074,19.9536
26.8648,19.9650
27.1648,19.9650
27.2222,19.9536
27.2709,19.9211
27.3034,19.8724
27.3148,19.8150
27.3148,18.0650
27.3034,18.0076
27.2709,17.9589
27.2222,17.9264
27.1648,17.9150
Z" /> 
<path style="fill:#00C2C2; fill-opacity:0.9000; stroke:none;fill-rule:evenodd;"
d="M 28.1348,17.9150
28.0774,17.9264
28.0287,17.9589
27.9962,18.0076
27.9848,18.0650
27.9848,19.8150
27.9962,19.8724
28.0287,19.9211
28.0774,19.9536
28.1348,19.9650
28.4348,19.9650
28.4922,19.9536
28.5409,19.9211
28.5734,19.8724
28.5848,19.8150
28.5848,18.0650
28.5734,18.0076
28.5409,17.9589
28.4922,17.9264
28.4348,17.9150
Z" /> 
<path style="fill:#00C2C2; fill-opacity:0.9000; stroke:none;fill-rule:evenodd;"
d="M 29.4048,17.9150
29.3474,17.9264
29.2987,17.9589
29.2662,18.0076
29.2548,18.0650
29.2548,19.8150
29.2662,19.8724
29.2987,19.9211
29.3474,19.9536
29.4048,19.9650
29.7048,19.9650
29.7622,19.9536
29.8109,19.9211
29.8434,19.8724
29.8548,19.8150
29.8548,18.0650
29.8434,18.0076
29.8109,17.9589
29.7622,17.9264
29.7048,17.9150
Z" /> 
<path style="fill:#00C2C2; fill-opacity:0.9000; stroke:none;fill-rule:evenodd;"
d="M 33.9498,21.6700
34.0455,21.6510
34.1266,21.5968
34.1808,21.5157
34.1998,21.4200
34.1998,20.5950
34.1808,20.4993
34.1266,20.4182
34.0455,20.3640
33.9498,20.3450
32.6498,20.3450
32.5541,20.3640
32.4730,20.4182
32.4188,20.4993
32.3998,20.5950
32.3998,21.4200
32.4188,21.5157
32.4730,21.5968
32.5541,21.6510
32.6498,21.6700
Z" /> 
<path style="fill:#00C2C2; fill-opacity:0.9000; stroke:none;fill-rule:evenodd;"
d="M 33.9498,18.5450
34.0455,18.5260
34.1266,18.4718
34.1808,18.3907
34.1998,18.2950
34.1998,17.4700
34.1808,17.3743
34.1266,17.2932
34.0455,17.2390
33.9498,17.2200
32.6498,17.2200
32.5541,17.2390
32.4730,17.2932
32.4188,17.3743
32.3998,17.4700
32.3998,18.2950
32.4188,18.3907
32.4730,18.4718
32.5541,18.5260
32.6498,18.5450
Z" /> 
<path style="fill:#00C2C2; fill-opacity:0.9000; stroke:none;fill-rule:evenodd;"
d="M 29.0632,7.5297
29.0813,7.6206
29.1328,7.6976
29.2098,7.7491
29.3007,7.7672
29.8007,7.7672
29.8916,7.7491
29.9686,7.6976
30.0201,7.6206
30.0382,7.5297
30.0382,7.0547
30.0201,6.9638
29.9686,6.8867
29.8916,6.8353
29.8007,6.8172
29.3007,6.8172
29.2098,6.8353
29.1328,6.8867
29.0813,6.9638
29.0632,7.0547
Z" /> 
<path style="fill:#00C2C2; fill-opacity:0.9000; stroke:none;fill-rule:evenodd;"
d="M 30.8882,7.5297
30.9063,7.6206
30.9578,7.6976
31.0348,7.7491
31.1257,7.7672
31.6257,7.7672
31.7166,7.7491
31.7936,7.6976
31.8451,7.6206
31.8632,7.5297
31.8632,7.0547
31.8451,6.9638
31.7936,6.8867
31.7166,6.8353
31.6257,6.8172
31.1257,6.8172
31.0348,6.8353
30.9578,6.8867
30.9063,6.9638
30.8882,7.0547
Z" /> 
<path style="fill:#00C2C2; fill-opacity:0.9000; stroke:none;fill-rule:evenodd;"
d="M 7.5623,15.0275
7.4714,15.0456
7.3944,15.0971
7.3429,15.1741
7.3248,15.2650
7.3248,15.8650
7.3429,15.9559
7.3944,16.0329
7.4714,16.0844
7.5623,16.1025
8.0373,16.1025
8.1282,16.0844
8.2052,16.0329
8.2567,15.9559
8.2748,15.8650
8.2748,15.2650
8.2567,15.1741
8.2052,15.0971
8.1282,15.0456
8.0373,15.0275
Z" /> 
<path style="fill:#00C2C2; fill-opacity:0.9000; stroke:none;fill-rule:evenodd;"
d="M 7.5623,16.7525
7.4714,16.7706
7.3944,16.8221
7.3429,16.8991
7.3248,16.9900
7.3248,17.5900
7.3429,17.6809
7.3944,17.7579
7.4714,17.8094
7.5623,17.8275
8.0373,17.8275
8.1282,17.8094
8.2052,17.7579
8.2567,17.6809
8.2748,17.5900
8.2748,16.9900
8.2567,16.8991
8.2052,16.8221
8.1282,16.7706
8.0373,16.7525
Z" /> 
<path style="fill:#00C2C2; fill-opacity:0.9000; stroke:none;fill-rule:evenodd;"
d="M 17.0606,22.9250
17.0032,22.9364
16.9546,22.9689
16.9220,23.0176
16.9106,23.0750
16.9106,24.8250
16.9220,24.8824
16.9546,24.9311
17.0032,24.9636
17.0606,24.9750
17.3606,24.9750
17.4180,24.9636
17.4667,24.9311
17.4992,24.8824
17.5106,24.8250
17.5106,23.0750
17.4992,23.0176
17.4667,22.9689
17.4180,22.9364
17.3606,22.9250
Z" /> 
<path style="fill:#00C2C2; fill-opacity:0.9000; stroke:none;fill-rule:evenodd;"
d="M 15.7906,22.9250
15.7332,22.9364
15.6846,22.9689
15.6520,23.0176
15.6406,23.0750
15.6406,24.8250
15.6520,24.8824
15.6846,24.9311
15.7332,24.9636
15.7906,24.9750
16.0906,24.9750
16.1480,24.9636
16.1967,24.9311
16.2292,24.8824
16.2406,24.8250
16.2406,23.0750
16.2292,23.0176
16.1967,22.9689
16.1480,22.9364
16.0906,22.9250
Z" /> 
<path style="fill:#00C2C2; fill-opacity:0.9000; stroke:none;fill-rule:evenodd;"
d="M 14.5206,22.9250
14.4632,22.9364
14.4146,22.9689
14.3820,23.0176
14.3706,23.0750
14.3706,24.8250
14.3820,24.8824
14.4146,24.9311
14.4632,24.9636
14.5206,24.9750
14.8206,24.9750
14.8780,24.9636
14.9267,24.9311
14.9592,24.8824
14.9706,24.8250
14.9706,23.0750
14.9592,23.0176
14.9267,22.9689
14.8780,22.9364
14.8206,22.9250
Z" /> 
<path style="fill:#00C2C2; fill-opacity:0.9000; stroke:none;fill-rule:evenodd;"
d="M 13.2506,22.9250
13.1932,22.9364
13.1446,22.9689
13.1120,23.0176
13.1006,23.0750
13.1006,24.8250
13.1120,24.8824
13.1446,24.9311
13.1932,24.9636
13.2506,24.9750
13.5506,24.9750
13.6080,24.9636
13.6567,24.9311
13.6892,24.8824
13.7006,24.8250
13.7006,23.0750
13.6892,23.0176
13.6567,22.9689
13.6080,22.9364
13.5506,22.9250
Z" /> 
<path style="fill:#00C2C2; fill-opacity:0.9000; stroke:none;fill-rule:evenodd;"
d="M 11.9806,22.9250
11.9232,22.9364
11.8746,22.9689
11.8420,23.0176
11.8306,23.0750
11.8306,24.8250
11.8420,24.8824
11.8746,24.9311
11.9232,24.9636
11.9806,24.9750
12.2806,24.9750
12.3380,24.9636
12.3867,24.9311
12.4192,24.8824
12.4306,24.8250
12.4306,23.0750
12.4192,23.0176
12.3867,22.9689
12.3380,22.9364
12.2806,22.9250
Z" /> 
<path style="fill:#00C2C2; fill-opacity:0.9000; stroke:none;fill-rule:evenodd;"
d="M 10.7106,22.9250
10.6532,22.9364
10.6046,22.9689
10.5720,23.0176
10.5606,23.0750
10.5606,24.8250
10.5720,24.8824
10.6046,24.9311
10.6532,24.9636
10.7106,24.9750
11.0106,24.9750
11.0680,24.9636
11.1167,24.9311
11.1492,24.8824
11.1606,24.8250
11.1606,23.0750
11.1492,23.0176
11.1167,22.9689
11.0680,22.9364
11.0106,22.9250
Z" /> 
<path style="fill:#00C2C2; fill-opacity:0.9000; stroke:none;fill-rule:evenodd;"
d="M 9.4406,22.9250
9.3832,22.9364
9.3346,22.9689
9.3020,23.0176
9.2906,23.0750
9.2906,24.8250
9.3020,24.8824
9.3346,24.9311
9.3832,24.9636
9.4406,24.9750
9.7406,24.9750
9.7980,24.9636
9.8467,24.9311
9.8792,24.8824
9.8906,24.8250
9.8906,23.0750
9.8792,23.0176
9.8467,22.9689
9.7980,22.9364
9.7406,22.9250
Z" /> 
<path style="fill:#00C2C2; fill-opacity:0.9000; stroke:none;fill-rule:evenodd;"
d="M 8.1706,22.9250
8.1132,22.9364
8.0646,22.9689
8.0320,23.0176
8.0206,23.0750
8.0206,24.8250
8.0320,24.8824
8.0646,24.9311
8.1132,24.9636
8.1706,24.9750
8.4706,24.9750
8.5280,24.9636
8.5767,24.9311
8.6092,24.8824
8.6206,24.8250
8.6206,23.0750
8.6092,23.0176
8.5767,22.9689
8.5280,22.9364
8.4706,22.9250
Z" /> 
<path style="fill:#00C2C2; fill-opacity:0.9000; stroke:none;fill-rule:evenodd;"
d="M 8.1706,32.2250
8.1132,32.2364
8.0646,32.2689
8.0320,32.3176
8.0206,32.3750
8.0206,34.1250
8.0320,34.1824
8.0646,34.2311
8.1132,34.2636
8.1706,34.2750
8.4706,34.2750
8.5280,34.2636
8.5767,34.2311
8.6092,34.1824
8.6206,34.1250
8.6206,32.3750
8.6092,32.3176
8.5767,32.2689
8.5280,32.2364
8.4706,32.2250
Z" /> 
<path style="fill:#00C2C2; fill-opacity:0.9000; stroke:none;fill-rule:evenodd;"
d="M 9.4406,32.2250
9.3832,32.2364
9.3346,32.2689
9.3020,32.3176
9.2906,32.3750
9.2906,34.1250
9.3020,34.1824
9.3346,34.2311
9.3832,34.2636
9.4406,34.2750
9.7406,34.2750
9.7980,34.2636
9.8467,34.2311
9.8792,34.1824
9.8906,34.1250
9.8906,32.3750
9.8792,32.3176
9.8467,32.2689
9.7980,32.2364
9.7406,32.2250
Z" /> 
<path style="fill:#00C2C2; fill-opacity:0.9000; stroke:none;fill-rule:evenodd;"
d="M 10.7106,32.2250
10.6532,32.2364
10.6046,32.2689
10.5720,32.3176
10.5606,32.3750
10.5606,34.1250
10.5720,34.1824
10.6046,34.2311
10.6532,34.2636
10.7106,34.2750
11.0106,34.2750
11.0680,34.2636
11.1167,34.2311
11.1492,34.1824
11.1606,34.1250
11.1606,32.3750
11.1492,32.3176
11.1167,32.2689
11.0680,32.2364
11.0106,32.2250
Z" /> 
<path style="fill:#00C2C2; fill-opacity:0.9000; stroke:none;fill-rule:evenodd;"
d="M 11.9806,32.2250
11.9232,32.2364
11.8746,32.2689
11.8420,32.3176
11.8306,32.3750
11.8306,34.1250
11.8420,34.1824
11.8746,34.2311
11.9232,34.2636
11.9806,34.2750
12.2806,34.2750
12.3380,34.2636
12.3867,34.2311
12.4192,34.1824
12.4306,34.1250
12.4306,32.3750
12.4192,32.3176
12.3867,32.2689
12.3380,32.2364
12.2806,32.2250
Z" /> 
<path style="fill:#00C2C2; fill-opacity:0.9000; stroke:none;fill-rule:evenodd;"
d="M 13.2506,32.2250
13.1932,32.2364
13.1446,32.2689
13.1120,32.3176
13.1006,32.3750
13.1006,34.1250
13.1120,34.1824
13.1446,34.2311
13.1932,34.2636
13.2506,34.2750
13.5506,34.2750
13.6080,34.2636
13.6567,34.2311
13.6892,34.1824
13.7006,34.1250
13.7006,32.3750
13.6892,32.3176
13.6567,32.2689
13.6080,32.2364
13.5506,32.2250
Z" /> 
<path style="fill:#00C2C2; fill-opacity:0.9000; stroke:none;fill-rule:evenodd;"
d="M 14.5206,32.2250
14.4632,32.2364
14.4146,32.2689
14.3820,32.3176
14.3706,32.3750
14.3706,34.1250
14.3820,34.1824
14.4146,34.2311
14.4632,34.2636
14.5206,34.2750
14.8206,34.2750
14.8780,34.2636
14.9267,34.2311
14.9592,34.1824
14.9706,34.1250
14.9706,32.3750
14.9592,32.3176
14.9267,32.2689
14.8780,32.2364
14.8206,32.2250
Z" /> 
<path style="fill:#00C2C2; fill-opacity:0.9000; stroke:none;fill-rule:evenodd;"
d="M 15.7906,32.2250
15.7332,32.2364
15.6846,32.2689
15.6520,32.3176
15.6406,32.3750
15.6406,34.1250
15.6520,34.1824
15.6846,34.2311
15.7332,34.2636
15.7906,34.2750
16.0906,34.2750
16.1480,34.2636
16.1967,34.2311
16.2292,34.1824
16.2406,34.1250
16.2406,32.3750
16.2292,32.3176
16.1967,32.2689
16.1480,32.2364
16.0906,32.2250
Z" /> 
<path style="fill:#00C2C2; fill-opacity:0.9000; stroke:none;fill-rule:evenodd;"
d="M 17.0606,32.2250
17.0032,32.2364
16.9546,32.2689
16.9220,32.3176
16.9106,32.3750
16.9106,34.1250
16.9220,34.1824
16.9546,34.2311
17.0032,34.2636
17.0606,34.2750
17.3606,34.2750
17.4180,34.2636
17.4667,34.2311
17.4992,34.1824
17.5106,34.1250
17.5106,32.3750
17.4992,32.3176
17.4667,32.2689
17.4180,32.2364
17.3606,32.2250
Z" /> 
<path style="fill:#00C2C2; fill-opacity:0.9000; stroke:none;fill-rule:evenodd;"
d="M 38.8123,5.8900
38.7214,5.9081
38.6444,5.9596
38.5929,6.0366
38.5748,6.1275
38.5748,6.7275
38.5929,6.8184
38.6444,6.8954
38.7214,6.9469
38.8123,6.9650
39.2873,6.9650
39.3782,6.9469
39.4552,6.8954
39.5067,6.8184
39.5248,6.7275
39.5248,6.1275
39.5067,6.0366
39.4552,5.9596
39.3782,5.9081
39.2873,5.8900
Z" /> 
<path style="fill:#00C2C2; fill-opacity:0.9000; stroke:none;fill-rule:evenodd;"
d="M 38.8123,7.6150
38.7214,7.6331
38.6444,7.6846
38.5929,7.7616
38.5748,7.8525
38.5748,8.4525
38.5929,8.5434
38.6444,8.6204
38.7214,8.6719
38.8123,8.6900
39.2873,8.6900
39.3782,8.6719
39.4552,8.6204
39.5067,8.5434
39.5248,8.4525
39.5248,7.8525
39.5067,7.7616
39.4552,7.6846
39.3782,7.6331
39.2873,7.6150
Z" /> 
<path style="fill:#00C2C2; fill-opacity:0.9000; stroke:none;fill-rule:evenodd;"
d="M 13.0373,7.1900
13.1282,7.1719
13.2052,7.1204
13.2567,7.0434
13.2748,6.9525
13.2748,6.3525
13.2567,6.2616
13.2052,6.1846
13.1282,6.1331
13.0373,6.1150
12.5623,6.1150
12.4714,6.1331
12.3944,6.1846
12.3429,6.2616
12.3248,6.3525
12.3248,6.9525
12.3429,7.0434
12.3944,7.1204
12.4714,7.1719
12.5623,7.1900
Z" /> 
<path style="fill:#00C2C2; fill-opacity:0.9000; stroke:none;fill-rule:evenodd;"
d="M 13.0373,5.4650
13.1282,5.4469
13.2052,5.3954
13.2567,5.3184
13.2748,5.2275
13.2748,4.6275
13.2567,4.5366
13.2052,4.4596
13.1282,4.4081
13.0373,4.3900
12.5623,4.3900
12.4714,4.4081
12.3944,4.4596
12.3429,4.5366
12.3248,4.6275
12.3248,5.2275
12.3429,5.3184
12.3944,5.3954
12.4714,5.4469
12.5623,5.4650
Z" /> 
<path style="fill:#00C2C2; fill-opacity:0.9000; stroke:none;fill-rule:evenodd;"
d="M 27.7498,6.0275
27.7679,6.1184
27.8194,6.1954
27.8964,6.2469
27.9873,6.2650
28.5873,6.2650
28.6782,6.2469
28.7552,6.1954
28.8067,6.1184
28.8248,6.0275
28.8248,5.5525
28.8067,5.4616
28.7552,5.3846
28.6782,5.3331
28.5873,5.3150
27.9873,5.3150
27.8964,5.3331
27.8194,5.3846
27.7679,5.4616
27.7498,5.5525
Z" /> 
<path style="fill:#00C2C2; fill-opacity:0.9000; stroke:none;fill-rule:evenodd;"
d="M 29.4748,6.0275
29.4929,6.1184
29.5444,6.1954
29.6214,6.2469
29.7123,6.2650
30.3123,6.2650
30.4032,6.2469
30.4802,6.1954
30.5317,6.1184
30.5498,6.0275
30.5498,5.5525
30.5317,5.4616
30.4802,5.3846
30.4032,5.3331
30.3123,5.3150
29.7123,5.3150
29.6214,5.3331
29.5444,5.3846
29.4929,5.4616
29.4748,5.5525
Z" /> 
<path style="fill:#00C2C2; fill-opacity:0.9000; stroke:none;fill-rule:evenodd;"
d="M 33.3145,9.6900
33.4054,9.6719
33.4825,9.6204
33.5340,9.5434
33.5521,9.4525
33.5521,8.8525
33.5340,8.7616
33.4825,8.6846
33.4054,8.6331
33.3145,8.6150
32.8395,8.6150
32.7487,8.6331
32.6716,8.6846
32.6201,8.7616
32.6020,8.8525
32.6020,9.4525
32.6201,9.5434
32.6716,9.6204
32.7487,9.6719
32.8395,9.6900
Z" /> 
<path style="fill:#00C2C2; fill-opacity:0.9000; stroke:none;fill-rule:evenodd;"
d="M 33.3145,7.9650
33.4054,7.9469
33.4825,7.8954
33.5340,7.8184
33.5521,7.7275
33.5521,7.1275
33.5340,7.0366
33.4825,6.9596
33.4054,6.9081
33.3145,6.8900
32.8395,6.8900
32.7487,6.9081
32.6716,6.9596
32.6201,7.0366
32.6020,7.1275
32.6020,7.7275
32.6201,7.8184
32.6716,7.8954
32.7487,7.9469
32.8395,7.9650
Z" /> 
<path style="fill:#00C2C2; fill-opacity:0.9000; stroke:none;fill-rule:evenodd;"
d="M 19.5373,35.5525
19.6282,35.5344
19.7052,35.4829
19.7567,35.4059
19.7748,35.3150
19.7748,34.7150
19.7567,34.6241
19.7052,34.5471
19.6282,34.4956
19.5373,34.4775
19.0623,34.4775
18.9714,34.4956
18.8944,34.5471
18.8429,34.6241
18.8248,34.7150
18.8248,35.3150
18.8429,35.4059
18.8944,35.4829
18.9714,35.5344
19.0623,35.5525
Z" /> 
<path style="fill:#00C2C2; fill-opacity:0.9000; stroke:none;fill-rule:evenodd;"
d="M 19.5373,33.8275
19.6282,33.8094
19.7052,33.7579
19.7567,33.6809
19.7748,33.5900
19.7748,32.9900
19.7567,32.8991
19.7052,32.8221
19.6282,32.7706
19.5373,32.7525
19.0623,32.7525
18.9714,32.7706
18.8944,32.8221
18.8429,32.8991
18.8248,32.9900
18.8248,33.5900
18.8429,33.6809
18.8944,33.7579
18.9714,33.8094
19.0623,33.8275
Z" /> 
<path style="fill:#00C2C2; fill-opacity:0.9000; stroke:none;fill-rule:evenodd;"
d="M 19.5373,24.4900
19.6282,24.4719
19.7052,24.4204
19.7567,24.3434
19.7748,24.2525
19.7748,23.6525
19.7567,23.5616
19.7052,23.4846
19.6282,23.4331
19.5373,23.4150
19.0623,23.4150
18.9714,23.4331
18.8944,23.4846
18.8429,23.5616
18.8248,23.6525
18.8248,24.2525
18.8429,24.3434
18.8944,24.4204
18.9714,24.4719
19.0623,24.4900
Z" /> 
<path style="fill:#00C2C2; fill-opacity:0.9000; stroke:none;fill-rule:evenodd;"
d="M 19.5373,22.7650
19.6282,22.7469
19.7052,22.6954
19.7567,22.6184
19.7748,22.5275
19.7748,21.9275
19.7567,21.8366
19.7052,21.7596
19.6282,21.7081
19.5373,21.6900
19.0623,21.6900
18.9714,21.7081
18.8944,21.7596
18.8429,21.8366
18.8248,21.9275
18.8248,22.5275
18.8429,22.6184
18.8944,22.6954
18.9714,22.7469
19.0623,22.7650
Z" /> 
<path style="fill:#00C2C2; fill-opacity:0.9000; stroke:none;fill-rule:evenodd;"
d="M 31.5373,21.5500
31.6282,21.5319
31.7052,21.4804
31.7567,21.4034
31.7748,21.3125
31.7748,20.7125
31.7567,20.6216
31.7052,20.5446
31.6282,20.4931
31.5373,20.4750
31.0623,20.4750
30.9714,20.4931
30.8944,20.5446
30.8429,20.6216
30.8248,20.7125
30.8248,21.3125
30.8429,21.4034
30.8944,21.4804
30.9714,21.5319
31.0623,21.5500
Z" /> 
<path style="fill:#00C2C2; fill-opacity:0.9000; stroke:none;fill-rule:evenodd;"
d="M 31.5373,19.8250
31.6282,19.8069
31.7052,19.7554
31.7567,19.6784
31.7748,19.5875
31.7748,18.9875
31.7567,18.8966
31.7052,18.8196
31.6282,18.7681
31.5373,18.7500
31.0623,18.7500
30.9714,18.7681
30.8944,18.8196
30.8429,18.8966
30.8248,18.9875
30.8248,19.5875
30.8429,19.6784
30.8944,19.7554
30.9714,19.8069
31.0623,19.8250
Z" /> 
</g>
<g style="fill:none; 
stroke:#000000; stroke-width:0.5000; stroke-opacity:1; 
stroke-linecap:round; stroke-linejoin:round;">
<path d="M14.3448 2.4650
L14.3448 3.1150
" />
</g>
<g style="fill:none; 
stroke:#000000; stroke-width:0.5500; stroke-opacity:1; 
stroke-linecap:round; stroke-linejoin:round;">
<path d="M15.4948 5.4900
L15.1948 5.4900
" />
<path d="M20.4948 5.4900
L20.1948 5.4900
" />
</g>
<g style="fill:none; 
stroke:#000000; stroke-width:0.5000; stroke-opacity:1; 
stroke-linecap:round; stroke-linejoin:round;">
<path d="M21.3448 2.4650
L21.3448 3.1150
" />
</g>
<g style="fill:#000000; fill-opacity:1.0000; stroke:none;">
<circle cx="48.8798" cy="49.6500" r="0.6000" /> 
<circle cx="38.7198" cy="49.6500" r="0.6000" /> 
<circle cx="48.8798" cy="39.4900" r="0.6000" /> 
<circle cx="38.7198" cy="39.4900" r="0.6000" /> 
<circle cx="43.7998" cy="43.2900" r="1.1000" /> 
<circle cx="22.7498" cy="24.7900" r="0.4000" /> 
<circle cx="25.2898" cy="24.7900" r="0.4000" /> 
<circle cx="27.8298" cy="24.7900" r="0.4000" /> 
<circle cx="30.3698" cy="24.7900" r="0.4000" /> 
<circle cx="32.9098" cy="24.7900" r="0.4000" /> 
<circle cx="35.4498" cy="24.7900" r="0.4000" /> 
<circle cx="37.9898" cy="24.7900" r="0.4000" /> 
<circle cx="40.5298" cy="24.7900" r="0.4000" /> 
<circle cx="40.5298" cy="32.4100" r="0.4000" /> 
<circle cx="37.9898" cy="32.4100" r="0.4000" /> 
<circle cx="35.4498" cy="32.4100" r="0.4000" /> 
<circle cx="32.9098" cy="32.4100" r="0.4000" /> 
<circle cx="30.3698" cy="32.4100" r="0.4000" /> 
<circle cx="27.8298" cy="32.4100" r="0.4000" /> 
<circle cx="25.2898" cy="32.4100" r="0.4000" /> 
<circle cx="22.7498" cy="32.4100" r="0.4000" /> 
<circle cx="32.8798" cy="49.6500" r="0.6000" /> 
<circle cx="22.7198" cy="49.6500" r="0.6000" /> 
<circle cx="32.8798" cy="39.4900" r="0.6000" /> 
<circle cx="22.7198" cy="39.4900" r="0.6000" /> 
<circle cx="27.7998" cy="43.2900" r="1.1000" /> 
<circle cx="9.0498" cy="11.0400" r="0.4000" /> 
<circle cx="9.0498" cy="6.1600" r="0.4000" /> 
<circle cx="18.0498" cy="49.2900" r="0.5000" /> 
<circle cx="15.5098" cy="49.2900" r="0.5000" /> 
<circle cx="18.0498" cy="46.7500" r="0.5000" /> 
<circle cx="15.5098" cy="46.7500" r="0.5000" /> 
<circle cx="18.0498" cy="44.2100" r="0.5000" /> 
<circle cx="15.5098" cy="44.2100" r="0.5000" /> 
<circle cx="18.0498" cy="41.6700" r="0.5000" /> 
<circle cx="15.5098" cy="41.6700" r="0.5000" /> 
<circle cx="41.5498" cy="9.5000" r="0.5000" /> 
<circle cx="44.0898" cy="9.5000" r="0.5000" /> 
<circle cx="41.5498" cy="12.0400" r="0.5000" /> 
<circle cx="44.0898" cy="12.0400" r="0.5000" /> 
<circle cx="41.5498" cy="14.5800" r="0.5000" /> 
<circle cx="44.0898" cy="14.5800" r="0.5000" /> 
<circle cx="41.5498" cy="17.1200" r="0.5000" /> 
<circle cx="44.0898" cy="17.1200" r="0.5000" /> 
</g> 
</svg>
