<?xml version="1.0" standalone="no"?>
 <!DOCTYPE svg PUBLIC "-//W3C//DTD SVG 1.1//EN" 
 "http://www.w3.org/Graphics/SVG/1.1/DTD/svg11.dtd"> 
<svg
  xmlns:svg="http://www.w3.org/2000/svg"
  xmlns="http://www.w3.org/2000/svg"
  xmlns:xlink="http://www.w3.org/1999/xlink"
  xmlns:inkscape="http://www.inkscape.org/namespaces/inkscape"
  version="1.1"
  width="55.5498mm" height="71.2978mm" viewBox="0.0000 0.0000 55.5498 71.2978">
<title>SVG Image created as bios-programmer-ch341a-F_Adhesive.svg date 2026-04-17T02:47:45 </title>
  <desc>Image generated by PCBNEW </desc>
<g style="fill:#000000; fill-opacity:1.0000;stroke:#000000; stroke-opacity:1.0000;
stroke-linecap:round; stroke-linejoin:round;"
 transform="translate(0 0) scale(1 1)">
</g>
<g style="fill:none; 
stroke:#C872AB; stroke-width:0.1500; stroke-opacity:1; 
stroke-linecap:round; stroke-linejoin:round;">
<path d="M-103.7000 -1.3950
L4.3000 -1.3950
L4.3000 30.6050
L-103.7000 30.6050
L-103.7000 -1.3950
" />
<path d="M-29.2500 -18.7100
L6.3000 -18.7100
L6.3000 32.6050
L-29.2500 32.6050
L-29.2500 -18.7100
" />
<path d="M-27.2500 -16.7100
L4.3000 -16.7100
L4.3000 30.6050
L-27.2500 30.6050
L-27.2500 -16.7100
" />
<path d="M20.7500 -16.7100
L20.7500 -18.7100
" />
<text x="-4.2500" y="-17.0600"
textLength="1.4281" font-size="1.7333" lengthAdjust="spacingAndGlyphs"
text-anchor="start" opacity="0" stroke-opacity="0">1</text>
<g class="stroked-text"><desc>1</desc>
<path d="M-3.1608 -17.1164
L-3.9037 -17.1164
" />
<path d="M-3.5323 -17.1164
L-3.5323 -18.4164
" />
<path d="M-3.5323 -18.4164
L-3.6561 -18.2307
" />
<path d="M-3.6561 -18.2307
L-3.7799 -18.1069
" />
<path d="M-3.7799 -18.1069
L-3.9037 -18.0450
" />
</g><path d="M20.7500 30.6050
L20.7500 32.6050
" />
<text x="-4.2500" y="32.2550"
textLength="1.4281" font-size="1.7333" lengthAdjust="spacingAndGlyphs"
text-anchor="start" opacity="0" stroke-opacity="0">1</text>
<g class="stroked-text"><desc>1</desc>
<path d="M-3.1608 32.1986
L-3.9037 32.1986
" />
<path d="M-3.5323 32.1986
L-3.5323 30.8986
" />
<path d="M-3.5323 30.8986
L-3.6561 31.0843
" />
<path d="M-3.6561 31.0843
L-3.7799 31.2081
" />
<path d="M-3.7799 31.2081
L-3.9037 31.2700
" />
</g><path d="M-29.2500 31.2900
L-27.2500 31.2900
" />
<text x="-28.2500" y="6.9400"
textLength="1.3043" font-size="1.7333" lengthAdjust="spacingAndGlyphs"
text-anchor="middle" opacity="0" stroke-opacity="0">A</text>
<g class="stroked-text"><desc>A</desc>
<path d="M-28.5595 6.5122
L-27.9405 6.5122
" />
<path d="M-28.6833 6.8836
L-28.2500 5.5836
" />
<path d="M-28.2500 5.5836
L-27.8167 6.8836
" />
</g><path d="M6.3000 31.2900
L4.3000 31.2900
" />
<text x="5.3000" y="6.9400"
textLength="1.3043" font-size="1.7333" lengthAdjust="spacingAndGlyphs"
text-anchor="middle" opacity="0" stroke-opacity="0">A</text>
<g class="stroked-text"><desc>A</desc>
<path d="M4.9905 6.5122
L5.6095 6.5122
" />
<path d="M4.8667 6.8836
L5.3000 5.5836
" />
<path d="M5.3000 5.5836
L5.7333 6.8836
" />
</g><text x="-80.7000" y="26.4550"
textLength="7.0071" font-size="2.0000" lengthAdjust="spacingAndGlyphs"
text-anchor="start" opacity="0" stroke-opacity="0">Date: </text>
<g class="stroked-text"><desc>Date: </desc>
<path d="M-80.2442 26.3911
L-80.2442 24.8911
" />
<path d="M-80.2442 24.8911
L-79.8870 24.8911
" />
<path d="M-79.8870 24.8911
L-79.6727 24.9626
" />
<path d="M-79.6727 24.9626
L-79.5299 25.1054
" />
<path d="M-79.5299 25.1054
L-79.4585 25.2483
" />
<path d="M-79.4585 25.2483
L-79.3870 25.5340
" />
<path d="M-79.3870 25.5340
L-79.3870 25.7483
" />
<path d="M-79.3870 25.7483
L-79.4585 26.0340
" />
<path d="M-79.4585 26.0340
L-79.5299 26.1768
" />
<path d="M-79.5299 26.1768
L-79.6727 26.3197
" />
<path d="M-79.6727 26.3197
L-79.8870 26.3911
" />
<path d="M-79.8870 26.3911
L-80.2442 26.3911
" />
<path d="M-78.1013 26.3911
L-78.1013 25.6054
" />
<path d="M-78.1013 25.6054
L-78.1727 25.4626
" />
<path d="M-78.1727 25.4626
L-78.3156 25.3911
" />
<path d="M-78.3156 25.3911
L-78.6013 25.3911
" />
<path d="M-78.6013 25.3911
L-78.7442 25.4626
" />
<path d="M-78.1013 26.3197
L-78.2442 26.3911
" />
<path d="M-78.2442 26.3911
L-78.6013 26.3911
" />
<path d="M-78.6013 26.3911
L-78.7442 26.3197
" />
<path d="M-78.7442 26.3197
L-78.8156 26.1768
" />
<path d="M-78.8156 26.1768
L-78.8156 26.0340
" />
<path d="M-78.8156 26.0340
L-78.7442 25.8911
" />
<path d="M-78.7442 25.8911
L-78.6013 25.8197
" />
<path d="M-78.6013 25.8197
L-78.2442 25.8197
" />
<path d="M-78.2442 25.8197
L-78.1013 25.7483
" />
<path d="M-77.6013 25.3911
L-77.0299 25.3911
" />
<path d="M-77.3870 24.8911
L-77.3870 26.1768
" />
<path d="M-77.3870 26.1768
L-77.3156 26.3197
" />
<path d="M-77.3156 26.3197
L-77.1727 26.3911
" />
<path d="M-77.1727 26.3911
L-77.0299 26.3911
" />
<path d="M-75.9585 26.3197
L-76.1013 26.3911
" />
<path d="M-76.1013 26.3911
L-76.3870 26.3911
" />
<path d="M-76.3870 26.3911
L-76.5299 26.3197
" />
<path d="M-76.5299 26.3197
L-76.6013 26.1768
" />
<path d="M-76.6013 26.1768
L-76.6013 25.6054
" />
<path d="M-76.6013 25.6054
L-76.5299 25.4626
" />
<path d="M-76.5299 25.4626
L-76.3870 25.3911
" />
<path d="M-76.3870 25.3911
L-76.1013 25.3911
" />
<path d="M-76.1013 25.3911
L-75.9585 25.4626
" />
<path d="M-75.9585 25.4626
L-75.8870 25.6054
" />
<path d="M-75.8870 25.6054
L-75.8870 25.7483
" />
<path d="M-75.8870 25.7483
L-76.6013 25.8911
" />
<path d="M-75.2442 26.2483
L-75.1727 26.3197
" />
<path d="M-75.1727 26.3197
L-75.2442 26.3911
" />
<path d="M-75.2442 26.3911
L-75.3156 26.3197
" />
<path d="M-75.3156 26.3197
L-75.2442 26.2483
" />
<path d="M-75.2442 26.2483
L-75.2442 26.3911
" />
<path d="M-75.2442 25.4626
L-75.1727 25.5340
" />
<path d="M-75.1727 25.5340
L-75.2442 25.6054
" />
<path d="M-75.2442 25.6054
L-75.3156 25.5340
" />
<path d="M-75.3156 25.5340
L-75.2442 25.4626
" />
<path d="M-75.2442 25.4626
L-75.2442 25.6054
" />
</g><path d="M-103.7000 27.1050
L4.3000 27.1050
" />
<text x="-102.7000" y="29.2550"
textLength="22.2929" font-size="2.0000" lengthAdjust="spacingAndGlyphs"
text-anchor="start" opacity="0" stroke-opacity="0">KiCad E.D.A. 10.0.0</text>
<g class="stroked-text"><desc>KiCad E.D.A. 10.0.0</desc>
<path d="M-102.2442 29.1911
L-102.2442 27.6911
" />
<path d="M-101.3870 29.1911
L-102.0299 28.3340
" />
<path d="M-101.3870 27.6911
L-102.2442 28.5483
" />
<path d="M-100.7442 29.1911
L-100.7442 28.1911
" />
<path d="M-100.7442 27.6911
L-100.8156 27.7626
" />
<path d="M-100.8156 27.7626
L-100.7442 27.8340
" />
<path d="M-100.7442 27.8340
L-100.6727 27.7626
" />
<path d="M-100.6727 27.7626
L-100.7442 27.6911
" />
<path d="M-100.7442 27.6911
L-100.7442 27.8340
" />
<path d="M-99.1727 29.0483
L-99.2442 29.1197
" />
<path d="M-99.2442 29.1197
L-99.4585 29.1911
" />
<path d="M-99.4585 29.1911
L-99.6013 29.1911
" />
<path d="M-99.6013 29.1911
L-99.8156 29.1197
" />
<path d="M-99.8156 29.1197
L-99.9585 28.9768
" />
<path d="M-99.9585 28.9768
L-100.0299 28.8340
" />
<path d="M-100.0299 28.8340
L-100.1013 28.5483
" />
<path d="M-100.1013 28.5483
L-100.1013 28.3340
" />
<path d="M-100.1013 28.3340
L-100.0299 28.0483
" />
<path d="M-100.0299 28.0483
L-99.9585 27.9054
" />
<path d="M-99.9585 27.9054
L-99.8156 27.7626
" />
<path d="M-99.8156 27.7626
L-99.6013 27.6911
" />
<path d="M-99.6013 27.6911
L-99.4585 27.6911
" />
<path d="M-99.4585 27.6911
L-99.2442 27.7626
" />
<path d="M-99.2442 27.7626
L-99.1727 27.8340
" />
<path d="M-97.8870 29.1911
L-97.8870 28.4054
" />
<path d="M-97.8870 28.4054
L-97.9585 28.2626
" />
<path d="M-97.9585 28.2626
L-98.1013 28.1911
" />
<path d="M-98.1013 28.1911
L-98.3870 28.1911
" />
<path d="M-98.3870 28.1911
L-98.5299 28.2626
" />
<path d="M-97.8870 29.1197
L-98.0299 29.1911
" />
<path d="M-98.0299 29.1911
L-98.3870 29.1911
" />
<path d="M-98.3870 29.1911
L-98.5299 29.1197
" />
<path d="M-98.5299 29.1197
L-98.6013 28.9768
" />
<path d="M-98.6013 28.9768
L-98.6013 28.8340
" />
<path d="M-98.6013 28.8340
L-98.5299 28.6911
" />
<path d="M-98.5299 28.6911
L-98.3870 28.6197
" />
<path d="M-98.3870 28.6197
L-98.0299 28.6197
" />
<path d="M-98.0299 28.6197
L-97.8870 28.5483
" />
<path d="M-96.5299 29.1911
L-96.5299 27.6911
" />
<path d="M-96.5299 29.1197
L-96.6727 29.1911
" />
<path d="M-96.6727 29.1911
L-96.9585 29.1911
" />
<path d="M-96.9585 29.1911
L-97.1013 29.1197
" />
<path d="M-97.1013 29.1197
L-97.1727 29.0483
" />
<path d="M-97.1727 29.0483
L-97.2442 28.9054
" />
<path d="M-97.2442 28.9054
L-97.2442 28.4768
" />
<path d="M-97.2442 28.4768
L-97.1727 28.3340
" />
<path d="M-97.1727 28.3340
L-97.1013 28.2626
" />
<path d="M-97.1013 28.2626
L-96.9585 28.1911
" />
<path d="M-96.9585 28.1911
L-96.6727 28.1911
" />
<path d="M-96.6727 28.1911
L-96.5299 28.2626
" />
<path d="M-94.6727 28.4054
L-94.1727 28.4054
" />
<path d="M-93.9585 29.1911
L-94.6727 29.1911
" />
<path d="M-94.6727 29.1911
L-94.6727 27.6911
" />
<path d="M-94.6727 27.6911
L-93.9585 27.6911
" />
<path d="M-93.3156 29.0483
L-93.2442 29.1197
" />
<path d="M-93.2442 29.1197
L-93.3156 29.1911
" />
<path d="M-93.3156 29.1911
L-93.3870 29.1197
" />
<path d="M-93.3870 29.1197
L-93.3156 29.0483
" />
<path d="M-93.3156 29.0483
L-93.3156 29.1911
" />
<path d="M-92.6013 29.1911
L-92.6013 27.6911
" />
<path d="M-92.6013 27.6911
L-92.2442 27.6911
" />
<path d="M-92.2442 27.6911
L-92.0299 27.7626
" />
<path d="M-92.0299 27.7626
L-91.8870 27.9054
" />
<path d="M-91.8870 27.9054
L-91.8156 28.0483
" />
<path d="M-91.8156 28.0483
L-91.7442 28.3340
" />
<path d="M-91.7442 28.3340
L-91.7442 28.5483
" />
<path d="M-91.7442 28.5483
L-91.8156 28.8340
" />
<path d="M-91.8156 28.8340
L-91.8870 28.9768
" />
<path d="M-91.8870 28.9768
L-92.0299 29.1197
" />
<path d="M-92.0299 29.1197
L-92.2442 29.1911
" />
<path d="M-92.2442 29.1911
L-92.6013 29.1911
" />
<path d="M-91.1013 29.0483
L-91.0299 29.1197
" />
<path d="M-91.0299 29.1197
L-91.1013 29.1911
" />
<path d="M-91.1013 29.1911
L-91.1727 29.1197
" />
<path d="M-91.1727 29.1197
L-91.1013 29.0483
" />
<path d="M-91.1013 29.0483
L-91.1013 29.1911
" />
<path d="M-90.4585 28.7626
L-89.7442 28.7626
" />
<path d="M-90.6013 29.1911
L-90.1013 27.6911
" />
<path d="M-90.1013 27.6911
L-89.6013 29.1911
" />
<path d="M-89.1013 29.0483
L-89.0299 29.1197
" />
<path d="M-89.0299 29.1197
L-89.1013 29.1911
" />
<path d="M-89.1013 29.1911
L-89.1727 29.1197
" />
<path d="M-89.1727 29.1197
L-89.1013 29.0483
" />
<path d="M-89.1013 29.0483
L-89.1013 29.1911
" />
<path d="M-86.4585 29.1911
L-87.3156 29.1911
" />
<path d="M-86.8870 29.1911
L-86.8870 27.6911
" />
<path d="M-86.8870 27.6911
L-87.0299 27.9054
" />
<path d="M-87.0299 27.9054
L-87.1727 28.0483
" />
<path d="M-87.1727 28.0483
L-87.3156 28.1197
" />
<path d="M-85.5299 27.6911
L-85.3870 27.6911
" />
<path d="M-85.3870 27.6911
L-85.2442 27.7626
" />
<path d="M-85.2442 27.7626
L-85.1727 27.8340
" />
<path d="M-85.1727 27.8340
L-85.1013 27.9768
" />
<path d="M-85.1013 27.9768
L-85.0299 28.2626
" />
<path d="M-85.0299 28.2626
L-85.0299 28.6197
" />
<path d="M-85.0299 28.6197
L-85.1013 28.9054
" />
<path d="M-85.1013 28.9054
L-85.1727 29.0483
" />
<path d="M-85.1727 29.0483
L-85.2442 29.1197
" />
<path d="M-85.2442 29.1197
L-85.3870 29.1911
" />
<path d="M-85.3870 29.1911
L-85.5299 29.1911
" />
<path d="M-85.5299 29.1911
L-85.6727 29.1197
" />
<path d="M-85.6727 29.1197
L-85.7442 29.0483
" />
<path d="M-85.7442 29.0483
L-85.8156 28.9054
" />
<path d="M-85.8156 28.9054
L-85.8870 28.6197
" />
<path d="M-85.8870 28.6197
L-85.8870 28.2626
" />
<path d="M-85.8870 28.2626
L-85.8156 27.9768
" />
<path d="M-85.8156 27.9768
L-85.7442 27.8340
" />
<path d="M-85.7442 27.8340
L-85.6727 27.7626
" />
<path d="M-85.6727 27.7626
L-85.5299 27.6911
" />
<path d="M-84.3870 29.0483
L-84.3156 29.1197
" />
<path d="M-84.3156 29.1197
L-84.3870 29.1911
" />
<path d="M-84.3870 29.1911
L-84.4585 29.1197
" />
<path d="M-84.4585 29.1197
L-84.3870 29.0483
" />
<path d="M-84.3870 29.0483
L-84.3870 29.1911
" />
<path d="M-83.3870 27.6911
L-83.2442 27.6911
" />
<path d="M-83.2442 27.6911
L-83.1013 27.7626
" />
<path d="M-83.1013 27.7626
L-83.0299 27.8340
" />
<path d="M-83.0299 27.8340
L-82.9585 27.9768
" />
<path d="M-82.9585 27.9768
L-82.8870 28.2626
" />
<path d="M-82.8870 28.2626
L-82.8870 28.6197
" />
<path d="M-82.8870 28.6197
L-82.9585 28.9054
" />
<path d="M-82.9585 28.9054
L-83.0299 29.0483
" />
<path d="M-83.0299 29.0483
L-83.1013 29.1197
" />
<path d="M-83.1013 29.1197
L-83.2442 29.1911
" />
<path d="M-83.2442 29.1911
L-83.3870 29.1911
" />
<path d="M-83.3870 29.1911
L-83.5299 29.1197
" />
<path d="M-83.5299 29.1197
L-83.6013 29.0483
" />
<path d="M-83.6013 29.0483
L-83.6727 28.9054
" />
<path d="M-83.6727 28.9054
L-83.7442 28.6197
" />
<path d="M-83.7442 28.6197
L-83.7442 28.2626
" />
<path d="M-83.7442 28.2626
L-83.6727 27.9768
" />
<path d="M-83.6727 27.9768
L-83.6013 27.8340
" />
<path d="M-83.6013 27.8340
L-83.5299 27.7626
" />
<path d="M-83.5299 27.7626
L-83.3870 27.6911
" />
<path d="M-82.2442 29.0483
L-82.1727 29.1197
" />
<path d="M-82.1727 29.1197
L-82.2442 29.1911
" />
<path d="M-82.2442 29.1911
L-82.3156 29.1197
" />
<path d="M-82.3156 29.1197
L-82.2442 29.0483
" />
<path d="M-82.2442 29.0483
L-82.2442 29.1911
" />
<path d="M-81.2442 27.6911
L-81.1013 27.6911
" />
<path d="M-81.1013 27.6911
L-80.9585 27.7626
" />
<path d="M-80.9585 27.7626
L-80.8870 27.8340
" />
<path d="M-80.8870 27.8340
L-80.8156 27.9768
" />
<path d="M-80.8156 27.9768
L-80.7442 28.2626
" />
<path d="M-80.7442 28.2626
L-80.7442 28.6197
" />
<path d="M-80.7442 28.6197
L-80.8156 28.9054
" />
<path d="M-80.8156 28.9054
L-80.8870 29.0483
" />
<path d="M-80.8870 29.0483
L-80.9585 29.1197
" />
<path d="M-80.9585 29.1197
L-81.1013 29.1911
" />
<path d="M-81.1013 29.1911
L-81.2442 29.1911
" />
<path d="M-81.2442 29.1911
L-81.3870 29.1197
" />
<path d="M-81.3870 29.1197
L-81.4585 29.0483
" />
<path d="M-81.4585 29.0483
L-81.5299 28.9054
" />
<path d="M-81.5299 28.9054
L-81.6013 28.6197
" />
<path d="M-81.6013 28.6197
L-81.6013 28.2626
" />
<path d="M-81.6013 28.2626
L-81.5299 27.9768
" />
<path d="M-81.5299 27.9768
L-81.4585 27.8340
" />
<path d="M-81.4585 27.8340
L-81.3870 27.7626
" />
<path d="M-81.3870 27.7626
L-81.2442 27.6911
" />
</g><path d="M-103.7000 24.1050
L4.3000 24.1050
" />
</g>
<g style="fill:none; 
stroke:#C872AB; stroke-width:0.3000; stroke-opacity:1; 
stroke-linecap:round; stroke-linejoin:round;">
<text x="-17.7000" y="26.4550"
textLength="6.3857" font-size="2.0000" lengthAdjust="spacingAndGlyphs"
text-anchor="start" opacity="0" stroke-opacity="0">Rev: </text>
<g class="stroked-text"><desc>Rev: </desc>
<path d="M-16.2883 26.3833
L-16.7883 25.6690
" />
<path d="M-17.1455 26.3833
L-17.1455 24.8833
" />
<path d="M-17.1455 24.8833
L-16.5741 24.8833
" />
<path d="M-16.5741 24.8833
L-16.4312 24.9548
" />
<path d="M-16.4312 24.9548
L-16.3598 25.0262
" />
<path d="M-16.3598 25.0262
L-16.2883 25.1690
" />
<path d="M-16.2883 25.1690
L-16.2883 25.3833
" />
<path d="M-16.2883 25.3833
L-16.3598 25.5262
" />
<path d="M-16.3598 25.5262
L-16.4312 25.5976
" />
<path d="M-16.4312 25.5976
L-16.5741 25.6690
" />
<path d="M-16.5741 25.6690
L-17.1455 25.6690
" />
<path d="M-15.0741 26.3119
L-15.2169 26.3833
" />
<path d="M-15.2169 26.3833
L-15.5026 26.3833
" />
<path d="M-15.5026 26.3833
L-15.6455 26.3119
" />
<path d="M-15.6455 26.3119
L-15.7169 26.1690
" />
<path d="M-15.7169 26.1690
L-15.7169 25.5976
" />
<path d="M-15.7169 25.5976
L-15.6455 25.4548
" />
<path d="M-15.6455 25.4548
L-15.5026 25.3833
" />
<path d="M-15.5026 25.3833
L-15.2169 25.3833
" />
<path d="M-15.2169 25.3833
L-15.0741 25.4548
" />
<path d="M-15.0741 25.4548
L-15.0026 25.5976
" />
<path d="M-15.0026 25.5976
L-15.0026 25.7405
" />
<path d="M-15.0026 25.7405
L-15.7169 25.8833
" />
<path d="M-14.5026 25.3833
L-14.1455 26.3833
" />
<path d="M-14.1455 26.3833
L-13.7883 25.3833
" />
<path d="M-13.2169 26.2405
L-13.1455 26.3119
" />
<path d="M-13.1455 26.3119
L-13.2169 26.3833
" />
<path d="M-13.2169 26.3833
L-13.2883 26.3119
" />
<path d="M-13.2883 26.3119
L-13.2169 26.2405
" />
<path d="M-13.2169 26.2405
L-13.2169 26.3833
" />
<path d="M-13.2169 25.4548
L-13.1455 25.5262
" />
<path d="M-13.1455 25.5262
L-13.2169 25.5976
" />
<path d="M-13.2169 25.5976
L-13.2883 25.5262
" />
<path d="M-13.2883 25.5262
L-13.2169 25.4548
" />
<path d="M-13.2169 25.4548
L-13.2169 25.5976
" />
</g></g>
<g style="fill:none; 
stroke:#C872AB; stroke-width:0.1500; stroke-opacity:1; 
stroke-linecap:round; stroke-linejoin:round;">
<text x="-102.7000" y="26.4550"
textLength="11.6500" font-size="2.0000" lengthAdjust="spacingAndGlyphs"
text-anchor="start" opacity="0" stroke-opacity="0">Size: User</text>
<g class="stroked-text"><desc>Size: User</desc>
<path d="M-102.3156 26.3197
L-102.1013 26.3911
" />
<path d="M-102.1013 26.3911
L-101.7442 26.3911
" />
<path d="M-101.7442 26.3911
L-101.6013 26.3197
" />
<path d="M-101.6013 26.3197
L-101.5299 26.2483
" />
<path d="M-101.5299 26.2483
L-101.4585 26.1054
" />
<path d="M-101.4585 26.1054
L-101.4585 25.9626
" />
<path d="M-101.4585 25.9626
L-101.5299 25.8197
" />
<path d="M-101.5299 25.8197
L-101.6013 25.7483
" />
<path d="M-101.6013 25.7483
L-101.7442 25.6768
" />
<path d="M-101.7442 25.6768
L-102.0299 25.6054
" />
<path d="M-102.0299 25.6054
L-102.1727 25.5340
" />
<path d="M-102.1727 25.5340
L-102.2442 25.4626
" />
<path d="M-102.2442 25.4626
L-102.3156 25.3197
" />
<path d="M-102.3156 25.3197
L-102.3156 25.1768
" />
<path d="M-102.3156 25.1768
L-102.2442 25.0340
" />
<path d="M-102.2442 25.0340
L-102.1727 24.9626
" />
<path d="M-102.1727 24.9626
L-102.0299 24.8911
" />
<path d="M-102.0299 24.8911
L-101.6727 24.8911
" />
<path d="M-101.6727 24.8911
L-101.4585 24.9626
" />
<path d="M-100.8156 26.3911
L-100.8156 25.3911
" />
<path d="M-100.8156 24.8911
L-100.8870 24.9626
" />
<path d="M-100.8870 24.9626
L-100.8156 25.0340
" />
<path d="M-100.8156 25.0340
L-100.7442 24.9626
" />
<path d="M-100.7442 24.9626
L-100.8156 24.8911
" />
<path d="M-100.8156 24.8911
L-100.8156 25.0340
" />
<path d="M-100.2442 25.3911
L-99.4585 25.3911
" />
<path d="M-99.4585 25.3911
L-100.2442 26.3911
" />
<path d="M-100.2442 26.3911
L-99.4585 26.3911
" />
<path d="M-98.3156 26.3197
L-98.4585 26.3911
" />
<path d="M-98.4585 26.3911
L-98.7442 26.3911
" />
<path d="M-98.7442 26.3911
L-98.8870 26.3197
" />
<path d="M-98.8870 26.3197
L-98.9585 26.1768
" />
<path d="M-98.9585 26.1768
L-98.9585 25.6054
" />
<path d="M-98.9585 25.6054
L-98.8870 25.4626
" />
<path d="M-98.8870 25.4626
L-98.7442 25.3911
" />
<path d="M-98.7442 25.3911
L-98.4585 25.3911
" />
<path d="M-98.4585 25.3911
L-98.3156 25.4626
" />
<path d="M-98.3156 25.4626
L-98.2442 25.6054
" />
<path d="M-98.2442 25.6054
L-98.2442 25.7483
" />
<path d="M-98.2442 25.7483
L-98.9585 25.8911
" />
<path d="M-97.6013 26.2483
L-97.5299 26.3197
" />
<path d="M-97.5299 26.3197
L-97.6013 26.3911
" />
<path d="M-97.6013 26.3911
L-97.6727 26.3197
" />
<path d="M-97.6727 26.3197
L-97.6013 26.2483
" />
<path d="M-97.6013 26.2483
L-97.6013 26.3911
" />
<path d="M-97.6013 25.4626
L-97.5299 25.5340
" />
<path d="M-97.5299 25.5340
L-97.6013 25.6054
" />
<path d="M-97.6013 25.6054
L-97.6727 25.5340
" />
<path d="M-97.6727 25.5340
L-97.6013 25.4626
" />
<path d="M-97.6013 25.4626
L-97.6013 25.6054
" />
<path d="M-95.7442 24.8911
L-95.7442 26.1054
" />
<path d="M-95.7442 26.1054
L-95.6727 26.2483
" />
<path d="M-95.6727 26.2483
L-95.6013 26.3197
" />
<path d="M-95.6013 26.3197
L-95.4585 26.3911
" />
<path d="M-95.4585 26.3911
L-95.1727 26.3911
" />
<path d="M-95.1727 26.3911
L-95.0299 26.3197
" />
<path d="M-95.0299 26.3197
L-94.9585 26.2483
" />
<path d="M-94.9585 26.2483
L-94.8870 26.1054
" />
<path d="M-94.8870 26.1054
L-94.8870 24.8911
" />
<path d="M-94.2442 26.3197
L-94.1013 26.3911
" />
<path d="M-94.1013 26.3911
L-93.8156 26.3911
" />
<path d="M-93.8156 26.3911
L-93.6727 26.3197
" />
<path d="M-93.6727 26.3197
L-93.6013 26.1768
" />
<path d="M-93.6013 26.1768
L-93.6013 26.1054
" />
<path d="M-93.6013 26.1054
L-93.6727 25.9626
" />
<path d="M-93.6727 25.9626
L-93.8156 25.8911
" />
<path d="M-93.8156 25.8911
L-94.0299 25.8911
" />
<path d="M-94.0299 25.8911
L-94.1727 25.8197
" />
<path d="M-94.1727 25.8197
L-94.2442 25.6768
" />
<path d="M-94.2442 25.6768
L-94.2442 25.6054
" />
<path d="M-94.2442 25.6054
L-94.1727 25.4626
" />
<path d="M-94.1727 25.4626
L-94.0299 25.3911
" />
<path d="M-94.0299 25.3911
L-93.8156 25.3911
" />
<path d="M-93.8156 25.3911
L-93.6727 25.4626
" />
<path d="M-92.3870 26.3197
L-92.5299 26.3911
" />
<path d="M-92.5299 26.3911
L-92.8156 26.3911
" />
<path d="M-92.8156 26.3911
L-92.9585 26.3197
" />
<path d="M-92.9585 26.3197
L-93.0299 26.1768
" />
<path d="M-93.0299 26.1768
L-93.0299 25.6054
" />
<path d="M-93.0299 25.6054
L-92.9585 25.4626
" />
<path d="M-92.9585 25.4626
L-92.8156 25.3911
" />
<path d="M-92.8156 25.3911
L-92.5299 25.3911
" />
<path d="M-92.5299 25.3911
L-92.3870 25.4626
" />
<path d="M-92.3870 25.4626
L-92.3156 25.6054
" />
<path d="M-92.3156 25.6054
L-92.3156 25.7483
" />
<path d="M-92.3156 25.7483
L-93.0299 25.8911
" />
<path d="M-91.6727 26.3911
L-91.6727 25.3911
" />
<path d="M-91.6727 25.6768
L-91.6013 25.5340
" />
<path d="M-91.6013 25.5340
L-91.5299 25.4626
" />
<path d="M-91.5299 25.4626
L-91.3870 25.3911
" />
<path d="M-91.3870 25.3911
L-91.2442 25.3911
" />
</g><text x="-17.7000" y="29.2550"
textLength="8.5071" font-size="2.0000" lengthAdjust="spacingAndGlyphs"
text-anchor="start" opacity="0" stroke-opacity="0">Id: 5/5</text>
<g class="stroked-text"><desc>Id: 5/5</desc>
<path d="M-17.2442 29.1911
L-17.2442 27.6911
" />
<path d="M-15.8870 29.1911
L-15.8870 27.6911
" />
<path d="M-15.8870 29.1197
L-16.0299 29.1911
" />
<path d="M-16.0299 29.1911
L-16.3156 29.1911
" />
<path d="M-16.3156 29.1911
L-16.4585 29.1197
" />
<path d="M-16.4585 29.1197
L-16.5299 29.0483
" />
<path d="M-16.5299 29.0483
L-16.6013 28.9054
" />
<path d="M-16.6013 28.9054
L-16.6013 28.4768
" />
<path d="M-16.6013 28.4768
L-16.5299 28.3340
" />
<path d="M-16.5299 28.3340
L-16.4585 28.2626
" />
<path d="M-16.4585 28.2626
L-16.3156 28.1911
" />
<path d="M-16.3156 28.1911
L-16.0299 28.1911
" />
<path d="M-16.0299 28.1911
L-15.8870 28.2626
" />
<path d="M-15.1727 29.0483
L-15.1013 29.1197
" />
<path d="M-15.1013 29.1197
L-15.1727 29.1911
" />
<path d="M-15.1727 29.1911
L-15.2442 29.1197
" />
<path d="M-15.2442 29.1197
L-15.1727 29.0483
" />
<path d="M-15.1727 29.0483
L-15.1727 29.1911
" />
<path d="M-15.1727 28.2626
L-15.1013 28.3340
" />
<path d="M-15.1013 28.3340
L-15.1727 28.4054
" />
<path d="M-15.1727 28.4054
L-15.2442 28.3340
" />
<path d="M-15.2442 28.3340
L-15.1727 28.2626
" />
<path d="M-15.1727 28.2626
L-15.1727 28.4054
" />
<path d="M-12.6013 27.6911
L-13.3156 27.6911
" />
<path d="M-13.3156 27.6911
L-13.3870 28.4054
" />
<path d="M-13.3870 28.4054
L-13.3156 28.3340
" />
<path d="M-13.3156 28.3340
L-13.1727 28.2626
" />
<path d="M-13.1727 28.2626
L-12.8156 28.2626
" />
<path d="M-12.8156 28.2626
L-12.6727 28.3340
" />
<path d="M-12.6727 28.3340
L-12.6013 28.4054
" />
<path d="M-12.6013 28.4054
L-12.5299 28.5483
" />
<path d="M-12.5299 28.5483
L-12.5299 28.9054
" />
<path d="M-12.5299 28.9054
L-12.6013 29.0483
" />
<path d="M-12.6013 29.0483
L-12.6727 29.1197
" />
<path d="M-12.6727 29.1197
L-12.8156 29.1911
" />
<path d="M-12.8156 29.1911
L-13.1727 29.1911
" />
<path d="M-13.1727 29.1911
L-13.3156 29.1197
" />
<path d="M-13.3156 29.1197
L-13.3870 29.0483
" />
<path d="M-10.8156 27.6197
L-12.1013 29.5483
" />
<path d="M-9.6013 27.6911
L-10.3156 27.6911
" />
<path d="M-10.3156 27.6911
L-10.3870 28.4054
" />
<path d="M-10.3870 28.4054
L-10.3156 28.3340
" />
<path d="M-10.3156 28.3340
L-10.1727 28.2626
" />
<path d="M-10.1727 28.2626
L-9.8156 28.2626
" />
<path d="M-9.8156 28.2626
L-9.6727 28.3340
" />
<path d="M-9.6727 28.3340
L-9.6013 28.4054
" />
<path d="M-9.6013 28.4054
L-9.5299 28.5483
" />
<path d="M-9.5299 28.5483
L-9.5299 28.9054
" />
<path d="M-9.5299 28.9054
L-9.6013 29.0483
" />
<path d="M-9.6013 29.0483
L-9.6727 29.1197
" />
<path d="M-9.6727 29.1197
L-9.8156 29.1911
" />
<path d="M-9.8156 29.1911
L-10.1727 29.1911
" />
<path d="M-10.1727 29.1911
L-10.3156 29.1197
" />
<path d="M-10.3156 29.1197
L-10.3870 29.0483
" />
</g><path d="M-103.7000 20.1050
L4.3000 20.1050
" />
</g>
<g style="fill:none; 
stroke:#C872AB; stroke-width:0.4000; stroke-opacity:1; 
stroke-linecap:round; stroke-linejoin:round;">
<text x="-102.7000" y="22.9050"
textLength="9.6571" font-size="2.6667" lengthAdjust="spacingAndGlyphs"
text-anchor="start" opacity="0" stroke-opacity="0">Title: </text>
<g class="stroked-text"><desc>Title: </desc>
<path d="M-102.0083 20.8094
L-100.8654 20.8094
" />
<path d="M-101.6868 22.8094
L-101.4368 20.8094
" />
<path d="M-100.4487 22.8094
L-100.2821 21.4761
" />
<path d="M-100.1987 20.8094
L-100.3059 20.9047
" />
<path d="M-100.3059 20.9047
L-100.2226 20.9999
" />
<path d="M-100.2226 20.9999
L-100.1154 20.9047
" />
<path d="M-100.1154 20.9047
L-100.1987 20.8094
" />
<path d="M-100.1987 20.8094
L-100.2226 20.9999
" />
<path d="M-99.6154 21.4761
L-98.8535 21.4761
" />
<path d="M-99.2464 20.8094
L-99.4607 22.5237
" />
<path d="M-99.4607 22.5237
L-99.3892 22.7142
" />
<path d="M-99.3892 22.7142
L-99.2107 22.8094
" />
<path d="M-99.2107 22.8094
L-99.0202 22.8094
" />
<path d="M-98.0678 22.8094
L-98.2464 22.7142
" />
<path d="M-98.2464 22.7142
L-98.3178 22.5237
" />
<path d="M-98.3178 22.5237
L-98.1035 20.8094
" />
<path d="M-96.5321 22.7142
L-96.7345 22.8094
" />
<path d="M-96.7345 22.8094
L-97.1154 22.8094
" />
<path d="M-97.1154 22.8094
L-97.2940 22.7142
" />
<path d="M-97.2940 22.7142
L-97.3654 22.5237
" />
<path d="M-97.3654 22.5237
L-97.2702 21.7618
" />
<path d="M-97.2702 21.7618
L-97.1511 21.5713
" />
<path d="M-97.1511 21.5713
L-96.9487 21.4761
" />
<path d="M-96.9487 21.4761
L-96.5678 21.4761
" />
<path d="M-96.5678 21.4761
L-96.3892 21.5713
" />
<path d="M-96.3892 21.5713
L-96.3178 21.7618
" />
<path d="M-96.3178 21.7618
L-96.3416 21.9523
" />
<path d="M-96.3416 21.9523
L-97.3178 22.1428
" />
<path d="M-95.5678 22.6190
L-95.4845 22.7142
" />
<path d="M-95.4845 22.7142
L-95.5916 22.8094
" />
<path d="M-95.5916 22.8094
L-95.6749 22.7142
" />
<path d="M-95.6749 22.7142
L-95.5678 22.6190
" />
<path d="M-95.5678 22.6190
L-95.5916 22.8094
" />
<path d="M-95.4368 21.5713
L-95.3535 21.6666
" />
<path d="M-95.3535 21.6666
L-95.4607 21.7618
" />
<path d="M-95.4607 21.7618
L-95.5440 21.6666
" />
<path d="M-95.5440 21.6666
L-95.4368 21.5713
" />
<path d="M-95.4368 21.5713
L-95.4607 21.7618
" />
</g></g>
<g style="fill:none; 
stroke:#C872AB; stroke-width:0.1500; stroke-opacity:1; 
stroke-linecap:round; stroke-linejoin:round;">
<text x="-102.7000" y="19.0550"
textLength="48.0071" font-size="2.0000" lengthAdjust="spacingAndGlyphs"
text-anchor="start" opacity="0" stroke-opacity="0">File: bios-programmer-ch341a.kicad_pcb</text>
<g class="stroked-text"><desc>File: bios-programmer-ch341a.kicad_pcb</desc>
<path d="M-101.7442 18.2054
L-102.2442 18.2054
" />
<path d="M-102.2442 18.9911
L-102.2442 17.4911
" />
<path d="M-102.2442 17.4911
L-101.5299 17.4911
" />
<path d="M-100.9585 18.9911
L-100.9585 17.9911
" />
<path d="M-100.9585 17.4911
L-101.0299 17.5626
" />
<path d="M-101.0299 17.5626
L-100.9585 17.6340
" />
<path d="M-100.9585 17.6340
L-100.8870 17.5626
" />
<path d="M-100.8870 17.5626
L-100.9585 17.4911
" />
<path d="M-100.9585 17.4911
L-100.9585 17.6340
" />
<path d="M-100.0299 18.9911
L-100.1727 18.9197
" />
<path d="M-100.1727 18.9197
L-100.2442 18.7768
" />
<path d="M-100.2442 18.7768
L-100.2442 17.4911
" />
<path d="M-98.8870 18.9197
L-99.0299 18.9911
" />
<path d="M-99.0299 18.9911
L-99.3156 18.9911
" />
<path d="M-99.3156 18.9911
L-99.4585 18.9197
" />
<path d="M-99.4585 18.9197
L-99.5299 18.7768
" />
<path d="M-99.5299 18.7768
L-99.5299 18.2054
" />
<path d="M-99.5299 18.2054
L-99.4585 18.0626
" />
<path d="M-99.4585 18.0626
L-99.3156 17.9911
" />
<path d="M-99.3156 17.9911
L-99.0299 17.9911
" />
<path d="M-99.0299 17.9911
L-98.8870 18.0626
" />
<path d="M-98.8870 18.0626
L-98.8156 18.2054
" />
<path d="M-98.8156 18.2054
L-98.8156 18.3483
" />
<path d="M-98.8156 18.3483
L-99.5299 18.4911
" />
<path d="M-98.1727 18.8483
L-98.1013 18.9197
" />
<path d="M-98.1013 18.9197
L-98.1727 18.9911
" />
<path d="M-98.1727 18.9911
L-98.2442 18.9197
" />
<path d="M-98.2442 18.9197
L-98.1727 18.8483
" />
<path d="M-98.1727 18.8483
L-98.1727 18.9911
" />
<path d="M-98.1727 18.0626
L-98.1013 18.1340
" />
<path d="M-98.1013 18.1340
L-98.1727 18.2054
" />
<path d="M-98.1727 18.2054
L-98.2442 18.1340
" />
<path d="M-98.2442 18.1340
L-98.1727 18.0626
" />
<path d="M-98.1727 18.0626
L-98.1727 18.2054
" />
<path d="M-96.3156 18.9911
L-96.3156 17.4911
" />
<path d="M-96.3156 18.0626
L-96.1727 17.9911
" />
<path d="M-96.1727 17.9911
L-95.8870 17.9911
" />
<path d="M-95.8870 17.9911
L-95.7442 18.0626
" />
<path d="M-95.7442 18.0626
L-95.6727 18.1340
" />
<path d="M-95.6727 18.1340
L-95.6013 18.2768
" />
<path d="M-95.6013 18.2768
L-95.6013 18.7054
" />
<path d="M-95.6013 18.7054
L-95.6727 18.8483
" />
<path d="M-95.6727 18.8483
L-95.7442 18.9197
" />
<path d="M-95.7442 18.9197
L-95.8870 18.9911
" />
<path d="M-95.8870 18.9911
L-96.1727 18.9911
" />
<path d="M-96.1727 18.9911
L-96.3156 18.9197
" />
<path d="M-94.9585 18.9911
L-94.9585 17.9911
" />
<path d="M-94.9585 17.4911
L-95.0299 17.5626
" />
<path d="M-95.0299 17.5626
L-94.9585 17.6340
" />
<path d="M-94.9585 17.6340
L-94.8870 17.5626
" />
<path d="M-94.8870 17.5626
L-94.9585 17.4911
" />
<path d="M-94.9585 17.4911
L-94.9585 17.6340
" />
<path d="M-94.0299 18.9911
L-94.1727 18.9197
" />
<path d="M-94.1727 18.9197
L-94.2442 18.8483
" />
<path d="M-94.2442 18.8483
L-94.3156 18.7054
" />
<path d="M-94.3156 18.7054
L-94.3156 18.2768
" />
<path d="M-94.3156 18.2768
L-94.2442 18.1340
" />
<path d="M-94.2442 18.1340
L-94.1727 18.0626
" />
<path d="M-94.1727 18.0626
L-94.0299 17.9911
" />
<path d="M-94.0299 17.9911
L-93.8156 17.9911
" />
<path d="M-93.8156 17.9911
L-93.6727 18.0626
" />
<path d="M-93.6727 18.0626
L-93.6013 18.1340
" />
<path d="M-93.6013 18.1340
L-93.5299 18.2768
" />
<path d="M-93.5299 18.2768
L-93.5299 18.7054
" />
<path d="M-93.5299 18.7054
L-93.6013 18.8483
" />
<path d="M-93.6013 18.8483
L-93.6727 18.9197
" />
<path d="M-93.6727 18.9197
L-93.8156 18.9911
" />
<path d="M-93.8156 18.9911
L-94.0299 18.9911
" />
<path d="M-92.9585 18.9197
L-92.8156 18.9911
" />
<path d="M-92.8156 18.9911
L-92.5299 18.9911
" />
<path d="M-92.5299 18.9911
L-92.3870 18.9197
" />
<path d="M-92.3870 18.9197
L-92.3156 18.7768
" />
<path d="M-92.3156 18.7768
L-92.3156 18.7054
" />
<path d="M-92.3156 18.7054
L-92.3870 18.5626
" />
<path d="M-92.3870 18.5626
L-92.5299 18.4911
" />
<path d="M-92.5299 18.4911
L-92.7442 18.4911
" />
<path d="M-92.7442 18.4911
L-92.8870 18.4197
" />
<path d="M-92.8870 18.4197
L-92.9585 18.2768
" />
<path d="M-92.9585 18.2768
L-92.9585 18.2054
" />
<path d="M-92.9585 18.2054
L-92.8870 18.0626
" />
<path d="M-92.8870 18.0626
L-92.7442 17.9911
" />
<path d="M-92.7442 17.9911
L-92.5299 17.9911
" />
<path d="M-92.5299 17.9911
L-92.3870 18.0626
" />
<path d="M-91.6727 18.4197
L-90.5299 18.4197
" />
<path d="M-89.8156 17.9911
L-89.8156 19.4911
" />
<path d="M-89.8156 18.0626
L-89.6727 17.9911
" />
<path d="M-89.6727 17.9911
L-89.3870 17.9911
" />
<path d="M-89.3870 17.9911
L-89.2442 18.0626
" />
<path d="M-89.2442 18.0626
L-89.1727 18.1340
" />
<path d="M-89.1727 18.1340
L-89.1013 18.2768
" />
<path d="M-89.1013 18.2768
L-89.1013 18.7054
" />
<path d="M-89.1013 18.7054
L-89.1727 18.8483
" />
<path d="M-89.1727 18.8483
L-89.2442 18.9197
" />
<path d="M-89.2442 18.9197
L-89.3870 18.9911
" />
<path d="M-89.3870 18.9911
L-89.6727 18.9911
" />
<path d="M-89.6727 18.9911
L-89.8156 18.9197
" />
<path d="M-88.4585 18.9911
L-88.4585 17.9911
" />
<path d="M-88.4585 18.2768
L-88.3870 18.1340
" />
<path d="M-88.3870 18.1340
L-88.3156 18.0626
" />
<path d="M-88.3156 18.0626
L-88.1727 17.9911
" />
<path d="M-88.1727 17.9911
L-88.0299 17.9911
" />
<path d="M-87.3156 18.9911
L-87.4585 18.9197
" />
<path d="M-87.4585 18.9197
L-87.5299 18.8483
" />
<path d="M-87.5299 18.8483
L-87.6013 18.7054
" />
<path d="M-87.6013 18.7054
L-87.6013 18.2768
" />
<path d="M-87.6013 18.2768
L-87.5299 18.1340
" />
<path d="M-87.5299 18.1340
L-87.4585 18.0626
" />
<path d="M-87.4585 18.0626
L-87.3156 17.9911
" />
<path d="M-87.3156 17.9911
L-87.1013 17.9911
" />
<path d="M-87.1013 17.9911
L-86.9585 18.0626
" />
<path d="M-86.9585 18.0626
L-86.8870 18.1340
" />
<path d="M-86.8870 18.1340
L-86.8156 18.2768
" />
<path d="M-86.8156 18.2768
L-86.8156 18.7054
" />
<path d="M-86.8156 18.7054
L-86.8870 18.8483
" />
<path d="M-86.8870 18.8483
L-86.9585 18.9197
" />
<path d="M-86.9585 18.9197
L-87.1013 18.9911
" />
<path d="M-87.1013 18.9911
L-87.3156 18.9911
" />
<path d="M-85.5299 17.9911
L-85.5299 19.2054
" />
<path d="M-85.5299 19.2054
L-85.6013 19.3483
" />
<path d="M-85.6013 19.3483
L-85.6727 19.4197
" />
<path d="M-85.6727 19.4197
L-85.8156 19.4911
" />
<path d="M-85.8156 19.4911
L-86.0299 19.4911
" />
<path d="M-86.0299 19.4911
L-86.1727 19.4197
" />
<path d="M-85.5299 18.9197
L-85.6727 18.9911
" />
<path d="M-85.6727 18.9911
L-85.9585 18.9911
" />
<path d="M-85.9585 18.9911
L-86.1013 18.9197
" />
<path d="M-86.1013 18.9197
L-86.1727 18.8483
" />
<path d="M-86.1727 18.8483
L-86.2442 18.7054
" />
<path d="M-86.2442 18.7054
L-86.2442 18.2768
" />
<path d="M-86.2442 18.2768
L-86.1727 18.1340
" />
<path d="M-86.1727 18.1340
L-86.1013 18.0626
" />
<path d="M-86.1013 18.0626
L-85.9585 17.9911
" />
<path d="M-85.9585 17.9911
L-85.6727 17.9911
" />
<path d="M-85.6727 17.9911
L-85.5299 18.0626
" />
<path d="M-84.8156 18.9911
L-84.8156 17.9911
" />
<path d="M-84.8156 18.2768
L-84.7442 18.1340
" />
<path d="M-84.7442 18.1340
L-84.6727 18.0626
" />
<path d="M-84.6727 18.0626
L-84.5299 17.9911
" />
<path d="M-84.5299 17.9911
L-84.3870 17.9911
" />
<path d="M-83.2442 18.9911
L-83.2442 18.2054
" />
<path d="M-83.2442 18.2054
L-83.3156 18.0626
" />
<path d="M-83.3156 18.0626
L-83.4585 17.9911
" />
<path d="M-83.4585 17.9911
L-83.7442 17.9911
" />
<path d="M-83.7442 17.9911
L-83.8870 18.0626
" />
<path d="M-83.2442 18.9197
L-83.3870 18.9911
" />
<path d="M-83.3870 18.9911
L-83.7442 18.9911
" />
<path d="M-83.7442 18.9911
L-83.8870 18.9197
" />
<path d="M-83.8870 18.9197
L-83.9585 18.7768
" />
<path d="M-83.9585 18.7768
L-83.9585 18.6340
" />
<path d="M-83.9585 18.6340
L-83.8870 18.4911
" />
<path d="M-83.8870 18.4911
L-83.7442 18.4197
" />
<path d="M-83.7442 18.4197
L-83.3870 18.4197
" />
<path d="M-83.3870 18.4197
L-83.2442 18.3483
" />
<path d="M-82.5299 18.9911
L-82.5299 17.9911
" />
<path d="M-82.5299 18.1340
L-82.4585 18.0626
" />
<path d="M-82.4585 18.0626
L-82.3156 17.9911
" />
<path d="M-82.3156 17.9911
L-82.1013 17.9911
" />
<path d="M-82.1013 17.9911
L-81.9585 18.0626
" />
<path d="M-81.9585 18.0626
L-81.8870 18.2054
" />
<path d="M-81.8870 18.2054
L-81.8870 18.9911
" />
<path d="M-81.8870 18.2054
L-81.8156 18.0626
" />
<path d="M-81.8156 18.0626
L-81.6727 17.9911
" />
<path d="M-81.6727 17.9911
L-81.4585 17.9911
" />
<path d="M-81.4585 17.9911
L-81.3156 18.0626
" />
<path d="M-81.3156 18.0626
L-81.2442 18.2054
" />
<path d="M-81.2442 18.2054
L-81.2442 18.9911
" />
<path d="M-80.5299 18.9911
L-80.5299 17.9911
" />
<path d="M-80.5299 18.1340
L-80.4585 18.0626
" />
<path d="M-80.4585 18.0626
L-80.3156 17.9911
" />
<path d="M-80.3156 17.9911
L-80.1013 17.9911
" />
<path d="M-80.1013 17.9911
L-79.9585 18.0626
" />
<path d="M-79.9585 18.0626
L-79.8870 18.2054
" />
<path d="M-79.8870 18.2054
L-79.8870 18.9911
" />
<path d="M-79.8870 18.2054
L-79.8156 18.0626
" />
<path d="M-79.8156 18.0626
L-79.6727 17.9911
" />
<path d="M-79.6727 17.9911
L-79.4585 17.9911
" />
<path d="M-79.4585 17.9911
L-79.3156 18.0626
" />
<path d="M-79.3156 18.0626
L-79.2442 18.2054
" />
<path d="M-79.2442 18.2054
L-79.2442 18.9911
" />
<path d="M-77.9585 18.9197
L-78.1013 18.9911
" />
<path d="M-78.1013 18.9911
L-78.3870 18.9911
" />
<path d="M-78.3870 18.9911
L-78.5299 18.9197
" />
<path d="M-78.5299 18.9197
L-78.6013 18.7768
" />
<path d="M-78.6013 18.7768
L-78.6013 18.2054
" />
<path d="M-78.6013 18.2054
L-78.5299 18.0626
" />
<path d="M-78.5299 18.0626
L-78.3870 17.9911
" />
<path d="M-78.3870 17.9911
L-78.1013 17.9911
" />
<path d="M-78.1013 17.9911
L-77.9585 18.0626
" />
<path d="M-77.9585 18.0626
L-77.8870 18.2054
" />
<path d="M-77.8870 18.2054
L-77.8870 18.3483
" />
<path d="M-77.8870 18.3483
L-78.6013 18.4911
" />
<path d="M-77.2442 18.9911
L-77.2442 17.9911
" />
<path d="M-77.2442 18.2768
L-77.1727 18.1340
" />
<path d="M-77.1727 18.1340
L-77.1013 18.0626
" />
<path d="M-77.1013 18.0626
L-76.9585 17.9911
" />
<path d="M-76.9585 17.9911
L-76.8156 17.9911
" />
<path d="M-76.3156 18.4197
L-75.1727 18.4197
" />
<path d="M-73.8156 18.9197
L-73.9585 18.9911
" />
<path d="M-73.9585 18.9911
L-74.2442 18.9911
" />
<path d="M-74.2442 18.9911
L-74.3870 18.9197
" />
<path d="M-74.3870 18.9197
L-74.4585 18.8483
" />
<path d="M-74.4585 18.8483
L-74.5299 18.7054
" />
<path d="M-74.5299 18.7054
L-74.5299 18.2768
" />
<path d="M-74.5299 18.2768
L-74.4585 18.1340
" />
<path d="M-74.4585 18.1340
L-74.3870 18.0626
" />
<path d="M-74.3870 18.0626
L-74.2442 17.9911
" />
<path d="M-74.2442 17.9911
L-73.9585 17.9911
" />
<path d="M-73.9585 17.9911
L-73.8156 18.0626
" />
<path d="M-73.1727 18.9911
L-73.1727 17.4911
" />
<path d="M-72.5299 18.9911
L-72.5299 18.2054
" />
<path d="M-72.5299 18.2054
L-72.6013 18.0626
" />
<path d="M-72.6013 18.0626
L-72.7442 17.9911
" />
<path d="M-72.7442 17.9911
L-72.9585 17.9911
" />
<path d="M-72.9585 17.9911
L-73.1013 18.0626
" />
<path d="M-73.1013 18.0626
L-73.1727 18.1340
" />
<path d="M-71.9585 17.4911
L-71.0299 17.4911
" />
<path d="M-71.0299 17.4911
L-71.5299 18.0626
" />
<path d="M-71.5299 18.0626
L-71.3156 18.0626
" />
<path d="M-71.3156 18.0626
L-71.1727 18.1340
" />
<path d="M-71.1727 18.1340
L-71.1013 18.2054
" />
<path d="M-71.1013 18.2054
L-71.0299 18.3483
" />
<path d="M-71.0299 18.3483
L-71.0299 18.7054
" />
<path d="M-71.0299 18.7054
L-71.1013 18.8483
" />
<path d="M-71.1013 18.8483
L-71.1727 18.9197
" />
<path d="M-71.1727 18.9197
L-71.3156 18.9911
" />
<path d="M-71.3156 18.9911
L-71.7442 18.9911
" />
<path d="M-71.7442 18.9911
L-71.8870 18.9197
" />
<path d="M-71.8870 18.9197
L-71.9585 18.8483
" />
<path d="M-69.7442 17.9911
L-69.7442 18.9911
" />
<path d="M-70.1013 17.4197
L-70.4585 18.4911
" />
<path d="M-70.4585 18.4911
L-69.5299 18.4911
" />
<path d="M-68.1727 18.9911
L-69.0299 18.9911
" />
<path d="M-68.6013 18.9911
L-68.6013 17.4911
" />
<path d="M-68.6013 17.4911
L-68.7442 17.7054
" />
<path d="M-68.7442 17.7054
L-68.8870 17.8483
" />
<path d="M-68.8870 17.8483
L-69.0299 17.9197
" />
<path d="M-66.8870 18.9911
L-66.8870 18.2054
" />
<path d="M-66.8870 18.2054
L-66.9585 18.0626
" />
<path d="M-66.9585 18.0626
L-67.1013 17.9911
" />
<path d="M-67.1013 17.9911
L-67.3870 17.9911
" />
<path d="M-67.3870 17.9911
L-67.5299 18.0626
" />
<path d="M-66.8870 18.9197
L-67.0299 18.9911
" />
<path d="M-67.0299 18.9911
L-67.3870 18.9911
" />
<path d="M-67.3870 18.9911
L-67.5299 18.9197
" />
<path d="M-67.5299 18.9197
L-67.6013 18.7768
" />
<path d="M-67.6013 18.7768
L-67.6013 18.6340
" />
<path d="M-67.6013 18.6340
L-67.5299 18.4911
" />
<path d="M-67.5299 18.4911
L-67.3870 18.4197
" />
<path d="M-67.3870 18.4197
L-67.0299 18.4197
" />
<path d="M-67.0299 18.4197
L-66.8870 18.3483
" />
<path d="M-66.1727 18.8483
L-66.1013 18.9197
" />
<path d="M-66.1013 18.9197
L-66.1727 18.9911
" />
<path d="M-66.1727 18.9911
L-66.2442 18.9197
" />
<path d="M-66.2442 18.9197
L-66.1727 18.8483
" />
<path d="M-66.1727 18.8483
L-66.1727 18.9911
" />
<path d="M-65.4585 18.9911
L-65.4585 17.4911
" />
<path d="M-65.3156 18.4197
L-64.8870 18.9911
" />
<path d="M-64.8870 17.9911
L-65.4585 18.5626
" />
<path d="M-64.2442 18.9911
L-64.2442 17.9911
" />
<path d="M-64.2442 17.4911
L-64.3156 17.5626
" />
<path d="M-64.3156 17.5626
L-64.2442 17.6340
" />
<path d="M-64.2442 17.6340
L-64.1727 17.5626
" />
<path d="M-64.1727 17.5626
L-64.2442 17.4911
" />
<path d="M-64.2442 17.4911
L-64.2442 17.6340
" />
<path d="M-62.8870 18.9197
L-63.0299 18.9911
" />
<path d="M-63.0299 18.9911
L-63.3156 18.9911
" />
<path d="M-63.3156 18.9911
L-63.4585 18.9197
" />
<path d="M-63.4585 18.9197
L-63.5299 18.8483
" />
<path d="M-63.5299 18.8483
L-63.6013 18.7054
" />
<path d="M-63.6013 18.7054
L-63.6013 18.2768
" />
<path d="M-63.6013 18.2768
L-63.5299 18.1340
" />
<path d="M-63.5299 18.1340
L-63.4585 18.0626
" />
<path d="M-63.4585 18.0626
L-63.3156 17.9911
" />
<path d="M-63.3156 17.9911
L-63.0299 17.9911
" />
<path d="M-63.0299 17.9911
L-62.8870 18.0626
" />
<path d="M-61.6013 18.9911
L-61.6013 18.2054
" />
<path d="M-61.6013 18.2054
L-61.6727 18.0626
" />
<path d="M-61.6727 18.0626
L-61.8156 17.9911
" />
<path d="M-61.8156 17.9911
L-62.1013 17.9911
" />
<path d="M-62.1013 17.9911
L-62.2442 18.0626
" />
<path d="M-61.6013 18.9197
L-61.7442 18.9911
" />
<path d="M-61.7442 18.9911
L-62.1013 18.9911
" />
<path d="M-62.1013 18.9911
L-62.2442 18.9197
" />
<path d="M-62.2442 18.9197
L-62.3156 18.7768
" />
<path d="M-62.3156 18.7768
L-62.3156 18.6340
" />
<path d="M-62.3156 18.6340
L-62.2442 18.4911
" />
<path d="M-62.2442 18.4911
L-62.1013 18.4197
" />
<path d="M-62.1013 18.4197
L-61.7442 18.4197
" />
<path d="M-61.7442 18.4197
L-61.6013 18.3483
" />
<path d="M-60.2442 18.9911
L-60.2442 17.4911
" />
<path d="M-60.2442 18.9197
L-60.3870 18.9911
" />
<path d="M-60.3870 18.9911
L-60.6727 18.9911
" />
<path d="M-60.6727 18.9911
L-60.8156 18.9197
" />
<path d="M-60.8156 18.9197
L-60.8870 18.8483
" />
<path d="M-60.8870 18.8483
L-60.9585 18.7054
" />
<path d="M-60.9585 18.7054
L-60.9585 18.2768
" />
<path d="M-60.9585 18.2768
L-60.8870 18.1340
" />
<path d="M-60.8870 18.1340
L-60.8156 18.0626
" />
<path d="M-60.8156 18.0626
L-60.6727 17.9911
" />
<path d="M-60.6727 17.9911
L-60.3870 17.9911
" />
<path d="M-60.3870 17.9911
L-60.2442 18.0626
" />
<path d="M-59.8870 19.1340
L-58.7442 19.1340
" />
<path d="M-58.3870 17.9911
L-58.3870 19.4911
" />
<path d="M-58.3870 18.0626
L-58.2442 17.9911
" />
<path d="M-58.2442 17.9911
L-57.9585 17.9911
" />
<path d="M-57.9585 17.9911
L-57.8156 18.0626
" />
<path d="M-57.8156 18.0626
L-57.7442 18.1340
" />
<path d="M-57.7442 18.1340
L-57.6727 18.2768
" />
<path d="M-57.6727 18.2768
L-57.6727 18.7054
" />
<path d="M-57.6727 18.7054
L-57.7442 18.8483
" />
<path d="M-57.7442 18.8483
L-57.8156 18.9197
" />
<path d="M-57.8156 18.9197
L-57.9585 18.9911
" />
<path d="M-57.9585 18.9911
L-58.2442 18.9911
" />
<path d="M-58.2442 18.9911
L-58.3870 18.9197
" />
<path d="M-56.3870 18.9197
L-56.5299 18.9911
" />
<path d="M-56.5299 18.9911
L-56.8156 18.9911
" />
<path d="M-56.8156 18.9911
L-56.9585 18.9197
" />
<path d="M-56.9585 18.9197
L-57.0299 18.8483
" />
<path d="M-57.0299 18.8483
L-57.1013 18.7054
" />
<path d="M-57.1013 18.7054
L-57.1013 18.2768
" />
<path d="M-57.1013 18.2768
L-57.0299 18.1340
" />
<path d="M-57.0299 18.1340
L-56.9585 18.0626
" />
<path d="M-56.9585 18.0626
L-56.8156 17.9911
" />
<path d="M-56.8156 17.9911
L-56.5299 17.9911
" />
<path d="M-56.5299 17.9911
L-56.3870 18.0626
" />
<path d="M-55.7442 18.9911
L-55.7442 17.4911
" />
<path d="M-55.7442 18.0626
L-55.6013 17.9911
" />
<path d="M-55.6013 17.9911
L-55.3156 17.9911
" />
<path d="M-55.3156 17.9911
L-55.1727 18.0626
" />
<path d="M-55.1727 18.0626
L-55.1013 18.1340
" />
<path d="M-55.1013 18.1340
L-55.0299 18.2768
" />
<path d="M-55.0299 18.2768
L-55.0299 18.7054
" />
<path d="M-55.0299 18.7054
L-55.1013 18.8483
" />
<path d="M-55.1013 18.8483
L-55.1727 18.9197
" />
<path d="M-55.1727 18.9197
L-55.3156 18.9911
" />
<path d="M-55.3156 18.9911
L-55.6013 18.9911
" />
<path d="M-55.6013 18.9911
L-55.7442 18.9197
" />
</g><path d="M-103.7000 14.1050
L4.3000 14.1050
" />
<text x="-102.7000" y="16.3550"
textLength="8.2214" font-size="2.0000" lengthAdjust="spacingAndGlyphs"
text-anchor="start" opacity="0" stroke-opacity="0">Sheet: </text>
<g class="stroked-text"><desc>Sheet: </desc>
<path d="M-102.3156 16.2197
L-102.1013 16.2911
" />
<path d="M-102.1013 16.2911
L-101.7442 16.2911
" />
<path d="M-101.7442 16.2911
L-101.6013 16.2197
" />
<path d="M-101.6013 16.2197
L-101.5299 16.1483
" />
<path d="M-101.5299 16.1483
L-101.4585 16.0054
" />
<path d="M-101.4585 16.0054
L-101.4585 15.8626
" />
<path d="M-101.4585 15.8626
L-101.5299 15.7197
" />
<path d="M-101.5299 15.7197
L-101.6013 15.6483
" />
<path d="M-101.6013 15.6483
L-101.7442 15.5768
" />
<path d="M-101.7442 15.5768
L-102.0299 15.5054
" />
<path d="M-102.0299 15.5054
L-102.1727 15.4340
" />
<path d="M-102.1727 15.4340
L-102.2442 15.3626
" />
<path d="M-102.2442 15.3626
L-102.3156 15.2197
" />
<path d="M-102.3156 15.2197
L-102.3156 15.0768
" />
<path d="M-102.3156 15.0768
L-102.2442 14.9340
" />
<path d="M-102.2442 14.9340
L-102.1727 14.8626
" />
<path d="M-102.1727 14.8626
L-102.0299 14.7911
" />
<path d="M-102.0299 14.7911
L-101.6727 14.7911
" />
<path d="M-101.6727 14.7911
L-101.4585 14.8626
" />
<path d="M-100.8156 16.2911
L-100.8156 14.7911
" />
<path d="M-100.1727 16.2911
L-100.1727 15.5054
" />
<path d="M-100.1727 15.5054
L-100.2442 15.3626
" />
<path d="M-100.2442 15.3626
L-100.3870 15.2911
" />
<path d="M-100.3870 15.2911
L-100.6013 15.2911
" />
<path d="M-100.6013 15.2911
L-100.7442 15.3626
" />
<path d="M-100.7442 15.3626
L-100.8156 15.4340
" />
<path d="M-98.8870 16.2197
L-99.0299 16.2911
" />
<path d="M-99.0299 16.2911
L-99.3156 16.2911
" />
<path d="M-99.3156 16.2911
L-99.4585 16.2197
" />
<path d="M-99.4585 16.2197
L-99.5299 16.0768
" />
<path d="M-99.5299 16.0768
L-99.5299 15.5054
" />
<path d="M-99.5299 15.5054
L-99.4585 15.3626
" />
<path d="M-99.4585 15.3626
L-99.3156 15.2911
" />
<path d="M-99.3156 15.2911
L-99.0299 15.2911
" />
<path d="M-99.0299 15.2911
L-98.8870 15.3626
" />
<path d="M-98.8870 15.3626
L-98.8156 15.5054
" />
<path d="M-98.8156 15.5054
L-98.8156 15.6483
" />
<path d="M-98.8156 15.6483
L-99.5299 15.7911
" />
<path d="M-97.6013 16.2197
L-97.7442 16.2911
" />
<path d="M-97.7442 16.2911
L-98.0299 16.2911
" />
<path d="M-98.0299 16.2911
L-98.1727 16.2197
" />
<path d="M-98.1727 16.2197
L-98.2442 16.0768
" />
<path d="M-98.2442 16.0768
L-98.2442 15.5054
" />
<path d="M-98.2442 15.5054
L-98.1727 15.3626
" />
<path d="M-98.1727 15.3626
L-98.0299 15.2911
" />
<path d="M-98.0299 15.2911
L-97.7442 15.2911
" />
<path d="M-97.7442 15.2911
L-97.6013 15.3626
" />
<path d="M-97.6013 15.3626
L-97.5299 15.5054
" />
<path d="M-97.5299 15.5054
L-97.5299 15.6483
" />
<path d="M-97.5299 15.6483
L-98.2442 15.7911
" />
<path d="M-97.1013 15.2911
L-96.5299 15.2911
" />
<path d="M-96.8870 14.7911
L-96.8870 16.0768
" />
<path d="M-96.8870 16.0768
L-96.8156 16.2197
" />
<path d="M-96.8156 16.2197
L-96.6727 16.2911
" />
<path d="M-96.6727 16.2911
L-96.5299 16.2911
" />
<path d="M-96.0299 16.1483
L-95.9585 16.2197
" />
<path d="M-95.9585 16.2197
L-96.0299 16.2911
" />
<path d="M-96.0299 16.2911
L-96.1013 16.2197
" />
<path d="M-96.1013 16.2197
L-96.0299 16.1483
" />
<path d="M-96.0299 16.1483
L-96.0299 16.2911
" />
<path d="M-96.0299 15.3626
L-95.9585 15.4340
" />
<path d="M-95.9585 15.4340
L-96.0299 15.5054
" />
<path d="M-96.0299 15.5054
L-96.1013 15.4340
" />
<path d="M-96.1013 15.4340
L-96.0299 15.3626
" />
<path d="M-96.0299 15.3626
L-96.0299 15.5054
" />
</g></g>
<g style="fill:none; 
stroke:#C872AB; stroke-width:0.3000; stroke-opacity:1; 
stroke-linecap:round; stroke-linejoin:round;">
<text x="-102.7000" y="13.3550"
textLength="0.9000" font-size="2.0000" lengthAdjust="spacingAndGlyphs"
text-anchor="start" opacity="0" stroke-opacity="0"></text>
<g class="stroked-text"><desc></desc>
</g></g>
<g style="fill:none; 
stroke:#C872AB; stroke-width:0.1500; stroke-opacity:1; 
stroke-linecap:round; stroke-linejoin:round;">
<text x="-102.7000" y="10.3550"
textLength="0.4500" font-size="2.0000" lengthAdjust="spacingAndGlyphs"
text-anchor="start" opacity="0" stroke-opacity="0"></text>
<g class="stroked-text"><desc></desc>
</g><text x="-102.7000" y="7.3550"
textLength="0.4500" font-size="2.0000" lengthAdjust="spacingAndGlyphs"
text-anchor="start" opacity="0" stroke-opacity="0"></text>
<g class="stroked-text"><desc></desc>
</g><text x="-102.7000" y="4.3550"
textLength="0.4500" font-size="2.0000" lengthAdjust="spacingAndGlyphs"
text-anchor="start" opacity="0" stroke-opacity="0"></text>
<g class="stroked-text"><desc></desc>
</g><text x="-102.7000" y="1.3550"
textLength="0.4500" font-size="2.0000" lengthAdjust="spacingAndGlyphs"
text-anchor="start" opacity="0" stroke-opacity="0"></text>
<g class="stroked-text"><desc></desc>
</g><path d="M-83.7000 24.1050
L-83.7000 27.1050
" />
<path d="M-19.7000 24.1050
L-19.7000 30.6050
" />
</g>
<g style="fill:none; 
stroke:#000000; stroke-width:0.5000; stroke-opacity:1; 
stroke-linecap:round; stroke-linejoin:round;">
<path d="M41.2050 2.4650
L41.2050 3.1150
" />
</g>
<g style="fill:none; 
stroke:#000000; stroke-width:0.5500; stroke-opacity:1; 
stroke-linecap:round; stroke-linejoin:round;">
<path d="M40.0550 5.4900
L40.3550 5.4900
" />
<path d="M35.0550 5.4900
L35.3550 5.4900
" />
</g>
<g style="fill:none; 
stroke:#000000; stroke-width:0.5000; stroke-opacity:1; 
stroke-linecap:round; stroke-linejoin:round;">
<path d="M34.2050 2.4650
L34.2050 3.1150
" />
</g>
<g style="fill:#000000; fill-opacity:1.0000; stroke:none;">
<circle cx="6.6700" cy="49.6500" r="0.6000" /> 
<circle cx="16.8300" cy="49.6500" r="0.6000" /> 
<circle cx="6.6700" cy="39.4900" r="0.6000" /> 
<circle cx="16.8300" cy="39.4900" r="0.6000" /> 
<circle cx="11.7500" cy="43.2900" r="1.1000" /> 
<circle cx="32.8000" cy="24.7900" r="0.4000" /> 
<circle cx="30.2600" cy="24.7900" r="0.4000" /> 
<circle cx="27.7200" cy="24.7900" r="0.4000" /> 
<circle cx="25.1800" cy="24.7900" r="0.4000" /> 
<circle cx="22.6400" cy="24.7900" r="0.4000" /> 
<circle cx="20.1000" cy="24.7900" r="0.4000" /> 
<circle cx="17.5600" cy="24.7900" r="0.4000" /> 
<circle cx="15.0200" cy="24.7900" r="0.4000" /> 
<circle cx="15.0200" cy="32.4100" r="0.4000" /> 
<circle cx="17.5600" cy="32.4100" r="0.4000" /> 
<circle cx="20.1000" cy="32.4100" r="0.4000" /> 
<circle cx="22.6400" cy="32.4100" r="0.4000" /> 
<circle cx="25.1800" cy="32.4100" r="0.4000" /> 
<circle cx="27.7200" cy="32.4100" r="0.4000" /> 
<circle cx="30.2600" cy="32.4100" r="0.4000" /> 
<circle cx="32.8000" cy="32.4100" r="0.4000" /> 
<circle cx="22.6700" cy="49.6500" r="0.6000" /> 
<circle cx="32.8300" cy="49.6500" r="0.6000" /> 
<circle cx="22.6700" cy="39.4900" r="0.6000" /> 
<circle cx="32.8300" cy="39.4900" r="0.6000" /> 
<circle cx="27.7500" cy="43.2900" r="1.1000" /> 
<circle cx="46.5000" cy="11.0400" r="0.4000" /> 
<circle cx="46.5000" cy="6.1600" r="0.4000" /> 
<circle cx="37.5000" cy="49.2900" r="0.5000" /> 
<circle cx="40.0400" cy="49.2900" r="0.5000" /> 
<circle cx="37.5000" cy="46.7500" r="0.5000" /> 
<circle cx="40.0400" cy="46.7500" r="0.5000" /> 
<circle cx="37.5000" cy="44.2100" r="0.5000" /> 
<circle cx="40.0400" cy="44.2100" r="0.5000" /> 
<circle cx="37.5000" cy="41.6700" r="0.5000" /> 
<circle cx="40.0400" cy="41.6700" r="0.5000" /> 
<circle cx="14.0000" cy="9.5000" r="0.5000" /> 
<circle cx="11.4600" cy="9.5000" r="0.5000" /> 
<circle cx="14.0000" cy="12.0400" r="0.5000" /> 
<circle cx="11.4600" cy="12.0400" r="0.5000" /> 
<circle cx="14.0000" cy="14.5800" r="0.5000" /> 
<circle cx="11.4600" cy="14.5800" r="0.5000" /> 
<circle cx="14.0000" cy="17.1200" r="0.5000" /> 
<circle cx="11.4600" cy="17.1200" r="0.5000" /> 
</g> 
</svg>
